<?xml version="1.0" encoding="utf-8"?>
<!-- Generator: Adobe Illustrator 18.0.0, SVG Export Plug-In . SVG Version: 6.00 Build 0)  -->
<!DOCTYPE svg PUBLIC "-//W3C//DTD SVG 1.1//EN" "http://www.w3.org/Graphics/SVG/1.1/DTD/svg11.dtd">
<svg version="1.1" id="Layer_1" xmlns="http://www.w3.org/2000/svg" xmlns:xlink="http://www.w3.org/1999/xlink" x="0px" y="0px"
	 viewBox="404.9 248.4 600 690.1" enable-background="new 404.9 248.4 600 690.1" xml:space="preserve">
<g>
	<path fill="#D63333" d="M439.9,622.6c-19.2,0-35-15.7-35-35v-252c0-19.2,15.7-35,35-35H970c19.2,0,35,15.7,35,35v252
		c0,19.2-15.7,35-35,35H439.9z"/>
	<path fill="#CA0000" d="M441.7,456.4c7.6,0,13.9,6.2,13.9,13.9c0,7.6-6.2,13.9-13.9,13.9c-7.6,0-13.9-6.2-13.9-13.9
		C427.8,462.6,434,456.4,441.7,456.4 M441.7,448.5c-12,0-21.8,9.7-21.8,21.8c0,12,9.7,21.8,21.8,21.8c12,0,21.8-9.7,21.8-21.8
		C463.5,458.2,453.7,448.5,441.7,448.5L441.7,448.5z"/>
	<path fill="#EDCAAB" d="M790.4,284.6c0,12.8,13.5,23.3,30.2,23.3c16.7,0,30.2-10.4,30.2-23.3c0-12.9-13.5-23.3-30.2-23.3
		C803.9,261.3,790.4,271.8,790.4,284.6z"/>
	<ellipse fill="#EDCAAB" cx="757.5" cy="281.2" rx="33" ry="26.7"/>
	<path fill="#EDCAAB" d="M581.9,284.6c0,14.8,14.8,26.7,33,26.7c18.2,0,33-12,33-26.7c0-14.8-14.8-26.7-33-26.7
		C596.7,257.9,581.9,269.9,581.9,284.6z"/>
	<ellipse fill="#EDCAAB" cx="687.4" cy="279" rx="37.7" ry="30.6"/>
	<path fill="#F1D7C0" d="M802,278.7c4.4,4.1,11.1,6.7,18.6,6.7c7.5,0,14.1-2.6,18.6-6.7c-4.4-4.1-11.1-6.7-18.6-6.7
		C813.1,271.9,806.5,274.6,802,278.7z"/>
	<path fill="#F1D7C0" d="M757.5,265.7c-9.1,0-17.2,3.8-21.9,9.5c4.7,5.7,12.8,9.5,21.9,9.5c9.1,0,17.2-3.8,21.9-9.5
		C774.7,269.5,766.6,265.7,757.5,265.7z"/>
	<path fill="#F1D7C0" d="M614.9,269.2c-9.1,0-17.2,3.8-21.9,9.5c4.7,5.7,12.8,9.5,21.9,9.5c9.1,0,17.2-3.8,21.9-9.5
		C632,273,624,269.2,614.9,269.2z"/>
	<path fill="#F1D7C0" d="M687.4,260.5c-11.4,0-21.2,5.1-26.4,12.6c5.2,7.5,15,12.6,26.4,12.6c11.4,0,21.2-5.1,26.4-12.6
		C708.7,265.6,698.8,260.5,687.4,260.5z"/>
	<path fill="#EDCAAB" d="M537.3,622.7c13.3-8.8,30.4-14.7,47-14.7c40.1,0,71.7,14.7,71.7,14.7h7.1h267.7c1.1,34.5,1.6,107-12,135.4
		c-13.9,29.2-35,84.5-44,108.3c-2.7,7.1-23.7,72.1-23.7,72.1H648.2c0,0,31.4-96.6,32.4-99.4c26.7-76.7,6.7-76.2-20.7-98.3
		c-28.4-22.8-44.4-59.5-79.3-64.2c-29.7-4-51.9,19.8-65.5-7.3C507.2,653.5,518.5,635.2,537.3,622.7z"/>
	<path fill="#D42626" d="M672.6,847.1c3.6-11.1,5.8-18.1,6.2-19.2c4.6-13.3,7.9-24.2,9.9-33.5c0.2-1.1,0.9-2,1.8-2.5
		c0.9-0.6,2-0.7,3.1-0.5l188.8,49.1c1.1,0.3,2,1,2.5,2c0.5,1,0.6,2.2,0.2,3.2c-1.7,4.6-3.3,8.7-4.6,12.2
		c-1.2,3.3-5.8,17.2-13.3,40.3c-0.5,1.7-2.1,2.7-3.8,2.7c-0.3,0-0.7,0-1-0.1l-187-48.6c-1.1-0.3-2-1-2.5-1.9
		C672.4,849.3,672.3,848.2,672.6,847.1z"/>
	<path fill="#F5CCCC" d="M778.9,899.1c29.2,0,53-23.8,53-53s-23.8-53-53-53s-53,23.8-53,53S749.7,899.1,778.9,899.1z"/>
	<g>
		<path fill="#DB4C4C" d="M778.9,801.1c-24.8,0-45.1,20.2-45.1,45.1c0,24.9,20.2,45.1,45.1,45.1c24.8,0,45.1-20.2,45.1-45.1
			C824,821.3,803.8,801.1,778.9,801.1 M778.9,785.2c33.6,0,60.9,27.3,60.9,60.9c0,33.6-27.3,60.9-60.9,60.9S718,879.8,718,846.1
			C718,812.5,745.3,785.2,778.9,785.2L778.9,785.2z"/>
	</g>
	<polygon fill="#D11919" points="759.6,865.6 783.9,850 795.8,815.8 784.6,811.9 774,842.2 753.2,855.6 	"/>
</g>
</svg>
