<?xml version="1.0" encoding="utf-8"?>
<!-- Generator: Adobe Illustrator 18.0.0, SVG Export Plug-In . SVG Version: 6.00 Build 0)  -->
<!DOCTYPE svg PUBLIC "-//W3C//DTD SVG 1.1//EN" "http://www.w3.org/Graphics/SVG/1.1/DTD/svg11.dtd">
<svg version="1.1" id="Layer_1" xmlns="http://www.w3.org/2000/svg" xmlns:xlink="http://www.w3.org/1999/xlink" x="0px" y="0px"
	 viewBox="0 0 500 500" enable-background="new 0 0 500 500" xml:space="preserve">
<g>
	<circle fill="#B8C9ED" cx="247.9" cy="249.5" r="243.7"/>
	<g>
		<defs>
			<circle id="SVGID_1_" cx="250" cy="250" r="248.9"/>
		</defs>
		<clipPath id="SVGID_2_">
			<use xlink:href="#SVGID_1_"  overflow="visible"/>
		</clipPath>
	</g>
	<g>
		<path fill="#5C85D6" d="M250,16c62.5,0,121.3,24.3,165.5,68.5c44.2,44.2,68.5,103,68.5,165.5s-24.3,121.3-68.5,165.5
			C371.3,459.7,312.5,484,250,484c-62.5,0-121.3-24.3-165.5-68.5C40.3,371.3,16,312.5,16,250S40.3,128.7,84.5,84.5
			C128.7,40.3,187.5,16,250,16 M250,0C111.9,0,0,111.9,0,250s111.9,250,250,250c138.1,0,250-111.9,250-250S388.1,0,250,0L250,0z"/>
	</g>
	<g>
		<g>
			<ellipse fill="#7A9CDE" cx="250.4" cy="215.7" rx="149.4" ry="170.2"/>
			<g>
				<path fill="#DDB88B" d="M324.8,426.7c-2.1-2.1-8.2-26.5-7.1-45.4c16.7-32.2,31.6-65.8,31.6-65.8c7.8,10.6,17,7.8,29.7-35.4
					c12.7-43.1-9.2-37.5-9.2-37.5c9-141.9-92-161.8-119.5-164.5c-27.5,2.8-128.5,22.7-119.5,164.5c0,0-21.9-5.7-9.2,37.5
					c12.7,43.1,21.9,46,29.7,35.4c0,0,14.9,33.6,31.6,65.8c1.1,18.9-4.9,43.3-7.1,45.4c-2.2,2.2-2.9,30.3,74.5,30.8
					C327.7,457.1,327.1,429,324.8,426.7z"/>
			</g>
			<g>
				<path fill="#421402" d="M141.5,175.2c-4.4,6.7-8.1,13.3-11.2,19.6c-0.1,6.5,0.1,40.8,0.5,48l10.7,25.2V175.2z"/>
			</g>
			<g>
				<path fill="#421402" d="M359.6,175.2c4.4,6.7,8.1,13.3,11.2,19.6c0.1,6.5-0.1,40.8-0.5,48l-10.7,25.2V175.2z"/>
			</g>
			<path fill="#7A9CDE" d="M367.7,148.5l-48-67.4l-69.3-21.9L181,81.1l-48,67.4l-15.9,108.6c0,0,26-142.3,133.2-142.3
				s133.2,142.3,133.2,142.3L367.7,148.5z"/>
		</g>
		<g>
			<path fill="#E0E8F7" d="M250.4,455c-40.6,0-73.6-12.6-74.5-28.2c-17.3,3.6-39.2,8.4-61.1,14.3c39.3,27.9,86.1,43,135.2,43
				c49.2,0,96.1-15.1,135.4-43.1c-21.7-5.8-43.4-10.6-60.6-14.1C323.9,442.4,290.9,455,250.4,455z"/>
		</g>
	</g>
</g>
</svg>
