<?xml version="1.0" encoding="utf-8"?>
<!-- Generator: Adobe Illustrator 18.0.0, SVG Export Plug-In . SVG Version: 6.00 Build 0)  -->
<!DOCTYPE svg PUBLIC "-//W3C//DTD SVG 1.1//EN" "http://www.w3.org/Graphics/SVG/1.1/DTD/svg11.dtd">
<svg version="1.1" id="Layer_1" xmlns="http://www.w3.org/2000/svg" xmlns:xlink="http://www.w3.org/1999/xlink" x="0px" y="0px"
	 viewBox="0 517.6 624 624" enable-background="new 0 517.6 624 624" xml:space="preserve">
<g>
	<g>
		<circle fill="#B8C9ED" cx="309.4" cy="829" r="304.1"/>
		<g>
			<defs>
				<path id="SVGID_1_" d="M531.7,609.9c121.3,121.3,121.3,318,0,439.4c-121.3,121.3-318,121.3-439.4,0C-29,928-29,731.3,92.3,609.9
					C213.6,488.6,410.4,488.6,531.7,609.9z"/>
			</defs>
			<clipPath id="SVGID_2_">
				<use xlink:href="#SVGID_1_"  overflow="visible"/>
			</clipPath>
		</g>
		<g>
			<path fill="#5C85D6" d="M312,537.6c78,0,151.3,30.4,206.5,85.5c55.2,55.2,85.5,128.5,85.5,206.5s-30.4,151.3-85.5,206.5
				c-55.2,55.2-128.5,85.5-206.5,85.5c-78,0-151.3-30.4-206.5-85.5C50.3,981,20,907.6,20,829.6s30.4-151.3,85.5-206.5
				C160.7,568,234,537.6,312,537.6 M312,517.6c-172.3,0-312,139.7-312,312s139.7,312,312,312c172.3,0,312-139.7,312-312
				S484.3,517.6,312,517.6L312,517.6z"/>
		</g>
		<g>
			<g>
				<ellipse fill="#7A9CDE" cx="312.5" cy="786.8" rx="186.4" ry="212.4"/>
				<g>
					<path fill="#DDB88B" d="M405.4,1050.2c-2.7-2.7-10.2-33.1-8.8-56.7c20.8-40.2,39.4-82.1,39.4-82.1c9.7,13.2,21.2,9.7,37.1-44.1
						c15.9-53.8-11.5-46.8-11.5-46.8c11.2-177-114.9-201.9-149.2-205.3c-34.3,3.5-160.4,28.3-149.2,205.3c0,0-27.4-7.1-11.5,46.8
						c15.9,53.8,27.4,57.4,37.1,44.1c0,0,18.6,41.9,39.4,82.1c1.4,23.6-6.2,54-8.8,56.7c-2.8,2.8-3.6,37.8,92.9,38.5
						C409,1088,408.2,1053,405.4,1050.2z"/>
				</g>
				<g>
					<path fill="#421402" d="M176.7,736.3c-5.5,8.4-10.2,16.7-14,24.4c-0.1,8.1,0.1,51,0.7,59.9l13.4,31.4V736.3z"/>
				</g>
				<g>
					<path fill="#421402" d="M448.8,736.3c5.5,8.4,10.2,16.7,14,24.4c0.1,8.1-0.1,51-0.7,59.9l-13.4,31.4V736.3z"/>
				</g>
				<path fill="#7A9CDE" d="M458.9,703L399,618.8l-86.5-27.3l-86.5,27.3L166.1,703l-19.8,135.5c0,0,32.4-177.6,166.2-177.6
					s166.2,177.6,166.2,177.6L458.9,703z"/>
			</g>
			<g>
				<path fill="#E0E8F7" d="M312.5,1085.4c-50.6,0-91.8-15.7-92.9-35.2c-21.6,4.5-48.9,10.5-76.3,17.8
					c49,34.8,107.4,53.6,168.8,53.6c61.4,0,120-18.9,169-53.8c-27.1-7.3-54.2-13.2-75.6-17.6
					C404.3,1069.7,363.1,1085.4,312.5,1085.4z"/>
			</g>
		</g>
	</g>
	<path fill="#CDA87B" d="M228.1,993.4c0,0,1.7,2.5,5.3,6.6c3.5,4,8.9,9.5,16.2,15.1c7.3,5.6,16.5,11.3,27.2,15.4
		c5.4,2.1,11.1,3.7,17,4.8c5.9,1.1,12,1.7,18.1,1.7c6.1,0,12.2-0.5,18.1-1.7c5.9-1.1,11.6-2.8,17-4.8c10.7-4.1,20-9.8,27.2-15.4
		c7.3-5.6,12.7-11.1,16.2-15.1c3.6-4,5.3-6.6,5.3-6.6l0.5,0.3c0,0-0.4,0.7-1.1,2c-0.7,1.3-1.8,3.1-3.4,5.4c-1.6,2.2-3.6,4.9-6.1,7.8
		c-2.5,2.9-5.5,6.1-9.1,9.2c-3.5,3.2-7.6,6.4-12.2,9.4c-4.6,3-9.7,5.9-15.3,8.2c-2.8,1.2-5.7,2.2-8.7,3.2c-1.5,0.4-3,1-4.5,1.3
		c-1.5,0.4-3.1,0.8-4.7,1.1c-3.1,0.6-6.3,1.1-9.6,1.4c-1.6,0.1-3.4,0.3-4.9,0.4l-4.8,0.2c-6.5-0.1-13-0.7-19.3-2
		c-1.6-0.3-3.1-0.7-4.7-1c-1.5-0.4-3-0.9-4.5-1.3c-3-1-5.9-2-8.7-3.2c-5.6-2.3-10.7-5.2-15.3-8.2c-1.1-0.8-2.3-1.5-3.4-2.3
		c-1.1-0.8-2.1-1.5-3.2-2.3c-1-0.8-2-1.6-2.9-2.4c-0.9-0.8-1.9-1.6-2.8-2.4c-3.6-3.1-6.6-6.3-9.1-9.2c-2.5-2.9-4.5-5.6-6.1-7.8
		c-1.6-2.2-2.7-4.1-3.4-5.4c-0.7-1.3-1.1-2-1.1-2L228.1,993.4z"/>
</g>
</svg>
