<?xml version="1.0" encoding="utf-8"?>
<!-- Generator: Adobe Illustrator 18.0.0, SVG Export Plug-In . SVG Version: 6.00 Build 0)  -->
<!DOCTYPE svg PUBLIC "-//W3C//DTD SVG 1.1//EN" "http://www.w3.org/Graphics/SVG/1.1/DTD/svg11.dtd">
<svg version="1.1" id="Layer_1" xmlns="http://www.w3.org/2000/svg" xmlns:xlink="http://www.w3.org/1999/xlink" x="0px" y="0px"
	 viewBox="0 0 600 690" enable-background="new 0 0 600 690" xml:space="preserve">
<g>
	<path fill="#5C85D6" d="M35,374.6c-19.2,0-35-15.7-35-35v-252c0-19.2,15.7-35,35-35H565c19.2,0,35,15.7,35,35v252
		c0,19.2-15.7,35-35,35H35z"/>
	<path fill="#3366CC" d="M36.8,208.4c7.6,0,13.9,6.2,13.9,13.9s-6.2,13.9-13.9,13.9c-7.6,0-13.9-6.2-13.9-13.9
		S29.1,208.4,36.8,208.4 M36.8,200.4c-12,0-21.8,9.7-21.8,21.8c0,12,9.7,21.8,21.8,21.8c12,0,21.8-9.8,21.8-21.8
		C58.5,210.2,48.8,200.4,36.8,200.4L36.8,200.4z"/>
	<g>
		<path fill="#DDB88B" d="M132.4,374.2c13.3-8.8,30.4-14.7,47-14.7c40.1,0,71.7,14.7,71.7,14.7h7.1h267.7c1.1,34.5,1.6,107-12,135.4
			c-18.1,37.9-48.3,119.8-48.3,119.8l-23,60.6H240.2l32.4-90.8c31.2-85.3,10.8-84-17.7-106.9c-28.4-22.8-44.4-59.5-79.3-64.2
			c-29.7-4-51.9,19.8-65.5-7.3C102.2,404.9,113.6,386.6,132.4,374.2z"/>
		<path fill="#5C85D6" d="M481,588.7c-2.9,7.4-5.5,14.2-7.7,20.1c0.6,0.9,1.1,1.7,1.2,2.4c-0.5,0.4-1.4,0.9-2.7,1.5c0,0,0,0-0.1,0
			l-24.9,3.3c-20.4,0-46.4-3.9-73.3-11.1c-48.6-12.9-78.9-30.5-88-40.4c-0.5-0.6-1-1.1-1.3-1.6c-0.8-1-1.3-1.9-1.5-2.7
			c0.4-0.4,1.2-0.9,2.5-1.4c2-8.5,3-15.5,3.1-21.4c-14.1,2.8-22.5,8.7-24.9,17.6c-2.5,9.4,2.4,19.1,14.4,29c0.2,0.1,0.3,0.3,0.5,0.4
			c4.2,3.4,9.3,6.8,15.2,10.2c19.2,11.2,45.8,21.6,74.9,29.3c28.5,7.6,56.3,11.7,78.4,11.7c6.1,0,11.6-0.3,16.5-1c0.1,0,0.1,0,0.2,0
			c17.4-2.3,27.7-8.5,30.3-18.5C496.4,606.7,491,597.4,481,588.7z"/>
		<path fill="#DDB88B" d="M385.5,36.2c0,12.8,13.5,23.3,30.2,23.3c16.7,0,30.2-10.4,30.2-23.3c0-12.9-13.5-23.3-30.2-23.3
			C399,12.9,385.5,23.3,385.5,36.2z"/>
		<ellipse fill="#DDB88B" cx="352.6" cy="32.7" rx="33" ry="26.7"/>
		<path fill="#DDB88B" d="M177,36.2c0,14.8,14.8,26.7,33,26.7c18.2,0,33-12,33-26.7c0-14.8-14.8-26.7-33-26.7
			C191.7,9.5,177,21.4,177,36.2z"/>
		<ellipse fill="#DDB88B" cx="282.5" cy="30.6" rx="37.7" ry="30.6"/>
		<path fill="#EDC89B" d="M397.1,30.3c4.4,4.1,11.1,6.7,18.6,6.7c7.5,0,14.1-2.6,18.6-6.7c-4.4-4.1-11.1-6.7-18.6-6.7
			C408.2,23.5,401.5,26.1,397.1,30.3z"/>
		<path fill="#EDC89B" d="M352.6,17.3c-9.1,0-17.2,3.8-21.9,9.5c4.7,5.7,12.8,9.5,21.9,9.5c9.1,0,17.2-3.8,21.9-9.5
			C369.7,21.1,361.7,17.3,352.6,17.3z"/>
		<path fill="#EDC89B" d="M209.9,20.8c-9.1,0-17.2,3.8-21.9,9.5c4.7,5.7,12.8,9.5,21.9,9.5c9.1,0,17.2-3.8,21.9-9.5
			C227.1,24.5,219.1,20.8,209.9,20.8z"/>
		<path fill="#EDC89B" d="M282.5,12.1c-11.4,0-21.2,5.1-26.4,12.6c5.2,7.5,15,12.6,26.4,12.6c11.4,0,21.2-5.1,26.4-12.6
			C303.8,17.1,293.9,12.1,282.5,12.1z"/>
		<path fill="#EDC89B" d="M157.4,406.7c-15.8,0-28.7,11.9-30.5,27.2c12.8,1.1,29.1-8.4,48.7-5.8c4.2,0.6,8.1,1.6,11.8,3
			C184.5,417.2,172.2,406.7,157.4,406.7z"/>
	</g>
	<g>
		<g>
			<g>
				<rect x="71.5" y="75.6" fill="#E0E8F7" width="491" height="276.2"/>
			</g>
			<rect x="71.5" y="282.7" fill="#B8C9ED" width="491" height="69"/>
			<rect x="71.5" y="248.4" fill="#CCD9F2" width="491" height="34.3"/>
			<g>
				<g>
					<ellipse fill="#85A3E0" cx="405.3" cy="193" rx="90.8" ry="103.4"/>
					<g>
						<path fill="#DDB88B" d="M450.6,321.3c-1.3-1.3-5-16.1-4.3-27.6c10.1-19.6,19.2-40,19.2-40c4.7,6.4,10.3,4.7,18.1-21.5
							c7.7-26.2-5.6-22.8-5.6-22.8c5.5-86.2-55.9-98.3-72.7-100c-16.7,1.7-78.1,13.8-72.7,100c0,0-13.3-3.4-5.6,22.8
							c7.7,26.2,13.3,27.9,18.1,21.5c0,0,9.1,20.4,19.2,40c0.7,11.5-3,26.3-4.3,27.6c-1.4,1.4-1.7,18.4,45.3,18.7
							C452.4,339.7,452,322.7,450.6,321.3z"/>
					</g>
					<g>
						<path fill="#421402" d="M339.2,168.4c-2.7,4.1-4.9,8.1-6.8,11.9c0,4,0,24.8,0.3,29.2l6.5,15.3V168.4z"/>
					</g>
					<g>
						<path fill="#421402" d="M471.8,168.4c2.7,4.1,4.9,8.1,6.8,11.9c0,4,0,24.8-0.3,29.2l-6.5,15.3V168.4z"/>
					</g>
					<path fill="#85A3E0" d="M476.7,152.2l-29.2-41l-42.2-13.3l-42.2,13.3l-29.2,41l-9.7,66c0,0,15.8-86.5,81-86.5s81,86.5,81,86.5
						L476.7,152.2z"/>
				</g>
				<g>
					<path fill="#E0E8F7" d="M405.3,338.5c-24.7,0-44.7-7.6-45.3-17.2c-10.5,2.2-78.7,30.5-78.7,30.5H529c0,0-68-28.3-78.4-30.5
						C450.1,330.8,430,338.5,405.3,338.5z"/>
				</g>
			</g>
		</g>
		<rect x="91.7" y="150.2" fill="#CCD9F2" width="37" height="115.3"/>
		<rect x="156.4" y="173.7" fill="#CCD9F2" width="20.8" height="91.9"/>
		<circle fill="#CCD9F2" cx="166.8" cy="173.7" r="26.6"/>
		<polygon fill="#CCD9F2" points="155,173.7 166.8,105.7 178.6,173.7 		"/>
		<rect x="510.5" y="173.7" fill="#CCD9F2" width="37" height="91.9"/>
		<rect x="204.9" y="105.7" fill="#CCD9F2" width="37" height="158.4"/>
		<rect x="261.5" y="136.6" fill="#CCD9F2" width="37" height="127.5"/>
		<rect x="223.2" y="173.7" fill="#CCD9F2" width="56.8" height="11.2"/>
	</g>
</g>
</svg>
