<?xml version="1.0" encoding="utf-8"?>
<!-- Generator: Adobe Illustrator 18.0.0, SVG Export Plug-In . SVG Version: 6.00 Build 0)  -->
<!DOCTYPE svg PUBLIC "-//W3C//DTD SVG 1.1//EN" "http://www.w3.org/Graphics/SVG/1.1/DTD/svg11.dtd">
<svg version="1.1" id="Layer_1" xmlns="http://www.w3.org/2000/svg" xmlns:xlink="http://www.w3.org/1999/xlink" x="0px" y="0px"
	 viewBox="0 469.9 624 717.6" enable-background="new 0 469.9 624 717.6" xml:space="preserve">
<g>
	<g>
		<path fill="#5C85D6" d="M36.5,859.5c-20,0-36.4-16.4-36.4-36.4v-262c0-20,16.4-36.4,36.4-36.4h551.3c20,0,36.4,16.4,36.4,36.4v262
			c0,20-16.4,36.4-36.4,36.4H36.5z"/>
		<path fill="#3366CC" d="M38.4,686.6c7.9,0,14.4,6.5,14.4,14.4s-6.5,14.4-14.4,14.4C30.5,715.4,24,709,24,701
			S30.5,686.6,38.4,686.6 M38.4,678.4c-12.5,0-22.6,10.1-22.6,22.6c0,12.5,10.1,22.6,22.6,22.6c12.5,0,22.6-10.1,22.6-22.6
			C61.1,688.5,50.9,678.4,38.4,678.4L38.4,678.4z"/>
		<g>
			<path fill="#DDB88B" d="M137.8,859c13.8-9.2,31.6-15.3,48.9-15.3c41.7,0,74.6,15.3,74.6,15.3h7.4h278.4
				c1.1,35.9,1.6,111.3-12.5,140.8c-18.8,39.4-50.2,124.6-50.2,124.6l-24,63.1H250l33.7-94.4c32.5-88.7,11.2-87.4-18.4-111.1
				c-29.6-23.7-46.2-61.8-82.5-66.8c-30.9-4.2-54,20.6-68.1-7.6C106.5,891,118.3,872,137.8,859z"/>
			<path fill="#5C85D6" d="M500.5,1082.2c-3,7.7-5.7,14.8-8,20.9c0.7,0.9,1.1,1.8,1.3,2.5c-0.5,0.4-1.4,1-2.8,1.6c0,0,0,0-0.1,0
				l-25.9,3.5c-21.2,0-48.3-4.1-76.3-11.5c-50.5-13.4-82-31.7-91.5-42c-0.5-0.6-1-1.1-1.4-1.7c-0.8-1.1-1.3-2-1.5-2.8
				c0.5-0.4,1.3-0.9,2.6-1.5c2-8.8,3.1-16.1,3.2-22.2c-14.7,2.9-23.4,9-25.9,18.4c-2.6,9.8,2.5,19.9,15,30.2
				c0.2,0.1,0.4,0.3,0.5,0.4c4.4,3.5,9.6,7.1,15.8,10.6c20,11.6,47.7,22.4,77.9,30.5c29.6,7.9,58.6,12.2,81.5,12.2
				c6.3,0,12-0.3,17.2-1c0.1,0,0.1,0,0.2,0c18.1-2.4,28.8-8.8,31.5-19.3C516.5,1100.9,510.8,1091.2,500.5,1082.2z"/>
			<path fill="#DDB88B" d="M401.1,507.6c0,13.4,14,24.2,31.4,24.2c17.3,0,31.4-10.8,31.4-24.2c0-13.4-14-24.2-31.4-24.2
				C415.2,483.4,401.1,494.2,401.1,507.6z"/>
			<ellipse fill="#DDB88B" cx="366.8" cy="504" rx="34.3" ry="27.8"/>
			<path fill="#DDB88B" d="M184.2,507.6c0,15.3,15.3,27.8,34.3,27.8c18.9,0,34.3-12.4,34.3-27.8c0-15.3-15.3-27.8-34.3-27.8
				C199.6,479.8,184.2,492.2,184.2,507.6z"/>
			<ellipse fill="#DDB88B" cx="294" cy="501.7" rx="39.3" ry="31.8"/>
			<path fill="#EDC89B" d="M413.2,501.4c4.6,4.3,11.5,7,19.3,7c7.8,0,14.7-2.7,19.3-7c-4.6-4.3-11.5-7-19.3-7
				C424.7,494.4,417.8,497.1,413.2,501.4z"/>
			<path fill="#EDC89B" d="M366.8,487.9c-9.5,0-17.9,3.9-22.8,9.9c4.9,6,13.3,9.9,22.8,9.9c9.5,0,17.9-3.9,22.8-9.9
				C384.7,491.8,376.3,487.9,366.8,487.9z"/>
			<path fill="#EDC89B" d="M218.5,491.5c-9.5,0-17.9,3.9-22.8,9.9c4.9,6,13.3,9.9,22.8,9.9c9.5,0,17.9-3.9,22.8-9.9
				C236.4,495.4,228,491.5,218.5,491.5z"/>
			<path fill="#EDC89B" d="M294,482.5c-11.8,0-22.1,5.3-27.4,13.1c5.4,7.8,15.6,13.1,27.4,13.1s22.1-5.3,27.5-13.1
				C316.1,487.7,305.8,482.5,294,482.5z"/>
			<path fill="#EDC89B" d="M163.9,892.9c-16.4,0-29.9,12.4-31.7,28.3c13.3,1.1,30.3-8.8,50.7-6c4.3,0.6,8.4,1.7,12.2,3.1
				C192.1,903.8,179.3,892.9,163.9,892.9z"/>
		</g>
		<g>
			<g>
				<g>
					<rect x="74.6" y="548.5" fill="#E0E8F7" width="510.6" height="287.2"/>
				</g>
				<rect x="74.6" y="763.9" fill="#B8C9ED" width="510.6" height="71.8"/>
				<rect x="74.6" y="728.2" fill="#CCD9F2" width="510.6" height="35.7"/>
				<g>
					<g>
						<ellipse fill="#85A3E0" cx="421.7" cy="670.6" rx="94.4" ry="107.6"/>
						<g>
							<path fill="#DDB88B" d="M468.8,804.1c-1.3-1.3-5.2-16.8-4.5-28.7c10.5-20.3,20-41.6,20-41.6c4.9,6.7,10.7,4.9,18.8-22.4
								c8-27.3-5.8-23.7-5.8-23.7c5.7-89.7-58.2-102.3-75.6-104c-17.4,1.8-81.2,14.3-75.6,104c0,0-13.9-3.6-5.8,23.7
								c8,27.3,13.9,29.1,18.8,22.4c0,0,9.4,21.2,20,41.6c0.7,12-3.1,27.4-4.5,28.7c-1.4,1.4-1.8,19.2,47.1,19.5
								C470.6,823.2,470.2,805.5,468.8,804.1z"/>
						</g>
						<g>
							<path fill="#421402" d="M353,645c-2.8,4.2-5.1,8.4-7.1,12.4c-0.1,4.1,0.1,25.8,0.3,30.3l6.8,15.9V645z"/>
						</g>
						<g>
							<path fill="#421402" d="M490.8,645c2.8,4.2,5.1,8.4,7.1,12.4c0.1,4.1-0.1,25.8-0.3,30.3l-6.8,15.9V645z"/>
						</g>
						<path fill="#85A3E0" d="M495.9,628.2l-30.3-42.6l-43.8-13.8l-43.8,13.8l-30.3,42.6l-10,68.6c0,0,16.4-89.9,84.2-89.9
							s84.2,89.9,84.2,89.9L495.9,628.2z"/>
					</g>
					<g>
						<path fill="#E0E8F7" d="M421.7,821.9c-25.7,0-46.5-8-47.1-17.8c-11,2.3-81.9,31.7-81.9,31.7h257.6c0,0-70.7-29.4-81.5-31.7
							C468.2,814,447.4,821.9,421.7,821.9z"/>
					</g>
				</g>
			</g>
			<rect x="95.5" y="626.1" fill="#CCD9F2" width="38.4" height="119.9"/>
			<rect x="162.8" y="650.5" fill="#CCD9F2" width="21.6" height="95.5"/>
			<circle fill="#CCD9F2" cx="173.6" cy="650.5" r="27.7"/>
			<polygon fill="#CCD9F2" points="161.3,650.5 173.6,579.9 185.9,650.5 			"/>
			<rect x="531.1" y="650.5" fill="#CCD9F2" width="38.4" height="95.5"/>
			<rect x="213.3" y="579.9" fill="#CCD9F2" width="38.4" height="164.7"/>
			<rect x="272.1" y="611.9" fill="#CCD9F2" width="38.4" height="132.6"/>
			<rect x="232.3" y="650.5" fill="#CCD9F2" width="59" height="11.7"/>
		</g>
	</g>
	<path fill="#CDA87B" d="M379.9,775.5c0,0,0.9,1.3,2.6,3.3c1.8,2,4.5,4.8,8.1,7.6c3.6,2.8,8.2,5.6,13.6,7.7c2.7,1,5.5,1.8,8.5,2.4
		c3,0.6,6,0.8,9.1,0.8c3.1,0,6.1-0.3,9.1-0.8c3-0.5,5.8-1.4,8.5-2.4c5.4-2,10-4.9,13.6-7.7c3.6-2.8,6.3-5.6,8.1-7.6
		c1.8-2,2.6-3.3,2.6-3.3l0.3,0.2c0,0-0.2,0.4-0.5,1c-0.4,0.6-0.9,1.6-1.7,2.7c-0.8,1.1-1.8,2.5-3.1,3.9c-1.3,1.4-2.8,3-4.5,4.6
		c-1.8,1.6-3.8,3.2-6.1,4.7c-2.3,1.5-4.8,2.9-7.6,4.1c-1.4,0.6-2.8,1.1-4.3,1.6c-0.7,0.2-1.5,0.5-2.3,0.7c-0.8,0.2-1.5,0.4-2.3,0.5
		c-1.6,0.3-3.1,0.5-4.8,0.7c-0.8,0.1-1.7,0.2-2.5,0.2l-2.4,0.1c-3.2,0-6.5-0.4-9.6-1c-0.8-0.1-1.6-0.3-2.3-0.5
		c-0.8-0.2-1.5-0.4-2.3-0.7c-1.5-0.5-2.9-1-4.3-1.6c-2.8-1.1-5.3-2.6-7.6-4.1c-0.6-0.4-1.1-0.8-1.7-1.1c-0.5-0.4-1.1-0.8-1.6-1.2
		c-0.5-0.4-1-0.8-1.5-1.2c-0.5-0.4-0.9-0.8-1.4-1.2c-1.8-1.6-3.3-3.1-4.5-4.6c-1.3-1.4-2.3-2.8-3.1-3.9c-0.8-1.1-1.3-2-1.7-2.7
		c-0.4-0.6-0.5-1-0.5-1L379.9,775.5z"/>
</g>
</svg>
