<?xml version="1.0" encoding="utf-8"?>
<!-- Generator: Adobe Illustrator 18.0.0, SVG Export Plug-In . SVG Version: 6.00 Build 0)  -->
<!DOCTYPE svg PUBLIC "-//W3C//DTD SVG 1.1//EN" "http://www.w3.org/Graphics/SVG/1.1/DTD/svg11.dtd">
<svg version="1.1" id="Layer_1" xmlns="http://www.w3.org/2000/svg" xmlns:xlink="http://www.w3.org/1999/xlink" x="0px" y="0px"
	 viewBox="0 0 960 1162" enable-background="new 0 0 960 1162" xml:space="preserve">
<g>
	<text transform="matrix(1 0 0 1 508.2251 1039.5986)"><tspan x="0" y="0" fill="#222222" font-family="'Helvetica'" font-size="50.5263">Tinder </tspan><tspan x="157.3" y="0" fill="#222222" font-family="'Helvetica-Bold'" font-size="56.8421">1</tspan></text>
	<text transform="matrix(1 0 0 1 80.417 1039.5986)"><tspan x="0" y="0" fill="#222222" font-family="'Helvetica'" font-size="50.5263">Badoo </tspan><tspan x="160.1" y="0" fill="#222222" font-family="'Helvetica-Bold'" font-size="56.8421">3</tspan></text>
	<text transform="matrix(1 0 0 1 509.5269 1119.9956)"><tspan x="0" y="0" fill="#222222" font-family="'Helvetica'" font-size="50.5263">Frim </tspan><tspan x="115" y="0" fill="#222222" font-family="'Helvetica-Bold'" font-size="56.8421">1</tspan></text>
	<g>
		<path fill="#D63333" d="M491,1019.5c0,16.5-13.5,30-30,30s-30-13.5-30-30c0-16.5,13.5-30,30-30S491,1003,491,1019.5z"/>
		
			<path fill="none" stroke="#FFFFFF" stroke-width="0.7875" stroke-linecap="round" stroke-linejoin="round" stroke-miterlimit="10" d="
			M491,1019.5c0,16.5-13.5,30-30,30s-30-13.5-30-30c0-16.5,13.5-30,30-30S491,1003,491,1019.5z"/>
	</g>
	<g>
		<path fill="#FF944C" d="M61.8,1019.5c0,16.5-13.5,30-30,30s-30-13.5-30-30c0-16.5,13.5-30,30-30S61.8,1003,61.8,1019.5z"/>
		
			<path fill="none" stroke="#FFFFFF" stroke-width="0.7875" stroke-linecap="round" stroke-linejoin="round" stroke-miterlimit="10" d="
			M61.8,1019.5c0,16.5-13.5,30-30,30s-30-13.5-30-30c0-16.5,13.5-30,30-30S61.8,1003,61.8,1019.5z"/>
	</g>
	<g>
		<path fill="#33AD5C" d="M491,1099.9c0,16.5-13.5,30-30,30s-30-13.5-30-30s13.5-30,30-30S491,1083.4,491,1099.9z"/>
		
			<path fill="none" stroke="#FFFFFF" stroke-width="0.7875" stroke-linecap="round" stroke-linejoin="round" stroke-miterlimit="10" d="
			M491,1099.9c0,16.5-13.5,30-30,30s-30-13.5-30-30s13.5-30,30-30S491,1083.4,491,1099.9z"/>
	</g>
	<text transform="matrix(1 0 0 1 80.417 1119.9956)"><tspan x="0" y="0" fill="#222222" font-family="'Helvetica'" font-size="50.5263">WhosHere </tspan><tspan x="252.7" y="0" fill="#222222" font-family="'Helvetica-Bold'" font-size="56.8421">1</tspan></text>
	<g>
		<path fill="#1975D1" d="M61.8,1099.9c0,16.5-13.5,30-30,30s-30-13.5-30-30s13.5-30,30-30S61.8,1083.4,61.8,1099.9z"/>
		
			<path fill="none" stroke="#FFFFFF" stroke-width="0.7875" stroke-linecap="round" stroke-linejoin="round" stroke-miterlimit="10" d="
			M61.8,1099.9c0,16.5-13.5,30-30,30s-30-13.5-30-30s13.5-30,30-30S61.8,1083.4,61.8,1099.9z"/>
	</g>
	<g>
		<g>
			<defs>
				<rect id="SVGID_1_" x="0" width="960" height="960"/>
			</defs>
			<clipPath id="SVGID_2_">
				<use xlink:href="#SVGID_1_"  overflow="visible"/>
			</clipPath>
			<g clip-path="url(#SVGID_2_)">
				
					<path fill="#EDEDED" stroke="#FFFFFF" stroke-width="2" stroke-linecap="round" stroke-linejoin="round" stroke-miterlimit="10" d="
					M554.8,948.3c0,0,6.6-3.4,6.6-9c0-5.6,5.5-1.1,5.5-7.8c0-6.7,0-4.5,3.3-7.8c3.3-3.4,1.3-5.2,6.6-6.7c12.1-3.4,3.3,5.6,9.9,8.9
					c6.6,3.4,8.3,0.8,17.1-0.3c8.8-1.1,48.1,12.6,48.1,12.6l5.5,35.8c-1.6,0,14.9-18.3,14.9-18.3l35.9-46.6l97-35l-0.9,9.3
					l28.3,51.4l16.2,15.7l-2.8,0.6c-12.7,2.3-23.2,1.3-32,10.1c-7.7,7.5,1.7,17.6,0,21.5h-8.5l-4.3,12.9h-4.2v4.3
					c-21.2,15.7-49.3,15.8-72.1,30.1c-4.1,2.4-8.5,15.4-12.7,17.2c-19.2,7.2-22.3,0.6-29.7-4.3c-2.9,0.7-11.9,8.3-12.7,8.6
					c-8.1,2-17.7-2.8-25.5,0c-15.8,5.4-23.1,24-42.4,25.8c-39.8,3.2-26.8-11.4-33.9-38.7c-1.2-4.3-10.7-9.7-12.7-12.9
					c0,0,0.8-11.3,4.2-4.3c-3.7-14.2-6.5-52.6-8.5-51.5v-8.6c0-0.8,1.2-4,2.3-8.1L554.8,948.3z M860.8,1085.7
					c-11.4,1,12.7,8.6,12.7,8.6S879.7,1083.8,860.8,1085.7z"/>
				
					<path fill="#EDEDED" stroke="#FFFFFF" stroke-width="2" stroke-linecap="round" stroke-linejoin="round" stroke-miterlimit="10" d="
					M1237.6,208.1c0,0,5.7-10.8,5.7-15.2c0-4.5,7-4.6,11.4-10.2c4.4-5.6,4.4-10.1-2.2-13.4c-6.6-3.4,0-12.3,3.3-19
					c3.3-6.7-6.6-2.2-14.3-2.2c-7.7,0-5.5-2.2-13.2-10.1c-7.8-7.8-2.8-13.2,3.3-15.7c5.5-2.2,15.1-2.1,14,2.3
					c-1.8,7.3,12.2-8.9,17.7-10.1c5.5-1.1,6.6-13.4,3.3-7.8c-3.3,5.6-1.1-15.7,5.5-15.7c6.6,0,5.9-9,5.9-9s-8.1-7.7-8.1-13.3
					c0-5.6,12.2-5.6,12.2-5.6s3.3,3.4,10,5.6c6.6,2.2,9.2-6.8,9.2-6.8c3.3-10.1,9.6-12.2,9.6-12.2l7.8,16.8l-12.9,8.9V82l7.7,5.6
					c0,0,5.5,0,6.6,5.6c1.1,5.6,9.7,5.4,7.8-4.5c-1.1-5.6,6.6-3.4,6.6-3.4s3.3,2.2,13.3,2.2c9.9,0,17.7-19,24.3-25.7
					c6.6-6.7,0,0-9.9-6.7c-9.9-6.7-8.8-6.7-18.8-6.7c-9.9,0-6.6-1.1-5.5-7.8c1.1-6.7-4.4-5.6-11.1-1.1c-6.6,4.5-5.9-7.8-15.8-8.9
					c-9.9-1.1,3.7-3.4,9.2-6.8c5.5-3.3,3.3-3.3,11.1-10.1c7.7-6.7-2.2-12.3-2.2-12.3s-5.6,0-12.2,4.5c-6.6,4.5-9,2.6-15.8,4.6
					c-7.7,2.2-14.4,0-16.6,6.7c-2.2,6.7-9.6,4.4-15.1,6.6c-5.6,2.2-8.8,19-8.8,19s-9.9,2.2-16.6,2.2l-1.1,11.2c0,0-5.5,3.3-9.9,3.3
					c-4.4,0,2.2-7.8-1.1-15.7c-2.2-5.1-16.6-8.9-21-5.6c-4.4,3.4-19.9-1.1-25.4-4.5c-5.5-3.4,0-6.7,0-12.3c0-5.6-5.5,0-5.5-6.7
					c0-6.7-3.3-6.7-9.9-5.6c-6.6,1.1-11-1.1-14.3-5.6c-3.3-4.5-10-15.7-10-15.7l-4.4,6.7c0,0-23.2-3.4-33.2-6.7
					c-9.9-3.4-28.7-1.1-28.7-1.1s-3.3-25.8-3.3-31.3c0-5.6-5.5-16.8-5.5-16.8l-1.6-1.3l-4.2,1.5v8.6c-0.5,1.3-7,2.8-8.5,4.3
					c-4,3.4-2.1,6.5-4.2,12.9c-10.1,1.5-10.1,0.7-25.4,4.3c-4.7-8.6,0.9-9.3-8.5-12.9c-1.6,6.4-0.4,18.5-4.3,21.5
					c-12.2,8.9-6.2-12.9-4.2-25.8c-13.2,3.8-18.1,4.4-29.7,8.6c-2.3-30.9-1.5-51.6,7.1-73.6l1.5-4.5c-3.5-0.4-8.9-1.1-13-1.8
					c-6.6-1.1-15.5,4.5-22.1,4.5c-6.6,0-28.7,12.3-28.7,12.3L921,30.5l27.6,3.4l1.1-6.7l-6.6-5.6L942,10.4l6.6-5.6L963,5.9l6.6-10.1
					l8.8-10.1l6.6,3.4l7.7,2.2L997.3,7l5.5,20.1l13.3,5.6l3.3,14.5l-5.5,6.7l5.5,5.6l9.9,3.4l13.3-6.7l6.6-5.6l16.6,1.1l12.1-2.2
					l12.2,15.7l-2.2,14.5l8.8,9l7.7,9l5.5,14.5l8.8,7.8l9.9,6.7l12.2,12.3l8.8,10.1l15.5-3.4l9.9,8.9h12.2l8.8,6.7l11.1,1.1l4.4,4.5
					l-15.5,8.9l-1.1,9v13.4l11,3.4l10,9l13.2-1.1L1237.6,208.1z"/>
				
					<path fill="#EDEDED" stroke="#FFFFFF" stroke-width="2" stroke-linecap="round" stroke-linejoin="round" stroke-miterlimit="10" d="
					M827.5,18c-0.2,6.8-0.2,13.3-0.6,19.8h8.5c0.7-0.5,0-12.1,0-12.9c5.6-0.7,6.1-8,8.5-8.6c9.8-2.6,9,5.4,21.2,4.3v8.6
					c8.1,6.4,14.7,17.3,21.2,25.8c6.6-5.9-3.8,11.9-4.3,12.9h-8.5c0.3,0.7,5.6,8.2,4.3,8.6c-38.7,9.3-35.1-40.1-46.6,4.3
					c2.2,2,0,22,0,25.8c2.1-0.8,8.2-8.3,12.7-4.3c-0.8-0.1,15.2-3.8,21.2-4.3c-6.1,3.2-20.8,6.4-12.7,12.9c1.9,1.5-3.3,8.3,4.2,4.3
					c1,2.6,5.9,14.1,0,17.2c0,0,26.7,15.8,12.7,25.8h-8.5c1.5,14,1.8,25.5,1.6,37.2l17.3,1l4.9-11.3l2.2-5.6l5.6-6.7l7.3-6.6
					l15.5,1.1l11.1-3.4l14.4-5.6l30.3,6.6l18.8,3.4l6.6,2.2l19.9,10.1l18.4,8l15.5,10.1l9.3,6.6l6.2,9.1l5.5,12.3l15.5,3.4v13.4
					l3.7,12.2l-5.5,13.4l12.1,3.4l6.6-4.5l11,4.5l22.1-13.4l-3.3-12.3l15.4-15.7l4.4-11.2v-16.8l5.5-6.7l4.4-7.8l10,3.4l8.8,5.6
					l13.3,1.1v-13.4l1.1-9l15.5-8.9l-4.4-4.5l-11.1-1.1l-8.8-6.7h-12.2l-9.9-8.9l-15.5,3.4l-8.8-10.1l-12.2-12.3l-9.9-6.7l-8.8-7.8
					l-5.5-14.5l-7.7-9l-8.8-9l2.2-14.5l-12.2-15.7l-12.1,2.2l-16.6-1.1l-6.6,5.6l-13.3,6.7l-9.9-3.4l-5.5-5.6l5.5-6.7l-3.3-14.5
					l-13.3-5.6L997.3,7l-4.4-15.7l-7.7-2.2l-6.6-3.4l-8.8,10.1L963,5.9l-14.4-1.1l-6.6,5.6l1.1,11.2l6.6,5.6l-1.1,6.7l-28.1-3.3
					c0,0-19.9,1.1-25.4-1.1c-5.5-2.2-11.7-32.5-39.3-29.2c-9.9,1.2-15.9,0.5-25.1,14.5L827.5,18z M839.6,119.4
					c-6.2,2.1-5.3,7.4,4.3,8.6C843.3,127.8,854.9,113.9,839.6,119.4z"/>
				
					<path fill="#EDEDED" stroke="#FFFFFF" stroke-width="2" stroke-linecap="round" stroke-linejoin="round" stroke-miterlimit="10" d="
					M368.7,314.7c0,0,8.8-16.8,13.2-13.4c4.4,3.4,19.2-5.5,18.1,2.3c-1.1,7.8-6.7,19-13.3,26.9c-2,2.4-0.5,14.4-3.3,19
					c-2.8,4.5-6.5,2.6-8.8,6.7c-3,5.2-4.2,9-4.2,9l-4,1.8c0,0,0.5,16,0.3,22.4c0.6-0.1,1.3,0.1,2.1,0.5c0.5,0.2,0.7,0.3,0.9,0.7
					c0,0,12.6-9.8,17-5.3c4.4,4.5,22.7,5.4,22.7,5.4l42-31.3l57.7-45.3c0,0,3.1-3.1,5.2-9.3c2.1-6.2,2.1-8.2,6.3-16.4
					c4.2-8.3,3.2-4.1,0-14.4c-3.1-10.3,4.2-10.3,5.3-17.5c1.1-7.2-2.1-5.2-2.1-14.4c0-9.3,7.3-11.3,13.6-16.5
					c6.3-5.1,6.2-18.5,6.2-18.5c-3.6-0.2-6.7-1.6-6.7-1.6l0.1-1.5l-2.1-7.1c-5.3-0.9-18.1,6.1-24.4,11.5c-6.4,5.4-32.1,0.7-36,4.5
					c-13.8,13.4-30.8,8.1-37.1,12.5c-6.4,4.5-12.7-0.9-18-0.9c-5.3,0-7.4,3.6-11.7,7.2c-4.2,3.6-8.5-5.4-13.8-0.9
					c-5.3,4.5-1.1,8.9,0,13.4c1.1,4.5,1.1,8.9-7.4,8.1c-8.5-0.9-1.1,8.9-10.6,11.6c-9.5,2.7-11.2-0.5-11.2-0.5l-4,0.3
					c1.6,5.3,3,10.4,4,18.9c1.1,10.6-4.9,16.2-4.2,21.5c0.1,1.1,8.7,2.5,8.3,6.2V314.7z"/>
				
					<path fill="#EDEDED" stroke="#FFFFFF" stroke-width="2" stroke-linecap="round" stroke-linejoin="round" stroke-miterlimit="10" d="
					M40,1245.3l5.3-3.3c0,0,1.5-1.8,3.2-1.9c1.7,0,1.3-1.8,2-2.9c0.7-1,0.9-2.1,0.1-4.1c-0.8-2-0.8-3.1-0.3-5.4
					c0.5-2.3,0.1-2.8,1.4-4.7c1.3-1.8-0.2-2.8,0.3-3.8c0.5-1,1.3-2.3,3-4.2c1.7-1.8,0.3-2.3,0.3-4.1c0-1.8-0.1-6.2-0.1-6.2l3.2-3.7
					c0,0,1.9-0.8,2.8-3.1c0.9-2.3,1.9-2.1,2-4.4c0.1-2.3-0.6-1.8-0.3-3.3c0.3-1.5,1.1-2.3,1.6-4.4c0.5-2.1,0.7-1.8,2.2-1.9
					c1.5,0,0.9-1,2.1-0.6c1.1,0.5,1,1.8,2.1,0.7c1.1-1.1,2.5-0.8,2.5-0.8s1.5-0.8,2.9-0.1c1.4,0.7,1.7,0,2.8-1.9
					c1.1-1.8,1.5-0.3,3.1,0.4c1.6,0.7,1.3-1.1,2.7-1.6c1.3-0.5,2.1,1.8,2.1,1.8l0.2,7.7c1.9,0.5,3.5,2.2,4.5,5c1,2.8,3.6,5,3.6,5
					s0.9,4.4,1.7,6.7c0.8,2.3,1.8,5.6,3.2,6.4c1.4,0.7,9.1,2.9,9.1,2.9s2.6-1.6,4.3-2.7c1.7-1.1,5.7-2.4,5.7-2.4l21.6,0.3l3.7,9.7
					l19.7-0.2c0,0,0-0.8-0.4-2c-0.4-1.3,1.5-2.9,1.5-2.9l7.8-10.5l12.2-0.3l-0.3-12.3l11.7-8.2c0,0,20.7,17.8,21.5,18.5
					c0.8,0.8,1.4,2.8,2.4,2.5c1-0.3,1.9-1.3,1.9-1.3l11.3-1l13.8-23.7l3.6-9.6l4.5-3.7l8.3-11l-3.2-5.6l-0.4-18.8l-7.5-8.8l17.2-0.4
					c0,0,0.3-4.4-0.5-5.4c-0.8-1-0.2-2.6-0.2-2.6l0.1-2.8l15.5-0.4c0,0-0.4,1.3-1.1,2.9c-0.7,1.6-1.1,4.1-1.2,7.2
					c-0.1,3.1-1,8.3-1,8.3s-0.9,2.1-1.2,4.7c-0.3,2.6,0.9,5.1,1.7,7.7c0.8,2.6,1.1,5.9,1.1,8.5c0.1,2.6,1.2,9.2,1.2,9.2
					s1,1.8,0.3,3.1c-0.7,1.3-1.1,3.9-1.1,3.9s2.3,1.2,3.9,2c1.5,0.7,3.8-0.4,3.8-0.4s3.6,6.6,5,8.6c1.4,2,3.3,3,4.3,4.8
					c1,1.8,2.8,5.6,2.8,5.6l1.7-0.3l0.4,2.8c0,0-2,1.9-1.9,4.9c0.1,3.1-0.5,3.8-1,6.1c-0.5,2.3,0.6,3.9,0.6,6c0,2.1,1.1,4.9,1.1,4.9
					l1.3,0l0.9,0.2l-0.3-8c-1.1-6.7,12.8-23.9,12.8-34c0-10.1,1.1-19,1.1-19s6.6-5.6,12.2-7.8c5.5-2.2,8.8-4.5,11-10.1
					c2.2-5.6,4.4-11.2,7.7-17.9c3.3-6.7,8.8-14.6,8.8-25.7c0-11.2,11.1-17.9,14.4-25.7c3.3-7.8,14.4-22.4,14.4-22.4s1.1-28-1.1-32.5
					c-2.2-4.5,0-13.4,2.2-23.5c2.2-10.1,7.7-13.4,7.7-24.6c0-11.2-1.1-12.3,1.1-22.4c2.2-10.1-2.2-13.4,3.3-13.4
					c5.5,0,3.3-6.7,6.6-12.3c3.3-5.6,15.6-12.1,15.6-12.1l15.5,2.2l11.8-14l-1.8-3.3H441c-1.8-0.7-37.6-40.3-38.2-42.9
					c-7.4-30.6,7.7-48.2,0-77.3l-8.5-4.3c-2.8-7.2,2.8-14.4,0-21.5c-0.9-2.1-26.8-16.5-29.7-21.5l-2.2-3.1l-15.9,6.4l-9.9,1.1
					l-6.6,19l-9.9,2.2l-3.3,17.9l-9.9,2.2l-3.3-5.6H278l-2.2-6.7l-7.7,5.6L71,754.4l0.4,66H44.9v25.7V977c0,0-14.4,3.4-19.9,0
					c-5.5-3.4-9.9-5.6-13.2,2.2c-3.3,7.8-8.9,11.2-5.5,17.9c3.3,6.7,0,10.1-6.6,14.5c-6.6,4.5-4.4,5.6-4.4,12.3
					c0,6.7,0,15.7-6.6,21.3c-6.6,5.6-6.6,1.1-6.6,10.1c0,9-2.2,10.1-7.7,13.4c-5.5,3.4-3.3,5.6-3.3,11.2s7.7,1.1,13.3,1.1
					c5.5,0,7.7,2.2,11,7.8c3.3,5.6-6.6,10.1-5.5,16.8c1.1,6.7,1.1,6.7,1.1,6.7s3.3,4.5,0,12.3c-3.3,7.8-1.1,7.8,4.4,13.4
					c5.5,5.6,2.2,11.2,2.2,11.2l17.7,16.8c0,0,1.1,12.3-1.1,19c-2.2,6.7-5.5,6.7,3.3,13.4c8.8,6.7,10,7.8,6.6,17.9
					c-3.3,10.1,8.8,23.5,13.2,25.8L40,1245.3z"/>
				
					<path fill="#EDEDED" stroke="#FFFFFF" stroke-width="2" stroke-linecap="round" stroke-linejoin="round" stroke-miterlimit="10" d="
					M354.8,1359.9c2.4,0.2,4.7,0.2,6.6,0.2c7.7,0,6.6,15.7,6.6,15.7l1.1,8.9l-15.5-12.3l-12.2,1.1c0,0-4.1-0.5-11,0l-7.7,7.8
					l-14.4,3.4l-9.9,7.9c0,0-12.2-10.1-19.9-5.6c-6.5,3.7-2.2,4.5-11.1,3.4c-8.5-1.1-19,10-19,10l-0.9,1.2l-14.8-7.2
					c0,0-5.5,4.5-9.9,0c-4.4-4.5-13.3-5.6-17.7-10.1c-4.4-4.5-7.7-11.2-11.1-17.9c-3.3-6.7-9.9-10.1-14.4-4.5
					c-4.4,5.6-4.4,7.8-11,4.5c-6.6-3.4-15.5-14.6-16.6-6.7c-1.1,7.8-6.6,10-11,6.7c-4.4-3.4-6.6-13.4-6.6-13.4l-8.8-13.4
					c0,0-1.1-11.2-5.5-12.3c-4.4-1.1-1.1-10.1-4.4-19c-3.3-8.9-7.7-13.4-17.7-15.6c-10-2.2-8.8-13.4-12.2-19
					c-3.3-5.6-5.5-4.5-11.1-4.5c-5.5,0-9.9-5.6-13.2-10.1c-3.3-4.5-6.6-4.5-13.3-4.5c-4.6,0-6-4.8-7.9-8.5l-0.4-0.7l5.3-3.3
					c0,0,1.5-1.8,3.2-1.9c1.7,0,1.3-1.8,2-2.9c0.7-1,0.9-2.1,0.1-4.1c-0.8-2-0.8-3.1-0.3-5.4c0.5-2.3,0.1-2.8,1.4-4.7
					c1.3-1.8-0.2-2.8,0.3-3.8c0.5-1,1.3-2.3,3-4.2c1.7-1.8,0.3-2.3,0.3-4.1c0-1.8-0.1-6.2-0.1-6.2l3.2-3.7c0,0,1.9-0.8,2.8-3.1
					c0.9-2.3,1.9-2.1,2-4.4c0.1-2.3-0.6-1.8-0.3-3.3c0.3-1.5,1.1-2.3,1.6-4.4c0.5-2.1,0.7-1.8,2.2-1.9c1.5,0,0.9-1,2.1-0.6
					c1.1,0.5,1,1.8,2.1,0.7c1.1-1.1,2.5-0.8,2.5-0.8s1.5-0.8,2.9-0.1c1.4,0.7,1.7,0,2.8-1.9c1.1-1.8,1.5-0.3,3.1,0.4
					c1.6,0.7,1.3-1.1,2.7-1.6c1.3-0.5,2.1,1.8,2.1,1.8l0.2,7.7c1.9,0.5,3.5,2.2,4.5,5c1,2.8,3.6,5,3.6,5s0.9,4.4,1.7,6.7
					c0.8,2.3,1.8,5.6,3.2,6.4c1.4,0.7,9.1,2.9,9.1,2.9s2.6-1.6,4.3-2.7c1.7-1.1,5.7-2.4,5.7-2.4l21.6,0.3l3.7,9.7l19.7-0.2
					c0,0,0-0.8-0.4-2c-0.4-1.3,1.5-2.9,1.5-2.9l7.8-10.5l12.2-0.3l-0.3-12.3l11.7-8.2c0,0,20.7,17.8,21.5,18.5
					c0.8,0.8,1.4,2.8,2.4,2.5c1-0.3,1.9-1.3,1.9-1.3l11.3-1l13.8-23.7l3.6-9.6l4.5-3.7l8.3-11l-3.2-5.6l-0.4-18.8l-7.5-8.8l17.2-0.4
					c0,0,0.3-4.4-0.5-5.4c-0.8-1-0.2-2.6-0.2-2.6l0.1-2.8l15.5-0.4c0,0-0.4,1.3-1.1,2.9c-0.7,1.6-1.1,4.1-1.2,7.2
					c-0.1,3.1-1,8.3-1,8.3s-0.9,2.1-1.2,4.7c-0.3,2.6,0.9,5.1,1.7,7.7c0.8,2.6,1.1,5.9,1.1,8.5c0.1,2.6,1.2,9.2,1.2,9.2
					s1,1.8,0.3,3.1c-0.7,1.3-1.1,3.9-1.1,3.9s2.3,1.2,3.9,2c1.5,0.7,3.8-0.4,3.8-0.4s3.6,6.6,5,8.6c1.4,2,3.3,3,4.3,4.8
					c1,1.8,2.8,5.6,2.8,5.6l1.7-0.3l0.4,2.8c0,0-2,1.9-1.9,4.9c0.1,3.1-0.5,3.8-1,6.1c-0.5,2.3,0.6,3.9,0.6,6c0,2.1,1.1,4.9,1.1,4.9
					l1.3,0l0.9,0.2c-0.2,8-1.4,18.2-1.4,22.2c0,5.6-5.5,17.9-5.5,17.9s-2.2,3.3-11.1,4.5c-8.8,1.1-9.9,2.2-9.9,2.2
					s-2.2,8.9-4.4,15.7c-2.2,6.7,12.8,2.9,18.3,5.2c5.5,2.2,10,2.2,14.4,10.1c4.4,7.8,6.6,12.3,12.2,16.8c5.5,4.5,7.7,5.6,7.7,14.6
					c0,9,8.8,17.9,11,29.1C339.3,1356.9,347.5,1359.2,354.8,1359.9"/>
				
					<path fill="#EDEDED" stroke="#FFFFFF" stroke-width="2" stroke-linecap="round" stroke-linejoin="round" stroke-miterlimit="10" d="
					M580.6,1130.5l-23.6,27.1l-8.3,13c0,0,7.7,10.1,12.1,15.7c4.4,5.6,2.2,11.2,8.8,15.7c6.6,4.5,7.7,10.1,18.8,14.6
					c11.1,4.5,73.5,35.1,73.5,35.1l40.5-3.4l-74.2,113.8L594,1363l-12.2,8.9l-26.5,1.1l-5.6,5.6l-16.5,36.9l-15.5,11.2L520,1542
					l13,17.2c0.1-3.5,1-7.4,5.5-14h8.5c2-1.2,19.4-37,21.2-38.7c3.3-3.5,12.8-1.8,17-4.3c5.4-3.6,10.7-19.2,17-21.5
					c4.4-1.7,8.9,2.8,12.7,0c7.4-5.6,24.9-22.4,29.7-30.1c1.9-3.1,1.7-15.2,4.3-17.2c6.6-6,15.5-1.5,21.2-8.6c2.6-3.6-1.7-13,0-17.2
					c2.2-5.6,17.5-7.4,21.2-12.9c4.5-7,0.8-14.2,4.2-21.5c0.8-2,12.2-11.9,12.7-12.9c7.6-18.5,5.9-28.7,12.7-47.2h8.5
					c7.6-18.9,5.6-37.3,12.7-55.8c5-13.6,19.9-27.1,25.4-38.6c2.1-4.6-1.7-12.5,0-17.2l8.5-4.3c2.8-7.6-1.6-17.8,0-25.8l8.5-8.6
					c0,0,3.7-38.4,4.2-42.9l-4.2-12.9H776c-5.3,2.3-19.1,15.6-25.4,17.2c-25,5.8-43.1-0.7-63.6,8.6c-6.2,2.7-11.8,15.6-21.2,17.2
					c-13.9,2.3-28.2-8.1-46.6-4.3c-0.9,0.1-14.4,9-17,8.6C594.7,1153.1,587.1,1141.6,580.6,1130.5z"/>
				
					<path fill="#EDEDED" stroke="#FFFFFF" stroke-width="2" stroke-linecap="round" stroke-linejoin="round" stroke-miterlimit="10" d="
					M-117.3,12.7c0.9,0.8,23,10.1,23,10.1l1.1-5.7L-76.6,7l4.4,11.2l6.6-6.7l12.1,12.3l3.2,12.1l14.4-12.1l13.3,2.2l8.8-11.2L15,4.8
					c-1.7-3.4-2.7-6.9-2.2-10.2C14-12,25-22.1,21.7-27.7C18.4-33.3,2.9-40,7.3-44.5c4.4-4.5,2.2-6.7,8.9-11.2
					c6.6-4.5,11-14.5,11-14.5s-10-2.2-14.4-6.7C8.5-81.4,7.3-87,16.2-87c5.9,0.1,9.9-1.1,2.2-5.6c-7.7-4.5-15.5-9-18.8-4.5
					c-3.3,4.5-4.4,12.3-9.9,4.5c-5.5-7.8-4.4-6.7-11.1-6.7c-6.6,0-4.4-3.4-3.3-10.1c1.1-6.7-13.9-21.3-13.9-21.3
					c-4.1,0-9.1,0-13.7,0c-10,0-16.6,2.2-19.9,9c-1.8,3.6-7.7,5.9-12.8,7.3c0,0-8.7,11.7-3.5,15.1c10,6.4,2.6,12.8-0.3,14.9
					c0,0-2.2,7.3-1.7,11c0.8,6.1,10.5,7.5,8.4,13.3c-1.8,4.9-9.9,1.2-11.9,6c-3,7,17.1,6.2,14.3,13.3c-2.1,5.3-8.9,2.3-13.1,6
					c-3.8,3.4-3.3,7.7-7.2,10.9c-3.5,3-7.3,1.8-10.7,4.8c-7.8,7,3.6,18.3-2.4,27C-114.5,10.2-115.8,11.3-117.3,12.7z"/>
				<g>
					
						<path fill="#EDEDED" stroke="#FFFFFF" stroke-width="2" stroke-linecap="round" stroke-linejoin="round" stroke-miterlimit="10" d="
						M4563.3-1040.2c-12.9-9.3-21.3-34.2-38.2-38.7c-12.7-3.4-33.7,0-46.6,0c2.3,1.5-8.5,8.6-8.5,8.6c7.9,1.4,2.9,5.6,4.2,12.9
						c13.5,1.7-9.8-0.4-12.7,0c21.1,0-12.7-51.5-12.7-51.5c-2.4,1.1-5.6,5.8-8.5,4.3c-1.9-0.9-8.5-12.9-8.5-12.9
						c-6.6-2.7-19.7,3.6-25.4,0c-1.9-1.2,0.8-10.7,0-12.9c-1.7-4.4-7.7-2.6-12.7-4.3v-8.6c-7.4-4.4-13.9,1-21.2-4.3
						c-7.7-5.5-11.2-22.3-21.2-25.8c-4.5-1.6-13,2.4-16.9,0c-3.2-2-25.7-21.9-29.7-25.8c-3.3-3.2-0.1-10.3-4.2-12.9
						c-22.9-14.2-36.2,1.1-42.4,0c-12.9-2.4-13.4-16.6-21.2-21.5c-8.5-5.3-15.4,0.2-25.5-4.3c-2.4-1.1-6.4-12.6-8.5-12.9
						c-19.6-3.6-54,5.5-72.1,4.3l-4.3-8.6c-8.2,0.5-23.8,7.9-38.1,4.3c-1.6-0.4-8.6-10.1-12.7-8.6l-4.2,25.8
						c1.1,5.5,12.5,9.9,17,12.9c-0.8,1.4-6.1,6.9-4.2,8.6l4.2,12.9c-8.6,2.3-4.2-2.1-8.5,4.3c-3.6,5.1-8.2,10.5-12.7,17.2
						c-4.1-1.5-11-5-12.7-4.3c-0.1,0-3.9,7.5-4.3,8.6c-6.5,0-14.8-1.6-21.2,0c-3.7-11.7-0.1-19.9-4.2-30.1l-12.7-4.3
						c4.5,0,0.7-17.9,0-21.5c-9.3,5.1-23.2,16-33.9,17.2c-13.7,1.4-13.8-8.3-8.5-8.6c-14.2-2.1-26.7-8.4-42.4-4.3
						c-1.6,0.3-8.9,8.9-12.7,8.6c-3.3-0.4-2.9-9-4.2-12.9c-58.1,0-88.9-4.8-97.6,47.2c-3.7-11.3-9.1-25-12.7-38.7
						c-10.5-2.7-10.2,1-16.9-4.3c0.7-4.2,7.7-16.8,0-21.5c6.8-1.9,6.9,3.5,8.5-4.3c-9.6-7.6-15.3-9.5-25.4-17.2
						c-2.3-1.7-2.5-11.9-4.2-12.9c-8.6-5-16.2-0.7-25.5-4.3l-8.5-8.6c-0.1-0.1-36,12.5-42.4,12.9c-5.6,0.1-6.5-8.2-8.5-8.6
						c-5.6-1.2-27.6-1.2-38.2,0l-12.7,8.6c-16.8,3.4-22.5-5.8-38.2-4.3l-8.5,8.6c-37.1,10.1-90.1,1.2-110.3,0
						c3.8-0.7,7.4-8.5,8.5-8.6c4.2-0.9,7.8,7,17,4.3c3.3-1.1,27.4-26.3,29.7-30.1c19.6-33.8-17,4.3-17,4.3v4.3
						c-3.3,1.2-9.5-2.2-12.7,0c-5.7-3.6-7.4-5-17-8.6c0.5-2.3-3.1-13.3,4.2-8.6c0,0,3-1.3,16.9,4.3c0.2-0.5,7.3-20.5,8.5-21.5
						c-12.3-5.9-35.5-20-50.9-21.5c-2.5-0.3-13.4,2.9-8.5,4.3c-11.8,1.7-22.5-6.6-33.9,4.3c-1.2,1.1,0.3,11.3,0,12.9
						c-3.3,13.4-15.2,31-29.7,34.4c-33.1,7.2-9.7-8.5-4.3-12.9c2-1.7-8.5-8.6-8.5-8.6c5.7-4.7,16.2-14.8,21.2-17.2v-4.3
						c2.8,5.9,4,10.3,12.7,12.9c-4.7-1.7,4.2-17.2,4.2-17.2c-23.7,0-39.8,1.4-59.4,4.3c0,0-3.3-13-4.3-17.2
						c17.1-0.1,52.6,2.4,17-8.6c-29.9-9.4-70.6-0.5-97.5-12.9c-1.9-0.9-6.9-12.3-8.5-12.9c-4.8-1.7-12.6,2-16.9,0v8.6
						c14.9-1.3,6.3,8.1,12.7,12.9c-17.3,0.5-17-1.3-29.7,0l-4.2,12.9c10.2-3.5,20.2,11.4,0,8.6c-0.4,1.9-6.2,22.5,0,17.2
						c2.7,10.3,6.6,12.5,8.5,17.2c0,0,4.2,10.5-17,12.9l-4.3-4.3c6.3,5.4-8.1,4.2-8.5,4.3c0-1.3,0.5-17.2,0-17.2
						c-35.3-6.7,3.3,33.1-38.2,30.1c-9.9-0.8-22.8-17.9-29.7-21.5c-10.7-5.8-18.3-4.2-29.7-8.6c-2.5-1.1-1.9-7.7-4.2-8.6
						c-2.6-1.1-10.3-0.4-12.7,0c-3,0.4-13.9,15.4-17,17.2c-9,4.8-19.9,4.8-29.7,8.6c-1.9-11.8,7.9-8.1,4.2-21.5h-8.5
						c-3.6-8.6-4.8-11.3-8.5-17.2c-5.7,19.3-11.8,74.1-29.7,81.6c-18.3,7.5-6.8-16.1-8.5-17.2c7.9,1.7,2.9-4.2,4.2-8.6
						c-6.4-2-3.2,5.9-12.7,4.3c-2.6-0.5-11.4-12.5-12.7-12.9c-4.8-1.7-12.5,1.9-17,0c6.2,8.5-14.7-14.1-17-17.2
						c-3.4,1.1-6.6,7.5-12.7,4.3c0-0.7,0.2-12.9,0-12.9c3.3-0.4,9.3,1.2,12.7,0c5.2-2-4.2-8.6-4.2-8.6c9.7-4.3-14.2,5.6-17,4.3
						c-2.1-1.1-2.5-15.7-4.2-17.2c-9.9-8.6-23.5-9.9-34-17.2l-4.2,21.5c-11.1-7.8-4.2-9.9-4.2-21.5v-8.6c-8-2-6.1,8.1-8.5,12.9
						c-3.7,0-13.9-1.8-16.9,0c7.4,0,16.2-18.8,0-17.2c-14.2,1.3-10.6,3.5-21.2,8.6c-0.7-1.2-13.7-16.9-4.3-12.9
						c-10.9-4.2,4.3-4.3,4.3-4.3c-9.2-2.1-20.5-1.3-8.5-8.6v-8.6c8.9-3.2,21.1-3,29.7-8.6c7.8-5.4,10.8-18,16.9-25.8
						c-14-4.4-19.9-3.2-29.7-8.6c-5.4-2.9-14.3-16-21.2-17.2c-16.2-3-25.6,4.7-33.9,8.6c-4.9,2.1-7.8-2-12.8,0
						c-1.2,0.4-5.4,17.4-4.2,17.2c0,0,5.6,8.7,12.7,12.9v8.6c9,4.2,22,2.2,29.7,4.3c-3,1.6,2.7,14.1-8.5,8.6l4.2,8.6
						c4.5,8.5-4.5,0.9-16.9,0l4.2,12.9c-26.4,3.4-39.5-14.2-59.4-17.2c-23.4-3.6-29,7.8-50.9,4.3l-4.2-8.6c-6-1.5-15.9-0.8-29.7-4.3
						c3.7-0.9-8.5-8.6-8.5-8.6c1.7-5.4,5.8-4.7,4.3-12.9c9.3,6.7-4.3-17.2-4.3-17.2c-8.5-0.1-27.7,5.2-42.4,4.3l-4.2-8.6
						c-4.5-1.1-7.8,5.5-17,4.3l-12.7-8.6c-15.9,0-56.1,25.5-59.4,34.4c-1.1,2.5,1.9,11.3,0,12.9c-7.4,5.9-5-29.6-4.3-34.3
						c-9,6.6-6-7.4-12.7-4.3c-0.8,0.3,0,15.7,0,17.2c-35.6-4.2-33.5,1-46.1-24.6c-0.1,3.1-4.8,11.7-4.8,11.7
						c-1.7,0.1-13.6-6.7-16.9-8.6c-7.4,13.5-25.1,27.8,0,34.3c-1.3,2.4-5.8,5.4-4.2,8.6c-12.2-4.1-12.7-4.8-21.2-8.6
						c-1.6,2.7,7.6,11.6,0,17.2c-16.8,12.4-39.6,1.5-63.6,8.6l-4.2,12.9c-16.3,2.1-30.2,3.4-50.9,4.3c8.9-1.9,39-6.3,46.7-12.9
						c1.9-1.7,2.1-16,4.3-17.2c8-5.1,16.3-1.3,25.5-4.3c28.2-9.7,42.2-34.5,50.9-64.4c43.7-9.3,85.6-20.1,123-34.3
						c-4-7.4,1.1-16.2-4.2-21.5h-4.2c-4.6-2.4-28.8-23.2,0-12.9c-5.8,4,7.8-4.2,8.5-4.3c0-1.1-0.9-12.3,0-12.9
						c-2.9-4.2-15.8-9.8-16.9-12.9c-1.4-3,2.1-15.4,0-17.2c-6.1-5.1-19.1,0.9-25.5-4.3c-6.9-5.6-9.4-21.1-12.7-30.1
						c-10.6,1-5-4.6-12.7-4.3c-6.5,0.1-23.7,12.5-29.7,12.9l-4.2-8.6c-13.8,2.3-20.9,0.1-33.9,4.3c-15.8,4.8-26.1,24.4-29.7,25.8
						c-6.1,2.1-15.3-2.3-21.2,0c3.3-8.5,9-21.1,12.7-30.1c-23.7-6.4-32.8-7.4-55.1-8.6c4-8.2,6.8-15.7,12.7-21.5
						c-13.8-6.4-35.1-19.7-55.1-17.2l-4.3,12.9c-49.8-3.1-31.1,2.9-63.6,21.5v8.6c-4.5,2.9-10.9-0.8-12.7,4.3
						c-1.9,4.6,2.6,8.7,0,12.9c6.1,5.8,11.5,10.1,17,17.2c-26.9-7.5-39.5-7-67.9-8.6l4.2,12.9l4.2,4.3c-11.9,1.6-18.3-1.2-25.5,4.3
						c-0.9,0.5,0,11.8,0,12.9c-6.9,2.7-19.1,11.1-25.4,12.9c-8,1.9-3.2-4.3-4.2-8.6c-9,3.9-7.8,5.5-21.2,8.6l-8.5,8.6
						c-10.5,1.6-0.9-12.2,0-12.9c11.3-10.2,31-13.5,8.5-25.8c2.8-1.4,10,0,12.8,0c0,0,2.9-9.4,4.3-12.9h-33.9c0.8,0.5,0,11.8,0,12.9
						c2.4,0,10.2-1.5,12.7,0c-0.8,1.3-6.2,7-4.3,8.6c-19.8-0.7-37.7,1.6-59.4,0c-0.5-0.1-5.4-6.7-12.7-4.3c-0.8,0.1,0,12.1,0,12.9
						c-29.8,2.8-39,9.9-67.9,12.9c-18.3,1.7-26.3-5.8-33.9-4.3c-4.2,0.7-15.2,12.4-16.9,12.9c-12.2,3.1-30,0-42.4,0
						c9.8,5.4,19.5,19.2,0,21.5c-1,10.2-2.7,16.5-4.2,21.5c-1.2-0.5-8.5-12.9-8.5-12.9c-6.9-2.6-24.6,5.4-16.9,8.6
						c22.5,9.4,6.4,4.8,16.9,12.9c-7,2.7-12.2,3.1-16.9,4.3c12.7,16.9,19.9,30.2,29.7,51.5c-6.4-1.1-15,1-21.2,0
						c0,0,14.1-15.4-4.2-17.2v-4.3c-11.9-2.3-29.7,8.2-38.1,8.6c-11.3,0.3-16.7-8.3-21.2-8.6l-76.4,12.9c-0.9,0.4-11.9,7.3-12.7,8.6
						c-15.5,25.1-10.8,76.4,16.9,81.6c7.8,1.3,14.3-5.5,17-4.3c4.5,1.9,8.4,14.2,12.7,17.2c6.5,4.4,15,5,21.2,8.6
						c-6.4,19.6-5.8,26.3-8.5,51.5c6.8,3.9,2.6,3.9,4.2,12.9c9-4.3,0.9,12.4,0,12.9c-4.7,1.9-12.6-2.4-17,0c0,0.5,0.1,12.8,0,12.9
						c4.5,2.8,23.3,16.8,25.5,17.2c13.5,2,11.8-7.8,17-8.6c15.4-2.8,17.1,4.9,29.7,8.6l4.2,21.5h-8.5l-4.3-17.2
						c-16.7,0.4-34.7-1.1-59.4,0c-2.3-3.9-1.3-12.2-4.3-17.2c0,0-27-18.4-17-8.6c0,0-14.3-0.1-4.2,4.3l-4.3,4.3h-8.5
						c9.6-38.2,12.7-62.9,33.9-90.2c-10.1-0.8-36.7-7.9-46.6-8.6l4.2,8.6h-8.5c-1.7-2.4-12-25.2-12.7-25.8c-5.7-4-1.7,4.7-8.5,4.3
						l-8.5-8.6c-20.1-7.9-31.7-9.3-50.9,0c-10.7,5.1-18.7,15.4,4.2,12.9c0.7,1.5,3.2,8,4.2,8.6c-9.3,4.8-3.6,3.4-8.5,12.9
						c-0.7-0.1-19.5-0.1-12.7-4.3c-3.2-1.6-11.5-8.3-12.7-8.6c-7.8-1.9-17,0-17,0c-0.8,2.4-10.5,16.1-12.7,21.5
						c1.3,0,11.5-0.9,12.7,0c7.8,6.4,16.9,10.2,25.5,17.2c21.3,17.3-8.1,17.2-25.5,17.2c0.3-0.1-4.9-8.5-8.5-8.6
						c-3.3-0.3-14.2,9.8-21.2,8.6c-3.1-0.5-10.9-12.3-12.7-12.9c0.1,0.5,1.6-15.7,0-21.5l-8.5-8.6c-3.7-14.5,9.4-39.5,4.3-55.8
						l-17-12.9c1.5,13.3,9.2,36.6,4.3,55.8c-2.9,10.9-16.8,13.8-21.2,21.5c-4.9,8.2-0.4,11.4-4.2,21.5c0,0-6.4,9.7-8.5,8.6
						c0,0,20.8,24.3,21.2,25.8c3,15.7-7.8,18.2-8.5,25.8c-1.4,13.3,4.4,29.4,8.5,42.9c8.7-2,18.4-0.8,29.7-4.3
						c4.1-1.3,12.9-12.5,17-12.9c3.3-0.5,15.1,8,17,8.6c9.9,2.3-1.7-5.1,8.5-4.3c23.7,1.5,36.8,38.9,46.7,55.8
						c-2.1,1.9-16.4,11.4-17,12.9c-2,4.4,2.4,12.9,0,17.2c3.6,2.8,7.4,2.4,8.5,8.6c16.3,4.8,24.9,3.9,42.4,8.6
						c-1.5,0,3.9,7.9,4.3,8.6c-23.3-4.4-30.5-2.3-50.9-8.6c0,0.5,0.2,12.7,0,12.9c-3.5,1.2-10.3-7.8-8.5-8.6l-12.7-4.3
						c5.3-49.2,2.3-52.9-12.7-90.2c-21.1,7-60.2,12.3-63.6,34.4c-0.4,1.6,1.9,14.9,4.3,8.6c6.2,5.2,0,17.2,0,17.2
						c-9.5,64.4-16.1,50.6-63.6,73c2.4,6,10.9,3.9,12.7,8.6c2.9,7.6,3.5,25.8,4.2,30.1c-1.6-2.4-10.1,1.5-12.7,0
						c0,0-10.5-24.6-12.7-25.8c-16-8.6-26.4,2.6-42.4,0c-12.2-2-21.6-15.8-29.7-21.5c8.1,0,36.9,1.5,46.6,0
						c7-1.2,17.4-16.4,21.2-17.2c8.9-2.2,12.7,8.6,12.7,8.6c5.3-2,4.3-5.9,12.7-4.3c2.9-7.9-2.8-8.3-4.3-12.9l21.2-17.2
						c1.6-6,1.5-41.3,0-47.2c-2.1-7.9-23.4-20.3-25.4-30.1c-5.6-27.1,13.8-47.4,12.7-68.7c-0.4-6.3-17.8-18.4-21.2-25.8
						c-3.6-7.4,2.4-8.5-4.2-12.9c-2-1.4,3.6-16,4.2-17.2c1.3-2.8,11.7-9.3,12.7-12.9c5.2-19.9,8.9-57.4,0-73
						c-8.6-15.2-71.7-13.4-84.8-4.3c-11.3,7.7-9.4,26.6-17,38.7h-4.2c-15.2,7.7-17.1,34-29.7,42.9c-6.4,4.4-10.7-0.3-17,4.3
						c2.5,22.8,9.6,48.1,8.5,55.8v8.6l-12.7,4.3c-3.2,7.8,2.6,17.7,0,25.8c13.5,3.6,23.6,2.5,29.7,4.3c-1.2,18.8-1.2,24,0,42.9
						l12.7-4.3c-7.2,19.3-11.2,28.5-21.2,42.9c-2.5-5.3-33.4-47-33.9-47.2c-4.4-2.3-13,2.7-17,0c-6.1-4.2,0.1-12.9,0-12.9
						c-4.4-2.3-12.4,1.5-17,0c-1.3-0.5-5.2-7.2-8.5-8.6c-2.3,5.6,0.9,20.4-8.5,17.2c-4.6-1.6,4-24.7,4.2-25.8
						c-21.2-4.2-39.6-2.4-55.1-4.3c-0.5-0.1-9.9-9.1-12.7-8.6c-3.7,0.5-2.8,8.4-4.2,12.9c-17.2-2.4-26.8-2-42.4-4.3
						c-1.7,6.3,3.9,7.9-4.2,8.6c8.6,19.6,10.1,17.4,8.5,47.2c-2.4-0.5-8.3,2.7-12.7,4.3c2.1-0.7-8.5-8.6-8.5-8.6s-8,3.9-8.5,4.3
						c0,6,1.9,15.4,0,21.5c-2-3.1-34.2-32.2-12.7-38.6c-6.3,1.9-38.1,12.9-38.1,12.9c-11.4,0.7,2.8-7-8.5-4.3c0,0,8.2,11.3,4.3,12.9
						c-2.8,0.9-10.4,0.3-12.7,0c-2.5-0.4-15.9-15.3-33.9-12.9c-3.9,0.4-32,20-25.5,17.2c0,0.7,0.7,12.6,0,12.9
						c-6.6,2-9.9-12.6-12.7-12.9c-6.1-0.9-6.1,7.7-8.5,8.6c-9.3,3.1-20-1.6-29.7,0v-8.6c6.4-0.9,31.3,1.9,17-4.3
						c-8.1-3.6-4.3-12.9-4.3-12.9c-3.7-2.7-9.8-1.9-12.7-4.3c0.8-1.7,6.4-6.4,4.3-8.6c-6.8,4.4-27.2,10.2-29.7,17.2
						c-0.7,1.4,0.6,12.5,0,12.9c-0.1,0-11-9.9-21.2-8.6c0,0-4,8.4-4.2,8.6c-4.6,1.8-12.3-1.4-17,0c-11.8,3.1-30,22.3-42.4,25.8
						c-4.7,1.2-12.6-2-16.9,0v8.6c-7.2,3.8-14.3,2.6-21.2,4.3c-1.5,7.4-6.2,39.1-8.5,42.9c-2.3,3.5-4.1-5.4-8.5-4.3
						c-2.1,0.4-6.4,11.7-8.5,12.9c-8,4.3-26.9,6.7-33.9,8.6c-3.3-10.5-15.5-30.7-12.7-42.9c0.4-2,6.9-6,8.5-12.9
						c10.3-1.1,16-2,21.2-4.3c0-0.1,10.7,0,12.7,0c-6.5-11.9-23.6-46.8-33.9-51.5c-6.6-3.1-18.3,1.4-25.4,0c-8-1.6-20-9.1-29.7-12.9
						c2.5,3.8,11.8,15.2,12.7,17.2c9.9,23.9,4.5,28-8.5,51.5c0,0-10.5,7.3-4.2,8.6c23.3,4.8,5.5,30.7,0,42.9
						c-0.4,0.8-8.5,12.5-8.5,12.9c5.4,3.2-4.3,12.9-4.3,12.9c-3.4-5.6-6.6-19.2-12.7-21.5c-5-2-7.9,2.2-12.7,0
						c-5.4-2.5-1.5-9.5-12.7-8.6c-2.1,0.2-44.4,33.8-50.9,38.7c3.6,10.1-0.3,17.4,4.2,25.8c2.4,4.6,37.6,28.1,8.5,25.8
						c-19-1.6-60.2-28.6-76.3-38.7c-4.5,18.6-9,40.4,8.5,47.2c4.6,1.7,8.5-2.8,12.7,0c-1.5,9.3,2.9,21.1,0,30
						c-0.7,1.7-7.6,3.9-8.5,8.6c-0.6-0.1-15,1.1-8.5-4.3c-9.8-2.7-38.4-5.4-33.9-4.3h-4.2c-0.9-0.5,0-15.7,0-17.2
						c-10.5-3.4-7.7,0-17,0c-10.3-25.6-13.9-46.6-12.7-77.3c-15.1-8.4-30-13.7-50.9-17.2l4.2-12.9c-2.1-1.9-14.3,0-16.9,0
						c0.8-0.7,0-11.9,0-12.9l-4.3-8.6c-6-8.9-11.1-17-17-25.8l33.9,21.5c7.5,0.4,1.7-7.4,8.5-4.3c6.5,2.9,13.4,18.6,17,21.5
						c1.2-2.7,3.8-16,12.7-12.9c0.1,0,0,12.2,0,12.9c25,7.4,86.8,30.2,114.5,25.8c4.3-0.8,20.5-13.8,25.4-17.2
						c16-11.5,40.4-30.7,25.5-60.1h-8.5v-8.6c-11-5.8-19.2-5.9-29.7-12.9v-8.6c-4.8-2.7-8,2.3-12.7,0v-8.6
						c-19.1-10.1-50.4-29.1-67.9-34.4c-11.2-3.4-17.1,1.5-21.2,0c-2.9-1.2-5.6-11.5-8.5-12.9c-4.6-2.2-12.3,1.6-17,0l-4.2-8.6
						c-20.8-8.2-48.1-7.8-63.6-8.6v-8.6c29-2.8,8.6-7.4-4.2-12.9c0.3-0.1-1.6-1.1-4.3,0c-10,3.6-18.3,0.7-25.5-2.3
						c0,0-9,6.8-10.1,12.4c-1,5.2-11.5,6.5-13,6.7c0.4,0.1,1.2,0.9,1.2,5.7c0,6.7,0,16.8-4.4,22.4c-4.4,5.6-6.6-3.4-6.6-3.4
						l-1.1-5.6l-9.9,10.1c0,0-4.7,28.5,0,34.9c4.8,6.5,9,2.9,9,2.9s9.6,15.2,6.7,22.1c-3,6.9-16.7,19.9-16.3,26.6
						c0.4,6.7,16.1,55.2,16.1,55.2s4,13.2,2,17.8c-2,4.6,4.9,8.7,1.9,14.5c-3,5.8-4.9,11.5-2.5,17c2.5,5.5,3.1,17.7,3.1,17.7
						s1.6,8.9,8.5,15.2c7,6.4,8,5.2,8.5,14.1c0.5,8.9,8.4,13,4.4,19.9c-4.1,6.9-8.3,10.5-8,17.2c0.4,6.7-2.6,14.7,4.4,19.9
						c6.9,5.2,17,1.5,17.4,9.3c0.4,7.8,6.3,13.4,5.5,20.2c-0.8,6.8-96.2,64.9-96.2,64.9l-23.4,19l7-0.3c4.9-0.9,11-3.1,19.4-7.5
						c3.7,3.5-3.9,11.3-4.2,12.9c7,4.8,19.3,19.1,25.4,21.5c1.7,0.7,13-6.7,21.2-4.3c1.7,0.4,6.6,12.1,8.5,12.9
						c4.7,1.9,8.1-2.6,12.7,0c-4.4,0.3-23.2,3.8-33.9,4.3c-0.4,0.5-4.3,8.6-4.3,8.6c-12.1,1.9-23.8-4.3-29.7-4.3
						c-0.8,3-0.7,7.8-1.5,13.1c0,0,5.6,6.1,5.6,11.7c0,5.6-5.5,10.1-5.5,10.1l-7,8.1c1.4,11.1,2.2,18.8,4.2,25.8
						c-2.9-0.3-8.5,12.6-8.5,12.9l-2.2-4c-2,3.4-5.8,9-9.7,9.8c-5.5,1.1-6.6,16.8-6.6,16.8s3.3,3.3,4.4,10.1c1.1,6.7,14.4,0,14.4,0
						s2.2,15.6,2.2,22.4c0,6.7,6.6,0,11,6.7c4.4,6.7,8.8,12.3,8.8,12.3l2.2,12.3c4.4-7.8,2.2,14.5,8.8,8.9
						c6.6-5.6,12.2-4.5,12.2-4.5s6.6,1.1,13.3,3.4c6.6,2.2,14.4,3.3,15.5,11.2c1.1,7.8,9.9,2.2,9.9,13.4c0,11.2,6.6,11.2,6.6,23.5
						c0,12.3-3.3,17.9,3.3,23.5c6.6,5.6,13.2,6.7,17.7,15.7c4.4,9,7.7,19,0,21.3c-7.7,2.2-13.3-10.1-18.8,2.2
						c-3.8,8.4,11.1,9,11.1,15.7v33.6c0,0,8.2,17.8,16.6,2.2c4.2-7.9,5.5-2.2,12.2,1.1c6.6,3.4,13.3-3.3,13.3,3.4
						c0,6.7,4.4,13.4,4.4,13.4s1.1,14.5,5.5,14.5c4.4,0,1.1,11.2,7.7,11.2c6.6,0,14.8-2.3,19.2,1.1c8.8,6.7,12.2,5.6,18.8,3.3
						c6.6-2.2,5.1,9.5,9.9,12.3c4.3,2.4,5.2,3.2,6.2,3.6c0.9,0.3,1.8,0.4,4.9,0.9c6.6,1.1,7.7,19,7.7,19s8.8-3.3,15.5-5.6
						c6.6-2.2,11.1-4.5,11.1-4.5s12.2-1.1,14.4,3.4c2.2,4.5-2.2,6.7,6.6,6.7c8.9,0,7.8,5.6,14.4,7.8c6.6,2.2,9.1,5.1,15.5,8.9
						c11.1,6.7-3.3,11.2,2.2,15.7c5.5,4.5,8.3,0,5,6.7c-3.3,6.7-13.8,11.1-7.2,12.3c12.1,2.2,3.3,16.8,7.7,21.3
						c4.4,4.5-1.6,2.3-2.7,10.1c-1.1,7.8,10.4,20.1,8.2,26.8c-2.2,6.7-17.1,4.5-23.7,4.5l-7.7,12.3l-4.8,16.9l3.8-1.3
						c9.9-3.1,18.3-4.2,29.4-5.6v8.6c-11.8,6-18.4,6.8-29.7,12.9c0,0.6,0.2,12.7,0,12.9c-6,2.8-14.7-1.6-21.2,0v8.6
						c5.4,2.4,13.3,3.4,17,4.3c-0.6,0.9-5.7,7.8-4.3,8.6v4.3h-8.5c-1.5,2,0,10.6,0,12.9c-8.1,2.4-20.3,4.8-33.4,5.9
						c1.5,2.2,16.7,7.3,24.9,7c2,8.4-1.4,12.9,4.2,17.2c2.8,2.2,9.2-1.7,12.7,0v8.6c1.3,4,9.3,1.6,12.7,4.3
						c9.8,7.5,15.4,26.8,25.4,34.4c4.2,3.1,10.3,5.6,15.4,7.4c0,0,2.6-18.8,8.1-22.2c5.5-3.4,16.6-7.8,19.9-2.2
						c3.3,5.6,8.8,4.5,18.8,6.7c9.9,2.2,14.4,1.1,22.1,1.1c7.7,0,5.5,2.2,13.2,7.8c7.7,5.6,12.2,16.8,22.1,16.8
						c9.9,0,16.6-7.8,21-2.2c4.4,5.6,5.5-1.1,12.2-4.5c6.6-3.4,9.9-2.2,14.3,3.4c4.4,5.6,3.3,8.9,10,12.3c6.6,3.4,5.5,5.6,11.1,6.7
						c5.5,1.1-4.4,11.2,2.2,13.4c6.6,2.2,11.1-3.4,15.5,2.2c4.4,5.6,7.7,10.1,7.7,10.1s6.6,5.6,12.1,12.3c5.5,6.7,10,4.5,12.2,12.3
						c2.2,7.8,6.6,11.2,11.1,11.2c4.4,0,16.4-19.6,16.4-19.6c-6-6.6-14.6-9.4-19.3-17.1c-2.8-4.4-1.6-12.9-4.3-17.2
						c-1.7-2.7-11.8-5.9-12.7-8.6c-5.2-13.4,0.5-25.1,0-34.4h-8.5c-6.9-6.5,11.9-21.2,4.2-25.8c-9.4-5.5-9.7,1.9-25.4,0
						c7.1-29.5,11.2-38,21.2-77.3h8.5l4.2-8.6c3.4-0.3,9.3,12.3,12.7,12.9c-10.5,0-1.2,3.2,0,4.3c18.6-10.5,0.1-11.8,12.7-17.2v-8.6
						c0,0-9.2-13.3-5.9-17.8c3.3-4.5,0-13.4,0-13.4l-11.6-26.9c0,0-13.3,9-14.4,2.2c-1.1-6.7,4.4-20.1-4.4-23.5
						c-8.9-3.4-14.4-7.8-10-13.4c4.4-5.6,12.2-20.2,12.2-20.2s7.7-2.2,5.5-9c-2.2-6.7-8.8-7.8-8.8-7.8s14.4-13.4,8.8-25.7
						c-2.3-5.1,11-2.2,12.1-7.8c1.1-5.6,12.1-16.8,14.4-10.1c2.2,6.7,8.9,21.2,8.9,21.2l18.8-11.2c0,0-14.4-8.9-13.3-15.7
						c1.1-6.7,2.2-20.1,7.7-20.1c5.5,0,7.8-13.4,13.3-10.1c5.5,3.4,19.9,1.1,19.9,1.1s18.8-17.9,22.1-23.5c3.3-5.6-5.5-7.8-5.5-7.8
						l25.4-5.6v7.8l13.2-1.1c0,0-4.4-5.6,0-5.6c4.4,0,11,1.1,14.4,6.7c3.3,5.6,2.2,13.4,2.2,13.4s10,0,16.6,3.3
						c6.6,3.4,11.1,5.6,14.3,12.3c3.3,6.7,5.5,11.2,11.1,11.2c5.5,0,13.3-3.4,16.6,3.4c3.3,6.7-5.5,16.8-5.5,16.8l14.4,3.4
						c0,0-1.1-17.9,3.3-17.9c4.4,0,2.2-9,13.3-3.4c11.1,5.6,19.9,11.2,25.4,6.7c5.5-4.5,12.1-10.1,22.1-13.4
						c9.9-3.4,8.8,10.1,15.5,7.8c6.6-2.2,4.4-7.8,11.1-3.4c6.6,4.5,13.2,22.4,13.2,22.4l17.7,4.5h12.1c0,0,12.8-4.5,11.7-17.9
						c-6.6-9-16.6-11.2-16.6-11.2l-10.6-10l9.9-19l-1.1-7.8l-12.2-17.9v-13.4l4.4-11.2V-455l13.3-13.4v-13.4l-1.1-10.1l11-6.7
						l15.5,6.7l16.6,2.2l12.2,5.6l25.4-3.4l18.8-6.7l26.5,1.1l26.5-7.8h9.9l26.5-14.5l18.8-6.7l12.1-2.2l5.5,7.8l11.1,4.5v6.7
						l-3.3,14.5l8.8,1.1l12.2,14.5l9.9-5.6l12.2-13.4l18.8,11.2l3.3,4.5l11.1-5.6c0,0,5.5-3.4,8.8,5.6c3.3,8.9,0,10.1,0,10.1
						l24.3,2.2l23.2-10.1l27.6-12.3l21-7.8l23.2-5.6l3.3,5.6l-1.1,14.5l17.7,31.3l21,47l15.5,32.4c0,0,11,17.9,17.7,19
						c6.6,1.1,26.5-5.6,26.5-5.6h29.9c7.7,0,25.4,23.5,25.4,23.5l4.4,16.8l6.6,20.1l5.5,8.9l15.5,9l18.8-4.5l34.3-15.7l21-4.5
						l13.3,1.1l6.6,13.4l9.9,11.2l7.7,6.7l19.7,4.4l9.9-6.7l14.4-4.5l9.9-5.6l6.7-8.9l0.2-7.8l5.3-9l12.2-7.8l13.4-5.5l18.8-7.8
						l8.8-6.7l17.7-2.2l16.4,3.3l6.6,9l14.4-6.7l21.1,10.1l15.5,8.9l17.7,3.4l18.7,1.1l25.4-3.4l23.2,2.2l5.5-9l-3.3-17.9l-6.5-12.3
						l-13.4-7.9l4.4-13.4l6.6-10.1l5.5-11.2l21,3.4l11.1,2.3h19.9l9.9,8.9l18.8,2.2l26.5,21.3l15.5,14.5l8.9,17.9l8.8,6.7l19.9,13.4
						l13.3-2.2h11l14.4-4.5l11-8.9l16.6,5.6l25.4,7.8l12.1,2.2l-1.1,10.1l11.1,9h13.2l13.3,9h12.1l13.3-4.5l13.3,3.4l17.7,5.6
						l22.1-5.6l9.9-9l26.5-3.4l25.4-16.8l6.6-4.5l19.9,14.6l14.3-2.2l19.9,5.6l14.4-5.6l16.6,11.2l12.2,7.8l17.7-15.7
						c0,0,21-5.6,19.9-12.3c-11.1-4.5,12.1-19,12.1-19l7.7-13.4l10-14.5l-3.3-14.5l6.6-6.7l2.3-13.5l-2.3-14.5l-8.8,1.1l2.3-7.9
						l4.4-5.5l9.9-11.2l12.1-10.1l11-8.9h15.5l14.4-5.6l8.8-3.4l16.6,2.2l12.2,7.8l10,11.1l10,10.1l19.9,3.4l14.3,11.3l7.7,10.1
						l9.9,15.7v11.2l4.4,17.9l12.1,20.2l8.8,17.9l9,7.8h12.2l11.1,2.2l15.5,5.6l8.8,7.8l4.4,12.3l5.5,14.5l12.2,12.3l5.4,11.2
						l-3.3,12.3l6.6,11.2l12.2,6.7l13.2,7.8l7.7-3.4l11.1-5.6l8.8-10.1l11-6.7h9.9l11.3-3.4l5.5-9l15.5-5.6l-6.6,16.8l-0.2,11.2
						l6.6,6.7l-2,14.5l-7.9,7.8l1.1,10.1l-3.3,20.1l-6.6,14.5l-11.1,11.2l-8.9,4.5l-3.3,10.1l-12.2,7.8l-6.4,9l-7.4-5.6
						c3.3,6.5-0.8,5.1,2.4,25.7c-0.6,0-12.6-0.7-12.7,0c-5.6-4.4,4.7-16.9,4.2-21.5c0,0-1.7-2.8-3.3-4.3l-7.6,5.6l-8.8,5.6
						l-0.1,12.3l-4.4,13.4l2.2,21.3l-1.1,12.3l-7.7,5.6l2.2,11.2l-6.9,5.2l4.3,4.9l18.6-15.7c0.9-0.9,4-12.9,4.3-12.9
						c3.3-1.6,19.9,0,25.4,0c0.3,1.1-3.2,15.2-4.2,21.5c17,10.7,28,20.3,46.7,8.6v-8.6c17.4-10.1,20.7-27.5,25.5-30.1h8.5
						c5.6-9,2.5-18.2,8.5-25.8c4.7-6,16.8-7.1,21.2-12.9c5.2-7.2,3.3-19.3,8.5-25.8c6.6-8.6,27.8-19.1,33.9-30.1
						c7.3-13.4,6.1-40.9,17-51.5c1.2-1.3,12.1-3.2,12.7-4.3c4.5-7.9-0.8-14.5,4.2-21.5c4.8-6.8,22.7-13.7,25.5-21.5
						c1.6-4.8-2.1-12.8,0-17.2h8.5l-8.5-12.9c1.2-3.9,12.3-16.9,12.7-21.5c0.5-7.1-9.8-25.9-8.5-34.4c0.3-2.7,7.7-7.9,8.5-12.9
						c-1.9-4.6-5.3-9.5-4.2-12.9c0.8-2.8,11.1-5.9,12.7-8.6c9.5-17.8,2-30.2,0-51.5c8.8,0.5,12.4-1.6,21.2,0v-4.3
						c-6.9-3.6-9.2-2-17-4.3v-8.6c-6.6-2.4-2.9,8.3-8.5,4.3c-12.4-9.1-18.9-33-33.9-38.6c-43.4-16.5-23.7,15.4-25.5,17.2h-8.5
						c7.1-6-4.3-4.3-4.3-4.3c-4.9,4-4.8,15.8-12.7,17.2c-8,1.2-14.7-7-4.3-8.6c0.2-0.5,3.7-12.5,4.3-12.9
						c-8.6,2.7-4.3-11.4-12.7-8.6v8.6c-6.9-3.4-3.4,5.4-4.3,8.6h-8.5v-43c-14.8,0.4-26.1,1.5-42.4,0c4.4-7.2,3.2-15.2,8.5-21.5
						l50.9-47.2h8.5c2.1-2.7-1.7-9.5,0-12.9c0.8-1.9,11.1-1.7,12.7-4.3c8-13.8,6-25.9,8.5-34.3c1.9,0.9,6.1,6,8.5,4.3
						c4.7-3.6,8.2-13.6,12.7-17.2c1.3-1.2,25.5-12.9,25.5-12.9c0.8-1.7-1.2-12.3,0-12.9c2.9-1.7,15,2.4,16.9,0
						c5.1-7,0.7-17.6,4.2-25.8c4-9.5,32.6-38.1,42.4-43v-4.3c2.3-1,10.5,1.2,12.7,0c2-1.2-2.3-12.3,0-12.9c9.7-2.6,17,12.9,17,12.9
						c12.6,2.4,56.7-1.8,72.1,0c-6,2.9-1.1,14.5,0,17.2c3.1-2.9,9.8-1.5,12.7-4.3c2.4-2.4,1.7-10.6,4.3-12.9
						c6.3,3.3,11.8,11.3,16.9,12.9c11.7,3.3,28.8-5.1,33.9-4.3c3.7,0.4,4.2,13,17,8.6v-30.1c17.9,5.2,35.3,1.5,46.6,4.3
						c3.2,0.7-4.1,11.5,8.5,8.6v-8.6c9.6-2.4,10.5-1.3,17-4.3c4.6,6.6,4.7,14,8.5,21.5c13.1-3,3.3,5.6,8.4,8.6
						c-10.3,0-19.6-1.9-29.7,0c0.9,3.9,4.6,21.2,4.2,21.5c8.8,0,20.8-1.7,29.7,0c-5.3-0.3,4.2-12.9,4.2-12.9
						c3.4,1.8,7.2,8.1,12.7,8.6c2.8-4.4-2.4-8.2,0-12.9h8.5l4.2-12.9c14.9,2.1,17.7-2.4,38.2,0c-7.2-4.3,8.5-4.3,8.5-4.3l-4.2-12.9
						c-5.6,1.1-7.4-0.7-17,0c1.3,8.3-3.9,3-8.5,4.3c0-9.9,1.6-20.3,0-30.1c0.9,0.4,7.4,6.2,8.5,4.3c3.2-6.7-0.7-17.3,4.2-21.5
						c11.9-10.7,30.9-10.6,42.4-21.5c2-2-1.2-10.1,0-12.9h4.2c4.9-2.6,12.7-17.2,12.7-17.2c13.6-9.1,22.6-5,42.4-8.6
						c4.9-0.9,17.6-10.9,25.5-8.6l4.2,12.9c2.3,2,9.9,1.9,12.7,4.3v-4.3c4.6-2.4,12.2-6.4,17-8.6c-6.5,13.8-4,27.7-17,34.4
						c-4.9,2.4,6.4,3.3,4.2,8.6c3.8-1.5,11.1-5,12.7-4.3c-2.5,0.4-3.2,16.9-4.3,21.5c3.6-3.4,9.2-10.2,12.8-12.9
						c12.7-9.8,28.4-34.5,38.2-38.6c20.3-9,30,4,25.4,4.3c4.9-1.9,4.8-6.2,12.7-4.3c-0.8-3.2-8.9-17.7-4.2-21.5
						c-4.5,8-4.2-8.6-4.2-8.6c34.9-28.5,18.9-19.7,59.4-8.6v4.3h-12.7c7.2-3.9-12.6-4.3-12.7-4.3c-0.9,1.6-3.3,8-4.2,8.6h-4.3
						c-1.4,17.2-2.1,30.5-4.2,43c-7.1,41.6-20.5,22.5-59.4,34.3c-1.2,7,3.8,10.5,0,21.5c-1.5,3.8-10.2,1.6-12.7,4.3
						c-2.1,2,1.1,9.8,0,12.9c-1.9,4.8-33.5,24.3-38.2,30.1c-15.5,18.6-19.9,40-42.4,51.5v4.3c-8.2,4.8-6.9-5.5-12.7-4.3
						c-3,0.5-5.6,11.7-8.5,12.9c-7.8,2.7-17.5-1.9-25.5,0c1.7,11.7,0.5,4,8.5,8.6c-5.2,16.8-1.3,28.5-17,34.4
						c-6.1,2.1-9.9-0.4-12.7,4.3c-29.1,47.6,13,197.2,21.2,257.7c8.5-6.2,43.9-31,46.7-38.7c15.4-44.6-18.8-31.7,33.9-47.2
						c-1.7-22.9-6.6-33.8,8.5-47.2l8.5-4.3v-8.6c20.7-14.9,24.9,1.9,34,0c1.6-0.4,14-14.9,17-17.2c-30.4-39.2-18.4-67.2,29.7-68.7
						c-0.8-0.3,0-15.8,0-17.2c-4.8-2.3-11.8,2.7-17,4.3c-3.6-11.9-10.6-17.6-8.5-30.1h4.3l4.2-12.9h8.5c2.1-4.7-3.1-8.7,0-12.9
						c7.1,2.7,3.2-5,4.2-8.6c-3.2,0-9.5,1.1-12.7,0c-7.7-2.7-8.5-3.4-17-4.3c0-8.6-2.2-21.7,0-30.1c0.1-0.7,29.7-25.8,29.7-25.8
						c2.8-4.4-2.4-8.2,0-12.9h8.5c2.2-9.8-5.7-6.2-4.2-12.9c0.3-1.9,6.6-6,8.5-12.9l42.4,4.3c1.4-0.5-0.9-11.3,0-12.9
						c0,0,25-13.9,29.7-17.2c-0.8,7.8-12.7,37,4.2,34.4c0,0,2.5-7.4,8.5-4.3c7-9.1,8.6-22.7,16.9-30.1c21.3-19.1,37.1-7.4,59.4,4.3
						c0,1.1-0.9,11.9,0,12.9c6.9,6.4,17.7,7.5,25.4,12.9c13.4-36,25.3-45.1,59.4-60.1c-0.9-3.1,2.5-12.1-4.2-8.6v-4.3
						c11.7-3.5,12.3,8.6,21.2,4.3c4.5-2.3,5-17.2,0-17.2c9.8-2.7,7,6.9,17,4.3c1.3-0.4,6.6-11.9,8.5-12.9c8.6-4.8,16-0.8,25.5-4.3
						c11.1-4.3,25.3-19.2,38.2-21.5c25-4.8,48.9,12.2,63.6,8.6c5.6-6.1,9.9-11.8,12.7-12.9c-0.9-2.5-6.4-14.1,0-17.2
						c-2.4-4.1-9.8-1.3-12.7-4.3c-1.5-1.5-14.6-42.5-17-47.2c-8,1.1-2.9-3.6-4.2-8.6c-5.4,0.8-6,1.9-12.7,4.3
						c6.7,1.2-8.5,4.3-8.5,4.3v-8.6l4.3-4.3l4.2-8.6c-10.5-2.3-28.2,1.9-38.2,0v-8.6c10.6-0.8,29.5-4.8,33.9-4.3l8.5,8.6
						c8.7,3.4,50.9,4.3,50.9,4.3l17-12.9c7.7-11.4,7.3-23.9,8.5-34.4c-1.1-0.4-11.7-3.3-12.7-4.3c-2.5-2.3,1.6-18.4,4.3-12.9
						c1.2-0.9,0-15.3,0-17.2c0.7-0.3,15.4-2.9,16.9-4.3l-4.2,12.9c1.2-5.5,8.4,4.3,8.4,4.3c-25.8,8.3,10.6,35,17,38.7
						c3.5-2.6,5.6-5.8,0-8.6c26.5-14.1,38-18.5,55.1,4.3c1.3,1.8,12.1,6.6,12.7,8.6c2,7.1-5.2,15.7-4.2,17.2
						c4.5,7.4,45.2,14.8,59.3,21.5v8.6c7.8-3.5,14.1-7.3,21.2-8.6v8.6c31.4-4.3,33.1,9.8,12.7-21.5v-8.6c4.4,0,12.6,1.1,17,0
						c0-2-1.5-16.2,0-17.2c-4.7,1.6-10.1,5-12.7,4.3c0-0.7,0.1-12.9,0-12.9l-4.3-4.3c3,0.4,13,0,17,0v4.3h4.2
						c1.2,0.2,5.1-2.4,25.5,4.3c-3.3,1.7,0.8,5.9,4.2,4.3c2-1.1-3.4-14.5-4.2-17.2h8.4c2.4-5.6,2.4-13.4,4.2-17.2h8.5
						C4587.5-1028.1,4573.1-1033.2,4563.3-1040.2z M3490.3-1297.9c-1.2,0.5-2.4,11.8-4.2,12.9
						C3477-1280.4,3487.7-1296.6,3490.3-1297.9z M1530.9-1272.1c1.2-4.7-4-10.3,4.2-8.6C1540.6-1279.6,1540.7-1273.3,1530.9-1272.1z
						 M279.8-778.2c-0.3,0,0,12.2,0,12.9c-18.4,5.4-22.3,3.2-38.2,8.6c-1.2-2.4,0.9-10.5,0-12.9c-1.6-4.3-14.7-13.1-17-17.2
						c-1.8-3.2,0.7-9.7,0-12.9c-1.3-5.1-13.1-16.1-16.9-21.5c13.8-6,13.4-10.6,25.4-17.2c9.4,6.2,20.9,22.3,29.7,25.8
						c4.5,1.7,8.6-2.8,12.7,0c3.8,2.5,5.3,15,8.5,17.2c5.6-5.4,3.8,18.4,4.3,21.5C279.7-769.7,288.2-782,279.8-778.2z M326.5-928.5
						c28.2,5.9,10.2,8.9,21.2,17.2c16.8,12.8-1.6,5.9-17,8.6C327.4-913.6,324.7-928.9,326.5-928.5z M385.9-804
						c-0.8,3.1-12.2,11-12.7,12.9c-12.2-17.4-19.3-27.9-38.2-38.6v-8.6c3.3,1.1,11.9,4.6,12.7,4.3c2.4-1.3-12.9-12.9,0-12.9
						c0,0,3.9,5.2,8.5,4.3c0,0,8.6-30.7-4.2-21.5c6.1,4.6-7.6,4.6-8.5,4.3c-1.9-0.7-9.9-18.7,0-17.2c5.3,0.7,15.9,5.9,25.5,8.6
						c2.6,18.3-1.9,17,4.3,34.3C375.8-826.4,389.7-822.1,385.9-804z M449.4-984.3c6.4,3.2-4.2,8.6-4.2,8.6
						C445.9-978.7,442.2-988.1,449.4-984.3z M419.8-709.5c-0.9-0.6-8.9-17.5,0-12.9C420.6-722,428.5-705,419.8-709.5z M402.8-773.9
						c23.9,0.5,17.4,14.5,0,8.6C402.8-765.3,392.7-774.2,402.8-773.9z M449.4-675.1c-3.7,6-15.5,3.7-21.2,8.6
						c-12.3-10.1-15.5-17.3-25.5-30.1c7,0.9,13.5,4.3,25.5,4.3c0.9-5.9-3.5-13.3,4.2-12.9c0,0,11.5,12.1,12.7,12.9
						C445.2-692.3,460.3-693.4,449.4-675.1z M712.4-159.8c5.8,2.9-4.2,8.6-4.2,8.6C708.8-154.1,704.6-163.8,712.4-159.8z
						 M1747.2-1409.5c-6.4,4.3-8.3-4.3-8.5-4.3c3.7-3.6,14.2-13.1,16.9-17.2C1752.1-1427.6,1750.9-1412.2,1747.2-1409.5z
						 M2112-1559.8c2.8-0.4,8.4-21.3,8.5-21.5c-1.6,1.3,3,16.9,4.2,21.5C2121.4-1559.4,2111.2-1559.8,2112-1559.8z M2213.8-1538.3
						c-9.8,6-21.5,17.7-29.7,25.8v-8.6c-10.3-2.7-9.8-1.2-16.9-4.3c0,0,9-25.5,4.2-25.8c8.3,2.1,5.8,7.5,8.5,8.6
						c19.6,7.7,42.9-8.7,55.1-12.9c-6.4-4.3-4.5-9.7,0-12.9C2261.9-1550.8,2229.4-1548.1,2213.8-1538.3z M2396.1-481.9
						c-0.8,2.2-8.1,10-11.3,14.9c0,0.6-0.3,1.3-1.4,2.3c0.3-0.6,0.8-1.4,1.4-2.3c0-2.8-9.4-1.9-9.9-2c-5,9.3-0.1,7.3-8.5,12.9
						c-2.9,1.9,12.7,8.6,12.7,8.6c-4.2,3.8-17.3,15.2-21.2,17.2v4.3c-4.4,1.8-13.1-2.7-16.9,0c-2.1,1.3-1.3,11.3-12.8,17.2v4.3
						c-4.3,1.5-13.2-2.7-16.9,0c-18.5,12.5-23.6,52.5-50.9,55.8c-15.1,1.8-21.5-9.5-29.7-12.9c23.7-10.6,37-15.2,50.9-34.4
						c2.9-4.2,4.6-18.1,8.5-21.5c3.8-3.8,12.2-1.3,17-4.3c5.1-3.2,4.4-13.2,8.5-17.2c3.6-3.6,7.7-1.4,12.7-4.3
						c20.8-13.1,53.4-76.2,63.6-103.1h4.2h4.2c-2.9,11.1-8.5,25.8-8.5,25.8C2394.8-523.2,2397.2-485.3,2396.1-481.9z M2481-1366.6
						c-9.1,4.6,1.6-11.7,4.2-12.9C2484-1378.9,2482.8-1367.6,2481-1366.6z M2489.4-1379.4c-7.6,3-12.3-20.8,4.3-25.8
						C2503.2-1408.2,2493-1380.9,2489.4-1379.4z M3240.1-1362.3c7.4,0.5,4,5.1,8.4,8.6C3246-1354.7,3224.2-1363.6,3240.1-1362.3z"/>
				</g>
				
					<path fill="#EDEDED" stroke="#FFFFFF" stroke-width="2" stroke-linecap="round" stroke-linejoin="round" stroke-miterlimit="10" d="
					M769.8,647.3l10.9,8.6l9.3,2.6c2.8-22.6,2.4-46.7-5.4-41c-5.8,4-10.1,22.7-12.7,30.1L769.8,647.3z"/>
				
					<path fill="#EDEDED" stroke="#FFFFFF" stroke-width="2" stroke-linecap="round" stroke-linejoin="round" stroke-miterlimit="10" d="
					M927,647.9l-12-6.3l2.2-10.1l-6.5-1c3.3-4.9,4.5-6.7,9.4-13C921.2,629.2,923,637.8,927,647.9z M848.2,950.6
					c2.7-0.6,5.5-1.3,8.4-2.4c1.7-0.7,9.6-11.9,12.7-12.9c4.5-1.6,8.6,6.3,17,0c6.7-5.4,4.4-21.4,12.7-25.8c4.5-2.5,19.9,0,25.5,0
					c16.1-30.1,8.6-22,42.4-34.4c-7.7-5,1.6-39.2,4.3-47.2c0.8,0,12.2,0.7,12.7,0c6.4-11.4,2.8-22.7,8.5-34.3
					c6.1-12.8,29.8-29.3,25.4-51.5c-0.9-4.1-10.3-1.9-12.7-4.3c-3.8-3.8-7.6-29.5-12.7-34.4c-9.2-8.6-22.7-5.8-33.9-12.9
					c-12.4-8-22.9-21.6-29.7-38.2c0,0-7.8,4.5-9.3,8.9c-1.5,4.4-13.2-4.8-12.3,0.2c0.9,4.9,6.1,9.1,6.1,9.1s-1.8,2.4-7.8,6.5
					c-6,4.1-5,10.1,0.3,8.1c2.8-1,3.9,12.4-3.3,22.6c-6,8.6-6.3,21.2-6.3,21.2l17.9,23.4c-1.1,4.5-11.9,79.8-18.8,82.8
					c-15.9,7-89.4,38.9-89.4,38.9l-1.2,9.3l28.3,51.4L848.2,950.6z"/>
				
					<path fill="#EDEDED" stroke="#FFFFFF" stroke-width="2" stroke-linecap="round" stroke-linejoin="round" stroke-miterlimit="10" d="
					M686.3,103.3c-6.6-8.9-19.9-20.2-21-31.3l13.2-3.4l5.5,9h-4.4l2.2,10.1c8.8,1.1,12.1,3.4,12.1,9
					C694,100,689.6,103.3,686.3,103.3z"/>
				
					<path fill="#EDEDED" stroke="#FFFFFF" stroke-width="2" stroke-linecap="round" stroke-linejoin="round" stroke-miterlimit="10" d="
					M-49,35c0.9,2.5,0.1,14.4-3,21.2c-3.1,6.8-3.1,5.8,2.1,12.5c5.1,6.7,6.2,13.5,6.2,13.5s20.7-5.7,26.9-5.7c6.2,0,5.2-1,9.3-6.8
					c4.1-5.8,8.2,0,9.2-5.8c1-5.8,14.4-4.8,14.4-4.8s9.3,0,7.2-5.8c-2-5.8,4.1-7.7,4.1-7.7L20.1,35c0,0,6-14.5,1.6-20.1
					c-2.3-2.9-4.8-6.4-6.7-10l-28.7,10L-22.5,26l-13.3-2.2L-49,35z"/>
				
					<path fill="#EDEDED" stroke="#FFFFFF" stroke-width="2" stroke-linecap="round" stroke-linejoin="round" stroke-miterlimit="10" d="
					M-312.7,349.4l-7,15.7c0,0,4.4,12.3-4.4,16.8c-8.8,4.5-12.2,13.4-18.8,13.4c-6.6,0-12.2,5.6-12.2,5.6s-1.1,15.7,1.1,24.6
					c2.2,9-4.4,7.8-5.5,14.5c-1.1,6.7-12.1,11.2-12.1,11.2s-5.5,0-8.9,4.5c-3.3,4.5,4.4,12.3,4.4,12.3l-3.3,57l10,12.3
					c0,0-13.3,7.8-8.9,8.9c4.4,1.1,2.2,11.2,2.2,11.2s1.1,23.5-1.1,35.8c-2.2,12.3-17.7,15.7-17.7,15.7s4.4,5.6,8.8,11.2
					c4.4,5.6,5.5,15.7,11.1,21.3c5.5,5.6,6.6,8.9,6.6,16.8c0,7.8,6.6,19,12.2,19c5.5,0,12.1,1.1,18.8,3.4
					c6.6,2.2,6.6,11.2,13.2,11.2c6.6,0,14.4,12.3,14.4,12.3l66.3,39.2l3.3-6.7l19.9-14.5l27.6-20.2L44.9,846.1v-25.7h26.5l-0.4-66
					l-1.8-251.7c0,0-1.1-4.5-5.5-9c-4.4-4.5-3.3-6.7-4.4-17.9c-1.1-11.2,0-14.6,5.5-21.3c5.5-6.7-2.2-19-5.5-25.7
					c-3.3-6.7-2.2-17.8-2.2-17.8c-8.4-5.4-18.3-12.3-19-12.4c-8.7-2.3-21.7,3.6-29.7,0l-4.2-17.2c-9.9-2.7-40.4-13-42.4-12.9
					c-16.7,0.7-38.3,27.2-46.7,38.6c1.9,4.2,11.8,10.3,12.7,12.9c1.6,4.7-2.1,12.6,0,17.2c-9.4,9.3-19.7,16.9-29.7,25.8
					c-2.5-1.1-11.4-12.3-12.7-12.9c-24.7-10.5-51.6-7.8-72.1-21.5c-14.6-9.8-22.2-34.6-38.2-42.9c-19.3-10.1-33.1,0.9-63.6-8.6v-8.6
					c-7.2-4.2-14.5,0.7-21.2-4.3C-312.3,362.3-311.5,353.8-312.7,349.4z"/>
				
					<path fill="#EDEDED" stroke="#FFFFFF" stroke-width="2" stroke-linecap="round" stroke-linejoin="round" stroke-miterlimit="10" d="
					M352.1,370.8c0,0,15.5-4.6,18.1-4.5c0,0,1.5-4.9,4.5-10.1c2.3-4.1,6.1-2.2,8.8-6.7c2.8-4.6,1.3-16.6,3.3-19
					c6.6-7.8,12.2-19,13.3-26.9c1.1-7.8-13.6,1-18.1-2.3c-4.4-3.4-13.1,13.2-13.1,13.2c-1.2,15.5-18.3,36.7-21.2,45.4
					C344.2,369.8,351.6,365.9,352.1,370.8z"/>
				
					<path fill="#EDEDED" stroke="#FFFFFF" stroke-width="2" stroke-linecap="round" stroke-linejoin="round" stroke-miterlimit="10" d="
					M988.6-117.6c1.1-2.6,2.3-5.2,3.7-7.8h8.5c-8.6-3.2,8.5-4.3,8.5-4.3c-3.4,2.3-8.2,11.4,0,12.9c13-23.6,8.7-18.9,33.9-30.1
					c-0.3-0.5-8.2-11-4.2-12.9c4.4-2.3,14.8,4.6,21.2,4.3c1.9-7-3.6-7.1,4.2-8.6c-7.1,4.2,8.5,4.3,8.5,4.3
					c-12.3,22.5-27.3,55.4-4.2,73c4.1,3.1,9.1,1.1,12.7,4.3c-2.9,2-11.3,4.8-8.5,12.9c0.8,2.4,8.5-4.2,4.2,4.3
					c-0.2,0.2-4.7,1.8-8.4,2.9c1.4,1.1,7,12.3,7,17.9c0,5.6,3.3,31.3,3.3,31.3s18.8-2.2,28.7,1.1c10,3.4,33.2,6.7,33.2,6.7l4.4-6.7
					c0,0,6.6,11.2,10,15.7c3.3,4.5,7.7,6.7,14.3,5.6c6.6-1.1,9.9-1.1,9.9,5.6c0,6.7,5.5,1.1,5.5,6.7c0,5.6-5.5,8.9,0,12.3
					c5.5,3.3,21,7.8,25.4,4.5c4.4-3.4,18.8,0.5,21,5.6c3.3,7.8-3.3,15.7,1.1,15.7c4.4,0,9.9-3.3,9.9-3.3l1.1-11.2
					c6.6,0,16.6-2.2,16.6-2.2s3.3-16.8,8.8-19c5.5-2.2,12.9,0.1,15.1-6.6c2.2-6.7,8.8-4.5,16.6-6.7c6.8-2,9.2-0.1,15.8-4.6
					c0,0,14-20.1,24-20.1h19.9c10,0,29.1,22.3,29.1,16.7c0-5.6,8.5-8.9,8.5-8.9s6.6-12.3,11-12.3c4.4,0,2.2,2.2,14.4-5.6
					c4.2-2.7,3.3,6.7,13.3,9c10,2.2,2.5,6.7,12.4,5.5c10-1.1,22.9-14.5,29.5-14.5c6.6,0,23.2,0,33.2-2.2c9.9-2.2,17.7,2.2,24.3,2.2
					c6.6,0,16.8,5.6,17.9,10c1.1,4.5,16.6,6.7,16.6,6.7l11.9,5.7l1.1-20.2l11.3-24.7l-6.6-12.3l-13.3-13.4l-4.4-10.1l5.5-6.7
					l22.1-4.5l22.1-10.1h26.5l6.6-10.1l-9.9-9l-3.3-17.9l5.5-21.3l11.1-10.1l8.8-15.7l11.1-7.8h16.6l22.1-10.1l3.3-13.4l3.3-9
					l16.6-6.7l8.8-12.3l12.2-11.2l45.9-7.7l-23.8-5.8l-7.7-6.7l-9.9-11.2l-6.6-13.4l-13.3-1.1l-21,4.5l-34.3,15.7l-18.8,4.5l-15.5-9
					l-5.5-8.9l-6.6-20.1l-4.4-16.8c0,0-17.7-23.5-25.4-23.5h-29.9c0,0-19.9,6.7-26.5,5.6c-6.6-1.1-17.7-19-17.7-19l-15.5-32.4
					l-21-47l-17.7-31.3l1.1-14.5l-3.3-5.6l-23.2,5.6l-21,7.8l-27.6,12.3l-23.2,10.1l-24.3-2.2c0,0,3.3-1.1,0-10.1
					c-3.3-9-8.8-5.6-8.8-5.6l-11.1,5.6l-3.3-4.5l-18.8-11.2l-12.2,13.4l-9.9,5.6l-12.2-14.5l-8.8-1.1l3.3-14.5v-6.7l-11.1-4.5
					l-5.5-7.8l-12.1,2.2l-18.8,6.7l-26.5,14.5h-9.9l-26.5,7.8l-26.5-1.1l-18.8,6.7l-25.4,3.4l-12.2-5.6l-16.6-2.2l-15.5-6.7l-11,6.7
					l1.1,10.1v13.4l-13.3,13.4v16.8l-4.4,11.2v13.4l12.2,17.9l1.1,7.8l-9.9,19l10.6,10c0,0,10,2.2,16.6,11.2
					c1.1,13.4-11.7,17.9-11.7,17.9h-12.1l-17.7-4.5c0,0-6.6-17.9-13.2-22.4c-6.6-4.5-4.4,1.1-11.1,3.4c-6.6,2.2-5.5-11.2-15.5-7.8
					c-10,3.4-16.6,9-22.1,13.4c-5.5,4.5-14.4-1.1-25.4-6.7c-11.1-5.6-8.8,3.4-13.3,3.4c-4.4,0-3.3,17.9-3.3,17.9l-14.4-3.4
					c0,0,8.8-10.1,5.5-16.8c-3.3-6.7-11.1-3.4-16.6-3.4c-5.5,0-7.7-4.5-11.1-11.2c-3.3-6.7-7.7-8.9-14.3-12.3
					c-6.6-3.3-16.6-3.3-16.6-3.3s1.1-7.8-2.2-13.4c-3.3-5.6-9.9-6.7-14.4-6.7c-4.4,0,0,5.6,0,5.6l-13.2,1.1v-7.8l-25.4,5.6
					c0,0,8.9,2.2,5.5,7.8c-3.3,5.6-22.1,23.5-22.1,23.5s-14.4,2.2-19.9-1.1c-5.5-3.4-7.7,10.1-13.3,10.1c-5.5,0-6.6,13.4-7.7,20.1
					c-1.1,6.7,13.3,15.7,13.3,15.7l-18.8,11.2c0,0-6.6-14.5-8.9-21.2c-2.2-6.7-13.3,4.5-14.4,10.1c-1.1,5.6-14.4,2.7-12.1,7.8
					c5.5,12.3-8.8,25.7-8.8,25.7s6.6,1.1,8.8,7.8c2.2,6.7-5.5,9-5.5,9s-7.8,14.6-12.2,20.2c-4.4,5.6,1.1,10.1,10,13.4
					c8.8,3.4,3.3,16.8,4.4,23.5c1.1,6.7,14.4-2.2,14.4-2.2L715-191c0,0,3.3,9,0,13.4c-3.3,4.5,5.9,17.8,5.9,17.8
					c4.7-3,3.9,6.4,12.7,4.3c1.2-0.4,9.9-12.2,12.7-12.9c7.2-2.2,2.1,6.8,12.7,4.3c9.4-2.4,18.7-23.5,25.5-30.1
					c3.7,2.4,12.1,6.9,16.9,8.6v8.6c16.6,7.8,30.2,2,42.4,12.9c2.8,2.4-0.1,11.2,4.2,12.9c2.3,0.8,11.6-1.9,12.7,0
					c5.7,9.1-0.8,17.2,4.3,25.8c6.1,10.5,27.6,15.7,8.5,30.1c-4.8,3.5-3.8,2.7-12.7,4.3c7.4,4.3-8.5,4.3-8.5,4.3s7.4-7.2-4.3-8.6
					v-4.3c-4.9-1.3-12.3,1.6-16.9,0c-6.1-2.3-3-11.4-17-8.6l-4.3,4.3l4.3,12.9c-15,0.4-17.4-1.3-29.7,0c4.4,6.3,1.7,7.3,4.2,17.2
					c13.5-2.5,8.9,7.1,12.7,8.6c-14.3-2.3-21.7-3.2-33.9-4.3v8.6c24.3,8.6,26.5,36.8,25.5,34.4c4.6,2.8,18.4,16.1,21.2,17.2
					c4.6,1.6,12.5-2.1,17,0c-1.6,6.3-2.5,12.1-3,17.5c0,0-0.9,9.1-0.6,10.6c1.2-1.6-1.3,2.8,3.1-3.9c9.2-14,15.2-13.3,25.1-14.5
					c27.7-3.3,33.8,26.9,39.3,29.2c5.5,2.2,25.4,1.1,25.4,1.1l3.8-133.2c0,0,22.1-12.3,28.7-12.3c6.6,0,15.5-5.6,22.1-4.5
					C979.3-118.7,985.1-118,988.6-117.6z M839.6-78.2c8.1-2.7-3.3,14.6-4.2,17.2c-15.2-2.4-23.2-12.2,0-8.6
					C837.4-77.4,831.7-75.7,839.6-78.2z M1564.9-202.7c19.9-3.1,6.9,16,8.5,17.2c-7.2,3.9-2,0-4.2,8.6c-4.2,0-13.1-1.5-17,0v8.6
					c-6,1.5-35.8,0.8-46.6,0c-5.3-0.5-22.4-10.3-29.7-8.6c-0.6,0.1,0,12.2,0,12.9c-9.9,2.7-21.7,3.9-29.7,8.6
					c-3.7,2.1-1.6,10.5-4.2,12.9c-5.3,4.6-14.6,0.5-21.2,4.3v8.6c-12.7,7.1-9.7,9.3-17,21.5c-4.5-2.5-3.4,10.5,8.5,8.6
					c-0.9,1.6-6.5,6.3-4.2,8.6c-1.3-3.8-11.5-5-12.7-8.6c-2.3-6.2,2.1-15.4,0-21.5c-2.5,0-10.5,1.3-12.7,0
					c-1.2-0.8,19.2-32.6,21.2-34.4c6.1-5.8,9.4,1.9,12.7,0c3.8-2.6,12.7-22.9,21.2-25.8c38-12.9,53.7,4.8,84.8,4.3l4.3-8.6
					c5.4-1.4,6.7,7.8,17,4.3C1551.1-183.9,1551.6-200.8,1564.9-202.7z"/>
				
					<path fill="#EDEDED" stroke="#FFFFFF" stroke-width="2" stroke-linecap="round" stroke-linejoin="round" stroke-miterlimit="10" d="
					M364.5,406.6c0,0,8-11.5,5.5-15.7l-0.3-0.5c0,0,12.7-9.5,17.1-5.1c4.4,4.5,22.7,5.4,22.7,5.4l42-31.3l15.5,48.1l-1.7,6.9
					l-54.6,14.4l17.1,28.2c0,0-13.3,6.7-14.4,13.4c-1.1,6.7-7.7,5.6-11,12.3c-3.3,6.7-10,11.2-10,11.2l-28,13.3l-28.1-7.4l0.6-5
					l5.8-5.4c0,0,19.4-21.1,17.7-29.1c-3.3-15.7,6.2-33.8,6.2-33.8s-0.3-8.1-0.7-13.2C365.6,410.3,364.8,409,364.5,406.6z"/>
				
					<path fill="#EDEDED" stroke="#FFFFFF" stroke-width="2" stroke-linecap="round" stroke-linejoin="round" stroke-miterlimit="10" d="
					M722.4,458.3l-5.7-7.1v-14.5h-7.7c-3.3-9-3.3-13.4-2.2-22.4c1.1-9-1.1-9-7.7-17.9c-6.6-8.9-6.6-10.1-9.9-16.8
					c-3.3-6.7-5.5-3.4-14.4-3.4c-8.8,0,3.3-2.2,1.1-8.9c-2.2-6.7-14.4-17.9-22.1-20.1c-7.8-2.2-8.8-21.2-14.4-24.6
					c-5.5-3.4-2.2-9-6.6-13.4c-4.4-4.5,8.8,0,3.3-14.5c-2.4-6.3,6.6,2.2,9.9-2.2c3.4-4.5,2.3-8.9-1.1-16.8
					c-3.3-7.8,6.7-1.1,12.2-5.6c5.5-4.5-2.2-7.8-2.2-7.8s-6.1,2.8-12.7,0.1c-5.5-2.2-6.1-4.6-11.6-3.5c-5.5,1.1-4.4-5.6-10-5.6
					c-5.5,0-1.1-9-6.6-10.1c-5.5-1.1,3.3-8.9-3.3-8.9c-6.6,0,2.2-7.8-1.1-12.3c-3.3-4.5-4.9-13.8-4.9-13.8l-9.2-3.3l-10.3,6.3
					l-4-7.7l-5.7-3c0,0-2.6,2.2-6.9,7.8c-4.2,5.7-12.3-7.3-17.6-3c-2.1,1.7-4.7,2.1-7.2,2c0,0,0.1,13.3-6.2,18.5
					c-6.3,5.1-13.6,7.2-13.6,16.5c0,9.3,3.1,7.2,2.1,14.4c-1.1,7.2-8.4,7.2-5.3,17.5c3.2,10.3,4.2,6.2,0,14.4
					c-4.2,8.2-4.2,10.3-6.3,16.4c-2.1,6.2-5.2,9.3-5.2,9.3l-57.7,45.3l14.9,48.3l76.8,44.6l2.2,9h19.9l3.3,19l21,11.2l49.7,6.7
					c0,0,19.4-13.2,24.9-21c5.5-7.8,14.3-23.5,21-21.3c6.6,2.2,17.3-0.1,17.3-0.1c8.3,4.1,10.9,6.2,18.4,11.5
					C721.9,463.3,718.4,458.5,722.4,458.3z"/>
				
					<path fill="#EDEDED" stroke="#FFFFFF" stroke-width="2" stroke-linecap="round" stroke-linejoin="round" stroke-miterlimit="10" d="
					M1063.1,655.5l4.9-28.6l17.7-24.6l15.5-5.6l17.7-4.5l11.1-8.9v-10.1l-13.3-6.7l-1.1-16.8l-8.8-13.4l-11-3.4l-12.2-17.9
					l-4.4-10.1l3.3-6.7l-11.1-30.2l29.8-34.7v-9l-5.5-6.7l-25.4-3.4l-1.1-6.7l-1.5-15.5l-5.5-16.8l-10.6-12.5l-2.2-13.4l11-7.8
					l-9.3-5.4l-1.8-6.9l3.3-21.3l5.5-12.3l6.6-3.4l12.2-2.2l1.1-8.9l6.6-12.3l5.5-13.4l-3.7-12.2v-13.4l-15.5-3.4l-5.5-12.3
					l-6.2-9.1l-9.3-6.6l-15.5-10.1l-18.4-8l-19.9-10.1l-6.6-2.2l-18.8-3.4l-30.3-6.6l-14.4,5.6l-11.1,3.4l-15.5-1.1l-7.3,6.6
					l-5.6,6.7l-2.2,5.6l-4.9,11.3l-17-0.7c-0.2,10.5-1.1,21-1.8,31.3c-9.6-1.6-5.7-7.7-8.5-8.6c-9.6-3.4-24.8,5.5-33.9,8.6
					c0.3,0-16.7,1.6-21.2,0c-12.2-4.4-23.8-14.5-33.9-21.5c6.9-0.4-8.5-4.3-8.5-4.3c-6.6-2.4-3.3-0.9-12.7,4.3
					c-4-3.2-1.6-8.6-8.5-8.6c-1.7-6.6-6.7-36-12.7-38.6c0,0-4.8-2.1-3.8-5.9c0,0-3.2-6.4-8.7-9.7c-5.5-3.4-6.6-9-6.6-9
					s-3.3-14.6,7.7-12.3c6.3,1.3,3.3-3.4,1.1-7.8c-2.2-4.5-3.3-4.5-8.8-7.8c-5.5-3.4-4.4,7.8-11,9c-6.6,1.1-14.4,12.3-14.4,12.3
					s-1.1,2.2-6.6,5.6l-11.2,6.6c0,0-6.5,1.2-10.9,1.2c-4.4,0-4.4-2.2-10-5.6c-5.5-3.4-2.8-6.8-9.4-12.4c-6.6-5.6-6.1-10-6.1-10
					l-6.1,10c0,0-5.5,0-9.9-4.5c-4.4-4.5-1.1,2.2-7.7,6.7c-6.6,4.5-3.3,7.8,0,13.4c3.3,5.6-0.5,2.3,0.6,8c1.1,5.6-3.3,7.8-6.6,13.4
					c-3.3,5.6,3.3,15.7,7.7,20.1c4.4,4.5,2.7,11.1,6.1,16.7c3.3,5.6-1.6,11.9-1.6,11.9s1.6,9.3,4.9,13.8c3.3,4.5-5.5,12.3,1.1,12.3
					c6.6,0-2.2,7.8,3.3,8.9c5.5,1.1,1.1,10.1,6.6,10.1c5.5,0,4.4,6.7,10,5.6c5.5-1.1,6.1,1.3,11.6,3.5c6.5,2.7,12.7-0.1,12.7-0.1
					s7.7,3.4,2.2,7.8c-5.5,4.5-15.5-2.2-12.2,5.6c3.3,7.8,4.4,12.3,1.1,16.8c-3.3,4.5-12.3-4.1-9.9,2.2c5.5,14.5-7.7,10.1-3.3,14.5
					c4.4,4.5,1.1,10.1,6.6,13.4c5.5,3.4,6.6,22.4,14.4,24.6c7.7,2.2,19.9,13.4,22.1,20.1c2.2,6.7-9.9,8.9-1.1,8.9
					c8.8,0,11-3.4,14.4,3.4c3.3,6.7,3.3,7.8,9.9,16.8c6.6,9,8.8,9,7.7,17.9c-1.1,8.9-1.1,13.4,2.2,22.4h7.7v14.5l5.7,6.8
					c7.1,1.6,17.3,13.9,24,13.5c1.2-0.1,8.9-8.3,12.7-8.6c9,19.7,13.1,34.6,21.2,55.8l8.5,4.3c1.1,3-2.1,10.7,0,12.9
					c3.1,3.1,10.7-0.4,12.7,4.3c1.9,4.6-2.4,12.7,0,17.2c1,2,15.2,6.3,17,8.6c2.1,2.8-1.8,9.3,0,12.9l21.2,17.2
					c13.2,7.4,46.7,8.6,46.7,8.6c14.3-8.2,27-13.4,42.4-21.5c-7.9-4.8,4.2-4.3,4.2-4.3c4.1,5.6,13.8,6.7,17,12.9
					c6.2,12.1-0.5,29.8,8.5,38.6c23.1,22.6,64.6,7.9,84.8,12.9c2.6,0.5,11.4,12.6,12.7,12.9C1055.9,656.2,1059.9,657,1063.1,655.5z
					 M614.9,170.9c25.6,2.9,30,30.9,38.2,51.5c-1,0.5-17,8.3-17,8.6c-4.6-11.3-12.6-24-17-34.3h-4.2c-1.8-7.1,9.5-12.2,4.2-17.2
					c-0.9-0.9-8.5-4.2-8.5-4.3c7.8-4-2-5.5-2-5.3C608.6,170,610.1,170.4,614.9,170.9z"/>
				
					<path fill="#EDEDED" stroke="#FFFFFF" stroke-width="2" stroke-linecap="round" stroke-linejoin="round" stroke-miterlimit="10" d="
					M-69.7,116.9c8.2,10.8,17.9,23.5,18.7,24v4.3c4.5,1.8,8.5-2.8,12.7,0c-2.7,1.2,3.5,9-4.2,4.3c0,2.7,1.4,24.8,0,25.8
					c5.3-0.9,6-7.8,8.5-8.6c19.8-7,33.2,12.7,42.4,17.2c-21.7-7.3-23.2-2.8-42.4-4.3c4,17,7.3,24,8.5,38.7c8.5,0.4,21.3-0.8,33.9,0
					C8.2,218,0,206.8,4.2,205.3c5.8-2.4,15.2,2.3,21.2,0l-4.2-12.9c0,0-14.7-0.1-4.2-4.3c14.7-6,10.9,0.8,25.5,4.3
					c0-1.4-0.6-17.2,0-17.2c-2.4-0.7-8.5-4.3-8.5-4.3c4.4,2.3,12.3-2,17,0c3.4,1.5,11.8,23.7,8.5,8.6c-1.5-6.4-0.5-12.6-4.2-17.2
					c-2.9-3.5-13.3-2-17-4.3c-4.1-2.7-8.4-16.1-12.7-17.2c-10.5-2.7-5.8,6.7-12.7,4.3c-2-0.8,1.4-6.7-4.2-8.6V128
					c24.5,5.8,2.1-14.4-4.2-25.8c-1.6-2.7-4.3-8.6-4.3-8.6S21.8,56.2,12.6,85c9.3,2,4.3,5,8.5,12.9c7.8-3.6,1.9-0.3,4.2-8.6
					c26-3.2,30.2,2.3,8.5-25.8c32.9,3.1,35.5,2,63.6,0c2.5,7.6,1.1,7.1,4.2,12.9c0,0,11.7-13.5,11.7-21.3c0-7.8,7.8,2.2,14.4-2.2
					c6.6-4.5,2.2-12.3,2.2-12.3l-9.8-5.3c0,0-15.6-4.8-11.2,5.3c4.4,10.1-2.2,5.6-8.8,5.6c-6.6,0-13.3,1.1-13.3,1.1S88,36.1,78,36.1
					c-9.9,0-12.1-4.5-17.7,4.5c-5.5,9-7.7,9-15.5,9c-7.7,0-17.6-4-17.6-4s-6.2,1.9-4.1,7.7c2.1,5.8-7.2,5.8-7.2,5.8
					s-13.4-1-14.4,4.8c-1,5.8-5.1,0-9.2,5.8c-4.1,5.8-3.1,6.8-9.3,6.8c-6.2,0-26.9,5.7-26.9,5.7l2.5,12.1l-6.3,12.4
					c-2.2,4.5-8.8,3.3-8.8,3.3s4.4,6.7-1.1,6.7L-69.7,116.9z M21.1,153.7c1.7,0.8,15.4,20.4,0,12.9
					C20.7,166.4,11.3,149.3,21.1,153.7z M12.6,145.1c6,1.2,5.2,7.4-4.2,8.6C9.6,149,4.9,143.5,12.6,145.1z M-76.4,115.1l4.3,8.6
					C-73.8,117.8-68.2,115.1-76.4,115.1z M29.6,274l-4.3,12.9c28,5.5,39.1,10.2,72.1,12.9c-0.8-2.5-5.9-16.6-4.3-17.2
					C70.3,281.9,52.3,281,29.6,274z M-63.7,175.2c1.2,0.1,9.7,7,12.7,8.6v-8.6C-54.9,173.7-60.1,175.9-63.7,175.2z M93.2,166.6
					l4.3,8.6C95.8,169.3,101.4,166.6,93.2,166.6z M93.2,132.3c1.1,0.4,8.5,12.9,8.5,12.9c15.8,5.8,4.2-12.9,4.2-12.9
					C103.1,132.3,96,133.5,93.2,132.3z"/>
				
					<path fill="#EDEDED" stroke="#FFFFFF" stroke-width="2" stroke-linecap="round" stroke-linejoin="round" stroke-miterlimit="10" d="
					M478.4-27.5c10.9,3.6,22.4,6.1,30.4,13.8c2.8,2.7,5.6,20,8.5,21.5c1.5,0,2.9,0,4.2,0c1.9,9.1,0.3,18-3.8,26.2
					c4.2,1.5,11.5,3.4,16.1,1.1c6.6-3.4,8.8,0,15.5,0c6.6,0,12.2,5.6,12.2,5.6s8.8,0,15.5-2.2c6.6-2.2,5,6.6,5,6.6l10,1.7
					c0,0,12.6-2.7,17-2.7c4.4,0,16,1,16,1s8.8-6.7,11.1-12.3c2.2-5.6,3.3-3.4,11-3.4c7.7,0,13.3,10.1,13.3,10.1s9.9,11.2,13.2,6.7
					c3.3-4.5,1.1-10.1-4.4-14.5c-5.5-4.5,6.6-10.1,6.6-10.1s-3.3-4.5-7.7-10.1c-4.4-5.6-8.8,0-15.5-2.2C645.9,7,655.9-3,650.4-4.2
					c-5.5-1.1-4.4-3.4-11.1-6.7c-6.6-3.4-5.5-6.7-10-12.3c-4.4-5.6-7.7-6.7-14.3-3.4c-6.6,3.4-7.7,10.1-12.2,4.5
					c-4.4-5.6-11,2.2-21,2.2c-9.9,0-14.4-11.2-22.1-16.8c-7.7-5.6-5.5-7.8-13.2-7.8c-7.7,0-12.2,1.1-22.1-1.1
					c-10-2.2-15.5-1.1-18.8-6.7c-3.3-5.6-14.4-1.1-19.9,2.2c-5.5,3.4-7.2,19.1-7.2,19.1L478.4-27.5z"/>
				
					<path fill="#EDEDED" stroke="#FFFFFF" stroke-width="2" stroke-linecap="round" stroke-linejoin="round" stroke-miterlimit="10" d="
					M-463.1-290.6c0,0-2.4,9,3.1,10.1c5.5,1.1,11,3.4,11,3.4s17.7-6.7,23.2,3.4c5.5,10.1,6.6,2.2,14.4,4.5
					c7.7,2.2,13.5,2.2,13.5,2.2s2,11.2-2.4,17.9c-4.4,6.7-4.4,9-2.2,15.7c2.2,6.7-3.9,16.9,2.7,26.9c0,0-3,7.1-9.1,2.1
					c-5.5-4.5-4.4,6.7-4.4,6.7s2.2,3.3-7.7,5.6c-9.9,2.2-15.5,13.4-19.9,21.3c-4.4,7.8-10.2,12.3-14.6,19c-4.4,6.7-10,21.3,2.2,12.3
					c12.2-9,12.2,1.1,12.2,1.1c0,6.7,13.2,3.9,15.7,10.1c2.2,5.6,8.6,2.2,8.6,2.2l-7.5,12.3c0,0-2.2,10.1-10,10.1
					c-7.7,0-6.6,15.7,0,15.7c6.6,0-3.3,19,1.1,23.5c4.4,4.5,17.7-3.4,13.3,3.4c-4.4,6.7-1.1,1.1-6.9,7.8c-0.9,1.1-1.4,2.1-1.6,3
					c-0.2,1,4.8,1.9,5.2,2.6l-3.9,2.4l-5.3-1.9l-7.8-2.8l-4.4,4.5l6.9,14.4c-2.6,4.3-5.2,8.1-7.7,8.9c-24,6.4-37.8-15.8-55.1-17.2
					c-12.3-1.1-10.7,4.6-21.2,4.3c-2.3,4.7-11.8,9.9-12.7,12.9c-1.7,5-1.4,10.9-0.7,17c-13.3,0-7.4,7.9-16.3,7.9
					c-8.8,0-15.7,5.5-19-1.2c-3.3-6.7-8.9,0-8.9,0s-9.9-2.2-19.9-6.7c-10-4.5-11.1,1.1-17.7,1.1c-6.6,0-2.4-7.9-11.3-7.9
					c-8.9,0-5.5-2.2-15.5-4.5c-9.9-2.2-8.8,0-8.8-6.7c0-6.7-5.3-11.1-5.3-11.1c8.6-36.9,12-54.9,8.7-103.9
					c-12.3-5.8-32.7-9.9-38.2-21.5c-4.6-9.5,3.6-21.5,4.3-25.8c-1.3-0.9-11.3,0-12.7,0c-3.6-12.1,0.4-3.5-8.5-8.6l4.2-12.9l-17,8.6
					v-8.6c-22.1-10.6-13.5-6.7-38.2-8.6c4-3.5,0-17.2,0-17.2c4.9-2.7,9.8-1.9,12.7-4.3c-2.4-1.3-12.7-8.6-12.7-8.6h4.2
					c10.7-5.5,42.5-9.9,38.2-8.6c8.1-0.3,0.2,8.9,12.7,8.6l12.7-8.6c11.9-1.6,13.4,3.9,25.5,4.3v-8.6c-1.6-7.8-11.5-28.2-12.7-34.4
					c-5.3-1.5,8.4-12.6,17-8.6c0.1,0,0,12.2,0,12.9c8.6,0.9,27,7.9,42.4,0c0.8-0.5,2.1-15.6,4.2-17.2c8.2-6.6,18.6-4.7,29.7-8.6
					c-0.9-12.7-3.7-27.5-4.2-34.4c7.5-3.1,15.7-6.2,23.1-8.3l6.2,7.1c0,0,4.4-2.2,6.6,4.5c2.2,6.7,3.3,11.2,3.3,11.2s4.4,0,12.2,8.9
					c7.7,9,12.1,1.1,12.1,1.1s-1.1,5.6,5.5,12.3c6.6,6.7,8.8,4.5,14.3,7.8c5.5,3.4,12.2-9,12.2,0c0,9-1.1,11.2,5.5,11.2
					c6.6,0,7.7,1.1,7.7,1.1l11.5-2.3L-463.1-290.6z M3952.6,2279.6c0.2,0,0,12.2,0,12.9C3966.5,2299.5,3956.3,2281.2,3952.6,2279.6z
					 M3876.3,2253.8c6.8,17,7.1,29.3,16.9,42.9c4.9,7,22.7,13.4,25.5,21.5v8.6c8.8,6.8,27,7.5,38.1,12.9c-0.9-0.9,0-11.7,0-12.9
					c-7.7-4.2-7.8-4.2-12.7-8.6c-12.1-10.7-28.9-16.9-38.2-30.1c-2.3-3.1-12.4-29.8-12.7-30
					C3889.4,2254.5,3880,2257.3,3876.3,2253.8z M886.3,2275.3l-4.3,17.2c6.5-1.5,9.8,3.1,17,4.3c0-0.7-0.7-12.7,0-12.9
					C897.6,2282.8,886.8,2276.7,886.3,2275.3z M-369.1-22.3c-2.5,1.9-1.6,10.5-4.3,12.9c-27.4,23.5-17.9,25.4-8.5,51.5
					c6.6,0.4,15.2-0.9,17,0c0-7.9-1.7-18.1,0-25.8C-346.7,15.1-367.6-16.2-369.1-22.3z"/>
				
					<path fill="#EDEDED" stroke="#FFFFFF" stroke-width="2" stroke-linecap="round" stroke-linejoin="round" stroke-miterlimit="10" d="
					M540.4,1097.1c0,0-16.6,22.4-14.4,30.2c2.2,7.8-8.3,17.5-6,24.2c2.2,6.7,9.9,7.8,16.6,7.8c6.6,0,9.9-2.2,9.9-2.2l10.5,0.4
					l-8.3,13l12.1,15.7c4.4,5.6,2.2,11.2,8.8,15.7c6.6,4.5,7.7,10.1,18.8,14.6c11.1,4.5,73.5,35.1,73.5,35.1l40.5-3.4l-74.2,113.8
					L594,1363l-12.2,8.9l-26.5,1.1l-5.6,5.6c0,0-24.3,6.7-32,3.4c-7.7-3.4-7.7-11.2-7.7-11.2s-9.4,12.8-17.2,8.3
					c-7.7-4.5-11,10.1-11,10.1s-8.3,0.6-14.9,0.6c-6.6,0-11.7,1.6-16.1-2.9c-4.4-4.5-23.2-3.4-23.2-3.4s-13.3,6.7-18.8,1.1
					c-5.6-5.6-14.4,3.4-18.8,2.2c-4.4-1.1-19.9-2.2-19.9-2.2l-2.2-8.9c0,0,1.1-15.7-6.6-15.7c-1.9,0-4.2,0-6.6-0.2
					c-7.3-0.7-15.4-3-17.1-11.4c-2.2-11.2-11-20.1-11-29.1c0-9-2.2-10-7.7-14.6c-5.5-4.5-7.7-8.9-12.2-16.8
					c-4.4-7.9-8.8-7.9-14.4-10.1c-5.5-2.2-20.5,1.6-18.3-5.2c2.2-6.7,4.4-15.7,4.4-15.7s1.1-1.1,9.9-2.2c8.9-1.1,11.1-4.5,11.1-4.5
					s5.5-12.3,5.5-17.9c0-5.6,2.2-23.5,1.1-30.2c-1.1-6.7,12.8-23.9,12.8-34c0-10.1,1.1-19,1.1-19s6.6-5.6,12.2-7.8
					c5.5-2.2,8.8-4.5,11-10.1c2.2-5.6,4.4-11.2,7.7-17.9c3.3-6.7,8.8-14.6,8.8-25.7c0-11.2,11.1-17.9,14.4-25.7
					c3.3-7.8,14.4-22.4,14.4-22.4l15.4-5.6c0,0,11.1-4.5,13.3,1.1c2.2,5.6,4.4,9,4.4,9l5.5-26.8c0,0,4.4-4.5,11,0
					c6.6,4.5,11.1,15.7,16.6,15.7c5.5,0,9.9-4.5,13.3,2.2c3.3,6.7,22.1,6.7,29.8,10.1c7.7,3.4,10,11.2,18.8,20.1
					c8.8,8.9,8.8,17.9,12.2,22.4C532.1,1092.2,540.4,1097.1,540.4,1097.1z M419.8,1094.3c22.3,1.6,8.3,15.3,0,21.5
					C412.2,1111,399.6,1092.8,419.8,1094.3z"/>
				
					<path fill="#EDEDED" stroke="#FFFFFF" stroke-width="2" stroke-linecap="round" stroke-linejoin="round" stroke-miterlimit="10" d="
					M451,887l-11.6,14.1l-15.5-2.2c0,0-12.3,6.5-15.6,12.1c-3.3,5.6-1.1,12.3-6.6,12.3c-5.5,0-1.1,3.4-3.3,13.4
					c-2.2,10.1-1.1,11.2-1.1,22.4c0,11.2-5.5,14.5-7.7,24.6c-2.2,10.1-4.4,19-2.2,23.5c2.2,4.5,1.1,32.5,1.1,32.5l15.4-5.6
					c0,0,11.1-4.5,13.3,1.1c2.2,5.6,4.4,9,4.4,9l5.5-26.8c0,0,4.4-4.5,11,0c6.6,4.5,11.1,15.7,16.6,15.7c5.5,0,9.9-4.5,13.3,2.2
					c3.3,6.7,22.1,6.7,29.8,10.1c7.7,3.4,10,11.2,18.8,20.1c8.8,8.9,8.8,17.9,12.2,22.4c3.3,4.5,12.4,10,12.4,10l4.7-4l7.7,5.6
					l19-9.3c-0.3-4.5-1.7-9.7-0.2-13c-8.7-7-25.2-11.6-29.7-21.5c-4-8.5,1.6-16.1-4.2-21.5c-5.4-5-17-2.8-21.2-8.6
					c-5-6.9-3.5-19.7-8.5-25.8c-1.7-2-10,0.9-12.7,0c-4.7-1.9-13.8-21.3-17-25.8c-2.5,1.2-5.4,5.8-8.5,4.3c0-1.5,0-2.8,0-4.3
					c-2.1-1.2-7.7-2.4-8.5-4.3C453.4,950.7,459.5,907,451,887z"/>
				
					<path fill="#EDEDED" stroke="#FFFFFF" stroke-width="2" stroke-linecap="round" stroke-linejoin="round" stroke-miterlimit="10" d="
					M572.4,1094.3c-1.2,4.2-9.8,11.3-12.7,17.2h8.5c2.5,0.9,6.9,9.2,12.2,18.3l-23.4,27.8l-10.5-0.4c0,0-3.3,2.2-9.9,2.2
					c-6.6,0-14.4-1.1-16.6-7.8c-2.2-6.7,8.2-16.4,6-24.2c-2.2-7.8,14.4-29.1,14.4-29.1l5.5-4.5l7.7,5.6l19-9.1
					C573,1092.4,572.4,1094.3,572.4,1094.3z"/>
				
					<path fill="#EDEDED" stroke="#FFFFFF" stroke-width="2" stroke-linecap="round" stroke-linejoin="round" stroke-miterlimit="10" d="
					M303.9,299.2c-3.3,4.1-6,7.5-7.1,9.1c-7.7-1.9-17.8,0-25.5,0c4-1.4-8.5-8.6-8.5-8.6c0.8-1.7,2.3-3.1,3.4-4.6
					c4.7,1.3,8.7,5.5,13.4,4c3.2-1,3.4-4.5,6.6-5.6c2.9-1,4.8-0.6,7.7,0C297.8,294.4,300.4,297.5,303.9,299.2z M303.9,299
					c9.8-12.1,25.1-30.3,22.5-29.3c-3.5,1.2-13.8,12-17,12.9c-19.8,5.5-25.3,2.7-42.4,8.6c0.5,1.7-0.1,2.9-0.9,4
					c4.7,1.3,8.7,5.5,13.4,4c3.2-1,3.4-4.5,6.6-5.6c2.9-1,4.8-0.6,7.7,0C297.8,294.4,300.5,297.3,303.9,299z"/>
				
					<path fill="#EDEDED" stroke="#FFFFFF" stroke-width="2" stroke-linecap="round" stroke-linejoin="round" stroke-miterlimit="10" d="
					M-244.5,1028.4c0.6,0.2,1.3,0.6,2.6,1.4c4.5,2.6,6.9,14.4,12.7,17.2c11.8,5.5,10.9,0.3,25.5,0c0,0,11,18.8-8.5,12.9
					c0.1-0.1-11.2,0.4-17.8,0.4c0,0,15.2,16.3,19.7,21.9c4.4,5.6-1.1,11.2,3.3,15.7c4.4,4.5,5.5,10.1,4.4,14.6
					c-1.1,4.5,0,10.1,0,10.1s-4.4,2.2-4.4,10.1c0,7.8,4.4,19,6.6,23.5c2.2,4.5-1.1,12.3,2.2,17.9c3.3,5.6,3.3,12.3,3.3,12.3
					s-28.7-3.4-34.3,1.1c-5.5,4.5-8.8,13.4-4.4,16.8c4.4,3.4,15.5,21.3,19.9,24.6c4.4,3.4,7.7,26.9,7.7,26.9l-7.7,16.8l11.1-1.1
					l13.2,1.1l7.8-13.4c0,0,6.6,6.7,13.2,6.7c6.6,0,25.4-5.6,33.2-6.7c7.7-1.1,14.3-4.5,22.1-14.5c7.7-10.1,12.2-7.8,19.9-12.3
					c7.7-4.5-13.3-9-6.6-17.9c6.6-8.9,24.3-5.6,32-12.3c7.7-6.7,8.8-6.7,16.6-7.8c7.7-1.1,5.5-10.1,10-13.4c4.4-3.4,11-6.7,16.6-8.9
					c5.5-2.2,4.4-2.2,7.7-11.2c3.3-9,14.4-11.2,14.4-11.2s3.3-5.6-2.2-11.2c-5.5-5.6-7.7-5.6-4.4-13.4c3.3-7.8,0-12.3,0-12.3
					s0,0-1.1-6.7c-1.1-6.7,8.8-11.2,5.5-16.8c-3.3-5.6-5.5-7.8-11-7.8c-5.5,0-13.3,4.5-13.3-1.1s-2.2-7.8,3.3-11.2
					c5.5-3.3,7.7-4.5,7.7-13.4c0-8.9,0-4.5,6.6-10.1c6.6-5.6,6.6-14.6,6.6-21.3c0-6.7-2.2-7.8,4.4-12.3c6.6-4.5,10-7.8,6.6-14.5
					c-3.3-6.7,2.2-10.1,5.5-17.9c3.3-7.8,7.7-5.6,13.2-2.2c5.5,3.4,19.9,0,19.9,0V846.1l-237.5-144.3l-27.6,20.2l15.5,70.5
					c0,0,17.7,22.4,11,30.2c-6.6,7.8-6.6,16.8-8.8,28c-2.2,11.2,0,116.4,0,116.4l-41.7,36.2L-244.5,1028.4z"/>
				
					<path fill="#EDEDED" stroke="#FFFFFF" stroke-width="2" stroke-linecap="round" stroke-linejoin="round" stroke-miterlimit="10" d="
					M-114.2,1398.8l2.2-28c0,0,14.4-5.6,14.4-14.5c0-9,5.5-15.7,11-15.7c5.5,0,12.1-3.4,21,1.1c8.8,4.5,12.1,12.3,17.7,15.7
					c5.5,3.4,17.7,3.4,24.3,3.4c6.6,0,8.8,1.1,17.7,3.4c8.8,2.2,16.6,3.3,16.6,3.3s-2.2-16.8,5.5-16.8c7.7,0,7.7,10.1,17.7,6.7
					c9.9-3.4,15.5-3.4,15.5-3.4s-2.2-9,5.5-10.1c7.7-1.1,2.2,11.2,11.1,2.2c8.8-8.9,5.5-10.1,13.2-10.1c7.7,0,13.3,0,22.1,0
					c8.8,0,4.3,4.5,8.8,4.5c4.4,0,15.5-1.1,15.5-1.1s-1.1-11.2-5.5-12.3c-4.4-1.1-1.1-10.1-4.4-19c-3.3-8.9-7.7-13.4-17.7-15.6
					c-10-2.2-8.8-13.4-12.2-19c-3.3-5.6-5.5-4.5-11.1-4.5c-5.5,0-9.9-5.6-13.2-10.1c-3.3-4.5-6.6-4.5-13.3-4.5
					c-6.6,0-6.6-10.1-11.1-12.3c-4.4-2.3-16.6-15.7-13.2-25.8c3.3-10.1,2.2-11.2-6.6-17.9c-8.8-6.7-5.5-6.7-3.3-13.4
					c2.2-6.7,1.1-19,1.1-19l-17.7-16.8c0,0-11,2.2-14.4,11.2c-3.3,8.9-2.2,8.9-7.7,11.2c-5.5,2.2-12.2,5.6-16.6,8.9
					c-4.4,3.4-2.2,12.3-10,13.4c-7.7,1.1-8.8,1.1-16.6,7.8c-7.7,6.7-25.4,3.4-32,12.3c-6.6,9,14.4,13.4,6.6,17.9
					c-7.7,4.5-12.2,2.2-19.9,12.3c-7.7,10.1-14.4,13.4-22.1,14.5c-7.7,1.1-26.5,6.7-33.2,6.7c-6.6,0-13.2-6.7-13.2-6.7l-7.8,13.4
					l-13.2-1.1l-11.1,1.1c0,0-11,32.4-18.8,36.9c-7.7,4.5-12.1,9-6.6,12.3c5.5,3.4,8.8,3.4,11,12.3c2.2,9,6.6,17.9,12.2,28
					c5.5,10.1,3.3,12.3,12.1,21.3c8.8,8.9,11,6.7,16.6,17.9c5.5,11.2,17.7,21.3,17.7,21.3s9.9,1.1,13.3-7.8c3.3-9,0-9,8.8-11.2
					c8.8-2.2,7.7,3.4,14.4,1.1C-126.3,1402.1-114.2,1398.8-114.2,1398.8z"/>
				
					<path fill="#EDEDED" stroke="#FFFFFF" stroke-width="2" stroke-linecap="round" stroke-linejoin="round" stroke-miterlimit="10" d="
					M169.7-62.3c0,0-5.3-5-10.6-6.8c-6.6-2.2-7.7-2.2-19.9,3.4c-12.1,5.6-12.6-5.6-19.2-6.7c-6.6-1.1-9.9,3.4-16.6,10.1
					c-6.6,6.7-4.4,4.5-17.7,7.8c-13.3,3.3-12.1,2.2-23.2-1.1c-11-3.4-2.2,3.4-15.5,3.4c-13.3,0-15.5-6.7-8.8-11.2
					c6.6-4.5-11-6.7-11-6.7s-4.4,10.1-11,14.5c-6.6,4.5-4.4,6.7-8.9,11.2c-4.4,4.5,11,11.1,14.4,16.7C25-22.1,14-12,12.9-5.3
					c-1.1,6.7,4.4,14.5,8.8,20.1c4.4,5.6-1.6,20.1-1.6,20.1l7.2,10.6c0,0,9.8,4,17.6,4c7.7,0,9.9,0,15.5-9c5.5-8.9,7.7-4.5,17.7-4.5
					c10,0,8.8,11.2,8.8,11.2s6.6-1.1,13.3-1.1c6.6,0,13.2,4.5,8.8-5.6c-4.4-10.1,11.2-5.3,11.2-5.3s-2.2-2,2.2-6
					c4.4-4,9.9-2.5,13.1,0.5c3.3,3,9.6-1.4,9.6-1.4c-0.9-4.5-3.4-13.1-9.5-16.3c0,0,19.4-35.3,21.2-38.7l8.5-4.3
					c5.3-14,0.5-22.2,3.8-29.8L169.7-62.3z"/>
				
					<path fill="#EDEDED" stroke="#FFFFFF" stroke-width="2" stroke-linecap="round" stroke-linejoin="round" stroke-miterlimit="10" d="
					M622.2,112.3c0,0-0.6,4.4,6.1,10c6.6,5.6,3.9,9.1,9.4,12.4c5.5,3.4,5.6,5.6,10,5.6c4.4,0,12.7-1.2,12.7-1.2s0-9-7.8-15.7
					c-7.7-6.7-10.5-8.9-10.5-8.9s-4.4-3.3-11.1-3.3C624.4,111.2,622.2,112.3,622.2,112.3z M717,151.8c1.1-6.8,12.4-15.2,12.4-15.2
					c5.1-14.1,11-35.4,17-55.8c8.7-1.2,12.9-2,17-4.3c-2.8-1.2-19.3-6.3-21.2-8.6c-5.7-7.3-6.5-19.5-13.1-28.4l-1.6-1.6
					c0,0-11.9,19.5-16.3,19.5c-4.4,0-8.8-3.4-11.1-11.2c-2.2-7.8-6.6-5.6-12.2-12.3c-5.5-6.7-12.1-12.3-12.1-12.3
					s-12.1,5.6-6.6,10.1c5.5,4.5,7.7,10.1,4.4,14.5c-3.3,4.5-13.2-6.7-13.2-6.7s-5.5-10.1-13.3-10.1c-7.7,0-8.8-2.2-11,3.4
					c-2.2,5.6-11.1,12.3-11.1,12.3l0.6,9c0,0,8.3,7.8,11.6,2.2c3.3-5.6,4.2,6.1,9.4,7.9c6.6,2.2-5.5,12.3-5.5,12.3s7.7,3.4,13.3,6.7
					c5.5,3.4,6.6,6.7,6.6,6.7l-6.6,7.8c0,0,4.5,7.9,10,10.1c5,2,11-2.1,9.9,1.1c-2.2,6.7,3.3,19,3.3,19s6.7-12.3,13.3-13.4
					c6.6-1.1,5.5-12.3,11-9c5.5,3.4,6.6,3.4,8.8,7.8c2.2,4.5,5.2,9.1-1.1,7.8c-11-2.2-7.7,12.3-7.7,12.3s1.1,5.6,6.6,9
					C713.9,145.8,717,151.8,717,151.8z M686.3,103.3c-6.6-8.9-19.9-20.2-21-31.3l13.2-3.4l5.5,9h-4.4l2.2,10.1
					c8.8,1.1,12.1,3.4,12.1,9C694,100,689.6,103.3,686.3,103.3z"/>
				
					<path fill="#EDEDED" stroke="#FFFFFF" stroke-width="2" stroke-linecap="round" stroke-linejoin="round" stroke-miterlimit="10" d="
					M587.9,47.4c0,0,8.8,13.4,1.1,19c-7.4,5.4-2.2,5.6-6.6,14.6c-4.4,8.9,23.2,13.5,29.8,16.8c11.6,5.7,8.8,15.7,8.8,15.7
					s3.3-2.2,9.9-2.2c6.6,0,11.1,3.3,11.1,3.3s2.7,2.1,10.5,8.9c7.8,6.7,7.8,15.7,7.8,15.7s3.9-3.3,9.4-6.6c5.5-3.4,6.6-5.6,6.6-5.6
					s-4.4-11.2-2.2-17.9c1.1-3.2-5,0.8-9.9-1.1c-5.5-2.1-10-10.1-10-10.1l6.6-7.8c0,0-1.1-3.4-6.6-6.7c-5.5-3.3-13.3-6.7-13.3-6.7
					s12.2-10.1,5.5-12.3c-5.2-1.8-6.1-13.5-9.4-7.9c-3.3,5.6-11.6-2.2-11.6-2.2l-0.6-9c0,0-11.6-1-16-1
					C604.5,44,587.9,47.4,587.9,47.4z M619.1,85c13.3,1.9,16.6,13.1,0,8.6C619.1,93.6,607.7,83.4,619.1,85z"/>
				
					<path fill="#DFDFDF" stroke="#FFFFFF" stroke-width="3" stroke-linecap="round" stroke-linejoin="round" stroke-miterlimit="10" d="
					M707.9,513.8c-2.9-7.2-12.9-14.3-16.7-20.8c5.4-5.2,2.4-11.7,4.2-21.5c25.8,4.7,12.1-2.6,5.2-15.7c0,0-8.8,2.3-15.4,0
					c-6.7-2.2-15.5,13.4-21,21.3c-5.6,7.8-24.9,21-24.9,21l38.1,6.9l4.4,12.3L707.9,513.8z"/>
				
					<path fill="#DFDFDF" stroke="#FFFFFF" stroke-width="3" stroke-linecap="round" stroke-linejoin="round" stroke-miterlimit="10" d="
					M364.7,263.4c0,0,1.6,3.2,11.2,0.5c9.5-2.7,2.1-12.5,10.6-11.6c8.5,0.9,8.5-3.6,7.4-8.1c-1.1-4.5-5.3-9,0-13.4
					c5.3-4.5,9.5,4.5,13.8,0.9c4.2-3.6,6.4-7.2,11.7-7.2c5.3,0,11.7,5.4,18,0.9c6.3-4.5,23.3,0.9,37.1-12.5c3.9-3.8,29.7,0.9,36-4.5
					c6.4-5.4,19.1-12.4,24.4-11.5l2.1,7.1c-0.1,1.5,3,2.9,6.6,3.1c2.4,0.1,5.1-0.3,7.2-2c5.3-4.3,13.4,8.6,17.6,3
					c4.3-5.7,6.9-7.8,6.9-7.8l5.7,3l4,7.7l10.3-6.3l9.2,3.3c0,0,4.9-6.3,1.6-11.9c-3.3-5.6-1.7-12.2-6.1-16.7
					c-4.4-4.5-11.1-14.5-7.7-20.1c3.3-5.6,7.7-7.8,6.6-13.4c-1.1-5.6,2.8-2.3-0.6-8c-3.3-5.6-6.6-8.9,0-13.4
					c6.6-4.5,3.3-11.2,7.7-6.7c4.4,4.5,9.9,4.5,9.9,4.5l3.9-8.9c1.1,0,3.9-10-7.7-15.7c-6.7-3.3-34.3-7.8-29.8-16.8
					c4.4-9-0.8-9.2,6.6-14.6c7.7-5.6-1.1-20.1-1.1-20.1l-6.1-1.2c0,0,1.7-8.9-5-6.6c-6.6,2.2-15.5,2.2-15.5,2.2s-5.5-5.6-12.2-5.6
					c-6.6,0-8.8-3.4-15.5,0c-6.6,3.4-16.2-0.7-16.2-0.7c-8.9,17.7-29,30.3-46.9,25c-5-1.5-1.7-9.3-12.7-8.6l-4.2,8.6
					c-4,1.5-25.5,4.3-25.5,4.3L402.8,55c-2.5-1.2-3.6-12.2-8.5-12.9c-13-1.9-8.6,11.9-21.2,8.6c-3.5-0.9-5.6-15.7-8.5-17.2
					c-6.7-3.5-12.3-0.8-17-4.3l-4.2-8.6c-0.8-0.3-48.4-1.2-55.1,0c-11.5,1.8-22,18.4-29.7,21.5c-2.5,0.9-10.5-1.3-12.7,0
					c-2.2,1.2-6.5,12.2-8.5,12.9c-21.2,5.6-37.5-5-55.1-4.3L178,63.6c4.2,0.4,16.9,4.3,16.9,4.3c-2-0.1-8.5,2.3-16.9,0
					c-1.5-0.4,3.7,7.7,4.2,8.6c-16,0.9-24,0-38.1,0V85c-10.5,0.8-8.9-6-21.2-4.3c15.7-6.7,31.1-16.6,50.9-21.5v-8.6
					c-7.1-4-21-6.7-25.4-12.9c-5.5-7.6-2.5-5.1-3.2-9.5c0,0-6.4,4.5-9.6,1.5c-3.3-3-8.8-4.5-13.1-0.5c-4.4,4-2.2,6-2.2,6l9.8,5.3
					c0,0,4.4,7.8-2.2,12.3c-6.6,4.5-14.4-5.6-14.4,2.2c0,7.8-12.1,20.1-12.1,20.1l0.4,5.5c0.8,4.6,4.2,9.7,4.2,9.7
					c4.9-1.8,11.1-6.5,17-9.7c-6.5,6.2-11.1,14.6-17,21.5c-6.3-5.9-4.1,15.3-4.2,17.2c3.3,0.9,16,2.4,17,4.3
					c6.2,14.2-2.9,18.7,0,30.1c0.1,1,7.7,4.6,8.5,8.6c-11.9,0.8-13.5,2.7-21.2,4.3c4.6,2,2.8,12.2,4.3,12.9
					c1.3,0.5,8.9-3.1,12.7-4.3c4.4,17.9,3,23.4,4.2,38.7c5.7,2.7,15.4-2.8,21.2,0c0.1,0,0,12.2,0,12.9c6.9,2.4,10.2-2.3,16.9-4.3
					c10.1,12.9,17.4,23.8,29.7,34.4c6.3-4.6,10.6,0.1,17-4.3c16.3-11.5,3.6-39.9,46.6-12.9c3.2,2,13.6,16.5,16.9,17.2
					c27.6,5.6,49.6-24.6,55.1-25.8c4.7-1.2,7.8,8.1,17,4.3c3.9-1.7,8.8-14.4,12.7-17.2c-0.8,4.8,6.2,10.7,4.2,21.5l-8.5,4.3
					c1.3,9.1,3,14.6,4.5,19.8L364.7,263.4z M576.7,145.1c-3.4,9-2.1,14.1-4.2,25.8c-11.5,0.4-16.4,1.2-29.7,0
					C521.8,168.8,575.4,145.7,576.7,145.1z"/>
				
					<path fill="#DFDFDF" stroke="#FFFFFF" stroke-width="3" stroke-linecap="round" stroke-linejoin="round" stroke-miterlimit="10" d="
					M554.8,948.3c0,0,6.6-3.4,6.6-9c0-5.6,5.5-1.1,5.5-7.8c0-6.7,0-4.5,3.3-7.8c3.3-3.4,1.3-5.2,6.6-6.7c12.1-3.4,3.3,5.6,9.9,8.9
					c6.6,3.4,8.3,0.8,17.1-0.3c8.8-1.1,48.1,12.6,48.1,12.6l5.5,35.8c-1.6,0,14.9-18.3,14.9-18.3l35.9-46.6l96.2-34.7
					c0,0,74.7-32.1,90.6-39.2c6.9-3,17.7-78.3,18.8-82.8l-18.8-23.5c0,0-1.7,3.1-8.4,2c-6.6-1.1-90.6-16.8-90.6-16.8L794,685
					l-14.3-16.8l0.6-12.1l-10.8-8.5l-6.1,0c-0.8-3.2-8.5-23.9-8.5-25.8c-0.3-9.5,8.1-10.7,4.2-21.5c-2.4-6.6-17.2-11.4-21.2-17.2
					c-5.5-8.2-3.2-17.7-8.5-25.8c-3.3-4.8-14.4-7.9-17-12.9c-4.5-9-0.5-19.4-4.3-30.9l-26.2,3.7l-4.4-12.3l-38.1-6.9l-49.7-6.7
					l-21-11.2l-3.3-19h-19.9l-2.2-9L467,407.5l-1.7,6.9l-54.6,14.4l17.1,28.2c0,0-13.3,6.7-14.4,13.4c-1.1,6.7-7.7,5.6-11,12.3
					c-3.3,6.7-10,11.2-10,11.2l-28,13.3l-28.4-7.5c-0.8,7.1-2.1,17.1-3,20.3c40.8,22.7,24.3,32.3,48.7,67.5
					c3.7,5.4,18.9,12.4,21.2,17.2c7.2,15.8,0.4,33,8.5,47.2c7.7,13.5,33,21.2,38.2,42.9c1.6,7-2.2,12.9-4.2,21.5
					c0,0,0.4,43.3,8.5,38.7c1.9,17.8-1.7,32.5,4.2,47.2c7.6,19.2,35.7,22.4,46.7,38.7c9.6,14.3,5.5,37.6,12.7,51.5
					c0,0.1,15.9,7.1,17,8.6l21.2,34.4C556.7,940.4,556.3,942.7,554.8,948.3z"/>
				
					<path fill="#DFDFDF" stroke="#FFFFFF" stroke-width="3" stroke-linecap="round" stroke-linejoin="round" stroke-miterlimit="10" d="
					M57.1,410.6c0,0-1.1,11.4,2.2,18.2c3.3,6.7,11,19,5.5,25.7c-5.5,6.7-6.6,10.1-5.5,21.3c1.1,11.2,0,13.4,4.4,17.9
					c4.4,4.5,5.5,9,5.5,9L71,754.4l197.1,1.1l7.7-5.6l2.2,6.7h25.4l3.3,5.6l9.9-2.2l3.3-17.9l9.9-2.2l6.6-19l9.9-1.1l16.4-6.4
					c-5.8-12-7.5-28.4-11.1-39.8c5.6-3.2,10.6,3.1,8.5-8.6c-1.6-8.6-17.2-26.6-21.2-34.4c-12.2-23.6-11.1-33.3-21.2-60.1
					c-2-5.4-15.2-19.3-17-25.8c-1.3-4.8,2-12.9,0-17.2c-4.2-9.1-13-13.1-17-25.8c0,0-11.3-25.4,0-17.2c10.6,7.6,5.3,18.4,12.7,30.1
					c3.4,5.4,16.1,16.6,21.2,21.5c4.9-4,5.3-1.8,12.7-4.3c0-1.2-0.9-12.2,0-12.9c4.4-6.7,7.1-33.9,7.1-33.9l-4-45.8
					c0,0-1.6-8.9-3.3-14.5l-4.3-13.1c-14,3.3-30.4-1.2-42.1,0c-1.7,0.1-13.8,8.9-17,8.6c-3.3-0.4-7.6-12.5-8.5-12.9
					c-2.5-1.2-10.5,1.2-12.7,0c3.6,0.1,2.8,8.7,4.3,12.9c-9.7-1.2-6.8-8.2-8.5-8.6c-7.5-1.9-24,10.3-29.7,12.9l-25.5-4.3h-4.2
					c-4.6,0.2-12.7,0-12.7,0v4.3c-5.8-2.4-10.2-12.6-17-8.6c-2,1.1,1.1,10.5,0,12.9l-21.2,12.9c-8.1-3.8-26.5-20-33.9-21.5
					c-13.4-2.8-15.8,7.1-25.5,4.3V420C70.4,419.3,64.5,415.5,57.1,410.6z M279.8,467.2c5.8,2.9-4.3,8.6-4.3,8.6
					C276.2,472.9,272,463.2,279.8,467.2z"/>
				
					<path fill="#DFDFDF" stroke="#FFFFFF" stroke-width="3" stroke-linecap="round" stroke-linejoin="round" stroke-miterlimit="10" d="
					M780.7,655.9l-1.1,12.3L794,685l2.2,29.1c0,0,84,15.7,90.6,16.8c6.6,1.1,9.5-3.1,9.5-3.1s0-11.3,6.1-20
					c7.2-10.2,6.1-23.6,3.3-22.6c-5.3,2-6.3-4-0.3-8.1c6-4.1,7.8-6.5,7.8-6.5s-5.2-4.2-6.1-9.1c-0.9-5,10.9,4.2,12.3-0.2
					c1.5-4.4,9.5-8.6,9.5-8.6l-2.2-4.7l-11.6-6.3l2.2-10.1l-8.3-1c-11,16.6-19.3,31.5-48.2,42.8l-4.3,8.6
					c-11.8,1.7-16.9-8.6-21.2-8.6c-32.6-0.7-11.3,9.1-46.6,0c0.6-4.3,1-8.6,1.5-14.6L780.7,655.9z"/>
				
					<path fill="#DFDFDF" stroke="#FFFFFF" stroke-width="3" stroke-linecap="round" stroke-linejoin="round" stroke-miterlimit="10" d="
					M335.7,406.7c-3.1,2.8-5.5,3.7-9.6,4.7L330,424l10-8.5L335.7,406.7z M366.4,387.3l0,2.5c-4.6,0.4-1.3,14.2-1.7,17.4
					c0,0,0.5-0.3,0.8-0.9c0.3,2.6,0.1,3.8,0.4,7.1c0.4,5.2,0.6,13.3,0.6,13.3s-0.9,1.3-2.1,4.6c0,0-12.2,4.5-13.3,0
					c-1.1-4.5,4.3-15.8,4.3-22.5c0-6.7-3.3-17.9,2.2-17.9C363.2,390.8,363.1,387.4,366.4,387.3z M366.6,387.2c0-7.6-0.6-20-0.6-20
					c-2.6-0.1-13.5,3.6-13.5,3.6l-0.6,2c-0.3,0.8-12.2,10.6-12.7,12.9c-1.2,3.9,2.4,13.8,0,17.2c-0.9,1.3-2.3,2.9-3.4,3.9l4.2,8.8
					l-10,8.5c1.7,5.7,3.7,15.1,3.7,15.1l4,48l-1,10.4c0,0,25.2-29.2,23.5-37.2c-2.2-10.5,1.5-22.7,4-29.2c0,0-12.2,4.5-13.3,0
					c-1.1-4.5,4.3-15.8,4.3-22.5c0-6.7-3.3-17.9,2.2-17.9C363.1,390.7,364.3,387.3,366.6,387.2z"/>
			</g>
		</g>
	</g>
	<text transform="matrix(1 0 0 1 518.8921 783.9502)" fill="#222222" font-family="'Helvetica-Bold'" font-size="44.2105">Saudi Arabia</text>
	<g>
		<text transform="matrix(1 0 0 1 130.9453 635.1602)" fill="#222222" font-family="'Helvetica-Bold'" font-size="44.2105">Egypt</text>
	</g>
	<g>
		<text transform="matrix(1 0 0 1 337.5767 147.8789)" fill="#222222" font-family="'Helvetica-Bold'" font-size="44.2105">Turkey</text>
	</g>
	<g>
		<text transform="matrix(1 0 0 1 308.5083 358.9326)" fill="#222222" font-family="'Helvetica-Bold'" font-size="44.2105">Israel</text>
	</g>
	<g>
		<text transform="matrix(1 0 0 1 717.856 494.8232)" fill="#222222" font-family="'Helvetica-Bold'" font-size="44.2105">Kuwait</text>
	</g>
	<g>
		<text transform="matrix(1 0 0 1 806.686 640.3516)" fill="#222222" font-family="'Helvetica-Bold'" font-size="44.2105">UAE</text>
	</g>
	<ellipse opacity="0.8" fill="#FF944C" cx="295.9" cy="128.9" rx="31.7" ry="30.9"/>
	<path opacity="0.8" fill="#FF944C" d="M713.5,484.9c0,17-14.2,30.9-31.7,30.9s-31.7-13.8-31.7-30.9c0-17,14.2-30.9,31.7-30.9
		S713.5,467.9,713.5,484.9z"/>
	<ellipse opacity="0.8" fill="#FF944C" cx="857.2" cy="685.6" rx="31.7" ry="30.9"/>
	<ellipse opacity="0.8" fill="#D63333" cx="350.4" cy="423.7" rx="31.7" ry="30.9"/>
	<ellipse opacity="0.8" fill="#1975D1" cx="639.9" cy="703.7" rx="31.7" ry="30.9"/>
	<ellipse opacity="0.8" fill="#4CB870" cx="193" cy="558.4" rx="31.7" ry="30.9"/>
	<line fill="none" stroke="#222222" stroke-width="3.15" x1="350.4" y1="365.3" x2="350.4" y2="419"/>
</g>
</svg>
