<?xml version="1.0" encoding="utf-8"?>
<!-- Generator: Adobe Illustrator 18.0.0, SVG Export Plug-In . SVG Version: 6.00 Build 0)  -->
<!DOCTYPE svg PUBLIC "-//W3C//DTD SVG 1.1//EN" "http://www.w3.org/Graphics/SVG/1.1/DTD/svg11.dtd">
<svg version="1.1" id="Layer_1" xmlns="http://www.w3.org/2000/svg" xmlns:xlink="http://www.w3.org/1999/xlink" x="0px" y="0px"
	 viewBox="0 0 1248 782.8" enable-background="new 0 0 1248 782.8" xml:space="preserve">
<g>
	<text transform="matrix(1 0 0 1 55.997 756.6835)"><tspan x="0" y="0" fill="#222222" font-family="'Helvetica'" font-size="36">Badoo </tspan><tspan x="114.1" y="0" fill="#222222" font-family="'Helvetica-Bold'" font-size="40">3</tspan></text>
	<g>
		<path fill="#FF944C" d="M41.1,742c0,10.5-8.5,19-19,19s-19-8.5-19-19c0-10.4,8.6-19,19-19S41.1,731.5,41.1,742z"/>
		
			<path fill="none" stroke="#FFFFFF" stroke-width="0.4997" stroke-linecap="round" stroke-linejoin="round" stroke-miterlimit="10" d="
			M41.1,742c0,10.5-8.5,19-19,19s-19-8.5-19-19c0-10.4,8.6-19,19-19S41.1,731.5,41.1,742z"/>
	</g>
	<g>
		<g>
			<defs>
				<rect id="SVGID_1_" x="0" y="0" width="1248" height="702"/>
			</defs>
			<clipPath id="SVGID_2_">
				<use xlink:href="#SVGID_1_"  overflow="visible"/>
			</clipPath>
			<g clip-path="url(#SVGID_2_)">
				
					<path fill="#EDEDED" stroke="#FFFFFF" stroke-width="2" stroke-linecap="round" stroke-linejoin="round" stroke-miterlimit="10" d="
					M656,689.6c0,0,5-2.5,5-6.7c0-4.2,4.1-0.8,4.1-5.9c0-5,0-3.4,2.5-5.9c2.5-2.5,1-3.9,5-5c9.1-2.5,2.5,4.2,7.5,6.7
					c5,2.5,6.2,0.6,12.8-0.3c6.6-0.8,36.1,9.5,36.1,9.5l4.2,26.9c-1.2,0,11.2-13.7,11.2-13.7l27-35l72.8-26.3l-0.7,7l21.3,38.6
					l12.2,11.8l-2.1,0.4c-9.5,1.7-17.4,1-24.1,7.6c-5.8,5.6,1.3,13.2,0,16.1h-6.4l-3.2,9.7H838v3.2c-15.9,11.8-37,11.9-54.1,22.6
					c-3.1,1.8-6.4,11.6-9.6,12.9c-14.4,5.4-16.7,0.5-22.3-3.2c-2.2,0.5-8.9,6.2-9.5,6.4c-6.1,1.5-13.2-2.1-19.1,0
					c-11.8,4-17.3,18-31.8,19.3c-29.8,2.4-20.1-8.6-25.5-29c-0.9-3.2-8-7.3-9.5-9.7c0,0,0.6-8.5,3.2-3.2
					c-2.8-10.7-4.9-39.5-6.4-38.7v-6.4c0-0.6,0.9-3,1.7-6.1L656,689.6z M885.8,792.7c-8.6,0.7,9.5,6.4,9.5,6.4
					S899.9,791.3,885.8,792.7z"/>
				
					<path fill="#EDEDED" stroke="#FFFFFF" stroke-width="2" stroke-linecap="round" stroke-linejoin="round" stroke-miterlimit="10" d="
					M1168.5,134.1c0,0,4.3-8.1,4.3-11.4c0-3.4,5.3-3.4,8.6-7.6c3.3-4.2,3.3-7.6-1.7-10.1c-5-2.5,0-9.2,2.5-14.3
					c2.5-5-5-1.7-10.8-1.7c-5.8,0-4.2-1.7-9.9-7.6c-5.8-5.9-2.1-9.9,2.5-11.7c4.1-1.7,11.3-1.6,10.5,1.7c-1.3,5.5,9.1-6.7,13.3-7.6
					c4.1-0.8,5-10.1,2.5-5.9c-2.5,4.2-0.8-11.8,4.2-11.8c5,0,4.4-6.8,4.4-6.8s-6.1-5.8-6.1-10c0-4.2,9.1-4.2,9.1-4.2
					s2.5,2.5,7.5,4.2c5,1.7,6.9-5.1,6.9-5.1c2.5-7.6,7.2-9.2,7.2-9.2l5.8,12.6l-9.7,6.7v5l5.8,4.2c0,0,4.2,0,5,4.2
					c0.8,4.2,7.3,4.1,5.8-3.4c-0.8-4.2,5-2.5,5-2.5s2.5,1.7,10,1.7c7.5,0,13.3-14.3,18.2-19.3c5-5,0,0-7.5-5c-7.4-5-6.6-5-14.1-5
					c-7.5,0-5-0.8-4.1-5.9c0.8-5-3.3-4.2-8.3-0.8c-5,3.4-4.4-5.8-11.9-6.7c-7.5-0.8,2.8-2.6,6.9-5.1c4.2-2.5,2.5-2.5,8.3-7.5
					c5.8-5.1-1.7-9.2-1.7-9.2s-4.2,0-9.1,3.4c-5,3.4-6.8,1.9-11.9,3.4c-5.8,1.7-10.8,0-12.4,5c-1.7,5-7.2,3.3-11.4,5
					c-4.2,1.7-6.6,14.3-6.6,14.3s-7.5,1.7-12.4,1.7l-0.8,8.4c0,0-4.2,2.5-7.5,2.5c-3.3,0,1.6-5.9-0.9-11.8
					c-1.6-3.9-12.4-6.7-15.8-4.2c-3.3,2.5-14.9-0.8-19.1-3.4c-4.1-2.5,0-5,0-9.2c0-4.2-4.1,0-4.1-5c0-5-2.5-5-7.5-4.2
					c-5,0.8-8.3-0.8-10.8-4.2c-2.5-3.3-7.5-11.8-7.5-11.8l-3.3,5c0,0-17.4-2.5-24.9-5c-7.4-2.5-21.5-0.8-21.5-0.8
					s-2.5-19.3-2.5-23.5c0-4.2-4.2-12.6-4.2-12.6l-1.2-0.9l-3.1,1.1v6.5c-0.4,1-5.3,2.1-6.4,3.2c-3,2.5-1.6,4.8-3.2,9.7
					c-7.6,1.1-7.6,0.5-19.1,3.2c-3.5-6.4,0.7-7-6.4-9.7c-1.2,4.8-0.3,13.9-3.2,16.1c-9.1,6.7-4.7-9.7-3.2-19.3
					c-9.9,2.8-13.6,3.3-22.3,6.5c-1.7-23.2-1.2-38.8,5.3-55.2l1.1-3.4c-2.6-0.3-6.7-0.8-9.7-1.4c-5-0.8-11.6,3.4-16.6,3.4
					c-5,0-21.6,9.2-21.6,9.2l-2.5,99.9l20.7,2.5l0.8-5l-5-4.2l-0.8-8.4l5-4.2l10.8,0.8l5-7.5l6.6-7.6l5,2.5l5.8,1.7l3.3,11.7
					l4.1,15.1l10,4.2l2.5,10.9l-4.1,5l4.1,4.2l7.5,2.5l10-5l5-4.2l12.4,0.8l9.1-1.7l9.1,11.8l-1.6,10.9l6.6,6.7l5.8,6.7l4.1,10.9
					l6.6,5.9l7.4,5l9.1,9.2l6.6,7.6l11.6-2.5l7.5,6.7h9.1l6.6,5l8.3,0.8l3.3,3.4l-11.6,6.7l-0.8,6.7v10.1l8.3,2.5l7.5,6.7l9.9-0.8
					L1168.5,134.1z"/>
				
					<path fill="#EDEDED" stroke="#FFFFFF" stroke-width="2" stroke-linecap="round" stroke-linejoin="round" stroke-miterlimit="10" d="
					M860.7-8.6c-0.2,5.1-0.1,10-0.4,14.9h6.4c0.5-0.4,0-9.1,0-9.7c4.2-0.5,4.6-6,6.4-6.4c7.4-1.9,6.7,4,15.9,3.2v6.5
					c6.1,4.8,11,13,15.9,19.3c5-4.4-2.9,9-3.2,9.7h-6.4c0.2,0.5,4.2,6.1,3.2,6.4c-29.1,7-26.4-30.1-35,3.2c1.7,1.5,0,16.5,0,19.3
					c1.6-0.6,6.2-6.2,9.5-3.2c-0.6-0.1,11.4-2.8,15.9-3.2c-4.6,2.4-15.6,4.8-9.6,9.7c1.4,1.1-2.5,6.2,3.2,3.2
					c0.7,1.9,4.4,10.6,0,12.9c0,0,20,11.9,9.6,19.3h-6.4c1.2,10.5,1.4,19.1,1.2,27.9l13,0.7l3.7-8.5l1.6-4.2l4.2-5l5.4-5l11.6,0.8
					l8.3-2.5l10.8-4.2l22.7,5l14.1,2.5l5,1.7l14.9,7.5l13.8,6l11.6,7.6l6.9,4.9l4.7,6.8l4.1,9.2l11.6,2.5v10.1l2.8,9.1l-4.1,10.1
					l9.1,2.5l5-3.4l8.3,3.4l16.6-10.1l-2.5-9.2l11.6-11.8l3.3-8.4v-12.6l4.1-5l3.3-5.9l7.5,2.5l6.6,4.2l10,0.8v-10.1l0.8-6.7
					l11.6-6.7l-3.3-3.4l-8.3-0.8l-6.6-5h-9.1l-7.5-6.7l-11.6,2.5l-6.6-7.6l-9.1-9.2l-7.4-5l-6.6-5.9l-4.1-10.9l-5.8-6.7l-6.6-6.7
					l1.6-10.9l-9.1-11.8l-9.1,1.7l-12.4-0.8l-5,4.2l-10,5l-7.5-2.5l-4.1-4.2l4.1-5l-2.5-10.9l-10-4.2l-4.1-15.1l-3.3-11.7l-5.8-1.7
					l-5-2.5l-6.6,7.6l-5,7.5l-10.8-0.8l-5,4.2l0.8,8.4l5,4.2l-0.8,5l-21.1-2.5c0,0-14.9,0.8-19.1-0.8c-4.1-1.7-8.8-24.4-29.5-21.9
					c-7.4,0.9-11.9,0.4-18.9,10.9L860.7-8.6z M869.8,67.5c-4.7,1.6-4,5.5,3.2,6.4C872.6,73.9,881.3,63.4,869.8,67.5z"/>
				
					<path fill="#EDEDED" stroke="#FFFFFF" stroke-width="2" stroke-linecap="round" stroke-linejoin="round" stroke-miterlimit="10" d="
					M4.9,240.9c0-1.1-0.9-2.6-0.9-2.6c-1.8-1.4-5,2.4-6.4,3.2c-3.1-2.5-6-8-9.5-9.7c1.5-7-4-9.5-3.2-12.9c0.4-2.2,8.1-4.2,9.6-6.4
					c2-3.2,6.4-32.2,6.4-32.2c-1.4-0.4-8.6,0.9-9.5,0c-1.9-1.6,1.1-10.6,0-12.9c5.4-8.2,10.6-16.2,15.9-25.8H0.9
					c-0.5,0-7,5.1-12.7,3.2c-0.2-0.1,0-9.3,0-9.7c-2.7-0.5-9.6-3.2-9.6-3.2c-5.2-0.6-18.3,9-22.3,9.7c-7.8,1.3-15.9-0.6-21.4-3.3
					c0,0-2.3,16.2,1.9,18.7c4.2,2.5,2.5,6.7,2.5,12.6c0,5.9,4.1,13.4,5,21c0.8,7.5-5.8,5.9-5.8,10.9c0,5-5,12.6-9.9,13.4
					c-5,0.9-7.5-0.8-7.5,5.9c0,6.7,4.1,23.5,4.1,23.5s5.8-1.7,8.3,3.4c2.5,5,5,18.5,5,18.5l11.6,3.4l7.5,47.8
					c3.8-0.5,11.6-4.2,12.4-9.2c0.8-5,5.8-4.2,4.2-10.9c-1.7-6.7-0.8-18.5-0.8-18.5s4.1-4.2,9.1-4.2c5,0,7.5-6.7,14.1-10.1
					c6.6-3.4,3.3-12.6,3.3-12.6L4.9,240.9z"/>
				
					<path fill="#EDEDED" stroke="#FFFFFF" stroke-width="2" stroke-linecap="round" stroke-linejoin="round" stroke-miterlimit="10" d="
					M1280.6,67.2c0.8,5,1.1,10.9,1.1,10.9l-0.8,6.7l5.8,5.9l14.1-5.9l3.3,3.4l-1.6,5.9l-2.5,10.1l5,10.9l0.8,10.9l5,4.2l0.8,6.7
					l-7.5,2.5l-14.9,2.5l-15.8-4.2l-7.5,1.7l-14.1,7.6l-7.7,1.8l-4.1,8.4l-10.8,7.6l-10,3.4l-9.9-10.1l3.6-13.5l5-8.4l-5.8-6.7
					l-4.1-7.6l-6.6-2.5l-5,5l-5,5l-8.3,4.2l-7.5-0.8l-6.9,0.9c0,0,4.1-7.6,4.1-10.9c0-3.4,5.3-3.4,8.6-7.6c3.3-4.2,3.3-7.6-1.7-10.1
					c-5-2.5,0-9.2,2.5-14.3c2.5-5-5-1.7-10.8-1.7c-5.8,0-4.2-1.7-9.9-7.6c-5.8-5.9-2.1-9.9,2.5-11.7c4.1-1.7,11.3-1.6,10.5,1.7
					c-1.3,5.5,9.1-6.7,13.3-7.6c4.1-0.8,5-10.1,2.5-5.9c-2.5,4.2-0.8-11.8,4.2-11.8c5,0,4.4-6.8,4.4-6.8s-6.1-5.8-6.1-10
					c0-4.2,9.1-4.2,9.1-4.2s2.5,2.5,7.5,4.2c5,1.7,6.9-5.1,6.9-5.1c2.5-7.6,7.2-9.2,7.2-9.2l5.8,12.6l-9.7,6.7v5l5.8,4.2L1222,52
					l-7.5-4.2l-11.6,4.2l5.8,9.2l14.1-0.8c0,0,1.6,6.7,6.6,5.9c5-0.8,10.5-5.8,13-0.8c2.5,5,9.4,3.3,9.4,3.3s7.2,1.8,12.2-0.8
					C1269,65.6,1274.8,64.7,1280.6,67.2z"/>
				
					<path fill="#EDEDED" stroke="#FFFFFF" stroke-width="2" stroke-linecap="round" stroke-linejoin="round" stroke-miterlimit="10" d="
					M516.4,214.1c0,0,6.6-12.6,9.9-10.1c3.3,2.5,14.4-4.1,13.6,1.8c-0.8,5.9-5,14.3-10,20.2c-1.5,1.8-0.4,10.8-2.5,14.3
					c-2.1,3.4-4.9,2-6.6,5c-2.2,3.9-3.1,6.8-3.1,6.8l-3,1.4c0,0,0.4,12,0.2,16.8c0.4-0.1,1,0.1,1.6,0.4c0.3,0.2,0.5,0.3,0.7,0.6
					c0,0,9.5-7.4,12.8-4c3.3,3.4,17.1,4.1,17.1,4.1l31.5-23.5l43.3-34c0,0,2.4-2.3,3.9-7c1.6-4.6,1.6-6.2,4.7-12.4
					c3.2-6.2,2.4-3.1,0-10.8c-2.4-7.7,3.2-7.7,3.9-13.1c0.8-5.4-1.6-3.9-1.6-10.8c0-7,5.5-8.5,10.2-12.4c4.7-3.9,4.7-13.9,4.7-13.9
					c-2.7-0.2-5.1-1.2-5.1-1.2l0.1-1.1l-1.6-5.4c-4-0.7-13.6,4.6-18.3,8.6c-4.8,4-24.1,0.5-27.1,3.4c-10.3,10.1-23.1,6-27.9,9.4
					c-4.8,3.4-9.6-0.7-13.5-0.7c-4,0-5.6,2.7-8.8,5.4c-3.2,2.7-6.4-4-10.4-0.7c-4,3.4-0.8,6.7,0,10.1c0.8,3.4,0.8,6.7-5.6,6
					c-6.4-0.7-0.8,6.7-8,8.7c-7.2,2-8.4-0.4-8.4-0.4l-3,0.2c1.2,4,2.3,7.8,3,14.2c0.8,7.9-3.7,12.2-3.2,16.1
					c0.1,0.8,6.5,1.8,6.3,4.7V214.1z"/>
				
					<path fill="#EDEDED" stroke="#FFFFFF" stroke-width="2" stroke-linecap="round" stroke-linejoin="round" stroke-miterlimit="10" d="
					M269.7,912.5l4-2.5c0,0,1.1-1.4,2.4-1.4c1.3,0,1-1.4,1.5-2.2c0.6-0.8,0.7-1.6,0.1-3.1c-0.6-1.5-0.6-2.3-0.2-4.1
					c0.4-1.7,0.1-2.1,1.1-3.5c1-1.4-0.2-2.1,0.2-2.9c0.4-0.8,1-1.8,2.2-3.1c1.3-1.4,0.2-1.7,0.2-3.1c0-1.3-0.1-4.6-0.1-4.6l2.4-2.8
					c0,0,1.4-0.6,2.1-2.4c0.7-1.8,1.4-1.6,1.5-3.3c0.1-1.7-0.5-1.3-0.2-2.5c0.3-1.2,0.8-1.8,1.2-3.3c0.4-1.6,0.5-1.4,1.7-1.4
					c1.2,0,0.7-0.8,1.6-0.4c0.9,0.4,0.7,1.3,1.6,0.5c0.8-0.8,1.9-0.6,1.9-0.6s1.1-0.6,2.2,0c1,0.6,1.3,0,2.1-1.4
					c0.8-1.4,1.1-0.2,2.3,0.3c1.2,0.6,1-0.8,2-1.2c1-0.4,1.6,1.3,1.6,1.3l0.1,5.8c1.4,0.3,2.6,1.7,3.4,3.8c0.8,2.1,2.7,3.8,2.7,3.8
					s0.7,3.3,1.3,5c0.6,1.7,1.4,4.2,2.4,4.8c1,0.6,6.8,2.2,6.8,2.2s2-1.2,3.3-2c1.3-0.8,4.3-1.8,4.3-1.8l16.2,0.2l2.8,7.3l14.8-0.2
					c0,0,0-0.6-0.3-1.5c-0.3-1,1.1-2.1,1.1-2.1l5.8-7.9l9.2-0.2l-0.2-9.3l8.8-6.2c0,0,15.5,13.3,16.1,13.9c0.6,0.6,1.1,2.1,1.8,1.9
					c0.7-0.2,1.4-1,1.4-1l8.4-0.8l10.4-17.8l2.7-7.2l3.4-2.8l6.3-8.3l-2.4-4.2l-0.3-14.1l-5.6-6.6l12.9-0.3c0,0,0.2-3.3-0.4-4
					c-0.6-0.8-0.2-1.9-0.2-1.9l0.1-2.1l11.6-0.3c0,0-0.3,1-0.8,2.1c-0.5,1.2-0.8,3.1-0.9,5.4c-0.1,2.3-0.7,6.2-0.7,6.2
					s-0.7,1.6-0.9,3.5c-0.2,1.9,0.7,3.8,1.3,5.8c0.6,1.9,0.8,4.4,0.9,6.3c0,1.9,0.9,6.9,0.9,6.9s0.7,1.3,0.2,2.3
					c-0.5,1-0.8,2.9-0.8,2.9s1.7,0.9,2.9,1.5c1.1,0.5,2.9-0.3,2.9-0.3s2.7,5,3.7,6.5c1,1.5,2.5,2.3,3.2,3.6c0.7,1.3,2.1,4.2,2.1,4.2
					l1.3-0.2l0.3,2.1c0,0-1.5,1.4-1.4,3.7c0.1,2.3-0.4,2.9-0.8,4.6c-0.4,1.8,0.4,2.9,0.5,4.5c0,1.6,0.8,3.7,0.8,3.7l1,0l0.7,0.1
					l-0.2-6c-0.8-5,9.6-17.9,9.6-25.5c0-7.5,0.8-14.3,0.8-14.3s5-4.2,9.1-5.9c4.1-1.7,6.6-3.4,8.3-7.6c1.6-4.2,3.3-8.4,5.8-13.4
					c2.5-5,6.6-10.9,6.6-19.3c0-8.4,8.3-13.4,10.8-19.3c2.5-5.9,10.8-16.8,10.8-16.8s0.8-21-0.8-24.4c-1.7-3.3,0-10.1,1.7-17.6
					c1.7-7.6,5.8-10.1,5.8-18.5c0-8.4-0.8-9.2,0.8-16.8c1.7-7.6-1.7-10.1,2.5-10.1c4.1,0,2.5-5,5-9.2c2.5-4.2,11.7-9.1,11.7-9.1
					l11.6,1.7l8.8-10.5l-1.3-2.5h-6.4c-1.4-0.5-28.2-30.2-28.7-32.2c-5.6-23,5.8-36.2,0-58l-6.4-3.2c-2.1-5.4,2.1-10.8,0-16.1
					c-0.7-1.6-20.1-12.4-22.3-16.1l-1.6-2.3l-12,4.8l-7.5,0.8l-5,14.3l-7.5,1.7l-2.5,13.4l-7.4,1.7l-2.5-4.2h-19.1l-1.7-5l-5.8,4.2
					L293,544.1l0.3,49.5h-19.9v19.3v98.2c0,0-10.8,2.5-14.9,0c-4.1-2.5-7.5-4.2-9.9,1.7c-2.5,5.9-6.6,8.4-4.1,13.4
					c2.5,5,0,7.6-5,10.9c-5,3.4-3.3,4.2-3.3,9.2c0,5,0,11.8-5,16c-5,4.2-5,0.8-5,7.5c0,6.7-1.7,7.6-5.8,10.1
					c-4.1,2.5-2.5,4.2-2.5,8.4c0,4.2,5.8,0.8,10,0.8c4.1,0,5.8,1.7,8.3,5.9c2.5,4.2-5,7.6-4.2,12.6c0.8,5,0.8,5,0.8,5s2.5,3.4,0,9.2
					c-2.5,5.9-0.8,5.9,3.3,10.1c4.1,4.2,1.7,8.4,1.7,8.4l13.3,12.6c0,0,0.8,9.2-0.8,14.3c-1.7,5-4.1,5,2.5,10.1
					c6.6,5,7.5,5.9,5,13.4c-2.5,7.6,6.6,17.6,9.9,19.3L269.7,912.5z"/>
				
					<path fill="#EDEDED" stroke="#FFFFFF" stroke-width="2" stroke-linecap="round" stroke-linejoin="round" stroke-miterlimit="10" d="
					M151.7-12.5c0.7,0.6,17.2,7.6,17.2,7.6l0.9-4.3l12.4-7.6l3.3,8.4l5-5l9.1,9.2l2.4,9.1l10.8-9.1l10,1.7l6.6-8.4l21.5-7.5
					c-1.3-2.6-2-5.2-1.6-7.6c0.8-5,9.1-12.6,6.6-16.8c-2.5-4.2-14.1-9.2-10.8-12.6c3.3-3.4,1.7-5,6.7-8.4c5-3.4,8.3-10.9,8.3-10.9
					s-7.5-1.7-10.8-5c-3.3-3.4-4.2-7.6,2.5-7.6c4.4,0,7.5-0.8,1.7-4.2c-5.8-3.4-11.6-6.7-14.1-3.4c-2.5,3.4-3.3,9.2-7.5,3.4
					c-4.1-5.9-3.3-5-8.3-5c-5,0-3.3-2.5-2.5-7.6c0.8-5-10.4-16-10.4-16c-3.1,0-6.9,0-10.3,0c-7.5,0-12.4,1.7-14.9,6.7
					c-1.3,2.7-5.8,4.4-9.6,5.5c0,0-6.6,8.8-2.6,11.3c7.5,4.8,2,9.6-0.3,11.2c0,0-1.7,5.5-1.3,8.3c0.6,4.6,7.9,5.7,6.3,10
					c-1.4,3.7-7.4,0.9-9,4.5c-2.2,5.3,12.8,4.6,10.7,10c-1.6,4-6.7,1.7-9.9,4.5c-2.8,2.5-2.5,5.7-5.4,8.2c-2.7,2.2-5.5,1.3-8,3.6
					c-5.9,5.3,2.7,13.7-1.8,20.3C153.7-14.4,152.8-13.6,151.7-12.5z"/>
				<g>
					
						<path fill="#EDEDED" stroke="#FFFFFF" stroke-width="2" stroke-linecap="round" stroke-linejoin="round" stroke-miterlimit="10" d="
						M3664.5-802.7c-9.7-7-16-25.7-28.7-29c-9.5-2.5-25.3,0-35,0c1.7,1.1-6.4,6.4-6.4,6.4c5.9,1,2.2,4.2,3.2,9.7
						c10.1,1.3-7.4-0.3-9.6,0c15.8,0-9.5-38.7-9.5-38.7c-1.8,0.8-4.2,4.3-6.4,3.2c-1.4-0.7-6.4-9.7-6.4-9.7c-5-2-14.8,2.7-19.1,0
						c-1.4-0.9,0.6-8.1,0-9.7c-1.3-3.3-5.8-1.9-9.6-3.2v-6.4c-5.6-3.3-10.5,0.7-15.9-3.2c-5.8-4.1-8.4-16.7-15.9-19.3
						c-3.4-1.2-9.7,1.8-12.7,0c-2.4-1.5-19.3-16.4-22.3-19.3c-2.5-2.4-0.1-7.8-3.2-9.7c-17.2-10.7-27.2,0.8-31.8,0
						c-9.7-1.8-10.1-12.5-15.9-16.1c-6.4-3.9-11.5,0.2-19.1-3.2c-1.8-0.8-4.8-9.5-6.4-9.7c-14.7-2.7-40.6,4.1-54.1,3.2l-3.2-6.5
						c-6.1,0.4-17.9,5.9-28.6,3.2c-1.2-0.3-6.5-7.6-9.5-6.4l-3.2,19.3c0.8,4.1,9.4,7.4,12.7,9.7c-0.6,1-4.6,5.1-3.2,6.4l3.2,9.7
						c-6.5,1.7-3.2-1.6-6.4,3.2c-2.7,3.8-6.2,7.9-9.6,12.9c-3.1-1.1-8.2-3.7-9.5-3.2c-0.1,0-2.9,5.6-3.2,6.5c-4.9,0-11.1-1.2-15.9,0
						c-2.8-8.8-0.1-14.9-3.2-22.6l-9.6-3.2c3.4,0,0.5-13.4,0-16.1c-7,3.8-17.4,12-25.5,12.9c-10.3,1-10.4-6.2-6.4-6.4
						c-10.6-1.6-20-6.3-31.8-3.2c-1.2,0.2-6.7,6.7-9.5,6.4c-2.5-0.3-2.2-6.7-3.2-9.7c-43.6,0-66.7-3.6-73.2,35.4
						c-2.8-8.5-6.9-18.7-9.6-29c-7.8-2-7.6,0.7-12.7-3.2c0.5-3.1,5.8-12.6,0-16.1c5.1-1.4,5.2,2.6,6.3-3.2
						c-7.2-5.7-11.5-7.2-19.1-12.9c-1.7-1.3-1.9-9-3.2-9.7c-6.5-3.7-12.2-0.5-19.1-3.2l-6.4-6.4c-0.1-0.1-27,9.4-31.8,9.7
						c-4.2,0.1-4.9-6.1-6.4-6.4c-4.2-0.9-20.7-0.9-28.6,0l-9.6,6.4c-12.6,2.5-16.9-4.3-28.6-3.2l-6.4,6.4c-27.8,7.6-67.6,0.9-82.8,0
						c2.9-0.5,5.6-6.3,6.4-6.4c3.2-0.7,5.9,5.2,12.7,3.2c2.5-0.8,20.6-19.7,22.3-22.6c14.7-25.4-12.7,3.2-12.7,3.2v3.2
						c-2.5,0.9-7.2-1.6-9.5,0c-4.3-2.7-5.6-3.7-12.7-6.5c0.4-1.7-2.3-10,3.2-6.4c0,0,2.3-1,12.7,3.2c0.1-0.4,5.5-15.4,6.4-16.1
						c-9.2-4.4-26.6-15-38.2-16.1c-1.9-0.2-10.1,2.2-6.4,3.2c-8.9,1.3-16.9-4.9-25.5,3.2c-0.9,0.8,0.2,8.5,0,9.7
						c-2.5,10.1-11.4,23.3-22.3,25.8c-24.9,5.4-7.3-6.4-3.2-9.7c1.5-1.3-6.4-6.4-6.4-6.4c4.3-3.5,12.1-11.1,15.9-12.9v-3.2
						c2.1,4.4,3,7.7,9.5,9.7c-3.6-1.3,3.2-12.9,3.2-12.9c-17.8,0-29.8,1-44.6,3.2c0,0-2.5-9.8-3.2-12.9c12.8-0.1,39.5,1.8,12.7-6.4
						c-22.5-7.1-53-0.4-73.2-9.7c-1.4-0.7-5.2-9.3-6.4-9.7c-3.6-1.3-9.4,1.5-12.7,0v6.4c11.2-1,4.8,6.1,9.5,9.7
						c-13,0.4-12.7-1-22.3,0l-3.2,9.7c7.7-2.6,15.1,8.6,0,6.5c-0.3,1.4-4.7,16.9,0,12.9c2,7.8,5,9.4,6.4,12.9c0,0,3.2,7.9-12.7,9.7
						l-3.2-3.2c4.8,4-6.1,3.1-6.4,3.2c0-1,0.4-12.9,0-12.9c-26.5-5,2.5,24.9-28.7,22.6c-7.4-0.6-17.1-13.4-22.3-16.1
						c-8.1-4.3-13.7-3.1-22.3-6.4c-1.9-0.8-1.4-5.7-3.2-6.4c-2-0.8-7.8-0.3-9.6,0c-2.3,0.3-10.5,11.6-12.7,12.9
						c-6.8,3.6-14.9,3.6-22.3,6.5c-1.4-8.9,5.9-6,3.2-16.1h-6.4c-2.7-6.4-3.6-8.5-6.4-12.9c-4.3,14.5-8.9,55.6-22.3,61.2
						c-13.7,5.6-5.1-12.1-6.3-12.9c6,1.3,2.2-3.1,3.2-6.4c-4.8-1.5-2.4,4.4-9.6,3.2c-2-0.4-8.5-9.4-9.5-9.7c-3.6-1.3-9.4,1.4-12.7,0
						c4.7,6.3-11-10.6-12.7-12.9c-2.6,0.8-5,5.6-9.6,3.2c0-0.5,0.1-9.7,0-9.7c2.5-0.3,7,0.9,9.6,0c3.9-1.5-3.2-6.4-3.2-6.4
						c7.3-3.2-10.7,4.2-12.7,3.2c-1.6-0.8-1.9-11.8-3.2-12.9c-7.5-6.4-17.6-7.5-25.5-12.9l-3.2,16.1c-8.3-5.8-3.2-7.4-3.2-16.1v-6.4
						c-6-1.5-4.6,6-6.4,9.7c-2.7,0-10.4-1.3-12.7,0c5.6,0,12.1-14.1,0-12.9c-10.6,1-8,2.6-15.9,6.4c-0.5-0.9-10.3-12.7-3.2-9.7
						c-8.2-3.1,3.2-3.2,3.2-3.2c-6.9-1.6-15.4-1-6.4-6.4v-6.4c6.7-2.4,15.8-2.2,22.3-6.4c5.9-4,8.1-13.5,12.7-19.3
						c-10.5-3.3-14.9-2.4-22.3-6.4c-4-2.2-10.7-12-15.9-12.9c-12.1-2.2-19.2,3.5-25.5,6.4c-3.7,1.6-5.9-1.5-9.6,0
						c-0.9,0.3-4.1,13.1-3.2,12.9c0,0,4.2,6.6,9.6,9.7v6.4c6.7,3.1,16.5,1.6,22.3,3.2c-2.3,1.2,2,10.6-6.4,6.4l3.2,6.4
						c3.4,6.4-3.4,0.7-12.7,0l3.2,9.7c-19.8,2.5-29.6-10.7-44.5-12.9c-17.5-2.7-21.8,5.8-38.2,3.2l-3.2-6.4
						c-4.5-1.1-12-0.6-22.3-3.2c2.8-0.7-6.4-6.5-6.4-6.5c1.3-4,4.4-3.5,3.2-9.7c6.9,5-3.2-12.9-3.2-12.9c-6.4-0.1-20.8,3.9-31.8,3.2
						l-3.2-6.4c-3.4-0.8-5.9,4.1-12.7,3.2l-9.5-6.4c-11.9,0-42.1,19.1-44.6,25.8c-0.8,1.9,1.4,8.5,0,9.7c-5.6,4.4-3.8-22.3-3.2-25.8
						c-6.8,4.9-4.5-5.5-9.5-3.2c-0.6,0.2,0,11.8,0,12.9c-26.7-3.2-25.1,0.7-34.6-18.4c-0.1,2.3-3.6,8.8-3.6,8.8
						c-1.3,0.1-10.2-5-12.7-6.4c-5.6,10.2-18.8,20.8,0,25.8c-1,1.8-4.4,4-3.2,6.5c-9.1-3.1-9.6-3.6-15.9-6.5c-1.2,2,5.7,8.7,0,12.9
						c-12.6,9.3-29.7,1.1-47.7,6.4l-3.2,9.7c-12.2,1.6-22.7,2.5-38.2,3.2c6.7-1.4,29.2-4.7,35-9.7c1.4-1.3,1.6-12,3.2-12.9
						c6-3.8,12.2-1,19.1-3.2c21.2-7.3,31.6-25.9,38.2-48.4c32.8-6.9,64.3-15.1,92.3-25.8c-3-5.5,0.8-12.2-3.2-16.1h-3.2
						c-3.5-1.8-21.6-17.4,0-9.7c-4.4,3,5.9-3.1,6.4-3.2c0-0.8-0.7-9.3,0-9.7c-2.2-3.1-11.8-7.3-12.7-9.7c-1-2.2,1.6-11.6,0-12.9
						c-4.6-3.8-14.4,0.7-19.1-3.2c-5.2-4.2-7.1-15.8-9.5-22.6c-8,0.7-3.8-3.4-9.5-3.2c-4.9,0.1-17.8,9.4-22.3,9.7l-3.2-6.4
						c-10.3,1.7-15.7,0.1-25.5,3.2c-11.8,3.6-19.6,18.3-22.3,19.3c-4.6,1.6-11.5-1.7-15.9,0c2.5-6.3,6.7-15.8,9.5-22.6
						c-17.8-4.8-24.6-5.5-41.4-6.5c3-6.1,5.1-11.8,9.5-16.1c-10.4-4.8-26.4-14.8-41.4-12.9l-3.2,9.7c-37.4-2.3-23.4,2.2-47.7,16.1
						v6.4c-3.4,2.2-8.2-0.6-9.5,3.2c-1.4,3.4,2,6.6,0,9.7c4.6,4.3,8.7,7.6,12.7,12.9c-20.2-5.6-29.7-5.2-50.9-6.4l3.2,9.7l3.2,3.2
						c-9,1.2-13.7-0.9-19.1,3.2c-0.7,0.4,0,8.9,0,9.7c-5.2,2-14.3,8.4-19.1,9.7c-6,1.4-2.4-3.2-3.2-6.4c-6.8,2.9-5.9,4.1-15.9,6.4
						l-6.4,6.4c-7.9,1.2-0.7-9.2,0-9.7c8.5-7.7,23.3-10.2,6.4-19.3c2.1-1,7.5,0,9.6,0c0,0,2.2-7.1,3.2-9.7h-25.5
						c0.6,0.4,0,8.9,0,9.7c1.8,0,7.7-1.1,9.6,0c-0.6,1-4.7,5.2-3.2,6.4c-14.9-0.5-28.3,1.2-44.6,0c-0.4-0.1-4.1-5-9.5-3.2
						c-0.6,0.1,0,9.1,0,9.7c-22.4,2.1-29.3,7.5-50.9,9.7c-13.7,1.3-19.7-4.3-25.5-3.2c-3.2,0.5-11.4,9.3-12.7,9.7
						c-9.2,2.3-22.5,0-31.8,0c7.4,4,14.6,14.4,0,16.1c-0.8,7.7-2,12.4-3.2,16.1c-0.9-0.4-6.4-9.7-6.4-9.7c-5.2-1.9-18.5,4-12.7,6.4
						c16.9,7.1,4.8,3.6,12.7,9.7c-5.2,2-9.1,2.3-12.7,3.2c9.5,12.7,14.9,22.7,22.3,38.7c-4.8-0.8-11.2,0.7-15.9,0
						c0,0,10.5-11.6-3.2-12.9v-3.2c-8.9-1.7-22.3,6.2-28.6,6.4c-8.5,0.2-12.5-6.2-15.9-6.4l-57.3,9.7c-0.7,0.3-8.9,5.4-9.5,6.4
						c-11.6,18.8-8.1,57.3,12.7,61.2c5.9,1,10.8-4.1,12.7-3.2c3.4,1.4,6.3,10.7,9.6,12.9c4.9,3.3,11.2,3.7,15.9,6.5
						c-4.8,14.7-4.4,19.7-6.4,38.7c5.1,2.9,2,2.9,3.2,9.7c6.8-3.2,0.7,9.3,0,9.7c-3.5,1.4-9.4-1.8-12.7,0c0,0.4,0.1,9.6,0,9.7
						c3.4,2.1,17.5,12.6,19.1,12.9c10.1,1.5,8.8-5.8,12.7-6.4c11.5-2.1,12.8,3.7,22.3,6.4l3.2,16.1h-6.3l-3.2-12.9
						c-12.5,0.3-26.1-0.8-44.6,0c-1.7-2.9-1-9.2-3.2-12.9c0,0-20.3-13.8-12.7-6.4c0,0-10.7-0.1-3.2,3.2l-3.2,3.2h-6.4
						c7.2-28.7,9.6-47.2,25.5-67.7c-7.6-0.6-27.6-5.9-35-6.4l3.2,6.4h-6.4c-1.3-1.8-9-18.9-9.6-19.3c-4.3-3-1.3,3.5-6.3,3.2
						l-6.4-6.4c-15.1-5.9-23.8-7-38.2,0c-8,3.8-14,11.6,3.2,9.7c0.5,1.1,2.4,6,3.2,6.4c-7,3.6-2.7,2.5-6.4,9.7
						c-0.5-0.1-14.6-0.1-9.5-3.2c-2.4-1.2-8.7-6.2-9.5-6.4c-5.9-1.4-12.8,0-12.8,0c-0.6,1.8-7.9,12.1-9.5,16.1c1,0,8.6-0.7,9.5,0
						c5.9,4.8,12.6,7.7,19.1,12.9c16,13-6.1,12.9-19.1,12.9c0.2-0.1-3.7-6.4-6.4-6.4c-2.5-0.2-10.6,7.3-15.9,6.4
						c-2.3-0.4-8.2-9.3-9.6-9.7c0.1,0.4,1.2-11.8,0-16.1l-6.4-6.4c-2.8-10.9,7.1-29.6,3.2-41.9l-12.8-9.7c1.1,10,6.9,27.5,3.2,41.9
						c-2.2,8.2-12.6,10.4-15.9,16.1c-3.7,6.1-0.3,8.6-3.2,16.1c0,0-4.8,7.2-6.4,6.4c0,0,15.6,18.2,15.9,19.3
						c2.3,11.8-5.9,13.7-6.4,19.3c-1.1,10,3.3,22.1,6.4,32.2c6.6-1.5,13.8-0.6,22.3-3.2c3.1-1,9.7-9.4,12.7-9.7
						c2.5-0.4,11.3,6,12.7,6.4c7.4,1.7-1.3-3.8,6.4-3.2c17.8,1.1,27.6,29.2,35,41.9c-1.6,1.4-12.3,8.5-12.7,9.7
						c-1.5,3.3,1.8,9.7,0,12.9c2.7,2.1,5.6,1.8,6.4,6.4c12.2,3.6,18.7,2.9,31.8,6.5c-1.1,0,2.9,5.9,3.2,6.4
						c-17.5-3.3-22.9-1.7-38.2-6.4c0,0.4,0.1,9.6,0,9.7c-2.6,0.9-7.8-5.8-6.4-6.5l-9.6-3.2c4-37,1.7-39.7-9.5-67.7
						c-15.8,5.2-45.1,9.3-47.7,25.8c-0.3,1.2,1.4,11.2,3.2,6.5c4.7,3.9,0,12.9,0,12.9c-7.2,48.3-12,38-47.8,54.8
						c1.8,4.5,8.2,2.9,9.6,6.5c2.2,5.7,2.6,19.3,3.2,22.6c-1.2-1.8-7.6,1.1-9.5,0c0,0-7.8-18.4-9.6-19.3c-12-6.5-19.8,1.9-31.8,0
						c-9.1-1.5-16.2-11.9-22.3-16.1c6.1,0,27.7,1.1,35,0c5.3-0.9,13-12.3,15.9-12.9c6.7-1.6,9.5,6.4,9.5,6.4c4-1.5,3.2-4.4,9.6-3.2
						c2.2-5.9-2.1-6.2-3.2-9.7l15.9-12.9c1.2-4.5,1.1-31,0-35.5c-1.6-5.9-17.6-15.2-19.1-22.6c-4.2-20.3,10.3-35.6,9.5-51.6
						c-0.3-4.7-13.3-13.8-15.9-19.3c-2.7-5.5,1.8-6.4-3.2-9.7c-1.5-1,2.7-12,3.2-12.9c1-2.1,8.7-7,9.5-9.7c3.9-14.9,6.7-43.1,0-54.8
						c-6.5-11.4-53.8-10.1-63.6-3.2c-8.5,5.7-7.1,19.9-12.7,29h-3.2c-11.4,5.7-12.8,25.5-22.3,32.2c-4.8,3.3-8.1-0.2-12.8,3.2
						c1.9,17.1,7.2,36.1,6.4,41.9v6.4l-9.6,3.2c-2.4,5.8,2,13.3,0,19.3c10.2,2.7,17.7,1.9,22.3,3.2c-0.9,14.1-0.9,18,0,32.2l9.5-3.2
						c-5.4,14.5-8.4,21.4-15.9,32.2c-1.9-4-25.1-35.2-25.5-35.5c-3.3-1.7-9.7,2-12.7,0c-4.6-3.1,0.1-9.7,0-9.7
						c-3.3-1.7-9.3,1.1-12.7,0c-1-0.4-3.9-5.4-6.4-6.4c-1.7,4.2,0.7,15.3-6.4,12.9c-3.5-1.2,3-18.5,3.2-19.3
						c-15.9-3.1-29.7-1.8-41.4-3.2c-0.4-0.1-7.5-6.9-9.5-6.4c-2.8,0.4-2.1,6.3-3.2,9.7c-12.9-1.8-20.1-1.5-31.8-3.2
						c-1.3,4.7,2.9,5.9-3.2,6.4c6.5,14.7,7.6,13.1,6.4,35.5c-1.8-0.4-6.2,2-9.5,3.2c1.6-0.5-6.4-6.4-6.4-6.4s-6,2.9-6.4,3.2
						c0,4.5,1.4,11.6,0,16.1c-1.5-2.3-25.7-24.2-9.6-29c-4.8,1.4-28.6,9.7-28.6,9.7c-8.6,0.5,2.1-5.2-6.4-3.2c0,0,6.2,8.5,3.2,9.7
						c-2.1,0.7-7.8,0.2-9.6,0c-1.9-0.3-11.9-11.5-25.5-9.7c-2.9,0.3-24,15-19.1,12.9c0,0.5,0.5,9.5,0,9.7c-5,1.5-7.5-9.5-9.5-9.7
						c-4.6-0.7-4.6,5.7-6.4,6.4c-7,2.3-15-1.2-22.3,0v-6.4c4.8-0.7,23.5,1.4,12.8-3.2c-6.1-2.7-3.2-9.7-3.2-9.7
						c-2.8-2-7.4-1.4-9.6-3.2c0.6-1.3,4.8-4.8,3.2-6.5c-5.1,3.3-20.4,7.7-22.3,12.9c-0.5,1,0.5,9.4,0,9.7c-0.1,0-8.3-7.5-15.9-6.4
						c0,0-3,6.3-3.2,6.4c-3.5,1.3-9.2-1-12.7,0c-8.8,2.3-22.5,16.7-31.8,19.3c-3.6,0.9-9.4-1.5-12.7,0v6.4
						c-5.4,2.8-10.8,1.9-15.9,3.2c-1.1,5.5-4.7,29.3-6.4,32.2c-1.7,2.6-3.1-4-6.4-3.2c-1.6,0.3-4.8,8.8-6.4,9.7
						c-6,3.2-20.2,5-25.4,6.4c-2.5-7.9-11.7-23.1-9.6-32.2c0.3-1.5,5.2-4.5,6.4-9.7c7.7-0.8,12-1.5,15.9-3.2c0-0.1,8.1,0,9.6,0
						c-4.9-9-17.7-35.1-25.5-38.7c-5-2.3-13.7,1-19.1,0c-6-1.2-15-6.8-22.3-9.7c1.9,2.8,8.9,11.4,9.5,12.9c7.5,17.9,3.4,21-6.4,38.7
						c0,0-7.9,5.5-3.2,6.5c17.5,3.6,4.2,23.1,0,32.2c-0.3,0.6-6.4,9.4-6.4,9.7c4.1,2.4-3.2,9.7-3.2,9.7c-2.6-4.2-5-14.4-9.5-16.1
						c-3.8-1.5-6,1.6-9.5,0c-4.1-1.9-1.1-7.1-9.5-6.4c-1.6,0.1-33.3,25.4-38.2,29c2.7,7.6-0.2,13.1,3.2,19.3
						c1.8,3.4,28.2,21.1,6.4,19.3c-14.2-1.2-45.2-21.5-57.3-29c-3.4,14-6.8,30.3,6.4,35.5c3.4,1.3,6.4-2.1,9.6,0
						c-1.1,6.9,2.2,15.8,0,22.6c-0.5,1.3-5.7,2.9-6.4,6.4c-0.4-0.1-11.2,0.8-6.4-3.2c-7.3-2-28.8-4-25.5-3.2h-3.2
						c-0.7-0.4,0-11.8,0-12.9c-7.9-2.5-5.8,0-12.8,0c-7.8-19.2-10.4-35-9.5-58c-11.3-6.3-22.5-10.3-38.2-12.9l3.2-9.7
						c-1.6-1.4-10.7,0-12.7,0c0.6-0.5,0-9,0-9.7l-3.2-6.4c-4.5-6.7-8.4-12.8-12.7-19.3l25.5,16.1c5.7,0.3,1.3-5.5,6.4-3.2
						c4.9,2.2,10,14,12.7,16.1c0.9-2,2.9-12,9.5-9.7c0.1,0,0,9.2,0,9.7c18.8,5.5,65.2,22.7,86,19.3c3.3-0.6,15.4-10.4,19.1-12.9
						c12-8.7,30.3-23.1,19.1-45.1H612v-6.4c-8.3-4.3-14.4-4.4-22.3-9.7v-6.4c-3.6-2-6,1.7-9.5,0v-6.5c-14.3-7.5-37.8-21.8-50.9-25.8
						c-8.4-2.5-12.8,1.1-15.9,0c-2.2-0.9-4.2-8.7-6.4-9.7c-3.5-1.6-9.2,1.2-12.7,0l-3.2-6.5c-15.6-6.1-36.1-5.8-47.7-6.4v-6.4
						c21.8-2.1,6.5-5.6-3.2-9.7c0.2-0.1-1.2-0.8-3.2,0c-7.5,2.7-13.7,0.6-19.1-1.7c0,0-6.7,5.1-7.6,9.3c-0.8,3.9-8.6,4.9-9.7,5
						c0.3,0.1,0.9,0.7,0.9,4.3c0,5,0,12.6-3.3,16.8c-3.3,4.2-5-2.5-5-2.5l-0.8-4.2l-7.4,7.6c0,0-3.6,21.4,0,26.2
						c3.6,4.9,6.8,2.2,6.8,2.2s7.2,11.4,5,16.5c-2.2,5.2-12.5,15-12.3,20c0.3,5,12.1,41.4,12.1,41.4s3,9.9,1.5,13.4
						c-1.5,3.4,3.6,6.5,1.4,10.8c-2.3,4.3-3.7,8.6-1.9,12.7c1.9,4.1,2.4,13.3,2.4,13.3s1.2,6.7,6.4,11.4c5.2,4.8,6,3.9,6.4,10.6
						c0.3,6.7,6.3,9.8,3.3,15c-3.1,5.2-6.2,7.9-6,12.9c0.3,5-1.9,11,3.3,15c5.2,3.9,12.8,1.1,13.1,7c0.3,5.9,4.7,10,4.1,15.1
						c-0.6,5.1-72.2,48.7-72.2,48.7l-17.6,14.3l5.3-0.3c3.7-0.7,8.2-2.3,14.6-5.7c2.8,2.6-2.9,8.5-3.2,9.7
						c5.3,3.6,14.5,14.3,19.1,16.1c1.3,0.5,9.8-5,15.9-3.2c1.3,0.3,5,9.1,6.4,9.7c3.5,1.4,6-1.9,9.5,0c-3.3,0.2-17.4,2.8-25.5,3.2
						c-0.3,0.4-3.2,6.4-3.2,6.4c-9.1,1.4-17.9-3.2-22.3-3.2c-0.6,2.3-0.5,5.9-1.1,9.8c0,0,4.2,4.5,4.2,8.8c0,4.2-4.1,7.6-4.1,7.6
						l-5.3,6.1c1.1,8.3,1.7,14.1,3.2,19.3c-2.2-0.2-6.4,9.5-6.4,9.7l-1.7-3c-1.5,2.5-4.4,6.8-7.3,7.4c-4.1,0.8-5,12.6-5,12.6
						s2.5,2.5,3.3,7.6c0.8,5,10.8,0,10.8,0s1.7,11.7,1.7,16.8c0,5,5,0,8.3,5c3.3,5,6.6,9.2,6.6,9.2l1.7,9.2
						c3.3-5.9,1.7,10.9,6.6,6.7c5-4.2,9.1-3.4,9.1-3.4s5,0.8,9.9,2.5c5,1.7,10.8,2.5,11.6,8.4c0.8,5.9,7.5,1.7,7.5,10.1
						c0,8.4,5,8.4,5,17.6c0,9.2-2.5,13.4,2.5,17.6c5,4.2,9.9,5,13.3,11.7c3.3,6.7,5.8,14.3,0,16c-5.8,1.7-10-7.6-14.1,1.7
						c-2.8,6.3,8.3,6.7,8.3,11.8v25.2c0,0,6.1,13.4,12.4,1.7c3.2-6,4.1-1.7,9.1,0.8c5,2.5,9.9-2.5,9.9,2.5c0,5,3.3,10.1,3.3,10.1
						s0.8,10.9,4.2,10.9c3.3,0,0.8,8.4,5.8,8.4c5,0,11.1-1.7,14.4,0.8c6.6,5,9.1,4.2,14.1,2.5c5-1.7,3.9,7.2,7.4,9.2
						c3.2,1.8,3.9,2.4,4.7,2.7c0.6,0.2,1.4,0.3,3.6,0.6c5,0.8,5.8,14.3,5.8,14.3s6.6-2.5,11.6-4.2c5-1.7,8.3-3.4,8.3-3.4
						s9.1-0.8,10.8,2.5c1.7,3.4-1.6,5,5,5c6.7,0,5.8,4.2,10.8,5.9c5,1.7,6.8,3.8,11.6,6.7c8.3,5-2.5,8.4,1.7,11.8
						c4.1,3.4,6.3,0,3.8,5.1c-2.5,5-10.4,8.3-5.4,9.2c9.1,1.7,2.5,12.6,5.8,16c3.3,3.4-1.2,1.7-2,7.6c-0.8,5.9,7.8,15.1,6.2,20.1
						c-1.6,5-12.8,3.4-17.8,3.4l-5.8,9.2l-3.6,12.7l2.9-1c7.4-2.3,13.7-3.1,22-4.2v6.4c-8.8,4.5-13.8,5.1-22.3,9.7
						c0,0.4,0.1,9.6,0,9.7c-4.5,2.1-11.1-1.2-15.9,0v6.4c4,1.8,10,2.5,12.8,3.2c-0.4,0.7-4.3,5.8-3.2,6.4v3.2h-6.4
						c-1.1,1.5,0,8,0,9.7c-6.1,1.8-15.3,3.6-25.1,4.4c1.1,1.6,12.6,5.5,18.7,5.3c1.5,6.3-1.1,9.7,3.2,12.9c2.1,1.6,6.9-1.3,9.6,0
						v6.4c1,3,7,1.2,9.6,3.2c7.4,5.6,11.5,20.1,19.1,25.8c3.2,2.3,7.7,4.2,11.6,5.5c0,0,2-14.1,6.1-16.6c4.2-2.5,12.4-5.9,14.9-1.7
						c2.5,4.2,6.6,3.4,14.1,5c7.5,1.7,10.8,0.8,16.6,0.8c5.8,0,4.1,1.7,9.9,5.9c5.8,4.2,9.1,12.6,16.6,12.6c7.5,0,12.4-5.9,15.7-1.7
						c3.3,4.2,4.2-0.8,9.1-3.4c5-2.5,7.4-1.7,10.8,2.5c3.3,4.2,2.5,6.7,7.5,9.2c5,2.5,4.2,4.2,8.3,5c4.1,0.8-3.3,8.4,1.7,10.1
						c5,1.7,8.3-2.5,11.6,1.7c3.3,4.2,5.8,7.6,5.8,7.6s5,4.2,9.1,9.2c4.2,5,7.5,3.4,9.1,9.2c1.7,5.9,5,8.4,8.3,8.4
						c3.3,0,12.3-14.7,12.3-14.7c-4.5-5-11-7-14.5-12.9c-2.1-3.3-1.2-9.7-3.2-12.9c-1.3-2-8.9-4.4-9.5-6.4
						c-3.9-10.1,0.4-18.8,0-25.8h-6.4c-5.2-4.8,9-15.9,3.2-19.3c-7.1-4.1-7.2,1.4-19.1,0c5.4-22.2,8.4-28.5,15.9-58h6.4l3.2-6.4
						c2.6-0.2,7,9.3,9.6,9.7c-7.9,0-0.9,2.4,0,3.2c13.9-7.9,0.1-8.9,9.5-12.9v-6.4c0,0-6.9-10-4.4-13.4c2.5-3.4,0-10.1,0-10.1
						l-8.7-20.2c0,0-10,6.7-10.8,1.7c-0.8-5,3.3-15.1-3.3-17.6c-6.6-2.5-10.8-5.9-7.5-10.1c3.3-4.2,9.1-15.1,9.1-15.1
						s5.8-1.7,4.1-6.7c-1.7-5-6.6-5.9-6.6-5.9s10.8-10.1,6.6-19.3c-1.7-3.8,8.3-1.7,9.1-5.9c0.8-4.2,9.1-12.6,10.8-7.5
						c1.7,5,6.6,15.9,6.6,15.9l14.1-8.4c0,0-10.8-6.7-10-11.8c0.8-5,1.7-15.1,5.8-15.1c4.2,0,5.8-10.1,10-7.6
						c4.1,2.5,14.9,0.8,14.9,0.8s14.1-13.4,16.6-17.6c2.5-4.2-4.2-5.9-4.2-5.9l19.1-4.2v5.9l9.9-0.8c0,0-3.3-4.2,0-4.2
						c3.3,0,8.3,0.8,10.8,5c2.5,4.2,1.7,10.1,1.7,10.1s7.5,0,12.4,2.5c5,2.5,8.3,4.2,10.8,9.2c2.5,5,4.2,8.4,8.3,8.4
						c4.1,0,10-2.5,12.4,2.5c2.5,5-4.1,12.6-4.1,12.6l10.8,2.5c0,0-0.8-13.4,2.5-13.4c3.3,0,1.7-6.7,10-2.5c8.3,4.2,14.9,8.4,19.1,5
						c4.2-3.4,9.1-7.6,16.6-10.1c7.5-2.5,6.6,7.6,11.6,5.9c5-1.7,3.3-5.9,8.3-2.5c5,3.4,9.9,16.8,9.9,16.8l13.3,3.4h9.1
						c0,0,9.6-3.4,8.8-13.5c-5-6.7-12.5-8.4-12.5-8.4l-8-7.5l7.4-14.3l-0.8-5.9l-9.1-13.4v-10.1l3.3-8.4v-12.6l9.9-10.1v-10.1
						l-0.8-7.6l8.3-5l11.6,5l12.4,1.7l9.1,4.2l19.1-2.5l14.1-5l19.9,0.8l19.9-5.9h7.5l19.9-10.9l14.1-5l9.1-1.7l4.1,5.9l8.3,3.4v5
						l-2.5,10.9l6.6,0.8l9.1,10.9l7.5-4.2l9.1-10.1l14.1,8.4l2.5,3.4l8.3-4.2c0,0,4.1-2.5,6.6,4.2c2.5,6.7,0,7.6,0,7.6l18.2,1.7
						l17.4-7.6l20.7-9.2l15.8-5.9l17.4-4.2l2.5,4.2l-0.8,10.9l13.3,23.5l15.7,35.3l11.6,24.3c0,0,8.3,13.4,13.3,14.3
						c5,0.8,19.9-4.2,19.9-4.2h22.4c5.8,0,19.1,17.6,19.1,17.6l3.3,12.6l5,15.1l4.2,6.7l11.6,6.7l14.1-3.4l25.7-11.8l15.8-3.4
						l10,0.8l5,10.1l7.4,8.4l5.8,5l14.8,3.3l7.5-5l10.8-3.4l7.5-4.2l5-6.7l0.1-5.9l4-6.7l9.1-5.9l10.1-4.2l14.1-5.9l6.6-5l13.3-1.7
						l12.3,2.5l5,6.7l10.8-5l15.9,7.6l11.6,6.7l13.3,2.5l14,0.8l19.1-2.5l17.4,1.7l4.2-6.7l-2.5-13.4l-4.9-9.2l-10-5.9l3.3-10.1
						l5-7.6l4.1-8.4l15.8,2.5l8.4,1.7h14.9l7.5,6.7l14.1,1.7l19.9,16l11.6,10.9l6.6,13.4l6.6,5l14.9,10.1l10-1.7h8.3l10.8-3.4
						l8.3-6.7l12.4,4.2l19.1,5.9l9.1,1.7l-0.8,7.6l8.3,6.7h9.9l10,6.7h9.1l10-3.4l9.9,2.5l13.3,4.2l16.6-4.2l7.5-6.7l19.9-2.5
						l19.1-12.6l5-3.4l14.9,10.9l10.8-1.7l14.9,4.2l10.8-4.2l12.4,8.4l9.2,5.9l13.3-11.8c0,0,15.7-4.2,14.9-9.2
						c-8.3-3.4,9.1-14.3,9.1-14.3l5.8-10.1l7.5-10.9l-2.5-10.9l5-5l1.7-10.1l-1.7-10.9l-6.6,0.8l1.7-5.9l3.3-4.2l7.5-8.4l9.1-7.6
						l8.3-6.7h11.6l10.8-4.2l6.6-2.5l12.4,1.7l9.1,5.9l7.5,8.3l7.5,7.6l14.9,2.5l10.7,8.5l5.8,7.5l7.5,11.8v8.4l3.3,13.4l9.1,15.1
						l6.6,13.4l6.7,5.9h9.1l8.3,1.7l11.6,4.2l6.6,5.9l3.3,9.2l4.1,10.9l9.1,9.2l4,8.4l-2.5,9.2l5,8.4l9.1,5l9.9,5.9l5.8-2.5l8.3-4.2
						l6.6-7.6l8.3-5h7.5l8.5-2.5l4.1-6.7l11.6-4.2l-5,12.6l-0.2,8.4l5,5l-1.5,10.9l-6,5.9l0.8,7.6l-2.5,15.1l-5,10.9l-8.3,8.4
						l-6.6,3.4l-2.5,7.6l-9.1,5.9l-4.8,6.7l-5.6-4.2c2.5,4.9-0.6,3.9,1.8,19.3c-0.5,0-9.4-0.5-9.5,0c-4.2-3.3,3.5-12.7,3.2-16.1
						c0,0-1.3-2.1-2.4-3.2l-5.7,4.2l-6.6,4.2l-0.1,9.2l-3.3,10.1l1.7,16l-0.8,9.2l-5.8,4.2l1.6,8.4l-5.2,3.9l3.2,3.6l13.9-11.8
						c0.7-0.7,3-9.7,3.2-9.7c2.5-1.2,14.9,0,19.1,0c0.2,0.8-2.4,11.4-3.2,16.1c12.7,8.1,21,15.2,35,6.5v-6.5
						c13-7.5,15.5-20.6,19.1-22.6h6.4c4.2-6.7,1.9-13.7,6.4-19.3c3.5-4.5,12.6-5.3,15.9-9.7c3.9-5.4,2.5-14.5,6.3-19.3
						c5-6.5,20.9-14.3,25.5-22.6c5.5-10.1,4.6-30.7,12.7-38.7c0.9-1,9.1-2.4,9.6-3.2c3.4-6-0.6-10.9,3.2-16.1
						c3.6-5.1,17-10.3,19.1-16.1c1.2-3.6-1.6-9.6,0-12.9h6.4l-6.4-9.7c0.9-2.9,9.3-12.7,9.6-16.1c0.4-5.3-7.4-19.4-6.4-25.8
						c0.2-2,5.8-5.9,6.4-9.7c-1.4-3.5-4-7.2-3.2-9.7c0.6-2.1,8.3-4.4,9.5-6.4c7.2-13.4,1.5-22.7,0-38.7c6.6,0.4,9.3-1.2,15.9,0v-3.2
						c-5.2-2.7-6.9-1.5-12.8-3.2v-6.5c-5-1.8-2.2,6.2-6.4,3.2c-9.3-6.9-14.2-24.8-25.4-29c-32.5-12.4-17.8,11.6-19.1,12.9h-6.4
						c5.4-4.5-3.2-3.2-3.2-3.2c-3.7,3-3.6,11.9-9.5,12.9c-6,0.9-11-5.2-3.2-6.4c0.1-0.4,2.8-9.4,3.2-9.7c-6.5,2-3.2-8.6-9.5-6.4v6.4
						c-5.2-2.5-2.6,4-3.2,6.4h-6.4v-32.2c-11.1,0.3-19.6,1.1-31.8,0c3.3-5.4,2.4-11.4,6.4-16.1l38.2-35.4h6.4c1.6-2-1.3-7.2,0-9.7
						c0.6-1.4,8.4-1.3,9.5-3.2c6-10.4,4.5-19.4,6.4-25.8c1.4,0.7,4.6,4.5,6.4,3.2c3.5-2.7,6.2-10.2,9.5-12.9
						c1-0.9,19.1-9.7,19.1-9.7c0.6-1.3-0.9-9.3,0-9.7c2.2-1.3,11.2,1.8,12.7,0c3.8-5.2,0.5-13.2,3.2-19.3c3-7.2,24.5-28.6,31.8-32.2
						v-3.2c1.7-0.7,7.9,0.9,9.6,0c1.5-0.9-1.7-9.3,0-9.7c7.3-1.9,12.7,9.7,12.7,9.7c9.4,1.8,42.6-1.3,54.1,0
						c-4.5,2.2-0.8,10.9,0,12.9c2.4-2.2,7.4-1.1,9.5-3.2c1.8-1.8,1.3-8,3.2-9.7c4.7,2.5,8.8,8.5,12.7,9.7c8.8,2.5,21.6-3.8,25.5-3.2
						c2.8,0.3,3.2,9.8,12.7,6.4v-22.6c13.4,3.9,26.5,1.1,35,3.2c2.4,0.5-3.1,8.7,6.4,6.4v-6.4c7.2-1.8,7.9-1,12.7-3.2
						c3.5,4.9,3.6,10.5,6.4,16.1c9.8-2.2,2.5,4.2,6.3,6.4c-7.8,0-14.7-1.4-22.3,0c0.7,2.9,3.5,15.9,3.2,16.1c6.6,0,15.6-1.3,22.3,0
						c-4-0.2,3.2-9.7,3.2-9.7c2.6,1.3,5.4,6,9.6,6.5c2.1-3.3-1.8-6.1,0-9.7h6.4l3.2-9.7c11.2,1.6,13.3-1.8,28.7,0
						c-5.4-3.2,6.4-3.2,6.4-3.2l-3.2-9.7c-4.2,0.8-5.6-0.5-12.7,0c1,6.2-2.9,2.2-6.4,3.2c0-7.4,1.2-15.2,0-22.6
						c0.7,0.3,5.6,4.6,6.4,3.2c2.4-5-0.5-13,3.2-16.1c9-8.1,23.2-8,31.8-16.1c1.5-1.5-0.9-7.6,0-9.7h3.2c3.7-1.9,9.6-12.9,9.6-12.9
						c10.2-6.8,16.9-3.7,31.8-6.4c3.7-0.7,13.2-8.2,19.1-6.4l3.2,9.7c1.7,1.5,7.5,1.4,9.5,3.2v-3.2c3.5-1.8,9.1-4.8,12.7-6.4
						c-4.9,10.4-3,20.8-12.7,25.8c-3.7,1.8,4.8,2.5,3.2,6.4c2.9-1.1,8.3-3.7,9.5-3.2c-1.9,0.3-2.4,12.7-3.2,16.1
						c2.7-2.5,6.9-7.7,9.6-9.7c9.5-7.4,21.3-25.9,28.6-29c15.2-6.7,22.5,3,19.1,3.2c3.7-1.4,3.6-4.6,9.6-3.2
						c-0.6-2.4-6.7-13.3-3.2-16.1c-3.4,6-3.2-6.5-3.2-6.5c26.2-21.4,14.2-14.8,44.6-6.4v3.2h-9.5c5.4-2.9-9.4-3.2-9.6-3.2
						c-0.7,1.2-2.5,6-3.2,6.4h-3.2c-1.1,12.9-1.6,22.9-3.2,32.2c-5.4,31.2-15.4,16.9-44.6,25.8c-0.9,5.2,2.9,7.9,0,16.1
						c-1.1,2.8-7.7,1.2-9.5,3.2c-1.6,1.5,0.8,7.4,0,9.7c-1.4,3.6-25.2,18.2-28.6,22.6c-11.6,14-14.9,30-31.8,38.7v3.2
						c-6.2,3.6-5.2-4.1-9.5-3.2c-2.3,0.4-4.2,8.8-6.4,9.7c-5.9,2-13.1-1.4-19.1,0c1.3,8.8,0.4,3,6.4,6.4c-3.9,12.6-1,21.4-12.7,25.8
						c-4.6,1.6-7.5-0.3-9.5,3.2c-21.8,35.8,9.7,148,15.9,193.4c6.4-4.6,32.9-23.3,35-29c11.6-33.4-14.1-23.8,25.5-35.5
						c-1.3-17.2-5-25.4,6.4-35.5l6.3-3.2v-6.4c15.5-11.2,18.7,1.4,25.5,0c1.2-0.3,10.5-11.2,12.7-12.9
						c-22.8-29.4-13.8-50.5,22.3-51.6c-0.6-0.2,0-11.9,0-12.9c-3.6-1.7-8.9,2-12.7,3.2c-2.7-9-8-13.2-6.4-22.6h3.2l3.2-9.7h6.4
						c1.6-3.5-2.3-6.5,0-9.7c5.4,2,2.4-3.7,3.2-6.4c-2.4,0-7.2,0.8-9.5,0c-5.8-2-6.4-2.5-12.8-3.2c0-6.4-1.7-16.3,0-22.6
						c0.1-0.5,22.3-19.3,22.3-19.3c2.1-3.3-1.8-6.1,0-9.7h6.4c1.7-7.4-4.3-4.6-3.2-9.7c0.2-1.4,5-4.5,6.4-9.7l31.8,3.2
						c1.1-0.4-0.7-8.5,0-9.7c0,0,18.8-10.5,22.3-12.9c-0.6,5.8-9.5,27.8,3.2,25.8c0,0,1.9-5.5,6.4-3.2c5.2-6.9,6.5-17,12.7-22.6
						c16-14.3,27.8-5.5,44.6,3.2c0,0.8-0.7,9,0,9.7c5.2,4.8,13.3,5.6,19.1,9.7c10.1-27,19-33.8,44.6-45.1c-0.7-2.3,1.9-9.1-3.2-6.4
						v-3.2c8.8-2.6,9.2,6.5,15.9,3.2c3.4-1.7,3.8-12.9,0-12.9c7.4-2,5.3,5.1,12.7,3.2c1-0.3,5-9,6.4-9.7c6.5-3.6,12-0.6,19.1-3.2
						c8.3-3.2,19-14.4,28.6-16.1c18.8-3.6,36.7,9.2,47.8,6.4c4.2-4.6,7.5-8.8,9.5-9.7c-0.7-1.9-4.8-10.6,0-12.9
						c-1.8-3.1-7.3-1-9.5-3.2c-1.1-1.1-10.9-31.9-12.7-35.5c-6,0.8-2.2-2.7-3.2-6.4c-4.1,0.6-4.5,1.4-9.6,3.2
						c5.1,0.9-6.4,3.2-6.4,3.2v-6.4l3.2-3.2l3.2-6.4c-7.9-1.7-21.2,1.4-28.6,0v-6.4c8-0.6,22.2-3.6,25.5-3.2l6.4,6.4
						c6.6,2.5,38.2,3.2,38.2,3.2l12.7-9.7c5.8-8.6,5.5-17.9,6.4-25.8c-0.8-0.3-8.8-2.5-9.6-3.2c-1.9-1.7,1.2-13.8,3.2-9.7
						c0.9-0.7,0-11.5,0-12.9c0.5-0.2,11.5-2.2,12.7-3.2l-3.2,9.7c0.9-4.1,6.3,3.2,6.3,3.2c-19.4,6.2,8,26.3,12.8,29
						c2.7-1.9,4.2-4.3,0-6.4c19.9-10.6,28.5-13.9,41.4,3.2c1,1.3,9.1,4.9,9.5,6.5c1.5,5.3-3.9,11.8-3.2,12.9
						c3.4,5.5,33.9,11.1,44.5,16.1v6.4c5.9-2.6,10.6-5.4,15.9-6.4v6.4c23.6-3.2,24.9,7.3,9.5-16.1v-6.4c3.3,0,9.5,0.8,12.7,0
						c0-1.5-1.1-12.2,0-12.9c-3.5,1.2-7.6,3.7-9.6,3.2c0-0.5,0.1-9.7,0-9.7l-3.2-3.2c2.3,0.3,9.8,0,12.7,0v3.2h3.2
						c0.9,0.1,3.8-1.8,19.1,3.2c-2.5,1.3,0.6,4.4,3.2,3.2c1.5-0.8-2.6-10.9-3.2-12.9h6.3c1.8-4.2,1.8-10.1,3.2-12.9h6.4
						C3682.6-793.7,3671.9-797.5,3664.5-802.7z M2859.2-996.1c-0.9,0.4-1.8,8.9-3.2,9.7C2849.2-983,2857.2-995.2,2859.2-996.1z
						 M1388.7-976.8c0.9-3.5-3-7.8,3.2-6.4C1395.9-982.4,1396-977.7,1388.7-976.8z M449.7-606.1c-0.2,0,0,9.2,0,9.7
						c-13.8,4-16.7,2.4-28.7,6.4c-0.9-1.8,0.7-7.9,0-9.7c-1.2-3.2-11-9.9-12.7-12.9c-1.4-2.4,0.5-7.2,0-9.7
						c-1-3.8-9.8-12.1-12.7-16.1c10.3-4.5,10-8,19.1-12.9c7.1,4.6,15.7,16.7,22.3,19.3c3.4,1.3,6.5-2.1,9.5,0
						c2.8,1.9,4,11.3,6.4,12.9c4.2-4,2.9,13.8,3.2,16.1C449.6-599.8,456-608.9,449.7-606.1z M484.7-718.9
						c21.2,4.4,7.7,6.7,15.9,12.9c12.6,9.6-1.2,4.4-12.7,6.5C485.4-707.7,483.4-719.2,484.7-718.9z M529.3-625.4
						c-0.6,2.3-9.2,8.3-9.5,9.7c-9.2-13.1-14.5-20.9-28.7-29v-6.4c2.5,0.8,8.9,3.4,9.5,3.2c1.8-1-9.6-9.7,0-9.7c0,0,2.9,3.9,6.4,3.2
						c0,0,6.5-23.1-3.2-16.1c4.6,3.4-5.7,3.4-6.4,3.2c-1.4-0.5-7.5-14,0-12.9c4,0.5,11.9,4.4,19.1,6.5c2,13.7-1.4,12.8,3.2,25.8
						C521.7-642.3,532.2-639,529.3-625.4z M577-760.8c4.8,2.4-3.2,6.4-3.2,6.4C574.3-756.6,571.5-763.7,577-760.8z M554.7-554.5
						c-0.7-0.4-6.7-13.1,0-9.7C555.3-563.9,561.3-551.2,554.7-554.5z M542-602.9c17.9,0.4,13,10.9,0,6.4
						C542-596.4,534.4-603.1,542-602.9z M577-528.7c-2.8,4.5-11.6,2.8-15.9,6.4c-9.3-7.6-11.6-13-19.1-22.6
						c5.3,0.7,10.2,3.2,19.1,3.2c0.7-4.4-2.6-10,3.2-9.7c0,0,8.6,9.1,9.5,9.7C573.8-541.6,585.2-542.5,577-528.7z M774.4-142
						c4.4,2.2-3.2,6.4-3.2,6.4C771.7-137.7,768.5-145,774.4-142z M1551-1079.9c-4.8,3.2-6.3-3.2-6.3-3.2c2.8-2.7,10.6-9.9,12.7-12.9
						C1554.7-1093.5,1553.8-1081.9,1551-1079.9z M1824.8-1192.7c2.1-0.3,6.3-16,6.4-16.1c-1.2,1,2.3,12.7,3.2,16.1
						C1831.8-1192.4,1824.1-1192.7,1824.8-1192.7z M1901.1-1176.6c-7.4,4.5-16.1,13.3-22.3,19.3v-6.5c-7.8-2-7.4-0.9-12.7-3.2
						c0,0,6.7-19.1,3.2-19.3c6.3,1.6,4.4,5.6,6.4,6.4c14.7,5.8,32.2-6.5,41.4-9.7c-4.8-3.2-3.4-7.3,0-9.7
						C1937.2-1186,1912.9-1184,1901.1-1176.6z M2038-383.7c-0.6,1.6-6.1,7.5-8.5,11.2c0,0.4-0.2,1-1,1.7c0.2-0.5,0.6-1.1,1-1.7
						c0-2.1-7.1-1.4-7.4-1.5c-3.8,7-0.1,5.4-6.4,9.7c-2.2,1.4,9.5,6.4,9.5,6.4c-3.2,2.8-13,11.4-15.9,12.9v3.2
						c-3.3,1.3-9.9-2-12.7,0c-1.6,1-1,8.5-9.6,12.9v3.2c-3.3,1.1-9.9-2-12.7,0c-13.9,9.4-17.7,39.4-38.2,41.9
						c-11.3,1.3-16.1-7.1-22.3-9.7c17.8-8,27.7-11.4,38.2-25.8c2.2-3.1,3.5-13.6,6.4-16.1c2.9-2.8,9.2-1,12.7-3.2
						c3.8-2.4,3.3-9.9,6.4-12.9c2.7-2.7,5.8-1,9.5-3.2c15.6-9.9,40.1-57.2,47.8-77.4h3.2h3.2c-2.2,8.4-6.4,19.3-6.4,19.3
						C2037-414.7,2038.8-386.3,2038-383.7z M2101.7-1047.7c-6.9,3.4,1.2-8.8,3.2-9.7C2104-1056.9,2103.1-1048.5,2101.7-1047.7z
						 M2108-1057.4c-5.7,2.2-9.2-15.6,3.2-19.3C2118.4-1078.9,2110.7-1058.5,2108-1057.4z M2671.4-1044.5c5.5,0.4,3,3.8,6.3,6.5
						C2675.8-1038.8,2659.5-1045.5,2671.4-1044.5z"/>
				</g>
				
					<path fill="#EDEDED" stroke="#FFFFFF" stroke-width="2" stroke-linecap="round" stroke-linejoin="round" stroke-miterlimit="10" d="
					M817.4,463.8l8.2,6.4l6.9,2c2.1-17,1.8-35-4.1-30.7c-4.4,3-7.6,17-9.6,22.6L817.4,463.8z"/>
				
					<path fill="#EDEDED" stroke="#FFFFFF" stroke-width="2" stroke-linecap="round" stroke-linejoin="round" stroke-miterlimit="10" d="
					M1283.3,269.3l-16.6-10.7l1.5-13.8l-4.5-7.7l2.3-21.4l11.3-6.9l3.8-8.4l-9.1-3.8l3.8-8.4l-10.6-1.5l-6.8-8.4l-12.9-2.3l0.1-11.2
					l-16.4,10.1l0.8,11.8l-8.1,5.8l5,7.6l-3.3,13.4l-10.8,1.7l-8.3-1.7l-4.2,8.4l7.5,7.6L1207,241l-9.1,7.5l0.9,8.4l-2.5,9.2
					l-7.5,1.7l-9.1-2.5l-4.1-5l-5,6.7l-10.8,5.9l7.4,9.2l-3.3,5.9l-5.8,2.5l-5.8-2.5l-14.1,18.5l-10,5.9l-2.5,9.2l-1.7,9.2
					l-11.6,2.5l-2.5,8.4l-10.8-3.4h-19.1l-7.5,0.8l-7.5,2.5l-21.6-12.6l8.3,22.7l-2.5,5l3.3,7.6l9.1,13.4l8.3,2.5l6.6,10.1l0.8,12.6
					l10,5v7.6l-8.3,6.7l-13.3,3.4l-11.6,4.2l-13.3,18.5l-3.9,21.1c15.3,2.7,80.3-18.9,99.9-8.7l9.6,12.9c2.6,2.5-7.8,5.1-3.2,9.7
					c2,2,9.9-1,12.7,0l6.7,3.7c1.7,0.9,1.8,3.8,1.6,6.3c-0.2,2.9-0.4,4.4,0,7.2c0.4,2.1,2.5,2.5,2.5,2.5l13.9,4.8l7.2-8.1l4.2-11.8
					l12.4-3.4l12.4-5.9l-2.5-12.6l-9.9-10.1l-1.7-6.7l7.4-9.3l-12.4-14.3l7.5-7.6l8.3-6.7l2.5-7.6l8.3,5.9l8.3-10.1l8.9-8.5l6.6-9.2
					l5-10.9l13.3-6.7l6.6-7.6l3.3-9.2l9.9-7.6l1.7-10.9l1.7-13.4l8.3-9.2l5-9.2v-10.9l-10-10.1l-7.5-5L1283.3,269.3z"/>
				
					<path fill="#EDEDED" stroke="#FFFFFF" stroke-width="2" stroke-linecap="round" stroke-linejoin="round" stroke-miterlimit="10" d="
					M935.4,464.2l-9-4.8l1.7-7.6l-4.9-0.8c2.5-3.7,3.4-5,7.1-9.7C931.1,450.1,932.4,456.6,935.4,464.2z M876.3,691.4
					c2-0.4,4.1-1,6.3-1.8c1.3-0.5,7.2-9,9.6-9.7c3.4-1.2,6.5,4.7,12.8,0c5.1-4,3.3-16,9.5-19.3c3.4-1.9,14.9,0,19.1,0
					c12.1-22.6,6.5-16.5,31.8-25.8c-5.8-3.7,1.2-29.4,3.2-35.5c0.6,0,9.1,0.5,9.5,0c4.8-8.6,2.1-17,6.4-25.8
					c4.6-9.6,22.4-22,19.1-38.7c-0.7-3.1-7.8-1.4-9.6-3.2c-2.9-2.8-5.7-22.2-9.5-25.8c-6.9-6.4-17-4.3-25.5-9.7
					c-9.3-6-17.2-16.2-22.3-28.6c0,0-5.8,3.4-6.9,6.7c-1.1,3.3-9.9-3.6-9.2,0.1c0.7,3.7,4.6,6.9,4.6,6.9s-1.4,1.8-5.9,4.9
					c-4.5,3.1-3.7,7.6,0.2,6.1c2.1-0.8,2.9,9.3-2.5,17c-4.5,6.5-4.7,15.9-4.7,15.9l13.4,17.6c-0.8,3.4-8.9,59.9-14.1,62.2
					c-12,5.3-67.1,29.2-67.1,29.2l-0.9,7l21.3,38.6L876.3,691.4z"/>
				
					<path fill="#EDEDED" stroke="#FFFFFF" stroke-width="2" stroke-linecap="round" stroke-linejoin="round" stroke-miterlimit="10" d="
					M68.8,777l-2.5,19.3c0,0,6.6,2.5,6.6,5.9c0,3.4-3.5,19-7.7,19c-4.1,0-6.6,0.8-6.6,5c0,4.2-5,8.4-8.3,11.8
					c-3.3,3.4,1.6,5.9-0.8,10.9c-2.5,5-2.5,9.2-5.8,10.1c-3.3,0.8-3.3,9.2-3.3,9.2s3.3,8.4,0,10.1c-3.3,1.7-9.9,5.9-14.9,7.6
					c-5,1.7-5.8,2.5-6.6,9.2c-0.8,6.7,0.8,9.2-3.3,13.4c-4.1,4.2-1.7,4.2-5,10.9c-3.3,6.7-6.6,4.2-9.1,10.1c-2.5,5.9-5,10.1-5,14.3
					c0,4.2,5,8.4,0,10.9c-5,2.5-5.6,14.6-14.9,12.6c0.2-5.5,3.3-11.8-1.7-14.3c-5-2.5-7.5-2.5-7.5-2.5s-3.3-1.7-7.5,2.5
					c-4.1,4.2-13.3,3.4-14.9,8.4c-1.7,5-1.7,13.4-5,14.3c-3.3,0.8-1.7,1.7-1.7,6.7c0,5,3.3,5.9,3.3,5.9l-3.3,9.2l0.8,17.4
					c-2.1-1.1-1.8-4.7-3.7-6.2c-0.3,0.4-4.3,6.7-6.4,6.4c-1.7-0.3,0.2-8.7-9.6-6.4v6.4c-15.7,2.4-15.5,2.7-31.8,6.4
					c-3.1-4.3-11.5-11.5-12.7-16.1c-2.8-10.5,5.7-8.9,3.2-19.3c-1-3.9-21.8-21.4-25.5-22.6c-8.1-2.8-20.6-2.9-31-1.5
					c0,0,1.5-13.3,1.5-18.3c0-5,1.7-10.1-2.5-15.1c-4.2-5,4.1-23.5,1.7-28.6c-2.5-5-2.5-10.1,1.7-7.6c4.2,2.5,5.8-3.4,3.3-7.6
					c-2.5-4.2,0.8-4.2,3.3-9.2c2.5-5,1.7-6.7,1.7-13.4c0-6.7,0.8-7.6,5-7.6c4.1,0-2.5-5,0-12.6c2.5-7.6,2.5-10.1-1.7-12.6
					c-4.2-2.5-6.6-4.2-3.3-7.6c3.3-3.4,0.8-12.6,0.8-12.6l7.5-16.8c0,0,8.3-7.6,8.3-12.6c0-5,1.7-11.8,1.7-11.8s14.9-7.6,20.7-10.1
					c5.8-2.5,10.8-2.5,16.6-2.5c5.8,0,5.8,5,9.9,5c4.2,0,10.8,12.6,10.8,12.6s7.5,1.7,13.3-1.7c5.8-3.4,12.4-5.9,15.7-1.7
					c3.3,4.2-0.8,5,10.8,5.9c11.6,0.8,19.1,2.5,19.9-0.8c0.8-3.4,8.5-7.3,13.5-7.3c5,0,12.2-2.8,21.4,0.6c9.1,3.4,17.6,1.1,24.2,1.1
					c6.6,0,10.8-9.2,10.8-9.2l12.8-4.6l8.7,17.8l2.3-0.1L68.8,777z"/>
				
					<path fill="#EDEDED" stroke="#FFFFFF" stroke-width="2" stroke-linecap="round" stroke-linejoin="round" stroke-miterlimit="10" d="
					M56.1,755.6l-12.9,4.5c0,0-4.2,9.2-10.8,9.2c-6.6,0-15.1,2.2-24.2-1.1c-9.1-3.3-16.4-0.6-21.4-0.6c-5,0-12.6,3.9-13.5,7.3
					c-0.8,3.4-8.3,1.7-19.9,0.8c-11.6-0.8-7.5-1.7-10.8-5.9c-3.3-4.2-9.9-1.7-15.7,1.7c-5.8,3.4-13.3,1.7-13.3,1.7
					s-6.6-12.6-10.8-12.6c-4.1,0-4.1-5-9.9-5c-5.8,0-10.8,0-16.6,2.5c-5.8,2.5-20.7,10.1-20.7,10.1s-1.7,6.7-1.7,11.8
					c0,5-8.3,12.6-8.3,12.6l-7.5,16.8l-12.4-5c0,0,2.5-4.2-2.5-7.6c-5-3.4-9.1-1.7-9.1-1.7l-8.3,10.9l-5.8-20.2c0,0,3.3-5,2.5-9.2
					c-0.8-4.2-8.3-1.7-8.3-1.7l-9.1-19.3l1.7-7.6l-14.9-9.2l-7.5-10.1l3.3-7.5l4.1,0.8l2.5-4.2c0,0,9.9,0.8,13.3-2.5
					c3.3-3.4,14.9-3.4,21.6-4.2c6.6-0.8,26.5-10.1,26.5-10.1h12.4c0,0,1.7-0.8,2.5-5.9c0.8-5,0.8-10.9,0.8-10.9l6.6-4.2l-2.5-61.3
					l29.2-5.6l11.5-20.4L7.2,506.3L57,535.7l2.5-5l14.9-10.9L86,572.6c0,0,13.3,16.8,8.3,22.7c-5,5.9-5,12.6-6.6,21
					c-1.7,8.4,0,87.3,0,87.3l-31.3,27.1v19c0,0-1.2-1.2-1.5,1.1C54.6,753.6,56.1,755.6,56.1,755.6z"/>
				
					<path fill="#EDEDED" stroke="#FFFFFF" stroke-width="2" stroke-linecap="round" stroke-linejoin="round" stroke-miterlimit="10" d="
					M754.8,55.5c-5-6.7-14.9-15.1-15.8-23.5l9.9-2.5l4.1,6.7h-3.3l1.7,7.6c6.6,0.8,9.1,2.5,9.1,6.7C760.6,53,757.3,55.5,754.8,55.5z
					"/>
				
					<path fill="#EDEDED" stroke="#FFFFFF" stroke-width="2" stroke-linecap="round" stroke-linejoin="round" stroke-miterlimit="10" d="
					M202.9,4.2c0.7,1.9,0.1,10.8-2.3,15.9c-2.3,5.1-2.3,4.4,1.6,9.4c3.9,5.1,4.6,10.1,4.6,10.1s15.6-4.3,20.2-4.3
					c4.6,0,3.9-0.7,7-5.1c3.1-4.3,6.2,0,6.9-4.3c0.8-4.3,10.8-3.6,10.8-3.6s7,0,5.4-4.3c-1.5-4.4,3.1-5.8,3.1-5.8l-5.4-8
					c0,0,4.5-10.9,1.2-15.1c-1.7-2.2-3.6-4.8-5-7.5L229.4-11l-6.6,8.4l-10-1.7L202.9,4.2z"/>
				
					<path fill="#EDEDED" stroke="#FFFFFF" stroke-width="2" stroke-linecap="round" stroke-linejoin="round" stroke-miterlimit="10" d="
					M5,240.1l-5.2,11.8c0,0,3.3,9.2-3.3,12.6c-6.6,3.4-9.1,10.1-14.1,10.1c-5,0-9.1,4.2-9.1,4.2s-0.8,11.8,0.8,18.5
					c1.6,6.7-3.3,5.9-4.2,10.9c-0.8,5-9.1,8.4-9.1,8.4s-4.1,0-6.6,3.4c-2.5,3.4,3.3,9.2,3.3,9.2L-45,372l7.5,9.2c0,0-10,5.9-6.7,6.7
					c3.3,0.9,1.7,8.4,1.7,8.4s0.8,17.6-0.8,26.9c-1.7,9.2-13.3,11.8-13.3,11.8s3.3,4.2,6.6,8.4c3.3,4.2,4.1,11.8,8.3,16
					c4.2,4.2,5,6.7,5,12.6c0,5.9,5,14.3,9.1,14.3c4.1,0,9.1,0.8,14.1,2.5c5,1.7,5,8.4,9.9,8.4c5,0,10.8,9.2,10.8,9.2L57,535.7l2.5-5
					l14.9-10.9l20.7-15.1l178.3,108.3v-19.3h19.9l-0.3-49.5l-1.3-188.9c0,0-0.8-3.4-4.1-6.7c-3.3-3.4-2.5-5-3.3-13.4
					c-0.8-8.4,0-10.9,4.1-16c4.1-5-1.7-14.3-4.1-19.3c-2.5-5-1.7-13.4-1.7-13.4c-6.3-4.1-13.7-9.2-14.3-9.3
					c-6.6-1.7-16.3,2.7-22.3,0l-3.2-12.9c-7.5-2-30.4-9.8-31.8-9.7c-12.5,0.5-28.7,20.4-35,29c1.4,3.1,8.9,7.8,9.6,9.7
					c1.2,3.5-1.6,9.5,0,12.9c-7.1,7-14.8,12.7-22.3,19.3c-1.9-0.8-8.6-9.3-9.5-9.7c-18.5-7.9-38.7-5.8-54.1-16.1
					c-11-7.4-16.6-26-28.7-32.2c-14.5-7.6-24.9,0.7-47.7-6.5v-6.4c-5.4-3.1-10.8,0.5-15.9-3.2C5.3,249.9,5.9,243.5,5,240.1z"/>
				
					<path fill="#EDEDED" stroke="#FFFFFF" stroke-width="2" stroke-linecap="round" stroke-linejoin="round" stroke-miterlimit="10" d="
					M503.9,256.3c0,0,11.7-3.4,13.6-3.4c0,0,1.1-3.7,3.3-7.6c1.7-3.1,4.6-1.7,6.6-5c2.1-3.4,1-12.5,2.5-14.3c5-5.9,9.1-14.3,10-20.2
					c0.8-5.9-10.2,0.8-13.6-1.8c-3.3-2.5-9.9,9.9-9.9,9.9c-0.9,11.7-13.7,27.5-15.9,34.1C498,255.5,503.6,252.5,503.9,256.3z"/>
				
					<path fill="#EDEDED" stroke="#FFFFFF" stroke-width="2" stroke-linecap="round" stroke-linejoin="round" stroke-miterlimit="10" d="
					M1278.5,66.5c-5.1-1.5-10.1-0.6-14.5,1.6c-5,2.5-12.2,0.8-12.2,0.8s-6.9,1.7-9.4-3.3c-2.5-5-8-0.1-13,0.8
					c-5,0.8-6.6-5.9-6.6-5.9l-14.1,0.8l-5.8-9.2l11.6-4.2l7.5,4.2l3.3-8.4c0,0,4.2,0,5,4.2c0.8,4.2,7.3,4.1,5.8-3.4
					c-0.8-4.2,5-2.5,5-2.5s2.5,1.7,10,1.7c7.5,0,13.3-14.3,18.2-19.3c1.5-1.5,2.1-2.1,2-2.4c-0.3-0.5-4.2,0.8-9.4-2.7
					c-7.4-5-6.6-5-14.1-5c-7.5,0-5-0.8-4.1-5.9c0.8-5-3.3-4.2-8.3-0.8c-5,3.4-4.4-5.8-11.9-6.7c-7.5-0.8,2.8-2.6,6.9-5.1
					c4.2-2.5,2.5-2.5,8.3-7.5c5.8-5.1-1.7-9.2-1.7-9.2s-3.6-0.8-8.6,2.6c0,0,10-14.3,17.4-14.3h14.9c7.5,0,21.8,16.7,21.8,12.6
					c0-4.2,6.4-6.7,6.4-6.7s5-9.2,8.3-9.2c3.3,0,1.7,1.7,10.8-4.2c3.1-2,2.5,5,9.9,6.7c7.5,1.7,1.9,5,9.3,4.2
					c7.5-0.8,17.2-10.9,22.2-10.9c5,0,17.4,0,24.9-1.7c7.4-1.7,13.3,1.7,18.2,1.7c5,0,12.6,4.2,13.5,7.5c0.8,3.4,12.4,5,12.4,5
					l9.8,5.9c-6.5,3.3-10.7,4.1-16.6,8.4c-4.3,3.1-5.4,6.5-10,9.2c-3.9,2.3-7.8,0.8-10.8,4.2c-2.5,2.8-3,6.6-3.3,9.2
					c-0.8,6.7-26.2,0.6-34,12.6c-4,6.2,0.3,13.2-5,18.5c-5,5-10.9,2.3-17.4,5c-4,1.7-5.7,5.7-10,5c-5-0.7-3.3-9.1-8.3-10.1
					c-5.1-1-7.6,3.4-11.6,6.7c-3.7,3.1-4.3,6.5-8.3,9.2c-2.4,1.7-4.2,1.8-6.6,3.4C1283.5,61.6,1281.1,64.2,1278.5,66.5z
					 M1385.5-38.8c15.4-0.4-3.4,18.6-6.4,19.3c-6.1,1.3-12.9,0-19.1,0l-3.2-9.7c5.8-1,14.6-0.6,22.3-3.2
					C1381-33.1,1381-38.7,1385.5-38.8z"/>
				
					<path fill="#EDEDED" stroke="#FFFFFF" stroke-width="2" stroke-linecap="round" stroke-linejoin="round" stroke-miterlimit="10" d="
					M981.7-110.3c0.8-1.9,1.7-3.9,2.8-5.9h6.3c-6.4-2.4,6.4-3.2,6.4-3.2c-2.6,1.7-6.1,8.6,0,9.7c9.7-17.7,6.6-14.2,25.5-22.6
					c-0.2-0.4-6.2-8.2-3.2-9.7c3.3-1.7,11.1,3.4,15.9,3.2c1.4-5.2-2.7-5.3,3.2-6.4c-5.4,3.1,6.4,3.2,6.4,3.2
					c-9.3,16.9-20.5,41.6-3.2,54.8c3.1,2.3,6.8,0.8,9.5,3.2c-2.2,1.5-8.5,3.6-6.4,9.7c0.6,1.8,6.4-3.1,3.2,3.2
					c-0.1,0.1-3.5,1.3-6.3,2.2c1.1,0.8,5.2,9.2,5.2,13.4c0,4.2,2.5,23.5,2.5,23.5s14.1-1.7,21.5,0.8c7.5,2.5,24.9,5,24.9,5l3.3-5
					c0,0,5,8.4,7.5,11.8c2.5,3.4,5.8,5,10.8,4.2c5-0.8,7.5-0.8,7.5,4.2c0,5,4.1,0.8,4.1,5c0,4.2-4.1,6.7,0,9.2
					c4.1,2.5,15.8,5.9,19.1,3.4c3.3-2.5,14.1,0.3,15.8,4.2c2.5,5.9-2.5,11.8,0.9,11.8c3.3,0,7.5-2.5,7.5-2.5l0.8-8.4
					c5,0,12.4-1.7,12.4-1.7s2.5-12.6,6.6-14.3c4.2-1.7,9.7,0,11.4-5c1.6-5,6.6-3.4,12.4-5c5.1-1.5,6.9-0.1,11.9-3.4
					c0,0,10.5-15.1,18-15.1h14.9c7.5,0,21.8,16.7,21.8,12.6c0-4.2,6.4-6.7,6.4-6.7s5-9.2,8.3-9.2c3.3,0,1.7,1.7,10.8-4.2
					c3.1-2,2.5,5,9.9,6.7c7.5,1.7,1.9,5,9.3,4.2c7.5-0.8,17.2-10.9,22.2-10.9c5,0,17.4,0,24.9-1.7c7.4-1.7,13.3,1.7,18.2,1.7
					c5,0,12.6,4.2,13.5,7.5c0.8,3.4,12.4,5,12.4,5l8.9,4.3l0.8-15.2l8.5-18.5l-5-9.2l-10-10.1l-3.3-7.6l4.1-5l16.6-3.4l16.6-7.6
					h19.9l5-7.6l-7.5-6.7l-2.5-13.4l4.1-16l8.3-7.6l6.6-11.8l8.3-5.9h12.4l16.6-7.6l2.5-10.1l2.5-6.7l12.4-5l6.6-9.2l9.1-8.4
					l34.4-5.7l-17.9-4.3l-5.8-5l-7.4-8.4l-5-10.1l-10-0.8l-15.8,3.4l-25.7,11.8l-14.1,3.4l-11.6-6.7l-4.2-6.7l-5-15.1l-3.3-12.6
					c0,0-13.3-17.6-19.1-17.6h-22.4c0,0-14.9,5-19.9,4.2c-5-0.8-13.3-14.3-13.3-14.3l-11.6-24.3l-15.7-35.3l-13.3-23.5l0.8-10.9
					l-2.5-4.2l-17.4,4.2l-15.8,5.9l-20.7,9.2l-17.4,7.6l-18.2-1.7c0,0,2.5-0.8,0-7.6c-2.5-6.7-6.6-4.2-6.6-4.2l-8.3,4.2l-2.5-3.4
					l-14.1-8.4l-9.1,10.1l-7.5,4.2l-9.1-10.9l-6.6-0.8l2.5-10.9v-5l-8.3-3.4l-4.1-5.9l-9.1,1.7l-14.1,5l-19.9,10.9h-7.5l-19.9,5.9
					l-19.9-0.8l-14.1,5l-19.1,2.5l-9.1-4.2l-12.4-1.7l-11.6-5l-8.3,5l0.8,7.6v10.1l-9.9,10.1v12.6l-3.3,8.4v10.1l9.1,13.4l0.8,5.9
					l-7.4,14.3l8,7.5c0,0,7.5,1.7,12.5,8.4c0.8,10.1-8.8,13.5-8.8,13.5h-9.1l-13.3-3.4c0,0-5-13.4-9.9-16.8c-5-3.4-3.3,0.8-8.3,2.5
					c-5,1.7-4.1-8.4-11.6-5.9c-7.5,2.5-12.4,6.7-16.6,10.1c-4.1,3.4-10.8-0.8-19.1-5c-8.3-4.2-6.6,2.5-10,2.5
					c-3.3,0-2.5,13.4-2.5,13.4l-10.8-2.5c0,0,6.6-7.6,4.1-12.6c-2.5-5-8.3-2.5-12.4-2.5c-4.2,0-5.8-3.4-8.3-8.4
					c-2.5-5-5.8-6.7-10.8-9.2c-5-2.5-12.4-2.5-12.4-2.5s0.8-5.9-1.7-10.1c-2.5-4.2-7.5-5-10.8-5c-3.3,0,0,4.2,0,4.2l-9.9,0.8v-5.9
					l-19.1,4.2c0,0,6.7,1.7,4.2,5.9c-2.5,4.2-16.6,17.6-16.6,17.6s-10.8,1.7-14.9-0.8c-4.2-2.5-5.8,7.6-10,7.6
					c-4.1,0-5,10.1-5.8,15.1c-0.8,5,10,11.8,10,11.8l-14.1,8.4c0,0-5-10.9-6.6-15.9c-1.7-5-10,3.4-10.8,7.5
					c-0.8,4.2-10.8,2.1-9.1,5.9c4.1,9.2-6.6,19.3-6.6,19.3s5,0.8,6.6,5.9c1.7,5-4.1,6.7-4.1,6.7s-5.8,10.9-9.1,15.1
					c-3.3,4.2,0.8,7.6,7.5,10.1c6.6,2.5,2.5,12.6,3.3,17.6c0.8,5,10.8-1.7,10.8-1.7l8.7,20.2c0,0,2.5,6.7,0,10.1
					c-2.5,3.4,4.4,13.4,4.4,13.4c3.5-2.2,2.9,4.8,9.5,3.2c0.9-0.3,7.5-9.2,9.6-9.7c5.4-1.6,1.6,5.1,9.5,3.2
					c7.1-1.8,14-17.6,19.1-22.6c2.8,1.8,9,5.1,12.7,6.5v6.4c12.4,5.8,22.7,1.5,31.8,9.7c2.1,1.8-0.1,8.4,3.2,9.7
					c1.7,0.6,8.7-1.4,9.6,0c4.3,6.8-0.6,12.9,3.2,19.3c4.6,7.9,20.7,11.8,6.3,22.6c-3.6,2.6-2.9,2-9.5,3.2c5.6,3.2-6.4,3.2-6.4,3.2
					s5.6-5.4-3.2-6.4v-3.2c-3.7-1-9.2,1.2-12.7,0c-4.6-1.7-2.3-8.6-12.7-6.4l-3.2,3.2l3.2,9.7c-11.2,0.3-13-1-22.3,0
					c3.3,4.7,1.3,5.4,3.2,12.9c10.2-1.9,6.7,5.3,9.5,6.5c-10.7-1.7-16.3-2.4-25.5-3.2v6.4c18.2,6.5,19.9,27.6,19.1,25.8
					c3.5,2.1,13.8,12.1,15.9,12.9c3.5,1.2,9.3-1.6,12.7,0c-1.2,4.7-1.9,9.1-2.3,13.2c0,0-0.7,6.8-0.4,8c0.9-1.2-1,2.1,2.4-2.9
					c6.9-10.5,11.4-10,18.9-10.9c20.8-2.5,25.4,20.2,29.5,21.9c4.2,1.7,19.1,0.8,19.1,0.8l2.8-100c0,0,16.6-9.2,21.6-9.2
					c5,0,11.6-4.2,16.6-3.4C974.7-111.2,979-110.6,981.7-110.3z M869.8-80.7c6.1-2-2.5,11-3.2,12.9c-11.4-1.8-17.4-9.2,0-6.4
					C868.2-80.1,863.9-78.9,869.8-80.7z M1414.2-174.2c14.9-2.3,5.2,12,6.4,12.9c-5.4,2.9-1.5,0-3.2,6.4c-3.2,0-9.8-1.1-12.7,0v6.5
					c-4.5,1.1-26.9,0.6-35,0c-4-0.4-16.8-7.8-22.3-6.5c-0.5,0.1,0,9.2,0,9.7c-7.5,2-16.3,2.9-22.3,6.4c-2.8,1.6-1.2,7.9-3.2,9.7
					c-4,3.4-10.9,0.4-15.9,3.2v6.4c-9.6,5.3-7.3,6.9-12.8,16.1c-3.4-1.9-2.6,7.9,6.4,6.4c-0.7,1.2-4.9,4.7-3.2,6.4
					c-1-2.8-8.7-3.7-9.6-6.4c-1.7-4.6,1.6-11.6,0-16.1c-1.9,0-7.9,1-9.6,0c-0.9-0.6,14.4-24.5,15.9-25.8c4.6-4.3,7.1,1.4,9.6,0
					c2.9-1.9,9.6-17.2,15.9-19.3c28.6-9.7,40.3,3.6,63.7,3.2l3.2-6.4c4.1-1,5.1,5.8,12.7,3.2
					C1403.8-160.1,1404.2-172.8,1414.2-174.2z"/>
				
					<path fill="#EDEDED" stroke="#FFFFFF" stroke-width="2" stroke-linecap="round" stroke-linejoin="round" stroke-miterlimit="10" d="
					M513.3,283.1c0,0,6-8.6,4.1-11.8l-0.2-0.4c0,0,9.5-7.2,12.8-3.8c3.3,3.4,17.1,4.1,17.1,4.1l31.5-23.5l11.6,36.1l-1.3,5.2
					l-41,10.8l12.8,21.1c0,0-10,5-10.8,10.1c-0.8,5-5.8,4.2-8.3,9.2c-2.5,5-7.5,8.4-7.5,8.4l-21,10l-21.1-5.5l0.4-3.7l4.4-4.1
					c0,0,14.5-15.9,13.3-21.8c-2.5-11.8,4.6-25.4,4.6-25.4s-0.2-6.1-0.5-9.9C514.1,285.8,513.5,284.9,513.3,283.1z"/>
				
					<path fill="#EDEDED" stroke="#FFFFFF" stroke-width="2" stroke-linecap="round" stroke-linejoin="round" stroke-miterlimit="10" d="
					M-76.7-56.2c4.5-0.3,9.5,0.9,14-1.9c4.6-3,4.2-13.5,9.6-16.1v-3.2c3.3-1.4,9.7,1.9,12.7,0C-8.4-59.3-13-27,10.4-3.4h6.4
					c0,0,20.3,23.2,25.5,25.8c9.4,4.6,18,2.9,25.4,9.7v6.4c3.8,1.3,8.3-0.1,9.6,3.2c0.8,2.1-1.5,8.3,0,9.7
					c5.3,4.9,15.3,3.1,19.1,9.7c3.1,5.3,7.1,37.4,0,32.2c-2.9,7.7-2,12.6-3.2,19.3c-18.9,3.6-50.2,0.1-63.7,0c1.8,1.4,1,8,3.2,9.7
					c14.5,11.1,30.8,16.9,47.8,25.8c2.2-6.8,5.4-34.7,3.2-25.8v-6.4c3.6-2.5,14.5,2.2,19.1,3.2c4.4-8.2,22.3-33.3,19.1-45.1
					c-0.4-1.5-9.1-7.2-9.5-9.7c-1.7-6.9-1.3-4.6,0-9.7c4.7-19.9,15.6-9.3,28.6-3.2v6.4c13.5,3.6-1.9-21-3.2-22.6
					c-3.9-4.5-11.1-9.8-15.9-12.9c-2.1-1.4-7.2,0-9.5,0c-2.3-5.4-5.8-6.2-9.6-9.7c4.6-2.4,0.5-11,0-12.9
					C79.7-2.8,70.6-4.6,61.4-19.5c-4.4-7-1.9-14.3-6.4-22.6c-5.6-10.3-25-20.3-35-25.8c1.3-3.6-1-9.3,0-12.9
					c0.9-3.4,7.1-11.8,9.5-16.1c-1.4-0.7-4.6-4.9-6.3-3.2v-6.4c12.7-4,16.8-2.6,28.6-6.5c-0.6-0.1-1.5-0.4-1.5-0.4
					c-5-4.2,0.3-9.2,0.3-14.2c0-5,1.4-8.4-6-8.4c-7.5,0,2.5-13.4,2.5-13.4s-9.9-0.8-14.9,0c-5,0.8-5,2.5-9.1,1.7c-4.1-0.8,0-5-8.3-5
					c-8.3,0-2.5,0.8-9.1-2.5c-6.6-3.4-4.9-3.4-5,0.8c0,4.6-10.1-2.3-12.6-1.9c0.9,2.9,1.8,3.7-2.2,7c-5.1,4.1,6.6,1.7,2.5,6.7
					c-4.1,5-2.5,3.4-6.6,0.8c-4.1-2.5-8.3,0.8-9.9,5c-0.8,5.9-8.5,0-8.5,7.5c0,7.5,2.7,5-0.6,7.6c-3.3,2.5-3.5-0.9-10.1-2.5
					c-6.6-1.7-4.2-0.8-8.3-6.7c-4.1-5.9-4.1,0.8-4.1,5.9c0,5-10.6,4.2-13.9,9.3l-5,8.4c0,0-1.7,7.5-7.5,7.5c-5.8,0-5,11.8,0,11.8
					c5,0-2.5,14.3,0.8,17.6c3.3,3.4,13.3-2.5,9.9,2.5c-3.3,5-0.8,0.8-5.2,5.9c-3.3,3.8,2.7,4.2,2.7,4.2L-76.7-56.2z"/>
				
					<path fill="#EDEDED" stroke="#FFFFFF" stroke-width="2" stroke-linecap="round" stroke-linejoin="round" stroke-miterlimit="10" d="
					M781.8,321.9l-4.3-5.3v-10.9h-5.8c-2.5-6.7-2.5-10.1-1.7-16.8c0.8-6.7-0.8-6.7-5.8-13.4c-5-6.7-5-7.6-7.5-12.6
					c-2.5-5-4.1-2.5-10.8-2.5c-6.6,0,2.5-1.7,0.8-6.7c-1.7-5-10.8-13.4-16.6-15.1c-5.8-1.7-6.6-15.9-10.8-18.5
					c-4.2-2.5-1.7-6.7-5-10.1c-3.3-3.4,6.6,0,2.5-10.9c-1.8-4.8,5,1.7,7.4-1.7c2.5-3.4,1.7-6.7-0.8-12.6c-2.5-5.9,5-0.8,9.1-4.2
					c4.1-3.4-1.7-5.9-1.7-5.9s-4.6,2.1-9.5,0.1c-4.1-1.7-4.6-3.5-8.7-2.6c-4.1,0.8-3.3-4.2-7.5-4.2c-4.1,0-0.8-6.7-5-7.6
					c-4.1-0.8,2.5-6.7-2.5-6.7c-5,0,1.6-5.9-0.8-9.2c-2.5-3.4-3.7-10.4-3.7-10.4l-6.9-2.5l-7.7,4.7l-3-5.8l-4.3-2.2
					c0,0-2,1.6-5.2,5.9c-3.2,4.3-9.3-5.5-13.2-2.2c-1.6,1.3-3.6,1.6-5.4,1.5c0,0,0.1,10-4.7,13.9c-4.7,3.9-10.2,5.4-10.2,12.4
					c0,7,2.4,5.4,1.6,10.8c-0.8,5.4-6.3,5.4-3.9,13.1c2.4,7.7,3.2,4.6,0,10.8c-3.1,6.2-3.1,7.7-4.7,12.4c-1.6,4.6-3.9,7-3.9,7
					l-43.3,34l11.2,36.2l57.6,33.4l1.7,6.7H664l2.5,14.3l15.8,8.4l37.3,5c0,0,14.5-9.9,18.7-15.8c4.1-5.9,10.8-17.6,15.8-16
					c5,1.7,13-0.1,13-0.1c6.2,3.1,8.2,4.7,13.8,8.6C781.5,325.7,778.8,322,781.8,321.9z"/>
				
					<path fill="#EDEDED" stroke="#FFFFFF" stroke-width="2" stroke-linecap="round" stroke-linejoin="round" stroke-miterlimit="10" d="
					M1037.6,469.9l3.7-21.5l13.3-18.5l11.6-4.2l13.3-3.4l8.3-6.7v-7.6l-10-5l-0.8-12.6l-6.6-10.1l-8.3-2.5l-9.1-13.4l-3.3-7.6l2.5-5
					l-8.3-22.7l22.4-26v-6.7l-4.1-5l-19.1-2.5l-0.8-5l-1.1-11.6l-4.1-12.6l-8-9.4l-1.7-10.1l8.3-5.9l-7-4.1l-1.3-5.2l2.5-16l4.1-9.2
					l5-2.5l9.1-1.7l0.8-6.7l5-9.2l4.1-10.1l-2.8-9.1v-10.1l-11.6-2.5l-4.1-9.2l-4.7-6.8l-6.9-4.9l-11.6-7.6l-13.8-6l-14.9-7.5
					l-5-1.7l-14.1-2.5l-22.7-5l-10.8,4.2l-8.3,2.5l-11.6-0.8l-5.4,5l-4.2,5l-1.6,4.2l-3.7,8.5l-12.8-0.6c-0.2,7.8-0.8,15.8-1.4,23.5
					c-7.2-1.2-4.3-5.7-6.4-6.4c-7.2-2.5-18.6,4.1-25.5,6.4c0.2,0-12.5,1.2-15.9,0c-9.1-3.3-17.9-10.9-25.5-16.1
					c5.2-0.3-6.3-3.2-6.3-3.2c-5-1.8-2.5-0.7-9.6,3.2c-3-2.4-1.2-6.4-6.4-6.4c-1.3-4.9-5.1-27-9.5-29c0,0-3.6-1.6-2.9-4.4
					c0,0-2.4-4.8-6.5-7.3c-4.1-2.5-5-6.7-5-6.7s-2.5-10.9,5.8-9.2c4.7,1,2.5-2.5,0.8-5.9c-1.7-3.4-2.5-3.4-6.6-5.9
					c-4.2-2.5-3.3,5.9-8.3,6.7c-5,0.9-10.8,9.2-10.8,9.2s-0.8,1.7-5,4.2l-8.4,5c0,0-4.9,0.9-8.2,0.9c-3.3,0-3.3-1.7-7.5-4.2
					c-4.1-2.5-2.1-5.1-7.1-9.3c-5-4.2-4.5-7.5-4.5-7.5l-4.6,7.5c0,0-4.1,0-7.5-3.4c-3.3-3.4-0.8,1.7-5.8,5c-5,3.4-2.5,5.9,0,10.1
					c2.5,4.2-0.4,1.8,0.4,6c0.8,4.2-2.5,5.9-5,10.1c-2.5,4.2,2.5,11.8,5.8,15.1c3.3,3.4,2.1,8.3,4.6,12.5c2.5,4.2-1.2,8.9-1.2,8.9
					s1.2,7,3.7,10.4c2.5,3.4-4.1,9.2,0.8,9.2c5,0-1.7,5.9,2.5,6.7c4.1,0.8,0.8,7.6,5,7.6c4.1,0,3.3,5,7.5,4.2
					c4.1-0.8,4.6,0.9,8.7,2.6c4.9,2,9.5-0.1,9.5-0.1s5.8,2.5,1.7,5.9c-4.1,3.4-11.6-1.7-9.1,4.2c2.5,5.9,3.3,9.2,0.8,12.6
					c-2.5,3.4-9.3-3.1-7.4,1.7c4.2,10.9-5.8,7.6-2.5,10.9c3.3,3.4,0.8,7.6,5,10.1c4.2,2.5,5,16.8,10.8,18.5
					c5.8,1.7,14.9,10.1,16.6,15.1c1.7,5-7.5,6.7-0.8,6.7c6.6,0,8.3-2.5,10.8,2.5c2.5,5,2.5,5.9,7.5,12.6c5,6.7,6.6,6.7,5.8,13.4
					c-0.8,6.7-0.8,10.1,1.7,16.8h5.8v10.9l4.3,5.1c5.4,1.2,13,10.5,18,10.2c0.9-0.1,6.7-6.2,9.5-6.4c6.8,14.8,9.8,26,15.9,41.9
					l6.4,3.2c0.8,2.2-1.6,8.1,0,9.7c2.3,2.3,8.1-0.3,9.5,3.2c1.4,3.4-1.8,9.6,0,12.9c0.8,1.5,11.4,4.7,12.7,6.4c1.6,2.1-1.3,7,0,9.7
					l15.9,12.9c9.9,5.5,35,6.4,35,6.4c10.7-6.2,20.3-10.1,31.8-16.1c-5.9-3.6,3.2-3.2,3.2-3.2c3.1,4.2,10.3,5,12.7,9.7
					c4.7,9.1-0.4,22.4,6.4,29c17.3,16.9,48.5,5.9,63.7,9.7c2,0.4,8.5,9.5,9.5,9.7C1032.2,470.4,1035.1,471,1037.6,469.9z
					 M701.2,106.2c19.2,2.2,22.5,23.2,28.6,38.7c-0.8,0.4-12.7,6.2-12.7,6.5c-3.5-8.5-9.5-18-12.7-25.8h-3.2
					c-1.4-5.3,7.2-9.2,3.2-12.9c-0.7-0.7-6.4-3.1-6.4-3.2c5.8-3-1.5-4.1-1.5-4C696.4,105.5,697.6,105.8,701.2,106.2z"/>
				
					<path fill="#EDEDED" stroke="#FFFFFF" stroke-width="2" stroke-linecap="round" stroke-linejoin="round" stroke-miterlimit="10" d="
					M1309,283.8l10.6-8.4l-1.5-6.9l16.6-10l9.1,3.1l9.1,7.7l10.6-3.8l7.6,11.5l7.6-3.8l-0.8,6.1l9.8-3.8l6.8,6.9l5.3-3.1l4.5-0.6
					h0.9c0,0,0,3.5,0,3.5l-3.3,10.9l1.7,5.9l-4.1,5l3.3,9.2l10,4.2l8.3,5.9l10.8,1.7l8.3,6.7l6.5,6.9l-12,8.7l-7.9,14.1l2.5,11.6
					l12.1,4.8l2.7,8.5l11,4.7l11,4.7l14,7l12.3,0.7l8.9,6.7l6.8,7.7l9.2,0.5l8.7,9.8l16.4-0.2l18,9.3l11.3,0.6l10.1,2.6l9.3-1.6
					l4.4-5l0.3-6.2l-5.8-6.5l4.3-6l0.3-13.2l7.1-3.6l7.5,0.8l6.6,10.9l1.7,5l7.5,8.4l8-1.9l10.3-2.1l12.3,4.2l18.5-1l6.2-3.1v-9.3
					l-3.2-15.8l10-1.9l11.8-5.8l7.6-5.6l10.2-0.9l7.2,2l7.4-6.8l8.2,1.3l11.7,3.7l-0.8,11.8l5,5l7.5-1.7l4.8,1.6l8,3.5l6.4,1.9
					l4,7.2l1.7,7.3l-0.3,13.2l-7,12.7l-7.7-1.9l-12.4,1.7l-6.2,14.2v6.3l-8.8,8.2l-6.2,8.9l-8.8,3.8l-3.5,3.8l5.3,4.4v5.7l-7.9,10.8
					l-3.7,14.5l-12.4-8.4v21l3.3,8.4l0.8,10.1l-0.8,6.7l-3,4.7l-5.3,5.1l-5.3-4.9l-6.1,3.4l-1.7-10.9v-11.8l-9.2-15.7l-2.5,10.9
					h-9.9l-1.7-7.6l3.3-16l5.8-10.1c0,0,0.8-8,5-10.9l-3.3-9.2l11.6-8.4h-14.9l-11.6,3.4l-11.6,0.8h-14.1h-6.6l-1.7-16.8l2.5-14.3
					l-7.5-3.4l-10.8,2.5l-10.8-10.1l-6.6,8.4l9.1,11.8l-3.3,9.2l-9.9,4.2l-8.3,5l2.6,15.7l2.1,5.9l12.7,5.9l4.2,7.9l-3.2,15.8
					l6.3,7.9v14.8l-4.2,7.9l3.3,17.2l-1.2,0.5c0,0-11.8-12.2-19.1-9.7v6.4c-10,5.6-11.8,4-15.9,16.1c0,0-8,0.7-3.2,3.2
					c2.5,1.2,5.4,4.4,3.2,9.7c-2.7,5.9-22.2,20.8-28.6,22.6c-3.3,0.8-10-1.8-12.7,0c-1.1,0.6,2.7,5.5,3.2,6.4
					c-2.3,2.1-7.1,1-9.5,3.2c-6.3,5.5-10.1,22.2-15.9,29c-3.4,3.8-14.2,4.4-15.9,9.7v6.4c-6.4,3.7-13.9-1.1-19.1,3.2
					c-5.7,4.6-1.9,12.8-6.3,19.3c-3.9,5.5-10.1,2.3-15.9,6.5c-3.7,2.4-4.4,11.4-9.5,12.9c-3.5,0.9-9.6-1.7-12.7,0
					c-3.5,1.7-2.2,7.5-6.4,9.7c0.5,2.9,6.4,16.1,6.4,16.1c-8.5,4.2-7.1,40.9-6.4,45.1c0,0.4,6.5,14.7,6.4,16.1
					c-0.6,4.5-11.1,17.9-12.7,22.6c0.1,0,0,9.2,0,9.7c0,0,1.8,22.4,3.2,32.2c-3.2,2-6.2-1.4-9.6,0c-10.1,3.8-7.2,16.9-12.7,25.8
					c-2.3,3.5-6.2,0.6-9.5,3.2c-2.5,1.8-8.2,16.6-9.5,19.3c-1.1,0-8.8-0.7-9.6,0c-1.8-3-1.1-6.1-3.2-9.7c-1.8-2.9-3.8-5-6.4-9.7
					c-1.8-3.2-12.3-13.9-12.7-16.1c-1.7-8.5,6.3-6.5,3.2-16.1l-6.3-3.2c-5-7.8-2.6-13.5-6.4-22.6c-4-9.6-15.4-20.5-19.1-29
					c-7.4-16.8-4.5-35.8-9.5-54.8c-3.6-13.2-16.5-28.6-19.1-41.9c-1.3-6.2,1.1-13.1,0-19.3c-1.7-8.9-10.4-45.3-9.6-41.9
					c-0.6-7.8-5.9-15.6,0-19.3c-0.9-2.9-9.4-18-9.5-19.3c-1-11.7,9-21.5,9.5-29c0.7-10.2-5.6-9.1-6.4-12.9c-1-4.1,3.2-12.9,3.2-12.9
					c-0.5-0.3-6.4-3.2-6.4-3.2c-0.3-3.7,3.8-8.8,3.2-16.1l-9.5,6.5c-2.2,7.1,2,15.3,0,22.6c-3.4,11.8-21.1,13.9-31.9,19.3
					c-4.7-4.5-11.6-11.3-15.9-16.1c-5.4-6.1-8-12.4-12.7-19.3c-6.6,3.3-0.7-9.4,0-9.7c7.5-3.8,12.7,0.7,19.1-3.2
					c7.4-4.7,10.7-18.3,15.9-25.8c-20.5,16.2-21.6,13.2-47.7,6.4c-1.3-5.8,0.1-15-3.2-19.3c0,0-2.4-0.8-3.9-1.3l7.2-8.1l4.2-11.8
					l12.4-3.4l12.4-5.9l-2.5-12.6l-9.9-10.1l-1.7-6.7l7.4-9.3l-12.4-14.3l7.5-7.6l8.3-6.7l2.5-7.6l8.3,5.9l8.3-10.1l8.9-8.5l6.6-9.2
					l5-10.9l13.3-6.7l6.6-7.6l3.3-9.2l9.9-7.6l1.7-10.9l1.7-13.4l8.3-9.2l5-9.2v-10.9l-6.4-6.4L1309,283.8z"/>
				
					<path fill="#EDEDED" stroke="#FFFFFF" stroke-width="2" stroke-linecap="round" stroke-linejoin="round" stroke-miterlimit="10" d="
					M187.4,65.6c6.1,8.1,13.5,17.7,14.1,18v3.2c3.4,1.3,6.4-2.1,9.5,0c-2,0.9,2.6,6.8-3.2,3.2c0,2,1.1,18.6,0,19.3
					c4-0.7,4.5-5.8,6.4-6.4c14.8-5.2,25,9.6,31.8,12.9c-16.3-5.4-17.4-2.1-31.8-3.2c3,12.8,5.5,18,6.4,29c6.4,0.3,16-0.6,25.4,0
					c-0.1-0.1-6.2-8.6-3.2-9.7c4.4-1.8,11.4,1.7,15.9,0l-3.2-9.7c0,0-11-0.1-3.2-3.2c11.1-4.5,8.2,0.6,19.1,3.2c0-1-0.4-12.9,0-12.9
					c-1.8-0.5-6.4-3.2-6.4-3.2c3.3,1.7,9.3-1.5,12.7,0c2.6,1.1,8.9,17.8,6.4,6.4c-1.1-4.8-0.4-9.5-3.2-12.9
					c-2.2-2.6-9.9-1.5-12.7-3.2c-3.1-2-6.3-12.1-9.6-12.9c-7.9-2-4.4,5-9.6,3.2c-1.5-0.6,1-5-3.2-6.4V74c18.4,4.3,1.6-10.8-3.2-19.3
					c-1.2-2-3.2-6.4-3.2-6.4s16.4-28.1,9.5-6.4c7,1.5,3.2,3.7,6.4,9.7c5.9-2.7,1.4-0.2,3.2-6.4c19.5-2.4,22.7,1.7,6.4-19.3
					c24.7,2.3,26.7,1.5,47.8,0c1.9,5.7,0.8,5.3,3.2,9.7c0,0,8.8-10.1,8.8-16c0-5.9,5.8,1.7,10.8-1.7c5-3.4,1.7-9.2,1.7-9.2l-7.4-4
					c0,0-11.7-3.6-8.4,4c3.3,7.6-1.7,4.2-6.6,4.2c-5,0-10,0.8-10,0.8s0.8-8.4-6.6-8.4c-7.5,0-9.1-3.4-13.3,3.4
					c-4.1,6.7-5.8,6.7-11.6,6.7c-5.8,0-13.2-3-13.2-3s-4.6,1.4-3.1,5.8c1.6,4.3-5.4,4.3-5.4,4.3s-10-0.7-10.8,3.6
					c-0.8,4.3-3.9,0-6.9,4.3c-3.1,4.3-2.3,5.1-7,5.1c-4.6,0-20.2,4.3-20.2,4.3l1.9,9.1L204,58c-1.7,3.4-6.6,2.5-6.6,2.5
					s3.3,5.1-0.8,5.1L187.4,65.6z M255.5,93.3c1.3,0.6,11.5,15.3,0,9.7C255.2,102.8,248.2,90,255.5,93.3z M249.2,86.9
					c4.5,0.9,3.9,5.5-3.2,6.4C246.9,89.8,243.4,85.7,249.2,86.9z M182.3,64.3l3.2,6.4C184.3,66.3,188.5,64.3,182.3,64.3z
					 M261.9,183.6l-3.2,9.7c21,4.1,29.3,7.7,54.1,9.7c-0.6-1.9-4.4-12.5-3.2-12.9C292.4,189.5,278.9,188.8,261.9,183.6z
					 M191.9,109.4c0.9,0.1,7.3,5.2,9.6,6.5v-6.5C198.5,108.3,194.6,109.9,191.9,109.4z M309.6,103l3.2,6.4
					C311.6,105,315.8,103,309.6,103z M309.6,77.2c0.8,0.3,6.4,9.7,6.4,9.7c11.8,4.3,3.2-9.7,3.2-9.7
					C317.1,77.2,311.7,78.1,309.6,77.2z"/>
				
					<path fill="#EDEDED" stroke="#FFFFFF" stroke-width="2" stroke-linecap="round" stroke-linejoin="round" stroke-miterlimit="10" d="
					M598.7-42.7c8.2,2.7,16.8,4.6,22.8,10.3c2.1,2,4.2,15,6.4,16.1c1.1,0,2.2,0,3.2,0c1.5,6.8,0.2,13.5-2.9,19.7
					c3.1,1.1,8.6,2.6,12.1,0.8c5-2.5,6.6,0,11.6,0c5,0,9.1,4.2,9.1,4.2s6.6,0,11.6-1.7c5-1.7,3.7,5,3.7,5l7.5,1.3
					c0,0,9.5-2.1,12.8-2.1c3.3,0,12,0.8,12,0.8s6.6-5,8.3-9.2c1.7-4.2,2.5-2.5,8.3-2.5c5.8,0,10,7.6,10,7.6s7.5,8.4,9.9,5
					c2.5-3.4,0.8-7.5-3.3-10.9c-4.1-3.4,5-7.6,5-7.6s-2.5-3.4-5.8-7.6c-3.3-4.2-6.6,0-11.6-1.7c-5-1.7,2.5-9.2-1.7-10.1
					c-4.2-0.8-3.3-2.5-8.3-5c-5-2.5-4.2-5-7.5-9.2c-3.3-4.2-5.8-5-10.8-2.5c-5,2.5-5.8,7.6-9.1,3.4c-3.3-4.2-8.3,1.7-15.7,1.7
					c-7.5,0-10.8-8.4-16.6-12.6c-5.8-4.2-4.1-5.9-9.9-5.9c-5.8,0-9.1,0.8-16.6-0.8c-7.5-1.7-11.6-0.8-14.1-5
					c-2.5-4.2-10.8-0.8-14.9,1.7c-4.1,2.5-5.4,14.3-5.4,14.3L598.7-42.7z"/>
				
					<path fill="#EDEDED" stroke="#FFFFFF" stroke-width="2" stroke-linecap="round" stroke-linejoin="round" stroke-miterlimit="10" d="
					M-107.8-240.2c0,0-1.8,6.7,2.3,7.6c4.1,0.8,8.3,2.5,8.3,2.5s13.3-5,17.4,2.5c4.2,7.6,5,1.7,10.8,3.4c5.8,1.7,10.1,1.7,10.1,1.7
					s1.5,8.4-1.8,13.5c-3.3,5-3.3,6.7-1.7,11.8c1.7,5-2.9,12.7,2.1,20.2c0,0-2.3,5.3-6.8,1.6c-4.1-3.4-3.3,5-3.3,5s1.7,2.5-5.8,4.2
					c-7.5,1.7-11.6,10.1-14.9,16c-3.3,5.9-7.6,9.2-11,14.3c-3.3,5-7.5,16,1.7,9.2c9.1-6.7,9.1,0.8,9.1,0.8c0,5,9.9,2.9,11.8,7.6
					c1.7,4.2,6.4,1.7,6.4,1.7l-5.6,9.3c0,0-1.7,7.5-7.5,7.5c-5.8,0-5,11.8,0,11.8c5,0-2.5,14.3,0.8,17.6c3.3,3.4,13.3-2.5,9.9,2.5
					c-3.3,5-0.8,0.8-5.2,5.9c-0.7,0.8-1.1,1.6-1.2,2.3c-0.1,0.8,3.6,1.4,3.9,2l-2.9,1.8l-3.9-1.4l-5.8-2.1l-3.3,3.4l5.2,10.8
					c-1.9,3.3-3.9,6.1-5.8,6.7c-18,4.8-28.4-11.9-41.4-12.9c-9.2-0.8-8,3.4-15.9,3.2c-1.7,3.5-8.9,7.5-9.6,9.7
					c-1.3,3.7-1.1,8.1-0.5,12.8c-10,0-5.6,6-12.2,6c-6.6,0-11.8,4.2-14.2-0.9c-2.5-5-6.6,0-6.6,0s-7.5-1.7-14.9-5
					c-7.5-3.4-8.3,0.8-13.3,0.8c-5,0-1.8-5.9-8.5-5.9c-6.6,0-4.2-1.7-11.6-3.4c-7.5-1.7-6.6,0-6.6-5c0-5-4-8.4-4-8.4
					c6.5-27.7,9-41.2,6.5-78c-9.2-4.3-24.6-7.5-28.7-16.1c-3.5-7.2,2.7-16.1,3.2-19.3c-1-0.7-8.5,0-9.6,0c-2.7-9.1,0.3-2.6-6.4-6.5
					l3.2-9.7l-12.7,6.4v-6.4c-16.6-8-10.1-5-28.6-6.4c3-2.6,0-12.9,0-12.9c3.7-2,7.4-1.4,9.5-3.2c-1.8-1-9.5-6.4-9.5-6.4h3.2
					c8.1-4.1,31.9-7.5,28.7-6.4c6.1-0.2,0.2,6.6,9.5,6.4l9.5-6.4c9-1.2,10.1,2.9,19.1,3.2v-6.4c-1.2-5.8-8.7-21.2-9.6-25.8
					c-4-1.1,6.3-9.5,12.7-6.4c0.1,0,0,9.2,0,9.7c6.5,0.7,20.3,5.9,31.8,0c0.6-0.4,1.6-11.7,3.2-12.9c6.2-4.9,13.9-3.5,22.3-6.4
					c-0.7-9.6-2.8-20.7-3.2-25.8c5.7-2.4,11.8-4.7,17.3-6.2l4.7,5.3c0,0,3.3-1.7,5,3.4c1.7,5,2.5,8.4,2.5,8.4s3.3,0,9.1,6.7
					c5.8,6.7,9.1,0.8,9.1,0.8s-0.8,4.2,4.2,9.2c5,5,6.6,3.4,10.8,5.9c4.2,2.5,9.1-6.7,9.1,0c0,6.7-0.8,8.4,4.2,8.4
					c5,0,5.8,0.8,5.8,0.8l8.7-1.7L-107.8-240.2z M3206.2,1688.8c0.1,0,0,9.2,0,9.7C3216.6,1703.7,3209,1690,3206.2,1688.8z
					 M3148.9,1669.5c5.1,12.8,5.3,22,12.7,32.2c3.7,5.2,17,10.1,19.1,16.1v6.4c6.6,5.1,20.3,5.6,28.6,9.7c-0.7-0.7,0-8.8,0-9.7
					c-5.8-3.1-5.9-3.1-9.5-6.4c-9-8.1-21.7-12.7-28.6-22.6c-1.7-2.3-9.3-22.4-9.6-22.5C3158.7,1670,3151.6,1672.1,3148.9,1669.5z
					 M904.9,1685.6l-3.2,12.9c4.9-1.1,7.4,2.3,12.7,3.2c0-0.5-0.5-9.6,0-9.7C913.3,1691.2,905.3,1686.7,904.9,1685.6z M-37.3-38.8
					c-1.9,1.4-1.2,7.9-3.2,9.7c-20.6,17.6-13.4,19-6.4,38.7c5,0.3,11.4-0.7,12.7,0c0-5.9-1.3-13.6,0-19.3
					C-20.5-10.7-36.2-34.2-37.3-38.8z"/>
				
					<path fill="#EDEDED" stroke="#FFFFFF" stroke-width="2" stroke-linecap="round" stroke-linejoin="round" stroke-miterlimit="10" d="
					M645.3,801.3c0,0-12.5,16.8-10.8,22.7c1.7,5.9-6.2,13.1-4.5,18.2c1.7,5,7.5,5.9,12.4,5.9c5,0,7.5-1.7,7.5-1.7l7.9,0.3l-6.2,9.8
					l9.1,11.7c3.3,4.2,1.7,8.4,6.6,11.8c5,3.4,5.8,7.6,14.1,10.9c8.3,3.4,55.2,26.3,55.2,26.3l30.4-2.6l-55.7,85.4l-25.7,0.8
					l-9.1,6.7l-19.9,0.8l-4.2,4.2c0,0-18.2,5-24,2.5c-5.8-2.5-5.8-8.4-5.8-8.4s-7.1,9.6-12.9,6.2c-5.8-3.4-8.3,7.6-8.3,7.6
					s-6.2,0.5-11.2,0.5c-5,0-8.8,1.2-12.1-2.2c-3.3-3.4-17.4-2.5-17.4-2.5s-10,5-14.1,0.8c-4.2-4.2-10.8,2.5-14.1,1.7
					c-3.3-0.8-14.9-1.7-14.9-1.7l-1.7-6.7c0,0,0.8-11.8-5-11.8c-1.5,0-3.1,0-5-0.2c-5.4-0.5-11.6-2.3-12.8-8.6
					c-1.7-8.4-8.3-15.1-8.3-21.8c0-6.7-1.7-7.5-5.8-10.9c-4.1-3.4-5.8-6.7-9.1-12.6c-3.3-5.9-6.6-5.9-10.8-7.6
					c-4.1-1.7-15.4,1.2-13.8-3.9c1.7-5,3.3-11.7,3.3-11.7s0.8-0.8,7.5-1.7c6.7-0.8,8.3-3.4,8.3-3.4s4.2-9.2,4.2-13.4
					c0-4.2,1.7-17.6,0.8-22.7c-0.8-5,9.6-17.9,9.6-25.5c0-7.5,0.8-14.3,0.8-14.3s5-4.2,9.1-5.9c4.1-1.7,6.6-3.4,8.3-7.6
					c1.6-4.2,3.3-8.4,5.8-13.4c2.5-5,6.6-10.9,6.6-19.3c0-8.4,8.3-13.4,10.8-19.3c2.5-5.9,10.8-16.8,10.8-16.8l11.6-4.2
					c0,0,8.3-3.4,10,0.8c1.6,4.2,3.3,6.7,3.3,6.7l4.1-20.1c0,0,3.3-3.4,8.3,0c5,3.4,8.3,11.8,12.4,11.8c4.2,0,7.5-3.4,9.9,1.7
					c2.5,5,16.6,5,22.4,7.6c5.8,2.5,7.5,8.4,14.1,15.1c6.6,6.7,6.6,13.4,9.1,16.8C639.1,797.7,645.3,801.3,645.3,801.3z
					 M554.7,799.2c16.7,1.2,6.3,11.5,0,16.1C549.1,811.8,539.6,798.1,554.7,799.2z"/>
				
					<path fill="#EDEDED" stroke="#FFFFFF" stroke-width="2" stroke-linecap="round" stroke-linejoin="round" stroke-miterlimit="10" d="
					M578.2,643.6l-8.7,10.6l-11.6-1.7c0,0-9.2,4.8-11.7,9.1c-2.5,4.2-0.8,9.2-5,9.2c-4.1,0-0.8,2.5-2.5,10.1
					c-1.7,7.6-0.8,8.4-0.8,16.8c0,8.4-4.1,10.9-5.8,18.5c-1.7,7.6-3.3,14.3-1.7,17.6c1.7,3.4,0.8,24.4,0.8,24.4l11.6-4.2
					c0,0,8.3-3.4,10,0.8c1.6,4.2,3.3,6.7,3.3,6.7l4.1-20.1c0,0,3.3-3.4,8.3,0c5,3.4,8.3,11.8,12.4,11.8c4.2,0,7.5-3.4,9.9,1.7
					c2.5,5,16.6,5,22.4,7.6c5.8,2.5,7.5,8.4,14.1,15.1c6.6,6.7,6.6,13.4,9.1,16.8c2.5,3.4,9.3,7.5,9.3,7.5l3.5-3l5.8,4.2l14.3-7
					c-0.2-3.3-1.3-7.3-0.2-9.7c-6.5-5.2-18.9-8.7-22.3-16.1c-3-6.3,1.2-12.1-3.2-16.1c-4.1-3.7-12.7-2.1-15.9-6.4
					c-3.8-5.1-2.6-14.8-6.4-19.3c-1.3-1.5-7.5,0.7-9.5,0c-3.5-1.4-10.3-16-12.7-19.3c-1.9,0.9-4.1,4.3-6.4,3.2c0-1.1,0-2.1,0-3.2
					c-1.6-0.9-5.8-1.8-6.4-3.2C580,691.4,584.5,658.7,578.2,643.6z"/>
				
					<path fill="#EDEDED" stroke="#FFFFFF" stroke-width="2" stroke-linecap="round" stroke-linejoin="round" stroke-miterlimit="10" d="
					M467.8,202.5c-2.5,3.1-4.5,5.6-5.4,6.8c-5.8-1.4-13.3,0-19.1,0c3-1-6.4-6.5-6.4-6.5c0.6-1.3,1.7-2.3,2.5-3.4c3.5,1,6.5,4.1,10,3
					c2.4-0.8,2.6-3.4,5-4.2c2.1-0.7,3.6-0.5,5.8,0C463.2,198.8,465.2,201.2,467.8,202.5z M467.8,202.4c7.4-9.1,18.8-22.8,16.9-22
					c-2.6,0.9-10.3,9-12.7,9.7c-14.8,4.1-19,2-31.8,6.4c0.4,1.3,0,2.2-0.7,3c3.5,1,6.5,4.1,10,3c2.4-0.8,2.6-3.4,5-4.2
					c2.1-0.7,3.6-0.5,5.8,0C463.2,198.8,465.2,201,467.8,202.4z"/>
				
					<path fill="#EDEDED" stroke="#FFFFFF" stroke-width="2" stroke-linecap="round" stroke-linejoin="round" stroke-miterlimit="10" d="
					M56.2,749.8c0.5,0.2,1,0.5,2,1c3.4,1.9,5.2,10.8,9.5,12.9c8.9,4.1,8.2,0.2,19.1,0c0,0,8.3,14.1-6.4,9.7
					c0.1-0.1-8.4,0.3-13.4,0.3c0,0,11.4,12.2,14.8,16.4c3.3,4.2-0.8,8.4,2.5,11.8c3.3,3.4,4.2,7.6,3.3,10.9c-0.8,3.4,0,7.6,0,7.6
					s-3.3,1.7-3.3,7.6s3.3,14.3,5,17.6c1.7,3.4-0.8,9.2,1.7,13.4c2.5,4.2,2.5,9.2,2.5,9.2s-21.6-2.5-25.7,0.8
					c-4.2,3.4-6.6,10.1-3.3,12.6c3.3,2.5,11.6,16,14.9,18.5c3.3,2.5,5.8,20.2,5.8,20.2l-5.8,12.6l8.3-0.8l9.9,0.8l5.8-10.1
					c0,0,5,5.1,9.9,5.1c5,0,19.1-4.2,24.9-5.1c5.8-0.8,10.8-3.3,16.6-10.9c5.8-7.6,9.1-5.9,14.9-9.2c5.8-3.4-10-6.7-5-13.4
					c5-6.7,18.2-4.2,24-9.2c5.8-5,6.6-5,12.4-5.9c5.8-0.8,4.2-7.6,7.5-10.1c3.3-2.5,8.3-5,12.4-6.7c4.1-1.7,3.3-1.7,5.8-8.4
					c2.5-6.7,10.8-8.4,10.8-8.4s2.5-4.2-1.7-8.4c-4.2-4.2-5.8-4.2-3.3-10.1c2.5-5.9,0-9.2,0-9.2s0,0-0.8-5c-0.8-5,6.6-8.4,4.2-12.6
					c-2.5-4.2-4.2-5.9-8.3-5.9c-4.2,0-10,3.4-10-0.8c0-4.2-1.7-5.9,2.5-8.4c4.1-2.5,5.8-3.4,5.8-10.1c0-6.7,0-3.3,5-7.5
					c5-4.2,5-10.9,5-16c0-5-1.7-5.9,3.3-9.2c5-3.4,7.5-5.9,5-10.9c-2.5-5,1.7-7.6,4.1-13.4c2.5-5.9,5.8-4.2,9.9-1.7
					c4.2,2.5,14.9,0,14.9,0v-98.2L95.1,504.6l-20.7,15.1L86,572.6c0,0,13.3,16.8,8.3,22.7c-5,5.9-5,12.6-6.6,21
					c-1.7,8.4,0,87.3,0,87.3l-31.3,27.1L56.2,749.8z"/>
				
					<path fill="#EDEDED" stroke="#FFFFFF" stroke-width="2" stroke-linecap="round" stroke-linejoin="round" stroke-miterlimit="10" d="
					M-53.2,1015.1c0.7-0.1-1.4-11.1,6.4-6.4c0,0-2.5,9.9-3.2,12.9c2.9,2.5,9.8,0.6,12.7,3.2c0,1.1,0,2.2,0,3.2
					c0,5.6,8.7,12,9.5,16.1c0.7,3.4-1.1,20.7-1.6,18.3l39.9-0.3c0,0,8.3-0.8,11.6-3.4c3.3-2.5,5.8,2.5,12.4-0.8
					c6.6-3.4,14.1,0,14.1,0h16.6c5.8-2.5,11.6-0.8,14.9,2.5c3.3,3.4,3.3,3.4,7.5,3.4c4.1,0,6.6-0.8,12.4,0
					c5.8,0.8,11.6,2.5,11.6,2.5s-3.3-5.9-4.1-10.1c-0.8-4.2,5-10.9,5-10.9s-9.1-7.6-13.3-16c-4.2-8.4-5.8-6.7-12.4-13.4
					c-6.6-6.7-5-8.4-9.1-16c-4.1-7.6-7.5-14.3-9.1-21c-1.6-6.7-4.1-6.7-8.3-9.2c-4.1-2.5-0.8-5.9,5-9.2c5.8-3.4,14.1-27.7,14.1-27.7
					l5.8-12.6c0,0-2.5-17.6-5.8-20.2c-3.3-2.5-11.6-15.9-14.9-18.5c-3.3-2.5-0.8-9.2,3.3-12.6c4.2-3.4,25.7-0.8,25.7-0.8
					s0-5-2.5-9.2c-2.5-4.2,0-10.1-1.7-13.4c-1.7-3.4-5-11.8-5-17.6s3.3-7.6,3.3-7.6s-0.8-4.2,0-7.6c0.8-3.4,0-7.6-3.3-10.9
					c-3.3-3.3,0.8-7.5-2.5-11.8c-3.3-4.2-13-13.1-13-13.1l-2.5,19.3c0,0,6.6,2.5,6.6,5.9c0,3.4-3.5,19-7.7,19c-4.1,0-6.6,0.8-6.6,5
					c0,4.2-5,8.4-8.3,11.8c-3.3,3.4,1.6,5.9-0.8,10.9c-2.5,5-2.5,9.2-5.8,10.1c-3.3,0.8-3.3,9.2-3.3,9.2s3.3,8.4,0,10.1
					c-3.3,1.7-9.9,5.9-14.9,7.6c-5,1.7-5.8,2.5-6.6,9.2c-0.8,6.7,0.8,9.2-3.3,13.4c-4.1,4.2-1.7,4.2-5,10.9
					c-3.3,6.7-6.6,4.2-9.1,10.1c-2.5,5.9-5,10.1-5,14.3c0,4.2,5,8.4,0,10.9c-5,2.5-5.6,14.6-14.9,12.6c0.2-5.5,3.3-11.8-1.7-14.3
					c-5-2.5-7.5-2.5-7.5-2.5s-3.3-1.7-7.5,2.5c-4.1,4.2-13.3,3.4-14.9,8.4c-1.7,5-1.7,13.4-5,14.3c-3.3,0.8-1.7,1.7-1.7,6.7
					c0,5,3.3,5.9,3.3,5.9l-3.3,9.2l0.7,16.2C-55.9,1013.8-55.4,1015.4-53.2,1015.1z"/>
				
					<path fill="#EDEDED" stroke="#FFFFFF" stroke-width="2" stroke-linecap="round" stroke-linejoin="round" stroke-miterlimit="10" d="
					M367-68.8c0,0-4-3.8-7.9-5.1c-5-1.7-5.8-1.7-14.9,2.5c-9.1,4.2-9.4-4.2-14.4-5.1c-5-0.8-7.5,2.5-12.4,7.6c-5,5-3.3,3.4-13.3,5.9
					c-10,2.5-9.1,1.7-17.4-0.9c-8.3-2.5-1.7,2.5-11.6,2.5c-9.9,0-11.6-5-6.6-8.4c5-3.4-8.3-5-8.3-5s-3.3,7.5-8.3,10.9
					c-5,3.4-3.3,5-6.7,8.4c-3.3,3.4,8.3,8.4,10.8,12.6c2.5,4.2-5.8,11.8-6.6,16.8c-0.8,5,3.3,10.9,6.6,15.1
					c3.3,4.2-1.2,15.1-1.2,15.1l5.4,8c0,0,7.4,3,13.2,3c5.8,0,7.5,0,11.6-6.7c4.2-6.7,5.8-3.4,13.3-3.4c7.5,0,6.6,8.4,6.6,8.4
					s5-0.8,10-0.8c5,0,9.9,3.4,6.6-4.2c-3.3-7.6,8.4-4,8.4-4s-1.7-1.5,1.6-4.5c3.3-3,7.4-1.9,9.9,0.4c2.4,2.3,7.2-1.1,7.2-1.1
					c-0.7-3.4-2.6-9.9-7.1-12.2c0,0,14.5-26.5,15.9-29l6.4-3.2c4-10.5,0.4-16.7,2.8-22.3L367-68.8z"/>
				
					<path fill="#EDEDED" stroke="#FFFFFF" stroke-width="2" stroke-linecap="round" stroke-linejoin="round" stroke-miterlimit="10" d="
					M706.7,62.2c0,0-0.4,3.3,4.5,7.5c5,4.2,2.9,6.8,7.1,9.3c4.1,2.5,4.2,4.2,7.5,4.2c3.3,0,9.5-0.9,9.5-0.9s0-6.7-5.8-11.8
					c-5.8-5-7.8-6.6-7.8-6.6s-3.3-2.5-8.3-2.5C708.3,61.4,706.7,62.2,706.7,62.2z M777.8,91.8c0.8-5.1,9.3-11.4,9.3-11.4
					c3.9-10.6,8.2-26.6,12.7-41.9c6.6-0.9,9.7-1.5,12.7-3.2c-2.1-0.9-14.5-4.7-15.9-6.4c-4.3-5.4-4.8-14.6-9.8-21.3l-1.2-1.2
					c0,0-8.9,14.6-12.2,14.6c-3.3,0-6.6-2.5-8.3-8.4c-1.6-5.9-5-4.2-9.1-9.2c-4.1-5-9.1-9.2-9.1-9.2s-9.1,4.2-5,7.6
					c4.2,3.4,5.8,7.5,3.3,10.9c-2.5,3.4-9.9-5-9.9-5s-4.2-7.6-10-7.6c-5.8,0-6.6-1.7-8.3,2.5c-1.7,4.2-8.3,9.2-8.3,9.2l0.4,6.8
					c0,0,6.2,5.8,8.7,1.6c2.5-4.2,3.1,4.6,7.1,5.9c5,1.7-4.2,9.2-4.2,9.2s5.8,2.5,10,5c4.2,2.5,5,5,5,5l-5,5.9c0,0,3.4,6,7.5,7.5
					c3.7,1.5,8.2-1.6,7.4,0.8c-1.7,5.1,2.5,14.3,2.5,14.3s5-9.2,10-10.1c5-0.8,4.1-9.2,8.3-6.7c4.1,2.5,5,2.5,6.6,5.9
					c1.7,3.4,3.9,6.8-0.8,5.9c-8.3-1.7-5.8,9.2-5.8,9.2s0.8,4.2,5,6.7C775.5,87.4,777.8,91.8,777.8,91.8z M754.8,55.5
					c-5-6.7-14.9-15.1-15.8-23.5l9.9-2.5l4.1,6.7h-3.3l1.7,7.6c6.6,0.8,9.1,2.5,9.1,6.7C760.6,53,757.3,55.5,754.8,55.5z"/>
				
					<path fill="#EDEDED" stroke="#FFFFFF" stroke-width="2" stroke-linecap="round" stroke-linejoin="round" stroke-miterlimit="10" d="
					M680.9,13.5c0,0,6.6,10.1,0.8,14.3c-5.6,4-1.6,4.2-5,10.9c-3.3,6.7,17.4,10.1,22.4,12.6c8.7,4.3,6.6,11.8,6.6,11.8
					s2.5-1.7,7.5-1.7c5,0,8.3,2.5,8.3,2.5s2.1,1.6,7.8,6.6c5.8,5,5.8,11.8,5.8,11.8s2.9-2.5,7-5c4.1-2.5,5-4.2,5-4.2
					s-3.3-8.4-1.7-13.4c0.8-2.4-3.7,0.6-7.4-0.8c-4.1-1.6-7.5-7.5-7.5-7.5l5-5.9c0,0-0.8-2.5-5-5c-4.1-2.5-10-5-10-5
					s9.1-7.6,4.2-9.2c-3.9-1.3-4.6-10.1-7.1-5.9c-2.5,4.2-8.7-1.6-8.7-1.6l-0.4-6.8c0,0-8.7-0.8-12-0.8
					C693.4,11,680.9,13.5,680.9,13.5z M704.3,41.7c10,1.4,12.4,9.9,0,6.4C704.3,48.2,695.8,40.5,704.3,41.7z"/>
				
					<path fill="#EDEDED" stroke="#FFFFFF" stroke-width="2" stroke-linecap="round" stroke-linejoin="round" stroke-miterlimit="10" d="
					M-395.5,398.8l0.2,15.9l69.4,53.6l130.8,101c0,0,0.8,6.7,5.8,10.9c5,4.2,11.6,4.2,15.8,7.5c4.1,3.4,8.3,2.5,6.6,11.8
					c-1.7,9.2-1.7,5.9,0.8,11.8c2.5,5.9,1,8.6,0.1,12c-0.8,3.4,21.4-4.4,21.4-4.4l29.2-5.6l11.5-20.4L7.2,506.3
					c0,0-5.8-9.2-10.8-9.2c-5,0-5-6.7-9.9-8.4c-5-1.7-10-2.5-14.1-2.5c-4.2,0-9.1-8.4-9.1-14.3c0-5.9-0.8-8.4-5-12.6
					c-4.2-4.2-5-11.8-8.3-16c-3.3-4.2-6.6-8.4-6.6-8.4s11.6-2.5,13.3-11.8c1.7-9.2,0.8-26.9,0.8-26.9s1.7-7.6-1.7-8.4
					c-3.3-0.8,6.7-6.7,6.7-6.7L-45,372l2.5-42.8c0,0-5.8-5.9-3.3-9.2c1-1.3,2.2-2,3.3-2.5l-7.5-47.8l-11.6-3.4c0,0-2.5-13.4-5-18.5
					c-2.5-5-8.3-3.4-8.3-3.4s-4.1-16.8-4.1-23.5c0-6.7,2.5-5,7.5-5.9c5-0.8,9.9-8.4,9.9-13.4c0-5,6.6-3.4,5.8-10.9
					c-0.8-7.6-5-15.1-5-21c0-5.9,1.7-10.1-2.5-12.6c-4.1-2.5-2.1-18.9-2.1-18.9c-3.7-1.5-6.1-2.4-10.2-2.9
					c-1.5,2.8-3.9,11.5-6.4,12.9c-5.1-4-6.1-7.1-9.6-12.9c-17.3,5.2-23.6,2.6-41.4,3.2c-7.1,0.2-27.1,9.3-31.8,9.7
					c-5.6,0.3-18.2-5.5-28.6-3.2c-5.1,1-12.2,11.6-15.9,12.9c-3.6,1.2-9.3-1.6-12.7,0c-1.8,0.7-4.7,8.9-6.4,9.7
					c-8.4,3.3-14.7-0.6-22.3,3.2c-7.9,3.8-10.9,18.1-22.3,19.3c0,0,5.6,6.4,4.8,12.3c-0.8,5.9-3.3,10.1-3.3,17.6
					c0,7.5,6.6,5.9,6.6,12.6c0,6.7-0.8,8.4,3.3,14.3c4.1,5.9,8.3,9.2,5,13.4c-3.3,4.2-14.9,5.9-15.8,12.6c-0.8,6.7-10.8,5-10.8,12.6
					c0,7.6,2.5,6.7-4.1,12.6c-6.6,5.9-12.4,5.9-12.4,5.9s-9.1,18.5-16.6,23.5c-7.5,5-7.5,6.7-14.1,8.4c-6.6,1.7-6.6-2.5-12.4,5
					c-5.8,7.6-14.1,7.6-21.6,9.2c-7.5,1.7-12.4,4.2-16.6,7.6c-4.1,3.4-5.8,8.4-9.9,11.8c-4.2,3.4-5,6.7-5,6.7L-395.5,398.8z"/>
				
					<path fill="#EDEDED" stroke="#FFFFFF" stroke-width="2" stroke-linecap="round" stroke-linejoin="round" stroke-miterlimit="10" d="
					M187.2,65.1c0,0,5.3,0.4,9.4,0.4c4.1,0,0.8-5.1,0.8-5.1s5,0.8,6.6-2.5c1.7-3.4,4.7-9.3,4.7-9.3l-1.9-9.1c0,0-0.8-5.1-4.6-10.1
					c-3.9-5.1-3.9-4.4-1.6-9.4c2.3-5.1,2.3-13.4,2.3-13.4l-3.3-10.9l-9.1-9.2l-5,5l-3.3-8.4l-12.4,7.6l-1.5,4.1l1.4,0.9
					c13.3,13.4-3.1,32.6-0.1,46C169.6,41.7,178.2,53.2,187.2,65.1z"/>
				
					<polygon fill="#EDEDED" stroke="#FFFFFF" stroke-width="2" stroke-linecap="round" stroke-linejoin="round" stroke-miterlimit="10" points="
					1053.7,179.7 1062.8,182.2 1067.7,178.8 1076,182.2 1092.6,172.1 1090.2,162.9 1101.7,151.1 1105.1,142.7 1105.1,130.1 
					1109.2,125.1 1112.5,119.2 1120,121.7 1126.6,125.9 1136.6,126.8 1144.9,129.3 1152.3,136 1162.3,135.2 1169.6,133.6 
					1170.9,133.2 1175.5,132.7 1183,133.5 1191.3,129.3 1196.3,124.3 1201.2,119.2 1207.9,121.7 1212,129.3 1217.8,136 
					1212.8,144.4 1209.3,157.9 1219.2,168 1229.2,164.7 1240,157.1 1244.1,148.7 1251.8,146.9 1265.9,139.4 1273.4,137.7 
					1289.1,141.9 1304.1,139.4 1304.1,147.8 1299.1,152 1292.5,152.8 1279.2,152 1265.1,157 1252.4,160.5 1229.2,174.7 1230,186.5 
					1222,192.3 1226.9,199.8 1223.6,213.3 1212.8,214.9 1204.6,213.3 1200.4,221.7 1207.9,229.2 1207,241 1197.9,248.5 
					1198.8,256.9 1196.3,266.2 1188.8,267.8 1179.7,265.3 1175.5,260.3 1170.6,267 1159.8,272.9 1167.2,282.1 1163.9,288 
					1158.1,290.5 1152.3,288 1138.2,306.5 1128.3,312.3 1125.8,321.6 1124.1,330.8 1112.5,333.3 1110,341.7 1099.3,338.4 
					1080.2,338.4 1072.7,339.2 1065.3,341.7 1043.7,329.1 1066.1,303.1 1066.1,296.4 1061.9,291.4 1042.9,288.8 1042,283.8 
					1040.9,272.2 1036.8,259.6 1028.8,250.2 1027.1,240.1 1035.4,234.3 1028.5,230.2 1027.1,225 1029.6,209.1 1033.7,199.8 
					1038.7,197.3 1047.8,195.6 1048.7,188.9 				"/>
				
					<path fill="#DFDFDF" stroke="#FFFFFF" stroke-width="3" stroke-linecap="round" stroke-linejoin="round" stroke-miterlimit="10" d="
					M771,363.6c-2.2-5.4-9.6-10.7-12.5-15.6c4.1-3.9,1.8-8.8,3.2-16.1c19.3,3.5,9.1-1.9,3.9-11.8c0,0-6.6,1.7-11.6,0
					c-5-1.7-11.6,10.1-15.8,16c-4.2,5.9-18.7,15.8-18.7,15.8l28.6,5.2l3.3,9.2L771,363.6z"/>
				
					<path fill="#DFDFDF" stroke="#FFFFFF" stroke-width="3" stroke-linecap="round" stroke-linejoin="round" stroke-miterlimit="10" d="
					M513.4,175.6c0,0,1.2,2.4,8.4,0.4c7.2-2,1.6-9.4,8-8.7c6.4,0.7,6.4-2.7,5.6-6c-0.8-3.4-4-6.7,0-10.1c4-3.4,7.2,3.4,10.4,0.7
					c3.2-2.7,4.8-5.4,8.8-5.4c4,0,8.8,4,13.5,0.7c4.8-3.4,17.5,0.7,27.9-9.4c2.9-2.9,22.3,0.7,27.1-3.4c4.8-4,14.4-9.3,18.3-8.6
					l1.6,5.4c-0.1,1.1,2.2,2.2,5,2.3c1.8,0.1,3.8-0.2,5.4-1.5c4-3.3,10.1,6.5,13.2,2.2c3.2-4.3,5.2-5.9,5.2-5.9l4.3,2.2l3,5.8
					l7.7-4.7l6.9,2.5c0,0,3.7-4.7,1.2-8.9c-2.5-4.2-1.2-9.2-4.6-12.5c-3.3-3.4-8.3-10.9-5.8-15.1c2.5-4.2,5.8-5.9,5-10.1
					c-0.8-4.2,2.1-1.8-0.4-6c-2.5-4.2-5-6.7,0-10.1c5-3.4,2.5-8.4,5.8-5c3.3,3.4,7.5,3.4,7.5,3.4L705,63c0.8,0,2.9-7.5-5.8-11.8
					c-5-2.5-25.7-5.9-22.4-12.6c3.3-6.7-0.6-6.9,5-10.9c5.8-4.2-0.8-15.1-0.8-15.1l-4.6-0.9c0,0,1.2-6.7-3.7-5
					c-5,1.7-11.6,1.7-11.6,1.7s-4.2-4.2-9.1-4.2c-5,0-6.6-2.5-11.6,0c-5,2.5-12.2-0.6-12.2-0.6c-6.7,13.3-21.8,22.7-35.2,18.7
					c-3.8-1.1-1.3-7-9.5-6.4l-3.2,6.4c-3,1.1-19.1,3.2-19.1,3.2L542,19.2c-1.9-0.9-2.7-9.2-6.4-9.7c-9.7-1.4-6.5,9-15.9,6.4
					c-2.6-0.7-4.2-11.8-6.4-12.9c-5.1-2.6-9.2-0.6-12.7-3.2l-3.2-6.5c-0.6-0.2-36.3-0.9-41.4,0c-8.7,1.3-16.5,13.8-22.3,16.1
					c-1.9,0.7-7.9-1-9.6,0c-1.7,0.9-4.9,9.2-6.4,9.7c-15.9,4.2-28.1-3.7-41.4-3.2l-3.2,9.7c3.2,0.3,12.7,3.2,12.7,3.2
					c-1.5-0.1-6.4,1.7-12.7,0c-1.2-0.3,2.8,5.7,3.2,6.4c-12,0.7-18,0-28.6,0v6.5c-7.9,0.6-6.7-4.5-15.9-3.2
					c11.7-5,23.4-12.5,38.2-16.1V16c-5.3-3-15.7-5-19.1-9.7c-4.2-5.7-1.9-3.8-2.4-7.1c0,0-4.8,3.4-7.2,1.1c-2.5-2.3-6.6-3.4-9.9-0.4
					c-3.3,3-1.6,4.5-1.6,4.5l7.4,4c0,0,3.3,5.9-1.7,9.2c-5,3.4-10.8-4.2-10.8,1.7c0,5.9-9.1,15.1-9.1,15.1l0.3,4.1
					c0.6,3.4,3.2,7.3,3.2,7.3c3.7-1.3,8.3-4.9,12.7-7.3c-4.9,4.6-8.4,11-12.7,16.1c-4.8-4.4-3.1,11.5-3.2,12.9
					c2.5,0.7,12,1.8,12.7,3.2c4.7,10.7-2.2,14,0,22.6c0.1,0.7,5.8,3.4,6.4,6.5c-9,0.6-10.2,2-15.9,3.2c3.5,1.5,2.1,9.2,3.2,9.7
					c1,0.4,6.7-2.3,9.5-3.2c3.3,13.4,2.3,17.5,3.2,29c4.3,2,11.5-2.1,15.9,0c0.1,0,0,9.2,0,9.7c5.2,1.8,7.6-1.7,12.7-3.2
					c7.6,9.7,13,17.8,22.3,25.8c4.7-3.4,8,0.1,12.8-3.2c12.2-8.7,2.7-29.9,35-9.7c2.4,1.5,10.2,12.4,12.7,12.9
					c20.7,4.2,37.2-18.4,41.4-19.3c3.5-0.9,5.9,6,12.7,3.2c2.9-1.3,6.6-10.8,9.6-12.9c-0.6,3.6,4.7,8.1,3.2,16.1L507,161
					c1,6.8,2.2,10.9,3.4,14.8L513.4,175.6z M672.5,86.9c-2.6,6.8-1.6,10.6-3.2,19.3c-8.7,0.3-12.3,0.9-22.3,0
					C631.3,104.6,671.5,87.3,672.5,86.9z"/>
				
					<path fill="#DFDFDF" stroke="#FFFFFF" stroke-width="3" stroke-linecap="round" stroke-linejoin="round" stroke-miterlimit="10" d="
					M656,689.6c0,0,5-2.5,5-6.7c0-4.2,4.1-0.8,4.1-5.9c0-5,0-3.4,2.5-5.9c2.5-2.5,1-3.9,5-5c9.1-2.5,2.5,4.2,7.5,6.7
					c5,2.5,6.2,0.6,12.8-0.3c6.6-0.8,36.1,9.5,36.1,9.5l4.2,26.9c-1.2,0,11.2-13.7,11.2-13.7l27-35l72.2-26c0,0,56-24.1,68-29.4
					c5.2-2.3,13.3-58.8,14.1-62.2L911.5,525c0,0-1.3,2.3-6.3,1.5c-5-0.8-68-12.6-68-12.6l-1.7-21.8l-10.8-12.6l0.5-9l-8.1-6.4
					l-4.6,0c-0.6-2.4-6.3-17.9-6.3-19.3c-0.2-7.2,6-8,3.2-16.1c-1.8-4.9-12.9-8.6-15.9-12.9c-4.1-6.1-2.4-13.3-6.3-19.3
					c-2.5-3.6-10.8-5.9-12.7-9.7c-3.4-6.8-0.3-14.6-3.2-23.2l-19.7,2.8l-3.3-9.2l-28.6-5.2l-37.3-5l-15.8-8.4l-2.5-14.3H649
					l-1.7-6.7l-57.2-33.6l-1.3,5.2l-41,10.8l12.8,21.1c0,0-10,5-10.8,10.1c-0.8,5-5.8,4.2-8.3,9.2c-2.5,5-7.5,8.4-7.5,8.4l-21,10
					l-21.3-5.6c-0.6,5.4-1.6,12.9-2.3,15.2c30.6,17,18.3,24.2,36.5,50.6c2.8,4,14.2,9.3,15.9,12.9c5.4,11.9,0.3,24.8,6.4,35.5
					c5.8,10.2,24.8,15.9,28.7,32.2c1.2,5.2-1.7,9.7-3.2,16.1c0,0,0.3,32.5,6.4,29c1.4,13.4-1.3,24.4,3.2,35.5
					c5.7,14.4,26.8,16.8,35,29c7.2,10.8,4.2,28.2,9.5,38.7c0,0.1,11.9,5.3,12.7,6.5l15.9,25.8C657.5,683.7,657.2,685.5,656,689.6z"
					/>
				
					<path fill="#DFDFDF" stroke="#FFFFFF" stroke-width="3" stroke-linecap="round" stroke-linejoin="round" stroke-miterlimit="10" d="
					M282.5,286.1c0,0-0.8,8.6,1.7,13.6c2.5,5,8.3,14.3,4.1,19.3c-4.1,5-5,7.6-4.1,16c0.8,8.4,0,10.1,3.3,13.4
					c3.3,3.4,4.1,6.7,4.1,6.7l1.3,188.9l147.9,0.8l5.8-4.2l1.7,5h19.1l2.5,4.2l7.4-1.7l2.5-13.4l7.5-1.7l5-14.3l7.5-0.8l12.3-4.8
					c-4.4-9-5.7-21.3-8.3-29.9c4.2-2.4,8,2.3,6.4-6.5c-1.2-6.4-12.9-19.9-15.9-25.8c-9.1-17.7-8.3-25-15.9-45.1
					c-1.5-4-11.4-14.5-12.7-19.3c-1-3.6,1.5-9.7,0-12.9c-3.2-6.8-9.8-9.9-12.7-19.3c0,0-8.5-19,0-12.9c8,5.7,4,13.8,9.6,22.6
					c2.6,4,12.1,12.5,15.9,16.1c3.7-3,4-1.3,9.5-3.2c0-0.9-0.7-9.2,0-9.7c3.3-5,5.3-25.5,5.3-25.5l-3-34.4c0,0-1.2-6.7-2.5-10.9
					l-3.2-9.9c-10.5,2.5-22.8-0.9-31.6,0c-1.3,0.1-10.3,6.6-12.7,6.4c-2.5-0.3-5.7-9.4-6.4-9.7c-1.9-0.9-7.9,0.9-9.6,0
					c2.7,0.1,2.1,6.6,3.2,9.7c-7.3-0.9-5.1-6.1-6.4-6.4c-5.7-1.4-18,7.8-22.3,9.7l-19.1-3.2h-3.2c-3.5,0.2-9.5,0-9.5,0v3.2
					c-4.4-1.8-7.6-9.5-12.7-6.4c-1.5,0.8,0.8,7.9,0,9.7l-15.9,9.7c-6.1-2.8-19.9-15-25.5-16.1c-10-2.1-11.9,5.3-19.1,3.2v-3.2
					C292.5,292.6,288.1,289.7,282.5,286.1z M449.7,328.6c4.4,2.2-3.2,6.5-3.2,6.5C447,332.8,443.8,325.6,449.7,328.6z"/>
				
					<path fill="#DFDFDF" stroke="#FFFFFF" stroke-width="3" stroke-linecap="round" stroke-linejoin="round" stroke-miterlimit="10" d="
					M825.6,470.2l-0.8,9.2l10.8,12.6l1.7,21.8c0,0,63,11.8,68,12.6c5,0.8,7.1-2.3,7.1-2.3s0-8.5,4.5-15c5.4-7.7,4.6-17.7,2.5-17
					c-4,1.5-4.7-3-0.2-6.1c4.5-3.1,5.9-4.9,5.9-4.9s-3.9-3.1-4.6-6.9c-0.6-3.7,8.1,3.2,9.2-0.1c1.1-3.3,7.1-6.5,7.1-6.5l-1.7-3.6
					l-8.7-4.7l1.7-7.6l-6.2-0.7c-8.2,12.5-14.5,23.6-36.1,32.1l-3.2,6.4c-8.8,1.3-12.7-6.4-15.9-6.4c-24.5-0.5-8.4,6.8-35,0
					c0.4-3.3,0.8-6.4,1.1-11L825.6,470.2z"/>
				
					<path fill="#DFDFDF" stroke="#FFFFFF" stroke-width="3" stroke-linecap="round" stroke-linejoin="round" stroke-miterlimit="10" d="
					M491.7,283.2c-2.3,2.1-4.2,2.8-7.2,3.5l2.9,9.5l7.5-6.4L491.7,283.2z M514.7,268.6l0,1.9c-3.4,0.3-1,10.6-1.3,13.1
					c0,0,0.4-0.2,0.6-0.7c0.2,2,0.1,2.9,0.3,5.3c0.3,3.9,0.5,9.9,0.5,9.9s-0.6,1-1.6,3.4c0,0-9.1,3.4-9.9,0
					c-0.8-3.4,3.3-11.8,3.3-16.9c0-5-2.5-13.4,1.6-13.4C512.3,271.3,512.2,268.7,514.7,268.6z M514.9,268.5c0-5.7-0.4-15-0.4-15
					c-1.9-0.1-10.2,2.7-10.2,2.7l-0.4,1.5c-0.2,0.6-9.2,8-9.6,9.7c-0.9,2.9,1.8,10.4,0,12.9c-0.7,1-1.7,2.2-2.6,2.9l3.2,6.6
					l-7.5,6.4c1.3,4.2,2.8,11.3,2.8,11.3l3,36l-0.8,7.8c0,0,18.9-21.9,17.7-27.9c-1.7-7.8,1.1-17,3-21.9c0,0-9.1,3.4-10,0
					c-0.8-3.4,3.3-11.8,3.3-16.9c0-5-2.5-13.4,1.7-13.4C512.2,271.2,513.1,268.6,514.9,268.5z"/>
			</g>
			<g clip-path="url(#SVGID_2_)">
				<text transform="matrix(1 0 0 1 618.9687 555.2645)" fill="#222222" font-family="'Helvetica-Bold'" font-size="32">Saudi Arabia</text>
			</g>
			<g clip-path="url(#SVGID_2_)">
				<text transform="matrix(1 0 0 1 340.9843 482.7689)" fill="#222222" font-family="'Helvetica-Bold'" font-size="32">Egypt</text>
			</g>
			<g clip-path="url(#SVGID_2_)">
				<text transform="matrix(1 0 0 1 494.3027 98.9305)" fill="#222222" font-family="'Helvetica-Bold'" font-size="32">Turkey</text>
			</g>
			<g clip-path="url(#SVGID_2_)">
				<text transform="matrix(1 0 0 1 344.7949 296.0965)" fill="#222222" font-family="'Helvetica-Bold'" font-size="32">Israel</text>
			</g>
			<g clip-path="url(#SVGID_2_)">
				<text transform="matrix(1 0 0 1 820.791 354.2708)" fill="#222222" font-family="'Helvetica-Bold'" font-size="32">Kuwait</text>
			</g>
			<g clip-path="url(#SVGID_2_)">
				<text transform="matrix(1 0 0 1 954.4374 512.5643)" fill="#222222" font-family="'Helvetica-Bold'" font-size="32">UAE</text>
			</g>
			<circle opacity="0.8" clip-path="url(#SVGID_2_)" fill="#FF944C" cx="445.3" cy="88.9" r="40.1"/>
			<circle opacity="0.8" clip-path="url(#SVGID_2_)" fill="#FF944C" cx="749.3" cy="341.4" r="40.1"/>
			<circle opacity="0.8" clip-path="url(#SVGID_2_)" fill="#FF944C" cx="882.3" cy="500.8" r="40.1"/>
			<circle opacity="0.8" clip-path="url(#SVGID_2_)" fill="#D63333" cx="502.2" cy="285.9" r="40.1"/>
			<circle opacity="0.8" clip-path="url(#SVGID_2_)" fill="#1975D1" cx="716.8" cy="482.8" r="40.1"/>
			<circle opacity="0.8" clip-path="url(#SVGID_2_)" fill="#33AD5C" cx="380.1" cy="407.8" r="40.1"/>
			
				<line clip-path="url(#SVGID_2_)" fill="none" stroke="#222222" stroke-width="1.9986" x1="432.6" y1="285.9" x2="502.3" y2="285.9"/>
			
				<line clip-path="url(#SVGID_2_)" fill="none" stroke="#222222" stroke-width="1.9986" x1="748.5" y1="341.4" x2="818.2" y2="341.4"/>
			
				<line clip-path="url(#SVGID_2_)" fill="none" stroke="#222222" stroke-width="1.9986" x1="882.3" y1="500.8" x2="952" y2="500.8"/>
		</g>
	</g>
	<text transform="matrix(1 0 0 1 294.8535 756.6835)"><tspan x="0" y="0" fill="#222222" font-family="'Helvetica'" font-size="36">Tinder </tspan><tspan x="112" y="0" fill="#222222" font-family="'Helvetica-Bold'" font-size="40">1</tspan></text>
	<text transform="matrix(1 0 0 1 516.2421 756.6835)"><tspan x="0" y="0" fill="#222222" font-family="'Helvetica'" font-size="36">Frim </tspan><tspan x="82" y="0" fill="#222222" font-family="'Helvetica-Bold'" font-size="40">1</tspan></text>
	<text transform="matrix(1 0 0 1 704.912 756.6835)"><tspan x="0" y="0" fill="#222222" font-family="'Helvetica'" font-size="36">WhosHere </tspan><tspan x="180.1" y="0" fill="#222222" font-family="'Helvetica-Bold'" font-size="40">1</tspan></text>
	<g>
		<path fill="#D63333" d="M279.9,742c0,10.5-8.6,19-19,19c-10.4,0-19-8.5-19-19c0-10.4,8.6-19,19-19
			C271.4,723,279.9,731.5,279.9,742z"/>
		
			<path fill="none" stroke="#FFFFFF" stroke-width="0.4997" stroke-linecap="round" stroke-linejoin="round" stroke-miterlimit="10" d="
			M279.9,742c0,10.5-8.6,19-19,19c-10.4,0-19-8.5-19-19c0-10.4,8.6-19,19-19C271.4,723,279.9,731.5,279.9,742z"/>
	</g>
	<g>
		<path fill="#33AD5C" d="M501.3,742c0,10.5-8.5,19-19,19s-19-8.5-19-19c0-10.4,8.5-19,19-19S501.3,731.5,501.3,742z"/>
		
			<path fill="none" stroke="#FFFFFF" stroke-width="0.4997" stroke-linecap="round" stroke-linejoin="round" stroke-miterlimit="10" d="
			M501.3,742c0,10.5-8.5,19-19,19s-19-8.5-19-19c0-10.4,8.5-19,19-19S501.3,731.5,501.3,742z"/>
	</g>
	<g>
		<path fill="#1975D1" d="M690,742c0,10.5-8.5,19-19,19c-10.4,0-19-8.5-19-19c0-10.4,8.6-19,19-19C681.4,723,690,731.5,690,742z"/>
		
			<path fill="none" stroke="#FFFFFF" stroke-width="0.4997" stroke-linecap="round" stroke-linejoin="round" stroke-miterlimit="10" d="
			M690,742c0,10.5-8.5,19-19,19c-10.4,0-19-8.5-19-19c0-10.4,8.6-19,19-19C681.4,723,690,731.5,690,742z"/>
	</g>
</g>
</svg>
