<?xml version="1.0" encoding="utf-8"?>
<!-- Generator: Adobe Illustrator 18.0.0, SVG Export Plug-In . SVG Version: 6.00 Build 0)  -->
<!DOCTYPE svg PUBLIC "-//W3C//DTD SVG 1.1//EN" "http://www.w3.org/Graphics/SVG/1.1/DTD/svg11.dtd">
<svg version="1.1" id="Layer_1" xmlns="http://www.w3.org/2000/svg" xmlns:xlink="http://www.w3.org/1999/xlink" x="0px" y="0px"
	 viewBox="-763.2 479.3 640 640" enable-background="new -763.2 479.3 640 640" xml:space="preserve">
<g>
	<g>
		<g>
			<g>
				<defs>
					<rect id="SVGID_3_" x="-763.2" y="479.3" width="640" height="640"/>
				</defs>
				<clipPath id="SVGID_1_">
					<use xlink:href="#SVGID_3_"  overflow="visible"/>
				</clipPath>
				<g clip-path="url(#SVGID_1_)">
					<g>
						<rect x="-1017.5" y="439.3" fill="#F4F4F4" width="1240.4" height="680"/>
					</g>
					<path fill="#F7D9D9" d="M-265.8,729.2c-1-0.7-1.9-0.7-2.8,0C-268.8,731-264.8,730.6-265.8,729.2
						C-266.1,728.8-265.5,729.6-265.8,729.2z"/>
					<path fill="#F7D9D9" d="M-453.1,577c0.6,0.3,1.5-0.7,1.2-1.3C-452.3,575.1-455.8,575.6-453.1,577
						C-453,577.1-453.8,576.7-453.1,577z"/>
					<path fill="#F7D9D9" d="M-451.1,575.2c1.1-0.6,3.4-2.3,3.1-4.1C-448.7,567.7-454.5,575.2-451.1,575.2z"/>
					<path fill="#F7D9D9" d="M-433.6,566c1.3,0.7,1.5-2.6,0.8-3.3C-433.7,561.8-436.3,564.5-433.6,566
						C-433.5,566-434.4,565.5-433.6,566z"/>
					<path fill="#F7D9D9" d="M-615.7,737.9c1.9,0.5,2.4-2.8,0.6-2.7C-616.4,735.3-617.5,737.5-615.7,737.9
						C-615.5,738-616.6,737.7-615.7,737.9z"/>
					<path fill="#F7D9D9" d="M-385.5,587c0.7,0.3,1.3,0.2,1.8-0.3c0.2-0.7-1.7-2.5-2.5-2C-386.8,585.1-386.2,586.8-385.5,587
						C-385.1,587.1-385.8,586.9-385.5,587z"/>
					<path fill="#F7D9D9" d="M-375.8,579.4c2.3,0.8,5.4-2.7,3.7-4.8C-373.4,573-377.3,578.9-375.8,579.4z"/>
					<path fill="#F7D9D9" d="M-421.5,642.9c-0.5,4.1,6.3-4.8,0.3-2.1C-421.5,640.9-421.5,642.6-421.5,642.9
						C-421.6,643.4-421.5,642.7-421.5,642.9z"/>
					<path fill="#F7D9D9" d="M-479.6,680c-0.7,0-2,0.8-1.8,1.7C-481,683.7-477.2,680-479.6,680z M-480.7,681.8
						C-480.7,681.8-480.7,681.9-480.7,681.8L-480.7,681.8z"/>
					<path fill="#F7D9D9" d="M-477.4,681.3c-1.8,0.3-0.3,2,0.6,2C-475.8,683.3-475.1,680.9-477.4,681.3
						C-478.1,681.4-476.5,681.1-477.4,681.3z"/>
					<path fill="#F7D9D9" d="M-415.6,642.4c0.6,0.2,1,0.1,1.4-0.3c0.1-0.6-2.2-1.8-2.7-1.1C-417.2,641.5-415.9,642.3-415.6,642.4
						C-415.2,642.5-415.7,642.4-415.6,642.4z M-414.8,642.1C-414.8,642.1-414.8,642.1-414.8,642.1L-414.8,642.1z M-414.8,641.6
						C-414.8,642.2-414.8,641.7-414.8,641.6L-414.8,641.6z"/>
					<path fill="#F7D9D9" d="M-472,679.6c-0.7,0-2.3,2.5-0.9,2.5C-471.7,682.1-470.3,679.6-472,679.6z"/>
					<path fill="#F7D9D9" d="M-426.4,644.6c0.6,0.3,1.5-0.7,1.2-1.3C-425.6,642.8-429.1,643.1-426.4,644.6
						C-426.4,644.7-427.1,644.2-426.4,644.6z"/>
					<path fill="#F7D9D9" d="M132.7,548.8c0,0.9,3.4,0.8,3.9,0.1c0.2-0.4-1.4-2.3-1.4-2.3c0.7,0,3.5-1.1,1.7-2.3
						c0.3,0.1,3.5,0.8,3.6,0.7c-0.9,0.4,2.3-4,2.1-3.3c0.7-2.4-11.8-6.5-14.4-4.9c-1.6-4-5.6-2.7-6.6-4.9c-0.6-1.2-7.1-4-8-4
						c-2,0-2.7-2.9-3.8-3.4c-0.7-0.3-7.8-2.2-8.6-2.2c-4.8,0.2-11-2.1-16.2-2.1c-2.1,0,0.8,5-0.6,6.5c-2.9,3.1-3.8-1.1-5.7-1.7
						c0.3-2.4-6.5-1.8-8.9-1.8c-3.3,0-11.8-2-13.8,2.9c-1.3-2.9-0.3-1.8-2.5-2.5c3.3-8.7-19.9-5.4-23.7-4.7c1.1-1.1-3-5.3-4.3-1.9
						c-0.1-0.3-0.3-0.5-0.7-0.5c0.4-0.5,0.7-1,0.7-1.8c-0.6-0.8-5.2,3.7-5.7,1.1c12.1-1.9-14.9-5.8-14.3-3.8c0.7,0,3.2,0.4,3.4-0.5
						c0-0.2-13.6-3.5-14.8-3.4c-2.8,0.3-0.4,1.2-0.3,1.9c-6.8-0.1-0.8,3.6-2.5,5.7c-1,1.2-2.1-0.2-2.2-0.7c-0.3-2.1-3.9,2.3-4.7,2.3
						c-2-0.1-5.1-2.9-6.8-3.4c-1.9-0.6-4.1,1.7-6,2.1c0.9-0.9-1.4-3.3-2.2-3.2c0.2,0-3.7,7.2-3.8,7.4c-0.7-1.2,0.4-3.7-3.7-3.2
						c-3.5,0.4-0.7-3.5-4.7-2.7c-0.1-0.4-0.4-3-0.4-3c0.3,0,2.1,1.5,2.3-0.2c-0.1-0.3-0.3-0.7-0.4-1c-1.7-0.6-1.6-1.1,0.3-1.5
						c0-0.6-6.1-2.3-5-0.2c0,0,2.9,1,3,1c-0.3,0.2-0.2,0.9-0.2,1.2c-1.5-1.7-3.6-0.1-4.5,0.7c0.1-0.3,0-0.5-0.1-0.8
						c0.6-0.1,1.9-1.5,1.6-2.2c-0.7-1.9-2.4,1.3-2.4,1.6c-0.2-1.5-4,1.5-4.8,0.5c0.2-0.2,0.7-0.6,0.6-0.9c1.1,1.8,2.7-2.1,2.3-1.9
						c1.8,1.9,1.1-1.5,1.8-2.3c0.2-0.2-7.5-3.2-9.4-2.4c-4.8,2.1-0.3,3.6-0.1,6.7c-4.2,0-14-1.2-14.7-4c-1.1-4.3-13.8-1.8-16.2,0.3
						c0.1-4-3.4,0.1-5.3-1c-2.8-1.7-7.4,1.1-5.1,2.2c-1.9-0.6-5.8,0.8-8.9,1.8c0.1-0.3,5.4-2,5.6-2.2c1.3-1.2,2.3-2.6,2.9-4.3
						c2.4-0.4,4.9-0.9,7.3-1.4c2.7-0.6,9.2-1.5,4.7-4.5c5.2,0-4.2-7.2-4.2-7.2c-1.6-4.3-12.1,1.8-14.4,1.6c2-3.8-0.9-3.2-4.6-3.4
						c4.3-7.4-19.1-0.7-14.1,3.1c-3.1-0.5-5.8-1.6-5.9,1.2c-2.4,0-4.4,2-7.3,2.6c7.8-4.1-5.2-4.1-2.3-1.9c-2.9,0-24.1,0.8-24.8,3
						c0.2,0.6,0.7,1,1.2,1.4c0,0.2-1.2,0.8-1.4,1.5c-0.6-0.9-3-0.9-3.3,0.4c-0.2,0.8,1.5,0.9,1.6,1.2c-2.7,0.5-0.7,1.3,0.8,3.6
						c-1.8-1.7-16.2-1.3-18,1.3c-3.9,5.1,3,8.6,6.7,9.5c1.5,0.4-1.4,5.6,0.6,6c-0.5,1.1-2.3-0.4-2.2,1.5c-1.3-0.7-1.3-0.7-2.3-0.3
						c0.3-0.9,3.6-7.3,2.9-7.4c-1.3-0.1-5.3,0-5.9-1c-1.2-2.1-11-3.1-10.2-0.2c0.9,3.2,2.6-1.2,1.3,1.6c-1.9-0.1-3.5-2.5-5.3-0.2
						c-1.7,2.2,1.8,3.1,4.1,3.8c-4,3-6.3-1.8-7.8-3c-1.7-1.4,1.5-4.4-1-6c-3.2-2-0.8,3-1.3,4.6c-0.1,0.3-2.9,4-3.3,4.3
						c-1.3,0.1,2.9,2.6,1.5,4.1c-5.8,6.1,7.3,4.4,8.2,4.4c-1.9,0.5-4,0.7-5.7,1.8c-2.6,1.7,0.3,2.3-0.6,3.7c0,0.1-5.4,10.2-7,6.9
						c1.5,3,1.3-2.3,1.8,2.8c0.4-0.1-8.2-2.9-8.7-3.3c4.8,0.1,11.3-0.6,11.3-6.4c0-3.1-3.6-3.8-2.9-6.6c1.1-4.3,0.9-3.3-1-6.7
						c-1.7-2.8,4.4-6.1,1.4-10.3c-4.7-6.8-18.2,5.8-17.2,10.3c0.5,2.2-2.2,4-1,5.8c2,3.2,3.1-2,3.1,2.2c0,2.6,1.1,1.7,1.1,2.1
						c-2.2,4.6-5.2-3-8.1-2.7c-0.7,0.1-8.4-2.1-8.1-1.9c-1-0.7-8.8-0.7-7.3,2c3.1,5.5-2.9,0.8-2.7,4.2c-5.1-4.7,0.4-0.2-0.4-2.5
						c-0.1-0.2-6.9-0.3-5.7,1.6c-4.7-0.6-7.2,1.5-11,1.2c2.9-0.2-5.6-7.2-5.3-1.2c-2.7-1.2-9.4,2.3-11.1,3.6c-4.2,1.2-2.5,4.6-8,5.5
						c-3-6.2,3.5-2.6,3.5-4.8c0-2.6-8.8-8-10.7-6c1.6-1.7,0,8.3-0.3,7.1c0.6,2.4-0.7,2.5-0.7,5c-2.4-4.5-13.2-0.3-7.7,6.1
						c-2.2,0.2-7.3-4-8.7-3.4c-1.3-0.7-1.9,4.2,0.5,5c3.6,1.1-0.5,2.1-2.3,1.9c-5.1-0.5-2.6-7.9-7.6-9.4c-3.1-0.9-3.3-1.6-5.3-4.2
						c2.1,0.6,4.2,3.2,5.6,1.4c-0.1,6.9,30.5,1.3,15-6.1c-4.5-3.6-14.5-7.4-21.1-7.4c1.9-0.2-5.5-2-8.5-1.3
						c-0.1-0.2-0.1-0.4-0.2-0.6c0,0,4.8-1.5,4.6-1.1c1.3-4.1-7.1-3.2-7.8-3c0-1,1.1-0.3,1.1-1.2c0.5-5.5-6.6,2.5-5.9,2.1
						c0.4-3.4-0.9-1.4-2.9-0.1c-0.2,0.9,0.3-5.1,0.4-3.1c-0.1-1.7-3-1-2.3,1.2c-1.3,0.6-2.9-1.8-2.7,1c-1.9-1.3-1.8,0.9-3.1,1.8
						c-3.3,2.3-1.7-1.6-3.5-1.7c1.1-0.5,1.9-1.2,2.4-2.3c-0.3-2.3-8.1,3.7-5.9,5c-1-0.3-1.6,0.3-2.2,1.2c-0.8-2.6-1.3,0.3-2.8,0.8
						c1.3-6.9-7.9,0.8-7.8,2.4c-0.5-1.7-1.9,0.9-1.9,0.9c0,1.5,1.9-0.1,1.9-0.7c0.1,1.5,0.6,1.5,2.1,1.2c-1.1,3.7-2.6,2.3-2.6,5.2
						c-0.7-0.3-1.9-1.3-2.6-0.8c-0.8,0.6,1.2,2.7,1.5,3.4c-1.5-0.2-3.7,1.6-5.1,2.3c-2.9,1.3-1.1,2.9-2.1,4.4
						c-3.6,1.6-7.3,3.1-10.2,6c-1.4,1.3-7,2.6-7.1,3.3c-0.1,0.7,1.3,0.4,1.7,1c-3,1.7-5.3,1.7-5,3.8c-2.4,0.9-12.2,4.7-6.4,8.3
						c-0.6,0-1.1,0.2-1.4,0.7c0,0.5,1.5,0.8,1.9,0.8c-0.8,1.1,0.7,2.6,1.9,1.8c-0.9,1.6-5.2,4.2,0.1,3.2c0.1,0.2-3.2,7.1,2.2,4.7
						c0,4,11.9-4.6,13.4-3.6c-0.2,3.2,5.1,9.1,4.4,10.2c-0.2,0.6-6.8,1.5-6.2,3.2c-0.4-0.2-0.7-0.3-1.2-0.1c0.3-0.8,3.8-4,1.2-3.9
						c-1.5,0,1.2-7-0.7-6c-2.9,1.5-4.8,2.6-7.5,4.2c-1.2,0.7,2.3,1.8,2.3,1.8c-5.1-0.1-0.8,6.2-0.1,8.9c2.1,7.7-8.5,1.2-9.8,4.4
						c-2.5,6-5.9,5.6-12,7.5c0.6-1.5-1-1.5-2-1.4c0.1-0.4,6-3.7,3.6-4.9c-1.9-1-2.6-2.3-4.3-0.7c-1.1-1.1-0.9-3.4-2.5-5.3
						c-1.5-1.8-5.5-7.5-7.3-7.2c2.8-3-1.3-0.9,1.7-3.1c5.9-4.2-4.7-3.4-5.6-3.3c-0.3-1.1,1-2.6,2.3-2.6c4.5,0-6.3-3.1-4.3-2
						c-1.5-0.8-2.4,2.3-2.2,3.5c-0.7,1.2-2.4,0.3-1.5,2.8c0.3-0.1-1.1,0.7-0.9,0.2c-0.7-4.7-4,0.7,0.4,1.4c-0.1,0.5-0.1,0.9,0,1.4
						c-0.7-0.5-2.1,3.6,2.7,2.3c-3,5.8,0.5,4.9,4.7,4.6c-1.5,2-0.9,1.9,1.7,2.1c-1.2,5.1-3.5-0.7-5.4,2.1c-0.3,0.4-0.2,2.1,0.7,1.7
						c0.4-0.4-2.1,1.6-1.6,2.2c0.4,0.5,1.3-0.1,1.7-0.2c0-0.8-6.6,6.9-0.4,4.1c0,0.2-0.1,0.6,0.2,0.7c-0.3,0.4-5.3,5-5.3,5.2
						c0.3,0.7,21-2.7,22.3-3.3c-0.7,3.3-2.1,5.8-6.9,5c0-2.4-4.7-0.7-1.5,3.3c-1.5-0.3-9.7-0.5-10.2,0.7c-0.9,2.4,5.1,6,7.7,5.9
						c-1.2,2.4,1.2,3.3,3.1,3.8c2.4,0.7,0.6,6.9,0,8.7c-4.9,0.3-17.3-4-20.8,0c-5.3,0.8-2.5,0.6-2.6,4c0,2,1.3,4,1,6
						c-0.1,0.4-1.9,2-1.8,3.3c-1.6,0,0,4.1,0.5,4.5c0.9,0.8-0.7,4.2,0.3,4.4c1.4,0.2,2.8,0.2,4.1,0c3.6-0.4,2.3,2.5,4.8,2.9
						c0.1,0.1,11.5-1.4,11.4-1.4c2.5-1.1,4.5-4.9,6.4-6.4c2.4-1.9,1.4-3.5,3.5-6.4c1.9-2.7,3.6-2.8,6.4-4c2.8-1.2-0.2-4.2,1.6-5.4
						c2.9-1.9,8.6,2.7,10.1-0.4c0.8-1.8,2.2-0.6,3.6-1.3c0.6-0.3,1.1-2.3,1.9-2.2c3.7,0.5,4.5,4,6.3,6.7c1.9,2.8,7.8,6.3,10.4,7.1
						c1.7,0.5,5,2.9,4.4,5.7c-1,0-0.8,1.6-0.9,2.4c-1.4,0.2-8.9-1-9.4,0.2c-1.4,3.3,12.5,7.9,9,0.9c1.7,0.1,2.1,1,3.3-0.5
						c0.8-1,1.9-7.3,0.8-6.2c-1.1-3.8,4.4,0.5,5-0.5c1.8-3.3-10-7.6-11.1-8.3c-1.1-0.7-7.1-8.5-7.3-8.1c0.4-1.3,0.4-2.6,0.5-2.8
						c0.9-0.2,1.7-0.3,2.6-0.4c-1.7,5.4,4,1.4,4.1,1.4c-1.7,4.5,8.1,8.9,11.4,10.2c0.5,0.5,2,0.3,2.4,0.9c1.7,1.4-0.5,5,1.8,7.5
						c-0.3,0.2,3.8,3.7,3.6,5.5c-0.1-0.2-2.2-0.6-2.4,0.1c-0.5,1.9,3.1,0.3,2.5,0.4c0.3,0.2,0.5,0.2,0.8,0.1
						c-0.6,5.1,6.3,4.6,5.2,2.7c1.7,0,2.8,0.2,1.9-1.7c2,0,2.4,1.4,2.4-1.4c0.7,0,0.5,1.3,1.4,1.3c3.1,0-5.2-5-5.1-5
						c3,0.2-1.3-3-0.5-4.1c1.4,1.3,6.1,0.7,3.9-1.7c0.5,0,5.4-0.2,5.5,0.1c0.2,0.6,0.4,2.1,1.2,2.2c-3.1,3.3,1.7,1.6,1,4.1
						c-0.2-0.8-2.2-2-2.8-0.9c-0.5,0.9,1.9,2.5,2.7,1.6c-0.1,0.4,0.1,0.7,0.4,1c-0.3,0-3,0.5-3,0.5c-0.4,0.5,1.1,2.5,1.5,0.5
						c1.5,1.1,1.5,4.7,3.9,4.3c1.2-0.2,4.3,2.6,5.9,3.7c2.8,2,3.6-4.8,7.7-0.9c1.7,1.6,9.5-0.3,10.6-1.9c2.3,4.8-3.3,10.6-2.6,14.7
						c0.1,0.4-12.9,2.3-14.9,2.1c-1.4-0.2-6-1.2-5.6,0.8c-3.3-0.1-6.4-0.7-9.8-1.7c-2.7-1.5-5.3-2.5-8.1-3.2
						c-2.9-0.7-4.2-0.6-6.7,1.6c-3.5,3.2-0.1,0.6-0.1,2.9c2,4.8-7.4,1.4-7.7,1.3c-2.5-0.4-4.2-0.7-5.9-2.8c-2.8-3.3-5.6-2.1-9.2-2.9
						c-1.4-0.5-4.6-2.9-5.6-4.5c1.6-0.8,3.9-5.2,0.8-5.1c0.2-1.6,3-3.5,2.3-4.4c-1.2-1.8-12.5-1.5-13.6,0.3
						c-3.6-3.3-22.5-0.1-26.2,4.1c-1.2,1.3-7.3,0.9-9.3,1.1c-5.5-6.5-4.8,5-10.2,6.2c-9.1,0-2.8,20-14.8,20
						c-2.7,0-9.4,11.7-10.1,14.3c-0.7,2.5-4.8,4.5-1.7,7.2c1.3,1.1,1.2,11.2,1,12.4c0,3.6-4.9,5.6-1.9,9.9c0.8,4.2,0.7,3.5,3.6,5.8
						c1.1,1.3,2.4,2.3,3.1,4.2c0.6,1.4,3.3,7.5,4.8,8.6c0.1-0.1,14.8,11.2,17.6,11c5.3-0.7,4.7-2.9,10.9-1.6c0.7,0,1.4,0.2,2.1,0.1
						c4-0.5,9.1-3.9,12.3-4.2c1.3,1.5,7.7-3,12.2,0.5c2.8,2.1,1.7,8.6,7.9,3.7c1.2,0.1,8.2,3,5.8,5.8c-0.7,1-0.1,2.5-1.1,3.7
						c-1,1.1,0.4,2.4-0.4,4c-1.9,4,0.4,4.1,0.2,6.1c-0.3,2.4,5.9,6.1,8,9.7c0.7,1.5,4.7,16.7,4,16.5c5.2,1.5-2.1,8.3-2.6,9.2
						c-2.5,4-3.3,10.6-2.6,15.5c0.2,1.5,1.1,0.9,2.1,1.8c2.4,2.3,1.2,5.5,3.7,7.3c3.1,2.3,4,11.5,3.9,15.5c-0.2,5.2,2.8,6.6,4.6,9.6
						c1.7,2.3,5.4,7.3,5,10.7c-0.3,2.1-3.3,4.2,0,7.3c0,0.5,5.6,1.1,6.4,0.8c6.1-2.6,13.9-1.9,19.8-3.1c4.8-1,17.5-14.6,17.2-17.9
						c2.4-0.8,2.8-5.6,0.6-7.2c3.4-2.2,9.2-1.9,9-6.9c-0.1-3.7-3-9.1-2.3-11.8c0.6-2.4,5-5.5,7.1-6.2c1.3-0.5,5.1-2.1,6.1-2.9
						c4.8-4,3-5.7,4.5-10.7c0.5-1.7,0.5-8.2-0.1-10.2c-1.2-3.6-3.3-1.2-3.3-6.1c0-2.3,1.7-3.6-0.3-5.2c2,0.2-0.3-3.6-1.1-2.2
						c-0.1,0.1,0.2,1.5,0.2,1.6c-3.9-3.2,7.4-14.9,8.9-16c1.6-1.1,0.5-2.5,2.3-3.4c0.5-0.2,4.7-4.2,5.2-4.8
						c2.6-3.5,8.2-5.5,10.8-8.7c5-6.3,9.6-16.5,10.8-24.6c0.5-3.6-12.6,1.2-12.9,1.4c-4.9,4.6-8.5-2.1-11.7-2.7
						c1.3-1.2,0.6-1.1,0.8-2.4c1.9,0.7,12.4-1.7,15.1-2.5c2.4-0.8,10.1-3.4,11.4-6c1.5-2.7,3-1.4,5.1-3.4c1.7-1.6,7.2-4.8,9.7-5.5
						c2.3-0.6,5.3-7.7,7.1-10.7c1.8-2.9-7.3-8.9-9.5-10.4c-0.1-7-6.3,2-8.6,2.6c-1.8-0.1-2.4-1.2-4.5-0.5c-3.7,1.3-0.7-3.7-2.2-5.1
						c-1.4-1.2-2.5,2-2.8,2.5c-0.8-2,0.2-4-1.8-5c-0.9-0.5-3.9-4.1-3.9-5.1c0-2.3-1.8-2.4-1.7-4.6c0.4,0.1,2.8-0.5,2.8-0.8
						c0.6-1.8,6.7,3.8,6.4,5.3c-0.2,0.9,4.2,5.8,5.9,6.4c3.1,1.4,5.4,0.8,8.3-0.3c5-2,1.6,0.9,4.6,3.3c5.8,4.6,17.6,0.9,24.1,0.9
						c4.9,0,8.4,11.8,15.2,8.5c-1.6,2.7-6.1,0.7-3.4,4.3c1.7,2.3,10.2,6.1,9.1-0.5c0.2,0.1,0.4,0.2,0.6,0.3c-1.3,2.6,0,7.9,0.6,11
						c1.3,8,4.8,15.2,8.4,22.2c1.8,3.5,2.2,5.8,4.7,9.2c1.8,2.4,6-5.4,6.8-5.6c0.2,0,0.5,0.1,0.7,0.1c-1.9,2-1.4,9,0.2,11.7
						c0.8,1.3,5,0.2,5.8-0.9c2-3.2-1.1-6.4-3-8.5c-2.6-2.9-2.3-3.5-2.5-7.7c2.7-4.9-1.7-13.6,5.8-14.5c1.5-0.2,11.6-9.3,11.2-9.7
						c4.7,0.5,5.6-4.6,8.1-6.8c4.4,0.9,7.4,1,8.7-4c5.3,2.5,2.2,9.3,8.1,8.6c0.5,1.9,0,4.2,1.7,5.5c2.2,1.6-0.7,3.4-0.5,5.6
						c0.5,3.6,7.9,1.9,7.5-1.5c0.6,0.3,2.5,1.5,2.9,1.9c0.5,2.8,2.9,7.6,3,10.3c0.1,2.9,1.6,3.7,1.5,6.5c0,0-1.1,4.3-1.6,5.2
						c-1.7,3.1,5.7,6.3,5.7,10c0,2.5,1.4,10.1,3.9,10.8c-0.3,0-0.4,0.1-0.5,0.4c-0.4-0.9-6.5-3.8-6.6-5.3c-0.4-4-14.4-9-13.4-4.1
						c1.1,5,11.9,7.9,12.1,12.9c0.2,5.2,8.6,10.1,10.1,15.4c1.4,4.9,7.8,5.5,11.1,4.9c-8.8,5.6,12.4,6.6,13.9,7.3
						c0.3,0.1,17.5,5.1,16.2,0.6c0.1,0.3-3.7-0.6-3.7-0.6c0.9-2.8-2.4-2.4-4.4-2.4c0.4-0.6,0.4-1,0.1-1.4c-0.5-0.1,4.8,1.5,3.3-0.7
						c-0.4-0.5-10.9-1.4-10.6-1.6c-3.3,2.9-10.1-2-14.6-1.3c-0.3,0.2,0.8-7.3,0.9-7.2c4.7,1.4-3.9-9.3-3.2-2.7
						c-1.8,0.1-0.8-3.8-4.4-4.2c1.5-1.9-1.4-7.5-3.2-6.3c-0.7-1.1,1.1-0.6,0-1.6c8.5,5.7,2.8-12.7-0.3-13.7c-3-1-5.2-7.1-7.5-7.1
						c-1-2.5-1.9-2.1-0.9-5.4c-0.4,1.3,2.7-9.1,1.5-8.3c3.6-2.6,8.9,8,10.3,7.1c0,0,4.5,7,3.4,6.7c1.8,0.4,3.9-1.9,3.4-3
						c1.5,0.9,2.6-1.4,0.8-1.9c-1.1,0,4.5,0.7,3.2-0.9c7.2,2.9,7-9.5,6-12.7c-1.1-3.5-3.6-4.3-5.3-7.3c-0.6-2.6-4.9-2.9-4.9-6.6
						c0-4.4,7.1-8.1,11.2-8.1c-1.4,5.4,4.7,5.4,2.7,2c2.9-1.3,8.5-2.3,10.1-4.8c5.2,2.4,6.8-2.3,10.1-3.7c1.1-0.4,10.9-7.1,7-8.7
						c0.4-0.5,6.5-6.9,6.6-6.8c-0.4-1.8,1.7-3.7,1.1-4.6c2.8-1.9-3.4-2.3-3.3-2.1c4.4-2.2,1.4-2.5,1.7-5.7c-0.1,0.3-3.9-5.3-4.2-5.4
						c0.6-0.5-1.7-2.6-1.6-2.4c-1.7-3.4,0.7-2.5,2-4c0.6-0.7,8.2-5.6,7.8-6.4c0.3-0.2-5.8-1.6-7-1.6c-5.5,0-3.9,5.2-8.5-2.8
						c1.3-1.1,12.4-8.2,13.5-6.9c0,2.5-3.7,4.1-2.4,6.9c-0.3-0.7,8-3.2,9.8-3.2c2.6,0,0.7,1.6,1.8,2.7c-1.5,0.7-3.5,2.5-0.3,3
						c-0.8,2.1,1.7,1.3,3,1.4c3.7,0.1,0.2,2.3,1,2.9c0.2,0.8-0.2,9.4-0.4,9.2c4,3,14.4-6.1,8.8-11.1c-0.8-2.4-2.4-5.5-5-6.3
						c0.9-2.7,2.4-2.1,3.8-4.3c2.2-0.8,4.3-5.5,2.1-4.3c-0.6-1.2,7.4-6.4,8.6-6.3c-1.6,6.3,8.1,0.8,9.4-0.9
						c2.5-3.3,11.6-10.8,11.5-14.6c0.1,1.3,4.1-6.7,3.5-6c0.6-0.7,2.1-10.6,1.9-11.7c0.5,0,1,0,1.5,0c0,0.2,0.8,24.6,0.1,24.5
						c1.8,0.4,0.8-2.7,3.4-1c1,2.3,1.8,1.3,2,0c0.6-3.7-4.6-6.5-0.6-11.2c1.6-1.8,2.8,1.8,4.1,1c-2.4,1.6-2.3-21.8-6.4-19.4
						c-2.8,1.1,0.9,5.2-4,3.8c-1.6-0.5-6.1-5.4-8.2-3.1c-0.3,0.3-1.4,2.5-2.3,2.7c1.8-1.2-0.7-3.5-2.1-1.7c0.8-4.2-1.1-3.1-4.4-3.2
						c1.2-3.1,5.2-3.6,7.1-5.5c1.5-1.6,2.2-4.1,4.6-5.7c2.4-1.3,11.4-7.6,11.4-9.8c2.7,1.2,19.6,4.8,19.1,0.1
						c4.2,0.7,5.8-0.4,7.9,1.6c-8.4-0.4,5.8,5.5,4.2,1.3c-0.4-1.1,5.5-1,5.6-1.5c2.2-0.2-0.6-3.3-2.3-1.9c0.2-4,5.5-4.5,7.7-7.8
						c4.2-2.1,6.9,0.6,9.8-0.6c-0.1,0.3-2.7,4.4,0.1,3.2c-0.1,0.4-0.4,1.4,0.1,1.6c2.2,1.1,4.9-6.3,8.1-4.6
						c-0.2,0.9,1.7,0.1,1.9,0.1c1.1,0.1-2.3-5.8,2.6-4.3c-0.4,0.1-1.3,1.3-1.3,1.6c-0.1,1.2,0,4.3-1.3,5.2c-1.4,1-6.3-0.7-5.6,2
						c0.8,2.9-9.4,6.8-10.3,9.8c-2.8-2.9-5,4.7-6.2,4.7c-1.8,0.1-5.7,31,6.6,21.1c3.1-2.5-1-3.4,3.5-4.5c1.3-0.3,1-3.5,2.5-4.7
						c1.1-0.5,3.5-0.5,4.9-1.7c2.9-2.6-4.4-6.5,3.8-6.7c0.4,0,1.8-3.4-1.6-2.2c-0.4,1-0.3-4.3,0.6-2.8c0.4,0,2-2.9,0-2.8
						c-4.3,0.3-1.7-2.9,0.4-4.4c-3.1,6.8,7-5.1,0.5-0.5c1.5-3,4.2-3.1,8-4.9c-1.2,4,2.6,2.4,3.5,0.7c2.7-5.2,6.1,0.2,8.4,1
						c2.9,0.9,8.6-6.1,11.8-6.8c2.4-0.6,16.5-4.7,16.6-4.4c0.6-1.5-3.3-7.5-5.7-6.8c3.3-2.9,8.6,1.9,9.5-5.2
						c1.5,1.6,10.8,0.4,9.4,2.8C123.2,547,131.3,549.1,132.7,548.8z M-350.4,645.5C-350.4,645.5-350.4,645.5-350.4,645.5
						L-350.4,645.5z M135.7,544.4C135.1,544.6,137.1,543.8,135.7,544.4C135.7,544.4,135.9,544.3,135.7,544.4z M24.9,518.9
						c1.1,0.6,0,0.6-3.2-0.1C23.6,517.5,23.8,517.9,24.9,518.9C24.9,518.9,24.8,518.8,24.9,518.9z M8.9,516.3
						c-0.3,0.1-0.8-1.9,2.4-1.8C10.5,515,9.7,515.7,8.9,516.3C8.6,516.3,9.8,516.1,8.9,516.3z M-57,507.7
						C-56.9,507.4-56.6,507.1-57,507.7C-57,507.6-57,507.6-57,507.7z M-342.6,636.8c-0.8-1.3-8.3-3.8-1.5-6.5c-0.9,0.4,3-4.8,3-4.6
						c-0.3,0.7,3.7-7.3,3.7-6c0-2.1,8.8,2.5,8.7,1.2c-3.1-0.5-5.5,3.1-1,3.1c1.5,0-0.8,2.1-0.2,2.6c1.3,1.1,8.1-1.8,9.8-2.2
						c2.7-0.5,2.6,2,5.2,2.2c2.2,0.1,7.5,7,9.6,7c0.6,5.6-13.7,3.3-15.6,3c-2.1-3.1-5.5-2.9-9.2-2.7
						C-330.3,633.9-343.7,638.5-342.6,636.8C-342.6,636.8-342.5,636.7-342.6,636.8z M-343,638.9c-0.8,0-1.5,0-2.3,0
						C-340.8,637.3-343.7,637.8-343,638.9C-343.7,638.9-343.2,638.7-343,638.9z M-320.7,622.8c-1.4-0.1-5.2-1-6-2.7
						c4.8,1.1,9.8-3.1,14.7-3.6c-1.4,0.5-8.2,3.3-4.1,4C-317,622-318.3,622.8-320.7,622.8z M-281.2,649.6c-0.6-2.2-2.8-3.3-0.6-4.6
						c-2.7,1.7,3.8-7.6,3.9-5.7c0-0.5-8.6-10-9-10.7c0.9-2.3,0.6-2.4-2-2.3c0.8-2.7,1.4-4.9,3.2-6.5c1.2,1.3,4.6-1,6.9-1.4
						c3.8-0.8,3.9-3.5,8.8-0.1c0.5,1.2,4,3.2,4,4.9c0,2.2-6.8-2-7.6,0.9c-2.4,0-3.3-0.4-2.6,2.1c-5.9-0.6,2.1,6.3,4.5,6
						c-1.5,6.2,2.5,1.6,6.2,5.6c-0.3,0.6-1.9,0.5-1.2,1.4c-3.5,0.2-4.9-2.6-4.9,3c0,1.1,2.7-0.9,2.3,0.6c-0.8-0.1-1.4,0.2-1.8,0.9
						c0.3,2.3,2.3-0.2,2.5-0.2c0.2,0.5,1.6,2.4,1.6,2.7c0-0.4-1.1,4.2-1.3,5.7c-1-1-4.7,1-6.4,0.6
						C-276.8,651.6-279.1,650.2-281.2,649.6C-281.2,649.6-280.8,649.8-281.2,649.6z M-116.9,493.6
						C-116.9,494.2-116.9,494.2-116.9,493.6C-116.9,493.6-116.9,493.6-116.9,493.6z M-251.3,630.2c0-0.2,0.1-0.5,0.1-0.8
						C-251.2,629.6-251.2,630-251.3,630.2z M-32.2,624.1C-32,623.8-33.1,625.7-32.2,624.1C-32.2,624.1-32.3,624.3-32.2,624.1z
						 M-41.4,515.4C-42.1,515.8-40.7,514.9-41.4,515.4C-41.5,515.4-41.4,515.3-41.4,515.4z M-365.6,647.8c0.4-0.7,1.2-0.6,2.2,0.2
						C-363.9,648.1-366.2,648.7-365.6,647.8C-365.6,647.8-365.7,647.9-365.6,647.8z M-49.5,510.9C-49.5,510.9-49.6,511.9-49.5,510.9
						C-49.5,510.9-49.5,511-49.5,510.9z M-57.1,508.2C-56.7,507.8-57.6,508.7-57.1,508.2C-57.1,508.1-57.1,508.2-57.1,508.2z
						 M-302.1,726.3c-1.9-3.2-4.5-4.5-7-7.3c-2.8-3.1-3.3-7.1-7.3-10.8c-1-0.9-2.1-8.2-1.9-8.9c0.6-2.4-2.6-1.8-3.5-3.3
						c-1.1-3.1,0.4-3.9-1.8-6.5c-1.4-1.6-5-7.4-4.9-9.6c0.8,0.6,3.3,1.3,3.2-0.4c3.1,1.5,3.1,4.9,6,6.5c2.1,1.1,0.7,3.1,1.9,4.8
						c1,1.5,3.6,1.8,4.1,3.7c0.4,1.5-2.1,4.6,0.5,5.7c0.4,6,5.7,4.9,6.4,9.8c0.4,3.2,5.8,4,4.4,7.7c-1.3,3.2,1.3,7.2,2.2,10
						C-300.7,727.2-301.4,726.8-302.1,726.3C-302.2,726-301.9,726.7-302.1,726.3z M103,546.4c-3.4,0.2,1.6,0,1.8,0
						C104.3,546.4,103.7,546.4,103,546.4C102.6,546.5,103.7,546.4,103,546.4z M-45.5,511.4C-44.1,511.2-46.6,511.6-45.5,511.4
						C-45.4,511.4-45.6,511.4-45.5,511.4z M-48.6,509.8C-48.5,510.2-48.6,510.3-48.6,509.8C-48.6,509.8-48.6,509.9-48.6,509.8z
						 M-52.9,509.2c-0.5-0.6-1.1,0.1-0.8-1C-51.9,507.8-53.3,508.1-52.9,509.2C-52.9,509.1-52.9,509.1-52.9,509.2z M-397.3,584.9
						c0.7,0.6,1.2,1.8,2.2,1.8c-1.7,0.3-3,2.6-0.4,2.6c2,0,5.3-3.3,1.5-2.8c1.3-0.4,7.4-2.7,7.3-3.2c-0.5-2.7,3.4-1.6,4.5-1.6
						c3.6,0,3.5-4,2.2-2.9c0.1-2.2,0.4-8.2,3.1-7.5c2.4,0.6,4.5-2.5,5.1-3.6c0.6-1.1-1.1-2.6-1.6-3c-3.3-3.2-3.7-0.2-3.6-5.3
						c0-1.7,0.1-2.8,0.1-4.2c1.2-0.2,4.1-2.4,4.2-3.9c0.1-1.9,6.2-2.5,7.5-4c-2,0,3.6-8.4,3.7-7.9c1.3-0.3,10.5,1.3,6.9,4.1
						c-2.2,1.7-6.9,5.3-8.2,7c-4.1,5.4-0.8,10.4,3,12.4c-2.5,0.1-1.7,2.8,0.9,1.6c1.1,0.5,9.5,0.5,8-1.6c2.1-0.3,3.8,0.4,5.9-0.3
						c-1.5,1.9,4.6,2.2,5.2,2.3c0.1,0.2,0.3,0.4,0.4,0.6c-2.4,0.3-5.6-0.2-6,2.4c-5.4-0.3-7.6-0.8-12.9,0.8
						c-0.3,0.1,0.9,7.3,0.3,8.7c-1.1-0.1-7.7-5.6-6.7-0.5c-0.1-0.3-3.7,8.9-2.7,8.4c-2.7-1.5-2.5,1.4-3.8,3.3c0-1.4-2.6,0.5-2.9,0.5
						c-1.6-3.9-9.9,2.3-15.1,0.6c0.1,0-7.2-1.3-6.7,0.8c-0.7-1.2-2.4-1.3-3.7-2.5c-1.7-1.6,2.9,0.2,2.9,0.1
						C-396.9,586.4-398.7,583.8-397.3,584.9C-397.2,585-397.5,584.8-397.3,584.9z M-109.7,778.5
						C-109.7,778.5-109.7,778.5-109.7,778.5L-109.7,778.5z M114.2,542.2c-1-0.3-1.1-2.1,0.1-2.4
						C114.1,540.6,113.8,541.6,114.2,542.2C114.1,542.2,114,542,114.2,542.2z"/>
					<g>
						<ellipse fill="#F0B2B2" cx="-157.2" cy="609" rx="7.5" ry="4.5"/>
						<path fill="#DB4C4C" d="M-157.3,570.2c1-3.2,2.4-5.7,4.2-7.3c1.8-1.6,4-2.4,6.6-2.4c2.8,0,5.2,0.9,7.2,2.8
							c2,1.8,2.9,4.1,2.9,6.7c0,1.8-0.6,3.9-1.7,6.3c-1.1,2.4-2.8,5.1-4.9,7.9l-1.5,2c-7.3,9.5-11.5,16.6-12.7,21.3
							c-1.3-4.7-5.5-11.9-12.8-21.4c-0.6-0.8-1.1-1.5-1.5-1.9c-2.2-2.8-3.8-5.5-4.9-7.9c-1.1-2.4-1.7-4.6-1.7-6.4
							c0-2.6,1-4.9,2.9-6.7c2-1.8,4.4-2.8,7.2-2.8c2.6,0,4.8,0.8,6.6,2.4C-159.7,564.5-158.3,566.9-157.3,570.2z"/>
					</g>
					<path fill="#F7D9D9" d="M-127.2,479c0,0-2.5,4.5-2.8,3.9c0.5,1,11.9-1.8,13.2-2c7.2-1.6-3-6.2-4.7-5c1-1.8-2-1.5-2-1.2
						C-125.1,475.2-125.8,477-127.2,479z"/>
					<path fill="#F7D9D9" d="M-272.5,510.1c0.4,0.8-1.8,0,0,1.3c-4.3,0.6-2.8,6.6,0.5,3.4c1.6,0.5,0.9,0,2.7,0c-0.3,1.3,0,2,1.1,2.1
						c-0.6,0.1-1.4,2.4-1.4,2.5c0,0.3,11.8,3.3,10.7-0.8c0.2,0,0.5,0,0.7,0.1c0,0,3.3,1.8,3.6-0.9c0,0-11.3-3.4-6.3-6.5
						c-0.5,0.3,4.4-10.2,4.6-9.6c1.4,0.2,1.4,1.1,2.4-1c2-1.1,2.9-0.9,5.2-1.9c1.4,0,2.4-2.3,4.5-2.2c2.8,0.1,5.4-0.8,7.7-1.7
						c4-0.9,11.5-0.2,9.9-5.6c-0.6-0.7-1.6-1.5-2.8-0.9c-2.2,1-12.4,2.5-13.3,3.8c-6.2,0-13.2,3.8-19.3,3.8c-0.3,0-2.7,2.8-3.5,3.1
						c-3,1-6.9,2.9-3,4.8c-1.5,1.6-0.8,0.4-0.1,1.6C-270.3,506.5-273.8,507.6-272.5,510.1C-272.5,510.1-272.6,509.9-272.5,510.1z
						 M-266.9,516.8C-268.3,517-266.9,516.4-266.9,516.8C-267,516.8-266.9,516.7-266.9,516.8z"/>
					<path fill="#F7D9D9" d="M-217.1,506.4c1.6-0.4,3.2,0.2,2.5-2.4C-215.5,500.7-220.7,506.4-217.1,506.4z"/>
					<path fill="#F7D9D9" d="M-192.2,507.1c1,0.9,2.7,2.3,3.4,0.1C-187.6,503.3-193.3,506.6-192.2,507.1
						C-192.1,507.2-192.4,507-192.2,507.1z"/>
					<path fill="#F7D9D9" d="M-196.2,511.2c0.4,0,7.3-2,4.4-2.6C-194.3,508.1-197,511.2-196.2,511.2z"/>
					<path fill="#F7D9D9" d="M-250.2,524c5.4,1.7,1.8-2.9-0.4-4.2C-254.1,517.8-253.4,523-250.2,524C-250,524-250.4,523.9-250.2,524
						z"/>
					<path fill="#F7D9D9" d="M-283.1,526.2c0,3.9,4.6-1.6,4.7-1.7C-278.7,525-283.1,521.1-283.1,526.2z"/>
					<path fill="#F7D9D9" d="M-632.7,711.5c-2.8-0.2,4.8,5.7,4.6,1.1C-628.2,711.5-633.6,711.4-632.7,711.5
						C-632.9,711.5-628.2,711.8-632.7,711.5z"/>
					<path fill="#F7D9D9" d="M-367.3,518.4c-1.8-1.8-1.1,1.4-0.9,1.1C-367.6,520.5-366.8,518.9-367.3,518.4
						C-367.5,518.2-367.1,518.6-367.3,518.4z"/>
					<path fill="#F7D9D9" d="M-370.3,517.8c-2-0.5,1.1,4.1,1.5,1.4C-369.2,518.4-369.7,517.9-370.3,517.8
						C-370.4,517.8-370.3,517.8-370.3,517.8z"/>
					<path fill="#F7D9D9" d="M-359.4,516.6c-0.6,0.4-1.1,0.9-1.7,1.3C-361.3,522.7-355.4,516-359.4,516.6
						C-360.4,516.8-359,516.6-359.4,516.6z"/>
					<path fill="#F7D9D9" d="M-384.1,528.6c-0.7-0.6-3,0.6-2.6,1.6C-386.2,531.6-382.7,529.8-384.1,528.6
						C-384.4,528.3-383.8,528.8-384.1,528.6z M-386,529.6C-386,529.7-386,529.6-386,529.6C-386,529.6-386,529.6-386,529.6z
						 M-386,530.1C-386,530.1-386,530.1-386,530.1L-386,530.1z"/>
					<path fill="#F7D9D9" d="M-383,530.3c0.8,1.3,5.4-2.2,4.9-3.6c-0.3-0.7-6.6-0.7-6.8,0.1C-384.9,526.8-383.2,530-383,530.3z"/>
					<path fill="#F7D9D9" d="M-388,529.6c-2.2-0.4,0.9,3.6,1.3,1.1C-386.9,530.1-387.4,529.7-388,529.6
						C-388.2,529.6-387.5,529.7-388,529.6z"/>
					<path fill="#F7D9D9" d="M-343.5,480.1c-0.6-0.1,4.7,0.3,4.9-0.8C-338,475.4-346.2,480.1-343.5,480.1z"/>
					<path fill="#F7D9D9" d="M-356.6,514.9C-358.8,512.8-354.6,516.9-356.6,514.9C-356.8,514.7-356.4,515.2-356.6,514.9z"/>
					<path fill="#F7D9D9" d="M-395.2,479.1c0.1,0.4,1,3.4,2.4,1.9c0.6-0.7-0.7-1.9-1-2.4c2.6,1,1.1,4.8,5,3.4c1.3-0.5,2-0.9,3-2.2
						c1.7,0.6,2,1.6,5,2c-2.2,0.3-6.2-0.3-7.6,0.4c-4.6,2.1,1.4,2.5,3.5,2.6c-1.5,1-4.7,0.6-4,3.1c0.3,0.9,5.4,3,6.6,2.3
						c0.6,3.6,3.2,2.1,3.2-0.3c1.4-0.7,4.7-1,6-2.3c1.7-2.1-0.4-5.6,3.3-5.8c-2.4,1.4,2.1,2.9,2.5,2.9c-6.1,5.1,8.8,3.7,10.5,3.4
						c3.1-0.5-5.1-4.3-7.5-3.9c0.1-2.3-8.6-7.4-10.5-7.8c1.6-2.5-10.1-8.4-8.7-0.2c-4.5-4.6-2.1-1.2-5.5-1.5
						c0.8-0.1,1.2-0.6,1.4-1.2c-2.2-5.9-9.1,4.8-5.8,2.5c-0.2,0.7-0.7,1-0.7,2c-0.1-0.6-0.5-0.9-1-1
						C-395.9,477.5-395.9,478.3-395.2,479.1C-395.1,479.7-395.3,478.7-395.2,479.1z"/>
					<path fill="#F7D9D9" d="M-348.5,479.7c-1,0.8,1.7,3.2,2,1.6C-346.3,480.5-347.8,479.1-348.5,479.7
						C-348.7,479.8-348.4,479.6-348.5,479.7z"/>
					<path fill="#F7D9D9" d="M-258.5,831.5c-2.4,0.3-1.1,3.2,0.5,3.2C-256.7,834.6-256,831.2-258.5,831.5
						C-259.6,831.6-257.6,831.4-258.5,831.5z"/>
					<path fill="#F7D9D9" d="M-280.2,809.9c-3.2-5.3-7.4,3.2-7,4.7c-2.6,2.2-4.5,3.2-7.5,4.7c-9.3,3.5-0.6,10.5-4.5,12.9
						c-1.9,1.2-4.2,6-3.3,8.4c1.3,3.5,3.7,9.4,8,9.4c6,0,7.4-9,9.3-13.4c0.8-1.9-0.1-4.4,0.9-5.7c1.1-1.4,2.4-2.9,2.8-4.7
						c0.3-2,1.9-4.3,0.8-6.5C-277.1,820.2-279.3,811.5-280.2,809.9C-280.5,809.6-279.4,811.2-280.2,809.9z"/>
					<path fill="#F7D9D9" d="M-665,714.3c0.9,0.1,4.3-0.1,4.3-1.6C-660.7,707.9-675.1,712.7-665,714.3
						C-664.7,714.3-665.2,714.2-665,714.3z"/>
					<path fill="#F7D9D9" d="M-405.9,638.6c1,5.6,3.9,10.2,5.7,2.7C-399.6,635.4-406.1,637.7-405.9,638.6
						C-405.8,639.3-405.9,638.4-405.9,638.6z"/>
					<path fill="#F7D9D9" d="M-461.2,598.2c2.3,2.9,3.8,1.2,6.8,0.2c1.7,0,5.7-1.7,5.3-4.1c-0.8-5.8,1.5-2.4,2.8-5.4
						c1.6-3.7-6.2-4.3-7.8-4.4c-1-0.1-7.1,5.9-4.9,5.4c0,0.1,0,0.2,0,0.3c-3.3-0.2-2,2.8,0.8,2.8
						C-459.2,594.8-461.7,597.2-461.2,598.2z"/>
					<path fill="#F7D9D9" d="M-129.1,776.8c-1.1,0-0.1,1.6,0.5,1.6C-127.8,778.5-127.9,776.8-129.1,776.8z"/>
					<path fill="#F7D9D9" d="M-130.7,773.5c-2.4-1.2-3-1.7-2.2,1.6C-132.6,776.2-128.4,774.6-130.7,773.5
						C-130.8,773.4-130.1,773.8-130.7,773.5z"/>
					<path fill="#F7D9D9" d="M-136.1,764.1c-0.2-0.4-2-0.4-2.3-0.1c-0.5,0.5,2.8,3.7,3.6,2.5C-134.2,765.8-135.7,764.7-136.1,764.1
						C-136.2,763.9-136,764.2-136.1,764.1z"/>
					<path fill="#F7D9D9" d="M-141.4,759.7c-1.9-0.7,0.5,3.2,1.1,1.3C-140.5,760.4-140.9,759.9-141.4,759.7
						C-141.6,759.6-141.2,759.8-141.4,759.7z"/>
					<path fill="#F7D9D9" d="M-483.5,549c3.2,1.2,10-3,12.1-4.3c2.3-1.4-0.8-3.7-1.8-4.2c-2.6-1.4,0.3-1.5-0.2-2.8
						c0.2,0.4-6.5-2-6.5,0.6c-1.6-0.2-6.1,0.2-5.7,1.4c0.5,0.1-4.2-4.2-4,0.2c-1.7-2.6-1.8-1.4-2.2,1.1c-0.4,0-1.5-0.2-1.9,0.2
						c1.8-5.8-9.6-3-4.5-3.2c-0.9,0.4,0.9,1.6,1,1.7c-1.4-0.5-6.6,1-6.4,2.6c0.3,2.4,5.2-0.7,5.8-0.8c-0.6,0.5-0.8,1-0.5,1.5
						c-0.7,0-4,0.8-4.3,1.3c-0.9,1.5,5.7,1.5,6.5,2.3c-0.7,0.2-2.7,0.1-2.8,0.9c-0.4,2.1,6.9,1.4,7.9,1.6
						C-495.4,549.6-481.5,553-483.5,549C-483.1,549.2-483.4,549.2-483.5,549z M-493.7,541.4C-494,542.1-494.1,541.7-493.7,541.4
						C-493.8,541.4-493.8,541.5-493.7,541.4z"/>
					<path fill="#F7D9D9" d="M-503.2,524.7c1.5-0.1,9.7-3.7,8.6-5.2c1.7,0.6,2.5-1.7,1.1-1.7c1.1-1.8-0.9-5.1-3-5
						c0-0.1,0.1-0.1,0.1-0.2c1.1,0.4,2,0.3,3-0.3c0.7-3.1-1.5-5.3-5.4-6.6c3.1,0.1,12.2-1,7.4-5.3c5.9,0.8,7.5-1.6,0.9-1
						c0.7-1.8,5.4,0,0.9-2.5c5.6,1.6-2.7-9.2-2.4-8.7c1.9,0.2,9.7,3.4,8.2-1.4c-0.6-1.9-4.9-2.1-6-2.4c0.6,0.1,2.5,0.8,2.8,0
						c0.5-1.3-1.9-2.1-2.5-2.1c1.7-1.1,2.9-4.8,2.9-6.8c1.5,0,6.1-0.3,5.6-2.8c-0.7-3.9-7.9,0.4-8.4-1.1c-0.1-0.2,13.5,0.7,13.5-2.6
						c0.5-0.2,9.8-5.1,9.7-5.1c-2.4-5.8-16.5-0.4-20.4-0.4c-2.9,0-1.9,0-3.5-1c-1.1-0.6-2.1,2-3.4,1.8c-1.9-0.2-7.2,4.4-9.2,1.7
						c-0.1,0.1,10.2-4.6,7.2-4.8c-3.7-0.2-5-0.9-6.7,1.3c-2.9,4-5.2-1.3-6.3-1.7c2.5-0.4,18.2,1.5,18.1-2.6c0-1.8-10.2-2.9-11.7-2.6
						c-0.7-0.2-0.5-2.5-2.2-2.7c-2-0.4-2.9,1.4-4.8,1.4c5.7-3.6-12.8-3.3-15.3-3.5c-1-1.6-21-0.2-21,1.6c-1.4-0.3-9,2-8.6,3.6
						c-0.2-0.1-9.6-5.7-9.6-1.6c0.1-0.1-2.1,3.8-2.1,3.9c-8.3-3.2-9.2,1.5-1.1,5.6c-4.5,0.2-3.4,1.3-7-2.9c-1.1-1.3-6-4.3-7.9-3.2
						c-4.3,0,5.3,8.5-5,5.3c0.7,0.2,2.6,1.1,3.1,0.3c1.2-1.7-8.3-4.5-8.8-3.9c-0.1,1.3,0.7,2.1,2.4,2.5c-1,0.2-1.8,0.8-2.4,1.9
						c-0.6-9.5-17.6,0.4-23.1-1.9c-0.1,0-2.7,3.5-5,3.5c-2.3,0-13.5,2.4-13.8,4.6c-0.4,3.2,6.4,2.3,9.5,1.6c-1.4,1.8,1.5,3-2.9,4.9
						c-3.3,1.4-8.3,0.4-11.8,0.9c-16.2,0.6-5,6.8,2.2,7.5c-0.6,0.1-9.5,1.4-9.6,1.5c-1.7,2.4,4.5,2.9,4.4,2.9
						c-1,0.3,8.2,7.1,7.8,1.6c3.2,0.3,10.3,2,13-1.1c0.9,0.1,5.3,1,7.9,1.6c4.9,1.1,6.8,4.3,11,7c-0.4,0.1-1.9,0.5-1.8,1.3
						c0.2,1.4,3.9-0.1,3-1.1c0.2,0,0.4,0,0.7,0c1.2,1.5-2.8,1.9-2.4,2.7c-0.5-1,4.1,1.6,4.4,1.8c-0.4,0.2,1.5,3.4,2.6,3.4
						c-0.1,1.8-4.3,3.2-3.6,6.1c0.7,3.3,5.2,0.8,5.7-0.9c2.9,1.3,5.6,2.7,9.2,3.1c-0.9,0.8-1.3,2.4-0.6,3.4
						c-1.8-0.5-10.3-4.8-11.2-1.4c-0.5,2.1,2.8,1.4,3,2.3c-4.3-0.5-6.7,4.8-1.1,5.1c-0.5,0-1.5-0.3-1.9,0.2
						c-1.6,2.5,6.5,1.1,7.2,0.6c4.2-2,0.8-3.2-2.5-5.5c2.3,1.4,5.3,2.3,8.1,1.8c-0.6,2-1.6,3.4,0.9,3.3c-1,2.5-2.7-0.4-1.8,4.1
						c-3.3-0.4-9.4,2.7-7.6,5.9c-1.6,1.2,0.4,2,1.2,2.7c-0.1,2.1-4.1,3.2,0.1,3.7c-0.2,0.3-0.5,0.5-0.9,0.5
						c-0.4,1.2,2.5,0.7,3.1,0.7c-0.2,4.9,1.2,4.8,5,3.8c-1.9,0.8-5.6,5.1-0.7,5c-1.3,1.6,1.9,4,3.1,3.6c-0.2,2.9,1.2,1.1,2.7,0.7
						c-1.1,3.4,5,8.1,8.8,5.1c0,2.6,2.7,2.1,4.4,1.9c-0.4,0.4-0.6,1-0.7,1.6c0.8,0.1,1.6,0.3,2.4,0.5c-2.9,1.5,4.4,0.7,4.2,0.8
						c1-0.2,1.9-3.1-0.2-3.6c2.2-2,2.9-6.7,3.4-8.9c2.8,1.6,5.3-6.9,3.9-9.4c0.7,0.2,3.3-0.8,2.4-1.8c4.7-0.2,8.2-1.1,11.7-0.7
						c0.5,0.1,6.9-6.6,8.3-7.3c1-0.5,4.3-1,2.8-3.1c2.4,1,5.1,1,6.1-0.4c1.6,0.7,12.3-0.6,12.2-3.3
						C-508.4,527-503.8,525.4-503.2,524.7C-503.1,524.7-503.3,524.8-503.2,524.7z M-523,460.9c3.6-0.7,7.2-0.6,10.8-0.2
						C-515.7,461-520,460.8-523,460.9z M-530.7,463.4C-530,462.5-531.1,464-530.7,463.4C-530.6,463.4-530.7,463.5-530.7,463.4z
						 M-531.9,454.6c-0.1-0.1,0.5,1.3,0.5,1.3C-532,455.7-532.2,455.3-531.9,454.6C-531.8,454.8-532,454.8-531.9,454.6z
						 M-505.4,506.1C-505.4,506.2-505.8,505.3-505.4,506.1C-505.4,506.2-505.4,506-505.4,506.1z M-507.1,513.6
						C-504.8,514.3-506.8,514.1-507.1,513.6C-506.7,513.7-507,513.7-507.1,513.6z M-513.2,516.2C-512.9,515.9-510,516-513.2,516.2
						C-513.1,516.1-512.7,516.2-513.2,516.2z M-512.5,513.3C-512.7,513.3-514.2,512.7-512.5,513.3
						C-512.7,513.3-512.9,513.2-512.5,513.3z M-510.4,513C-509.9,512.9-507.4,512.9-510.4,513C-510.2,513-510,513-510.4,513z
						 M-500.9,509.1c0.9,0.3-1-0.3-1.8-0.8C-495.3,510.3-503.9,507.9-500.9,509.1C-500.8,509.1-501.1,509-500.9,509.1z
						 M-503.3,507.8C-502.4,509.3-504.1,506.4-503.3,507.8C-503.2,508-503.3,507.7-503.3,507.8z M-500,519.3
						c-3.3-1.5-4.4,0.5-7.5-0.3c0.1-0.2,0.1-0.5-0.1-0.8c1.9-0.2,3.5-2.1,2.7-4.1c3.3,1,4.1,4.8,8.3,5.1
						C-497.7,519.5-498.8,519.5-500,519.3C-500.1,519.3-499,519.6-500,519.3z M-492.4,490.8C-493.5,490.9-492.8,490.6-492.4,490.8
						C-492.4,490.8-492.4,490.8-492.4,490.8z M-490.4,482.2c-1.2-0.2-2.5-0.3-3.7-0.3C-493,480.4-491.9,482-490.4,482.2z
						 M-483,468.5c-0.5,0-1.1,0-1.6,0c1.1-0.3,2.2-0.4,3.3-0.3C-481.9,468.2-482.5,468.4-483,468.5z M-583.9,533.2
						C-584,532-583.2,532-583.9,533.2C-583.9,533-583.6,532.7-583.9,533.2z M-587.3,533.4C-589.7,533.2-587.6,532.9-587.3,533.4
						C-587.6,533.4-587.3,533.3-587.3,533.4z M-584.2,530.5C-583.5,530.1-587.5,532-584.2,530.5
						C-584.2,530.4-584.6,530.6-584.2,530.5z M-632.6,484.9c0.9-0.1,1.9-0.2,2.8-0.3C-630.2,484.8-635.4,485.3-632.6,484.9
						C-631.7,484.8-632.9,485-632.6,484.9z M-583.1,545.9C-583.1,546.1-584.2,546.2-583.1,545.9C-583.1,546-583.3,546-583.1,545.9z
						 M-490.4,496.9c-1.6,1.4,0.1,0-1.6-1.2C-491.1,495.7-489.4,496-490.4,496.9z M-582.9,553.4
						C-582.5,552.8-582.1,552.7-582.9,553.4C-582.9,553.4-582.7,553.2-582.9,553.4z"/>
					<path fill="#F7D9D9" d="M-649,484.9c-0.4-0.1,3.2,2.1,1.9-0.2C-647.5,483.8-649.7,484.3-649,484.9z"/>
					<path fill="#F7D9D9" d="M-487.3,496.8c0,1.6,5.7-0.4,5.5-1.2c0-0.1-3.8-2.4-4-2C-486.8,495.4-487.3,493.7-487.3,496.8z"/>
					<path fill="#F7D9D9" d="M-488,490.1c0.1,1.2,0.7,1.9,1.6,2.4C-483.3,492.4-489.2,487.3-488,490.1
						C-487.2,492.1-488.1,489.9-488,490.1z"/>
					<path fill="#F7D9D9" d="M-592,515.6c0.6,0.2,1.1,0.1,1.5-0.5C-590,512-595.2,514.4-592,515.6
						C-591.8,515.6-592.3,515.5-592,515.6z M-591.4,515.2C-591.4,515.2-591.4,515.2-591.4,515.2L-591.4,515.2z"/>
					<path fill="#F7D9D9" d="M-355.9,645.8C-355.9,647.3-355.9,644.2-355.9,645.8C-355.9,646-355.9,645.5-355.9,645.8z"/>
					<path fill="#F7D9D9" d="M-351.9,657.2c-1.9,0-13,0.2-5.2,1.7c1.2,0.2,5.1,1.5,6.1,0.6C-350.6,659-351.3,657.3-351.9,657.2
						C-354.4,657.2-351.6,657.2-351.9,657.2z"/>
					<path fill="#F7D9D9" d="M-400.9,633.9c2.3-3.3-7.2-5.8-3.5,2.5C-403.1,639.4-400.8,633.6-400.9,633.9
						C-400.4,633.2-401.1,634.1-400.9,633.9z"/>
					<path fill="#F7D9D9" d="M-263,835.9c1.2-3.1-4.3,0.8-2.9,0.5C-265.9,836.5-263.2,838.4-263,835.9C-263,835.8-263,836-263,835.9
						z"/>
					<path fill="#F7D9D9" d="M-369.8,566.4c2.5,1.1-1.3-3.2-1.2-2.9C-370.7,563.8-373.8,564.5-369.8,566.4
						C-369.7,566.4-370.1,566.2-369.8,566.4z"/>
					<path fill="#F7D9D9" d="M-540.2,949.8c-0.2-0.6-2.5-0.5-2.8-0.1C-543.7,950.6-538.6,953.9-540.2,949.8
						C-540.3,949.6-540.1,950.1-540.2,949.8z"/>
					<path fill="#F7D9D9" d="M-605.2,939.2c-3.6-0.6-3.3-1.1-6.7,1.5c0.1-0.2,1-2.1,1.1-1.8c-1.4-4.1-6.1,1.8-5.7,2.9
						c0.7,1.7,7.8,0.4,8.1-0.7C-607.9,941.1-602.9,939.6-605.2,939.2C-606.2,939.1-605,939.3-605.2,939.2z"/>
					<path fill="#F7D9D9" d="M-362.2,574c2.5,0,3.9-2.9,0.5-3.1c3.7-2.3-1.8-3.3-1.9-1.8c0,0.2,1,1.8,1.1,1.8
						C-365.2,571.2-364.8,574-362.2,574z"/>
					<path fill="#F7D9D9" d="M-404.5,758.4c1-1.1-0.7-2.5-1.9-1.3C-407.6,758.3-405.1,759.2-404.5,758.4
						C-404.4,758.3-404.6,758.5-404.5,758.4z"/>
					<path fill="#F7D9D9" d="M-710,768.7c-1-1.6-0.9,2.9-0.7,2.9C-711.4,771.8-706.6,774.2-710,768.7
						C-710.1,768.5-709.7,769.2-710,768.7z"/>
					<path fill="#F7D9D9" d="M-643.6,712.8c0.7,0.3,7.2-1.4,7.2-0.8c0-3.3-14-7.1-15.4-4.4c0.3-0.6,1.4,4,2.1,3.2
						c0-0.1-10.3-0.4-4.8,2.3C-649.8,713.1-645.4,714.5-643.6,712.8z"/>
					<path fill="#F7D9D9" d="M-333.8,659c-1.4,2.4,10.1,1,8-2.7C-326,656-333.2,658.1-333.8,659C-333.9,659.2-333.7,658.9-333.8,659
						z"/>
					<path fill="#F7D9D9" d="M-682.2,702.2c0.2,1.3,3.1-0.8,2.9-1.8C-679.7,697.9-682.3,701.3-682.2,702.2
						C-682.1,702.4-682.2,701.9-682.2,702.2z"/>
					<path fill="#F7D9D9" d="M-655.5,707c1.6-0.1-6.3-4.8-7.2-5.4c-5-3.1-18.5-9.4-22.9-2.4c-2.5,4,2.5,0.7,2.6,0.7
						c4-2,2.4-1.2,5.8-0.2c4.8,1.4,8.2,3,12.4,5.9C-668,710.8-658.2,707.2-655.5,707C-655.4,707-657.1,707.2-655.5,707z"/>
					<path fill="#F7D9D9" d="M-653.7,912.3c-1.8-1.8-1.1,1.4-0.9,1.2C-654.1,914.4-653.3,912.8-653.7,912.3
						C-654,912.1-653.5,912.5-653.7,912.3z"/>
					<path fill="#F7D9D9" d="M-667.9,527.9c0.6-3.3-4.2,0.2-2.7,0.3C-670.5,529-668,528.5-667.9,527.9
						C-667.8,527.5-667.9,528.3-667.9,527.9z"/>
					<path fill="#F7D9D9" d="M-679.7,552.3c0.1-0.4-7.7,1.5-7.1,3.4C-686,558.1-678.4,553.8-679.7,552.3
						C-679.7,552.2-679.7,552.4-679.7,552.3z"/>
					<path fill="#F7D9D9" d="M-627.7,558.3c-2.2,0,1.9,3.9,1.9,0.8C-626.1,558.3-626.7,558.1-627.7,558.3z"/>
					<path fill="#F7D9D9" d="M-616.7,614.2c0.6,0,1.7-1.2,1.4-1.8C-615.9,610.9-618.5,614.2-616.7,614.2z"/>
					<path fill="#F7D9D9" d="M-597.6,598.5c0.6-1.4-2.7-1.8-3.9-0.2c-1.9,2.6-3.8,6.9-5.4,10c-1.3-0.1-4.3,7.7,0.4,4.7
						c3.4-0.7,9.2,0.3,11.3,1c-0.3,0.2-1.3,0.4-1.3,0.9c0.1,3,4.3-1.6,4.8-2.1c0.3,0.2,1.5,5.1,2.2,2.5c0,2.9,4.8-1.1,3.6-4
						c-0.6-1.6-2.3,0.9-3.3-0.2c0.4-0.4,1.7-1.2,1.2-1.8c-0.5-0.5-2.2,0.2-2.8,0.4c-1.1-5.2-3.6-2.1-7.6-3.3
						c1.8-1.2-0.7-3.4-2.5-1.8C-601.2,602.2-598.4,600-597.6,598.5C-597.6,598.5-597.8,599-597.6,598.5z M-598.9,597.7
						C-599,598.6-599,597.6-598.9,597.7C-598.9,597.7-598.9,597.7-598.9,597.7z"/>
					<path fill="#F7D9D9" d="M-616.4,608.3c0.7-1.7-9-5.4-9-3.7C-626.3,605.1-617.4,610.7-616.4,608.3
						C-616.2,607.9-616.4,608.4-616.4,608.3z M-617.1,607.8C-617.1,608-617.1,607.8-617.1,607.8
						C-617.1,607.8-617.1,607.8-617.1,607.8z M-617.1,608.2L-617.1,608.2L-617.1,608.2L-617.1,608.2z"/>
					<path fill="#F7D9D9" d="M-597.7,614.5c-1.4-0.4-0.1,2.3,0.1,2.3C-596,617.3-596.2,614.9-597.7,614.5
						C-598,614.4-596.6,614.8-597.7,614.5z"/>
					<path fill="#F7D9D9" d="M-691.4,532.2c-1.8-1.8-1.1,1.4-0.9,1.1C-691.7,534.2-690.9,532.7-691.4,532.2
						C-691.6,531.9-691.2,532.4-691.4,532.2z"/>
					<path fill="#F7D9D9" d="M-678.7,619.4c-0.2,0-2.8-0.3-3,0.3c-0.3,0.9,4.7,2.9,4.9,1.2C-677.1,620.1-677.8,619.6-678.7,619.4
						C-679.1,619.3-678.1,619.6-678.7,619.4z"/>
					<path fill="#F7D9D9" d="M-672.6,558.1c0,1.8,5-3,1.7-3C-671.8,555.1-672.6,557.4-672.6,558.1z"/>
					<path fill="#F7D9D9" d="M-666.2,553.1c-0.8,0.8,1.8,2.4,1.9,1C-664.2,553.4-665.7,552.6-666.2,553.1
						C-666.3,553.2-666.1,553-666.2,553.1z"/>
					<path fill="#F7D9D9" d="M-636.8,561.3c-1.9-0.4,1.1,3.3,1.4,1.2C-635.7,561.9-636.2,561.5-636.8,561.3
						C-637,561.3-636.4,561.4-636.8,561.3z"/>
					<path fill="#F7D9D9" d="M-669.8,577.9c-4,0-1.5,3.4-0.7,1.9C-670.5,585.6-666.9,577.9-669.8,577.9z"/>
					<path fill="#F7D9D9" d="M-662.9,552.6c-2.2-0.4,1.1,3.8,1.4,1.4C-661.6,553.2-662.1,552.7-662.9,552.6
						C-663.1,552.5-662,552.7-662.9,552.6z"/>
					<path fill="#F7D9D9" d="M-665.6,523c-1.1-1.1-1.7,0.1-1.7,0.9C-667.3,524.8-664.2,524.5-665.6,523
						C-665.8,522.8-665.4,523.2-665.6,523z"/>
					<path fill="#F7D9D9" d="M-660.7,533.2c0.4,2.1,6.5-1.4,4.1-3.1C-659.3,528.3-662.2,529.4-660.7,533.2z"/>
					<path fill="#F7D9D9" d="M-654.6,532c0.1,0,2.3-0.2,2.3-1C-652.3,527.1-657.3,532-654.6,532z"/>
					<path fill="#F7D9D9" d="M-624.2,554.3c5.1,2.3-1-6.5-1.7-1.4C-625.6,553.6-625,554.1-624.2,554.3
						C-624,554.4-625,553.9-624.2,554.3z"/>
					<path fill="#F7D9D9" d="M-690.3,523.2c1.3,0.7,0.1-4.4-2.8-3C-695.1,521.1-690.6,523-690.3,523.2
						C-690.2,523.2-690.8,522.9-690.3,523.2z"/>
					<path fill="#F7D9D9" d="M-659.5,525.1c2.5,0.8-1.2-3.7-1.6-1.1C-660.9,524.7-660.4,525.1-659.5,525.1
						C-659.4,525.1-661.2,524.6-659.5,525.1z"/>
					<path fill="#F7D9D9" d="M-745.3,483.6c-1.4-1.9-3.2-2.9-2.3,0.5C-746.8,487.4-744.2,485-745.3,483.6
						C-745.7,483.1-745.3,483.7-745.3,483.6z"/>
					<path fill="#F7D9D9" d="M-702.1,487c-0.4-0.4-3.3,0-3.3,0.7C-705.4,491.1-700.1,489.1-702.1,487
						C-702.3,486.8-702,487.1-702.1,487z"/>
					<path fill="#F7D9D9" d="M-727.8,486.9c-1.2-0.6-2,1.2-1.9,2c0.4,0-4.3-5.4-4.2-1.3c0.4,0.8,1.1,1.1,2,1.1
						c-0.4,0.3-2-0.5-2.3,0.3c-0.2,0.5,1.4,2,1.5,2c0.9-0.7-7-4.7-5.7-0.9c-1-1.1-3.1-2.9-4.8-3c-3-0.1-3.6,4.7-0.4,4.3
						c-0.5,0.2-1,0.6-1.3,1.1c0.5,0.4,1.1,0.5,1.8,0.3c-0.5,0.4-3.9,4.6-1,4.6c1.1-0.5,1.2-1.3,0.4-2.5c1.1,0.2,3-0.4,3.5-0.7
						c-3.2,2.7,7.9,0.3,7.3,0.4c-6.2,3.1,10.1,5.4,9.5,1.9C-722,495.2-726.1,487.8-727.8,486.9z M-738.1,492.2
						c-0.3-0.2,1.4-0.9,1.5,1.1C-743,493.1-736.1,493.4-738.1,492.2C-738.2,492.2-737.9,492.3-738.1,492.2z M-737.9,490.4
						C-737.9,491.5-738.2,490.4-737.9,490.4C-737.9,490.4-738.1,490.4-737.9,490.4z M-743.1,494.5
						C-743.1,494.5-743.1,494.5-743.1,494.5L-743.1,494.5z"/>
					<path fill="#F7D9D9" d="M-759.7,487.1c-1.5-3.2-6.2,2.4-1.5,4.5c-0.4,0.4-0.6,0.9-0.7,1.5c0.8-0.2,1.2,0,1.4,0.5
						c-4.3-0.2-7.2-1.6-11.2-2.2c-1.8-0.5-6.2-0.7-7.3-1.5c-0.3-3.9-3.3,2.9-3.7,3c-3.5,0.8,2,4.5,4.4,4.3c3.4-0.3,8-0.9,11.8-1.1
						c-2.1,1-9.1-0.3-8.4,3.5c0.7,3.9,9.7-1.7,11.3-1.7c2.6,0,6.9-1,8.5-1.1c1.6-0.2,6,0.2,6-2.8c0-1-3.3-6.2-4.2-3.9
						c0.2,0.5,0.2,1,0.1,1.5C-754.7,489.7-758.4,490-759.7,487.1C-759.8,486.9-759.4,487.8-759.7,487.1z M-775.4,495.6
						c-0.2-0.9,0.1-1.6,0.1-2.1C-775.2,494.3-775.2,494.9-775.4,495.6C-775.5,495.5-775.2,495.1-775.4,495.6z"/>
					<path fill="#F7D9D9" d="M-726.8,480.8c2.8,0.5,2.9,4.1,6.4,3.4c0.7,0.8,3.7,2,6.3,2c7.1-1.5,3.1-4.9-1.8-3
						c1.4-3.5-3.3-2.9-4.4-3.9C-726.3,473.9-728.3,480.5-726.8,480.8z M-717.5,483.8C-720.6,483.8-715.1,483-717.5,483.8
						C-717.8,483.8-717.3,483.7-717.5,483.8z M-714.1,485.7C-714.1,485.7-714.1,485.7-714.1,485.7L-714.1,485.7z"/>
					<path fill="#F7D9D9" d="M-750.3,478.1c1.8,0.6,2.4,1.5,2.2,2.7c0-0.2,10.4-0.7,12.2,1.5c-0.5-0.2-3.5-0.7-2.6,1.3
						c0.6,1.4,4.8,1,3.8-0.7c1.4,0.2,3.1,1.2,4.4,1.7c1,0.4,2.6-2.6,1-3.2c-1.6-0.7-10-6.7-11.4-4.2c-2.3-2.3-2.9-0.5-4.4-0.1
						C-746.3,470.1-752.2,478.7-750.3,478.1z"/>
					<path fill="#F7D9D9" d="M-805.9,513c1.8,0.8,4.1,5.6,6.4,2.8c1.8-2.2,2.5-2,5.6-1.7c2.5,0.2,3.9-4.8,6.4-6.3
						c3.4-2,7.2-1.7,9.9-3.4c-2.7,2.8-12,2.7-12.6,8c-2.8-0.2,2.5,4.7,2.5,2.6c-0.8,1.4,6.9-0.6,6.4-0.6c-15.4,3,9.7,4.7,13.7,3.7
						c-0.1,0.1-15.8,2.7-15.9,2.6c0.9,4.5,9,4.6,8.8,6.6c-0.5,6.4,23-5,25-4.9c-1.1,3.3,4.8,4.1,7.6,4.2c1.2,0.1,5.5,0.8,5.7,0.6
						c0.7-0.8,0.3-3.3-0.9-4c0.3,0,1.7-0.4,0.7-0.8c0.3,0,0.7,0,1,0c-0.1,5.4,3.3-1.9,2.5-4.9c0.5,2-8.5-0.4-8.8,0.1
						c-3.1-0.7-4.7-8.1-7.3-7.9c2.3-1.3-3.5-5.6-4.1-6c-1.7-1.4-3.9,4.8,0.6,5.7c-0.2,0.2-0.4,0.5-0.6,0.7c-0.4-2.7-3.8,2-4.1,2.1
						c2.1-3.4-2-6.7-2.3-6c-3.7-2.3-1.4,4-5.7,0c-4-3.8-4.4,0.8-3.8,3.7c-4.8,0.3-3.7-10.1-8.2-5.6c0.8-1.3-15.9-6-18.6-6
						c-1.2,0-4.4,1.5-5.6,1.7c-11.1,2.2,2.2,3.2-3.5,6.6C-806.2,507.3-807.9,512.1-805.9,513C-805.3,513.3-806.3,512.8-805.9,513z
						 M-739.6,523.5c-1.1-0.1-0.9,0.1-1.3-0.7C-739.3,522.5-738.9,522.7-739.6,523.5C-739.9,523.5-739.5,523.4-739.6,523.5z
						 M-737.2,522.3C-739.2,521.8-735.8,522.6-737.2,522.3C-737.3,522.2-737,522.3-737.2,522.3z"/>
					<path fill="#F7D9D9" d="M-747.7,526.9c-3.5,0.2,2.7,2.9,2.4,1.1C-745.7,527.1-746.5,526.7-747.7,526.9
						C-748.1,527-745.9,526.8-747.7,526.9z"/>
					<path fill="#F7D9D9" d="M-773.7,480.8c3.1-0.2,6.5-0.6,9.1-0.1c-0.3,0.1-0.5,0.4-0.6,0.7c-3.4-1.6-10.9,4.3-7.4,5.5
						c2.5,2.7,12.2-1.3,9.2-3c1.6,0.2,3.6-1.4,1.1-2.6c1.7,0.1,4.3-1.8,2-3.4c-2.5-1.7-3.4,0.8-5.7,0.6c-2.1-0.2-4.6,0.1-6.9,0
						C-773.4,478.4-774.9,480.9-773.7,480.8C-773.1,480.8-773.8,480.8-773.7,480.8z"/>
					<path fill="#F7D9D9" d="M-670.1,490.7c-0.8,0-1.4,0.4-1.8,1C-673,497-664.6,489.7-670.1,490.7
						C-670.5,490.7-669.3,490.5-670.1,490.7z"/>
					<path fill="#F7D9D9" d="M-733.4,524.7c-0.3,0.1-2,0.8-1.7,1.3C-733.7,529.1-729.7,523.6-733.4,524.7
						C-733.6,524.7-732.5,524.4-733.4,524.7z"/>
					<path fill="#F7D9D9" d="M-719.9,508.1c0.2-2.7-3.1-0.3-3.3-0.1c-0.8-1.8-2.2-1.4-2.8-2.8c0.6-0.1,4.3,0.7,4.5,0.2
						c0.3-1-3.7-3.5-4.7-3.5c0.5-0.5,0.9-1.1,1.1-1.8c-0.7-1.2-19,4.9-8.2,6c-0.4,4.6-8-1.5-7.9,0.8c0.1,1.9,1.9,4.4,4.2,4.4
						c2.2,0,2.1,1.1,4.4,1.2c0.7,0,3.3,3,3.6,3.5c0.6,0.8,3.8-1.6,4.4-1.7C-721,512.9-720.3,511.6-719.9,508.1
						C-719.9,507.6-720,508.4-719.9,508.1z"/>
					<path fill="#F7D9D9" d="M-716.1,466.2c-5.4-1.5-4.2,1.2,0.3,1.6c1.3,1,2.4-0.2,3.4,0.8c-2.3,0.2-5.1-0.8-4.2,1.9
						c-0.2,0-1.8-0.3-1.9,0.3c-0.1,0.7,1.5,0.7,1.8,0.8c-1.9,0.2,1.6,3.9,2.2,4.1c2.2-0.6,5.8,10.9,10.4,6.5
						c-1.1,1.7-2.3,3.3,1.1,3.3c3.4,0,0.7-5.3-1-3.5c0.1-0.3,0.2-0.5,0.3-0.8c3.8,1.3,4.7-1.5,8.4-1.9c-0.7,4.9,5.3,3.7,9,1.5
						c-0.9,3.7,2.6,2.9,4.8,3c-0.9,3.3-6.7,0.6-7.6-0.8c-1.9-2.7-11.2-0.4-5.3,2.5c-2.5,0.7-7.7,0.7-6.6,4.4
						c-4.2-1.3-7.8-2.1-11.6-3.1c-8.1-2.1-12.5,2.6-3.2,3.9c2.5,0.9,3.7,0.2,6.4,1.5c2.4,1.2-0.3,11.4,4.2,7.4
						c1.1,1.6,4.5,0.4,5.8-1.1c1.1,2.6,5,3,6.9,0.7c0.5,2.4,20,0.2,20.4-1.6c0.2,0.1,2.2,2.4,2.4,0.2c0.4-5.2-9-6-14.5-6
						c-3.3,0-7.8,2-10.8,1.7c-0.3-0.3-5.9-1.6-6.7-1.5c2.4-1.8,5.6-1.3,7.6-1.9c1.5,1.6,10.5,2.7,8.4-0.8c0.9,0.3,1.2,0.3,1.8-0.5
						c0.6,2.4,6.3,2.5,6.8,0.2c-0.1,0,2.3,0.4,3,0.5c-0.2,4.4,6.6,1.2,8.4-0.4c2.2-2,0.1-2.9-2.5-3.8c4.2-0.2,4.1,0.4,3.7-2.5
						c1.2,0.1,9.9-0.6,8.3-2.7c1.7,0.9,4.5-1.6,2.6-2.7c5.4,1.1-2-5.2-1.6-3c6.7,0.1,10.5-0.8,15.6-4.3c1.1-0.5,4.4-2.5,6.4-3
						c1.1-0.3,11.3,0.3,10.8-3c-0.2-1.5,3-2,4.9-2.3c2.7-0.4,6.6-3.5,0.6-3.5c-4.3-2.6-10.5-3.4-15-1.4c1.8-2.7-15.3-3.1-14.5-1.1
						c-2.3-0.7-3.7,0.7-5.9,0.2c-2.1-0.5-6-0.4-8.2,0c-1.5,0.3-7.9,1.5-8.2,2.2c-1.6,3.2-9.7-3.4-8.6,2.4c-2.9-0.7-6.1-2.1-9.4-3.1
						c-3.8-1.2-2.3,0.8-2.3,1.9c-5-1.4-4.4,0.3-3.8,2.9c-1.5-1.5-2.9-2.1-5-1.3c-4,1.3-1.2,1.4-6.4,1.4c-3.7,0-2.9,2.7,0,2.7
						c-1.8,0.5-0.5,2,1.6,1.5c-0.7,0.3-1,0.7-1,1.4c0.5,0.7,11.8,0.6,13-0.3c0,1.4,0.4,1.3,1.9,1.4c-0.9,1.3-0.7,2-2.2,3.1
						c2.6-4.2-8.8-2.5-10.2-2.5c-2.6,0-3.4-1-4.4-3.2c-1.3-2.7-14.1-3.6-14.1-2.6c0.8,1.6,3,1.9,5,1.5
						C-714.8,466.6-715.1,466.4-716.1,466.2C-717.1,465.9-715.7,466.3-716.1,466.2z M-709.4,476.9c0.8-0.7,2-0.4,3-0.3
						C-706.6,476.6-710.1,477.5-709.4,476.9C-709.2,476.8-709.4,477-709.4,476.9z M-689.4,462.4
						C-691.1,461.9-687.2,461.8-689.4,462.4C-689.5,462.4-689.4,462.4-689.4,462.4z M-686.7,461.8
						C-686.1,461.8-686.3,462.4-686.7,461.8C-686.6,461.8-686.7,461.9-686.7,461.8z M-685.6,476.6c0.5-0.1,1.2-2,2.3-0.4
						c-1-0.2-1.8,0-2.3,0.8c0.2,2,6.3-1,6.3,1c-3-0.3-6.1-0.4-9.1-0.7C-688.2,477.2-686.3,476.8-685.6,476.6
						C-685.4,476.5-686,476.7-685.6,476.6z M-661.2,476.9c-1,0.9-1.6,0.9-1.9-0.1C-662.5,476.9-661.8,476.9-661.2,476.9
						C-661.8,477.1-661.9,476.9-661.2,476.9z M-659,473.5C-657.6,474.2-659.1,473.5-659,473.5C-658.9,473.6-658.9,473.6-659,473.5z
						 M-657.7,476.7c1-1-2.2-1,1.1-0.8C-656.6,477.1-655.8,477.1-657.7,476.7C-657.6,476.6-657.2,476.8-657.7,476.7z M-677.3,470.8
						C-676.3,473-678.5,471.1-677.3,470.8C-677.1,471.3-677.5,470.9-677.3,470.8z M-673.1,473.3C-673.3,473.5-674.9,474-673.1,473.3
						C-673.2,473.4-673.4,473.4-673.1,473.3z M-685,468.2c6.3,0.3,14.7-0.7,21-2.2c-3.2,0-7.2,2.2-1.4,2.5
						C-670.3,469.2-681.6,471.2-685,468.2z M-691.3,478.3c-0.7,0.4-1.6,0.2-2.4,0.2C-692.8,478-692.2,477.6-691.3,478.3
						C-691.4,478.4-691.3,478.3-691.3,478.3z M-655.5,477.5C-657.1,478.5-652.6,475.8-655.5,477.5
						C-655.7,477.6-655.3,477.4-655.5,477.5z"/>
					<path fill="#F7D9D9" d="M-724,498.1c-0.8-0.4-1.4-0.2-1.8,0.6C-725.7,500.6-722.8,499.2-724,498.1
						C-724.1,498-723.8,498.3-724,498.1z"/>
					<path fill="#F7D9D9" d="M-722.4,495.2c1,0.9,3.5-1.7,3.3-2.4C-719.1,492.9-724.5,493.2-722.4,495.2
						C-722.3,495.3-722.6,495.1-722.4,495.2z"/>
					<path fill="#F7D9D9" d="M-719.6,498c8.5,4.8,5.6-5.1,4.5-5C-717.6,493-724.7,497.3-719.6,498z"/>
					<path fill="#F7D9D9" d="M-536.5,787.9c-1.9-0.8-2.4-3.8-4.5-4.2c-3.2-0.7-3.1-2.1-6.5-3.9c-2.2-1.1-15.1-4.7-15.9-1.9
						c-1.7-0.1-7.1-13.5-13.3-5.7c-1.4-1.6,2.1-3.1-2.3-2.7c-2.7-0.3-1.3-3.3-3.8-4.2c4.7-2.4-4.4-9-5.8-12.2
						c-1.6-3.7-15.3-5.6-18.7-5.7c0.1-3.3-3.7-5.6-7.6-5.3c1.5-6.3-3.5-0.9-4.5-4.7c1,0,1.5-0.4,1.7-1.2c-0.4-0.9-17.3,0.7-17.7,0.8
						c-0.7,0.2-10.4-7.9-7.3-2.1c-2,0.3-3.6,0.9-5.5,0.4c7.7-4.6-5.1-1.1-6.9-0.5c-1.4,0.4-7.7,6.7-7.3,8.7
						c-7.2-4.2-5.9-5.1-13.7-2.7c-0.6-1.2-7.6-4.1-7-7.3c0.8-4.2,4.6-11-0.3-12.1c-3.8-4.5-8.8-1-14.4-1.6c0.9-1.5,3.1-5.7,2-7.4
						c2.3,0.4,2.2-5,2.7-7c1.6-6.5-3.8-4.5-8.2-2.9c-3.9,1.5-1.7,6.6-5.5,8.3c-1.2,0.7-6.8,1.5-9,2.1c-0.6-3-3.4-0.3-4.2-2.6
						c-0.9-2.5-5.2-5.7-5.1-7.9c0.1-2.1-0.2-3.2-0.3-5.8c-0.3-3.2,2.9-7.2,1.7-9.2c0-1.9-1.2-2.1-0.4-4c0.5-1.1,2.9-4.1,4.3-4.1
						c2.4-1.5,4.4-1.9,6.8-3.7c3.4-2.6,6.9,3,9.1,1.7c1.3-0.8,6.2,0.7,6.6-0.6c0.3-1-1.2-0.7-1.5-1.1c1.4-0.6,0.6-1.6-0.4-2
						c0.3-0.2,0.4-0.4,0.3-0.7c1.2,0.1,8.5,0.6,8.2-0.4c2,0.5,4.1,4.8,6.9,1.9c4.1-0.9,1.2,8.7,4.4,7.4c-1.2,1.6,3.8,9.1,6.2,8.3
						c3.5-1.1-0.9-16.3-2.8-17.5c-0.4,0.1,3.9-6.5,3.9-6.8c0.2-2.7,11.6-3.9,9.2-7.9c0.8-0.2,4.5-1.5,4.5-1.8c0-0.8-1.5-1.7-2.1-1.6
						c0.9-0.1-0.3-5.6-0.7-6.5c-0.5-0.5,3.9,1.5,3.4,1.7c2-0.6,0.7-7,0.3-5.9c0-0.2,0-0.4,0-0.6c5,0.2,4.5-2.3,4.1-4.6
						c2.6-0.7,4.8,1.7,6.7-1c1.3-1.8-5-0.3-5.3-0.3c2.1-1.7,6.1-0.5,6.8-2.8c0.4,1.1,5.7,0.1,4.8-1.2c0.2,0.4-4.6-0.8-3.4-0.6
						c1.2-0.9,0.8-1.4,1.5-2.3c1.7-2.3,3.1-1.6,4.8-3.7c1.3,1.1,6.1-0.5,5-3.1c2,1.2,5.1-1.3,6.3-2.5c0,2.5,1.4,1.2,3.8,0.7
						c-0.4,0.2-0.6,0.5-0.7,0.9c-2.9-0.5-5.3,0.6-7,2.5c-2.2,2.4,4.3,5.7,6.4,2.8c0.7-1,9.4-4.9,8.6-6.6c5.3,2,8.3-4.5,3.1-2.9
						c-0.1-2,3-2.4,2.7-3.4c-0.9-2.9-6.1,4.2-6.3,4.8c-0.1-0.4-5.1-0.3-6.1-0.3c-0.4-2.4,3.5,0.7,4.4,0c1.4-1-6.1-4.6-6.8-3.8
						c-0.2-0.7-0.2-0.8-1-0.7c0.5-1.3,1.5-3.3-0.7-3.1c0.9-0.4,3.5-4.2,2.4-4.8c-5.6-2.8-11.7-0.1-16.8,4.5c0.1-0.2,0.3-0.5,0.1-0.7
						c2.2-0.6,6.8-5.1,8.8-7.1c3.9-3.9,13.4-0.2,17.3-0.2c4.2,0,6.2-5.2,10.1-6.1c7-1.6,9.4-8,1-9c0.2-0.3,1.2-1.1,1.1-1.5
						c-0.1-1.3-7.6-2.3-9.8-2.6c0.5-1.4-4.3-5.2-4.9-5c0.1-0.2,0.2-0.5,0.2-0.7c5.9,0.1-2.7-7.3-3.9-7.3c0,0-3.4-9.1-4.8-9.2
						c0.3,0-5,5.2-4.9,5.3c1.1,0.3-6.4,2.2-6,1.9c-0.8-3.2-3.4-0.7-4.5-2.9c0-0.4,1.6-7.5,1.7-7.3c0.2,0.2-2.9,0.3-3.4,0.2
						c0.3-0.2,0.7-1.1,0.7-1.3c0.2,0.5-5.2-1.3-5.6-1.4c-2-1-4-5.2-7.3-3.4c-1.6,0.8-15.9,2.9-10.6,3.8c-0.4,0.5-3.5,4.5-0.4,4.3
						c-0.2,1.5-0.7,1.9,1,2.9c-0.4,1.7-1.8-0.3-2.3,0.7c-0.2,0.4,0.5,1.4,0.9,1.4c0,0.1,0,0.2,0,0.3c-7,0.7,0.6,3.9,1.1,6.2
						c0.9,3.7,3.1,1.9,1.9,5.9c-0.1,0.3-0.5,1,0,1.3c-1.5,0.8-2.2,3.3-4.2,4.3c-6.7,3.6,0,6.5-2.4,13.2c-2-0.2-1.9,1.6-4,0.8
						c-2.7-1.4-1.8-3.4-3.1-4.5c0,0,3,0.9,3-0.1c0-1.8-3.9-3.2-3.9-0.4c-3.2-1.2,1.2-5.8-0.5-6.9c-0.7-0.5,0.3-0.6,0-1.6
						c-0.9-2.6-6.2-0.9-8.1-1.2c-1.8-0.3-3.9-2.1-5.9-2.5c-3.4-0.7-0.9-1.4-3.1-3.1c-1.5-1.1-5.1-1.8-6.8-2
						c-4.9-0.8-6.1-0.1-8.4-4.7c-1.9-3.8-3.6-2.2-6.2-4.3c-1.6-2.2,1.7-4.4,0.6-5.4c1,0,5.4-5.1,5.9-6.2c0.3,0.2,9.4-2.6,6.2-4.8
						c-2.7-0.7,10.7-4.9,10.2-4.4c1.2-1.6,3.3-4.9,2.5-7.5c2.5-0.3,1.6-0.2,3.6,1.1c-2.1,0.1-0.5,0.6-0.9,1.3
						c-3-0.6-0.7,5.2-4.1,6.7c-3.3,1.5,2.1,2.4,2.5,2.4c-0.5,6.7,7.4-3.4,6.4-3.5c0.6,2.5,6,6.9,7.2,2c0.1-0.5-10.4-7-11.3-6
						c0.3-2,4.2-3.8,3.6-4.2c0.8,0.3,11-3.2,11-4c0-3.3-4.8-2.9-4.2-5.5c0.8-0.5,3.2-2.3,0.8-2.2c0.4-0.8,2.6-5.5-0.7-2.9
						c-1.1,1-2-2.8-2.1-2.8c-0.3-0.1,4,1,4,0c0-0.4-0.9-1.1-1.1-1.3c1.1,0.6,9.4,6.3,9.8,4.9c0.2-0.6-1.1-1.6-1.7-1.2
						c0.4-0.4,1.7-1.2,1.2-2c-0.8-1.4-3.3,0.4-4.2,0.3c-0.2,0-1.3-2.2-1.8-2.7c2-0.1,7.7,3.7,7.2-0.4c0,0,1.7,2.1,1.8,0.3
						c0.6,1.9,4.8,3.7,6.3,2.8c-0.4,1.3-0.7,1.7,0.7,2.2c-3.5,4.1,2.4,2.9,5.2,2.1c0.3-1.1-3.5,6.3-0.2,3.3c1.9-1.8,2.3,1.5,3.5,3.5
						c-1.4,0-1.9,0.6-2.1,2.2c-0.6,5.5-5.2,2.4,0.1,8.1c-5,0.6-12.8-0.9-14.5,4.1c-1,3,0.9,5,5.4,3.5c3.2-1.1,6.2-3.2,9.2-1.8
						c0.3,1.3,2.4,4.3,3.1,4.8c0,1.6,6.5,2.6,3.9,1.1c5.6-0.7,9.3,0,14.6,0.8c3.6,0.6-2.9-4.9-1.9-2.9c-0.9-1.9-6.8-1.1-7-3.8
						c0.5,0.1,4.8,1.9,4.1-0.2c0.6,0.8,8.7,2.4,8.7,2.2c0-0.9-1.7-1.4-2.4-1.8c8.3-3.3-8.3-6.7-7.4-10c-0.6-1.7,1.9,2.3,1.9,0.4
						c0-0.1-1-2.3-0.6-1.3c0.7,0.8,1.5-0.4,1-1.1c0.2-0.1,0.5-0.2,0.7-0.3c0.7,1.8,13,11.5,11.8,4.3c0.5,0,2.1,0.4,2.4-0.3
						c0,0.1,0.6-4.6,1.2-3.7c6.7,3.8-0.1-9.1-1-3.7c0.1-0.9-5-0.5-5.6-0.4c2.6-4.7-6.6-2-6.9-1.9c0.8-3-4.9-2.5-6.2-4.3
						c1.8-0.2,3.1-1.4,1.3-2.8c0.3,0,3.4,0.8,3.4-0.2c0-1.7-4.4-1.5-4.7-1.9c7.3-0.6-2.2-7.5-4.3-6c-2.8-3.1-8-2.4-9.3-1.8
						c-0.3-2-1.2-2-2.6-0.4c0.2,0.5-0.2-5-0.2-4.6c-0.1-1.8-11.8-2.8-13.6-2.9c5.8-0.4,4.3-5.7,0.1-5.8c-2.6,0-6.6,1.8-9.1,1.2
						c-3.5-0.8-22-2-22.4,2.4c-2,0.5-3.5,5.3-4.7,7.3c-0.4,0.6,5.6,4,5.2,3.5c2,2.4,7.9,6.2,10.7,4.5c1.2,2,5.3,0.1,7,1.3
						c-3.3-0.7-10-2.5-7.6,2.5c1.3,2.8-0.3,3.3-1.9,5.9c-0.5,0-4.3,7.6-5.2,3.9c-0.3-1.4-2.3-2.1-3.1-3.3c0.3-0.3,3-3.8,3-4.3
						c0-5-5.4-2.1-5.9,1.8c-2.3,0.2-5-4.4-8.2-5.8c0.3-0.2,2.7-1.7,2.5-2.3c-0.5-0.5-1.1-0.7-1.8-0.7c0,0.3,2.9,0.7,3.4-1
						c0,0.1-4.5-3-4.9-3.1c-1.8-0.8-4.4-1-5.3-2.7c0-1.2,1.3-2.1,0.1-3.7c4.8-1.9,8.7,0.2,11.3-5.2c1.6-3.3-3.4-1.9-4.9-2.1
						c0,0.5-14.8-4.4-11.3,5.1c2.2,6.1-0.6,4.2-2.1,10c-0.7,2.7,1.5,9.1,3.4,5.1c1.3,0.1,5.1,2.4,5.2,2.8c-0.5-0.1-2.7-0.7-2.7,0.2
						c-0.5,5.6,0.6,1.3,2,3.5c-2.6,0.2-9.4,4.9-5.5,7.3c-2.9-1.4-3.1-2.7-3.4-5.9c0.1,1.1-4-1.5-4-1.5c1.1,0.6,9-0.3,8.6-1.3
						c-1.3-2.8-4.9-6.5-8.9-5.1c-2.6,1.2-4.9,7.8-0.5,5.2c0,0.3,0,0.6,0.3,0.8c-3.1-0.7,1.6,6-5.8,3.9c-0.5,0.1-4.5,0.1-5.3-0.1
						c-3-0.8-7.6-3-10-2c-2.8-7.7-13.8-0.5-11.9,1.2c1.9,1.7,4.4-1.9,5.9-1.5c-6.7,3.8-2.9,3.3-4.4,7.4c-0.5-0.2-1.6-5.2-2.5-3.2
						c-1.7-5.2-16.6-0.7-16.2-2.4c0.3-1.4,2.7-0.3,3.2-1.2c1.6-3.4-11.8-3.1-13.6-3.9c-0.7-4-12.6-3.4-15.4-2.2
						c-2.5-7.6-1.1-1.5-2.4-2c0.9,6-4.9-0.9-5.8-1.5c0-0.6-6.6-6-7.3-3.1c-0.7,2.9-0.4,3.1-3.6,4c1.5-1-3.4-3.6-4.8,0.1
						c-3.3-2-5,2.1-7.1,2.3c0.1-1.8-2.8-2.6-3.1,0.2c-1.3-0.5-4.4,1.4-6.5,0.8c-2.4-0.8-20.7-6.3-20.7-3.9
						c-4.8-0.1-9.8-1.5-14.7-1.5c-4.5-1.4-18-4.2-21.7-2.1c-0.6-4.3-10,0.2-11.9,0.7c-1.8,0-5.7,0.9-6.8,2.5
						c-0.8,1.2-3.7,6.1-4.4,6.2c-2.4,0.4-6.6-0.4-8.6,0.5c-2.8,1.3,0.8,4.2,1.4,4.4c4.6,1.1,6.9,6.2,11.8,4.1
						c-0.2,0.3-0.8,0.3-0.9,0.6c-0.2,0.9,2,0.9,2.3,1.3c-0.6-0.1-2.7,0.2-2.3,1.2c0.2,0.5,1.7,0.3,2,0.3c-3.3,2.4-5.9,0.7-6.9-2.2
						c-0.6-1.5-6.6-0.1-6.7,2.6c-3.5,0.3-9.5,2.4-2.3,3.2c-3.2,0.9,4.2,3.9,4.5,3.9c5.8,0,8.2-1,13.5-0.6c-2.3,7.3-4.3,3.7-9.5,4.9
						c-1.2,0.3-5.8,5.7-6.6,7.1c0.6-1,4.4,5.4,4.6,6c1.2,5.6,8-2.7,7.3,4.1c-0.7,5.7,5.8,0.3,5.9,0.8c0.6,2.2,8,1.8,9.7,1
						c-1.3,4.9-7.5,10-11.2,11.8c-8.2-4.1-7.4,8.1-5.1,5.9c0.7-0.8,0.7-1.3-0.2-1.5c1.4-0.5,2.3-1.4,2.9-2.9c-0.5,0,3.3,3.6,3.5,2.2
						c-0.2-0.6-0.6-1-1.3-1.1c3.1-0.8,12.8-4.9,12.5-8.2c1.9-0.7,13.2-8,7.5-7.5c0.6-1.7,4.5-3.4,3.5-4.4c1.2,0.2,2.9-1.3,3.9-2
						c-0.5,2.3-1.7,4.1,0.6,4.7c-0.5,0.2-1.9,0.3-1.9,1.1c0.2,4.5,8.3-3,8.6-3c1-0.2,9.1-0.4,3.2-3c0-0.4,0.1-0.7,0.1-1.1
						c5.2,0.9,6,1.9,9.8,4c3.4,1.7,7.3-0.1,11.1,1.4c0.3,0.1,9.8,3.8,10.1,3.4c-0.4,1.4,2.9,3.7,4.2,3.2c0,1.8,2.5,3.6,4.2,4.5
						c-0.2,2.1,2.9,4.6,6.3,5.5c0,0.4,8.7,9.8,6.9,3.5c0.1-0.1,1.6-0.1,1.1-0.2c-1.5,1.1,0.9,2.3,1.8,2.4c-2.1,0.4,0.5,2.6,0.5,2.4
						c-0.8-0.4-1.4-0.2-1.8,0.6c0,0.9,4,4,4.7,4.9c1.1,1.3,3.9,2.1,3,1.4c3,1.4,0.6,3.6-0.6,4.6c-4.1,3.1,5.9,3.8,5.4,3.7
						c0,0.3-0.5,1.2-0.4,1.4c-0.7-1.6,6.7,3.9,6.2,3.6c-2.3-0.4,1.8,4.7,1.9,4.9c3,3.8-2.7,13.7-0.7,18.2c0,0,2.6,18.4,6.1,14.7
						c-0.2,3.2-0.5,1.1,1.6,2.9c-2,2.7,1,3.9,2.9,5.2c-2.9,2,6.7,7.5,8.4,8c1.8,2.1,2.4,5.1,3.9,7.8c1.2,2.1,3.4,2.6,5.2,3.6
						c4.6,3.3-1.5,5.7-1.6,6.5c0,0,7,5.1,7.7,5.4c0.7,0.3,2.5,4.8,3,5.9c4.5,11.2,9.6-0.4,3-0.7c3.3-5.7-12.5-17.4-12.3-23.2
						c1.2,0.6,3.9,1.3,4.2,1.3c1.3,1,1.9,5.4,4.7,7.1c1.2,2.7,5.1,7.4,8,8.3c-3,3.7,13.9,11.5,10.7,18.9c-2.3,5.4,12.5,12.8,17,13.1
						c1.7,0.1,19.6,4.3,19.2,1.6c6.1,3,10.5,10.7,18.2,8.2c0.8,2.2,2.7,3.6,4.1,5.7c-1.5-1.9,3.8,11,3.8,4.8c0.6,0.6,3.5,5,3.3,4.9
						c0.9,0.3,1.4,0,1.3-1c0.4,0.9,0.3,1,0.9,1.4c0.6,0.5,3.3,1.1,3.9,1.4c-1.8-0.4,0.7,3.1,1.2,1.3c-0.1-0.6-0.4-1-1-1.2
						c0.7,0.2,5.9,2,6,0.7c0.1-0.7-1.7-2.1-2.1-2.4c4.9-2.2,2,1.2,5.9,0.4c-0.6,1.4-0.7,4,1.6,4c3.5,0-2.6,8.7,0.9,10.4
						c-3.4,3.8-17,17.5-8.6,20.7c-1.1,1.8-6.3,6.2-2.3,7.7c-0.4,3.3,6.2,6.8,8.5,9.5c3.5,4.3,3.7,15.3,7.5,18c1.1,0.8,4.9,4,5.5,5
						c2.3,3.9,9,2.9,10.7,8.2c2,6.4-1.7,12.4-0.9,17c-1.1,5.5-1.3,12.9-1.8,18.2c1.7,4.1-2.1,10.3-1.9,14.1c0,0-5.6,12.4-5.6,12.5
						c0-0.4,2.2,5.3,2.3,6.2c0.2,1.7-4.3,7.1-0.7,8.4c-4.2,0.4-3.3,9.1,0.7,5.4c0.3,2.5-3.9,8.4-3.7,8.5c-0.4,0.3-5.8,3.5-3.6,5.1
						c0.3,0.2,4.5,0.2,4.5,0.2c0.6,1.8-1.2,0.7,0.2,2.2c-1.5,2.7-0.8-6.3-1,3.7c-1.2-8-4.5,3.1-4.2,2.9c0.5-0.4,0.6,5.9,0.1,5.1
						c1.6,2.6,0.3,8.9,6.1,9.2c-0.3,3.6,3.3,2.3,4.9,3.9c-3.8,0.7,1.6,1.6,2.2,1.7c-0.4,2.7,2.3,1.3,1.9,0.8
						c-1.2,0.1,6.1,4.7,4.4,1.6c0.3-0.1,0.6-0.1,0.9,0c-1.1,0.8,1.8,3.4,2.3,1.6c-0.1-0.8-0.6-1.2-1.3-1.5c0.5,0,0.8-0.1,0.8-0.5
						c1.3,0.7,7.2-0.4,8.6-1.2c2.1-1.1-4.8-2.7-4.9-2.8c-3.6-2.7-3.1-5.4-7.1-6.6c0.2-0.3,0.3-0.6,0.4-0.9c1.9,0,2.4,1,2.1-1.4
						c-0.3-2.8-1.6-2,0.8-4.9c-0.1,0.1,2.4-1.8,2.4-1.8c0-2.2,4.8-8.6,5.8-8c-0.2-0.1-3.5-3.8-3.6-3.9c-4.3-6.3,4.3-4.3,3.8-8.1
						c1.4-0.9,3.8-6.9,3.2-7.1c0.2,0,6.6,0.5,3.2-1.9c-1.8-1.3-3.4,2-3.5-1.4c0,0.1-2.6-2.6-0.2-2.6c-0.3,0.3,4.4,1.5,6.1,0.5
						c3.3-2.2,0.4-7.1,0.8-7.6c2.6,2.9,14.5-2,15.9-5.6c1.9-4.7-1.6-6.1-3.9-10.2c3.7,3.3,11.3,2.9,14.6-0.9c1-1.1,4.1-4.1,2.7-5.7
						c-0.7-0.8,4.4-3.8,4-6c0.5,0.3,0.8,0.6,1.4,0.5c-1.4,1.1-1.8,2.2-1.2,3.3c2.4,1.1,4.5-7.4,6-8.4c2-1.4,3.1-11.5,1.9-12
						c2.5,0.1,12-6,12.7-7.4c1.3-0.1,8.2-0.7,8-2.2c-0.2-2.2,5.5-7.5,6.5-10.3c1.7-5.5,2.5-11.3,2-18.1c-0.1-1.3,3.5-2.4,4.3-4.5
						C-543,803.6-528.1,791.5-536.5,787.9C-536.7,787.9-536.1,788.1-536.5,787.9z M-675.6,505.5c-0.3,0.4-0.6,0.8-0.8,1.2
						C-676.4,506.3-675.5,504.7-675.6,505.5C-675.6,505.6-675.6,505.4-675.6,505.5z M-646.4,948.2
						C-648.1,947.8-646.4,947.9-646.4,948.2C-646.5,948.2-646.4,948.1-646.4,948.2z M-656.3,940.1
						C-657.2,940.1-656.7,940.1-656.3,940.1C-656.4,940.1-656.3,940.1-656.3,940.1z M-656.1,934.6
						C-656.6,933.7-656.1,934.3-656.1,934.6C-656.2,934.5-656.1,934.5-656.1,934.6z M-656.1,935.4
						C-656.2,936.4-656.3,936-656.1,935.4C-656.1,935.6-656.2,935.6-656.1,935.4z M-655.2,939c0.5,0.6,0.8,0,1.3,0
						c-0.1,0.3-0.2,0.6-0.4,0.8C-655.1,939.1-655.9,940.5-655.2,939C-655.1,939.1-655.3,939.3-655.2,939z M-641.3,817.9
						C-640.8,817.2-639.8,818.4-641.3,817.9C-641.2,817.7-641.1,818-641.3,817.9z M-653.2,940.9
						C-651.9,940.4-654.5,941.5-653.2,940.9C-653.1,940.9-653.3,941-653.2,940.9z M-644.8,944.9c0.1,0.5,0,1.8,0.6,2
						c-0.5,0.2-0.4,0.3-1,0.3C-645.1,946.4-644.9,945.6-644.8,944.9C-644.7,945.1-645,945.7-644.8,944.9z M-653.8,944.3
						c0.8,0.1,0.5-0.8,0.6-1.2C-652.7,946.3-653.5,944.3-653.8,944.3C-653.8,944.3-653.9,944.3-653.8,944.3z M-638,934.2
						C-638.1,934.2-638.3,933.3-638,934.2C-638,934.2-638,934.2-638,934.2z M-688.6,733.2c-0.3-0.5-0.5-0.9-0.8-1.4
						c0.9,0.1,1.6,1.3,2,1.9C-688,733.9-688.4,733.8-688.6,733.2C-688.6,733.2-688.5,733.4-688.6,733.2z M-700,611.8
						c0.7-1.1,6.8-5.5,8-2.6c1.2,3.1,3.3,2.2,4.4,4.3c0,0,1.9,3.9,2.1,4c-3.3,0.2,1.5-3.7-3.8-1.3c-5.5,2.5-2.9-1.4-6.6-1.1
						c0.6-0.8,1.2-2.9-0.8-1.9c-5.1,2.6-5.7,1.6-10,2.2C-705.2,613.6-701.3,613.8-700,611.8C-699.9,611.6-700.1,611.9-700,611.8z
						 M-672.3,622.7c1,2.1-0.3-1.3-0.1,1.8c-1-0.4-4.4-2.8-4.5-2.6c-0.3,0.5,0.6,1.5,1.1,1.4c-2.6,1.6-0.8,4.8-3.1,5.7
						c-0.7-1.8-1-3.7-3.2-3.1c1.7-4.7-1.7-4.3-3.3-6.1c0.1,0,0.1-0.1,0.2-0.2c0.7,0.5,1.4,0.3,2.2-0.4c-0.3-0.3-0.6-0.6-0.9-0.9
						C-678.3,619.9-674.5,618.2-672.3,622.7C-672.3,622.8-672.5,622.3-672.3,622.7z M-689.1,622.4c-0.1-1.4-2.3,2.9-2.3,2.8
						c-1.2,0,1.5,8.7-2.9,8.7c-3.5,0,2.8-13.5-0.4-11.2c1.3-2.2,5.3-3.4,7.8-2.9C-687.6,620.4-689.2,621.4-689.1,622.4z
						 M-888.3,560.3c0-2.2,3.5-1.8,4.3-1.5c0,0.3,0,0.5,0,0.8C-885,559.3-888.3,560.8-888.3,560.3
						C-888.3,560.1-888.3,560.4-888.3,560.3z M-916.1,537C-916.1,537.4-916.9,537.1-916.1,537C-916.1,537.1-916.2,537-916.1,537z
						 M-925.9,560.7C-926.5,560-926,560.2-925.9,560.7C-925.9,560.6-925.9,560.7-925.9,560.7z M-651.7,906.6
						c0.2-0.5,1.1-2.2,0.8-2.7c0.3,0,0.5,0,0.8,0c1,2.4,0.8,3.8-0.7,4.3C-651.1,907.7-651.4,907.2-651.7,906.6
						C-651.5,906.2-651.3,906.9-651.7,906.6z M-647,738.7c0.9,0.6,1.5,1.3,1.6,2.3C-646.7,744.1-649.2,736.5-647,738.7
						C-645.3,740.4-647.1,738.6-647,738.7z M-652.8,919.7c-1-0.6-1.2-0.2-1.9-0.4C-652.9,917.1-652.2,917.2-652.8,919.7
						C-653.1,919.5-652.7,919-652.8,919.7z M-648.8,947.7C-648.7,947.3-648.2,947.4-648.8,947.7
						C-648.8,947.6-648.7,947.6-648.8,947.7z M-637.2,955.4C-637.2,955.5-637.2,955.5-637.2,955.4L-637.2,955.4z M-607.9,876.5
						C-606.7,875.7-606.8,878.9-607.9,876.5C-607.9,876.5-607.8,876.8-607.9,876.5z"/>
					<path fill="#F7D9D9" d="M-667.5,692.8c0.7,0.5,2.7-1.1,2.6-0.7C-664.4,689.5-670.3,690.7-667.5,692.8
						C-667.4,692.8-667.7,692.7-667.5,692.8z"/>
					<path fill="#F7D9D9" d="M-624.8,949.9c-0.3-0.1-1.6,0.9-1.6,1.3c0.2,1,3.5,1,3.5-0.2C-623.5,950.6-624.1,950.3-624.8,949.9
						C-625,949.9-623.4,950.2-624.8,949.9z"/>
					<g>
						<ellipse fill="#F0B2B2" cx="-640.9" cy="575" rx="7.5" ry="4.5"/>
						<path fill="#D11975" d="M-641,546.4c0.7-2.3,1.7-4.1,3-5.3c1.3-1.2,2.9-1.8,4.8-1.8c2.1,0,3.8,0.7,5.2,2
							c1.4,1.3,2.1,3,2.1,4.9c0,1.3-0.4,2.8-1.2,4.6s-2,3.7-3.6,5.7l-1.1,1.5c-5.3,6.9-8.4,12.1-9.2,15.5c-0.9-3.5-4-8.6-9.3-15.5
							c-0.5-0.6-0.8-1.1-1.1-1.4c-1.6-2.1-2.8-4-3.6-5.7c-0.8-1.8-1.2-3.3-1.2-4.6c0-1.9,0.7-3.6,2.1-4.9c1.4-1.3,3.2-2,5.2-2
							c1.9,0,3.5,0.6,4.8,1.8C-642.8,542.2-641.8,544-641,546.4z"/>
					</g>
					<g>
						<ellipse fill="#F0B2B2" cx="-723.4" cy="714.4" rx="7.5" ry="4.5"/>
						<path fill="#DB4C4C" d="M-723.5,675.7c1-3.2,2.4-5.7,4.2-7.3c1.8-1.6,4-2.4,6.6-2.4c2.8,0,5.2,0.9,7.2,2.8
							c2,1.8,2.9,4.1,2.9,6.7c0,1.8-0.6,3.9-1.7,6.3c-1.1,2.4-2.8,5.1-4.9,7.9l-1.5,2c-7.3,9.5-11.5,16.6-12.7,21.3
							c-1.3-4.7-5.5-11.9-12.8-21.4c-0.6-0.8-1.1-1.5-1.5-1.9c-2.2-2.8-3.8-5.5-4.9-7.9c-1.1-2.4-1.7-4.6-1.7-6.4
							c0-2.6,1-4.9,2.9-6.7c2-1.8,4.4-2.8,7.2-2.8c2.6,0,4.8,0.8,6.6,2.4C-726,670-724.6,672.4-723.5,675.7z"/>
					</g>
					<g>
						<ellipse fill="#F0B2B2" cx="-419.4" cy="710.8" rx="7.5" ry="4.5"/>
						<path fill="#D11975" d="M-419.5,682.2c0.7-2.3,1.7-4.1,3-5.3c1.3-1.2,2.9-1.8,4.8-1.8c2.1,0,3.8,0.7,5.2,2
							c1.4,1.3,2.1,3,2.1,4.9c0,1.3-0.4,2.8-1.2,4.6c-0.8,1.8-2,3.7-3.6,5.7l-1.1,1.5c-5.3,6.9-8.4,12.1-9.2,15.5
							c-0.9-3.5-4-8.6-9.3-15.5c-0.5-0.6-0.8-1.1-1.1-1.4c-1.6-2.1-2.8-4-3.6-5.7c-0.8-1.8-1.2-3.3-1.2-4.6c0-1.9,0.7-3.6,2.1-4.9
							c1.4-1.3,3.2-2,5.2-2c1.9,0,3.5,0.6,4.8,1.8C-421.2,678-420.2,679.8-419.5,682.2z"/>
					</g>
					<g>
						<ellipse fill="#F0B2B2" cx="-647.4" cy="776.7" rx="7.5" ry="4.5"/>
						<path fill="#C266C2" d="M-647.5,753.6c0.6-1.9,1.4-3.3,2.4-4.2c1-0.9,2.3-1.4,3.8-1.4c1.6,0,3,0.5,4.1,1.6
							c1.1,1.1,1.7,2.4,1.7,3.9c0,1-0.3,2.2-1,3.7c-0.7,1.4-1.6,2.9-2.9,4.6l-0.9,1.2c-4.2,5.5-6.7,9.6-7.3,12.3
							c-0.7-2.7-3.2-6.9-7.4-12.4c-0.4-0.5-0.7-0.8-0.9-1.1c-1.2-1.6-2.2-3.2-2.9-4.6c-0.7-1.4-1-2.6-1-3.7c0-1.5,0.6-2.8,1.7-3.9
							c1.1-1.1,2.5-1.6,4.2-1.6c1.5,0,2.8,0.5,3.8,1.4C-648.9,750.4-648.1,751.8-647.5,753.6z"/>
					</g>
					<g>
						<ellipse fill="#F0B2B2" cx="-737.8" cy="580.1" rx="7.5" ry="4.5"/>
						<path fill="#33ADAD" d="M-737.9,557c0.6-1.9,1.4-3.3,2.4-4.2c1-0.9,2.3-1.4,3.8-1.4c1.6,0,3,0.5,4.1,1.6
							c1.1,1.1,1.7,2.4,1.7,3.9c0,1-0.3,2.2-1,3.7c-0.7,1.4-1.6,2.9-2.9,4.6l-0.9,1.2c-4.2,5.5-6.7,9.6-7.3,12.3
							c-0.7-2.7-3.2-6.9-7.4-12.4c-0.4-0.5-0.7-0.8-0.9-1.1c-1.3-1.6-2.2-3.2-2.9-4.6c-0.7-1.4-1-2.6-1-3.7c0-1.5,0.6-2.8,1.7-3.9
							c1.1-1.1,2.5-1.6,4.2-1.6c1.5,0,2.8,0.5,3.8,1.4C-739.3,553.7-738.5,555.1-737.9,557z"/>
					</g>
					<g>
						<ellipse fill="#F0B2B2" cx="-365.8" cy="684.6" rx="7.5" ry="4.5"/>
						<path fill="#33ADAD" d="M-366,661.5c0.6-1.9,1.4-3.3,2.4-4.2c1-0.9,2.3-1.4,3.8-1.4c1.6,0,3,0.5,4.1,1.6
							c1.1,1.1,1.7,2.4,1.7,3.9c0,1-0.3,2.2-1,3.7c-0.7,1.4-1.6,2.9-2.9,4.6l-0.9,1.2c-4.2,5.5-6.7,9.6-7.3,12.3
							c-0.7-2.7-3.2-6.9-7.4-12.4c-0.4-0.5-0.7-0.8-0.9-1.1c-1.3-1.6-2.2-3.2-2.9-4.6c-0.7-1.4-1-2.6-1-3.7c0-1.5,0.6-2.8,1.7-3.9
							c1.1-1.1,2.5-1.6,4.2-1.6c1.5,0,2.8,0.5,3.8,1.4C-367.4,658.3-366.6,659.7-366,661.5z"/>
					</g>
					<g>
						<ellipse fill="#F0B2B2" cx="-604.5" cy="822.2" rx="7.5" ry="4.5"/>
						<path fill="#33ADAD" d="M-604.6,799.1c0.6-1.9,1.4-3.3,2.4-4.2c1-0.9,2.3-1.4,3.8-1.4c1.6,0,3,0.5,4.1,1.6
							c1.1,1.1,1.7,2.4,1.7,3.9c0,1-0.3,2.2-1,3.7c-0.7,1.4-1.6,2.9-2.9,4.6l-0.9,1.2c-4.2,5.5-6.7,9.6-7.3,12.3
							c-0.7-2.7-3.2-6.9-7.4-12.4c-0.4-0.5-0.7-0.8-0.9-1.1c-1.2-1.6-2.2-3.2-2.9-4.6c-0.7-1.4-1-2.6-1-3.7c0-1.5,0.6-2.8,1.7-3.9
							c1.1-1.1,2.5-1.6,4.2-1.6c1.5,0,2.8,0.5,3.8,1.4C-606,795.8-605.2,797.2-604.6,799.1z"/>
					</g>
					<g>
						<ellipse fill="#F0B2B2" cx="-444.6" cy="639.3" rx="7.5" ry="4.5"/>
						<path fill="#33AD5C" d="M-444.7,621.6c0.4-1.4,1-2.5,1.8-3.2c0.8-0.7,1.7-1.1,2.9-1.1c1.2,0,2.3,0.4,3.1,1.2
							c0.8,0.8,1.3,1.8,1.3,2.9c0,0.8-0.2,1.7-0.7,2.7c-0.5,1.1-1.2,2.2-2.1,3.4l-0.7,0.9c-3.2,4.1-5,7.2-5.5,9.2
							c-0.5-2.1-2.4-5.1-5.6-9.3c-0.3-0.4-0.5-0.6-0.6-0.8c-0.9-1.2-1.7-2.4-2.1-3.4c-0.5-1.1-0.7-2-0.7-2.8c0-1.2,0.4-2.1,1.3-2.9
							c0.8-0.8,1.9-1.2,3.1-1.2c1.1,0,2.1,0.4,2.8,1.1C-445.8,619.1-445.2,620.2-444.7,621.6z"/>
					</g>
					<g>
						<ellipse fill="#F0B2B2" cx="-554.9" cy="785.7" rx="7.5" ry="4.5"/>
						<path fill="#33AD5C" d="M-555,768c0.4-1.4,1-2.5,1.8-3.2c0.8-0.7,1.7-1.1,2.9-1.1c1.2,0,2.3,0.4,3.1,1.2
							c0.8,0.8,1.3,1.8,1.3,2.9c0,0.8-0.2,1.7-0.7,2.7c-0.5,1.1-1.2,2.2-2.1,3.4l-0.7,0.9c-3.2,4.1-5,7.2-5.5,9.2
							c-0.5-2.1-2.4-5.1-5.6-9.3c-0.3-0.4-0.5-0.6-0.6-0.8c-0.9-1.2-1.7-2.4-2.1-3.4c-0.5-1.1-0.7-2-0.7-2.8c0-1.1,0.4-2.1,1.3-2.9
							c0.8-0.8,1.9-1.2,3.1-1.2c1.1,0,2.1,0.4,2.8,1.1C-556.1,765.5-555.5,766.6-555,768z"/>
					</g>
					<g>
						<ellipse fill="#F0B2B2" cx="-710.5" cy="540" rx="7.5" ry="4.5"/>
						<path fill="#33AD5C" d="M-710.6,522.3c0.4-1.4,1-2.5,1.8-3.2c0.8-0.7,1.7-1.1,2.9-1.1c1.2,0,2.3,0.4,3.1,1.2
							c0.8,0.8,1.3,1.8,1.3,2.9c0,0.8-0.2,1.7-0.7,2.7c-0.5,1.1-1.2,2.2-2.1,3.4l-0.7,0.9c-3.2,4.1-5,7.2-5.5,9.2
							c-0.5-2.1-2.4-5.1-5.6-9.3c-0.3-0.4-0.5-0.6-0.6-0.8c-0.9-1.2-1.7-2.4-2.1-3.4c-0.5-1.1-0.7-2-0.7-2.8c0-1.2,0.4-2.1,1.3-2.9
							c0.8-0.8,1.9-1.2,3.1-1.2c1.1,0,2.1,0.4,2.8,1.1C-711.7,519.8-711.1,520.9-710.6,522.3z"/>
					</g>
					<g>
						<ellipse fill="#F0B2B2" cx="-186.1" cy="631.3" rx="7.5" ry="4.5"/>
						<path fill="#33AD5C" d="M-186.2,613.7c0.4-1.4,1-2.5,1.8-3.2c0.8-0.7,1.7-1.1,2.9-1.1c1.2,0,2.3,0.4,3.1,1.2
							c0.8,0.8,1.3,1.8,1.3,2.9c0,0.8-0.2,1.7-0.7,2.7c-0.5,1.1-1.2,2.2-2.1,3.4l-0.7,0.9c-3.2,4.1-5,7.2-5.5,9.2
							c-0.5-2.1-2.4-5.1-5.6-9.3c-0.3-0.4-0.5-0.6-0.6-0.8c-0.9-1.2-1.7-2.4-2.1-3.4c-0.5-1.1-0.7-2-0.7-2.8c0-1.2,0.4-2.1,1.3-2.9
							c0.8-0.8,1.9-1.2,3.1-1.2c1.1,0,2.1,0.3,2.8,1.1C-187.3,611.2-186.7,612.3-186.2,613.7z"/>
					</g>
					<g>
						<ellipse fill="#F0B2B2" cx="-304.1" cy="586" rx="7.5" ry="4.5"/>
						<path fill="#FF8C40" d="M-304.2,568.3c0.4-1.4,1-2.5,1.8-3.2c0.8-0.7,1.7-1.1,2.9-1.1c1.2,0,2.3,0.4,3.1,1.2
							c0.8,0.8,1.3,1.8,1.3,2.9c0,0.8-0.2,1.7-0.7,2.7c-0.5,1.1-1.2,2.2-2.1,3.4l-0.7,0.9c-3.2,4.1-5,7.2-5.5,9.2
							c-0.5-2.1-2.4-5.1-5.6-9.3c-0.3-0.4-0.5-0.6-0.6-0.8c-0.9-1.2-1.7-2.4-2.1-3.4c-0.5-1.1-0.7-2-0.7-2.8c0-1.2,0.4-2.1,1.3-2.9
							c0.8-0.8,1.9-1.2,3.1-1.2c1.1,0,2.1,0.4,2.8,1.1C-305.3,565.8-304.7,566.9-304.2,568.3z"/>
					</g>
					<g>
						<ellipse fill="#F0B2B2" cx="-287.5" cy="711.6" rx="7.5" ry="4.5"/>
						<path fill="#FF8C40" d="M-287.6,694c0.4-1.4,1-2.5,1.8-3.2c0.8-0.7,1.7-1.1,2.9-1.1c1.2,0,2.3,0.4,3.1,1.2
							c0.8,0.8,1.3,1.8,1.3,2.9c0,0.8-0.2,1.7-0.7,2.7c-0.5,1.1-1.2,2.2-2.1,3.4l-0.7,0.9c-3.2,4.1-5,7.2-5.5,9.2
							c-0.5-2.1-2.4-5.1-5.6-9.3c-0.3-0.4-0.5-0.6-0.6-0.8c-0.9-1.2-1.7-2.4-2.1-3.4s-0.7-2-0.7-2.8c0-1.2,0.4-2.1,1.3-2.9
							c0.8-0.8,1.9-1.2,3.1-1.2c1.1,0,2.1,0.4,2.8,1.1C-288.6,691.5-288,692.5-287.6,694z"/>
					</g>
					<g>
						<ellipse fill="#F0B2B2" cx="-649.8" cy="612.3" rx="7.5" ry="4.5"/>
						<path fill="#FF8C40" d="M-649.9,594.7c0.4-1.4,1-2.5,1.8-3.2c0.8-0.7,1.7-1.1,2.9-1.1c1.2,0,2.3,0.4,3.1,1.2
							c0.8,0.8,1.3,1.8,1.3,2.9c0,0.8-0.2,1.7-0.7,2.7c-0.5,1.1-1.2,2.2-2.1,3.4l-0.7,0.9c-3.2,4.1-5,7.2-5.5,9.2
							c-0.5-2.1-2.4-5.1-5.6-9.3c-0.3-0.4-0.5-0.6-0.6-0.8c-0.9-1.2-1.7-2.4-2.1-3.4c-0.5-1.1-0.7-2-0.7-2.8c0-1.1,0.4-2.1,1.3-2.9
							c0.8-0.8,1.9-1.2,3.1-1.2c1.1,0,2.1,0.4,2.8,1.1C-651,592.2-650.4,593.3-649.9,594.7z"/>
					</g>
					<g>
						<ellipse fill="#F0B2B2" cx="-656.8" cy="707.5" rx="7.5" ry="4.5"/>
						<path fill="#DB4C94" d="M-656.9,689.9c0.4-1.4,1-2.5,1.8-3.2c0.8-0.7,1.7-1.1,2.9-1.1c1.2,0,2.3,0.4,3.1,1.2
							c0.8,0.8,1.3,1.8,1.3,2.9c0,0.8-0.2,1.7-0.7,2.7c-0.5,1.1-1.2,2.2-2.1,3.4l-0.7,0.9c-3.2,4.1-5,7.2-5.5,9.2
							c-0.5-2.1-2.4-5.1-5.6-9.3c-0.3-0.4-0.5-0.6-0.6-0.8c-0.9-1.2-1.7-2.4-2.1-3.4c-0.5-1.1-0.7-2-0.7-2.8c0-1.2,0.4-2.1,1.3-2.9
							c0.8-0.8,1.9-1.2,3.1-1.2c1.1,0,2.1,0.4,2.8,1.1C-657.9,687.4-657.3,688.5-656.9,689.9z"/>
					</g>
					<g>
						<ellipse fill="#F0B2B2" cx="-519.3" cy="516.4" rx="7.5" ry="4.5"/>
						<path fill="#DB4C94" d="M-519.4,498.7c0.4-1.4,1-2.5,1.8-3.2c0.8-0.7,1.7-1.1,2.9-1.1c1.2,0,2.3,0.4,3.1,1.2
							c0.8,0.8,1.3,1.8,1.3,2.9c0,0.8-0.2,1.7-0.7,2.7c-0.5,1.1-1.2,2.2-2.1,3.4l-0.7,0.9c-3.2,4.1-5,7.2-5.5,9.2
							c-0.5-2.1-2.4-5.1-5.6-9.3c-0.3-0.4-0.5-0.6-0.6-0.8c-0.9-1.2-1.7-2.4-2.1-3.4c-0.5-1.1-0.7-2-0.7-2.8c0-1.2,0.4-2.1,1.3-2.9
							c0.8-0.8,1.9-1.2,3.1-1.2c1.1,0,2.1,0.4,2.8,1.1C-520.4,496.2-519.8,497.3-519.4,498.7z"/>
					</g>
					<g>
						<ellipse fill="#F0B2B2" cx="-452" cy="737.4" rx="7.5" ry="4.5"/>
						<path fill="#DB4C94" d="M-452.1,719.7c0.4-1.4,1-2.5,1.8-3.2c0.8-0.7,1.7-1.1,2.9-1.1c1.2,0,2.3,0.4,3.1,1.2
							c0.8,0.8,1.3,1.8,1.3,2.9c0,0.8-0.2,1.7-0.7,2.7c-0.5,1.1-1.2,2.2-2.1,3.4l-0.7,0.9c-3.2,4.1-5,7.2-5.5,9.2
							c-0.5-2.1-2.4-5.1-5.6-9.3c-0.3-0.4-0.5-0.6-0.6-0.8c-0.9-1.2-1.7-2.4-2.1-3.4c-0.5-1.1-0.7-2-0.7-2.8c0-1.1,0.4-2.1,1.3-2.9
							c0.8-0.8,1.9-1.2,3.1-1.2c1.1,0,2.1,0.4,2.8,1.1C-453.2,717.2-452.5,718.3-452.1,719.7z"/>
					</g>
					<g>
						<ellipse fill="#F0B2B2" cx="-346.2" cy="529.4" rx="7.5" ry="4.5"/>
						<path fill="#DB4C94" d="M-346.3,511.8c0.4-1.4,1-2.5,1.8-3.2c0.8-0.7,1.7-1.1,2.9-1.1c1.2,0,2.3,0.4,3.1,1.2
							c0.8,0.8,1.3,1.8,1.3,2.9c0,0.8-0.2,1.7-0.7,2.7c-0.5,1.1-1.2,2.2-2.1,3.4l-0.7,0.9c-3.2,4.1-5,7.2-5.5,9.2
							c-0.5-2.1-2.4-5.1-5.6-9.3c-0.3-0.4-0.5-0.6-0.6-0.8c-0.9-1.2-1.7-2.4-2.1-3.4c-0.5-1.1-0.7-2-0.7-2.8c0-1.2,0.4-2.1,1.3-2.9
							c0.8-0.8,1.9-1.2,3.1-1.2c1.1,0,2.1,0.4,2.8,1.1C-347.4,509.3-346.8,510.4-346.3,511.8z"/>
					</g>
					<g>
						<ellipse fill="#F0B2B2" cx="-213.4" cy="564.7" rx="7.5" ry="4.5"/>
						<path fill="#DB4C94" d="M-213.5,547c0.4-1.4,1-2.5,1.8-3.2c0.8-0.7,1.7-1.1,2.9-1.1c1.2,0,2.3,0.4,3.1,1.2
							c0.8,0.8,1.3,1.8,1.3,2.9c0,0.8-0.2,1.7-0.7,2.7c-0.5,1.1-1.2,2.2-2.1,3.4l-0.7,0.9c-3.2,4.1-5,7.2-5.5,9.2
							c-0.5-2.1-2.4-5.1-5.6-9.3c-0.3-0.4-0.5-0.6-0.6-0.8c-0.9-1.2-1.7-2.4-2.1-3.4c-0.5-1.1-0.7-2-0.7-2.8c0-1.2,0.4-2.1,1.3-2.9
							c0.8-0.8,1.9-1.2,3.1-1.2c1.1,0,2.1,0.4,2.8,1.1C-214.5,544.6-213.9,545.6-213.5,547z"/>
					</g>
					<g>
						<ellipse fill="#F0B2B2" cx="-166" cy="543.4" rx="7.5" ry="4.5"/>
						<path fill="#33ADAD" d="M-166.1,520.3c0.6-1.9,1.4-3.3,2.4-4.2c1-0.9,2.3-1.4,3.8-1.4c1.6,0,3,0.5,4.1,1.6
							c1.1,1.1,1.7,2.4,1.7,3.9c0,1-0.3,2.2-1,3.7c-0.7,1.4-1.6,2.9-2.9,4.6l-0.9,1.2c-4.2,5.5-6.7,9.6-7.3,12.3
							c-0.7-2.7-3.2-6.9-7.4-12.4c-0.4-0.5-0.7-0.8-0.9-1.1c-1.3-1.6-2.2-3.2-2.9-4.6c-0.7-1.4-1-2.6-1-3.7c0-1.5,0.6-2.8,1.7-3.9
							c1.1-1.1,2.5-1.6,4.2-1.6c1.5,0,2.8,0.5,3.8,1.4S-166.7,518.4-166.1,520.3z"/>
					</g>
					<g>
						<ellipse fill="#F0B2B2" cx="-233.5" cy="668.8" rx="7.5" ry="4.5"/>
						<path fill="#33ADAD" d="M-233.6,645.7c0.6-1.9,1.4-3.3,2.4-4.2c1-0.9,2.3-1.4,3.8-1.4c1.6,0,3,0.5,4.1,1.6
							c1.1,1.1,1.7,2.4,1.7,3.9c0,1-0.3,2.2-1,3.7c-0.7,1.4-1.6,2.9-2.9,4.6l-0.9,1.2c-4.2,5.5-6.7,9.6-7.3,12.3
							c-0.7-2.7-3.2-6.9-7.4-12.4c-0.4-0.5-0.7-0.8-0.9-1.1c-1.3-1.6-2.2-3.2-2.9-4.6c-0.7-1.4-1-2.6-1-3.7c0-1.5,0.6-2.8,1.7-3.9
							c1.1-1.1,2.5-1.6,4.2-1.6c1.5,0,2.8,0.5,3.8,1.4S-234.2,643.8-233.6,645.7z"/>
					</g>
					<g>
						<ellipse fill="#F0B2B2" cx="-564.2" cy="535.8" rx="7.5" ry="4.5"/>
						<path fill="#5C85D6" d="M-564.3,518.2c0.4-1.4,1-2.5,1.8-3.2c0.8-0.7,1.7-1.1,2.9-1.1c1.2,0,2.3,0.4,3.1,1.2
							c0.8,0.8,1.3,1.8,1.3,2.9c0,0.8-0.2,1.7-0.7,2.7c-0.5,1.1-1.2,2.2-2.1,3.4l-0.7,0.9c-3.2,4.1-5,7.2-5.5,9.2
							c-0.5-2.1-2.4-5.1-5.6-9.3c-0.3-0.4-0.5-0.6-0.6-0.8c-0.9-1.2-1.7-2.4-2.1-3.4c-0.5-1.1-0.7-2-0.7-2.8c0-1.1,0.4-2.1,1.3-2.9
							c0.8-0.8,1.9-1.2,3.1-1.2c1.1,0,2.1,0.4,2.8,1.1C-565.4,515.7-564.8,516.8-564.3,518.2z"/>
					</g>
					<g>
						<ellipse fill="#F0B2B2" cx="-383.1" cy="752.4" rx="7.5" ry="4.5"/>
						<path fill="#C266C2" d="M-383.2,729.4c0.6-1.9,1.4-3.3,2.4-4.2c1-0.9,2.3-1.4,3.8-1.4c1.6,0,3,0.5,4.1,1.6
							c1.1,1.1,1.7,2.4,1.7,3.9c0,1-0.3,2.2-1,3.7c-0.7,1.4-1.6,2.9-2.9,4.6l-0.9,1.2c-4.2,5.5-6.7,9.6-7.3,12.3
							c-0.7-2.7-3.2-6.9-7.4-12.4c-0.4-0.5-0.7-0.8-0.9-1.1c-1.2-1.6-2.2-3.2-2.9-4.6c-0.7-1.4-1-2.6-1-3.7c0-1.5,0.6-2.8,1.7-3.9
							c1.1-1.1,2.5-1.6,4.2-1.6c1.5,0,2.8,0.5,3.8,1.4C-384.6,726.1-383.8,727.5-383.2,729.4z"/>
					</g>
					<g>
						<ellipse fill="#F0B2B2" cx="-275.4" cy="552.4" rx="7.5" ry="4.5"/>
						<path fill="#C266C2" d="M-275.5,529.4c0.6-1.9,1.4-3.3,2.4-4.2c1-0.9,2.3-1.4,3.8-1.4c1.6,0,3,0.5,4.1,1.6
							c1.1,1.1,1.7,2.4,1.7,3.9c0,1-0.3,2.2-1,3.7c-0.7,1.4-1.6,2.9-2.9,4.6l-0.9,1.2c-4.2,5.5-6.7,9.6-7.3,12.3
							c-0.7-2.7-3.2-6.9-7.4-12.4c-0.4-0.5-0.7-0.8-0.9-1.1c-1.3-1.6-2.2-3.2-2.9-4.6c-0.7-1.4-1-2.6-1-3.7c0-1.5,0.6-2.8,1.7-3.9
							c1.1-1.1,2.5-1.6,4.2-1.6c1.5,0,2.8,0.5,3.8,1.4C-276.9,526.1-276.1,527.5-275.5,529.4z"/>
					</g>
					<g>
						<ellipse fill="#F0B2B2" cx="-241.1" cy="610.1" rx="7.5" ry="4.5"/>
						<path fill="#5C85D6" d="M-241.2,592.5c0.4-1.4,1-2.5,1.8-3.2c0.8-0.7,1.7-1.1,2.9-1.1c1.2,0,2.3,0.4,3.1,1.2
							c0.8,0.8,1.3,1.8,1.3,2.9c0,0.8-0.2,1.7-0.7,2.7c-0.5,1.1-1.2,2.2-2.1,3.4l-0.7,0.9c-3.2,4.1-5,7.2-5.5,9.2
							c-0.5-2.1-2.4-5.1-5.6-9.3c-0.3-0.4-0.5-0.6-0.6-0.8c-0.9-1.2-1.7-2.4-2.1-3.4c-0.5-1.1-0.7-2-0.7-2.8c0-1.2,0.4-2.1,1.3-2.9
							c0.8-0.8,1.9-1.2,3.1-1.2c1.1,0,2.1,0.4,2.8,1.1C-242.3,590-241.7,591.1-241.2,592.5z"/>
					</g>
					<g>
						<ellipse fill="#F0B2B2" cx="-358.2" cy="794.7" rx="7.5" ry="4.5"/>
						<path fill="#5C85D6" d="M-358.3,777.1c0.4-1.4,1-2.5,1.8-3.2c0.8-0.7,1.7-1.1,2.9-1.1c1.2,0,2.3,0.4,3.1,1.2
							c0.8,0.8,1.3,1.8,1.3,2.9c0,0.8-0.2,1.7-0.7,2.7c-0.5,1.1-1.2,2.2-2.1,3.4l-0.7,0.9c-3.2,4.1-5,7.2-5.5,9.2
							c-0.5-2.1-2.4-5.1-5.6-9.3c-0.3-0.4-0.5-0.6-0.6-0.8c-0.9-1.2-1.7-2.4-2.1-3.4c-0.5-1.1-0.7-2-0.7-2.8c0-1.2,0.4-2.1,1.3-2.9
							c0.8-0.8,1.9-1.2,3.1-1.2c1.1,0,2.1,0.4,2.8,1.1C-359.4,774.6-358.8,775.6-358.3,777.1z"/>
					</g>
					<g>
						<ellipse fill="#F0B2B2" cx="-139.2" cy="668.8" rx="7.5" ry="4.5"/>
						<path fill="#5C85D6" d="M-139.3,651.2c0.4-1.4,1-2.5,1.8-3.2c0.8-0.7,1.7-1.1,2.9-1.1c1.2,0,2.3,0.4,3.1,1.2
							c0.8,0.8,1.3,1.8,1.3,2.9c0,0.8-0.2,1.7-0.7,2.7c-0.5,1.1-1.2,2.2-2.1,3.4l-0.7,0.9c-3.2,4.1-5,7.2-5.5,9.2
							c-0.5-2.1-2.4-5.1-5.6-9.3c-0.3-0.4-0.5-0.6-0.6-0.8c-0.9-1.2-1.7-2.4-2.1-3.4c-0.5-1.1-0.7-2-0.7-2.8c0-1.2,0.4-2.1,1.3-2.9
							c0.8-0.8,1.9-1.2,3.1-1.2c1.1,0,2.1,0.4,2.8,1.1C-140.4,648.7-139.8,649.7-139.3,651.2z"/>
					</g>
					<g>
						<ellipse fill="#F0B2B2" cx="-184.4" cy="704.4" rx="7.5" ry="4.5"/>
						<g>
							<g>
								<path fill="#D11975" d="M-198.2,663.3c-7.6,7.6-7.6,19.8,0,27.4l13.7,13.7l13.7-13.7c7.6-7.6,7.6-19.8,0-27.4
									C-178.3,655.7-190.6,655.7-198.2,663.3z"/>
								<path fill="#F7D9E8" d="M-184.5,662.2c3.9,0,7.6,1.5,10.4,4.3c2.8,2.8,4.3,6.5,4.3,10.4s-1.5,7.6-4.3,10.4
									c-2.8,2.8-6.5,4.3-10.4,4.3c-3.9,0-7.6-1.5-10.4-4.3c-2.8-2.8-4.3-6.5-4.3-10.4s1.5-7.6,4.3-10.4
									C-192.1,663.7-188.4,662.2-184.5,662.2"/>
								<g>
									<path fill="#E580B2" d="M-178.7,684.7c1.1-2.1,1.4-4.4,1.4-4.4c0.5,0.7,1.1,0.5,2-2.4c0.9-2.9-0.6-2.5-0.6-2.5
										c0.7-11-8.4-11-8.4-11s-9.1,0.1-8.4,11c0,0-1.5-0.4-0.6,2.5c0.9,2.9,1.5,3.1,2,2.4c0,0,0.3,2.2,1.4,4.4
										c0.1,1.3,0.3,2.7,0.1,2.8c-0.2,0.2-2.7,1.6-2.7,1.6l8.5,1.1l7.7-0.8c0-0.6,0-0.5,0.1-1.1c-1.3-0.3-2.2-0.7-2.3-0.8
										C-178.8,687.4-178.8,686-178.7,684.7z"/>
								</g>
								<g>
									<path fill="#DB4C94" d="M-184.3,689.7c-3.1,0-5.6-1-5.6-2.1c-1.1,0.2-2.3,0.5-3.7,0.8c2.6,2.1,5.8,3.2,9.2,3.2
										c3.4,0,6.6-1.1,9.2-3.3c-1.3-0.3-2.5-0.6-3.5-0.8C-178.8,688.8-181.3,689.7-184.3,689.7z"/>
								</g>
							</g>
						</g>
					</g>
					<g>
						<ellipse fill="#F0B2B2" cx="-362.2" cy="613.3" rx="7.5" ry="4.5"/>
						<path fill="#DB4C4C" d="M-362.3,574.5c1-3.2,2.4-5.7,4.2-7.3c1.8-1.6,4-2.4,6.6-2.4c2.8,0,5.2,0.9,7.2,2.8
							c2,1.8,2.9,4.1,2.9,6.7c0,1.8-0.6,3.9-1.7,6.3c-1.1,2.4-2.8,5.1-4.9,7.9l-1.5,2c-7.3,9.5-11.5,16.6-12.7,21.3
							c-1.3-4.7-5.5-11.9-12.8-21.4c-0.6-0.8-1.1-1.5-1.5-1.9c-2.2-2.8-3.8-5.5-4.9-7.9c-1.1-2.4-1.7-4.6-1.7-6.4
							c0-2.6,1-4.9,2.9-6.7c2-1.8,4.4-2.8,7.2-2.8c2.6,0,4.8,0.8,6.6,2.4C-364.7,568.8-363.3,571.3-362.3,574.5z"/>
					</g>
					<g>
						<ellipse fill="#F0B2B2" cx="-283.7" cy="668.7" rx="7.5" ry="4.5"/>
						<g>
							<g>
								<path fill="#5C85D6" d="M-297.4,627.6c-7.6,7.6-7.6,19.8,0,27.4l13.7,13.7L-270,655c7.6-7.6,7.6-19.8,0-27.4
									C-277.6,620.1-289.9,620.1-297.4,627.6z"/>
								<path fill="#E0E8F7" d="M-283.7,626.6c3.9,0,7.6,1.5,10.4,4.3c2.8,2.8,4.3,6.5,4.3,10.4s-1.5,7.6-4.3,10.4
									c-2.8,2.8-6.5,4.3-10.4,4.3c-3.9,0-7.6-1.5-10.4-4.3c-2.8-2.8-4.3-6.5-4.3-10.4s1.5-7.6,4.3-10.4
									C-291.3,628.1-287.7,626.6-283.7,626.6"/>
								<g>
									<path fill="#99B2E5" d="M-278,649.1c1.1-2.1,1.4-4.4,1.4-4.4c0.5,0.7,1.1,0.5,2-2.4c0.9-2.9-0.6-2.5-0.6-2.5
										c0.7-11-8.4-11-8.4-11s-9.1,0.1-8.4,11c0,0-1.5-0.4-0.6,2.5c0.9,2.9,1.5,3.1,2,2.4c0,0,0.3,2.2,1.4,4.4
										c0.1,1.3,0.3,2.7,0.1,2.8c-0.2,0.2-2.7,1.6-2.7,1.6l8.5,1.1l6.8-0.8c0-0.6,0.9-0.5,0.9-1.1c-1.3-0.3-2.2-0.7-2.3-0.8
										C-278.1,651.8-278.1,650.4-278,649.1z"/>
								</g>
								<g>
									<path fill="#7A9CDE" d="M-283.6,654.1c-3.1,0-5.6-1-5.6-2.1c-1.1,0.2-2.3,0.5-3.7,0.8c2.6,2.1,5.8,3.2,9.2,3.2
										c3.4,0,6.6-1.1,9.2-3.3c-1.3-0.3-2.5-0.6-3.5-0.8C-278,653.1-280.5,654.1-283.6,654.1z"/>
								</g>
							</g>
						</g>
					</g>
					<g>
						<ellipse fill="#F0B2B2" cx="-323.3" cy="765" rx="7.5" ry="4.5"/>
						<g>
							<g>
								<path fill="#19A347" d="M-337.1,723.9c-7.6,7.6-7.6,19.8,0,27.4l13.7,13.7l13.7-13.7c7.6-7.6,7.6-19.8,0-27.4
									C-317.2,716.3-329.5,716.3-337.1,723.9z"/>
								<path fill="#D9F0E0" d="M-323.4,722.8c3.9,0,7.6,1.5,10.4,4.3c2.8,2.8,4.3,6.5,4.3,10.4s-1.5,7.6-4.3,10.4
									c-2.8,2.8-6.5,4.3-10.4,4.3c-3.9,0-7.6-1.5-10.4-4.3c-2.8-2.8-4.3-6.5-4.3-10.4s1.5-7.6,4.3-10.4
									C-331,724.4-327.3,722.8-323.4,722.8"/>
								<g>
									<path fill="#80CC99" d="M-317.6,745.3c1.1-2.1,1.4-4.4,1.4-4.4c0.5,0.7,1.1,0.5,2-2.4c0.9-2.9-0.6-2.5-0.6-2.5
										c0.7-11-8.4-11-8.4-11s-9.1,0.1-8.4,11c0,0-1.5-0.4-0.6,2.5c0.9,2.9,1.5,3.1,2,2.4c0,0,0.3,2.2,1.4,4.4
										c0.1,1.3,0.3,2.7,0.1,2.8c-0.2,0.2-2.7,1.6-2.7,1.6l8.5,1.1l7.7-0.8c0-0.6,0-0.5,0.1-1.1c-1.3-0.3-2.2-0.7-2.3-0.8
										C-317.8,748.1-317.7,746.6-317.6,745.3z"/>
								</g>
								<g>
									<path fill="#4CB870" d="M-323.3,750.3c-3.1,0-5.6-1-5.6-2.1c-1.1,0.2-2.3,0.5-3.7,0.8c2.6,2.1,5.8,3.2,9.2,3.2
										c3.4,0,6.6-1.1,9.2-3.3c-1.3-0.3-2.5-0.6-3.5-0.8C-317.7,749.4-320.2,750.3-323.3,750.3z"/>
								</g>
							</g>
						</g>
					</g>
					<g>
						<ellipse fill="#F0B2B2" cx="-705.5" cy="640.8" rx="7.5" ry="4.5"/>
						<g>
							<g>
								<path fill="#19A3A3" d="M-719.2,599.7c-7.6,7.6-7.6,19.8,0,27.4l13.7,13.7l13.7-13.7c7.6-7.6,7.6-19.8,0-27.4
									C-699.4,592.1-711.7,592.1-719.2,599.7z"/>
								<path fill="#D9F0F0" d="M-705.5,598.6c3.9,0,7.6,1.5,10.4,4.3c2.8,2.8,4.3,6.5,4.3,10.4s-1.5,7.6-4.3,10.4
									c-2.8,2.8-6.5,4.3-10.4,4.3c-3.9,0-7.6-1.5-10.4-4.3c-2.8-2.8-4.3-6.5-4.3-10.4s1.5-7.6,4.3-10.4
									C-713.2,600.1-709.5,598.6-705.5,598.6"/>
								<g>
									<path fill="#80CCCC" d="M-699.8,621.1c1.1-2.1,1.4-4.4,1.4-4.4c0.5,0.7,1.1,0.5,2-2.4c0.9-2.9-0.6-2.5-0.6-2.5
										c0.7-11-8.4-11-8.4-11s-9.1,0.1-8.4,11c0,0-1.5-0.4-0.6,2.5c0.9,2.9,1.5,3.1,2,2.4c0,0,0.3,2.2,1.4,4.4
										c0.1,1.3,0.3,2.7,0.1,2.8c-0.2,0.2-2.7,1.6-2.7,1.6l8.5,1.1l7.7-0.8c0-0.6,0-0.5,0.1-1.1c-1.3-0.3-2.2-0.7-2.3-0.8
										C-699.9,623.8-699.9,622.4-699.8,621.1z"/>
								</g>
								<g>
									<path fill="#4CB8B8" d="M-705.4,626.1c-3.1,0-5.6-1-5.6-2.1c-1.1,0.2-2.3,0.5-3.7,0.8c2.6,2.1,5.8,3.2,9.2,3.2
										c3.4,0,6.6-1.1,9.2-3.3c-1.3-0.3-2.5-0.6-3.5-0.8C-699.9,625.2-702.4,626.1-705.4,626.1z"/>
								</g>
							</g>
						</g>
					</g>
					<g>
						<ellipse fill="#F0B2B2" cx="-597.7" cy="767.2" rx="7.5" ry="4.5"/>
						<g>
							<g>
								<path fill="#FF7519" d="M-611.5,726.1c-7.6,7.6-7.6,19.8,0,27.4l13.7,13.7l13.7-13.7c7.6-7.6,7.6-19.8,0-27.4
									C-591.7,718.5-603.9,718.5-611.5,726.1z"/>
								<path fill="#FFE8D9" d="M-597.8,725c3.9,0,7.6,1.5,10.4,4.3c2.8,2.8,4.3,6.5,4.3,10.4s-1.5,7.6-4.3,10.4
									c-2.8,2.8-6.5,4.3-10.4,4.3c-3.9,0-7.6-1.5-10.4-4.3c-2.8-2.8-4.3-6.5-4.3-10.4s1.5-7.6,4.3-10.4
									C-605.4,726.5-601.7,725-597.8,725"/>
								<g>
									<path fill="#FFB280" d="M-592,747.5c1.1-2.1,1.4-4.4,1.4-4.4c0.5,0.7,1.1,0.5,2-2.4c0.9-2.9-0.6-2.5-0.6-2.5
										c0.7-11-8.4-11-8.4-11s-9.1,0.1-8.4,11c0,0-1.5-0.4-0.6,2.5c0.9,2.9,1.5,3.1,2,2.4c0,0,0.3,2.2,1.4,4.4
										c0.1,1.3,0.3,2.7,0.1,2.8c-0.2,0.2-2.7,1.6-2.7,1.6l8.5,1.1l7.7-0.8c0-0.6,0-0.5,0.1-1.1c-1.3-0.3-2.2-0.7-2.3-0.8
										C-592.2,750.2-592.1,748.8-592,747.5z"/>
								</g>
								<g>
									<path fill="#FF944C" d="M-597.7,752.5c-3.1,0-5.6-1-5.6-2.1c-1.1,0.2-2.3,0.5-3.7,0.8c2.6,2.1,5.8,3.2,9.2,3.2
										c3.4,0,6.6-1.1,9.2-3.3c-1.3-0.3-2.5-0.6-3.5-0.8C-592.1,751.6-594.6,752.5-597.7,752.5z"/>
								</g>
							</g>
						</g>
					</g>
					<g>
						<ellipse fill="#F0B2B2" cx="-435.6" cy="595" rx="7.5" ry="4.5"/>
						<g>
							<g>
								<path fill="#D11919" d="M-449.4,553.9c-7.6,7.6-7.6,19.8,0,27.4l13.7,13.7l13.7-13.7c7.6-7.6,7.6-19.8,0-27.4
									C-429.5,546.3-441.8,546.3-449.4,553.9z"/>
								<path fill="#F7D9D9" d="M-435.6,552.8c3.9,0,7.6,1.5,10.4,4.3c2.8,2.8,4.3,6.5,4.3,10.4c0,3.9-1.5,7.6-4.3,10.4
									c-2.8,2.8-6.5,4.3-10.4,4.3c-3.9,0-7.6-1.5-10.4-4.3c-2.8-2.8-4.3-6.5-4.3-10.4c0-3.9,1.5-7.6,4.3-10.4
									C-443.3,554.3-439.6,552.8-435.6,552.8"/>
								<g>
									<path fill="#E58080" d="M-429.9,575.3c1.1-2.1,1.4-4.4,1.4-4.4c0.5,0.7,1.1,0.5,2-2.4c0.9-2.9-0.6-2.5-0.6-2.5
										c0.7-11-8.4-11-8.4-11s-9.1,0.1-8.4,11c0,0-1.5-0.4-0.6,2.5c0.9,2.9,1.5,3.1,2,2.4c0,0,0.3,2.2,1.4,4.4
										c0.1,1.3,0.3,2.7,0.1,2.8c-0.2,0.2-2.7,1.6-2.7,1.6l8.5,1.1l7.7-0.8c0-0.6,0-0.5,0.1-1.1c-1.3-0.3-2.2-0.7-2.3-0.8
										C-430,578-430,576.6-429.9,575.3z"/>
								</g>
								<g>
									<path fill="#DB4C4C" d="M-435.5,580.3c-3.1,0-5.6-1-5.6-2.1c-1.1,0.2-2.3,0.5-3.7,0.8c2.6,2.1,5.8,3.2,9.2,3.2
										c3.4,0,6.6-1.1,9.2-3.3c-1.3-0.3-2.5-0.6-3.5-0.8C-430,579.4-432.5,580.3-435.5,580.3z"/>
								</g>
							</g>
						</g>
					</g>
				</g>
			</g>
		</g>
	</g>
</g>
</svg>
