<?xml version="1.0" encoding="utf-8"?>
<!-- Generator: Adobe Illustrator 18.0.0, SVG Export Plug-In . SVG Version: 6.00 Build 0)  -->
<!DOCTYPE svg PUBLIC "-//W3C//DTD SVG 1.1//EN" "http://www.w3.org/Graphics/SVG/1.1/DTD/svg11.dtd">
<svg version="1.1" id="Layer_1" xmlns="http://www.w3.org/2000/svg" xmlns:xlink="http://www.w3.org/1999/xlink" x="0px" y="0px"
	 viewBox="0 0 1536 1000" enable-background="new 0 0 1536 1000" xml:space="preserve">
<g>
	<g>
		<g>
			<g>
				<defs>
					<rect id="SVGID_1_" x="0" y="0" width="1536" height="1000"/>
				</defs>
				<clipPath id="SVGID_2_">
					<use xlink:href="#SVGID_1_"  overflow="visible"/>
				</clipPath>
				<g clip-path="url(#SVGID_2_)">
					<g>
						<rect x="-457.6" y="-82" fill="#F4F4F4" width="2647.3" height="1125.3"/>
					</g>
					<path fill="#F7D9D9" d="M1146.6,536.6c-2.2-1.6-4.1-1.6-5.9,0C1140.2,540.4,1148.7,539.7,1146.6,536.6
						C1146,535.7,1147.2,537.5,1146.6,536.6z"/>
					<path fill="#F7D9D9" d="M746.9,211.9c1.2,0.7,3.2-1.5,2.5-2.7C748.6,207.8,741.1,208.7,746.9,211.9
						C747.1,212,745.4,211.1,746.9,211.9z"/>
					<path fill="#F7D9D9" d="M751.2,208c2.3-1.3,7.2-4.9,6.5-8.7C756.3,192,743.9,208,751.2,208z"/>
					<path fill="#F7D9D9" d="M788.6,188.2c2.7,1.5,3.2-5.6,1.6-7.1C788.3,179.4,782.7,185.1,788.6,188.2
						C788.8,188.3,786.7,187.2,788.6,188.2z"/>
					<path fill="#F7D9D9" d="M399.8,555.3c4.2,1,5.1-6.1,1.4-5.8C398.3,549.6,395.9,554.3,399.8,555.3
						C400.3,555.4,397.9,554.8,399.8,555.3z"/>
					<path fill="#F7D9D9" d="M891.1,233.2c1.5,0.7,2.8,0.4,3.9-0.7c0.4-1.4-3.6-5.2-5.3-4.2C888.3,229.2,889.7,232.7,891.1,233.2
						C892,233.4,890.4,233,891.1,233.2z"/>
					<path fill="#F7D9D9" d="M911.9,216.9c4.8,1.7,11.6-5.9,7.8-10.3C917,203.2,908.5,216,911.9,216.9z"/>
					<path fill="#F7D9D9" d="M814.2,352.5c-1,8.8,13.5-10.3,0.5-4.5C814.3,348.2,814.3,351.9,814.2,352.5
						C814.1,353.4,814.3,352.1,814.2,352.5z"/>
					<path fill="#F7D9D9" d="M690.2,431.7c-1.5,0-4.3,1.8-3.9,3.7C687.2,439.4,695.5,431.7,690.2,431.7z M688,435.6
						C688,435.6,688,435.6,688,435.6L688,435.6z"/>
					<path fill="#F7D9D9" d="M695,434.4c-3.8,0.6-0.7,4.3,1.2,4.3C698.4,438.7,700,433.5,695,434.4C693.6,434.6,697,434,695,434.4z"
						/>
					<path fill="#F7D9D9" d="M826.9,351.4c1.2,0.5,2.2,0.3,3.1-0.7c0.2-1.2-4.7-3.8-5.8-2.4C823.5,349.4,826.3,351.2,826.9,351.4
						C827.7,351.5,826.7,351.3,826.9,351.4z M828.6,350.7C828.6,350.7,828.6,350.7,828.6,350.7L828.6,350.7z M828.6,349.8
						C828.6,351,828.6,349.9,828.6,349.8L828.6,349.8z"/>
					<path fill="#F7D9D9" d="M706.5,430.7c-1.5,0-4.9,5.4-2,5.4C707.2,436.2,710.2,430.7,706.5,430.7z"/>
					<path fill="#F7D9D9" d="M803.7,356.1c1.2,0.7,3.2-1.5,2.5-2.7C805.5,352.2,798.1,352.9,803.7,356.1
						C803.9,356.3,802.3,355.3,803.7,356.1z"/>
					<path fill="#F7D9D9" d="M1520.3,48.8c-2.4,0.9-4,2.6-4.6,5.1C1517.4,61,1526.9,46.4,1520.3,48.8
						C1518.3,49.5,1521.3,48.4,1520.3,48.8z"/>
					<path fill="#F7D9D9" d="M1997,151.6c0,1.9,7.3,1.8,8.2,0.2c0.5-0.8-3-4.9-3-5c1.6,0.1,7.4-2.4,3.6-4.9c0.6,0.2,7.4,1.7,7.7,1.5
						c-2,0.9,4.9-8.5,4.5-7.1c1.5-5.2-25.2-13.8-30.7-10.4c-3.5-8.5-11.9-5.7-14-10.5c-1.2-2.5-15.2-8.6-17.1-8.6
						c-4.2,0-5.7-6.1-8.2-7.4c-1.5-0.7-16.7-4.7-18.4-4.7c-10.2,0.4-23.6-4.5-34.5-4.5c-4.4,0,1.8,10.7-1.3,13.9
						c-6.2,6.5-8.1-2.4-12.2-3.7c0.7-5.1-13.9-3.9-18.9-3.9c-7,0-25.2-4.3-29.5,6.1c-2.7-6.2-0.7-3.8-5.4-5.3
						c7.1-18.6-42.4-11.5-50.6-10c2.4-2.3-6.5-11.3-9.1-4.1c-0.2-0.7-0.7-1.1-1.4-1.1c0.9-1,1.5-2.2,1.5-3.7
						c-1.2-1.7-11.2,7.9-12.1,2.4c25.8-4-31.7-12.4-30.4-8.2c1.5,0,6.9,0.9,7.2-1.1c0.1-0.4-28.9-7.6-31.7-7.2
						c-6,0.7-0.9,2.6-0.6,4.1c-14.6-0.1-1.6,7.6-5.3,12.1c-2,2.6-4.5-0.4-4.7-1.6c-0.7-4.4-8.3,5-10,4.9c-4.2-0.3-10.8-6.1-14.6-7.3
						c-4-1.3-8.7,3.6-12.8,4.4c1.9-2-3.1-7.1-4.7-6.9c0.4,0-8,15.5-8.1,15.9c-1.4-2.7,0.9-8-7.8-6.9c-7.5,0.9-1.6-7.6-10-5.8
						c-0.2-0.9-0.8-6.5-0.9-6.4c0.7,0.1,4.4,3.2,5-0.3c-0.3-0.7-0.6-1.5-0.9-2.2c-3.6-1.2-3.4-2.3,0.6-3.3
						c-0.1-1.4-13.1-4.9-10.7-0.4c0,0,6.2,2.2,6.5,2.2c-0.7,0.5-0.4,2-0.4,2.6c-3.3-3.7-7.8-0.3-9.7,1.6c0.1-0.6,0-1.1-0.3-1.6
						c1.3-0.2,4.1-3.2,3.5-4.8c-1.4-4-5.1,2.8-5.1,3.4c-0.4-3.3-8.5,3.2-10.3,1c0.5-0.4,1.6-1.2,1.2-1.8c2.4,3.8,5.7-4.5,4.9-4
						c3.9,4.1,2.3-3.3,3.9-4.9c0.4-0.4-16.1-6.9-20.1-5.1c-10.2,4.4-0.6,7.7-0.1,14.3c-9,0-29.8-2.6-31.4-8.5
						c-2.4-9.1-29.5-3.8-34.7,0.6c0.2-8.4-7.2,0.3-11.2-2.1c-6-3.6-15.7,2.5-10.8,4.6c-4-1.2-12.5,1.8-18.9,3.7
						c0.1-0.6,11.5-4.3,12-4.7c2.9-2.5,4.9-5.5,6.2-9.2c5.2-0.9,10.4-1.9,15.6-3.1c5.7-1.3,19.7-3.2,10-9.6
						c11.1-0.1-8.9-15.3-8.9-15.3c-3.3-9.3-25.9,3.8-30.7,3.4c4.3-8.2-1.9-6.8-9.9-7.2c9.2-15.8-40.8-1.5-30,6.5
						c-6.6-1.1-12.4-3.3-12.6,2.5c-5.1,0.1-9.5,4.3-15.5,5.5c16.7-8.7-11.1-8.7-4.9-4c-6.2,0.1-51.5,1.7-52.9,6.4
						c0.5,1.2,1.4,2.2,2.6,2.9c-0.1,0.4-2.6,1.6-3,3.3c-1.4-1.8-6.4-1.9-7,0.8c-0.4,1.6,3.3,2,3.5,2.6c-5.8,1.1-1.5,2.7,1.7,7.8
						c-3.9-3.6-34.5-2.7-38.4,2.8c-8.2,10.8,6.4,18.3,14.3,20.2c3.2,0.8-3.1,11.9,1.3,12.9c-1,2.4-4.8-0.9-4.8,3.1
						c-2.7-1.4-2.7-1.5-5-0.6c0.6-1.9,7.8-15.6,6.2-15.7c-2.7-0.2-11.4,0-12.6-2.1c-2.6-4.5-23.5-6.7-21.8-0.5
						c1.9,6.9,5.5-2.5,2.8,3.4c-4.1-0.2-7.5-5.3-11.3-0.4c-3.7,4.7,3.9,6.6,8.7,8.1c-8.6,6.3-13.4-3.8-16.6-6.4
						c-3.6-2.9,3.2-9.5-2.2-12.8c-6.9-4.3-1.7,6.4-2.8,9.9c-0.2,0.5-6.2,8.5-7,9.1c-2.8,0.3,6.1,5.6,3.1,8.8
						c-12.4,13,15.5,9.4,17.5,9.5c-4.1,1-8.6,1.4-12.2,3.8c-5.6,3.7,0.6,4.8-1.3,7.8c-0.1,0.2-11.4,21.8-14.9,14.6
						c3.1,6.4,2.7-4.9,3.7,6c0.9-0.1-17.4-6.1-18.5-7c10.2,0.2,24.2-1.3,24.1-13.7c0-6.7-7.8-8-6.2-14.1c2.4-9.1,2-7.1-2.2-14.4
						c-3.6-5.9,9.3-13,2.9-22.1c-10.1-14.4-38.9,12.4-36.6,22.1c1.1,4.6-4.6,8.5-2.1,12.3c4.4,6.7,6.5-4.4,6.6,4.7
						c0.1,5.5,2.3,3.6,2.4,4.5c-4.8,9.9-11-6.5-17.3-5.7c-1.4,0.2-17.9-4.6-17.2-4.1c-2.1-1.4-18.7-1.4-15.5,4.3
						c6.6,11.7-6.3,1.8-5.7,9.1c-10.8-10.1,0.8-0.5-0.9-5.3c-0.1-0.4-14.7-0.7-12.1,3.5c-10-1.3-15.4,3.1-23.4,2.5
						c6.1-0.4-11.9-15.4-11.4-2.6c-5.8-2.6-20.1,4.9-23.8,7.7c-9,2.5-5.3,9.8-17,11.8c-6.5-13.2,7.4-5.5,7.4-10.3
						c0-5.6-18.7-17.1-22.9-12.8c3.5-3.6-0.1,17.6-0.7,15.2c1.2,5.2-1.5,5.3-1.6,10.6c-5.2-9.6-28.2-0.7-16.4,13
						c-4.8,0.4-15.7-8.6-18.6-7.2c-2.8-1.4-4,9,1,10.6c7.8,2.4-1,4.5-4.8,4.1c-11-1.1-5.6-16.9-16.3-20c-6.7-1.9-7-3.5-11.4-8.9
						c4.6,1.3,9,6.8,11.9,3c-0.2,14.7,65.2,2.7,32-13.1c-9.6-7.6-30.9-15.8-45-15.8c4-0.5-11.8-4.3-18-2.7c-0.2-0.4-0.3-0.8-0.5-1.2
						c0.1,0,10.2-3.2,9.9-2.3c2.8-8.7-15.1-6.8-16.7-6.4c-0.1-2.2,2.3-0.6,2.5-2.6c1-11.8-14.2,5.3-12.6,4.4c0.8-7.2-2-3.1-6.1-0.3
						c-0.4,1.9,0.7-10.8,1-6.5c-0.2-3.6-6.4-2.2-5,2.5c-2.8,1.3-6.2-3.8-5.8,2.1c-4-2.7-3.9,2-6.5,3.8c-7.1,4.9-3.7-3.3-7.4-3.7
						c2.3-1,4-2.7,5-4.9c-0.7-5-17.2,7.9-12.6,10.6c-2.2-0.5-3.5,0.6-4.6,2.6c-1.8-5.6-2.9,0.7-5.9,1.8c2.7-14.8-16.9,1.8-16.6,5.1
						c-1.2-3.6-4.1,1.9-4.1,1.9c0,3.1,4-0.2,4.1-1.4c0.2,3.3,1.3,3.2,4.4,2.6c-2.3,8-5.6,5-5.6,11.2c-1.5-0.6-4-2.8-5.6-1.6
						c-1.8,1.3,2.5,5.7,3.2,7.2c-3.2-0.4-7.8,3.4-10.9,4.9c-6.3,2.8-2.3,6.3-4.4,9.3c-7.8,3.5-15.5,6.7-21.7,12.9
						c-3,2.8-15,5.5-15.2,7c-0.1,1.4,2.7,0.8,3.7,2.1c-6.4,3.6-11.4,3.6-10.8,8c-5.2,2-26.1,10.1-13.8,17.8c-1.3-0.1-2.3,0.4-3,1.5
						c0,1.2,3.3,1.7,4,1.7c-1.7,2.4,1.4,5.6,4,3.7c-2,3.4-11.2,8.9,0.2,6.9c0.2,0.5-6.9,15.2,4.7,10.1c-0.1,8.5,25.3-9.7,28.6-7.7
						c-0.5,6.8,10.8,19.4,9.5,21.8c-0.4,1.2-14.6,3.1-13.3,6.9c-0.8-0.5-1.6-0.5-2.5-0.1c0.6-1.8,8.1-8.4,2.5-8.4
						c-3.2,0,2.5-15-1.5-12.9c-6.1,3.1-10.2,5.5-15.9,9c-2.5,1.5,4.9,3.8,4.9,3.9c-10.9-0.3-1.7,13.3-0.1,19
						c4.5,16.4-18.2,2.5-21,9.4c-5.3,12.9-12.5,11.9-25.7,16.1c1.3-3.2-2.2-3.1-4.2-3c0.3-1,12.7-7.8,7.8-10.4
						c-4.1-2.1-5.5-4.9-9.1-1.4c-2.4-2.3-1.8-7.2-5.3-11.2c-3.2-3.8-11.7-15.9-15.5-15.4c6-6.5-2.8-2,3.6-6.6
						c12.6-8.9-10.1-7.2-11.9-7.1c-0.7-2.3,2.1-5.5,4.9-5.5c9.6,0-13.5-6.7-9.2-4.3c-3.2-1.8-5.2,4.9-4.6,7.4
						c-1.6,2.5-5.2,0.7-3.2,6c0.6-0.3-2.4,1.5-1.9,0.5c-1.6-10.1-8.6,1.6,0.9,3.1c-0.2,1-0.2,2,0,3c-1.5-1.1-4.6,7.8,5.8,4.8
						c-6.4,12.4,1.1,10.6,10,9.9c-3.1,4.2-1.8,4,3.7,4.6c-2.5,10.8-7.5-1.5-11.6,4.5c-0.6,0.9-0.4,4.4,1.4,3.7
						c0.9-0.8-4.4,3.4-3.4,4.6c0.9,1,2.7-0.2,3.7-0.3c0.1-1.7-14,14.6-1,8.7c0,0.5-0.1,1.2,0.4,1.6c-0.7,0.9-11.4,10.7-11.3,11
						c0.6,1.5,44.9-5.7,47.6-6.9c-1.5,7-4.6,12.4-14.7,10.8c0-5.1-10.1-1.4-3.3,7.1c-3.1-0.5-20.8-1-21.8,1.6
						c-2,5.2,10.8,12.8,16.3,12.6c-2.6,5.1,2.6,7,6.6,8.1c5.2,1.6,1.2,14.6,0.1,18.7c-10.4,0.7-36.9-8.6-44.4,0.1
						c-11.3,1.6-5.3,1.2-5.5,8.6c-0.1,4.3,2.8,8.6,2.2,12.8c-0.1,1-4,4.3-3.9,7c-3.4,0-0.1,8.7,1.1,9.6c2,1.7-1.6,8.9,0.7,9.3
						c2.9,0.4,5.9,0.4,8.8,0c7.6-0.8,4.8,5.4,10.3,6.1c0.2,0.3,24.5-3,24.3-2.9c5.4-2.4,9.6-10.6,13.6-13.7c5.2-4.2,3-7.5,7.5-13.8
						c4.1-5.7,7.7-6,13.7-8.6c6-2.5-0.4-9,3.4-11.5c6.2-4.1,18.3,5.7,21.7-0.9c1.8-3.8,4.6-1.3,7.8-2.9c1.4-0.7,2.3-5,4.1-4.7
						c7.8,1.1,9.6,8.4,13.5,14.2c4,5.9,16.7,13.5,22.1,15.1c3.6,1,10.6,6.1,9.3,12.1c-2.1,0.1-1.8,3.4-2,5c-3,0.4-18.9-2.2-20,0.4
						c-3,6.9,26.8,16.8,19.2,1.9c3.7,0.2,4.5,2.1,7-1.1c1.6-2.1,4-15.6,1.8-13.2c-2.5-8.1,9.4,1.1,10.6-1c3.9-7-21.3-16.2-23.7-17.6
						c-2.4-1.4-15.2-18.1-15.5-17.3c0.9-2.8,0.9-5.6,1-6.1c1.9-0.3,3.7-0.6,5.6-0.9c-3.6,11.6,8.5,3,8.8,3.1
						c-3.6,9.5,17.3,19,24.3,21.9c1.1,1.1,4.2,0.6,5.1,1.9c3.6,3.1-1,10.6,3.9,15.9c-0.5,0.4,8.1,8,7.7,11.6
						c-0.2-0.3-4.8-1.3-5.1,0.2c-1,4,6.7,0.7,5.3,0.8c0.6,0.4,1.1,0.4,1.7,0.1c-1.2,10.9,13.5,9.8,11.1,5.8c3.7,0.1,5.9,0.5,4-3.6
						c4.4,0,5,3,5-2.9c1.4-0.1,1.1,2.7,3,2.7c6.5,0-11.1-10.8-10.9-10.6c6.4,0.5-2.8-6.4-1-8.7c2.9,2.8,13.1,1.5,8.3-3.6
						c1,0.1,11.5-0.5,11.7,0.3c0.3,1.3,0.9,4.5,2.5,4.7c-6.5,7,3.7,3.4,2.2,8.7c-0.3-1.8-4.8-4.3-6-2c-1.1,2,4,5.4,5.7,3.3
						c-0.1,0.9,0.1,1.6,0.8,2c-0.6,0.1-6.5,1-6.5,1c-0.8,1,2.3,5.3,3.1,1.1c3.2,2.4,3.3,10,8.4,9.3c2.5-0.4,9.2,5.6,12.5,8
						c6,4.2,7.7-10.2,16.4-2c3.6,3.4,20.3-0.6,22.7-4c5,10.2-7,22.6-5.6,31.3c0.1,0.8-27.6,5-31.8,4.4c-3-0.4-12.8-2.6-11.9,1.6
						c-7.1-0.2-13.6-1.4-20.9-3.7c-5.9-3.1-11.4-5.3-17.3-6.8c-6.1-1.6-8.9-1.3-14.2,3.5c-7.5,6.8-0.2,1.2-0.2,6.3
						c4.2,10.3-15.9,2.9-16.3,2.9c-5.3-0.8-8.9-1.6-12.5-5.9c-5.9-7.1-12-4.4-19.6-6.1c-3.1-1-9.8-6.3-11.9-9.6
						c3.5-1.7,8.4-11.1,1.7-10.9c0.4-3.5,6.4-7.4,5-9.4c-2.7-3.7-26.8-3.3-28.9,0.7c-7.7-7-48-0.2-55.9,8.7
						c-2.5,2.8-15.5,2-19.8,2.3c-11.6-13.9-10.2,10.8-21.9,13.1c-19.5,0-5.9,42.7-31.6,42.7c-5.8,0-20,24.9-21.5,30.4
						c-1.4,5.4-10.3,9.5-3.6,15.3c2.8,2.4,2.6,24,2,26.5c0,7.6-10.6,12-4.1,21.1c1.8,9,1.6,7.5,7.7,12.3c2.3,2.7,5,5,6.7,8.9
						c1.3,3.1,7.1,16.1,10.3,18.4c0.2-0.2,31.5,23.9,37.5,23.5c11.2-1.5,10.1-6.2,23.3-3.5c1.5,0,2.9,0.4,4.5,0.2
						c8.4-1,19.4-8.4,26.4-9c2.8,3.2,16.4-6.3,26.1,1c6.1,4.5,3.6,18.4,17,7.9c2.6,0.2,17.5,6.3,12.3,12.3c-1.6,2.1-0.3,5.4-2.4,7.8
						c-2.1,2.4,0.8,5.1-0.8,8.6c-4.1,8.6,0.9,8.8,0.4,13c-0.6,5.1,12.6,13,17,20.6c1.5,3.3,10.1,35.6,8.5,35.2
						c11,3.3-4.5,17.6-5.5,19.6c-5.2,8.5-7,22.6-5.5,33.1c0.5,3.3,2.4,2,4.4,3.9c5.1,4.9,2.6,11.6,7.9,15.6
						c6.6,4.9,8.6,24.4,8.3,33.1c-0.5,11.1,6,14.1,9.9,20.6c3.6,4.9,11.4,15.5,10.6,22.9c-0.6,4.6-7,8.9,0,15.6c0,1,12,2.4,13.7,1.8
						c13.1-5.5,29.6-4,42.3-6.6c10.3-2.2,37.4-31.2,36.7-38.3c5.1-1.7,5.9-12,1.4-15.5c7.3-4.6,19.6-4,19.3-14.7
						c-0.2-7.8-6.3-19.4-4.9-25.1c1.2-5.2,10.7-11.8,15.2-13.3c2.9-1,10.9-4.4,13.1-6.3c10.2-8.6,6.4-12.2,9.6-22.9
						c1.1-3.7,1.1-17.5-0.2-21.7c-2.5-7.7-7-2.5-7.1-13c0-4.9,3.7-7.8-0.7-11c4.3,0.3-0.6-7.6-2.2-4.6c-0.2,0.3,0.5,3.3,0.5,3.4
						c-8.4-6.8,15.9-31.9,19.1-34.1c3.5-2.5,1.1-5.4,4.8-7.2c1-0.5,10-9,11-10.3c5.5-7.5,17.4-11.7,23.1-18.5
						c10.6-13.4,20.6-35.3,23-52.6c1-7.7-27,2.5-27.6,3c-10.4,9.8-18.1-4.4-24.9-5.7c2.9-2.6,1.2-2.4,1.7-5.1
						c4,1.5,26.6-3.6,32.2-5.3c5.1-1.7,21.5-7.4,24.4-12.7c3.1-5.8,6.4-3,10.8-7.2c3.6-3.5,15.3-10.3,20.8-11.7
						c4.8-1.3,11.3-16.5,15.2-22.8c3.9-6.3-15.5-19.1-20.3-22.2c-0.3-14.9-13.5,4.2-18.4,5.6c-3.9-0.1-5.2-2.7-9.6-1.1
						c-7.9,2.8-1.5-7.9-4.7-10.8c-2.9-2.7-5.4,4.2-5.9,5.4c-1.7-4.2,0.5-8.5-3.9-10.7c-2-1-8.2-8.7-8.3-10.8c0-5-3.9-5.1-3.6-9.9
						c0.9,0.1,5.9-1.1,6.1-1.6c1.3-3.9,14.2,8.1,13.6,11.3c-0.4,2,9,12.4,12.5,13.7c6.6,3,11.5,1.7,17.7-0.7
						c10.7-4.2,3.4,1.9,9.9,7.1c12.4,9.9,37.7,2,51.5,2c10.4,0,17.8,25.1,32.5,18.2c-3.5,5.8-13,1.4-7.3,9.3c3.6,4.9,21.7,13,19.5-1
						c0.4,0.3,0.9,0.5,1.4,0.6c-2.7,5.6,0,16.8,1.4,23.4c2.9,17.1,10.3,32.5,17.9,47.4c3.9,7.6,4.6,12.4,10,19.7
						c3.8,5.1,12.9-11.4,14.4-11.9c0.5,0.1,1,0.2,1.6,0.2c-4.1,4.3-3,19.2,0.4,25c1.7,2.9,10.7,0.5,12.3-2
						c4.3-6.8-2.4-13.6-6.5-18.1c-5.5-6.2-4.9-7.5-5.3-16.4c5.7-10.5-3.6-29.1,12.4-30.9c3.1-0.4,24.7-19.9,23.9-20.7
						c10,1.1,11.9-9.9,17.3-14.6c9.5,1.8,15.7,2.2,18.5-8.4c11.2,5.3,4.8,19.9,17.2,18.4c1,4.1-0.1,8.9,3.7,11.7
						c4.7,3.4-1.6,7.3-1,11.9c1,7.6,16.8,4.1,16-3.3c1.2,0.7,5.3,3.2,6.1,4.1c1,6,6.2,16.1,6.5,21.9c0.3,6.2,3.3,8,3.2,13.8
						c0.1,0-2.4,9.3-3.5,11.2c-3.7,6.6,12.1,13.4,12.1,21.2c0,5.3,3.1,21.5,8.3,23c-0.6,0-0.9,0.3-1,0.8
						c-0.8-1.9-13.9-8.1-14.2-11.4c-0.8-8.4-30.8-19.3-28.5-8.7c2.3,10.7,25.3,16.9,25.7,27.5c0.4,11.1,18.3,21.6,21.5,32.9
						c2.9,10.5,16.7,11.8,23.7,10.5c-18.9,12,26.4,14,29.7,15.5c0.6,0.3,37.5,11,34.6,1.3c0.2,0.6-7.9-1.2-7.8-1.3
						c1.9-5.9-5-5.2-9.5-5.2c0.8-1.2,0.8-2.2,0.1-3c-1.1-0.3,10.3,3.3,7.1-1.4c-0.8-1.1-23.3-2.9-22.6-3.5c-7,6.2-21.6-4.2-31.2-2.7
						c-0.6,0.4,1.6-15.6,1.9-15.3c10,2.9-8.3-19.9-6.8-5.7c-3.8,0.2-1.6-8.1-9.4-9c3.1-4.1-3.1-15.9-6.8-13.5
						c-1.5-2.4,2.4-1.3,0-3.4c18.2,12.2,5.9-27.1-0.6-29.3c-6.4-2.1-11.1-15.3-16-15.2c-2.2-5.4-4-4.5-1.9-11.5
						c-0.9,2.8,5.7-19.5,3.2-17.7c7.7-5.5,18.9,17.1,22,15.1c0.1,0.1,9.7,14.9,7.3,14.4c3.8,0.9,8.3-4.2,7.3-6.4
						c3.3,2,5.6-3,1.8-4.2c-2.4-0.1,9.6,1.5,6.8-1.9c15.4,6.1,14.9-20.3,12.8-27.2c-2.3-7.4-7.6-9.2-11.4-15.5
						c-1.3-5.5-10.5-6.3-10.5-14.2c0-9.4,15.1-17.2,23.9-17.2c-2.9,11.4,10.1,11.5,5.9,4.3c6.2-2.8,18.2-4.9,21.6-10.3
						c11.1,5.2,14.6-5,21.5-7.8c2.3-0.9,23.4-15.2,15-18.5c0.8-1.1,14-14.8,14-14.5c-0.8-3.8,3.7-7.8,2.4-9.7c6-4.2-7.2-4.8-7-4.4
						c9.3-4.7,3.1-5.2,3.5-12.3c-0.3,0.6-8.4-11.4-8.9-11.5c1.3-1.1-3.7-5.5-3.5-5.1c-3.6-7.2,1.4-5.3,4.3-8.5
						c1.3-1.4,17.6-11.9,16.6-13.7c0.6-0.4-12.3-3.5-14.9-3.5c-11.7,0-8.4,11.1-18.1-5.9c2.7-2.3,26.4-17.5,28.7-14.8
						c0.1,5.3-7.9,8.7-5.1,14.7c-0.7-1.5,17-6.8,20.9-6.8c5.6,0,1.4,3.5,3.9,5.7c-3.3,1.6-7.4,5.3-0.6,6.3c-1.8,4.5,3.5,2.8,6.4,2.9
						c7.9,0.3,0.4,4.8,2.1,6.2c0.5,1.8-0.4,20-1,19.6c8.6,6.4,30.8-13.1,18.7-23.8c-1.7-5.1-5.1-11.8-10.7-13.4
						c1.9-5.7,5.1-4.6,8.2-9.3c4.7-1.8,9.1-11.7,4.4-9.3c-1.2-2.6,15.8-13.6,18.5-13.5c-3.4,13.5,17.2,1.8,20.2-2
						c5.4-7.1,24.8-23.1,24.4-31.1c0.1,2.8,8.7-14.3,7.5-12.9c1.3-1.5,4.5-22.6,4.1-24.9c1.1-0.1,2.2-0.1,3.2,0
						c-0.1,0.4,1.7,52.6,0.1,52.2c3.8,0.9,1.8-5.8,7.2-2.1c2.2,5,3.7,2.8,4.2,0.1c1.4-7.9-9.7-13.9-1.2-23.9
						c3.4-3.9,6.1,3.8,8.7,2.1c-5.1,3.3-5-46.4-13.6-41.5c-5.9,2.3,1.9,11.2-8.6,8.1c-3.4-1-13.1-11.6-17.6-6.5
						c-0.6,0.7-3.1,5.4-5,5.7c3.7-2.5-1.4-7.4-4.5-3.7c1.6-8.9-2.5-6.5-9.4-6.8c2.5-6.6,11.1-7.6,15.1-11.6
						c3.3-3.4,4.7-8.8,9.7-12.1c5.1-2.7,24.2-16.2,24.2-20.9c5.7,2.5,41.8,10.2,40.7,0.2c8.9,1.4,12.4-0.9,16.9,3.5
						c-18-0.9,12.4,11.8,8.9,2.8c-0.8-2.3,11.8-2.2,12-3.3c4.6-0.3-1.3-7-4.9-4.1c0.5-8.5,11.7-9.5,16.5-16.6c9-4.6,14.8,1.3,21-1.3
						c-0.2,0.6-5.8,9.4,0.3,6.9c-0.1,0.8-0.9,3,0.1,3.5c4.8,2.3,10.4-13.3,17.3-9.9c-0.4,2,3.5,0.3,4.1,0.3c2.3,0.2-5-12.4,5.5-9.1
						c-0.9,0.3-2.7,2.8-2.8,3.4c-0.2,2.5-0.1,9.2-2.7,11.1c-3,2.1-13.5-1.6-11.9,4.2c1.7,6.1-20.1,14.6-22,21
						c-6-6.2-10.6,10-13.3,10.1c-3.8,0.2-12.3,66.2,14.1,44.9c6.7-5.4-2.2-7.3,7.5-9.6c2.8-0.7,2.1-7.4,5.3-10.1
						c2.4-1,7.5-1,10.4-3.5c6.3-5.5-9.4-13.9,8-14.3c0.8,0,3.8-7.2-3.3-4.6c-0.8,2.2-0.6-9.2,1.3-6c0.9,0,4.2-6.1,0.1-5.9
						c-9.2,0.6-3.5-6.2,0.9-9.3c-6.7,14.5,14.9-10.8,1.1-1c3.3-6.5,8.9-6.7,17-10.5c-2.6,8.4,5.5,5.2,7.4,1.6
						c5.7-11.1,13.1,0.5,18,2c6.1,1.9,18.3-12.9,25.3-14.4c5.1-1.3,35.2-9.9,35.5-9.4c1.2-3.2-7.1-16-12.3-14.4
						c7-6.1,18.4,4,20.2-11c3.3,3.4,23,0.8,20,5.9C1976.7,147.8,1994.1,152.3,1997,151.6z M966,358.1C966,358.1,966,358.1,966,358.1
						L966,358.1z M2003.5,142.1C2002.1,142.6,2006.4,141,2003.5,142.1C2003.4,142.2,2003.8,142,2003.5,142.1z M1767,87.8
						c2.4,1.4,0.1,1.3-6.9-0.2C1764.3,84.9,1764.7,85.6,1767,87.8C1767,87.8,1766.7,87.5,1767,87.8z M1732.8,82.2
						c-0.7,0.1-1.7-4.2,5.1-3.9C1736.3,79.6,1734.6,80.9,1732.8,82.2C1732.1,82.3,1734.8,81.8,1732.8,82.2z M1592.2,63.8
						C1592.3,63.2,1593.1,62.7,1592.2,63.8C1592.3,63.7,1592.3,63.8,1592.2,63.8z M982.7,339.5c-1.8-2.8-17.6-8-3.3-13.9
						c-1.9,0.8,6.5-10.2,6.4-9.8c-0.6,1.5,7.9-15.7,7.9-12.8c0-4.5,18.7,5.3,18.6,2.6c-6.6-1.1-11.7,6.6-2.2,6.6
						c3.1,0-1.8,4.4-0.4,5.5c2.7,2.3,17.4-3.9,20.9-4.6c5.8-1.2,5.6,4.3,11.1,4.6c4.7,0.3,16,15,20.4,15c1.3,11.9-29.3,7-33.2,6.4
						c-4.4-6.5-11.8-6.2-19.5-5.8C1009,333.3,980.3,343.1,982.7,339.5C982.6,339.3,982.9,339.2,982.7,339.5z M981.8,344
						c-1.6,0-3.2,0-4.9,0C986.5,340.4,980.4,341.5,981.8,344C980.3,344,981.5,343.5,981.8,344z M1029.4,309.6
						c-3-0.2-11.2-2.1-12.7-5.7c10.1,2.3,20.8-6.5,31.4-7.7c-3,1.2-17.6,7.1-8.7,8.6C1037.3,307.9,1034.6,309.5,1029.4,309.6z
						 M1113.7,366.8c-1.3-4.7-6-6.9-1.2-9.9c-5.8,3.5,8.1-16.3,8.4-12.2c-0.1-1-18.3-21.3-19.2-22.9c1.9-4.9,1.3-5-4.3-4.8
						c1.8-5.8,3.1-10.5,6.9-14c2.6,2.9,9.9-2.1,14.8-3c8.1-1.7,8.3-7.5,18.7-0.3c1.1,2.5,8.6,6.8,8.5,10.4
						c-0.1,4.7-14.4-4.3-16.1,1.9c-5.2-0.1-7.1-0.9-5.5,4.4c-12.6-1.3,4.5,13.4,9.6,12.8c-3.3,13.1,5.3,3.4,13.3,11.9
						c-0.7,1.2-4.2,1-2.6,2.9c-7.5,0.5-10.4-5.6-10.4,6.4c0,2.4,5.8-2,5,1.3c-1.8-0.3-3.1,0.3-3.9,2c0.6,5,5-0.5,5.3-0.5
						c0.4,1.1,3.5,5.1,3.5,5.7c-0.1-0.9-2.5,8.9-2.7,12.2c-2-2.1-10.1,2.1-13.6,1.3C1123.1,371,1118.2,368,1113.7,366.8
						C1113.6,366.7,1114.6,367.1,1113.7,366.8z M1464.3,33.8C1464.3,35.1,1464.3,35.1,1464.3,33.8
						C1464.3,33.8,1464.3,33.9,1464.3,33.8z M1177.6,325.3c0-0.5,0.1-1.1,0.3-1.7C1177.8,324.1,1177.8,325,1177.6,325.3z
						 M1645.2,312.4C1645.6,311.6,1643.2,315.8,1645.2,312.4C1645.2,312.3,1645,312.7,1645.2,312.4z M1625.4,80.3
						C1624.1,81.2,1627,79.3,1625.4,80.3C1625.3,80.4,1625.6,80.2,1625.4,80.3z M933.5,363c0.9-1.4,2.5-1.3,4.7,0.5
						C937.1,363.5,932.2,364.9,933.5,363C933.5,362.9,933.4,363.1,933.5,363z M1608.3,70.7C1608.3,70.7,1607.9,72.9,1608.3,70.7
						C1608.3,70.7,1608.2,71,1608.3,70.7z M1592,64.9C1592.9,64.1,1590.8,66.1,1592,64.9C1592.1,64.9,1591.9,65,1592,64.9z
						 M1069.1,530.3c-4-6.8-9.6-9.6-15-15.6c-5.9-6.7-7.1-15.2-15.7-23c-2.1-1.9-4.4-17.5-4-19.1c1.2-5.1-5.6-3.8-7.4-7.1
						c-2.4-6.7,1-8.3-3.9-13.8c-2.9-3.3-10.6-15.9-10.4-20.4c1.6,1.2,6.9,2.8,6.7-0.9c6.5,3.2,6.5,10.5,12.7,13.9
						c4.4,2.4,1.5,6.6,4.1,10.3c2.2,3.2,7.6,3.8,8.8,7.9c0.9,3.1-4.4,9.7,1.1,12.1c0.9,12.7,12.2,10.5,13.6,20.9
						c0.9,6.8,12.3,8.6,9.4,16.4c-2.7,6.9,2.9,15.4,4.7,21.3C1072.2,532.4,1070.6,531.5,1069.1,530.3
						C1068.8,529.8,1069.6,531.3,1069.1,530.3z M1933.7,146.6c-7.3,0.5,3.3-0.1,3.9-0.1C1936.4,146.5,1935.1,146.5,1933.7,146.6
						C1932.8,146.6,1935.1,146.5,1933.7,146.6z M1616.7,71.8C1619.8,71.3,1614.4,72.1,1616.7,71.8
						C1617,71.7,1616.5,71.8,1616.7,71.8z M1610.2,68.4C1610.3,69.3,1610.2,69.4,1610.2,68.4C1610.2,68.5,1610.2,68.6,1610.2,68.4z
						 M1601,67.1c-1-1.2-2.4,0.2-1.8-2C1603.1,64.2,1600,64.7,1601,67.1C1600.9,66.9,1601,66.9,1601,67.1z M865.9,228.6
						c1.5,1.2,2.5,3.8,4.7,3.9c-3.6,0.7-6.3,5.6-0.9,5.6c4.3,0,11.3-7,3.2-6c2.7-0.9,15.8-5.7,15.6-6.9c-1-5.9,7.2-3.3,9.6-3.3
						c7.6,0,7.4-8.4,4.6-6.3c0.2-4.7,0.9-17.4,6.6-16c5.2,1.3,9.7-5.3,10.9-7.7c1.2-2.4-2.4-5.5-3.4-6.4c-7.1-6.8-7.9-0.4-7.8-11.3
						c0-3.7,0.3-6,0.1-8.9c2.5-0.5,8.7-5.2,8.9-8.2c0.3-4,13.2-5.2,16-8.6c-4.3,0,7.7-17.9,7.9-16.9c2.8-0.7,22.4,2.9,14.6,8.7
						c-4.7,3.5-14.8,11.2-17.6,15c-8.7,11.5-1.7,22.2,6.5,26.4c-5.2,0.3-3.6,6,1.8,3.4c2.3,1.1,20.2,1,17.1-3.4
						c4.5-0.7,8.2,0.8,12.5-0.6c-3.3,4,9.8,4.7,11.1,4.9c0.3,0.4,0.6,0.8,0.8,1.2c-5.1,0.6-11.8-0.5-12.8,5.2
						c-11.6-0.6-16.2-1.6-27.5,1.7c-0.6,0.2,1.9,15.7,0.6,18.6c-2.4-0.2-16.4-12-14.4-1c-0.1-0.7-7.9,18.9-5.7,18
						c-5.8-3.3-5.3,2.9-8,7.1c0.1-3-5.7,1-6.2,1.2c-3.4-8.3-21.2,4.9-32.2,1.4c0.2,0-15.3-2.7-14.2,1.6c-1.5-2.5-5.2-2.9-7.8-5.3
						c-3.6-3.5,6.1,0.4,6.1,0.2C866.8,231.9,863,226.3,865.9,228.6C866.2,228.8,865.6,228.3,865.9,228.6z M1479.7,641.8
						C1479.7,641.8,1479.7,641.8,1479.7,641.8L1479.7,641.8z M1957.5,137.6c-2.2-0.5-2.4-4.6,0.1-5
						C1957.4,134.1,1956.7,136.2,1957.5,137.6C1957.4,137.6,1957.2,137,1957.5,137.6z"/>
					<path fill="#F7D9D9" d="M1388.6-10.1c-5,13,7.7,7.6,13.9,8.4c0,0.6,17.3,4.1,19.9,4.2c8.7,0.9,13.5-2.4,19.6-5.9
						c0.8-0.4-2.3-9.9-7.2-3.3c-0.4,0-0.7-0.1-1.1-0.1c0.6-2.4-2.6-8.1-4.3-5.1c0.1-4.4-8.8-16.3-14.6-12.6
						c-3.1,2-20.6,11.9-20.3,13.1c0.3,1.2,15.6,2.9,15.7,2.9c-2.1,1.3-4.9,2.8-7.3,4.4C1405.7-9.6,1389.2-12,1388.6-10.1z"/>
					<path fill="#F7D9D9" d="M1442.3,2.7c-0.1,0.1-5.3,9.7-6,8.2c1.1,2.1,25.4-3.8,28.1-4.4c15.3-3.4-6.3-13.2-10-10.7
						c2.2-3.9-4.2-3.2-4.3-2.6C1446.8-5.5,1445.4-1.7,1442.3,2.7z"/>
					<path fill="#F7D9D9" d="M1132.3,69c0.8,1.6-3.9,0.1,0,2.7c-9.2,1.2-5.9,14.1,1.1,7.4c3.5,1.1,1.9,0,5.7-0.1
						c-0.7,2.8,0,4.3,2.2,4.5c-1.2,0.2-3.1,5.1-3,5.4c0.1,0.6,25.2,7.1,22.8-1.6c0.5-0.1,1-0.1,1.5,0.1c-0.1,0,7.1,3.8,7.7-1.9
						c0,0.1-24.1-7.3-13.3-13.9c-1,0.6,9.4-21.8,9.7-20.6c3.1,0.5,3,2.3,5.2-2.1c4.4-2.4,6.1-2,11.2-4.1c3,0,5-4.8,9.7-4.6
						c6.1,0.2,11.4-1.7,16.4-3.6c8.5-1.9,24.5-0.4,21.1-11.9c-1.4-1.6-3.3-3.3-6-2c-4.8,2.2-26.4,5.3-28.4,8.1
						c-13.3,0-28.1,8-41.3,8c-0.7,0-5.7,5.9-7.6,6.6c-6.5,2.1-14.7,6.1-6.3,10.3c-3.3,3.4-1.8,0.9-0.1,3.5
						C1137,61.3,1129.6,63.7,1132.3,69C1132.3,69,1132.1,68.7,1132.3,69z M1144.3,83.2C1141.3,83.8,1144.3,82.6,1144.3,83.2
						C1143.9,83.3,1144.3,83.1,1144.3,83.2z"/>
					<path fill="#F7D9D9" d="M1250.4,61.2c3.3-0.8,6.9,0.3,5.4-5.2C1253.8,48.9,1242.9,61.2,1250.4,61.2z"/>
					<path fill="#F7D9D9" d="M1303.7,62.6c2.2,1.8,5.8,4.9,7.2,0.3C1313.4,54.6,1301.3,61.6,1303.7,62.6
						C1303.8,62.7,1303.3,62.5,1303.7,62.6z"/>
					<path fill="#F7D9D9" d="M1295.1,71.4c0.8,0,15.7-4.2,9.5-5.5C1299.1,64.8,1293.5,71.4,1295.1,71.4z"/>
					<path fill="#F7D9D9" d="M1179.8,98.6c11.5,3.6,3.8-6.1-0.9-9C1171.6,85.4,1173,96.5,1179.8,98.6
						C1180.2,98.7,1179.4,98.5,1179.8,98.6z"/>
					<path fill="#F7D9D9" d="M1109.6,103.5c0,8.2,9.9-3.4,10.1-3.7C1119.1,100.8,1109.6,92.5,1109.6,103.5z"/>
					<path fill="#F7D9D9" d="M363.5,498.8c-5.9-0.4,10.3,12.3,9.9,2.3C373.2,498.9,361.7,498.7,363.5,498.8
						C363.1,498.8,373.3,499.4,363.5,498.8z"/>
					<path fill="#F7D9D9" d="M930.1,86.7c-3.8-3.9-2.4,2.9-1.9,2.5C929.3,91.2,931.1,87.8,930.1,86.7
						C929.6,86.3,930.5,87.2,930.1,86.7z"/>
					<path fill="#F7D9D9" d="M923.5,85.4c-4.3-1.1,2.3,8.7,3.2,3.1C926,86.8,924.9,85.7,923.5,85.4
						C923.5,85.4,923.5,85.4,923.5,85.4z"/>
					<path fill="#F7D9D9" d="M946.8,83c-1.2,0.9-2.5,1.9-3.7,2.8C942.7,96,955.3,81.7,946.8,83C944.6,83.3,947.7,82.8,946.8,83z"/>
					<path fill="#F7D9D9" d="M894.1,108.4c-1.5-1.3-6.4,1.3-5.6,3.3C889.6,114.9,897.1,111.1,894.1,108.4
						C893.6,107.9,894.7,108.9,894.1,108.4z M890,110.7C890,110.8,890,110.7,890,110.7C890,110.7,890,110.7,890,110.7z M890,111.7
						C890,111.7,890,111.7,890,111.7L890,111.7z"/>
					<path fill="#F7D9D9" d="M896.4,112c1.8,2.8,11.6-4.7,10.4-7.7c-0.6-1.5-14.1-1.4-14.5,0.3C892.3,104.6,896.1,111.6,896.4,112z"
						/>
					<path fill="#F7D9D9" d="M885.7,110.7c-4.7-0.9,2,7.7,2.7,2.4C888,111.8,887.1,110.9,885.7,110.7
						C885.4,110.7,886.9,110.9,885.7,110.7z"/>
					<path fill="#F7D9D9" d="M980.7,4.9c-1.3-0.3,10,0.7,10.4-1.8C992.6-5,975,4.9,980.7,4.9z"/>
					<path fill="#F7D9D9" d="M913.9-11.5c1.6,0.3,3.1,0.4,4.7,0.5c-2.5,4.5-4.7,5.5,3.9,5.2c-7.8,4.8,18.7,6.2,22.8,7.2
						c2.2,0.5,35.4-5.5,30.4-13.4c-1.6-2.7-11.6-2-13.7-1.6c0.3-0.4,1.3-1.1,0.7-1.8c-1.6-1.7-5.8,2.3-7.7,2.8
						c1.2-2.1-4.6-8-4.4-2.1c-0.6-0.5-7.3,0.7-10.3-0.3c-7.2-2.2-18.7-7.8-18.2,2C919.4-13.8,909.4-12.7,913.9-11.5
						C915.1-11.1,913.4-11.6,913.9-11.5z M927.9-5.2c-1.4,0.2-2.7,0-4-0.6c5.6-3.6,8.9-3.6,9.7-0.1C931.7-5.6,929.8-5.3,927.9-5.2
						C927.6-5.2,929.2-5.3,927.9-5.2z"/>
					<path fill="#F7D9D9" d="M952.8,79.4C948.2,74.8,957.1,83.6,952.8,79.4C952.3,78.9,953.2,79.8,952.8,79.4z"/>
					<path fill="#F7D9D9" d="M870.4,2.9c0.2,0.9,2.2,7.3,5.1,4c1.3-1.5-1.4-4.2-2.1-5.2c5.5,2.1,2.2,10.2,10.6,7.2
						c2.7-1.1,4.2-2,6.3-4.7c3.5,1.3,4.3,3.5,10.6,4.2c-4.6,0.6-13.2-0.6-16.3,0.8c-9.9,4.5,3,5.4,7.4,5.6c-3.2,2-10,1.3-8.5,6.6
						c0.5,1.8,11.4,6.3,14.1,5c1.3,7.7,6.8,4.5,6.8-0.7c3-1.5,10.1-2.1,12.7-4.8c3.6-4.4-0.8-12,7.1-12.4c-5.2,2.9,4.5,6.1,5.4,6.3
						c-13,10.8,18.7,7.9,22.5,7.3c6.6-1-10.9-9.2-16-8.4c0.3-4.9-18.2-15.8-22.5-16.7c3.3-5.3-21.5-18-18.6-0.4
						c-9.5-9.8-4.6-2.5-11.6-3.2c1.7-0.3,2.7-1.2,2.9-2.6c-4.6-12.6-19.3,10.3-12.4,5.4c-0.3,1.5-1.5,2-1.6,4.3
						c-0.3-1.3-1-2-2.2-2.2C868.9-0.5,869,1.1,870.4,2.9C870.7,4.1,870.2,1.9,870.4,2.9z"/>
					<path fill="#F7D9D9" d="M970,4.1c-2.2,1.7,3.5,6.8,4.3,3.3C974.7,5.8,971.6,2.9,970,4.1C969.7,4.4,970.4,3.9,970,4.1z"/>
					<path fill="#F7D9D9" d="M1162.2,754.9c-5.2,0.6-2.5,6.7,1.2,6.7C1165.9,761.6,1167.5,754.3,1162.2,754.9
						C1159.9,755.2,1164,754.7,1162.2,754.9z"/>
					<path fill="#F7D9D9" d="M1115.7,708.9c-6.9-11.4-15.8,6.9-14.9,10.1c-5.5,4.6-9.6,6.9-16,10.1c-19.9,7.5-1.2,22.3-9.6,27.5
						c-4.2,2.6-9.1,12.8-7.1,17.9c2.9,7.4,7.8,20,17.1,20c12.7,0,15.9-19.1,19.9-28.5c1.8-4.2-0.3-9.4,1.9-12.2
						c2.4-3,5.2-6.1,5.9-10.1c0.6-4.3,4.1-9.1,1.7-13.9C1122.4,730.9,1117.8,712.3,1115.7,708.9
						C1115.3,708.1,1117.5,711.7,1115.7,708.9z"/>
					<path fill="#F7D9D9" d="M294.7,504.7c1.9,0.3,9.1-0.3,9.1-3.5C303.9,491.1,273.1,501.4,294.7,504.7
						C295.2,504.8,294.2,504.7,294.7,504.7z"/>
					<path fill="#F7D9D9" d="M847.6,343.3c2.2,12,8.3,21.8,12.1,5.8C860.9,336.4,847.3,341.4,847.6,343.3
						C847.9,344.7,847.6,342.9,847.6,343.3z"/>
					<path fill="#F7D9D9" d="M729.6,257.1c4.9,6.1,8.1,2.5,14.6,0.5c3.6,0,12.1-3.7,11.4-8.7c-1.7-12.4,3.3-5.2,5.9-11.4
						c3.4-7.9-13.2-9.2-16.6-9.3c-2.1-0.1-15.1,12.6-10.5,11.4c0,0.2-0.1,0.4-0.1,0.7c-7-0.5-4.4,6.1,1.6,6
						C733.8,249.7,728.5,254.9,729.6,257.1z"/>
					<path fill="#F7D9D9" d="M1489.9,598.5c5,0-0.5-8.2-2.4-3.4C1487.6,597.1,1488.4,598.2,1489.9,598.5z"/>
					<path fill="#F7D9D9" d="M1514.6,643.3c0-0.5,21.4,2.9,20.5,3.3c10.6-4.5,10.3-9.8,14.5-15.7c0.9-2.3,1.5-10.3,3.4-11.6
						c1.1-0.8,10.7-1.6,5.1-5.2c-8.1-5.1-3.6-12.2-6.9-17.2c0.4,0,11.3-5.9,11.3-7.3c0-4.6-6.4-4.3-8.2-6.3
						c-6.4-7.1-14.7-6.6-17,8.2c-0.9,0.1-8.2,1.5-9.7,3.8c-5.6,8.2-16.1,6.1-17.7,16.5c-15-6.7-18.1,7-13.1,18.9
						c1.3,1.1,2.8,1,4.4-0.4c1.7,3.1,2.3,7.6,3.6,10.9C1505,641.9,1516.8,643,1514.6,643.3z"/>
					<path fill="#F7D9D9" d="M1438.3,638.3c-2.3,0-0.3,3.5,1,3.5C1441.1,641.8,1440.9,638.3,1438.3,638.3z"/>
					<path fill="#F7D9D9" d="M1434.9,631.1c-5.2-2.6-6.4-3.7-4.7,3.4C1430.8,636.9,1439.7,633.5,1434.9,631.1
						C1434.6,630.9,1436.2,631.7,1434.9,631.1z"/>
					<path fill="#F7D9D9" d="M1486.1,643.9c3.1,2.7,5.6-1.8,6.8-3.4C1495,637.5,1478.8,637.6,1486.1,643.9
						C1486.3,644.1,1485.9,643.7,1486.1,643.9z"/>
					<path fill="#F7D9D9" d="M1423.4,611.1c-0.4-0.8-4.3-0.8-4.9-0.2c-1,1,5.9,8,7.7,5.4C1427.3,614.7,1424.2,612.4,1423.4,611.1
						C1423.3,610.8,1423.6,611.3,1423.4,611.1z"/>
					<path fill="#F7D9D9" d="M1412,601.7c-4-1.5,1.2,6.9,2.3,2.7C1414,603.1,1413.2,602.2,1412,601.7
						C1411.6,601.5,1412.6,601.9,1412,601.7z"/>
					<path fill="#F7D9D9" d="M682,152c6.8,2.5,21.3-6.4,25.8-9.1c4.9-3-1.7-7.8-3.8-9c-5.5-3.1,0.6-3.3-0.4-5.9
						c0.3,0.8-13.9-4.2-13.8,1.4c-3.3-0.4-13.1,0.4-12.2,3c1.1,0.3-9-8.9-8.5,0.3c-3.5-5.5-3.9-3.1-4.7,2.4c-0.9-0.1-3.3-0.4-4,0.4
						c3.9-12.3-20.6-6.5-9.6-6.8c-1.9,0.9,1.9,3.4,2.1,3.5c-3.1-1.1-14,2.1-13.6,5.5c0.7,5.2,11.2-1.5,12.5-1.6
						c-1.3,1.1-1.7,2.1-1.1,3.2c-1.6-0.1-8.6,1.8-9.2,2.9c-1.9,3.1,12.2,3.3,13.8,4.9c-1.4,0.3-5.7,0.2-6,1.9
						c-0.9,4.4,14.8,2.9,16.9,3.4C656.5,153.3,686.3,160.6,682,152C682.9,152.4,682.1,152.4,682,152z M660.1,135.8
						C659.5,137.3,659.4,136.6,660.1,135.8C660.1,135.9,660,136,660.1,135.8z"/>
					<path fill="#F7D9D9" d="M639.8,100.2c3.1-0.3,20.6-7.9,18.3-11.1c3.6,1.2,5.3-3.7,2.4-3.7c2.4-3.8-2-11-6.5-10.7
						c0.1-0.1,0.2-0.3,0.2-0.4c2.3,0.9,4.4,0.7,6.3-0.7c1.4-6.5-3.2-11.2-11.5-14c6.6,0.3,25.9-2.1,15.8-11.3
						c12.7,1.7,16-3.4,1.8-2.1c1.6-3.7,11.6,0.1,2-5.3c11.8,3.4-5.7-19.7-5.1-18.6c4,0.3,20.6,7.3,17.5-2.9
						c-1.2-4-10.4-4.5-12.9-5.1c1.3,0.3,5.3,1.8,6,0c1.1-2.8-4-4.4-5.4-4.5c3.5-2.5,6.3-10.2,6.3-14.5c3.2-0.1,13-0.7,12-6.1
						c-1.4-8.2-16.9,0.8-18-2.4c-0.3-0.3,28.8,1.5,28.8-5.4c1.1-0.5,20.8-10.8,20.8-10.9c-5.1-12.3-35.1-0.9-43.5-0.8
						c-6.1,0-4,0-7.5-2.1c-2.3-1.3-4.6,4.2-7.3,3.9c-4-0.5-15.3,9.3-19.6,3.7c-0.3,0.2,21.8-9.7,15.4-10.2c-7.8-0.5-10.7-2-14.3,2.7
						c-6.3,8.5-11.1-2.9-13.4-3.5c5.3-0.9,38.8,3.3,38.6-5.6c-0.1-3.8-21.8-6.2-25-5.6c-1.4-0.5-1.1-5.3-4.7-5.9
						c-4.2-0.8-6.1,2.9-10.3,3c12.1-7.8-27.2-7.1-32.6-7.4c-2.1-3.5-44.8-0.4-44.8,3.4c-3-0.6-19.2,4.3-18.3,7.7
						c-0.4-0.1-20.5-12.1-20.5-3.4c0.2-0.1-4.4,8.2-4.4,8.2c-17.6-6.8-19.6,3.3-2.4,12c-9.7,0.5-7.3,2.9-15-6.1
						c-2.3-2.7-12.9-9.2-16.8-6.9c-9.2,0,11.3,18.2-10.6,11.3c1.6,0.3,5.5,2.3,6.6,0.7c2.6-3.7-17.8-9.5-18.8-8.4
						c-0.2,2.7,1.5,4.5,5,5.3c-2.2,0.4-3.9,1.8-5.1,4c-1.2-20.2-37.6,0.8-49.2-4c-0.1,0-5.7,7.6-10.6,7.6c-4.9,0-28.9,5.2-29.5,9.9
						c-0.9,6.8,13.6,4.9,20.3,3.5c-2.9,3.8,3.2,6.4-6.3,10.5c-6.9,3-17.8,0.9-25.1,1.9c-34.6,1.2-10.6,14.4,4.7,16
						c-1.3,0.1-20.3,2.9-20.5,3.3c-3.6,5.1,9.6,6.2,9.5,6.1c-2,0.7,17.5,15.2,16.7,3.3c6.8,0.7,22,4.2,27.8-2.3
						c1.9,0.3,11.3,2.2,16.9,3.5c10.4,2.5,14.6,9.2,23.5,15c-0.9,0.1-4.1,1.1-3.9,2.7c0.4,3,8.3-0.2,6.4-2.3c0.5-0.1,1-0.1,1.4-0.1
						c2.5,3.3-5.9,4.1-5.2,5.9c-1-2.1,8.8,3.4,9.4,3.9c-0.8,0.5,3.2,7.3,5.6,7.3c-0.3,3.8-9.1,6.8-7.7,13.1c1.5,7,11.1,1.7,12.3-2
						c6.3,2.8,11.9,5.7,19.7,6.5c-2,1.8-2.7,5.2-1.4,7.2c-3.7-1-22.1-10.2-23.9-3.1c-1.1,4.4,5.9,3,6.5,4.8
						c-9.2-1.1-14.4,10.4-2.3,10.9c-1.1,0-3.3-0.7-4,0.4c-3.4,5.3,14,2.3,15.5,1.2c8.9-4.3,1.8-6.7-5.4-11.8
						c4.9,3,11.4,4.8,17.3,3.8c-1.2,4.3-3.5,7.3,2,7.1c-2.2,5.3-5.8-1-3.8,8.8c-7-0.8-20,5.8-16.1,12.6c-3.4,2.5,0.9,4.4,2.6,5.7
						c-0.1,4.4-8.7,6.8,0.2,7.9c-0.4,0.6-1,1-1.9,1c-0.8,2.6,5.4,1.6,6.6,1.6c-0.4,10.4,2.6,10.3,10.6,8.2
						c-4.1,1.7-12,10.9-1.5,10.6c-2.7,3.5,4,8.6,6.7,7.7c-0.5,6.1,2.5,2.4,5.7,1.5c-2.3,7.2,10.6,17.3,18.9,10.9
						c-0.1,5.5,5.9,4.5,9.3,4c-0.8,1-1.4,2.1-1.6,3.3c1.7,0.3,3.4,0.7,5.1,1.2c-6.2,3.2,9.4,1.6,8.9,1.7c2-0.5,4.1-6.6-0.5-7.6
						c4.6-4.2,6.2-14.2,7.3-19.1c5.9,3.5,11.4-14.8,8.4-20.1c1.4,0.4,7.1-1.7,5-3.8c10-0.4,17.5-2.4,24.9-1.6
						c1.1,0.1,14.7-14,17.7-15.6c2.1-1.2,9.3-2.1,5.9-6.7c5,2.1,10.9,2.1,13.1-0.8c3.4,1.6,26.2-1.2,26.1-7.1
						C628.9,105,638.6,101.7,639.8,100.2C640.2,100.2,639.7,100.4,639.8,100.2z M597.8-36c7.7-1.4,15.3-1.2,23.1-0.4
						C613.3-35.8,604.1-36.1,597.8-36z M581.3-30.6C582.8-32.6,580.5-29.4,581.3-30.6C581.4-30.7,581.2-30.4,581.3-30.6z
						 M578.8-49.4c-0.1-0.2,1.1,2.7,1.2,2.7C578.5-47.1,578.1-47.9,578.8-49.4C579-49,578.5-48.9,578.8-49.4z M635.3,60.6
						C635.3,60.7,634.4,58.8,635.3,60.6C635.3,60.6,635.2,60.3,635.3,60.6z M631.7,76.5C636.5,77.9,632.3,77.6,631.7,76.5
						C632.4,76.7,631.8,76.7,631.7,76.5z M618.7,82.1C619.3,81.3,625.5,81.6,618.7,82.1C618.8,81.9,619.6,82,618.7,82.1z M620,75.8
						C619.7,75.8,616.5,74.6,620,75.8C619.7,75.8,619.3,75.5,620,75.8z M624.5,75.3C625.5,74.9,631,75,624.5,75.3
						C625,75.1,625.5,75.2,624.5,75.3z M644.9,66.8c1.9,0.7-2.2-0.6-3.9-1.6C656.7,69.5,638.4,64.4,644.9,66.8
						C645.1,66.9,644.4,66.6,644.9,66.8z M639.8,64.1C641.7,67.2,638,61.1,639.8,64.1C640,64.5,639.7,64,639.8,64.1z M646.7,88.8
						c-7-3.2-9.3,1-15.9-0.6c0.3-0.5,0.2-1-0.2-1.6c4.1-0.4,7.5-4.4,5.8-8.7c7,2.1,8.7,10.2,17.8,10.9
						C651.7,89.1,649.2,89.1,646.7,88.8C646.6,88.7,648.9,89.2,646.7,88.8z M663,27.7C660.6,28.1,662.1,27.5,663,27.7
						C663,27.8,663,27.7,663,27.7z M667.2,9.6c-2.6-0.4-5.3-0.6-7.9-0.7C661.7,5.6,664.1,9,667.2,9.6z M683-19.8
						c-1.2,0-2.3,0-3.5-0.1c2.3-0.6,4.7-0.8,7.1-0.7C685.4-20.3,684.2-20.1,683-19.8z M467.7,118.4
						C467.5,115.8,469.2,115.8,467.7,118.4C467.6,117.9,468.3,117.3,467.7,118.4z M460.6,118.8C455.4,118.3,459.7,117.8,460.6,118.8
						C459.8,118.8,460.4,118.6,460.6,118.8z M467.1,112.5C468.6,111.8,460.1,115.7,467.1,112.5C467.2,112.4,466.2,112.9,467.1,112.5
						z M363.8,15.3c2-0.2,4-0.4,6-0.6C368.9,15.1,357.8,16.1,363.8,15.3C365.8,15.1,363.2,15.4,363.8,15.3z M469.4,145.5
						C469.5,145.9,467.1,146.1,469.4,145.5C469.4,145.6,469.1,145.6,469.4,145.5z M667.3,40.8c-3.5,2.9,0.2,0-3.4-2.5
						C665.7,38.3,669.5,39,667.3,40.8z M469.9,161.4C470.6,160.2,471.5,160,469.9,161.4C469.9,161.4,470.3,161.1,469.9,161.4z"/>
					<path fill="#F7D9D9" d="M328.9,15.2c-0.8-0.1,6.9,4.5,4.1-0.4C331.9,12.8,327.4,14,328.9,15.2z"/>
					<path fill="#F7D9D9" d="M673.9,40.7c0,3.4,12.2-0.8,11.7-2.6c0-0.1-8.1-5.2-8.6-4.3C674.9,37.7,673.9,34.1,673.9,40.7z"/>
					<path fill="#F7D9D9" d="M672.4,26.3c0.3,2.5,1.4,4.1,3.4,5C682.3,31.4,669.9,20.3,672.4,26.3C674.1,30.5,672.2,26,672.4,26.3z"
						/>
					<path fill="#F7D9D9" d="M450.4,80.7c1.3,0.5,2.3,0.2,3.2-1C454.6,73.2,443.6,78.2,450.4,80.7C451,80.8,449.8,80.5,450.4,80.7z
						 M451.8,80C451.8,80,451.8,80,451.8,80L451.8,80z"/>
					<path fill="#F7D9D9" d="M954.2,358.5C954.2,361.8,954.2,355.3,954.2,358.5C954.2,359.1,954.2,358,954.2,358.5z"/>
					<path fill="#F7D9D9" d="M962.9,383c-4-0.1-27.7,0.4-11.1,3.5c2.5,0.5,10.9,3.3,12.9,1.2C965.6,386.9,964.1,383.1,962.9,383
						C957.4,382.9,963.5,383.1,962.9,383z"/>
					<path fill="#F7D9D9" d="M858.2,333.2c4.8-7-15.4-12.4-7.5,5.4C853.5,345,858.6,332.7,858.2,333.2
						C859.3,331.6,857.9,333.6,858.2,333.2z"/>
					<path fill="#F7D9D9" d="M1152.5,764.3c2.6-6.7-9.1,1.7-6.1,1.1C1146.3,765.7,1152.1,769.7,1152.5,764.3
						C1152.5,764.2,1152.5,764.5,1152.5,764.3z"/>
					<path fill="#F7D9D9" d="M924.6,189.1c5.3,2.4-2.9-6.7-2.5-6.2C922.7,183.6,916.1,185.2,924.6,189.1
						C924.8,189.2,924,188.8,924.6,189.1z"/>
					<path fill="#F7D9D9" d="M422.2,984.9c-7.7-1.3-7-2.4-14.2,3.1c0.2-0.4,2.2-4.4,2.4-3.8c-3.1-8.8-13.1,3.8-12.2,6.1
						c1.5,3.7,16.6,0.8,17.3-1.4C416.5,988.8,427.2,985.7,422.2,984.9C420,984.5,422.7,984.9,422.2,984.9z"/>
					<path fill="#F7D9D9" d="M940.8,205.4c5.3,0,8.4-6.2,1.1-6.7c7.9-4.9-3.8-7-4-3.9c0,0.5,2.1,3.8,2.4,3.9
						C934.4,199.4,935.4,205.4,940.8,205.4z"/>
					<path fill="#F7D9D9" d="M850.6,599c2.1-2.3-1.5-5.4-4-2.8C844,598.8,849.2,600.6,850.6,599C850.8,598.8,850.5,599.2,850.6,599z
						"/>
					<path fill="#F7D9D9" d="M198.7,620.8c-2.1-3.4-2,6.3-1.5,6.1C195.5,627.6,205.8,632.6,198.7,620.8
						C198.4,620.4,199.3,621.9,198.7,620.8z"/>
					<path fill="#F7D9D9" d="M340.3,501.5c1.5,0.7,15.3-2.9,15.3-1.8c0-7.1-29.8-15.1-33-9.3c0.7-1.3,3.1,8.5,4.5,6.9
						c-0.1-0.3-22-0.8-10.3,5C327.1,502.2,336.4,505.3,340.3,501.5z"/>
					<path fill="#F7D9D9" d="M1001.6,386.8c-2.9,5.1,21.4,2,17-5.7C1018.1,380.3,1002.6,384.9,1001.6,386.8
						C1001.3,387.3,1001.7,386.5,1001.6,386.8z"/>
					<path fill="#F7D9D9" d="M258,479.1c0.5,2.7,6.7-1.7,6.3-3.9C263.2,469.9,257.6,477,258,479.1
						C258.1,479.5,257.9,478.3,258,479.1z"/>
					<path fill="#F7D9D9" d="M314.9,489.3c3.4-0.3-13.5-10.3-15.3-11.4c-10.6-6.7-39.4-20.1-48.8-5.1c-5.4,8.5,5.3,1.5,5.6,1.5
						c8.5-4.2,5.2-2.6,12.4-0.5c10.3,2.9,17.5,6.3,26.6,12.6C288.2,497.4,309.2,489.8,314.9,489.3
						C315.2,489.2,311.5,489.6,314.9,489.3z"/>
					<path fill="#F7D9D9" d="M1510.3,496c2.5-8.5-5.2-6.9-12.9-2.7C1485.9,499.6,1505.4,512.9,1510.3,496
						C1510.4,495.7,1509.2,499.8,1510.3,496z"/>
					<path fill="#F7D9D9" d="M318.7,927.5c-3.8-3.9-2.4,2.9-1.9,2.5C317.9,931.9,319.7,928.5,318.7,927.5
						C318.2,927,319.1,927.9,318.7,927.5z"/>
					<path fill="#F7D9D9" d="M288.5,107c1.4-7.1-9,0.3-5.7,0.6C282.9,109.4,288.3,108.3,288.5,107
						C288.7,106.2,288.4,107.8,288.5,107z"/>
					<path fill="#F7D9D9" d="M263.2,159.2c0.3-0.9-16.4,3.1-15.1,7.3C249.7,171.4,266,162.2,263.2,159.2
						C263.3,159,263.4,159.3,263.2,159.2z"/>
					<path fill="#F7D9D9" d="M374.3,171.8c-4.8,0,4,8.3,4,1.7C377.7,172,376.4,171.4,374.3,171.8z"/>
					<path fill="#F7D9D9" d="M397.7,291.3c1.3,0,3.6-2.6,3.1-3.9C399.5,284.2,393.9,291.3,397.7,291.3z"/>
					<path fill="#F7D9D9" d="M438.5,257.7c1.4-2.9-5.7-3.9-8.3-0.3c-4,5.6-8.1,14.7-11.6,21.3c-2.7-0.2-9.1,16.4,0.8,9.9
						c7.3-1.4,19.6,0.6,24.1,2.2c-0.6,0.5-2.9,0.9-2.8,1.9c0.3,6.4,9.2-3.5,10.2-4.4c0.7,0.5,3.3,11,4.6,5.4c0,6.2,10.3-2.2,7.8-8.6
						c-1.4-3.4-4.9,2-7.1-0.5c0.8-0.8,3.7-2.6,2.5-3.8c-1.1-1.1-4.7,0.4-6.1,0.8c-2.4-11.1-7.6-4.6-16.3-7.1
						c3.9-2.6-1.5-7.3-5.3-3.8C430.7,265.6,436.8,260.9,438.5,257.7C438.5,257.7,438,258.7,438.5,257.7z M435.8,255.9
						C435.4,257.9,435.6,255.8,435.8,255.9C435.8,255.9,435.7,255.9,435.8,255.9z"/>
					<path fill="#F7D9D9" d="M398.4,278.6c1.5-3.6-19.3-11.5-19.3-8C377.3,271.9,396.3,283.7,398.4,278.6
						C398.8,277.8,398.3,278.8,398.4,278.6z M396.9,277.5C396.8,278,396.9,277.5,396.9,277.5C396.9,277.5,396.9,277.5,396.9,277.5z
						 M396.9,278.5L396.9,278.5L396.9,278.5L396.9,278.5z"/>
					<path fill="#F7D9D9" d="M438.2,291.8c-3-0.9-0.2,4.8,0.2,5C442,297.9,441.4,292.7,438.2,291.8
						C437.6,291.6,440.6,292.5,438.2,291.8z"/>
					<path fill="#F7D9D9" d="M238.3,116.1c-3.8-3.9-2.4,2.9-1.9,2.4C237.6,120.5,239.3,117.2,238.3,116.1
						C237.8,115.6,238.7,116.6,238.3,116.1z"/>
					<path fill="#F7D9D9" d="M265.4,302.3c-0.5-0.1-5.9-0.6-6.3,0.6c-0.7,1.9,10,6.2,10.5,2.6C268.8,303.8,267.4,302.7,265.4,302.3
						C264.5,302.1,266.7,302.6,265.4,302.3z"/>
					<path fill="#F7D9D9" d="M278.5,171.5c0,3.8,10.7-6.3,3.6-6.3C280.2,165.2,278.5,170,278.5,171.5z"/>
					<path fill="#F7D9D9" d="M292,160.8c-1.6,1.7,3.8,5.1,4.2,2.2C296.4,161.5,293.1,159.6,292,160.8
						C291.8,161.1,292.3,160.5,292,160.8z"/>
					<path fill="#F7D9D9" d="M354.7,178.4c-4.1-0.8,2.4,7.1,3,2.5C357.2,179.5,356.2,178.7,354.7,178.4
						C354.3,178.3,355.7,178.6,354.7,178.4z"/>
					<path fill="#F7D9D9" d="M284.3,213.7c-8.5,0-3.2,7.3-1.5,4C282.9,230.1,290.5,213.7,284.3,213.7z"/>
					<path fill="#F7D9D9" d="M299.1,159.6c-4.7-0.9,2.3,8.2,2.9,3C301.8,161,300.8,160,299.1,159.6
						C298.8,159.6,300.9,160,299.1,159.6z"/>
					<path fill="#F7D9D9" d="M293.4,96.6c-2.3-2.3-3.7,0.2-3.6,1.9C289.8,100.4,296.4,99.8,293.4,96.6
						C292.9,96.1,293.8,97.1,293.4,96.6z"/>
					<path fill="#F7D9D9" d="M303.7,118.3c0.8,4.4,14-3,8.8-6.6C306.8,107.8,300.6,110.2,303.7,118.3z"/>
					<path fill="#F7D9D9" d="M316.7,115.8c0.2,0,5-0.3,5-2.2C321.7,105.3,311.2,115.8,316.7,115.8z"/>
					<path fill="#F7D9D9" d="M381.7,163.3c10.8,4.9-2.2-14-3.6-3C378.8,161.9,380,162.9,381.7,163.3
						C382.1,163.5,380,162.5,381.7,163.3z"/>
					<path fill="#F7D9D9" d="M240.7,96.9c2.7,1.5,0.3-9.4-5.9-6.5C230.4,92.6,240.1,96.5,240.7,96.9C240.9,97,239.6,96.3,240.7,96.9
						z"/>
					<path fill="#F7D9D9" d="M306.4,101.1c5.4,1.7-2.6-8-3.4-2.3C303.4,100.3,304.5,101,306.4,101.1
						C306.6,101.1,302.8,99.9,306.4,101.1z"/>
					<path fill="#F7D9D9" d="M123.2,12.5c-3-4-6.9-6.2-4.9,1.1C120.2,20.5,125.5,15.5,123.2,12.5C122.3,11.4,123.3,12.6,123.2,12.5z
						"/>
					<path fill="#F7D9D9" d="M215.4,19.7c-0.9-0.9-7,0-7,1.4C208.4,28.5,219.8,24.2,215.4,19.7C215,19.3,215.6,19.9,215.4,19.7z"/>
					<path fill="#F7D9D9" d="M160.5,19.5c-2.5-1.3-4.2,2.5-4,4.4c0.9,0.1-9.2-11.6-8.9-2.8c0.9,1.6,2.3,2.4,4.2,2.4
						c-0.9,0.6-4.2-1-4.9,0.5c-0.4,1,3,4.2,3.1,4.2c1.8-1.5-15-10-12.1-2c-2.1-2.2-6.7-6.2-10.2-6.3c-6.4-0.2-7.8,10-0.8,9.2
						c-1.1,0.5-2.1,1.3-2.8,2.4c1.1,0.9,2.4,1.1,3.8,0.6c-1.1,0.8-8.2,9.8-2.1,9.8c2.4-1,2.7-2.7,0.9-5.3c2.3,0.5,6.3-0.8,7.6-1.5
						c-6.9,5.8,16.9,0.7,15.5,0.9c-13.2,6.6,21.6,11.4,20.3,4.1C173,37.1,164.3,21.5,160.5,19.5z M138.7,30.9c-0.6-0.3,3-2,3.2,2.2
						C128.1,32.7,143,33.3,138.7,30.9C138.5,30.8,139,31.1,138.7,30.9z M139.1,26.9C139.1,29.4,138.3,26.9,139.1,26.9
						C139.1,26.9,138.7,26.9,139.1,26.9z M128,35.8C128,35.8,128,35.8,128,35.8L128,35.8z"/>
					<path fill="#F7D9D9" d="M92.5,20c-3.3-6.8-13.1,5.1-3.2,9.7c-0.8,0.9-1.3,2-1.4,3.3c1.6-0.4,2.7-0.1,3,1
						c-9.3-0.4-15.4-3.3-23.9-4.7c-3.9-1.2-13.2-1.5-15.6-3.1c-0.7-8.3-7.1,6.2-7.9,6.4c-7.5,1.7,4.3,9.6,9.3,9.2
						c7.2-0.6,17.1-1.9,25.3-2.3c-4.6,2.2-19.3-0.7-17.9,7.5c1.4,8.3,20.8-3.6,24-3.6c5.5,0,14.7-2.2,18.1-2.5
						c3.5-0.5,12.8,0.3,12.8-5.9c0-2.1-7-13.2-9-8.4c0.4,1,0.5,2.1,0.3,3.3C103.1,25.4,95.3,26.2,92.5,20
						C92.3,19.5,93.1,21.3,92.5,20z M59,38.2c-0.5-2,0.2-3.4,0.2-4.4C59.5,35.2,59.5,36.7,59,38.2C58.9,37.8,59.4,37,59,38.2z"/>
					<path fill="#F7D9D9" d="M162.7,6.5c6.1,1.1,6.2,8.7,13.7,7.2c1.4,1.7,7.9,4.2,13.4,4.3c15.2-3.1,6.5-10.5-3.9-6.4
						c2.9-7.5-7-6.3-9.3-8.4C163.8-8.3,159.5,5.9,162.7,6.5z M182.7,12.8C176,12.9,187.7,11.2,182.7,12.8
						C181.9,12.8,183.1,12.7,182.7,12.8z M189.9,17C189.9,17,189.9,17,189.9,17L189.9,17z"/>
					<path fill="#F7D9D9" d="M112.7,0.8c3.9,1.3,5.2,3.2,4.8,5.8c0.1-0.4,22.3-1.4,26.1,3.2c-1.2-0.4-7.4-1.5-5.6,2.7
						c1.3,2.9,10.3,2.2,8-1.5c2.9,0.4,6.6,2.6,9.4,3.7c2.2,0.9,5.5-5.5,2.1-6.9c-3.4-1.4-21.4-14.2-24.3-8.9c-4.9-4.8-6.1-1-9.4-0.1
						C121.1-16.3,108.5,2,112.7,0.8z"/>
					<path fill="#F7D9D9" d="M-6.1,75.2c3.8,1.6,8.8,11.9,13.7,6.1c3.9-4.6,5.3-4.3,12-3.7c5.4,0.4,8.3-10.2,13.6-13.4
						c7.2-4.2,15.4-3.6,21.2-7.3c-5.8,5.9-25.6,5.7-26.9,17c-5.9-0.5,5.3,9.9,5.4,5.6c-1.7,3,14.7-1.3,13.6-1.3
						c-32.9,6.3,20.8,10,29.2,8c-0.2,0.3-33.8,5.7-33.9,5.5c1.8,9.6,19.1,9.8,18.8,14.1c-1,13.6,49-10.6,53.3-10.4
						c-2.4,7.1,10.1,8.6,16.2,9c2.5,0.1,11.8,1.6,12.1,1.3c1.6-1.8,0.7-7.1-2-8.6c0.7,0.1,3.6-0.8,1.6-1.7c0.7,0.1,1.5,0.1,2.2,0
						c-0.2,11.4,6.9-4.1,5.3-10.5c1.1,4.2-18.1-0.9-18.7,0.3c-6.7-1.5-10.1-17.2-15.6-16.8c4.8-2.7-7.5-11.9-8.8-12.9
						c-3.7-2.9-8.3,10.3,1.3,12.2c-0.4,0.5-0.8,1-1.3,1.5c-0.8-5.7-8.1,4.3-8.7,4.5c4.5-7.2-4.3-14.3-5-12.9
						c-8-4.9-3.1,8.5-12.1-0.1c-8.5-8.1-9.3,1.7-8.2,7.9c-10.2,0.6-7.8-21.6-17.6-12c1.8-2.8-34-12.8-39.7-12.8
						c-2.6,0-9.4,3.2-12,3.7c-23.7,4.7,4.8,6.8-7.5,14.1C-6.6,63.1-10.3,73.3-6.1,75.2C-4.8,75.8-6.9,74.8-6.1,75.2z M135.4,97.6
						c-2.2-0.2-1.8,0.2-2.8-1.5C136,95.4,136.9,95.9,135.4,97.6C134.9,97.5,135.6,97.3,135.4,97.6z M140.6,95
						C136.3,93.9,143.6,95.8,140.6,95C140.3,94.9,140.9,95.1,140.6,95z"/>
					<path fill="#F7D9D9" d="M118.2,105c-7.5,0.5,5.9,6.2,5.2,2.4C122.4,105.3,120.6,104.5,118.2,105
						C117.4,105,121.9,104.7,118.2,105z"/>
					<path fill="#F7D9D9" d="M29,37.9c4.3,5.3,13.2-5.2,9.5-9.8C36.9,26.1,26.4,34.8,29,37.9C29.5,38.5,28.8,37.7,29,37.9z"/>
					<path fill="#F7D9D9" d="M57.3,19c-1.9-2-8.4,3.7-1.6,3.7C57.3,22.7,58.9,20.6,57.3,19C56.8,18.5,57.9,19.6,57.3,19z"/>
					<path fill="#F7D9D9" d="M62.8,6.5c6.6-0.4,13.9-1.3,19.5-0.2c-0.7,0.3-1.1,0.8-1.4,1.5C73.7,4.4,57.7,17,65.2,19.5
						c5.3,5.8,26.1-2.7,19.7-6.5c3.5,0.4,7.7-3.1,2.3-5.6c3.6,0.2,9.2-3.9,4.3-7.2c-5.2-3.5-7.3,1.6-12.2,1.3
						c-4.4-0.3-9.9,0.1-14.7,0C63.2,1.4,60.1,6.7,62.8,6.5C63.9,6.5,62.4,6.6,62.8,6.5z"/>
					<path fill="#F7D9D9" d="M2.2,33.8c4.1,5.5,27.5-4,26.8-10.9c0.8,0.4,1.8,1.1,2.6,0.6c-4,7.7,19.3-4.8,16.8-6.3
						c3-13.5-6.1-4.5-13.1-4.3c-5.5,0.6-22.6,0.2-26.1,5.4C2,28.4-8.3,19.8,2.2,33.8C2.4,34.1,0,30.9,2.2,33.8z M33.1,20.4
						C31.5,23.5,32.6,20.4,33.1,20.4C32.9,20.9,33,20.4,33.1,20.4z"/>
					<path fill="#F7D9D9" d="M50.7,10.1c-1.1,1.9,6.8,4.5,8.5,1.6C62.9,5.3,52.1,1.8,50.7,10.1C50.7,10.2,50.8,9.7,50.7,10.1z"/>
					<path fill="#F7D9D9" d="M283.8,27.5c-1.6,0-2.9,0.8-3.9,2.1C277.6,41,295.5,25.6,283.8,27.5C282.9,27.7,285.5,27.2,283.8,27.5z
						"/>
					<path fill="#F7D9D9" d="M148.6,100.1c-0.7,0.2-4.2,1.7-3.6,2.8C148.1,109.7,156.6,97.8,148.6,100.1
						C148.3,100.2,150.6,99.6,148.6,100.1z"/>
					<path fill="#F7D9D9" d="M177.4,64.8c0.5-5.7-6.6-0.7-7-0.3c-1.7-3.8-4.8-2.9-6-6c1.4-0.2,9.2,1.5,9.5,0.4
						c0.7-2.1-7.8-7.5-9.9-7.5c1.2-1.1,2-2.4,2.4-3.9c-1.5-2.6-40.5,10.6-17.5,12.8c-0.8,9.9-17.2-3.2-16.8,1.7
						c0.3,4.1,4.1,9.3,8.9,9.3c4.8,0,4.5,2.4,9.4,2.5c1.5,0,7,6.5,7.7,7.4c1.3,1.7,8.2-3.3,9.3-3.7C175.1,75,176.7,72.3,177.4,64.8
						C177.5,63.7,177.3,65.4,177.4,64.8z"/>
					<path fill="#F7D9D9" d="M185.6-24.7c-11.6-3.2-8.9,2.5,0.6,3.5c2.8,2.1,5.1-0.4,7.3,1.7c-4.8,0.4-10.9-1.8-8.9,4
						c-0.5,0-3.8-0.7-4,0.7c-0.2,1.5,3.2,1.5,3.9,1.6c-3.9,0.5,3.4,8.4,4.7,8.8c4.7-1.4,12.3,23.2,22.1,13.9
						c-2.2,3.6-4.9,7.1,2.4,7.1c7.2,0,1.5-11.3-2.1-7.4c0.2-0.6,0.5-1.1,0.7-1.7c8.1,2.8,10-3.2,17.9-4.1c-1.4,10.5,11.4,8,19.2,3.3
						c-1.8,8,5.5,6.2,10.2,6.4c-2,7.1-14.2,1.2-16.2-1.7c-4-5.9-24-0.9-11.3,5.3c-5.2,1.4-16.4,1.5-14.1,9.4
						c-9-2.7-16.7-4.4-24.9-6.5c-17.2-4.5-26.8,5.5-6.9,8.2c5.4,2,7.9,0.4,13.6,3.2c5.2,2.5-0.7,24.3,8.9,15.8
						c2.4,3.3,9.6,0.9,12.4-2.4c2.4,5.6,10.7,6.3,14.7,1.5c1.1,5.1,42.7,0.4,43.5-3.4c0.4,0.3,4.7,5.1,5,0.4
						c0.8-11.1-19.3-12.7-31-12.7c-7,0-16.7,4.3-23.1,3.6c-0.7-0.6-12.7-3.5-14.3-3.2c5.2-3.8,12-2.7,16.1-4.1
						c3.1,3.4,22.5,5.8,18-1.7c1.9,0.7,2.7,0.7,3.9-1c1.4,5,13.4,5.4,14.5,0.4c-0.3,0,4.9,0.9,6.3,1c-0.5,9.5,14.2,2.5,17.8-0.8
						c4.7-4.4,0.3-6.1-5.4-8.1c8.9-0.5,8.8,0.9,7.9-5.4c2.5,0.3,21.1-1.2,17.6-5.8c3.7,2,9.5-3.4,5.6-5.8c11.5,2.3-4.2-11.2-3.5-6.5
						c14.3,0.1,22.3-1.8,33.2-9.1c2.3-1,9.5-5.4,13.6-6.4c2.4-0.6,24.2,0.7,23.1-6.5c-0.5-3.3,6.3-4.3,10.5-4.9
						c5.7-0.8,14-7.5,1.2-7.5c-9.3-5.5-22.4-7.3-32.1-2.9c3.8-5.7-32.7-6.6-30.9-2.4c-4.8-1.5-7.8,1.6-12.5,0.4
						c-4.6-1.1-12.8-0.9-17.4,0c-3.3,0.6-16.8,3.2-17.5,4.7c-3.3,6.8-20.6-7.3-18.4,5.2c-6.3-1.4-13.1-4.6-20.1-6.6
						c-8-2.5-4.9,1.6-4.9,4c-10.7-2.9-9.5,0.5-8.2,6.2c-3.2-3.2-6.2-4.4-10.6-2.9c-8.5,2.9-2.6,3.1-13.7,3.1c-7.9,0-6.2,5.9-0.1,5.9
						c-3.9,1-1.1,4.3,3.4,3.3c-1.5,0.6-2.2,1.6-2.1,2.9c1,1.5,25.1,1.2,27.7-0.7c0,3.1,0.9,2.7,4.1,3c-2,2.8-1.5,4.3-4.6,6.5
						c5.5-8.9-18.7-5.3-21.7-5.3c-5.5,0-7.2-2.2-9.3-6.7c-2.7-5.7-30-7.6-30-5.5c1.7,3.4,6.3,4.1,10.7,3.3
						C188.4-23.8,187.7-24.1,185.6-24.7C183.4-25.3,186.4-24.5,185.6-24.7z M200-1.8c1.7-1.4,4.3-0.8,6.4-0.7
						C206-2.4,198.5-0.5,200-1.8C200.3-2.1,199.8-1.7,200-1.8z M242.5-32.8C238.9-33.9,247.2-34,242.5-32.8
						C242.4-32.8,242.6-32.8,242.5-32.8z M248.3-34C249.6-34.2,249.2-32.7,248.3-34C248.6-34,248.3-33.9,248.3-34z M250.6-2.5
						c1-0.2,2.6-4.4,4.9-0.8c-2.2-0.5-3.9,0.1-4.8,1.7c0.3,4.4,13.5-2,13.4,2c-6.5-0.5-13-0.8-19.5-1.4
						C245.2-1.2,249.1-2.1,250.6-2.5C251.1-2.6,249.9-2.3,250.6-2.5z M302.7-1.7c-2.2,1.9-3.5,1.8-4-0.3
						C300-1.9,301.4-1.8,302.7-1.7C301.6-1.4,301.3-1.8,302.7-1.7z M307.5-9C310.4-7.6,307.2-9.2,307.5-9C307.7-8.9,307.6-9,307.5-9
						z M310.3-2.3c2.2-2.1-4.7-2.2,2.4-1.7C312.6-1.3,314.3-1.5,310.3-2.3C310.5-2.5,311.3-2.1,310.3-2.3z M268.3-14.8
						C270.6-10.1,265.9-14.2,268.3-14.8C268.8-13.9,268-14.7,268.3-14.8z M277.3-9.6C276.9-9.2,273.4-8,277.3-9.6
						C277.1-9.4,276.8-9.4,277.3-9.6z M252.1-20.4c13.4,0.6,31.3-1.6,44.8-4.7c-6.9-0.1-15.4,4.7-3,5.4
						C283.3-18.2,259.1-14,252.1-20.4z M238.5,1.2C237,2,235,1.6,233.4,1.8C235.3,0.5,236.6-0.3,238.5,1.2
						C238.4,1.3,238.4,1.2,238.5,1.2z M314.8-0.4C311.4,1.6,321-4.1,314.8-0.4C314.5-0.3,315.3-0.7,314.8-0.4z"/>
					<path fill="#F7D9D9" d="M168.7,43.4c-1.6-0.8-2.9-0.4-3.8,1.2C165,48.8,171.3,45.9,168.7,43.4
						C168.4,43.1,169.2,43.8,168.7,43.4z"/>
					<path fill="#F7D9D9" d="M172.1,37.3c2.1,2,7.6-3.7,7.1-5.1C179.2,32.2,167.6,32.9,172.1,37.3C172.3,37.5,171.7,37,172.1,37.3z"
						/>
					<path fill="#F7D9D9" d="M178,43.1c18.2,10.2,12-10.8,9.6-10.7C182.4,32.6,167.2,41.8,178,43.1z"/>
					<path fill="#F7D9D9" d="M568.8,661.9c-4-1.7-5.2-8.1-9.6-9c-6.8-1.4-6.6-4.5-14-8.3c-4.7-2.4-32.3-10.1-33.9-4
						c-3.6-0.2-15.1-28.9-28.4-12.2c-2.9-3.4,4.5-6.6-4.9-5.7c-5.8-0.7-2.7-7-8.2-9c10-5.2-9.4-19.2-12.5-26.1
						c-3.4-8-32.7-11.9-39.9-12.1c0.2-7.1-7.9-12.1-16.3-11.3c3.2-13.5-7.5-1.8-9.7-10.1c2,0,3.3-0.8,3.7-2.5
						c-0.7-2-36.9,1.5-37.9,1.8c-1.6,0.4-22.3-16.8-15.7-4.6c-4.3,0.7-7.7,1.9-11.6,0.9c16.4-9.7-10.8-2.4-14.7-1.1
						c-3.1,0.9-16.4,14.4-15.6,18.7c-15.4-9-12.7-10.8-29.2-5.9c-1.4-2.6-16.3-8.7-14.9-15.5c1.8-9,9.9-23.6-0.7-25.7
						c-8.2-9.7-18.9-2.1-30.7-3.4c2-3.2,6.5-12.2,4.2-15.8c4.9,0.9,4.6-10.7,5.7-15c3.4-13.8-8.2-9.7-17.5-6.2
						c-8.2,3.1-3.7,14.1-11.8,17.7c-2.6,1.5-14.6,3.3-19.1,4.5c-1.3-6.3-7.2-0.6-9-5.6c-1.9-5.3-11-12.2-10.9-16.9
						c0.2-4.5-0.3-6.9-0.7-12.3c-0.6-6.9,6.3-15.3,3.7-19.6c0-4-2.6-4.5-0.8-8.5c1.1-2.4,6.2-8.8,9.2-8.8c5.1-3.2,9.3-4.1,14.4-7.9
						c7.3-5.5,14.7,6.5,19.4,3.7c2.8-1.7,13.3,1.5,14-1.2c0.6-2.2-2.6-1.6-3.2-2.3c2.9-1.3,1.3-3.5-0.9-4.2c0.6-0.4,0.8-0.8,0.7-1.5
						c2.6,0.2,18.2,1.3,17.4-1c4.3,1.1,8.7,10.3,14.7,4c8.8-1.9,2.5,18.6,9.4,15.8c-2.6,3.4,8.1,19.3,13.3,17.7
						c7.6-2.4-1.9-34.8-6-37.4c-0.9,0.2,8.3-13.9,8.4-14.5c0.4-5.7,24.8-8.3,19.7-16.9c1.7-0.3,9.5-3.2,9.5-3.8
						c0-1.7-3.1-3.5-4.5-3.5c1.8-0.3-0.7-11.9-1.5-13.8c-1-1,8.3,3.2,7.2,3.5c4.2-1.3,1.5-15,0.7-12.6c0-0.4,0.1-0.8,0.1-1.2
						c10.8,0.4,9.6-4.9,8.7-9.8c5.5-1.6,10.3,3.5,14.3-2.2c2.7-3.8-10.7-0.6-11.3-0.6c4.5-3.7,13.1-1.2,14.4-6
						c0.8,2.3,12.1,0.2,10.3-2.5c0.5,0.7-9.7-1.6-7.2-1.4c2.5-1.9,1.8-3,3.3-4.9c3.7-4.8,6.6-3.4,10.2-8c2.8,2.3,13.1-1.1,10.7-6.6
						c4.2,2.5,10.9-2.7,13.4-5.2c0,5.4,3.1,2.5,8.1,1.6c-0.8,0.5-1.3,1.2-1.4,2c-6.1-1.1-11.2,1.2-14.9,5.3
						c-4.6,5.1,9.2,12.1,13.6,6c1.6-2.2,20-10.4,18.4-14.1c11.3,4.2,17.8-9.5,6.6-6.2c-0.1-4.3,6.5-5.1,5.8-7.3
						c-1.9-6.2-13.1,8.9-13.5,10.4c-0.3-0.8-10.8-0.6-13.1-0.5c-0.9-5.1,7.5,1.4,9.5,0.1c3.1-2.1-13.1-9.8-14.5-8.1
						c-0.4-1.4-0.5-1.8-2.1-1.5c1.1-2.7,3.1-7.1-1.5-6.5c1.9-0.8,7.5-9.1,5.2-10.2c-12-6-24.9-0.2-35.8,9.6c0.2-0.5,0.7-1.1,0.2-1.6
						c4.7-1.2,14.5-10.8,18.8-15.2c8.3-8.4,28.6-0.4,36.9-0.4c9,0,13.2-11.1,21.5-13c14.9-3.3,20-17,2.1-19.1
						c0.5-0.6,2.5-2.4,2.4-3.2c-0.3-2.8-16.3-4.9-20.8-5.6c1.1-3-9.1-11-10.4-10.7c0.2-0.5,0.3-1,0.4-1.5
						c12.6,0.2-5.8-15.7-8.3-15.6c-0.1,0.1-7.2-19.5-10.3-19.6c0.7,0-10.6,11.1-10.5,11.4c2.3,0.7-13.8,4.7-12.9,4.1
						c-1.8-6.7-7.2-1.5-9.5-6.1c0.1-0.8,3.3-16,3.7-15.6c0.3,0.4-6.2,0.6-7.3,0.5c0.7-0.4,1.6-2.4,1.5-2.7c0.5,1-11.1-2.7-11.9-3.1
						c-4.2-2-8.5-11-15.6-7.2c-3.5,1.7-34,6.2-22.6,8c-0.8,1-7.5,9.6-0.8,9.2c-0.3,3.3-1.5,4,2.2,6.2c-0.9,3.6-3.7-0.6-5,1.5
						c-0.5,0.8,1.1,3,1.9,3c0,0.2,0,0.5-0.1,0.7c-15,1.5,1.3,8.4,2.4,13.2c1.9,7.9,6.7,4,4.1,12.6c-0.1,0.7-1.2,2.2,0,2.8
						c-3.3,1.7-4.8,6.9-8.9,9.2c-14.4,7.7,0,13.8-5.2,28.2c-4.3-0.3-4,3.4-8.6,1.8c-5.9-2.9-3.9-7.4-6.7-9.7c-0.1,0,6.4,2,6.4-0.1
						c0-3.8-8.3-6.9-8.3-0.8c-6.9-2.6,2.6-12.3-1.2-14.6c-1.4-1,0.7-1.2,0-3.4c-2-5.6-13.2-1.9-17.4-2.5c-3.9-0.6-8.2-4.5-12.6-5.3
						c-7.2-1.4-1.9-3.1-6.7-6.7c-3.1-2.3-10.9-3.8-14.4-4.3c-10.5-1.6-13.1-0.2-18-10.1c-4-8-7.7-4.6-13.2-9.2
						c-3.5-4.7,3.7-9.4,1.2-11.6c2.1,0.1,11.5-10.8,12.5-13.3c0.7,0.3,20.1-5.5,13.2-10.3c-5.7-1.6,22.8-10.4,21.9-9.3
						c2.5-3.4,7.1-10.6,5.4-16c5.3-0.6,3.5-0.3,7.7,2.4c-4.5,0.3-1.1,1.4-1.9,2.8c-6.4-1.3-1.6,11.1-8.7,14.4c-7,3.2,4.5,5.1,5.3,5
						c-1,14.2,15.9-7.3,13.6-7.4c1.3,5.4,12.7,14.7,15.5,4.2c0.3-1-22.1-14.9-24.1-12.8c0.7-4.2,8.9-8.1,7.6-8.9
						c1.8,0.7,23.5-6.8,23.5-8.6c0-7.1-10.3-6.2-9.1-11.6c1.8-1,6.8-4.9,1.7-4.6c0.9-1.6,5.5-11.7-1.6-6.2c-2.4,2.1-4.3-5.9-4.4-6
						c-0.7-0.2,8.5,2.2,8.5-0.1c0-0.9-1.9-2.3-2.4-2.9c2.3,1.4,20.1,13.5,20.9,10.5c0.4-1.4-2.4-3.5-3.6-2.5c0.8-1,3.5-2.6,2.6-4.2
						c-1.6-2.9-7.1,0.9-9,0.7c-0.3,0-2.8-4.6-3.8-5.7c4.4-0.2,16.5,8,15.4-0.9c0,0,3.7,4.4,3.8,0.6c1.3,4.2,10.1,7.9,13.5,6
						c-0.8,2.7-1.5,3.6,1.4,4.7c-7.5,8.8,5.1,6.2,11,4.4c0.6-2.2-7.5,13.4-0.5,7.1c4.1-3.8,4.9,3.2,7.5,7.6c-3-0.1-4.1,1.3-4.4,4.8
						c-1.2,11.7-11,5.1,0.1,17.3c-10.6,1.4-27.3-2-31,8.8c-2.2,6.4,2,10.6,11.6,7.4c6.9-2.3,13.2-6.8,19.7-3.8
						c0.6,2.8,5,9.1,6.5,10.3c0,3.3,13.9,5.6,8.4,2.4c11.9-1.5,19.8,0,31.3,1.8c7.7,1.2-6.2-10.4-4.1-6.2c-2-4-14.6-2.3-14.9-8
						c1,0.3,10.3,4.1,8.7-0.4c1.3,1.7,18.6,5.2,18.6,4.8c0-1.9-3.5-2.9-5-3.9c17.7-7.1-17.7-14.3-15.9-21.4c-1.2-3.7,4,5,4,0.8
						c0-0.2-2.1-4.9-1.3-2.9c1.5,1.6,3.2-0.9,2-2.4c0.5-0.2,1-0.5,1.5-0.7c1.6,3.8,27.7,24.5,25.2,9.3c1.2,0,4.4,0.8,5.1-0.5
						c-0.1,0.2,1.2-9.8,2.5-8c14.3,8.1-0.2-19.4-2.1-8c0.3-1.8-10.7-1-12-0.8c5.5-10-14-4.2-14.8-4c1.8-6.4-10.4-5.4-13.3-9.2
						c3.9-0.5,6.7-3,2.7-5.9c0.7,0,7.4,1.6,7.4-0.5c0-3.6-9.4-3.3-10-4.1c15.7-1.3-4.8-16-9.1-12.7c-5.9-6.6-17.1-5.2-19.9-3.9
						c-0.5-4.3-2.6-4.2-5.5-0.9c0.5,1.1-0.4-10.7-0.4-9.7c-0.2-3.8-25.2-5.9-29-6.1c12.4-0.9,9.1-12.1,0.2-12.3
						c-5.5,0-14.1,3.8-19.5,2.5c-7.5-1.8-47-4.3-47.9,5.2c-4.4,1.1-7.4,11.4-10,15.7c-0.8,1.3,11.9,8.5,11,7.5
						c4.3,5.1,16.9,13.2,22.9,9.7c2.5,4.3,11.3,0.3,15,2.8c-7-1.4-21.3-5.4-16.2,5.4c2.9,6-0.6,7-4,12.5c-1.1,0-9.1,16.3-11,8.4
						c-0.7-3-4.8-4.4-6.6-7.1c0.7-0.6,6.3-8.1,6.3-9.1c0-10.6-11.6-4.5-12.6,3.9c-4.9,0.4-10.6-9.5-17.5-12.4c0.6-0.5,5.8-3.6,5.3-5
						c-1.2-1.1-2.4-1.6-3.8-1.6c-0.1,0.7,6.3,1.5,7.2-2.2c0,0.2-9.6-6.3-10.5-6.7c-3.8-1.8-9.3-2.1-11.3-5.7c0-2.6,2.8-4.6,0.2-8
						c10.2-4.1,18.6,0.4,24.2-11.1c3.4-7.1-7.2-4.1-10.5-4.6c0,1.1-31.6-9.4-24,10.9c4.6,13-1.4,9-4.5,21.4
						c-1.4,5.7,3.2,19.4,7.2,10.9c2.7,0.1,11,5.1,11.1,6.1c-1-0.3-5.7-1.4-5.8,0.4c-1.1,11.9,1.2,2.8,4.2,7.5
						c-5.5,0.4-20,10.4-11.7,15.6c-6.3-3-6.6-5.8-7.2-12.5c0.2,2.3-8.4-3.3-8.5-3.3c2.4,1.2,19.3-0.6,18.3-2.7
						c-2.7-6.1-10.4-13.9-19.1-10.8c-5.5,2.5-10.4,16.8-1.1,11.1c-0.1,0.7,0.1,1.3,0.6,1.7c-6.6-1.6,3.3,12.8-12.4,8.3
						c-1.1,0.2-9.6,0.3-11.4-0.1c-6.5-1.7-16.3-6.4-21.4-4.3c-6.1-16.5-29.4-1-25.4,2.6c4,3.6,9.4-4.1,12.6-3.3
						c-14.2,8-6.1,7.1-9.3,15.8c-1.2-0.5-3.3-11.1-5.3-6.7c-3.7-11-35.4-1.5-34.7-5.1c0.6-3,5.8-0.6,6.8-2.6
						c3.4-7.2-25.2-6.6-29-8.4C31.1,94.2,5.9,95.4-0.2,98c-5.3-16.2-2.3-3.2-5.1-4.3c1.8,12.8-10.5-2-12.3-3.3
						c0-1.3-14-12.8-15.5-6.7c-1.6,6.2-0.8,6.6-7.7,8.5c3.1-2.2-7.3-7.7-10.2,0.2c-7-4.4-10.8,4.4-15.2,5c0.3-3.8-6.1-5.6-6.5,0.4
						c-2.9-1.1-9.5,3.1-14,1.6c-5.2-1.6-44.3-13.4-44.2-8.3c-10.3-0.2-20.9-3.2-31.3-3.2c-9.7-3-38.4-9-46.4-4.6
						c-1.2-9.1-21.3,0.4-25.5,1.4c-3.9-0.1-12.2,2-14.5,5.3c-1.8,2.5-7.8,13-9.3,13.2c-5.1,0.8-14.1-0.8-18.3,1.1
						c-6.1,2.8,1.7,9,2.9,9.3c9.8,2.3,14.7,13.3,25.2,8.7c-0.3,0.7-1.7,0.7-1.9,1.4c-0.5,1.8,4.3,1.9,4.9,2.8
						c-1.2-0.2-5.7,0.4-4.8,2.6c0.4,1.1,3.6,0.7,4.2,0.7c-7.1,5.1-12.5,1.5-14.8-4.8c-1.2-3.3-14.2-0.3-14.2,5.6
						c-7.5,0.7-20.3,5.1-5,6.8c-6.9,1.9,9,8.3,9.5,8.3c12.4,0,17.6-2.1,28.8-1.3c-4.9,15.6-9.1,8-20.2,10.5
						c-2.6,0.6-12.3,12.1-14.1,15.1c1.2-2.1,9.5,11.5,9.8,12.8c2.5,12.1,17.2-5.8,15.5,8.6c-1.5,12.1,12.3,0.6,12.6,1.7
						c1.2,4.7,17,3.8,20.7,2.2c-2.8,10.4-16,21.3-24,25.2c-17.4-8.8-15.8,17.3-10.9,12.5c1.5-1.7,1.4-2.8-0.4-3.2
						c2.9-1.1,4.9-3.1,6.1-6.1c-1.1,0,7.1,7.7,7.5,4.6c-0.4-1.4-1.4-2.2-2.8-2.4c6.7-1.7,27.2-10.4,26.8-17.5c4-1.4,28.1-17,16.1-16
						c1.3-3.6,9.6-7.2,7.5-9.4c2.6,0.4,6.1-2.9,8.4-4.3c-1.1,5-3.6,8.8,1.3,10c-1.1,0.4-4.1,0.7-4,2.3c0.5,9.5,17.6-6.3,18.3-6.5
						c2.1-0.5,19.4-0.9,6.8-6.4c0.1-0.7,0.2-1.5,0.2-2.3c11.1,1.9,12.7,4.2,20.9,8.6c7.3,3.6,15.6-0.2,23.6,3
						c0.6,0.3,20.9,8.2,21.6,7.2c-0.9,2.9,6.1,7.9,8.9,6.8c-0.1,3.9,5.3,7.6,9.1,9.6c-0.4,4.5,6.2,9.8,13.5,11.7
						c-0.1,1,18.5,20.9,14.7,7.4c0.3-0.1,3.4-0.2,2.4-0.5c-3.1,2.3,1.8,5,3.8,5.2c-4.5,0.9,1.1,5.7,1.1,5.2
						c-1.6-0.8-2.9-0.4-3.8,1.3c0.1,1.9,8.5,8.6,10,10.4c2.3,2.8,8.3,4.6,6.5,3c6.4,2.9,1.3,7.7-1.3,9.7c-8.7,6.7,12.6,8.1,11.6,7.8
						c0,0.6-1.1,2.6-0.9,2.9c-1.4-3.4,14.4,8.3,13.3,7.8c-4.9-0.8,3.8,9.9,4.1,10.4c6.3,8.2-5.7,29.2-1.5,38.9
						c0,0.1,5.5,39.3,13,31.4c-0.4,6.8-1.2,2.4,3.4,6.3c-4.3,5.8,2.2,8.3,6.1,11.1c-6.1,4.4,14.2,16,17.9,17.1
						c3.8,4.5,5,10.9,8.3,16.6c2.6,4.5,7.3,5.4,11.2,7.6c9.9,7.1-3.1,12.2-3.4,13.9c0,0,14.9,10.8,16.5,11.5
						c1.4,0.6,5.4,10.2,6.4,12.5c9.7,23.8,20.4-0.8,6.3-1.6c7-12.2-26.7-37.2-26.2-49.5c2.5,1.2,8.3,2.7,9,2.7
						c2.7,2.2,4,11.5,10,15.1c2.5,5.7,10.9,15.9,17,17.8c-6.4,7.9,29.6,24.5,22.9,40.4c-4.9,11.5,26.6,27.2,36.3,27.9
						c3.6,0.2,41.8,9.3,41,3.4c13,6.5,22.4,22.9,38.9,17.4c1.8,4.7,5.7,7.6,8.7,12.2c-3.3-4,8.1,23.5,8.1,10.1
						c1.3,1.3,7.5,10.7,7.1,10.5c2,0.7,2.9,0,2.8-2.1c0.8,2,0.7,2,1.8,3.1c1.2,1.1,7,2.3,8.3,3.1c-3.8-0.9,1.4,6.6,2.5,2.8
						c-0.3-1.2-1-2.1-2.1-2.6c1.5,0.5,12.6,4.3,12.8,1.5c0.1-1.4-3.7-4.6-4.4-5.1c10.4-4.8,4.2,2.6,12.7,0.8c-1.2,3-1.4,8.6,3.4,8.6
						c7.6,0-5.5,18.7,2,22.1c-7.2,8.1-36.3,37.4-18.4,44.2c-2.4,3.9-13.4,13.3-4.9,16.5c-0.8,7,13.1,14.5,18,20.3
						c7.5,9.1,7.8,32.6,16,38.4c2.4,1.7,10.4,8.6,11.6,10.7c5,8.2,19.3,6.3,22.8,17.4c4.3,13.7-3.6,26.5-2,36.3
						c-2.4,11.8-2.9,27.5-3.9,38.8c3.7,8.9-4.6,21.9-4,30.1c0.1,0-11.9,26.6-11.9,26.6c0.1-0.8,4.7,11.4,4.9,13.2
						c0.4,3.5-9.2,15.1-1.4,17.9c-9,0.8-7,19.3,1.5,11.6c0.6,5.4-8.3,18-7.9,18.2c-0.8,0.7-12.3,7.4-7.6,10.8
						c0.6,0.4,9.6,0.5,9.6,0.4c1.3,3.8-2.5,1.5,0.5,4.6c-3.2,5.8-1.8-13.4-2.1,7.9c-2.6-17.1-9.7,6.6-8.9,6.1
						c1.1-0.8,1.3,12.6,0.2,10.9c3.4,5.6,0.7,19,13,19.5c-0.7,7.6,7.1,5,10.4,8.3c-8.1,1.4,3.4,3.4,4.8,3.5c-0.8,5.7,5,2.8,4,1.7
						c-2.5,0.3,13,10,9.3,3.3c0.6-0.2,1.2-0.2,1.9,0.1c-2.3,1.7,3.9,7.2,4.9,3.3c-0.3-1.6-1.2-2.7-2.9-3.2c1.1,0.1,1.7-0.3,1.8-1.1
						c2.8,1.4,15.5-0.9,18.4-2.5c4.5-2.3-10.3-5.8-10.4-5.9c-7.8-5.7-6.7-11.5-15.2-14.1c0.3-0.6,0.7-1.2,1-1.9c4,0,5,2.2,4.5-3
						c-0.6-6.1-3.5-4.4,1.7-10.5c-0.3,0.3,5.2-3.8,5.2-3.8c0-4.7,10.3-18.3,12.4-17.1c-0.5-0.3-7.5-8-7.7-8.4
						c-9.1-13.4,9.2-9.2,8-17.2c2.9-2,8.1-14.7,6.9-15.1c0.5-0.1,14,1.2,6.8-4.1c-3.9-2.8-7.3,4.3-7.6-3c0,0.2-5.6-5.6-0.5-5.6
						c-0.7,0.7,9.5,3.2,12.9,1c7-4.6,0.8-15.1,1.7-16.2c5.6,6.1,30.8-4.2,34-11.9c4.1-9.9-3.4-12.9-8.4-21.8
						c7.9,7.1,24.1,6.1,31.1-2c2.1-2.5,8.7-8.7,5.8-12.1c-1.4-1.7,9.4-8.1,8.6-12.8c1,0.6,1.7,1.2,3,1.1c-3,2.3-3.9,4.6-2.6,7.1
						c5.2,2.3,9.7-15.7,12.9-18c4.3-3.1,6.6-24.5,4.1-25.7c5.3,0.2,25.6-12.8,27.1-15.8c2.7-0.3,17.5-1.6,17.2-4.8
						c-0.4-4.7,11.8-16,13.8-21.9c3.7-11.7,5.4-24.1,4.2-38.5c-0.2-2.8,7.6-5.2,9.3-9.6C555,695.3,586.8,669.5,568.8,661.9
						C568.4,661.8,569.8,662.4,568.8,661.9z M272,59.2c-0.6,0.9-1.2,1.7-1.8,2.7C270.2,61,272.2,57.6,272,59.2
						C271.9,59.4,272,59.1,272,59.2z M334.4,1004C330.7,1003,334.4,1003.4,334.4,1004C334.1,1003.9,334.4,1003.9,334.4,1004z
						 M313.3,986.7C311.3,986.8,312.5,986.6,313.3,986.7C312.9,986.7,313.3,986.7,313.3,986.7z M313.6,975.1
						C312.5,973,313.6,974.4,313.6,975.1C313.4,974.8,313.6,974.8,313.6,975.1z M313.6,976.7C313.4,978.7,313.1,977.9,313.6,976.7
						C313.6,977,313.5,977,313.6,976.7z M315.6,984.4c1,1.3,1.7,0,2.8,0.1c-0.1,0.6-0.5,1.3-0.8,1.7
						C315.9,984.6,314,987.5,315.6,984.4C315.7,984.5,315.3,985,315.6,984.4z M345.2,726C346.2,724.4,348.4,726.9,345.2,726
						C345.5,725.5,345.7,726.1,345.2,726z M319.9,988.5C322.6,987.4,317.1,989.8,319.9,988.5C319.9,988.5,319.7,988.6,319.9,988.5z
						 M337.8,996.9c0.2,1.1,0.1,3.9,1.3,4.4c-1,0.4-1,0.5-2.2,0.6C337.2,1000.2,337.5,998.5,337.8,996.9
						C337.9,997.4,337.4,998.6,337.8,996.9z M318.5,995.6c1.7,0.3,1.2-1.7,1.3-2.5C320.8,999.9,319.2,995.7,318.5,995.6
						C318.6,995.6,318.3,995.6,318.5,995.6z M352.3,974.2C352.1,974.1,351.6,972.1,352.3,974.2C352.2,974.2,352.3,974.2,352.3,974.2
						z M244.3,545.2c-0.6-1-1.2-2-1.6-3.1c2,0.2,3.4,2.7,4.3,4.1C245.6,546.7,244.8,546.3,244.3,545.2
						C244.2,545.1,244.5,545.6,244.3,545.2z M219.9,286.1c1.5-2.4,14.6-11.8,17-5.5c2.7,6.7,7.1,4.8,9.3,9.1c0,0.1,4.1,8.4,4.4,8.6
						c-7.1,0.5,3.2-7.9-8.2-2.8c-11.7,5.2-6.1-3.1-14.1-2.4c1.4-1.8,2.5-6.1-1.7-4c-10.9,5.6-12.1,3.4-21.4,4.7
						C209,290,217.2,290.3,219.9,286.1C220.2,285.6,219.8,286.2,219.9,286.1z M279,309.3c2.1,4.4-0.6-2.8-0.2,3.9
						c-2.1-0.8-9.4-6-9.7-5.6c-0.7,1,1.3,3.2,2.3,3c-5.6,3.5-1.7,10.3-6.7,12.2c-1.5-3.8-2.1-7.8-6.9-6.6c3.6-10.1-3.5-9.2-7-13
						c0.1-0.1,0.3-0.2,0.4-0.3c1.5,1,3,0.7,4.6-0.9c-0.6-0.7-1.3-1.3-1.9-2C266.2,303.4,274.3,299.8,279,309.3
						C279.1,309.5,278.6,308.5,279,309.3z M243.2,308.6c-0.2-2.9-5,6.3-4.8,5.9c-2.5,0,3.3,18.6-6.1,18.6c-7.4,0,5.9-28.7-0.9-24
						c2.8-4.6,11.3-7.3,16.7-6.2C246.5,304.4,243,306.7,243.2,308.6z M-181.8,176.1c0.1-4.7,7.4-3.9,9.1-3.2c-0.1,0.6,0,1.1,0,1.7
						C-175,174-181.8,177.3-181.8,176.1C-181.8,175.6-181.8,176.3-181.8,176.1z M-241.2,126.5C-241.3,127.2-243,126.7-241.2,126.5
						C-241.2,126.6-241.5,126.5-241.2,126.5z M-262.2,176.9C-263.3,175.6-262.5,175.9-262.2,176.9
						C-262.3,176.9-262.2,176.9-262.2,176.9z M323,915.3c0.4-1.1,2.3-4.8,1.7-5.8c0.6,0,1.1,0,1.7-0.1c2.1,5.1,1.7,8.1-1.5,9.2
						C324.3,917.5,323.7,916.4,323,915.3C323.4,914.4,323.9,915.9,323,915.3z M333.1,557c2,1.2,3.1,2.9,3.4,5
						C333.7,568.5,328.3,552.3,333.1,557C336.7,560.4,332.8,556.7,333.1,557z M320.8,943.2c-2.2-1.4-2.5-0.4-4.1-0.9
						C320.5,937.6,321.9,937.9,320.8,943.2C320.1,942.8,320.9,941.7,320.8,943.2z M329.2,1002.8
						C329.5,1002.1,330.5,1002.4,329.2,1002.8C329.3,1002.6,329.4,1002.8,329.2,1002.8z M353.9,1019.5
						C353.9,1019.5,353.9,1019.5,353.9,1019.5L353.9,1019.5z M416.4,851C419,849.2,418.9,856,416.4,851
						C416.5,851,416.7,851.7,416.4,851z"/>
					<path fill="#F7D9D9" d="M289.2,458.9c1.5,1.1,5.7-2.2,5.5-1.5C296,451.8,283.2,454.5,289.2,458.9
						C289.4,459,289,458.7,289.2,458.9z"/>
					<path fill="#F7D9D9" d="M1779.8,811.8c-4-9.7-1.2-21.3-9.9-27c-5.7-3.8-15.4-17.6-18-24.2c4.3-4.1-6.1-7.3-7.4-7.8
						c-8.9-3.5-11.5-12.7-14.3-21.6c-2-6.4-1.5-17-10.2-12.6c-0.4-0.4-12.2-38-14.8-15.8c-1.1,9.4,1.4,27.6-5.7,33.6
						c-8,6.5-8.2-2.5-18.5-7.5c-5-2.5-8.1-2.8-13.3-5.4c0.3-2.7,3.2-7.5,2.2-10.2c0.9,0.1,1.8,0.3,2.8,0.2c-6.5,2.6,1.2,9.2,3.6,3.8
						c-0.5,0.4-3.2-8.1-3.7-8.3c3.3-1,3.6-2.8,2.8-5.9c0.4,1.8-34.4-5-34.5-4.7c-0.8,2.2,8.1,5.9,7.6,5.6c0,2.6-12.6-0.4-15,0.3
						c-3.2,0.9-7.7,15.7-6.1,17.4c-5.1,1.6-8.2-2.6-11.4-4.9c-2.9-6.6-8.3,0.5-11.8,0.5c-1.4,0-9.4,8.4-9.1,11.4
						c-8.5-4.4-4,5.7-5.1,7.6c-3.8-2.8-7.1-9-9.4,1.5c-0.9,4-12.2,22.3-18.2,16c-3.3-3.4-27.9,12.8-32.7,15.5
						c-12.3-3-2.4,20.7-2.2,26.6c-4.1-0.5-6.3-3.9-4.9,4.7c0-0.5,8.6,11.9,8.6,11.9c0.8,0.3,2.9,7.5,2.9,9.6
						c0,1.8,3.2,14.5,4.5,14.5c0.9,8.4-6.5,12.2-5.2,14.7c3.9,7.4,20,10.7,25.2,3.1c1.7,1.8,21.4-2.1,25.9-3.9
						c5.7-0.3,11.7-5,16.1-7.1c3.5,0,2.3-4.2,5.9-3.3c10.1,2.8,20.7-5.4,30.9-5.4c6.3,0,15,7.5,18.3,7.7c-2.8,2.3,4.5,6,5.3,9
						c2.9,11,14.7-2.4,17.9-5.9c1.1,4.4-4.3,6.5-2.5,11.6c-10.4,2.6,3.4,6.7,4-1.4c1.5,1.7,2.7,9.6,3.3,9.4
						c9.2-1.7,5.6,12.8,14,17.8c10.2,6.1,19.3,4.2,29.9,1.8c-6.5,4.5,10.5,5,8.8,4.8c4.4,0.6,6.4-4.6,7.4-8c0,0.2,11.8-0.2,11.5-0.2
						c6.2-2,0.6-6.9,0.7-8.6c5.6-3,8-18,8.7-24c2.1,0.1,8.9-6,10.2-8.2C1774.9,833.3,1781,820.9,1779.8,811.8z M1668.8,836.3
						C1668.1,837.7,1670.9,832,1668.8,836.3C1668.8,836.3,1669,836,1668.8,836.3z M1524.8,797.8
						C1528.5,800.4,1524.8,798.8,1524.8,797.8C1525.4,798.3,1524.8,797.9,1524.8,797.8z M1723.7,882.9
						C1722.4,881.5,1725.5,884.8,1723.7,882.9C1723.6,882.8,1723.8,883,1723.7,882.9z"/>
					<g>
						<ellipse fill="#F0B2B2" cx="346" cy="207.5" rx="16" ry="9.7"/>
						<path fill="#D11975" d="M345.8,140.9c1.7-5.5,4-9.6,7.1-12.4c3.1-2.8,6.8-4.1,11.2-4.1c4.8,0,8.9,1.6,12.2,4.7
							c3.3,3.1,5,7,5,11.5c0,3-1,6.6-2.9,10.7c-1.9,4.1-4.7,8.6-8.4,13.4l-2.6,3.4c-12.4,16.2-19.6,28.3-21.6,36.2
							c-2.1-8.1-9.4-20.2-21.8-36.3c-1.1-1.4-1.9-2.5-2.5-3.2c-3.7-4.8-6.5-9.3-8.4-13.4c-1.9-4.1-2.9-7.8-2.9-10.9
							c0-4.5,1.7-8.3,5-11.5c3.3-3.1,7.4-4.7,12.2-4.7c4.4,0,8.1,1.4,11.2,4.1C341.6,131.2,344,135.4,345.8,140.9z"/>
					</g>
					<g>
						<ellipse fill="#F0B2B2" cx="170" cy="505.1" rx="16" ry="9.7"/>
						<path fill="#DB4C4C" d="M169.7,422.4c2.1-6.9,5.1-12.1,8.9-15.5c3.8-3.5,8.5-5.2,14.1-5.2c6,0,11.1,2,15.3,5.9
							c4.2,3.9,6.3,8.7,6.3,14.4c0,3.8-1.2,8.3-3.6,13.5c-2.4,5.2-5.9,10.8-10.5,16.8l-3.3,4.3c-15.6,20.3-24.6,35.5-27.1,45.4
							c-2.7-10.1-11.8-25.3-27.3-45.6c-1.4-1.8-2.4-3.1-3.1-4c-4.6-6-8.1-11.6-10.5-16.8c-2.4-5.2-3.6-9.7-3.6-13.6
							c0-5.7,2.1-10.5,6.3-14.4c4.2-3.9,9.3-5.9,15.4-5.9c5.5,0,10.2,1.7,14,5.2C164.5,410.2,167.5,415.4,169.7,422.4z"/>
					</g>
					<g>
						<ellipse fill="#F0B2B2" cx="818.9" cy="497.3" rx="16" ry="9.7"/>
						<path fill="#D11975" d="M818.6,430.7c1.7-5.5,4-9.6,7.1-12.4c3.1-2.8,6.8-4.1,11.2-4.1c4.8,0,8.9,1.6,12.2,4.7
							c3.3,3.1,5,7,5,11.5c0,3-1,6.6-2.9,10.7c-1.9,4.1-4.7,8.6-8.4,13.4l-2.6,3.4c-12.4,16.2-19.6,28.3-21.6,36.2
							c-2.1-8.1-9.4-20.2-21.8-36.3c-1.1-1.4-1.9-2.5-2.5-3.2c-3.7-4.8-6.5-9.3-8.4-13.4c-1.9-4.1-2.9-7.8-2.9-10.9
							c0-4.5,1.7-8.3,5-11.5c3.3-3.1,7.4-4.7,12.2-4.7c4.4,0,8.1,1.4,11.2,4.1C814.5,421.1,816.9,425.2,818.6,430.7z"/>
					</g>
					<g>
						<ellipse fill="#F0B2B2" cx="1400.9" cy="286.6" rx="16" ry="9.7"/>
						<path fill="#DB4C4C" d="M1400.7,203.8c2.1-6.9,5.1-12.1,8.9-15.5c3.8-3.5,8.5-5.2,14.1-5.2c6,0,11.1,2,15.3,5.9
							c4.2,3.9,6.3,8.7,6.3,14.4c0,3.8-1.2,8.3-3.6,13.5s-5.9,10.8-10.5,16.8l-3.3,4.3c-15.6,20.3-24.6,35.5-27.1,45.4
							c-2.7-10.1-11.8-25.3-27.3-45.6c-1.4-1.8-2.4-3.1-3.1-4c-4.6-6-8.1-11.6-10.5-16.8c-2.4-5.2-3.6-9.7-3.6-13.6
							c0-5.7,2.1-10.5,6.3-14.4c4.2-3.9,9.3-5.9,15.4-5.9c5.5,0,10.2,1.7,14,5.2C1395.5,191.7,1398.5,196.9,1400.7,203.8z"/>
					</g>
					<g>
						<ellipse fill="#F0B2B2" cx="332.3" cy="638" rx="16" ry="9.7"/>
						<path fill="#C266C2" d="M332,588.8c1.2-4,2.9-7,5.1-9c2.2-2,4.9-3,8.2-3c3.5,0,6.4,1.1,8.8,3.4c2.4,2.3,3.6,5.1,3.6,8.3
							c0,2.2-0.7,4.8-2.1,7.8c-1.4,3-3.4,6.3-6.1,9.7l-1.9,2.5c-9,11.8-14.3,20.5-15.7,26.3c-1.6-5.9-6.8-14.6-15.8-26.4
							c-0.8-1-1.4-1.8-1.8-2.3c-2.7-3.5-4.7-6.7-6.1-9.7c-1.4-3-2.1-5.6-2.1-7.9c0-3.3,1.2-6.1,3.6-8.3c2.4-2.3,5.4-3.4,8.9-3.4
							c3.2,0,5.9,1,8.1,3C329,581.8,330.8,584.8,332,588.8z"/>
					</g>
					<g>
						<ellipse fill="#F0B2B2" cx="139.4" cy="218.4" rx="16" ry="9.7"/>
						<path fill="#33ADAD" d="M139.1,169.2c1.2-4,2.9-7,5.1-9c2.2-2,4.9-3,8.2-3c3.5,0,6.4,1.1,8.8,3.4c2.4,2.3,3.6,5.1,3.6,8.3
							c0,2.2-0.7,4.8-2.1,7.8c-1.4,3-3.4,6.3-6.1,9.7l-1.9,2.5c-9,11.8-14.3,20.5-15.7,26.3c-1.6-5.9-6.8-14.6-15.8-26.4
							c-0.8-1-1.4-1.8-1.8-2.3c-2.7-3.5-4.7-6.7-6.1-9.7c-1.4-3-2.1-5.6-2.1-7.9c0-3.3,1.2-6.1,3.6-8.3c2.4-2.3,5.4-3.4,8.9-3.4
							c3.2,0,5.9,1,8.1,3C136.1,162.2,137.9,165.2,139.1,169.2z"/>
					</g>
					<g>
						<ellipse fill="#F0B2B2" cx="933.1" cy="441.4" rx="16" ry="9.7"/>
						<path fill="#33ADAD" d="M932.8,392.2c1.2-4,2.9-7,5.1-9c2.2-2,4.9-3,8.2-3c3.5,0,6.4,1.1,8.8,3.4c2.4,2.3,3.6,5.1,3.6,8.3
							c0,2.2-0.7,4.8-2.1,7.8c-1.4,3-3.4,6.3-6.1,9.7l-1.9,2.5c-9,11.8-14.3,20.5-15.7,26.3c-1.6-5.9-6.8-14.7-15.8-26.4
							c-0.8-1-1.4-1.8-1.8-2.3c-2.7-3.5-4.7-6.7-6.1-9.7c-1.4-3-2.1-5.6-2.1-7.9c0-3.3,1.2-6.1,3.6-8.3c2.4-2.3,5.4-3.4,8.9-3.4
							c3.2,0,5.9,1,8.1,3C929.8,385.2,931.6,388.2,932.8,392.2z"/>
					</g>
					<g>
						<ellipse fill="#F0B2B2" cx="423.8" cy="731" rx="16" ry="9.7"/>
						<path fill="#33ADAD" d="M423.5,681.8c1.2-4,2.9-7,5.1-9c2.2-2,4.9-3,8.2-3c3.5,0,6.4,1.1,8.8,3.4c2.4,2.3,3.6,5.1,3.6,8.3
							c0,2.2-0.7,4.8-2.1,7.8c-1.4,3-3.4,6.3-6.1,9.7l-1.9,2.5c-9,11.8-14.3,20.5-15.7,26.3c-1.6-5.9-6.8-14.7-15.8-26.4
							c-0.8-1-1.4-1.8-1.8-2.3c-2.7-3.5-4.7-6.7-6.1-9.7c-1.4-3-2.1-5.6-2.1-7.9c0-3.3,1.2-6.1,3.6-8.3c2.4-2.3,5.4-3.4,8.9-3.4
							c3.2,0,5.9,1,8.1,3C420.5,674.8,422.2,677.8,423.5,681.8z"/>
					</g>
					<g>
						<ellipse fill="#F0B2B2" cx="765" cy="344.7" rx="16" ry="9.7"/>
						<path fill="#33AD5C" d="M764.8,307c0.9-3,2.2-5.2,3.9-6.7c1.7-1.5,3.7-2.3,6.1-2.3c2.6,0,4.8,0.9,6.6,2.6
							c1.8,1.7,2.7,3.8,2.7,6.3c0,1.6-0.5,3.6-1.6,5.8c-1.1,2.3-2.6,4.7-4.6,7.3l-1.4,1.9c-6.8,8.8-10.7,15.4-11.8,19.7
							c-1.2-4.4-5.1-11-11.8-19.8c-0.6-0.8-1.1-1.4-1.4-1.8c-2-2.6-3.5-5-4.6-7.3c-1.1-2.3-1.6-4.2-1.6-5.9c0-2.5,0.9-4.5,2.7-6.3
							c1.8-1.7,4-2.6,6.7-2.6c2.4,0,4.4,0.7,6.1,2.2C762.5,301.7,763.8,304,764.8,307z"/>
					</g>
					<g>
						<ellipse fill="#F0B2B2" cx="529.6" cy="657.1" rx="16" ry="9.7"/>
						<path fill="#33AD5C" d="M529.3,619.4c0.9-3,2.2-5.2,3.9-6.7c1.7-1.5,3.7-2.3,6.1-2.3c2.6,0,4.8,0.9,6.6,2.6
							c1.8,1.7,2.7,3.8,2.7,6.3c0,1.6-0.5,3.6-1.6,5.8c-1.1,2.3-2.6,4.7-4.6,7.3l-1.4,1.9c-6.8,8.8-10.7,15.4-11.8,19.7
							c-1.2-4.4-5.1-11-11.8-19.8c-0.6-0.8-1.1-1.4-1.4-1.8c-2-2.6-3.5-5-4.6-7.3c-1.1-2.3-1.6-4.2-1.6-5.9c0-2.5,0.9-4.5,2.7-6.3
							c1.8-1.7,4-2.6,6.7-2.6c2.4,0,4.4,0.7,6.1,2.2C527.1,614.2,528.4,616.4,529.3,619.4z"/>
					</g>
					<g>
						<ellipse fill="#F0B2B2" cx="197.5" cy="132.7" rx="16" ry="9.7"/>
						<path fill="#33AD5C" d="M197.3,95.1c0.9-3,2.2-5.2,3.9-6.7c1.7-1.5,3.7-2.3,6.1-2.3c2.6,0,4.8,0.9,6.6,2.6
							c1.8,1.7,2.7,3.8,2.7,6.3c0,1.6-0.5,3.6-1.6,5.8c-1.1,2.3-2.6,4.7-4.6,7.3l-1.4,1.9c-6.8,8.8-10.7,15.4-11.8,19.7
							c-1.2-4.4-5.1-11-11.8-19.8c-0.6-0.8-1.1-1.4-1.4-1.8c-2-2.6-3.5-5-4.6-7.3c-1.1-2.3-1.6-4.2-1.6-5.9c0-2.5,0.9-4.5,2.7-6.3
							c1.8-1.7,4-2.6,6.7-2.6c2.4,0,4.4,0.7,6.1,2.2C195,89.8,196.3,92.1,197.3,95.1z"/>
					</g>
					<g>
						<ellipse fill="#F0B2B2" cx="1487.2" cy="155.4" rx="16" ry="9.7"/>
						<path fill="#33AD5C" d="M1487,117.7c0.9-3,2.2-5.2,3.9-6.7c1.7-1.5,3.7-2.3,6.1-2.3c2.6,0,4.8,0.9,6.6,2.6
							c1.8,1.7,2.7,3.8,2.7,6.3c0,1.6-0.5,3.6-1.6,5.8c-1.1,2.3-2.6,4.7-4.6,7.3l-1.4,1.9c-6.8,8.8-10.7,15.4-11.8,19.7
							c-1.2-4.4-5.1-11-11.8-19.8c-0.6-0.8-1.1-1.4-1.4-1.8c-2-2.6-3.5-5-4.6-7.3c-1-2.3-1.6-4.2-1.6-5.9c0-2.5,0.9-4.5,2.7-6.3
							c1.8-1.7,4-2.6,6.7-2.6c2.4,0,4.4,0.7,6.1,2.2C1484.7,112.5,1486,114.7,1487,117.7z"/>
					</g>
					<g>
						<ellipse fill="#F0B2B2" cx="1316.6" cy="327.7" rx="16" ry="9.7"/>
						<path fill="#33AD5C" d="M1316.4,290c0.9-3,2.2-5.2,3.9-6.7c1.7-1.5,3.7-2.3,6.1-2.3c2.6,0,4.8,0.9,6.6,2.6
							c1.8,1.7,2.7,3.8,2.7,6.3c0,1.6-0.5,3.6-1.6,5.8c-1.1,2.3-2.6,4.7-4.6,7.3l-1.4,1.9c-6.8,8.8-10.7,15.4-11.8,19.7
							c-1.2-4.4-5.1-11-11.8-19.8c-0.6-0.8-1.1-1.4-1.4-1.8c-2-2.6-3.5-5-4.6-7.3c-1-2.3-1.6-4.2-1.6-5.9c0-2.5,0.9-4.5,2.7-6.3
							c1.8-1.7,4-2.6,6.7-2.6c2.4,0,4.4,0.7,6.1,2.2C1314.1,284.8,1315.4,287,1316.4,290z"/>
					</g>
					<g>
						<ellipse fill="#F0B2B2" cx="1064.8" cy="230.9" rx="16" ry="9.7"/>
						<path fill="#FF8C40" d="M1064.6,193.3c0.9-3,2.2-5.2,3.9-6.7c1.7-1.5,3.7-2.3,6.1-2.3c2.6,0,4.8,0.9,6.6,2.6
							c1.8,1.7,2.7,3.8,2.7,6.3c0,1.6-0.5,3.6-1.6,5.8c-1.1,2.3-2.6,4.7-4.6,7.3l-1.4,1.9c-6.8,8.8-10.7,15.4-11.8,19.7
							c-1.2-4.4-5.1-11-11.8-19.8c-0.6-0.8-1.1-1.4-1.4-1.8c-2-2.6-3.5-5-4.6-7.3c-1-2.3-1.6-4.2-1.6-5.9c0-2.5,0.9-4.5,2.7-6.3
							c1.8-1.7,4-2.6,6.7-2.6c2.4,0,4.4,0.7,6.1,2.2C1062.3,188,1063.6,190.3,1064.6,193.3z"/>
					</g>
					<g>
						<ellipse fill="#F0B2B2" cx="1448.8" cy="506.1" rx="16" ry="9.7"/>
						<path fill="#FF8C40" d="M1448.6,468.4c0.9-3,2.2-5.2,3.9-6.7c1.7-1.5,3.7-2.3,6.1-2.3c2.6,0,4.8,0.9,6.6,2.6
							c1.8,1.7,2.7,3.8,2.7,6.3c0,1.6-0.5,3.6-1.6,5.8c-1.1,2.3-2.6,4.7-4.6,7.3l-1.4,1.9c-6.8,8.8-10.7,15.4-11.8,19.7
							c-1.2-4.4-5.1-11-11.8-19.8c-0.6-0.8-1.1-1.4-1.4-1.8c-2-2.6-3.5-5-4.6-7.3c-1.1-2.3-1.6-4.2-1.6-5.9c0-2.5,0.9-4.5,2.7-6.3
							c1.8-1.7,4-2.6,6.7-2.6c2.4,0,4.4,0.7,6.1,2.2C1446.3,463.2,1447.6,465.4,1448.6,468.4z"/>
					</g>
					<g>
						<ellipse fill="#F0B2B2" cx="1100.4" cy="499.1" rx="16" ry="9.7"/>
						<path fill="#FF8C40" d="M1100.1,461.4c0.9-3,2.2-5.2,3.9-6.7c1.7-1.5,3.7-2.3,6.1-2.3c2.6,0,4.8,0.9,6.6,2.6
							c1.8,1.7,2.7,3.8,2.7,6.3c0,1.6-0.5,3.6-1.6,5.8c-1.1,2.3-2.6,4.7-4.6,7.3l-1.4,1.9c-6.8,8.8-10.7,15.4-11.8,19.7
							c-1.2-4.4-5.1-11-11.8-19.8c-0.6-0.8-1.1-1.4-1.4-1.8c-2-2.6-3.5-5-4.6-7.3s-1.6-4.2-1.6-5.9c0-2.5,0.9-4.5,2.7-6.3
							c1.8-1.7,4-2.6,6.7-2.6c2.4,0,4.4,0.7,6.1,2.2C1097.9,456.1,1099.2,458.4,1100.1,461.4z"/>
					</g>
					<g>
						<ellipse fill="#F0B2B2" cx="327.1" cy="287.2" rx="16" ry="9.7"/>
						<path fill="#FF8C40" d="M326.8,249.5c0.9-3,2.2-5.2,3.9-6.7c1.7-1.5,3.7-2.3,6.1-2.3c2.6,0,4.8,0.9,6.6,2.6
							c1.8,1.7,2.7,3.8,2.7,6.3c0,1.6-0.5,3.6-1.6,5.8c-1,2.3-2.6,4.7-4.6,7.3l-1.4,1.9c-6.8,8.8-10.7,15.4-11.8,19.7
							c-1.2-4.4-5.1-11-11.8-19.8c-0.6-0.8-1-1.4-1.4-1.8c-2-2.6-3.5-5-4.6-7.3c-1-2.3-1.6-4.2-1.6-5.9c0-2.5,0.9-4.5,2.7-6.3
							c1.8-1.7,4-2.6,6.7-2.6c2.4,0,4.4,0.7,6.1,2.2C324.6,244.3,325.9,246.5,326.8,249.5z"/>
					</g>
					<g>
						<ellipse fill="#F0B2B2" cx="312.2" cy="490.4" rx="16" ry="9.7"/>
						<path fill="#DB4C94" d="M312,452.7c0.9-3,2.2-5.2,3.9-6.7c1.7-1.5,3.7-2.3,6.1-2.3c2.6,0,4.8,0.9,6.6,2.6
							c1.8,1.7,2.7,3.8,2.7,6.3c0,1.6-0.5,3.6-1.6,5.8c-1.1,2.3-2.6,4.7-4.6,7.3l-1.4,1.9c-6.8,8.8-10.7,15.4-11.8,19.7
							c-1.2-4.4-5.1-11-11.8-19.8c-0.6-0.8-1.1-1.4-1.4-1.8c-2-2.6-3.5-5-4.6-7.3c-1-2.3-1.6-4.2-1.6-5.9c0-2.5,0.9-4.5,2.7-6.3
							c1.8-1.7,4-2.6,6.7-2.6c2.4,0,4.4,0.7,6.1,2.2C309.7,447.4,311,449.7,312,452.7z"/>
					</g>
					<g>
						<ellipse fill="#F0B2B2" cx="605.7" cy="82.4" rx="16" ry="9.7"/>
						<path fill="#DB4C94" d="M605.4,44.7c0.9-3,2.2-5.2,3.9-6.7c1.7-1.5,3.7-2.3,6.1-2.3c2.6,0,4.8,0.9,6.6,2.6
							c1.8,1.7,2.7,3.8,2.7,6.3c0,1.6-0.5,3.6-1.6,5.8c-1.1,2.3-2.6,4.7-4.6,7.3l-1.4,1.9c-6.8,8.8-10.7,15.4-11.8,19.7
							c-1.2-4.4-5.1-11-11.8-19.8c-0.6-0.8-1.1-1.4-1.4-1.8c-2-2.6-3.5-5-4.6-7.3c-1-2.3-1.6-4.2-1.6-5.9c0-2.5,0.9-4.5,2.7-6.3
							c1.8-1.7,4-2.6,6.7-2.6c2.4,0,4.4,0.7,6.1,2.2C603.2,39.5,604.5,41.7,605.4,44.7z"/>
					</g>
					<g>
						<path fill="#F0B2B2" d="M78.5,130.1c0,5.3-7.2,9.7-16,9.7c-8.9,0-16-4.3-16-9.7c0-5.3,7.2-9.7,16-9.7
							C71.4,120.4,78.5,124.7,78.5,130.1z"/>
						<path fill="#DB4C94" d="M62.3,92.4c0.9-3,2.2-5.2,3.9-6.7c1.7-1.5,3.7-2.3,6.1-2.3c2.6,0,4.8,0.9,6.6,2.6
							c1.8,1.7,2.7,3.8,2.7,6.3c0,1.6-0.5,3.6-1.6,5.8c-1.1,2.3-2.6,4.7-4.6,7.3l-1.4,1.9c-6.8,8.8-10.7,15.4-11.8,19.7
							c-1.2-4.4-5.1-11-11.8-19.8c-0.6-0.8-1.1-1.4-1.4-1.8c-2-2.6-3.5-5-4.6-7.3c-1.1-2.3-1.6-4.2-1.6-5.9c0-2.5,0.9-4.5,2.7-6.3
							c1.8-1.7,4-2.6,6.7-2.6c2.4,0,4.4,0.7,6.1,2.2C60,87.1,61.3,89.4,62.3,92.4z"/>
					</g>
					<g>
						<ellipse fill="#F0B2B2" cx="749.3" cy="554" rx="16" ry="9.7"/>
						<path fill="#DB4C94" d="M749,516.3c0.9-3,2.2-5.2,3.9-6.7c1.7-1.5,3.7-2.3,6.1-2.3c2.6,0,4.8,0.9,6.6,2.6
							c1.8,1.7,2.7,3.8,2.7,6.3c0,1.6-0.5,3.6-1.6,5.8c-1.1,2.3-2.6,4.7-4.6,7.3l-1.4,1.9c-6.8,8.8-10.7,15.4-11.8,19.7
							c-1.2-4.4-5.1-11-11.8-19.8c-0.6-0.8-1.1-1.4-1.4-1.8c-2-2.6-3.5-5-4.6-7.3c-1.1-2.3-1.6-4.2-1.6-5.9c0-2.5,0.9-4.5,2.7-6.3
							c1.8-1.7,4-2.6,6.7-2.6c2.4,0,4.4,0.7,6.1,2.2C746.8,511.1,748.1,513.3,749,516.3z"/>
					</g>
					<g>
						<ellipse fill="#F0B2B2" cx="975" cy="110.3" rx="16" ry="9.7"/>
						<path fill="#DB4C94" d="M974.7,72.6c0.9-3,2.2-5.2,3.9-6.7c1.7-1.5,3.7-2.3,6.1-2.3c2.6,0,4.8,0.9,6.6,2.6
							c1.8,1.7,2.7,3.8,2.7,6.3c0,1.6-0.5,3.6-1.6,5.8c-1.1,2.3-2.6,4.7-4.6,7.3l-1.4,1.9c-6.8,8.8-10.7,15.4-11.8,19.7
							c-1.2-4.4-5.1-11-11.8-19.8c-0.6-0.8-1.1-1.4-1.4-1.8c-2-2.6-3.5-5-4.6-7.3c-1-2.3-1.6-4.2-1.6-5.9c0-2.5,0.9-4.5,2.7-6.3
							c1.8-1.7,4-2.6,6.7-2.6c2.4,0,4.4,0.7,6.1,2.2C972.5,67.3,973.8,69.6,974.7,72.6z"/>
					</g>
					<g>
						<ellipse fill="#F0B2B2" cx="1258.5" cy="185.6" rx="16" ry="9.7"/>
						<path fill="#DB4C94" d="M1258.2,147.9c0.9-3,2.2-5.2,3.9-6.7c1.7-1.5,3.7-2.3,6.1-2.3c2.6,0,4.8,0.9,6.6,2.6
							c1.8,1.7,2.7,3.8,2.7,6.3c0,1.6-0.5,3.6-1.6,5.8c-1.1,2.3-2.6,4.7-4.6,7.3l-1.4,1.9c-6.8,8.8-10.7,15.4-11.8,19.7
							c-1.2-4.4-5.1-11-11.8-19.8c-0.6-0.8-1.1-1.4-1.4-1.8c-2-2.6-3.5-5-4.6-7.3c-1-2.3-1.6-4.2-1.6-5.9c0-2.5,0.9-4.5,2.7-6.3
							c1.8-1.7,4-2.6,6.7-2.6c2.4,0,4.4,0.7,6.1,2.2C1256,142.6,1257.3,144.9,1258.2,147.9z"/>
					</g>
					<g>
						<ellipse fill="#F0B2B2" cx="38.7" cy="281.6" rx="16" ry="9.7"/>
						<path fill="#FF8C40" d="M38.5,244c0.9-3,2.2-5.2,3.9-6.7c1.7-1.5,3.7-2.3,6.1-2.3c2.6,0,4.8,0.9,6.6,2.6
							c1.8,1.7,2.7,3.8,2.7,6.3c0,1.6-0.5,3.6-1.6,5.9c-1.1,2.3-2.6,4.7-4.6,7.3l-1.4,1.9c-6.8,8.8-10.7,15.4-11.8,19.7
							c-1.2-4.4-5.1-11-11.8-19.8c-0.6-0.8-1.1-1.4-1.4-1.8c-2-2.6-3.5-5-4.6-7.3c-1-2.3-1.6-4.2-1.6-5.9c0-2.5,0.9-4.5,2.7-6.3
							c1.8-1.7,4-2.6,6.7-2.6c2.4,0,4.4,0.7,6.1,2.2C36.2,238.7,37.5,241,38.5,244z"/>
					</g>
					<g>
						<ellipse fill="#F0B2B2" cx="1359.6" cy="140" rx="16" ry="9.7"/>
						<path fill="#33ADAD" d="M1359.3,90.8c1.2-4,2.9-7,5.1-9c2.2-2,4.9-3,8.2-3c3.5,0,6.4,1.1,8.9,3.4c2.4,2.3,3.6,5.1,3.6,8.3
							c0,2.2-0.7,4.8-2.1,7.8c-1.4,3-3.4,6.3-6.1,9.7l-1.9,2.5c-9,11.8-14.3,20.5-15.7,26.3c-1.6-5.9-6.8-14.7-15.8-26.4
							c-0.8-1-1.4-1.8-1.8-2.3c-2.7-3.5-4.7-6.7-6.1-9.7c-1.4-3-2.1-5.6-2.1-7.9c0-3.3,1.2-6.1,3.6-8.3c2.4-2.3,5.4-3.4,8.9-3.4
							c3.2,0,5.9,1,8.1,3C1356.3,83.8,1358.1,86.8,1359.3,90.8z"/>
					</g>
					<g>
						<ellipse fill="#F0B2B2" cx="1215.6" cy="407.6" rx="16" ry="9.7"/>
						<path fill="#33ADAD" d="M1215.3,358.4c1.2-4,2.9-7,5.1-9c2.2-2,4.9-3,8.2-3c3.5,0,6.4,1.1,8.9,3.4c2.4,2.3,3.6,5.1,3.6,8.3
							c0,2.2-0.7,4.8-2.1,7.8c-1.4,3-3.4,6.3-6.1,9.7l-1.9,2.5c-9,11.8-14.3,20.5-15.7,26.3c-1.6-5.9-6.8-14.7-15.8-26.4
							c-0.8-1-1.4-1.8-1.8-2.3c-2.7-3.5-4.7-6.7-6.1-9.7c-1.4-3-2.1-5.6-2.1-7.9c0-3.3,1.2-6.1,3.6-8.3c2.4-2.3,5.4-3.4,8.9-3.4
							c3.2,0,5.9,1,8.1,3C1212.3,351.4,1214.1,354.4,1215.3,358.4z"/>
					</g>
					<g>
						<ellipse fill="#F0B2B2" cx="509.7" cy="123.9" rx="16" ry="9.7"/>
						<path fill="#5C85D6" d="M509.5,86.2c0.9-3,2.2-5.2,3.9-6.7c1.7-1.5,3.7-2.3,6.1-2.3c2.6,0,4.8,0.9,6.6,2.6
							c1.8,1.7,2.7,3.8,2.7,6.2c0,1.6-0.5,3.6-1.6,5.8c-1.1,2.3-2.6,4.7-4.6,7.3l-1.4,1.9c-6.8,8.8-10.7,15.4-11.8,19.7
							c-1.2-4.4-5.1-11-11.8-19.8c-0.6-0.8-1.1-1.4-1.4-1.8c-2-2.6-3.5-5-4.6-7.3c-1-2.3-1.6-4.2-1.6-5.9c0-2.5,0.9-4.5,2.7-6.2
							c1.8-1.7,4-2.6,6.7-2.6c2.4,0,4.4,0.7,6.1,2.2C507.2,81,508.5,83.2,509.5,86.2z"/>
					</g>
					<g>
						<ellipse fill="#F0B2B2" cx="97.6" cy="383.5" rx="16" ry="9.7"/>
						<path fill="#C266C2" d="M97.4,334.3c1.2-4,2.9-7,5.1-9c2.2-2,4.9-3,8.2-3c3.5,0,6.4,1.1,8.8,3.4c2.4,2.3,3.6,5.1,3.6,8.3
							c0,2.2-0.7,4.8-2.1,7.8c-1.4,3-3.4,6.3-6.1,9.7l-1.9,2.5c-9,11.8-14.3,20.5-15.7,26.3c-1.6-5.9-6.8-14.7-15.8-26.4
							c-0.8-1-1.4-1.8-1.8-2.3c-2.7-3.5-4.7-6.7-6.1-9.7c-1.4-3-2.1-5.6-2.1-7.9c0-3.3,1.2-6.1,3.6-8.3c2.4-2.3,5.4-3.4,8.9-3.4
							c3.2,0,5.9,1,8.1,3C94.4,327.3,96.1,330.3,97.4,334.3z"/>
					</g>
					<g>
						<ellipse fill="#F0B2B2" cx="896.3" cy="586.2" rx="16" ry="9.7"/>
						<path fill="#C266C2" d="M896.1,537c1.2-4,2.9-7,5.1-9c2.2-2,4.9-3,8.2-3c3.5,0,6.4,1.1,8.8,3.4c2.4,2.3,3.6,5.1,3.6,8.3
							c0,2.2-0.7,4.8-2.1,7.8c-1.4,3-3.4,6.3-6.1,9.7l-1.9,2.5c-9,11.8-14.3,20.5-15.7,26.3c-1.6-5.9-6.8-14.6-15.8-26.4
							c-0.8-1-1.4-1.8-1.8-2.3c-2.7-3.5-4.7-6.7-6.1-9.7c-1.4-3-2.1-5.6-2.1-7.9c0-3.3,1.2-6.1,3.6-8.3c2.4-2.3,5.4-3.4,8.9-3.4
							c3.2,0,5.9,1,8.1,3C893.1,530,894.8,533,896.1,537z"/>
					</g>
					<g>
						<ellipse fill="#F0B2B2" cx="1126.2" cy="159.4" rx="16" ry="9.7"/>
						<path fill="#C266C2" d="M1125.9,110.2c1.2-4,2.9-7,5.1-9c2.2-2,4.9-3,8.2-3c3.5,0,6.4,1.1,8.8,3.4c2.4,2.3,3.6,5.1,3.6,8.3
							c0,2.2-0.7,4.8-2.1,7.8c-1.4,3-3.4,6.3-6.1,9.7l-1.9,2.5c-9,11.8-14.3,20.5-15.7,26.3c-1.6-5.9-6.8-14.7-15.8-26.4
							c-0.8-1-1.4-1.8-1.8-2.3c-2.7-3.5-4.7-6.7-6.1-9.7c-1.4-3-2.1-5.6-2.1-7.9c0-3.3,1.2-6.1,3.6-8.3c2.4-2.3,5.4-3.4,8.9-3.4
							c3.2,0,5.9,1,8.1,3C1122.9,103.2,1124.7,106.2,1125.9,110.2z"/>
					</g>
					<g>
						<ellipse fill="#F0B2B2" cx="1492.2" cy="341.2" rx="16" ry="9.7"/>
						<path fill="#C266C2" d="M1492,292c1.2-4,2.9-7,5.1-9c2.2-2,4.9-3,8.2-3c3.5,0,6.4,1.1,8.8,3.4c2.4,2.3,3.6,5.1,3.6,8.3
							c0,2.2-0.7,4.8-2.1,7.8c-1.4,3-3.4,6.3-6.1,9.7l-1.9,2.5c-9,11.8-14.3,20.5-15.7,26.3c-1.6-5.9-6.8-14.7-15.8-26.4
							c-0.8-1-1.4-1.8-1.8-2.3c-2.7-3.5-4.7-6.7-6.1-9.7c-1.4-3-2.1-5.6-2.1-7.9c0-3.3,1.2-6.1,3.6-8.3c2.4-2.3,5.4-3.4,8.9-3.4
							c3.2,0,5.9,1,8.1,3C1489,285,1490.7,288,1492,292z"/>
					</g>
					<g>
						<ellipse fill="#F0B2B2" cx="1199.3" cy="282.5" rx="16" ry="9.7"/>
						<path fill="#5C85D6" d="M1199,244.9c0.9-3,2.2-5.2,3.9-6.7c1.7-1.5,3.7-2.3,6.1-2.3c2.6,0,4.8,0.9,6.6,2.6s2.7,3.8,2.7,6.3
							c0,1.6-0.5,3.6-1.6,5.8c-1.1,2.3-2.6,4.7-4.6,7.3l-1.4,1.9c-6.8,8.8-10.7,15.4-11.8,19.7c-1.2-4.4-5.1-11-11.8-19.8
							c-0.6-0.8-1.1-1.4-1.4-1.8c-2-2.6-3.5-5-4.6-7.3c-1.1-2.3-1.6-4.2-1.6-5.9c0-2.5,0.9-4.5,2.7-6.3c1.8-1.7,4-2.6,6.7-2.6
							c2.4,0,4.4,0.7,6.1,2.2C1196.8,239.6,1198.1,241.9,1199,244.9z"/>
					</g>
					<g>
						<ellipse fill="#F0B2B2" cx="949.4" cy="676.4" rx="16" ry="9.7"/>
						<path fill="#5C85D6" d="M949.1,638.7c0.9-3,2.2-5.2,3.9-6.7c1.7-1.5,3.7-2.3,6.1-2.3c2.6,0,4.8,0.9,6.6,2.6
							c1.8,1.7,2.7,3.8,2.7,6.3c0,1.6-0.5,3.6-1.6,5.8c-1.1,2.3-2.6,4.7-4.6,7.3l-1.4,1.9c-6.8,8.8-10.7,15.4-11.8,19.7
							c-1.2-4.4-5.1-11-11.8-19.8c-0.6-0.8-1.1-1.4-1.4-1.8c-2-2.6-3.5-5-4.6-7.3c-1.1-2.3-1.6-4.2-1.6-5.9c0-2.5,0.9-4.5,2.7-6.3
							c1.8-1.7,4-2.6,6.7-2.6c2.4,0,4.4,0.7,6.1,2.2C946.9,633.5,948.2,635.7,949.1,638.7z"/>
					</g>
					<g>
						<ellipse fill="#F0B2B2" cx="1416.8" cy="407.7" rx="16" ry="9.7"/>
						<path fill="#5C85D6" d="M1416.5,370.1c0.9-3,2.2-5.2,3.9-6.7c1.7-1.5,3.7-2.3,6.1-2.3c2.6,0,4.8,0.9,6.6,2.6
							c1.8,1.7,2.7,3.8,2.7,6.3c0,1.6-0.5,3.6-1.6,5.8c-1.1,2.3-2.6,4.7-4.6,7.3l-1.4,1.9c-6.8,8.8-10.7,15.4-11.8,19.7
							c-1.2-4.4-5.1-11-11.8-19.8c-0.6-0.8-1.1-1.4-1.4-1.8c-2-2.6-3.5-5-4.6-7.3c-1.1-2.3-1.6-4.2-1.6-5.9c0-2.5,0.9-4.5,2.7-6.3
							c1.8-1.7,4-2.6,6.7-2.6c2.4,0,4.4,0.7,6.1,2.2C1414.3,364.8,1415.6,367.1,1416.5,370.1z"/>
					</g>
					<g>
						<ellipse fill="#F0B2B2" cx="1320.3" cy="483.6" rx="16" ry="9.7"/>
						<g>
							<g>
								<path fill="#D11975" d="M1291,395.9c-16.1,16.1-16.1,42.3,0,58.5l29.2,29.2l29.2-29.2c16.1-16.2,16.1-42.3,0-58.5
									C1333.3,379.8,1307.1,379.8,1291,395.9z"/>
								<path fill="#F7D9E8" d="M1320.2,393.7c8.4,0,16.3,3.3,22.2,9.2c5.9,5.9,9.2,13.8,9.2,22.2c0,8.4-3.3,16.3-9.2,22.2
									c-5.9,5.9-13.8,9.2-22.2,9.2c-8.4,0-16.3-3.3-22.2-9.2s-9.2-13.8-9.2-22.2c0-8.4,3.3-16.3,9.2-22.2
									C1303.9,396.9,1311.8,393.7,1320.2,393.7"/>
								<g>
									<path fill="#E580B2" d="M1332.5,441.7c2.4-4.6,2.9-9.4,2.9-9.4c1.1,1.5,2.4,1.1,4.2-5c1.8-6.1-1.3-5.3-1.3-5.3
										c1.5-23.4-18-23.5-18-23.5s-19.5,0.1-18,23.5c0,0-3.1-0.8-1.3,5.3c1.8,6.1,3.1,6.6,4.2,5c0,0,0.6,4.8,2.9,9.4
										c0.2,2.7,0.6,5.8,0.3,6.1c-0.3,0.3-5.8,3.5-5.8,3.5l18.2,2.3l16.4-1.7c0.1-1.3,0.1-1,0.2-2.3c-2.8-0.7-4.7-1.6-4.9-1.8
										C1332.2,447.5,1332.3,444.4,1332.5,441.7z"/>
								</g>
								<g>
									<path fill="#DB4C94" d="M1320.4,452.3c-6.6,0-11.9-2-12-4.6c-2.3,0.5-5,1.1-7.8,1.8c5.5,4.4,12.4,6.9,19.6,6.9
										c7.3,0,14.1-2.4,19.7-7c-2.7-0.7-5.3-1.2-7.4-1.7C1332.3,450.3,1327,452.3,1320.4,452.3z"/>
								</g>
							</g>
						</g>
					</g>
					<g>
						<ellipse fill="#F0B2B2" cx="940.9" cy="289.3" rx="16" ry="9.7"/>
						<path fill="#DB4C4C" d="M940.7,206.5c2.1-6.9,5.1-12.1,8.9-15.5c3.8-3.5,8.5-5.2,14.1-5.2c6,0,11.1,2,15.3,5.9
							c4.2,3.9,6.3,8.7,6.3,14.4c0,3.8-1.2,8.3-3.6,13.5s-5.9,10.8-10.5,16.8l-3.3,4.3c-15.6,20.3-24.6,35.5-27.1,45.4
							c-2.7-10.1-11.8-25.3-27.3-45.6c-1.4-1.8-2.4-3.1-3.1-4c-4.6-6-8.1-11.6-10.5-16.8c-2.4-5.2-3.6-9.7-3.6-13.6
							c0-5.7,2.1-10.5,6.3-14.4c4.2-3.9,9.3-5.9,15.4-5.9c5.5,0,10.2,1.7,14,5.2C935.5,194.4,938.5,199.6,940.7,206.5z"/>
					</g>
					<g>
						<ellipse fill="#F0B2B2" cx="1108.4" cy="407.6" rx="16" ry="9.7"/>
						<g>
							<g>
								<path fill="#5C85D6" d="M1079.1,319.9c-16.1,16.1-16.1,42.3,0,58.5l29.2,29.2l29.2-29.2c16.1-16.2,16.1-42.3,0-58.5
									C1121.4,303.7,1095.2,303.7,1079.1,319.9z"/>
								<path fill="#E0E8F7" d="M1108.3,317.6c8.4,0,16.3,3.3,22.2,9.2c5.9,5.9,9.2,13.8,9.2,22.2c0,8.4-3.3,16.3-9.2,22.2
									c-5.9,5.9-13.8,9.2-22.2,9.2c-8.4,0-16.3-3.3-22.2-9.2c-5.9-5.9-9.2-13.8-9.2-22.2c0-8.4,3.3-16.3,9.2-22.2
									C1092.1,320.9,1099.9,317.6,1108.3,317.6"/>
								<g>
									<path fill="#99B2E5" d="M1120.6,365.7c2.4-4.6,2.9-9.4,2.9-9.4c1.1,1.5,2.4,1.1,4.2-5c1.8-6.1-1.3-5.3-1.3-5.3
										c1.5-23.4-18-23.5-18-23.5s-19.5,0.1-18,23.5c0,0-3.1-0.8-1.3,5.3c1.8,6.1,3.1,6.6,4.2,5c0,0,0.6,4.8,2.9,9.4
										c0.2,2.7,0.6,5.8,0.3,6.1c-0.3,0.3-5.8,3.5-5.8,3.5l18.2,2.3l14.6-1.7c0.1-1.3,1.9-1,2-2.3c-2.8-0.7-4.7-1.6-4.9-1.8
										C1120.3,371.5,1120.4,368.4,1120.6,365.7z"/>
								</g>
								<g>
									<path fill="#7A9CDE" d="M1108.6,376.3c-6.6,0-11.9-2-12-4.6c-2.3,0.5-5,1.1-7.8,1.8c5.5,4.4,12.4,6.9,19.6,6.9
										c7.3,0,14.1-2.4,19.7-7c-2.7-0.7-5.3-1.2-7.4-1.7C1120.4,374.3,1115.1,376.3,1108.6,376.3z"/>
								</g>
							</g>
						</g>
					</g>
					<g>
						<ellipse fill="#F0B2B2" cx="1023.8" cy="613" rx="16" ry="9.7"/>
						<g>
							<g>
								<path fill="#19A347" d="M994.5,525.3c-16.1,16.1-16.1,42.3,0,58.5l29.2,29.2l29.2-29.2c16.1-16.2,16.1-42.3,0-58.5
									C1036.8,509.1,1010.6,509.1,994.5,525.3z"/>
								<path fill="#D9F0E0" d="M1023.7,523c8.4,0,16.3,3.3,22.2,9.2c5.9,5.9,9.2,13.8,9.2,22.2c0,8.4-3.3,16.3-9.2,22.2
									c-5.9,5.9-13.8,9.2-22.2,9.2s-16.3-3.3-22.2-9.2c-5.9-5.9-9.2-13.8-9.2-22.2c0-8.4,3.3-16.3,9.2-22.2
									C1007.5,526.3,1015.3,523,1023.7,523"/>
								<g>
									<path fill="#80CC99" d="M1036,571.1c2.4-4.6,2.9-9.4,2.9-9.4c1.1,1.5,2.4,1.1,4.2-5c1.8-6.1-1.3-5.3-1.3-5.3
										c1.5-23.4-18-23.5-18-23.5s-19.5,0.1-18,23.5c0,0-3.1-0.8-1.3,5.3c1.8,6.1,3.1,6.6,4.2,5c0,0,0.6,4.8,2.9,9.4
										c0.2,2.7,0.6,5.8,0.3,6.1c-0.3,0.3-5.8,3.5-5.8,3.5l18.2,2.3l16.4-1.7c0.1-1.3,0.1-1,0.2-2.3c-2.8-0.7-4.7-1.6-4.9-1.8
										C1035.7,576.9,1035.8,573.8,1036,571.1z"/>
								</g>
								<g>
									<path fill="#4CB870" d="M1024,581.7c-6.6,0-11.9-2-12-4.6c-2.3,0.5-5,1.1-7.8,1.8c5.5,4.4,12.4,6.9,19.6,6.9
										c7.3,0,14.1-2.4,19.7-7c-2.7-0.7-5.3-1.2-7.4-1.7C1035.8,579.7,1030.5,581.7,1024,581.7z"/>
								</g>
							</g>
						</g>
					</g>
					<g>
						<ellipse fill="#F0B2B2" cx="208.2" cy="347.9" rx="16" ry="9.7"/>
						<g>
							<g>
								<path fill="#19A3A3" d="M178.9,260.2c-16.1,16.1-16.1,42.3,0,58.5l29.2,29.2l29.2-29.2c16.1-16.2,16.1-42.3,0-58.5
									C221.2,244,195,244,178.9,260.2z"/>
								<path fill="#D9F0F0" d="M208.1,257.9c8.4,0,16.3,3.3,22.2,9.2c5.9,5.9,9.2,13.8,9.2,22.2c0,8.4-3.3,16.3-9.2,22.2
									c-5.9,5.9-13.8,9.2-22.2,9.2c-8.4,0-16.3-3.3-22.2-9.2c-5.9-5.9-9.2-13.8-9.2-22.2c0-8.4,3.3-16.3,9.2-22.2
									C191.8,261.2,199.7,257.9,208.1,257.9"/>
								<g>
									<path fill="#80CCCC" d="M220.4,306c2.4-4.6,2.9-9.4,2.9-9.4c1.1,1.5,2.4,1.1,4.2-5c1.8-6.1-1.3-5.3-1.3-5.3
										c1.5-23.4-18-23.5-18-23.5s-19.5,0.1-18,23.5c0,0-3.1-0.8-1.3,5.3c1.8,6.1,3.1,6.6,4.2,5c0,0,0.6,4.8,2.9,9.4
										c0.2,2.7,0.6,5.8,0.3,6.1c-0.3,0.3-5.8,3.5-5.8,3.5l18.2,2.3l16.4-1.7c0.1-1.3,0.1-1,0.2-2.3c-2.8-0.7-4.7-1.6-4.9-1.8
										C220.1,311.8,220.2,308.7,220.4,306z"/>
								</g>
								<g>
									<path fill="#4CB8B8" d="M208.3,316.6c-6.6,0-11.9-2-12-4.6c-2.3,0.5-5,1.1-7.8,1.8c5.5,4.4,12.4,6.9,19.6,6.9
										c7.3,0,14.1-2.4,19.7-7c-2.7-0.7-5.3-1.2-7.4-1.7C220.2,314.6,214.9,316.6,208.3,316.6z"/>
								</g>
							</g>
						</g>
					</g>
					<g>
						<ellipse fill="#F0B2B2" cx="438.2" cy="617.7" rx="16" ry="9.7"/>
						<g>
							<g>
								<path fill="#FF7519" d="M408.8,529.9c-16.1,16.1-16.1,42.3,0,58.5l29.2,29.2l29.2-29.2c16.1-16.2,16.1-42.3,0-58.5
									C451.2,513.8,425,513.8,408.8,529.9z"/>
								<path fill="#FFE8D9" d="M438.1,527.7c8.4,0,16.3,3.3,22.2,9.2c5.9,5.9,9.2,13.8,9.2,22.2c0,8.4-3.3,16.3-9.2,22.2
									c-5.9,5.9-13.8,9.2-22.2,9.2c-8.4,0-16.3-3.3-22.2-9.2c-5.9-5.9-9.2-13.8-9.2-22.2c0-8.4,3.3-16.3,9.2-22.2
									C421.8,531,429.7,527.7,438.1,527.7"/>
								<g>
									<path fill="#FFB280" d="M450.3,575.7c2.4-4.6,2.9-9.4,2.9-9.4c1.1,1.5,2.4,1.1,4.2-5c1.8-6.1-1.3-5.3-1.3-5.3
										c1.5-23.4-18-23.5-18-23.5s-19.5,0.1-18,23.5c0,0-3.1-0.8-1.3,5.3c1.8,6.1,3.1,6.6,4.2,5c0,0,0.6,4.8,2.9,9.4
										c0.2,2.7,0.6,5.8,0.3,6.1c-0.3,0.3-5.8,3.5-5.8,3.5l18.2,2.3l16.4-1.7c0.1-1.3,0.1-1,0.2-2.3c-2.8-0.7-4.7-1.6-4.9-1.8
										C450,581.5,450.2,578.4,450.3,575.7z"/>
								</g>
								<g>
									<path fill="#FF944C" d="M438.3,586.4c-6.6,0-11.9-2-12-4.6c-2.3,0.5-5,1.1-7.8,1.8c5.5,4.4,12.4,6.9,19.6,6.9
										c7.3,0,14.1-2.4,19.7-7c-2.7-0.7-5.3-1.2-7.4-1.7C450.2,584.3,444.9,586.4,438.3,586.4z"/>
								</g>
							</g>
						</g>
					</g>
					<g>
						<ellipse fill="#F0B2B2" cx="784.2" cy="250.2" rx="16" ry="9.7"/>
						<g>
							<g>
								<path fill="#D11919" d="M754.9,162.4c-16.1,16.1-16.1,42.3,0,58.5l29.2,29.2l29.2-29.2c16.1-16.2,16.1-42.3,0-58.5
									C797.2,146.3,771,146.3,754.9,162.4z"/>
								<path fill="#F7D9D9" d="M784.1,160.2c8.4,0,16.3,3.3,22.2,9.2c5.9,5.9,9.2,13.8,9.2,22.2c0,8.4-3.3,16.3-9.2,22.2
									c-5.9,5.9-13.8,9.2-22.2,9.2c-8.4,0-16.3-3.3-22.2-9.2c-5.9-5.9-9.2-13.8-9.2-22.2c0-8.4,3.3-16.3,9.2-22.2
									C767.8,163.4,775.7,160.2,784.1,160.2"/>
								<g>
									<path fill="#E58080" d="M796.4,208.2c2.4-4.6,2.9-9.4,2.9-9.4c1.1,1.5,2.4,1.1,4.2-5c1.8-6.1-1.3-5.3-1.3-5.3
										c1.5-23.4-18-23.5-18-23.5s-19.5,0.1-18,23.5c0,0-3.1-0.8-1.3,5.3c1.8,6.1,3.1,6.6,4.2,5c0,0,0.6,4.8,2.9,9.4
										c0.2,2.7,0.6,5.8,0.3,6.1c-0.3,0.3-5.8,3.5-5.8,3.5l18.2,2.3l16.4-1.7c0.1-1.3,0.1-1,0.2-2.3c-2.8-0.7-4.7-1.6-4.9-1.8
										C796.1,214,796.2,210.9,796.4,208.2z"/>
								</g>
								<g>
									<path fill="#DB4C4C" d="M784.3,218.9c-6.6,0-11.9-2-12-4.6c-2.3,0.5-5,1.1-7.8,1.8c5.5,4.4,12.4,6.9,19.6,6.9
										c7.3,0,14.1-2.4,19.7-7c-2.7-0.7-5.3-1.2-7.4-1.7C796.2,216.8,790.9,218.9,784.3,218.9z"/>
								</g>
							</g>
						</g>
					</g>
				</g>
			</g>
		</g>
	</g>
</g>
</svg>
