<?xml version="1.0" encoding="utf-8"?>
<!-- Generator: Adobe Illustrator 18.0.0, SVG Export Plug-In . SVG Version: 6.00 Build 0)  -->
<!DOCTYPE svg PUBLIC "-//W3C//DTD SVG 1.1//EN" "http://www.w3.org/Graphics/SVG/1.1/DTD/svg11.dtd">
<svg version="1.1" id="Layer_1" xmlns="http://www.w3.org/2000/svg" xmlns:xlink="http://www.w3.org/1999/xlink" x="0px" y="0px"
	 viewBox="0 0 48 54" enable-background="new 0 0 48 54" xml:space="preserve">
<g>
	<path fill="#FF8533" d="M24,11.2c1.1-3.7,2.7-6.5,4.8-8.4C30.9,0.9,33.4,0,36.4,0c3.2,0,6,1.1,8.2,3.2c2.2,2.1,3.4,4.7,3.4,7.8
		c0,2-0.6,4.5-2,7.3c-1.3,2.8-3.2,5.8-5.7,9.1l-1.8,2.3C30.2,40.5,25.3,48.7,24,54c-1.5-5.5-6.4-13.6-14.7-24.5
		c-0.7-1-1.3-1.7-1.7-2.2c-2.5-3.2-4.4-6.3-5.7-9.1c-1.3-2.8-2-5.2-2-7.3c0-3,1.1-5.6,3.4-7.8C5.6,1.1,8.4,0,11.6,0
		c3,0,5.5,0.9,7.5,2.8C21.2,4.6,22.8,7.4,24,11.2z"/>
</g>
</svg>
