<?xml version="1.0" encoding="utf-8"?>
<!-- Generator: Adobe Illustrator 18.0.0, SVG Export Plug-In . SVG Version: 6.00 Build 0)  -->
<!DOCTYPE svg PUBLIC "-//W3C//DTD SVG 1.1//EN" "http://www.w3.org/Graphics/SVG/1.1/DTD/svg11.dtd">
<svg version="1.1" id="Layer_1" xmlns="http://www.w3.org/2000/svg" xmlns:xlink="http://www.w3.org/1999/xlink" x="0px" y="0px"
	 viewBox="341.2 -25.1 600 690" enable-background="new 341.2 -25.1 600 690" xml:space="preserve">
<g>
	<path fill="#BD2C14" d="M906.3,349.2c19.2,0,35-15.7,35-35v-252c0-19.2-15.7-35-35-35H376.2c-19.2,0-35,15.7-35,35v252
		c0,19.2,15.7,35,35,35H906.3z"/>
	<g>
		<path fill="#FF8533" d="M906.3,349.2c19.2,0,35-15.7,35-35v-252c0-19.2-15.7-35-35-35H376.2c-19.2,0-35,15.7-35,35v252
			c0,19.2,15.7,35,35,35H906.3z"/>
	</g>
	<path fill="#FF6600" d="M906.5,174.4c7.6,0,13.9,6.2,13.9,13.9c0,7.6-6.2,13.9-13.9,13.9c-7.6,0-13.9-6.2-13.9-13.9
		C892.7,180.6,898.9,174.4,906.5,174.4 M906.5,166.4c-12,0-21.8,9.7-21.8,21.8c0,12,9.8,21.8,21.8,21.8c12,0,21.8-9.8,21.8-21.8
		C928.3,176.2,918.6,166.4,906.5,166.4L906.5,166.4z"/>
	<g>
		<path fill="#EDCAAB" d="M808.9,349.1c-13.3-8.8-30.4-14.7-47-14.7c-40.1,0-71.7,14.7-71.7,14.7h-7.1H415.3
			c-1.1,34.5-1.6,107,12,135.4c18.1,37.9,48.3,119.8,48.3,119.8l23,60.6H701l-32.4-90.8c-31.2-85.3-10.8-84,17.7-106.9
			c28.4-22.8,44.4-59.5,79.3-64.2c29.7-4,51.9,19.8,65.5-7.3C839,379.9,827.7,361.6,808.9,349.1z"/>
		<path fill="#FF8533" d="M460.5,565.4c2.9,7.4,5.5,14.2,7.7,20.1c-0.6,0.9-1.1,1.7-1.2,2.4c0.5,0.4,1.4,0.9,2.7,1.5c0,0,0,0,0.1,0
			l24.9,3.3c20.4,0,46.4-3.9,73.3-11.1c48.6-12.9,78.9-30.5,88-40.3c0.5-0.6,1-1.1,1.3-1.6c0.8-1,1.3-1.9,1.5-2.7
			c-0.4-0.4-1.2-0.9-2.5-1.4c-2-8.5-3-15.5-3.1-21.4c14.1,2.8,22.5,8.7,24.9,17.6c2.5,9.4-2.4,19.1-14.4,29
			c-0.2,0.1-0.3,0.3-0.5,0.4c-4.2,3.4-9.3,6.8-15.2,10.2c-19.2,11.2-45.8,21.6-74.9,29.3c-28.5,7.6-56.3,11.7-78.4,11.7
			c-6.1,0-11.6-0.3-16.5-1c-0.1,0-0.1,0-0.2,0c-17.4-2.3-27.7-8.4-30.3-18.5C445.1,583.4,450.5,574,460.5,565.4z"/>
		<path fill="#EDCAAB" d="M555.7,11.1c0,12.8-13.5,23.3-30.2,23.3c-16.7,0-30.2-10.4-30.2-23.3c0-12.9,13.5-23.3,30.2-23.3
			C542.2-12.1,555.7-1.7,555.7,11.1z"/>
		<ellipse fill="#EDCAAB" cx="588.7" cy="7.7" rx="33" ry="26.7"/>
		<path fill="#EDCAAB" d="M764.3,11.1c0,14.8-14.8,26.7-33,26.7s-33-12-33-26.7c0-14.8,14.8-26.7,33-26.7S764.3-3.6,764.3,11.1z"/>
		<ellipse fill="#EDCAAB" cx="658.7" cy="5.5" rx="37.7" ry="30.6"/>
		<path fill="#F1D7C0" d="M544.1,5.2c-4.4,4.1-11.1,6.7-18.6,6.7c-7.5,0-14.1-2.6-18.6-6.7c4.4-4.1,11.1-6.7,18.6-6.7
			C533-1.6,539.7,1.1,544.1,5.2z"/>
		<path fill="#F1D7C0" d="M588.7-7.8c9.1,0,17.2,3.8,21.9,9.5c-4.7,5.7-12.8,9.5-21.9,9.5s-17.2-3.8-21.9-9.5
			C571.5-4,579.5-7.8,588.7-7.8z"/>
		<path fill="#F1D7C0" d="M731.3-4.3c9.1,0,17.2,3.8,21.9,9.5c-4.7,5.7-12.8,9.5-21.9,9.5c-9.1,0-17.2-3.8-21.9-9.5
			C714.1-0.5,722.2-4.3,731.3-4.3z"/>
		<path fill="#F1D7C0" d="M658.7-13c11.4,0,21.2,5.1,26.4,12.6c-5.2,7.5-15,12.6-26.4,12.6c-11.4,0-21.2-5.1-26.4-12.6
			C637.5-7.9,647.4-13,658.7-13z"/>
		<path fill="#F1D7C0" d="M783.9,381.6c15.8,0,28.7,11.9,30.5,27.2c-12.8,1.1-29.1-8.4-48.8-5.8c-4.2,0.6-8.1,1.6-11.8,3
			C756.7,392.1,769,381.6,783.9,381.6z"/>
	</g>
</g>
</svg>
