<?xml version="1.0" encoding="utf-8"?>
<!-- Generator: Adobe Illustrator 18.0.0, SVG Export Plug-In . SVG Version: 6.00 Build 0)  -->
<!DOCTYPE svg PUBLIC "-//W3C//DTD SVG 1.1//EN" "http://www.w3.org/Graphics/SVG/1.1/DTD/svg11.dtd">
<svg version="1.1" id="Layer_1" xmlns="http://www.w3.org/2000/svg" xmlns:xlink="http://www.w3.org/1999/xlink" x="0px" y="0px"
	 viewBox="0 0 1248 779.6" enable-background="new 0 0 1248 779.6" xml:space="preserve">
<g>
	<text transform="matrix(1 0 0 1 53.856 753.0623)"><tspan x="0" y="0" fill="#222222" font-family="'Helvetica'" font-size="35.9754">Badoo </tspan><tspan x="114" y="0" fill="#222222" font-family="'Helvetica-Bold'" font-size="39.9727">4</tspan></text>
	<g>
		<path fill="#FF944C" d="M38.4,738.3c0,10.4-8.5,19-19,19s-19-8.5-19-19s8.5-19,19-19S38.4,727.9,38.4,738.3z"/>
		
			<path fill="none" stroke="#FFFFFF" stroke-width="0.4997" stroke-linecap="round" stroke-linejoin="round" stroke-miterlimit="10" d="
			M38.4,738.3c0,10.4-8.5,19-19,19s-19-8.5-19-19s8.5-19,19-19S38.4,727.9,38.4,738.3z"/>
	</g>
	<g>
		<g>
			<defs>
				<rect id="SVGID_1_" x="0.4" y="0" width="1247.1" height="701.5"/>
			</defs>
			<clipPath id="SVGID_2_">
				<use xlink:href="#SVGID_1_"  overflow="visible"/>
			</clipPath>
			<g clip-path="url(#SVGID_2_)">
				
					<path fill="#EDEDED" stroke="#FFFFFF" stroke-width="2" stroke-linecap="round" stroke-linejoin="round" stroke-miterlimit="10" d="
					M704.1-35.1c-8.6-2.4-15.3,0.5-23.7,1c0,0-5,1.8-5.9,2c1.7-0.6,1.2-3.9,2-6c4.7,0,9.2,0.9,13.9,0c1.1-5.2-0.3-7.3,2-12
					c6.3,0.8-2-4-2-4c-5.3-0.7-2.7,2.8-7.9,2v-4c-5.1-1.9-2.9,3.8-7.9,2v-4c-3.2,1.7-3.2-4.4-4-6c5-1.9,4.9-1.9,7.9-4
					c-6.9,0-15,0-21.8,0c0,0,5,4,4,4c-3.5-0.1-6.6-2.4-7.9-2c-0.4,0.1-3.7,5.9-4,6c-8.4,1.4-16.1-1.4-21.8-2v-4
					c-9.2-1.7-20.7,4.2-27.7,6c-1.4-7.8-2.7-16-13.9-18.1c-1.9-0.4-6.4,1-7.9,0c-0.4-0.3,0-5.6,0-6c-0.8-0.3-5.1-1.3-5.9-2
					c0.6,1.1,0,4.8,0,6c4.5-0.1,3.7,4.4,5.9,6c-8.2,2.1-12.2,1.7-19.8,4c0.8,3.8-1.2,8.3,0,12c0.2,0.6,15.4,16.3,4,18.1
					c-13.1,1.9-10-8.4-11.9-18.1c2.4-0.9,5.1,0,5.9-2c0.8-2.3-1.2-3.9,0-6h-4c-0.2-0.1,1.7-3.6,2-4c-1.6-0.6-4-1.1-5.9-2
					c0-0.7,0-1.3,0-2c4.1-3.4,7.4-4.5,11.9-8c-0.6-1-1.4-2.7-2.4-4.7c-2.5,1.6-6.6,4.2-6.6,4.2l-7.9,6.6L538.1-63l-5.7,2.1
					c0,0,2.1,5.2,0,9.4c-2.1,4.2,1,4.2-2.1,11c-3.1,6.8,1.6,5.2,1.6,5.2l5.2-1l5.7,12c0,0-3.1,0-2.6,3.7c0.5,3.6,2.6,4.7,5.2,8.9
					c2.6,4.2,2.1,7.8,2.1,7.8l9.3,2.1c0,0,7.2,1.1,10.8,0c3.6-1,6.7-0.5,8.3,2.6c1.5,3.1,6.2,10.4,6.2,10.4s6.2-0.5,9.8-0.5
					c3.6,0,8.3,1.6,8.3,1.6l-1,7.8c0,0-3.6,2.1-2.6,7.3c1,5.2,6.7,7.3,7.2,9.9c0.5,2.6,4.6,5.7,6.7,8.4c2.1,2.6,12.4,7.8,12.4,7.8
					s-2.6,6.8-3.1,9.9c-0.5,3.1-5.7,6.3-5.7,6.3s-1.5,8.4,2.1,5.7c3.6-2.6,2.1,0.5,3.1,3.7c1,3.1,3.1,5.7,3.1,5.7l-1,7.8l6.7,4.7
					c0,0,4.6-4.2,8.3-4.2c3.6,0,4.1-6.3,7.2-6.3c3.1,0,4.1-3.1,6.7-3.1c2.6,0,4.1-8.4,7.2-8.4c3.1,0,4.6-2.1,4.6-2.1s-1-5.2-4.6-4.2
					c-3.6,1-7.2,3.1-9.3,1.6c-2.1-1.6-4.1-2.1-5.2-5.2c-1-3.1,2.1-8.9,1.5-11c-0.5-2.1-1-3.1-3.6-6.8c-2.6-3.6,0-6.3-2.6-7.3
					c-2.6-1-3.6-2.6,1.5-2.1c5.2,0.5,9.3,3.1,9.3,3.1s6.2,0,8.3,2.1c2.1,2.1,8.3,2.1,8.3,2.1s-3.1-1-1.5-3.7
					c1.5-2.6,4.1-2.1,4.1-2.1s3.6,1,7.2,1c3.6,0,2.6-3.1,5.7-3.7c3.1-0.5,3.1-5.7,5.7-5.7c2.6,0,6.2-1,6.2-1l1.5-4.2l-0.5-4.2
					L682.5,4.4l5.2-2.6c0,0-2.6-5.7,0.5-5.7c3.1,0,11.3-1,11.3-4.2c0-3.1-4.6-3.7-4.6-3.7s-1-5.8-3.1-6.3c-2.1-0.5-3.1-5.2-0.5-5.2
					c2.6,0,6.7-1,9.8-3.1c3.1-2.1,2.5-3.5,2.5-3.5L704.1-35.1z"/>
				
					<path fill="#EDEDED" stroke="#FFFFFF" stroke-width="2" stroke-linecap="round" stroke-linejoin="round" stroke-miterlimit="10" d="
					M791.4,662.2l-2.5-5.7l5.7-9.2c0,0-1.6-2.3-5.2-3.9c-3.6-1.6-4.6-4.7-5.7-8.9c-1-4.2-4.1-3.1-8.8-5.7c-4.6-2.6-5.2-3.6-7.7-6.8
					c-2.6-3.1-7.2-1.6-8.8-5.2c-1.5-3.7-2.6-6.8-2.6-6.8l-11.4-7.3l-9.3,3.1c0,0-4.6,4.2-3.1,9.9c1.5,5.7-4.1,4.2-3.1,10.4
					c1,6.3-4.1,8.4-2.6,11.5c1,2.1,0.4,6.2-0.1,8.7c0.9,2.1,3.6,9.4-0.3,7.5c0.6,7.8,1.4,14.4,2,20.1c3.4,1.5,6.3,0.1,9.9,2
					c1.5,0.8,2.3,5.1,4,6c9.2,5.1,10.7,2.1,19.8,0c0,0,7.9,3,11.9,2C776.7,683,785,672,791.4,662.2z"/>
				
					<path fill="#EDEDED" stroke="#FFFFFF" stroke-width="2" stroke-linecap="round" stroke-linejoin="round" stroke-miterlimit="10" d="
					M743.5,6.8c-2.1,2.7-5.4,7.1-5.8,8.5c-0.5,2.1,0,4.7-0.5,7.8c-0.5,3.1-4.1,4.2-6.7,6.3c-2.6,2.1,2.1,6.3,1.5,9.4
					c-0.5,3.1,1.6,8.2,1.6,8.2s1.5,1.6,3.6,3.1c2.1,1.6,0,8.4,0,8.4l7.2,13.2l5.3,7.2l6.5-1v3.1l3.6-5.8l-4.6-3.1l2.1-7.3l4.8,3.1
					l3.6-2.6l2.1,3.1h6.2c0,0,3.1-4.7,5.2-9.4c2.1-4.7,2.6-11,2.6-11s-7.2-6.3-7.2-11c0-4.7-0.5-16.7-0.5-16.7l5.6-10.6
					c-0.1-0.1,0-5.8,0-6c-13.9-1.9-16.8-0.4-33.7-2c-0.7,3.8,1.6,4.7-2,6L743.5,6.8z"/>
				
					<path fill="#EDEDED" stroke="#FFFFFF" stroke-width="2" stroke-linecap="round" stroke-linejoin="round" stroke-miterlimit="10" d="
					M503,107.3l-4.6,3.7l4.1,2.6c0,0,0.5,3.7,1.5,8.4c1,4.7,0.5,9.4,0.5,9.4h-2.6c0,0,1,9.9-9.3,16.2c-10.3,6.3-14.4,8.4-16.5,11
					c-2.1,2.6-2.6,4.1-5.1,7.4c-3.2,4.2-5.7,6.3-8.3,14.6c-1.4,4.5-7.2,6.8-7.2,6.8s-2.6,1.6-3.6-2.6c-1-4.2-3.6-7.8-3.6-7.8
					s-2.6,3.7-5.2,3.7c-2.6,0-5.7-4.2-5.7-4.2l5.7-4.2l-1.5-2.6l-1.2-3.4l-1.3,1c-3.9,3.6-7.8,7.8-8.3,11.4c-0.6,3.4,4,10,4,10
					c-0.7,0.3-4.6,1.6-2,4c0.4,0.4,3.9,1.9,4,2c0.6,4.9-3.5,6.5-2,10c1.2,2.8,11.8,7.6,13.9,10c2.3,2.6,1.7,7.2,4,10
					c1.5,1.8,6.1,2.2,7.9,4c2.2,2.2,2,7.3,4,10c1.7,2.3,6.3,3.6,7.9,6c6.7,10,6.4,20.3,9.9,34.1c2.7,11.1,22.2,42.1,19.8,52.1l-2,4
					c1.2,2.1,6.9,6,7.9,8c2.6,5.1,0.8,8.2,4,12c1.9,2.3,11,5.9,13.9,8c1.4,1,2.4,5,4,6c12.8,8,27.5,13.9,36.6,25.7l0.4,0.4
					c0,0,3.4-3.3,4.4-6.4c1-3.1,7.3-6.9,7.3-6.9s5.5-8.6,7.5-11.7c1.5-2.2,0.8-4.7,0.2-6c-1.6-0.5-8.2-2.8-8.8-3.1
					c0.2-0.5,2.4-4,2-4c-2.5-0.7-3.2-5.3,0-4c2.1,0.8,3.4,1.9,4.4,3.2c-0.2-1.2-0.6-2.7-1.4-3.8c-1.5-2.1,1-5.2,1-5.2
					s-2.1-4.2-3.6-7.8c-1.5-3.7,1-11,1-11l3.6-9.9l-8.3-16.7l-14.4-4.7l2.6-39.2c0,0,1-5.7-2.1-3.1c-3.1,2.6-9.8,6.3-9.8,6.3h-11.9
					c0,0-2.6-2.6-2.6-5.8c0-3.1-7.7-5.2-8.8-8.9c-1-3.7-7.7-6.3-7.7-6.3l2.1-6.3c0,0,0-6.3-2.1-6.8c-2.1-0.5-2.1-6.8-2.6-9.4
					c-0.5-2.6,5.7,0,5.7,0s-0.5-3.1,0-6.8c0.5-3.7,2.1-5.2,4.1-8.9c2.1-3.7,1.5-8.4,3.1-11.5c1.5-3.1,7.7-5.2,10.8-8.4
					c3.1-3.1,8.3-3.7,11.3-4.7c3.1-1,6.7-1,10.3-1c3.6,0,4.1-4.7,4.1-4.7l-4.1-2.6h-6.2l12.9-25.1c0,0-2.6-4.2-6.2-4.2
					c-3.6,0-8.3-1-9.8-3.1c-1.5-2.1-9.3-1.6-9.3-1.6l-1,4.2c0,0-4.6-2.1-7.2-2.1c-2.6,0-4.1-4.7-4.1-4.7l-0.5-4.7l-7.2-0.5
					c0,0-6.7-3.7-6.2-5.7c0.5-2.1-3.1-7.3-5.7-7.3c-2.6,0-2.6-6.8-2.6-6.8H503z"/>
				
					<path fill="#EDEDED" stroke="#FFFFFF" stroke-width="2" stroke-linecap="round" stroke-linejoin="round" stroke-miterlimit="10" d="
					M725.3,422.4l-5.3-4.9l-11.9-3.5l-15.3,1.5c0,0-7.2,9.9-7.2,12c0,2.1-4.6,8.9-4.6,8.9v5.2l-7.7,18.3l7.2,4.7
					c0,0,2.1,3.7,3.6,6.3c1.5,2.6,2.1,5.8,5.2,6.3c3.1,0.5,3.1,3.1,5.2,5.8c2.1,2.6,1.5,9.4,5.7,9.4c4.1,0,4.1,1.6,7.7,6.3
					c3.6,4.7,6.2,1,8.8,3.7c2.6,2.6,3.1,3.6,5.2,4.7c2.1,1,4.1,6.8,8.3,9.4c4.1,2.6,0.5,5.7,0.5,9.9c0,4.2-3.1,9.4-5.7,12.5
					c-2.6,3.1-5.2,9.9-5.2,9.9s2.1,1.6,4.6,0.5c2.6-1,6.2-0.5,9.3,1.6c3.1,2.1,5.7,1.6,8.8,1c3.1-0.5,7.2,0,10.8,1.1
					c3.6,1,7.2-0.7,7.2-0.7s0.7,0.3,1.7-2.9c1-3.1,4-5.8,6.5-7.9c2.6-2.1,2.6-10.5,1-12.5c-1.5-2.1,2.1-7.3,2.1-7.3
					s-0.5-12,1.6-15.2c2.1-3.1,2.1-11,2.1-13.1c0-2.1-4.6,0-7.2,1.1c-2.6,1-3.1-3.1-3.6-7.3c-0.5-4.2,0.5-9.9,0.5-14.6
					c0-4.7-2.6-6.3-6.7-6.8c-4.1-0.5-3.6-4.7-3.6-4.7l-2.1-3.1l-3.6,2.1c0,0-15,0-14.4-3.7c0.5-3.6-3.1-5.7-2.1-11
					c1-5.2,1.5-9.4-0.5-12.5c-2.1-3.1-3.5-5.5-3.5-5.5L725.3,422.4z"/>
				
					<path fill="#EDEDED" stroke="#FFFFFF" stroke-width="2" stroke-linecap="round" stroke-linejoin="round" stroke-miterlimit="10" d="
					M743.4,6.9c-1.1-4,1.2-8.2-1.6-10.9c-1-1-4.6,0.5-5.9,0c-0.8-0.3-3.5-5.4-4-6c-4.3,0.7-3.7,2.4-7.9,2c0,1,0.6,7.4,0,8
					c-0.9,0.7-0.6-5-3.3-2.5c4.1-8.6,0.6-8.8,3.3-19.6c-2.1-1.4-3.8,1.1-5.9,0v-4c-1.1-0.4-4.7-1.1-5.9-2c-1.3-1-2.5-5.4-4-6
					c-2.5-1.1-2.1-0.6-4.2-0.9l-0.4,5.1c0,0,0.6,1.4-2.5,3.5c-3.1,2.1-7.2,3.1-9.8,3.1c-2.6,0-1.6,4.7,0.5,5.2
					c2.1,0.5,3.1,6.3,3.1,6.3s4.6,0.5,4.6,3.7c0,3.1-8.3,4.2-11.3,4.2c-3.1,0-0.5,5.7-0.5,5.7l-5.2,2.6l11.3,17.8
					c0,0,7.2,3.1,9.8,2.1c2.6-1,3.1,3.7,3.1,3.7l-4.1,4.2c0,0,4.6,2.6,6.7,3.1c2.1,0.5-2.1,3.1,0,5.7c2.1,2.6,2.6,3.1,0,5.8
					c-2.6,2.6-7.2,5.2-7.2,5.2s1,16.2-0.5,20.4c-1.5,4.2,2.1,6.3,3.6,8.4c1.5,2.1,6.2,2.6,6.2,5.2c0,2.6,3.1,4.2,5.2,4.2
					c2.1,0,3.1-5.8,5.7-4.7c2.6,1,1-4.7,4.1-4.2c3.1,0.5,9.8-4.7,13.4-2.6c3.6,2.1,9.9,0.4,9.9,0.4l-5.3-7.2l-7.2-13.2
					c0,0,2.1-6.8,0-8.4c-2.1-1.6-3.6-3.1-3.6-3.1s-2.1-5.1-1.6-8.2c0.5-3.1-4.1-7.3-1.5-9.4c2.6-2.1,6.2-3.1,6.7-6.3
					c0.5-3.1,0-5.7,0.5-7.8C738.1,14,741.3,9.6,743.4,6.9z"/>
				
					<path fill="#EDEDED" stroke="#FFFFFF" stroke-width="2" stroke-linecap="round" stroke-linejoin="round" stroke-miterlimit="10" d="
					M779.4,10l-5.6,10.6c0,0,0.5,12,0.5,16.7c0,4.7,7.2,11,7.2,11s-0.5,6.3-2.6,11c-2.1,4.7-5.2,9.4-5.2,9.4s1,5.2,4.1,7.3
					c3.1,2.1,7.2-2.6,7.2-2.6l7.1-0.8l4.8,3.4c0,0,7.7-8.4,8.3-11c0.5-2.6,2.1-14.6,2.1-14.6l2.5-8.3c0,0,1.2-3.3,3-7.3
					c0.1-1.6,1-3.7,0.2-4.7c-1.6-1.9-6.4-2.1-7.9-4c-2.5-3.1-3.2-9.8-5.9-12c-1.2-1-7.1-3.8-7.9-4C785.7,8.1,783.7,11.6,779.4,10z"
					/>
				
					<path fill="#EDEDED" stroke="#FFFFFF" stroke-width="2" stroke-linecap="round" stroke-linejoin="round" stroke-miterlimit="10" d="
					M440.3,166.1l1.3,3.4l1.5,2.6l-5.7,4.2c0,0,3.1,4.2,5.7,4.2c2.6,0,5.2-3.7,5.2-3.7s2.6,3.7,3.6,7.8c1,4.2,3.6,2.6,3.6,2.6
					s5.8-2.3,7.2-6.8c2.6-8.2,5.1-10.4,8.3-14.6c2.5-3.3,3.1-4.7,5.1-7.4c2.1-2.6,6.2-4.7,16.5-11c10.3-6.3,9.3-16.2,9.3-16.2h2.6
					c0,0,0.5-4.7-0.5-9.4c-1-4.7-1.5-8.4-1.5-8.4l-4.1-2.6l5.1-4.1c0,0-7.6-2.2-9.2-5.3c-1.5-3.1-3.6,1-3.6,1l-11.9-2.6
					c0,0-3.1-2.1-3.6-4.7c-0.5-2.6-2.9-5.4-2.9-5.4s-4.9-1.4-8-3.5c-3.1-2.1-3.9-6-3.9-6c-4.7,3.3-8.7,6.4-13.6,9.9
					c8.3,7.6-3.6,16.4-4,18.1c-1.5,6.1,3.2,7.5,2,12c-0.6,1.7-6.4,4.6-7.9,6c0,0,1.5,4.3,4,2l-2,6c-0.4-1.5-2.8,9.6,2,8
					c-0.9,1.5-3,7.5-4,8c2,1.4,8.8,2.1,9.9,4c1,1.7-2.1,2.6,0,6C445,162.1,443.2,163.4,440.3,166.1z M450.7,150.4v4
					C444,156,447.8,151,450.7,150.4z M286.3,102.3c0.9,3.9,2,14,2,14c-1,0.5,1.5,4.7-2,2c-3,1.5,2,4,2,4
					C297.9,112.8,291.3,112.4,286.3,102.3z"/>
				
					<path fill="#EDEDED" stroke="#FFFFFF" stroke-width="2" stroke-linecap="round" stroke-linejoin="round" stroke-miterlimit="10" d="
					M583.8,356.4l3.5,4.6c1.6,2.1,3.2,2.7,5.9,4c4.4,2-1.5-0.2-7.6-2.2c-0.1,0.5,2.5,4.2,0.4,7.3l-7.5,11.7l2.3,8.1
					c0,0,3.2,12.1,6.3,14.2c3.1,2.1,6.7,7.8,6.7,7.8s1,8.4,2.6,12c1.5,3.7,2.1,10.4,4.1,13.1c2.1,2.6,1,13.1,1,13.1l1.5,11.5
					l7.2,3.7l9.8-7.8c0,0,6.7,3.1,11.3,3.1h8.8c0,0,3.3,5.8,4.2,7.7c0.5,1,0.8,1.8,1.1,1.8c0.5,0,1.1-1.9,3.5-7.6
					c2.9-6.9,5.1-2.3,5.1-2.3l19.1-0.1l7.7-18.3v-5.2c0,0,4.6-6.8,4.6-8.9c0-2.1,7.2-12,7.2-12l15.3-1.5l11.9,3.5l6.8,6.2l4-1.6
					l-3.4-4c0,0,4.1-13,4.1-17.1c0-4.2,1.5-4.7,0-7.8c-1.5-3.1-2.6-5.2-6.2-7.8c-3.6-2.6-3.6-5.2-4.6-9.4c-1-4.2,1-8.4,1-8.4
					l-19.6,1c0,0,0.5-3.1-2.1-7.3c-2.6-4.2-4.1-7.3-2.6-10.4c1.5-3.2,4.6-6.8,4.6-6.8s-1.5-4.7-3.1-8.4c-1.5-3.7-2.1-8.9-4.1-11.5
					c-2.1-2.6-4.6,0-8.3,0c-3.6,0-5.7-2.6-10.3-2.6c-4.6,0-6.2-3.7-9.3-5.8c-3.1-2.1-2.6-3.7-6.7-5.7c-4.1-2.1-6.2-4.2-9.8-8.4
					c-3.6-4.2-5.7,1-8.8,0.5c-3.1-0.5-4.1-1-6.7-2.1c-2.6-1-4.1-4.2-5.7-7.8c-1.5-3.6,4.6-13.6,4.6-13.6l-2.6-3.7h-5.7
					c-3.6,0-10.3,3.1-15.5,4.2c-5.2,1.1-13.9,15.7-13.9,15.7l-4.1,1c0,0-3.6,1.6-2.1,3.7c1.5,2.1-5.2,5.2-7.7,3.1
					c-2.6-2.1-6.2-1-6.2-1l8.3,16.7l-3.6,9.9c0,0-2.6,7.3-1,11c1.5,3.7,3.6,7.8,3.6,7.8s-2.6,3.1-1,5.2
					C583.3,353.5,583.7,355.1,583.8,356.4z M613.1,407.1c2,0.9,6.2,11.7,0,8C613.1,415.1,608.7,405.1,613.1,407.1z"/>
				
					<path fill="#DFDFDF" stroke="#FFFFFF" stroke-width="3" stroke-linecap="round" stroke-linejoin="round" stroke-miterlimit="10" d="
					M460.2,80.1c0,0,0.9,4.2,4,6.3c3.1,2.1,8,3.5,8,3.5s2.4,2.8,2.9,5.4c0.5,2.6,3.6,4.7,3.6,4.7l11.9,2.6c0,0,2.1-4.2,3.6-1
					c1.6,3.1,10.8,5.7,10.8,5.7h6.2c0,0,0,6.8,2.6,6.8c2.6,0,6.2,5.2,5.7,7.3c-0.5,2.1,6.2,5.7,6.2,5.7l7.2,0.5l0.5,4.7
					c0,0,1.5,4.7,4.1,4.7c2.6,0,7.2,2.1,7.2,2.1l1-4.2c0,0,7.7-0.5,9.3,1.6c1.5,2.1,6.2,3.1,9.8,3.1c3.6,0,6.2,4.2,6.2,4.2
					l-12.9,25.1h6.2l4.1,2.6c0,0,13.4-34,13.9-37.1c0.5-3.1,1-6.8-1-11c-0.8-1.6-7.2-3.7-7.2-3.7l-0.5-4.7l10.3-1.1l-0.5-4.7
					l-2.3-2.1h-4.6l-0.2-8.4c0,0,3.8-1,7.5-1s17.3-2.6,17.3-2.6v-5.7l4.1,3.1l4.6-1.6l1.5-6.3l4.6,0.5l1,6.3l4.1,1l1-7.8
					c0,0-2.1-2.6-3.1-5.7c-1-3.1,0.5-6.3-3.1-3.7c-3.6,2.6-2.1-5.7-2.1-5.7s5.2-3.1,5.7-6.3c0.5-3.1,3.1-9.9,3.1-9.9
					s-10.3-5.2-12.4-7.8c-2.1-2.6-6.2-5.7-6.7-8.4c-0.5-2.6-6.2-4.7-7.2-9.9c-1-5.2,2.6-7.3,2.6-7.3l1-7.8c0,0-4.6-1.6-8.3-1.6
					c-3.6,0-9.8,0.5-9.8,0.5s-4.6-7.3-6.2-10.4c-1.5-3.1-4.6-3.7-8.3-2.6c-3.6,1.1-10.8,0-10.8,0L547.4-4c0,0,0.5-3.7-2.1-7.8
					c-2.6-4.2-4.6-5.2-5.2-8.9c-0.5-3.7,2.6-3.7,2.6-3.7l-5.7-12l-5.2,1c0,0-4.6,1.6-1.6-5.2c3.1-6.8,0-6.8,2.1-11
					c2.1-4.2,0-9.4,0-9.4l5.7-2.1l4.7-13.1l7.9-6.6c0,0,4.2-2.7,6.6-4.4c-0.4-0.9-1.6-3.2-1.6-3.2c-4.6,1.1-4.9,0.6-7.9,2v4
					c-0.6,1.4-14.5,11.5-15.8,12c-1.6,0.6-5.5-3.8-9.9-2c-2.5,0.9-1.2,4.7-2,8c0,0-2.1-0.4-2-2c0-0.5-5.6,0.1-7.9,0
					c-0.9,5.2-1.1,9-2,16.1h-4c-0.8,2.1,1.2,6.1,0,8c-0.2,0.3-5.5,0-5.9,0c-1.4,2.7-5.5,8.5-5.9,10c-0.8,2.2,0.9,5.8,0,8
					c-2.7-1.8-4.8-3.3-7.2-5.3l-1.1,5.3c0,0,3.1,1.8,3.1,5.4c0,3.6-3.1,6.7-3.1,6.7l-1.6,4c0.2,5.4-0.5,17,2,18.1
					c-2.9,10-3.8,21.3-7.9,34.1c2.5,0.9,6,2.5,7.9,4c-4.7,7.5-11.4,11.9-19.8,16c5.3,2.9-7.8,7.1,2,12c-1.4,0.8-6.4,0-7.9,0
					C458.3,74.8,459.6,78.2,460.2,80.1z"/>
				
					<path fill="#DFDFDF" stroke="#FFFFFF" stroke-width="3" stroke-linecap="round" stroke-linejoin="round" stroke-miterlimit="10" d="
					M571.2,388.7c-1,3.1-4.4,6.4-4.4,6.4c3.1,4.2,5.1,8.3,6.6,14c5.4,21.2,0,44.2,0,72.2h-4c-0.5,5.4,3.7,6.6,4,8
					c0.1,0.8-4,9.7-4,10c-1.5,9.1,2.2,17.7,2,24.1l-4,6c-1.8,10.4-1.5,46.1-9.9,52.1l4,12c0.1-1.1,2.4,1.6,2,4
					c-1,6.3-6.2,12.7-5.9,20.1c0.1,4.7,7.1,18.9,4,30.1c-0.7,2.3-7.1,3.5-7.9,6c-1.5,4.3,0,11.4,0,16c-0.7,0.3-3.9,1.6-4,2
					c-2.4,9-8.4,33.4-5.9,26.1c3.2,1.6,0,4.2,0,4c-2,6.9-7,33.3-13.9,32.1c-0.5-0.1,3.9,1.6,5.9,2c1,5.4,0.2,8.3,2,14
					c-0.5-2.7,3,19.5,2,26.1h-4c-4,19.6-10.8,36.6,9.9,32.1c-0.8,6.9-2,16.4-2,26.1l-4,2c-0.7,7.1,4.7,7.1,4,14l-2,2
					c-2.8,0.9-5.9,5.5-2,4v4c-0.9,0-3.8-2.7-4-2c-4.1,15.6,0,21.6-2,40.1c-3-1.8-4.2-4.3-7.9-4c4.9,2.4-4,4-4,4
					c-0.9-0.7,1.7-3.4,2-4c-2.7-1.4-5.6-2.1-7.9-4c-1.1,4.2-1.2,0-4,2v4c0-0.1-2.1,8.2-4,12l5.9-4c0.3,0.2,0,5.6,0,6
					c1.4,0,4.8-0.6,5.9,0c-1.5-0.7,5.8-7.5,7.9,0c1,3.5-2,7.8-2,8c0,0,9.2,7.7-2,6c1.1,14.7,1,17.9,0,32.1c0.2-0.4,2.9-3.9,4-4
					c3.6-0.5-4,8-4,8c-1.1,1.9-0.4,6.7-2,8c-3.5,2.7-1.2-1.6-2-2c1.7-13.2,1.1-24.5-2-36.1c-1.6,0.8-6.2,0-7.9,0c-1,2,3.6,3.1,2,4
					c-12.9,6.5-2.4,11.5-2,18.1c0.4,6.9-0.7,3.1-4,6c0.9,3.1,2.7,4.8,2,8c4.8,1.4,7.7,1.1,11.9,2c0,0.4-0.4,5.8,0,6
					c2.2,1.3,3.7-1.3,5.9,0c1.1,0.6-0.9,4.8,0,6c-1.5-1.1-4-3.6-5.9-4c2.5,0.6,0.9,12.7,0,6c-2.8-1-2.2-1.1-5.9-2c0,0.3-0.1,5.9,0,6
					h-2c0,3.8,0.5,8.2,0,12c0.5-0.5,5.3,0,5.9,0c0.2-0.6,2.5-7.1,4-8c0.6,1.8,2,4,2,4c1-9-3.7-6.6,2-10v-4c2,0.7,2.4,3.4,5.9,2
					c-8.5,7-5.1,12.4-4,10h2c0,0-1.1,9.5-2,6v4c-4.6,0.6-2.9-2.5-5.9-2v4c0,0-7.5-0.2-2-2c-3,1.1-6.2,0-9.9,0
					c5,10.7,4.1,21.9,15.8,26.1c0,0,9.3,1.6,5.9,0c-5.9-2.9-18.3-10.7-4-8c-0.9-3.8,1.2-8.4,0-12c-0.3-0.9-3.5-1.9-4-4
					c4.3,0.5,5.9-2.6,7.9-2c0.2,0,0.3,3.4,4,4c0.4-0.7,3.3-5.9,4-6c3.4-0.9,8.4,3.7,4,4c-2.6,5.8-1.1-2.4-4,0c-0.7,0.5,0,7,0,8
					c-1.2-0.3-3.8-3.6-4-4c0,0-8.6,5.1-4,4c0.6,5.4,1.4,10.8,2,14c4.7-0.9,9,2,0,2c-1.1,4.5,0.1,6.6-2,10c1.8,0.9,7.3,2.8,5.9,2h2v4
					c-6.2-1.7,5.9,4,5.9,4c3.3-0.4,2.8-5.6,0-6c0,0,1.4-4.5,2-6c-14.1-0.6,2.4-4.7-2-4c0.3-0.1,0.8-3.6,4-2c0.7,0.3,0.7,7.2,2,8
					c2.7,1.8,7.1,1.3,9.9,2c-0.3,0,0,5.7,0,6c-5.4-2.1-4.3-1.1-11.9-4c0.4,0.2,3.5,7.2,4,8c2.2-0.1,7.9-2,7.9-2
					c18.7-0.2-11.9,6-11.9,6v6c4-0.2,1.2-1.1,2-4c4.3,1.6,6.3,0.9,11.9,2v4c2.7,0.8,7.3-1.3,9.9,0c1.9,0.9-1.8,2.8,2,4l4-2
					c-0.4,0.1,3.1,4-5.9,4c0.5,0.4,4,6,4,6c2.5-0.1,5.9,2,5.9,2c8.3,1-1.4-4,4-6c2.9-1.1,14.3,2.8,7.9-2v-4c-4-0.8-4-0.4-5.9-2
					c2,1.1,5.8-1.1,7.9,0l5.9,10h4c1.7-1.4,0.8-4.1,4-4c0.7-2.4,0.2-5.3,2-6c7.7-3.7,16.7,0.2,21.8,0c-0.4-0.9-26.2-2.3-31.3-3.4
					c-5.2-1-10.6,0.2-10.6,0.2l-1.1-39.3c-2.5-0.6-7-2.6-10.4-3.7c1.5-0.9,3.1-6.4,4-8c0.1,0,7.1-0.5,4,2c3.5,0,2.4-0.1,5.9,0
					c-0.7-0.5-1-0.3-1.4-3.1c0,0-17-2.3-21.6-2.3c-4.6,0-17.1,1.2-17.1,1.2s-8.9-8.5-10.9-13.2c-2.1-4.7-4.1-7.3-1.6-9.9
					c2.6-2.6,2.5-5.5,0-9.1c-2.6-3.7-3.2,1.7-6.3,1.7c-3.1,0-3-4.1-3-8.8c0-4.7,1.5-5.8,3.1-9.9c1.5-4.2,0.5-6.3-1.5-12
					c-2.1-5.8,6.2-5.8,9.3-8.4c3.1-2.6,2.6-5.2,2.1-9.4c-0.5-4.2-2.1-6.3,0.5-9.4c2.6-3.1,4.1-5.2,4.1-5.2s1-2.1,0.5-5.2
					c-0.5-3.1,0.5-6.8,1.5-12c1-5.2,1-5.7-0.5-9.9c-1.5-4.2-3.1-6.8-1-7.8c2.1-1.1,1-5.2,4.1-5.7c3.1-0.5-0.5-3.1-1-5.2
					c-0.5-2.1,0.5-6.3,2.6-8.4c2.1-2.1-1.5-5.7-1.5-9.9c0-4.2-1.5-5.2-0.5-8.4c1-3.1-3.1-6.3-4.6-9.9c-1.5-3.7,4.1-8.9,4.6-14.1
					c0.5-5.2,0-6.8,0-11.5c0-4.7,0-2.6-3.6-4.7c-3.6-2.1-0.5-7.3-0.5-12c0-4.7-5.7-8.9-1.5-12.5c4.1-3.7,3.6-5.2,4.1-9.4
					c0.5-4.2,1.5-15.1,4.6-19.9c3.1-4.7,3.6,0.5,3.6-4.2s-3.6-6.3-3.1-10.4c0.5-4.2,1.6-8.4,1-12.5c-0.5-4.2,5.2-9.4,5.2-9.4
					s4.1,1.1,5.7-2.6c1.5-3.7,0.5-4.7-0.5-8.9c-1-4.2-1.5-5.8,0.5-10.5c2.1-4.7,5.7-13.1,5.7-19.3c0-6.3,1-7.8-0.5-12.5
					c-1.5-4.7-1-6.3,1.5-10.4c2.6-4.2,1-5.7,0.5-12c-0.5-6.3,1-6.8,1-14.6c0-7.8,1-7.3,3.1-11.5c2.1-4.2,0-6.8,0-13.1
					c0-6.3,1.5-9.9,2.1-18.3c0.5-8.3,4.6-6.8,7.2-13.1c2.6-6.3,4.1-6.3,5.7-11c1.5-4.7,2.6-6.8,1.5-11.5c-1-4.7-2.6-6.8,1-8.9
					c3.6-2.1-1-5.7-1.5-10.5c-0.5-4.7-0.5-12,0-15.7c0.5-3.7,7.2-3.7,8.8-7.9c1.5-4.2,7.7-3.6,8.8-7.8c1-4.2,2.6-11.5-2.1-13.6
					c-4.6-2.1-3.1-11-3.1-11l-7.2-3.7l-1.5-11.5c0,0,1-10.5-1-13.1c-2.1-2.6-2.6-9.4-4.1-13.1c-1.5-3.7-2.6-12-2.6-12
					s-3.6-5.8-6.7-7.8c-3.1-2.1-6.3-14.2-6.3-14.2l-2.3-8.1C578.5,381.8,572.3,385.5,571.2,388.7z M593.3,1074.9c0.7,0.2,1.9,6,2,6
					C602.1,1083.8,599.6,1077.6,593.3,1074.9z M561.6,1064.9c-5.3,0.4,5.9,4,5.9,4S570.1,1064.1,561.6,1064.9z M506.1,980.7l2,4
					C513.3,985.7,508.4,981.2,506.1,980.7z M510.1,970.6v8C517.7,978.7,517.7,970.6,510.1,970.6z M557.6,1020.8c3.8-2.3,0.6,1.3,2,2
					c0.8-1.3-1.2,6.5-4,8C552.7,1032.3,555.7,1021.8,557.6,1020.8z M545.7,1020.8l2,6C539.8,1026.6,541.8,1021,545.7,1020.8z
					 M569.5,1016.8c3.7,0.6,8.1,0,11.9,0l-2,4c-3.6,1.3-5.5-1.9-5.9-2c-0.6,1.7-3.8,1.2-5.9,2c0.8,8,1.3,8,2,14c3.2-1,4.7-2.9,7.9-2
					v4c-1.2,0.3-6.1,1.1-7.9,2c0.4,1.4,3.1,7.2,2,8c1.4-0.6,4.5,0,5.9,0c-21.5,12,17.3-2.5-5.9,8c-0.1,0-7.2-0.2-4-2
					c0,0.2,0.4-7.1,0-12c-1.4-0.6-4.6,0-5.9,0c0.7-5.5,1.7-16.2,4-22.1L569.5,1016.8z M527.9,870.4c-4.6,1.3-12.1,10.7-2,12
					c0,0-9.9,10.3-4,8c0.1-0.1,17.8-14.4,4-8c1.7-1-1.8-6.6,4-4c0.4-1,1.1-3.6,2-4C531.7,874.2,529.1,870,527.9,870.4z M523.9,856.3
					l2,4C525.2,857.6,527.8,856.3,523.9,856.3z M527.9,812.2c0,10.5-0.9,19.9-2,28.1c0.3-0.2,4.3,1.4,5.9,2c1-2.6,5.3-5.7,5.9-8
					c1.2-4.6-2.3-6.6-4-8c1.9-5.5,1.9-7.1,4-14C530.9,812.7,532.4,813.3,527.9,812.2z"/>
				
					<path fill="#DFDFDF" stroke="#FFFFFF" stroke-width="3" stroke-linecap="round" stroke-linejoin="round" stroke-miterlimit="10" d="
					M812.5,36.1l4.5,0c1.7,4.6,3,5.8,4,8c3.8,9.7,2.9,18,5.9,28.1c1.6,0,6.5-0.9,7.9,0c1.1,0.6-1.1,5.3,0,6c-3.2,1.6-7.4,4.2-9.9,6
					c14,7.4,12.9,0.6,5.9,16c2.6,0.2,2.8,3.7,4,4c4.8,1.2,4-2.6,9.9-2l-2,6c2.8,1,9.6-1.9,11.9,0c1.8,1.4-4.7,10.7,0,14h4l2-6
					c10.4-4.1,28.8,7.6,33.7,10v4c0.1,0.1,4.5-1.5,5.9-2l2,8h4c1.7,3.6-1.6,6-2,8c5.6,4.5,2.2,1,4,8c0.4-0.4,5.3,0,5.9,0
					c0.4-1.4,1.3-7.8,2-8c9.8-3.7,12.2,4.8,15.8,6c1.7,0.5,3.9-3,7.9-2l2,4c8.3,3.2,14.5-1.4,19.8,0c3.8,0.9,20.1,10.9,23.8,14
					c2.5,2.1,11.6,17.8,11.9,18c3.5,2.3,4.6-3.4,9.9-2c0.2,0.1,0,5.6,0,6c0.6,0.1,6.9-1.5,9.9-2c1.7,4.2,3.2,11.7,5.9,16
					c0.7,1.2,5.5,2.7,5.9,4c6.3,18.3-0.5,45.7-7.9,56.1c-4.7,6.5-15,9.6-19.8,16c-7.1,9.3-8.5,23-13.9,34.1c-3.6-2.5-5.9-4.3-9.9-6
					c-1,3.6,3.2,4.8,2,6c-8.8,8.5-3.9,8.4-5.9,16h-4c-0.4,5.3,1.1,2.3,4,4c-0.6,7,2.3,18.9,2,30.1h-2c-0.7,4.6,0,9.3,0,14l-4,2
					c-0.6,6.9,4.2,14,4,16c-0.3,1.7-7.4,4.2-7.9,6c-1.6,4.8,1.3,11,0,16c-1.8,6.5-19.9,22.9-21.8,32.1c-1.4,6.5,1.4,11.6,2,16
					l-7.9,4c-0.3,0.6,0.6,5.6,0,6c-8.4,4.4-12.5-2.2-13.9-2c-0.3,0,0,5.7,0,6c-8.4,1.1-12.3,0.8-19.8,2c-1.1,3.6-0.6,1.1-4,2l2,8
					c-3.6,2.6-15.7,1.5-19.8,4c-2.2,1.3-0.6,3.8-2,6c-3.6,5.8-17.8,10.6-23.8,14v4c-3,1.8-6.1-0.9-7.9,2c-1.7,2.5,4.5,2.7,2,4
					c-10.3,5.2,3.7,36.7,0,48.1c-2.2,6.7-12.7,12.1-15.8,18c-4.6,8.6-3.7,18.6-7.9,28.1c-1.4,2.9-6.4,5.6-7.9,8
					c3.1-6.4,5.3-12,7.9-20.1c-3.4-1-1.1,3.2-5.9,2c-0.7-0.2-3.2-3.3-5.9-4c-1.1,3.4,1,6.5,0,10c-0.4,1.1-17.7,21.5-17.8,22.1
					c-1.2,4.8,3.3,4.2,2,10c-0.5,2.1-3,6.8-6.4,12.1l-1.5,1.7l-2.4-5.1l5.7-9.2c0,0-1.6-2.3-5.2-3.9c-3.6-1.6-4.6-4.7-5.7-8.9
					c-1-4.2-4.1-3.1-8.8-5.7c-4.6-2.6-5.2-3.6-7.7-6.8c-2.6-3.1-7.2-1.6-8.8-5.2c-1.5-3.7-2.6-6.8-2.6-6.8l-11.4-7.3l-9.3,3.1
					c0,0,2.1-7.3,2.1-9.9c0-2.6,4.1-4.2,6.7-6.3c2.6-2.1,4.1-6.3,4.1-10.4c0-4.2,7.7-3.6,8.8-6.8c1-3.1,2.6-3.1,5.7-5.8
					c3.1-2.6,5.7-5.2,6.7-8.9c1-3.7,9.3-2.6,10.8-5.2c1.5-2.6,5.2-2.6,4.6-4.7c-0.5-2.1-0.5-8.9-1-13.6c-0.5-4.7-0.5-11.5-0.5-11.5
					s-5.7-2.6-4.6,0.5c1,3.1-6.7-1.6-6.7-1.6s-0.5-12,1.6-15.2c2.1-3.1,2.1-11,2.1-13.1c0-2.1-4.6,0-7.2,1.1c-2.6,1-3.1-3.1-3.6-7.3
					c-0.5-4.2,0.5-9.9,0.5-14.6c0-4.7-2.6-6.3-6.7-6.8c-4.1-0.5-3.6-4.7-3.6-4.7l-2.1-3.1l-3.6,2.1c0,0-15,0-14.4-3.7
					c0.5-3.6-3.1-5.7-2.1-11c1-5.2,1.5-9.4-0.5-12.5c-2.1-3.1-3.5-5.5-3.5-5.5l-1.1-3.5l3.4-1.7l-3.4-4c0,0,4.1-13,4.1-17.1
					c0-4.2,1.5-4.7,0-7.8c-1.5-3.1-2.6-5.2-6.2-7.8c-3.6-2.6-3.6-5.2-4.6-9.4c-1-4.2,1-8.4,1-8.4l-19.6,1c0,0,0.5-3.1-2.1-7.3
					c-2.6-4.2-4.1-7.3-2.6-10.4c1.5-3.2,4.6-6.8,4.6-6.8s-1.5-4.7-3.1-8.4c-1.5-3.7-2.1-8.9-4.1-11.5c-2.1-2.6-4.6,0-8.3,0
					c-3.6,0-5.7-2.6-10.3-2.6c-4.6,0-6.2-3.7-9.3-5.8c-3.1-2.1-2.6-3.7-6.7-5.7c-4.1-2.1-6.2-4.2-9.8-8.4c-3.6-4.2-5.7,1-8.8,0.5
					c-3.1-0.5-4.1-1-6.7-2.1c-2.6-1-4.1-4.2-5.7-7.8c-1.5-3.6,4.6-13.6,4.6-13.6l-2.6-3.7h-5.7c-3.6,0-10.3,3.1-15.5,4.2
					c-5.2,1.1-13.9,15.7-13.9,15.7l-4.1,1c0,0-3.6,1.6-2.1,3.7c1.5,2.1-5.2,5.2-7.7,3.1c-2.6-2.1-6.2-1-6.2-1l-14.4-4.7l2.6-39.2
					c0,0,1-5.7-2.1-3.1c-3.1,2.6-9.8,6.3-9.8,6.3h-11.9c0,0-2.6-2.6-2.6-5.8c0-3.1-7.7-5.2-8.8-8.9c-1-3.7-7.7-6.3-7.7-6.3l2.1-6.3
					c0,0,0-6.3-2.1-6.8c-2.1-0.5-2.1-6.8-2.6-9.4c-0.5-2.6,5.7,0,5.7,0s-0.5-3.1,0-6.8c0.5-3.7,2.1-5.2,4.1-8.9
					c2.1-3.7,1.5-8.4,3.1-11.5c1.5-3.1,7.7-5.2,10.8-8.4c3.1-3.1,8.3-3.7,11.3-4.7c3.1-1,6.7-1,10.3-1c3.6,0,4.1-4.7,4.1-4.7
					s13.4-34,13.9-37.1c0.5-3.1,1-6.8-1-11c-0.8-1.6-7.2-3.7-7.2-3.7l-0.5-4.7l10.3-1.1l-0.5-4.7l-2.3-2.1h-4.6l-0.2-8.4
					c0,0,3.8-1,7.5-1s17.3-2.6,17.3-2.6v-5.7l4.1,3.1l4.6-1.6l1.5-6.3l4.6,0.5l1,6.3l4.1,1l6.7,4.7c0,0,4.6-4.2,8.3-4.2
					c3.6,0,4.1-6.3,7.2-6.3c3.1,0,4.1-3.1,6.7-3.1c2.6,0,4.1-8.4,7.2-8.4c3.1,0,4.6-2.1,4.6-2.1s-1-5.2-4.6-4.2
					c-3.6,1-7.2,3.1-9.3,1.6c-2.1-1.6-4.1-2.1-5.2-5.2c-1-3.1,2.1-8.9,1.5-11c-0.5-2.1-1-3.1-3.6-6.8c-2.6-3.6,0-6.3-2.6-7.3
					c-2.6-1-3.6-2.6,1.5-2.1c5.2,0.5,9.3,3.1,9.3,3.1s6.2,0,8.3,2.1c2.1,2.1,8.3,2.1,8.3,2.1s-3.1-1-1.5-3.7
					c1.5-2.6,4.1-2.1,4.1-2.1s3.6,1,7.2,1c3.6,0,2.6-3.1,5.7-3.7c3.1-0.5,3.1-5.7,5.7-5.7c2.6,0,6.2-1,6.2-1l1.5-4.2l-0.5-4.2
					c0,0,7.2,3.1,9.8,2.1c2.6-1,3.1,3.7,3.1,3.7l-4.1,4.2c0,0,4.6,2.6,6.7,3.1c2.1,0.5-2.1,3.1,0,5.7c2.1,2.6,2.6,3.1,0,5.8
					c-2.6,2.6-7.2,5.2-7.2,5.2s1,16.2-0.5,20.4c-1.5,4.2,2.1,6.3,3.6,8.4c1.5,2.1,6.2,2.6,6.2,5.2c0,2.6,3.1,4.2,5.2,4.2
					c2.1,0,3.1-5.8,5.7-4.7c2.6,1,1-4.7,4.1-4.2c3.1,0.5,9.8-4.7,13.4-2.6c3.6,2.1,9.9,0.4,9.9,0.4l6.5-1v3.1l3.6-5.8l-4.6-3.1
					l2.1-7.3l4.8,3.1l3.6-2.6l2.1,3.1h6.2c0,0,1,5.2,4.1,7.3c3.1,2.1,7.2-2.6,7.2-2.6l7.1-0.8l4.8,3.4c0,0,7.7-8.4,8.3-11
					c0.5-2.6,2.1-14.6,2.1-14.6l2.5-8.3L812.5,36.1z M854.7,122.3v4c0,0-2.4,1.5-4,2C852,125.8,850.5,121.7,854.7,122.3z
					 M850.7,128.3v4c-2.4,0.2-3.3,3.9-4,4C837.8,137.6,849.2,129.4,850.7,128.3z M823,100.2c1.1-0.2,1.4,4.4,2,6
					c4.2-0.2,5.1-0.9,9.9-2c-10.7,15.8-15.1,17.4,0,32.1c-0.6-0.4-5.3,0-5.9,0c-2.5-4.7-5.5-9.4-7.9-14c-0.4,0.1-6.7-0.4-4,2
					c-5.6,0.1-3-0.1-2,10c-1.5-3.1-2.4-5.1-4-10h-4c-4.1,0.8-6.3,2.8-6.3,2.8c0,0,1.4-1.1,4.3-4.8c1.2-1.6,4.8-2.3,5.9-4
					C815.2,111.6,813.8,101.3,823,100.2z M828.9,90.2c2.5,0.5,2.6,3.4-2,4C827.5,92,825.4,89.5,828.9,90.2z"/>
				
					<path fill="#DFDFDF" stroke="#FFFFFF" stroke-width="3" stroke-linecap="round" stroke-linejoin="round" stroke-miterlimit="10" d="
					M591.8,1020.5l1.1,39.3c0,0,5.5-1.2,10.6-0.2c5.2,1,31.3,3.4,31.3,3.4c-0.9-0.4-0.8-5.3-2-6c-4.7-2.8-10.2,0.4-15.8-2l-19.8-18
					c-1.9-4,1-13.2,0-14C595.8,1021.5,591.8,1020.5,591.8,1020.5z M673.2,460l-19.1,0.1c0,0-2.3-4.6-5.1,2.3
					c-3.8,9.2-3.1,8.5-4.5,5.8c-1-1.9-4.2-7.7-4.2-7.7h-8.8c-4.6,0-11.3-3.1-11.3-3.1l-9.8,7.8c0,0-1.5,8.9,3.1,11
					c4.6,2.1,3.1,9.4,2.1,13.6c-1,4.2-7.2,3.7-8.8,7.8c-1.6,4.2-8.3,4.2-8.8,7.9c-0.5,3.7-0.5,11,0,15.7c0.5,4.7,5.2,8.4,1.5,10.5
					c-3.6,2.1-2.1,4.2-1,8.9c1,4.7,0,6.8-1.5,11.5c-1.5,4.7-3.1,4.7-5.7,11c-2.6,6.3-6.7,4.7-7.2,13.1c-0.5,8.4-2.1,12-2.1,18.3
					c0,6.3,2.1,8.9,0,13.1c-2.1,4.2-3.1,3.7-3.1,11.5c0,7.8-1.5,8.4-1,14.6c0.5,6.3,2.1,7.8-0.5,12c-2.6,4.2-3.1,5.8-1.5,10.4
					c1.5,4.7,0.5,6.3,0.5,12.5c0,6.3-3.6,14.6-5.7,19.3c-2.1,4.7-1.5,6.3-0.5,10.5c1,4.2,2.1,5.2,0.5,8.9c-1.5,3.7-5.7,2.6-5.7,2.6
					s-5.7,5.2-5.2,9.4c0.5,4.2-0.5,8.4-1,12.5c-0.5,4.2,3.1,5.7,3.1,10.4s-0.5-0.5-3.6,4.2c-3.1,4.7-4.1,15.7-4.6,19.9
					c-0.5,4.2,0,5.8-4.1,9.4c-4.1,3.7,1.5,7.8,1.5,12.5c0,4.7-3.1,9.9,0.5,12c3.6,2.1,3.6,0,3.6,4.7c0,4.7,0.5,6.3,0,11.5
					c-0.5,5.2-6.2,10.5-4.6,14.1c1.5,3.7,5.7,6.8,4.6,9.9c-1,3.1,0.5,4.2,0.5,8.4c0,4.2,3.6,7.8,1.5,9.9c-2.1,2.1-3.1,6.3-2.6,8.4
					c0.5,2.1,4.1,4.7,1,5.2c-3.1,0.5-2.1,4.7-4.1,5.7c-2.1,1-0.5,3.7,1,7.8c1.6,4.2,1.6,4.7,0.5,9.9c-1,5.2-2.1,8.9-1.5,12
					c0.5,3.1-0.5,5.2-0.5,5.2s-1.5,2.1-4.1,5.2c-2.6,3.1-1,5.2-0.5,9.4c0.5,4.2,1,6.8-2.1,9.4c-3.1,2.6-11.4,2.6-9.3,8.4
					c2.1,5.7,3.1,7.8,1.5,12c-1.5,4.2-3.1,5.2-3.1,9.9c0,4.7-0.1,8.8,3,8.8c3.1,0,3.7-5.4,6.3-1.7c2.6,3.7,2.6,6.5,0,9.1
					c-2.6,2.6-0.5,5.2,1.6,9.9c2.1,4.7,10.9,13.2,10.9,13.2s12.4-1.2,17.1-1.2c4.6,0,21.6,2.3,21.6,2.3l-0.6-7h-7.9
					c7.8-2-0.6-14,4-20.1c1.4-2,6.8-2.4,7.9-4c-2.8-5.6-1.5-2.6-5.9-6c0.9-3.1,3-5,2-8c1.1,0.7,3.5,3.1,4,4v4c4-1,6.6-2.8,9.9-2
					c-2.7-22.1,9.5-27.3,25.7-40.1c-10-7.3,2.3-11.5-5.9-18c-1.6-1.3-6.1,0.6-7.9,0c-0.9-0.3-3.1-5.4-4-6c-12.7-9.7-8.3-12.9,0-22.1
					l9.9-12c4.3-1.3,7.2,3.9,9.9,2c0.4-0.3,0-5.6,0-6c-1.3,2.2-3.2-3-2-4c2-1.9,2.7-0.9,5.9-2c0.3-9.3-0.7-17.2,2-24.1l4-2
					c5.3-0.1,9.2-6.2-2-6c0.2-0.5,2.4-3.8,2-4c2,1.1,5.8-0.9,7.9,0c4.2,1.8,0.6,8.7,7.9,4c3.9-2.6-0.9-6.8,0-10
					c-4.8,2.1-7.2,2.2-7.9,2c-4.6-1.4-3.4-0.6-7.9-2c0,0,0.1-9.6,0-10c-0.6-1.7-3.8-1.2-5.9-2c1.2-4.7,3-9.9,4-14
					c2.9,2.1,4.9-0.1,7.9,2c2.2,1.5,0.9,3,2,6c11.4,0.4,10.6,1.7,17.8-4c0.9-0.8,5.5-3.1,5.9-4c0,0,1.4-22.2,2-26.1
					c-0.7-0.6-5.8-3.5-5.9-4c-1.3-4.4,2.5-6,2-8c1.7,0.6,4.1,5.8,5.9,6c1.4,0.1,5.4-3.9,5.9-4c17.8-4.6,28.3-1.6,41.6-10
					c12.2-7.8,13.7-19.7,17.8-36.1c-4.3-1.9-8.3-0.1-9.9-4c-2.4-5.6,2.9-7.8,2-12c-0.8-3.5-9.4-9.7-11.9-14c0,0-6.8-14.3-5.9-14
					c3.7,0.8,1.5-7.5,2-10c0,0,1.8-3.5,2-4c-2.5-1.3,2-6,2-6s2-5,0.4-8.1c-1.6-3.1,3.6-5.2,2.6-11.5c-1-6.3,4.6-4.7,3.1-10.4
					c-1.5-5.8,3.1-9.9,3.1-9.9s2.1-7.3,2.1-9.9c0-2.6,4.1-4.2,6.7-6.3c2.6-2.1,4.1-6.3,4.1-10.4c0-4.2,7.7-3.6,8.8-6.8
					c1-3.1,2.6-3.1,5.7-5.8c3.1-2.6,5.7-5.2,6.7-8.9c1-3.7,9.3-2.6,10.8-5.2c1.5-2.6,5.2-2.6,4.6-4.7c-0.5-2.1-0.5-8.9-1-13.6
					c-0.5-4.7-0.5-11.5-0.5-11.5s-5.7-2.6-4.6,0.5c1,3.1-6.7-1.6-6.7-1.6s-3.6,5.2-2.1,7.3c1.6,2.1,1.6,10.5-1,12.5
					c-2.6,2.1-5.5,4.8-6.5,7.9c-1,3.2-1.7,2.9-1.7,2.9s-3.6,1.8-7.2,0.7c-3.6-1.1-7.7-1.6-10.8-1.1c-3.1,0.5-5.7,1.1-8.8-1
					c-3.1-2.1-6.7-2.6-9.3-1.6c-2.6,1-4.6-0.5-4.6-0.5s2.6-6.8,5.2-9.9c2.6-3.1,5.7-8.4,5.7-12.5c0-4.2,3.6-7.3-0.5-9.9
					c-4.1-2.6-6.2-8.3-8.3-9.4c-2.1-1.1-2.6-2.1-5.2-4.7c-2.6-2.6-5.2,1.1-8.8-3.7c-3.6-4.7-3.6-6.3-7.7-6.3c-4.1,0-3.6-6.8-5.7-9.4
					c-2.1-2.6-2.1-5.2-5.2-5.8c-3.1-0.5-3.6-3.7-5.2-6.3l-3.6-6.3L673.2,460z M650.7,1054.9c1.2,0.4-4,4-4,4s6.9,2,4,2
					C660.2,1059.3,658.4,1056.5,650.7,1054.9z"/>
			</g>
		</g>
	</g>
	<text transform="matrix(1 0 0 1 312.713 67.7762)" fill="#222222" font-family="'Helvetica-Bold'" font-size="31.9781">Colombia</text>
	<text transform="matrix(1 0 0 1 418.1885 540.5193)" fill="#222222" font-family="'Helvetica-Bold'" font-size="31.9781">Chile</text>
	<text transform="matrix(1 0 0 1 732.7213 627.1248)" fill="#222222" font-family="'Helvetica-Bold'" font-size="31.9781">Argentina</text>
	<g>
		<text transform="matrix(1 0 0 1 825.5269 297.0242)" fill="#222222" font-family="'Helvetica-Bold'" font-size="31.9781">Brazil</text>
	</g>
	<circle opacity="0.8" fill="#FF944C" cx="775.6" cy="286.4" r="37.5"/>
	<circle opacity="0.8" fill="#FF944C" cx="530.4" cy="55.8" r="37.5"/>
	<circle opacity="0.8" fill="#FF944C" cx="567.9" cy="530.4" r="37.5"/>
	<circle opacity="0.8" fill="#FF944C" cx="661.5" cy="611.1" r="37.5"/>
	<line fill="none" stroke="#222222" stroke-width="1.9986" x1="661.5" y1="611.1" x2="731.1" y2="611.1"/>
	<line fill="none" stroke="#222222" stroke-width="1.9986" x1="498.2" y1="530.4" x2="567.9" y2="530.4"/>
	<line fill="none" stroke="#222222" stroke-width="1.9986" x1="461.5" y1="55.8" x2="531.2" y2="55.8"/>
</g>
</svg>
