<?xml version="1.0" encoding="utf-8"?>
<!-- Generator: Adobe Illustrator 18.0.0, SVG Export Plug-In . SVG Version: 6.00 Build 0)  -->
<!DOCTYPE svg PUBLIC "-//W3C//DTD SVG 1.1//EN" "http://www.w3.org/Graphics/SVG/1.1/DTD/svg11.dtd">
<svg version="1.1" id="Layer_1" xmlns="http://www.w3.org/2000/svg" xmlns:xlink="http://www.w3.org/1999/xlink" x="0px" y="0px"
	 viewBox="0 0 960 1065.3" enable-background="new 0 0 960 1065.3" xml:space="preserve">
<g>
	<text transform="matrix(1 0 0 1 83.3893 1030.083)"><tspan x="0" y="0" fill="#222222" font-family="'Helvetica'" font-size="50.5263">Badoo </tspan><tspan x="160.1" y="0" fill="#222222" font-family="'Helvetica-Bold'" font-size="56.8421">4</tspan></text>
	<g>
		<path fill="#FF944C" d="M64.8,1010c0,16.5-13.5,30-30,30s-30-13.5-30-30s13.5-30,30-30S64.8,993.5,64.8,1010z"/>
		
			<path fill="none" stroke="#FFFFFF" stroke-width="0.7892" stroke-linecap="round" stroke-linejoin="round" stroke-miterlimit="10" d="
			M64.8,1010c0,16.5-13.5,30-30,30s-30-13.5-30-30s13.5-30,30-30S64.8,993.5,64.8,1010z"/>
	</g>
	<g>
		<g>
			<g>
				<defs>
					<rect id="SVGID_1_" x="0" width="960" height="960"/>
				</defs>
				<clipPath id="SVGID_2_">
					<use xlink:href="#SVGID_1_"  overflow="visible"/>
				</clipPath>
				<g clip-path="url(#SVGID_2_)">
					
						<path fill="#EDEDED" stroke="#FFFFFF" stroke-width="2" stroke-linecap="round" stroke-linejoin="round" stroke-miterlimit="10" d="
						M492.3-36.1c-8.9-2.5-15.8,0.6-24.4,1c0,0-5.1,1.9-6.1,2.1c1.7-0.6,1.3-4,2-6.2c4.9,0,9.4,0.9,14.3,0c1.1-5.4-0.3-7.6,2-12.4
						c6.5,0.8-2-4.1-2-4.1c-5.5-0.8-2.8,2.9-8.2,2.1v-4.1c-5.2-1.9-3,3.9-8.2,2.1v-4.1c-3.3,1.7-3.3-4.6-4.1-6.2c5.1-2,5-2,8.2-4.1
						c-7.1,0-15.4,0-22.4,0c0,0,5.2,4.1,4.1,4.1c-3.6-0.1-6.8-2.5-8.2-2.1c-0.4,0.1-3.8,6.1-4.1,6.2c-8.6,1.5-16.6-1.4-22.5-2.1
						v-4.1c-9.4-1.8-21.3,4.3-28.6,6.2c-1.5-8-2.8-16.5-14.3-18.6c-2-0.4-6.6,1-8.2,0c-0.4-0.3,0-5.7,0-6.2
						c-0.8-0.3-5.3-1.4-6.1-2.1c0.6,1.2,0,4.9,0,6.2c4.6-0.1,3.8,4.6,6.1,6.2c-8.4,2.2-12.6,1.7-20.4,4.1c0.8,3.9-1.3,8.5,0,12.4
						c0.2,0.6,15.8,16.8,4.1,18.6c-13.5,2-10.3-8.7-12.2-18.6c2.4-0.9,5.3,0,6.1-2.1c0.8-2.4-1.3-4.1,0-6.2h-4.1
						c-0.2-0.1,1.8-3.7,2-4.1c-1.7-0.6-4.1-1.1-6.1-2.1c0-0.7,0-1.4,0-2.1c4.3-3.5,7.6-4.6,12.2-8.3c-0.6-1-1.4-2.8-2.4-4.9
						c-2.5,1.7-6.9,4.4-6.9,4.4l-8.1,6.8l-4.8,13.5l-5.8,2.1c0,0,2.1,5.4,0,9.7c-2.1,4.3,1.1,4.3-2.1,11.3c-3.2,7,1.6,5.4,1.6,5.4
						l5.3-1.1L326-25c0,0-3.2,0-2.7,3.8c0.5,3.8,2.7,4.8,5.3,9.2c2.7,4.3,2.1,8.1,2.1,8.1l9.6,2.2c0,0,7.4,1.1,11.2,0
						c3.7-1.1,6.9-0.5,8.5,2.7c1.6,3.2,6.4,10.8,6.4,10.8s6.4-0.5,10.1-0.5c3.7,0,8.5,1.6,8.5,1.6l-1.1,8.1c0,0-3.7,2.2-2.7,7.5
						c1.1,5.4,6.9,7.5,7.4,10.2c0.5,2.7,4.8,5.9,6.9,8.6c2.1,2.7,12.8,8.1,12.8,8.1s-2.7,7-3.2,10.2c-0.5,3.2-5.8,6.5-5.8,6.5
						s-1.6,8.6,2.1,5.9c3.7-2.7,2.1,0.5,3.2,3.8c1.1,3.2,3.2,5.9,3.2,5.9l-1.1,8.1l6.9,4.8c0,0,4.8-4.3,8.5-4.3
						c3.7,0,4.3-6.5,7.4-6.5c3.2,0,4.2-3.2,6.9-3.2c2.7,0,4.3-8.6,7.4-8.6c3.2,0,4.8-2.1,4.8-2.1s-1.1-5.4-4.8-4.3
						c-3.7,1.1-7.4,3.2-9.6,1.6c-2.1-1.6-4.3-2.2-5.3-5.4c-1.1-3.2,2.1-9.2,1.6-11.3c-0.5-2.2-1.1-3.2-3.7-7c-2.7-3.8,0-6.5-2.7-7.5
						c-2.7-1.1-3.7-2.7,1.6-2.2c5.3,0.5,9.6,3.2,9.6,3.2s6.4,0,8.5,2.2c2.1,2.2,8.5,2.2,8.5,2.2s-3.2-1.1-1.6-3.8
						c1.6-2.7,4.2-2.2,4.2-2.2s3.7,1.1,7.4,1.1c3.7,0,2.7-3.2,5.9-3.8c3.2-0.5,3.2-5.9,5.8-5.9c2.7,0,6.4-1.1,6.4-1.1l1.6-4.3
						l-0.5-4.3L470.1,4.6l5.3-2.7c0,0-2.7-5.9,0.5-5.9c3.2,0,11.7-1.1,11.7-4.3c0-3.2-4.8-3.8-4.8-3.8s-1.1-5.9-3.2-6.5
						c-2.1-0.5-3.2-5.4-0.5-5.4c2.7,0,6.9-1.1,10.1-3.2c3.2-2.2,2.6-3.6,2.6-3.6L492.3-36.1z"/>
					
						<path fill="#EDEDED" stroke="#FFFFFF" stroke-width="2" stroke-linecap="round" stroke-linejoin="round" stroke-miterlimit="10" d="
						M582.2,682.5l-2.6-5.9l5.9-9.5c0,0-1.7-2.4-5.4-4c-3.7-1.6-4.8-4.8-5.9-9.2c-1.1-4.3-4.2-3.2-9-5.9c-4.8-2.7-5.3-3.8-8-7
						c-2.7-3.2-7.4-1.6-9-5.4c-1.6-3.8-2.7-7-2.7-7l-11.7-7.5l-9.6,3.2c0,0-4.8,4.3-3.2,10.2c1.6,5.9-4.2,4.3-3.2,10.8
						c1.1,6.5-4.3,8.6-2.7,11.8c1.1,2.1,0.4,6.4-0.1,9c0.9,2.1,3.7,9.7-0.3,7.7c0.6,8.1,1.4,14.9,2,20.7c3.5,1.5,6.5,0.1,10.2,2.1
						c1.6,0.8,2.4,5.3,4.1,6.2c9.5,5.3,11,2.2,20.4,0c0,0,8.2,3.1,12.2,2.1C567.1,703.9,575.7,692.6,582.2,682.5z"/>
					
						<path fill="#EDEDED" stroke="#FFFFFF" stroke-width="2" stroke-linecap="round" stroke-linejoin="round" stroke-miterlimit="10" d="
						M532.9,7.1c-2.1,2.8-5.6,7.3-5.9,8.8c-0.5,2.2,0,4.8-0.5,8.1c-0.5,3.2-4.2,4.3-6.9,6.5c-2.7,2.2,2.1,6.5,1.6,9.7
						c-0.5,3.2,1.6,8.5,1.6,8.5s1.6,1.6,3.7,3.2c2.1,1.6,0,8.6,0,8.6l7.4,13.6l5.4,7.5l6.6-1v3.2l3.7-5.9l-4.8-3.2L547,67l4.9,3.2
						l3.7-2.7l2.1,3.2h6.4c0,0,3.2-4.8,5.3-9.7c2.1-4.8,2.7-11.3,2.7-11.3s-7.4-6.5-7.4-11.3c0-4.8-0.5-17.2-0.5-17.2l5.8-10.9
						c-0.1-0.1,0-6,0-6.2c-14.4-1.9-17.3-0.4-34.7-2.1c-0.7,3.9,1.6,4.8-2,6.2L532.9,7.1z"/>
					
						<path fill="#EDEDED" stroke="#FFFFFF" stroke-width="2" stroke-linecap="round" stroke-linejoin="round" stroke-miterlimit="10" d="
						M285.1,110.7l-4.8,3.8l4.2,2.7c0,0,0.5,3.8,1.6,8.6c1.1,4.8,0.5,9.7,0.5,9.7H284c0,0,1.1,10.2-9.6,16.7
						c-10.6,6.5-14.9,8.6-17,11.3c-2.1,2.7-2.7,4.2-5.3,7.6c-3.3,4.3-5.9,6.5-8.6,15c-1.5,4.6-7.4,7-7.4,7s-2.7,1.6-3.7-2.7
						c-1.1-4.3-3.7-8.1-3.7-8.1s-2.7,3.8-5.3,3.8c-2.7,0-5.9-4.3-5.9-4.3l5.9-4.3l-1.6-2.7l-1.2-3.5l-1.3,1.1c-4.1,3.7-8,8-8.5,11.7
						c-0.6,3.5,4.1,10.3,4.1,10.3c-0.7,0.3-4.8,1.6-2,4.1c0.4,0.4,4,2,4.1,2.1c0.6,5-3.6,6.7-2,10.3c1.2,2.8,12.2,7.9,14.3,10.3
						c2.4,2.7,1.7,7.4,4.1,10.3c1.5,1.9,6.3,2.3,8.2,4.1c2.3,2.3,2,7.6,4.1,10.3c1.7,2.4,6.4,3.7,8.2,6.2
						c6.9,10.3,6.6,20.9,10.2,35.1c2.8,11.5,22.8,43.4,20.4,53.7l-2,4.1c1.3,2.1,7.1,6.1,8.2,8.3c2.7,5.2,0.8,8.4,4.1,12.4
						c1.9,2.4,11.3,6.1,14.3,8.3c1.5,1,2.5,5.2,4.1,6.2c13.2,8.3,28.4,14.3,37.7,26.5l0.4,0.4c0,0,3.5-3.4,4.5-6.6
						c1.1-3.2,7.5-7.1,7.5-7.1s5.7-8.8,7.8-12.1c1.5-2.3,0.8-4.9,0.2-6.2c-1.7-0.5-8.5-2.9-9.1-3.2c0.2-0.5,2.4-4.1,2-4.1
						c-2.6-0.7-3.3-5.4,0-4.1c2.2,0.9,3.5,2,4.5,3.3c-0.2-1.2-0.6-2.8-1.4-3.9c-1.6-2.2,1.1-5.4,1.1-5.4s-2.1-4.3-3.7-8.1
						c-1.6-3.8,1.1-11.3,1.1-11.3l3.7-10.2l-8.5-17.2l-14.9-4.8l2.7-40.4c0,0,1.1-5.9-2.1-3.2c-3.2,2.7-10.1,6.5-10.1,6.5h-12.2
						c0,0-2.7-2.7-2.7-5.9c0-3.2-8-5.4-9-9.2c-1.1-3.8-8-6.5-8-6.5l2.1-6.5c0,0,0-6.5-2.1-7c-2.1-0.5-2.1-7-2.7-9.7
						c-0.5-2.7,5.8,0,5.8,0s-0.5-3.2,0-7c0.5-3.8,2.1-5.4,4.3-9.2c2.1-3.8,1.6-8.6,3.2-11.8c1.6-3.2,8-5.4,11.2-8.6
						c3.2-3.2,8.5-3.8,11.7-4.8c3.2-1.1,6.9-1.1,10.6-1.1c3.7,0,4.2-4.8,4.2-4.8l-4.2-2.7h-6.4l13.3-25.8c0,0-2.7-4.3-6.4-4.3
						c-3.7,0-8.5-1.1-10.1-3.2c-1.6-2.2-9.6-1.6-9.6-1.6l-1.1,4.3c0,0-4.8-2.2-7.4-2.2c-2.7,0-4.3-4.8-4.3-4.8l-0.5-4.9l-7.5-0.5
						c0,0-6.9-3.8-6.4-5.9c0.5-2.2-3.2-7.6-5.8-7.6c-2.7,0-2.7-7-2.7-7H285.1z"/>
					
						<path fill="#EDEDED" stroke="#FFFFFF" stroke-width="2" stroke-linecap="round" stroke-linejoin="round" stroke-miterlimit="10" d="
						M514.2,435.4l-5.4-5.1l-12.3-3.6l-15.8,1.6c0,0-7.4,10.2-7.4,12.4c0,2.1-4.8,9.1-4.8,9.1v5.4l-8,18.8l7.4,4.8
						c0,0,2.1,3.8,3.7,6.5c1.6,2.7,2.1,5.9,5.3,6.5c3.2,0.5,3.2,3.2,5.3,5.9c2.1,2.7,1.6,9.7,5.9,9.7c4.3,0,4.3,1.6,8,6.5
						c3.7,4.9,6.4,1.1,9,3.8c2.7,2.7,3.2,3.8,5.3,4.8c2.1,1.1,4.3,7,8.5,9.7c4.3,2.7,0.5,5.9,0.5,10.2s-3.2,9.7-5.9,12.9
						c-2.7,3.2-5.3,10.2-5.3,10.2s2.1,1.6,4.8,0.5c2.7-1.1,6.4-0.5,9.6,1.6c3.2,2.1,5.8,1.6,9,1.1c3.2-0.5,7.4,0,11.2,1.1
						c3.7,1.1,7.5-0.7,7.5-0.7s0.7,0.3,1.8-3c1.1-3.2,4.1-6,6.7-8.1c2.7-2.2,2.7-10.8,1.1-12.9c-1.6-2.2,2.1-7.5,2.1-7.5
						s-0.5-12.4,1.6-15.6c2.1-3.2,2.1-11.3,2.1-13.5c0-2.2-4.8,0-7.4,1.1c-2.7,1.1-3.2-3.2-3.7-7.6c-0.5-4.3,0.5-10.2,0.5-15.1
						c0-4.8-2.7-6.5-6.9-7c-4.2-0.5-3.7-4.8-3.7-4.8l-2.1-3.2l-3.7,2.2c0,0-15.4,0-14.9-3.8c0.5-3.8-3.2-5.9-2.1-11.3
						c1.1-5.4,1.6-9.7-0.5-12.9c-2.1-3.2-3.6-5.7-3.6-5.7L514.2,435.4z"/>
					
						<path fill="#EDEDED" stroke="#FFFFFF" stroke-width="2" stroke-linecap="round" stroke-linejoin="round" stroke-miterlimit="10" d="
						M532.8,7.2c-1.2-4.2,1.2-8.4-1.6-11.2c-1-1-4.7,0.5-6.1,0c-0.8-0.3-3.6-5.6-4.1-6.2c-4.4,0.7-3.8,2.5-8.2,2.1
						c0,1,0.6,7.6,0,8.3c-0.9,0.8-0.7-5.1-3.4-2.6c4.3-8.8,0.6-9.1,3.4-20.2c-2.2-1.4-3.9,1.1-6.1,0v-4.1c-1.1-0.5-4.8-1.1-6.1-2.1
						c-1.3-1-2.5-5.6-4.1-6.2c-2.6-1.1-2.2-0.6-4.3-0.9l-0.4,5.3c0,0,0.6,1.4-2.6,3.6c-3.2,2.1-7.4,3.2-10.1,3.2
						c-2.7,0-1.6,4.9,0.5,5.4c2.1,0.5,3.2,6.5,3.2,6.5s4.8,0.5,4.8,3.8c0,3.2-8.5,4.3-11.7,4.3c-3.2,0-0.5,5.9-0.5,5.9l-5.3,2.7
						l11.7,18.3c0,0,7.4,3.2,10.1,2.2c2.7-1.1,3.2,3.8,3.2,3.8l-4.3,4.3c0,0,4.8,2.7,6.9,3.2c2.1,0.5-2.1,3.2,0,5.9
						c2.1,2.7,2.7,3.2,0,5.9c-2.7,2.7-7.5,5.4-7.5,5.4s1.1,16.7-0.5,21c-1.6,4.3,2.1,6.5,3.7,8.6c1.6,2.1,6.4,2.7,6.4,5.4
						c0,2.7,3.2,4.3,5.3,4.3c2.1,0,3.2-5.9,5.8-4.9c2.7,1.1,1.1-4.8,4.3-4.3c3.2,0.5,10.1-4.8,13.8-2.7c3.7,2.2,10.2,0.5,10.2,0.5
						l-5.4-7.5l-7.4-13.6c0,0,2.1-7,0-8.6c-2.1-1.6-3.7-3.2-3.7-3.2s-2.2-5.3-1.6-8.5c0.5-3.2-4.2-7.5-1.6-9.7
						c2.7-2.1,6.4-3.2,6.9-6.5c0.5-3.2,0-5.9,0.5-8.1C527.3,14.5,530.6,10,532.8,7.2z"/>
					
						<path fill="#EDEDED" stroke="#FFFFFF" stroke-width="2" stroke-linecap="round" stroke-linejoin="round" stroke-miterlimit="10" d="
						M569.9,10.4l-5.8,10.9c0,0,0.5,12.4,0.5,17.2c0,4.8,7.4,11.3,7.4,11.3s-0.5,6.5-2.7,11.3c-2.1,4.8-5.3,9.7-5.3,9.7
						s1.1,5.4,4.3,7.5c3.2,2.2,7.4-2.7,7.4-2.7l7.3-0.8l4.9,3.5c0,0,8-8.6,8.5-11.3c0.5-2.7,2.1-15.1,2.1-15.1l2.6-8.6
						c0,0,1.2-3.4,3.1-7.6c0.1-1.7,1-3.8,0.2-4.8c-1.7-2-6.6-2.2-8.2-4.1c-2.5-3.2-3.2-10.1-6.1-12.4c-1.2-1-7.3-3.9-8.2-4.1
						C576.4,8.4,574.3,12.1,569.9,10.4z"/>
					
						<path fill="#EDEDED" stroke="#FFFFFF" stroke-width="2" stroke-linecap="round" stroke-linejoin="round" stroke-miterlimit="10" d="
						M798.5,1085.1c2.1,1.4,4.4,6.1,6.1,8.3c0,0,6.1-3.1,4.1-4.1c-0.3-0.2-1.3-1.7-2-4.1C802.2,1085.9,799.9,1085.9,798.5,1085.1z
						 M508.7,1023.1c-5.7,5.5-10,11.4-16.3,16.6v2.1c1.2,0.6,3.8,4.6,6.1,4.1l2-6.2c4.8-0.9,3.3,2.8,8.2,2.1l-2-6.2
						c6.1-1.5,6.9,0.4,16.3-2.1v-4.1c-7-1.4-3.5,0-10.2,0C511.4,1026.6,511.3,1024.2,508.7,1023.1z M482.2,1023.1
						c-1.7,0.6,1.9,9.6,2,10.4c-1.9,1.3-4.1,0.5-6.1,2.1c-3.4,2.5-2.7,8.3,4.1,6.2c0,0,3.1-6.1,4.1-6.2c3.5-0.3,1,3.9,4.1,2.1
						c1.3-0.8,2.4-7.2,4.1-8.3C503.3,1023.7,486.1,1021.6,482.2,1023.1z"/>
					
						<path fill="#EDEDED" stroke="#FFFFFF" stroke-width="2" stroke-linecap="round" stroke-linejoin="round" stroke-miterlimit="10" d="
						M220.5,171.2l1.3,3.5l1.6,2.7l-5.9,4.3c0,0,3.2,4.3,5.9,4.3c2.7,0,5.3-3.8,5.3-3.8s2.7,3.8,3.7,8.1c1.1,4.3,3.7,2.7,3.7,2.7
						s6-2.4,7.4-7c2.7-8.5,5.3-10.7,8.6-15c2.6-3.4,3.1-4.9,5.3-7.6c2.1-2.7,6.4-4.8,17-11.3c10.6-6.5,9.6-16.7,9.6-16.7h2.7
						c0,0,0.5-4.9-0.5-9.7c-1.1-4.8-1.6-8.6-1.6-8.6l-4.2-2.7l5.2-4.2c0,0-7.9-2.3-9.5-5.5c-1.6-3.2-3.7,1.1-3.7,1.1l-12.2-2.7
						c0,0-3.2-2.2-3.7-4.9c-0.5-2.7-3-5.6-3-5.6s-5-1.4-8.2-3.6c-3.2-2.2-4-6.2-4-6.2c-4.9,3.4-9,6.6-14.1,10.2
						c8.5,7.8-3.7,16.9-4.1,18.6c-1.6,6.2,3.3,7.7,2,12.4c-0.6,1.8-6.6,4.8-8.2,6.2c0,0,1.5,4.5,4.1,2.1l-2,6.2
						c-0.4-1.6-2.9,9.9,2,8.3c-1,1.6-3.1,7.8-4.1,8.3c2.1,1.4,9.1,2.2,10.2,4.1c1,1.7-2.2,2.7,0,6.2
						C225.3,167.1,223.5,168.5,220.5,171.2z M231.1,155.1v4.1C224.3,160.9,228.2,155.7,231.1,155.1z M61.7,105.5
						c0.9,4,2,14.5,2,14.5c-1.1,0.5,1.6,4.8-2,2.1c-3.1,1.5,2,4.1,2,4.1C73.7,116.3,66.9,115.9,61.7,105.5z"/>
					
						<path fill="#EDEDED" stroke="#FFFFFF" stroke-width="2" stroke-linecap="round" stroke-linejoin="round" stroke-miterlimit="10" d="
						M368.4,367.3l3.6,4.8c1.7,2.2,3.3,2.8,6.1,4.1c4.5,2-1.6-0.2-7.9-2.2c-0.1,0.5,2.5,4.3,0.4,7.5l-7.8,12.1l2.3,8.3
						c0,0,3.3,12.5,6.5,14.6c3.2,2.1,6.9,8.1,6.9,8.1s1.1,8.6,2.7,12.4c1.6,3.8,2.1,10.8,4.2,13.5c2.1,2.7,1.1,13.5,1.1,13.5
						l1.6,11.9l7.4,3.8l10.1-8.1c0,0,6.9,3.2,11.7,3.2h9c0,0,3.4,6,4.4,7.9c0.5,1.1,0.8,1.8,1.1,1.9c0.5,0,1.2-1.9,3.6-7.8
						c2.9-7.1,5.3-2.4,5.3-2.4l19.7-0.2l8-18.8v-5.4c0,0,4.8-7,4.8-9.1c0-2.1,7.4-12.4,7.4-12.4l15.8-1.6l12.3,3.6l7,6.4l4.2-1.6
						l-3.5-4.1c0,0,4.2-13.4,4.2-17.7c0-4.3,1.6-4.9,0-8.1c-1.6-3.2-2.7-5.4-6.4-8.1c-3.7-2.7-3.7-5.4-4.8-9.7
						c-1.1-4.3,1.1-8.6,1.1-8.6l-20.2,1.1c0,0,0.5-3.2-2.1-7.5c-2.7-4.3-4.3-7.5-2.7-10.8c1.6-3.2,4.8-7,4.8-7s-1.6-4.8-3.2-8.6
						c-1.6-3.8-2.1-9.2-4.3-11.8c-2.1-2.7-4.8,0-8.5,0c-3.7,0-5.8-2.7-10.6-2.7c-4.8,0-6.4-3.8-9.6-5.9c-3.2-2.2-2.7-3.8-6.9-5.9
						c-4.3-2.2-6.4-4.3-10.1-8.6c-3.7-4.3-5.8,1.1-9,0.5c-3.2-0.5-4.3-1.1-6.9-2.2c-2.7-1.1-4.3-4.3-5.9-8.1c-1.6-3.8,4.8-14,4.8-14
						l-2.7-3.8h-5.8c-3.7,0-10.6,3.2-15.9,4.3c-5.3,1.1-14.4,16.2-14.4,16.2L377,305c0,0-3.7,1.6-2.1,3.8c1.6,2.2-5.3,5.4-8,3.2
						c-2.7-2.1-6.4-1.1-6.4-1.1l8.5,17.2l-3.7,10.2c0,0-2.7,7.5-1.1,11.3c1.6,3.8,3.7,8.1,3.7,8.1s-2.7,3.2-1.1,5.4
						C367.8,364.4,368.2,366,368.4,367.3z M398.5,419.6c2.1,1,6.4,12.1,0,8.3C398.5,427.9,394,417.5,398.5,419.6z"/>
					
						<path fill="#DFDFDF" stroke="#FFFFFF" stroke-width="3" stroke-linecap="round" stroke-linejoin="round" stroke-miterlimit="10" d="
						M241,82.6c0,0,0.9,4.4,4.1,6.5c3.2,2.2,8.2,3.6,8.2,3.6s2.5,2.9,3,5.6c0.5,2.7,3.7,4.9,3.7,4.9l12.2,2.7c0,0,2.1-4.3,3.7-1.1
						c1.6,3.2,11.2,5.9,11.2,5.9h6.4c0,0,0,7,2.7,7c2.7,0,6.4,5.4,5.8,7.6c-0.5,2.1,6.4,5.9,6.4,5.9l7.5,0.5l0.5,4.9
						c0,0,1.6,4.8,4.3,4.8c2.7,0,7.4,2.2,7.4,2.2l1.1-4.3c0,0,8-0.5,9.6,1.6c1.6,2.2,6.4,3.2,10.1,3.2c3.7,0,6.4,4.3,6.4,4.3
						l-13.3,25.8h6.4l4.2,2.7c0,0,13.8-35,14.4-38.2c0.5-3.2,1.1-7-1.1-11.3c-0.8-1.6-7.4-3.8-7.4-3.8l-0.5-4.8l10.6-1.1l-0.5-4.8
						l-2.4-2.2h-4.8l-0.2-8.6c0,0,4-1.1,7.7-1.1c3.7,0,17.8-2.7,17.8-2.7v-5.9l4.3,3.2l4.8-1.6l1.6-6.5l4.8,0.5l1.1,6.5l4.3,1.1
						l1.1-8.1c0,0-2.1-2.7-3.2-5.9c-1.1-3.2,0.5-6.5-3.2-3.8c-3.7,2.7-2.1-5.9-2.1-5.9s5.3-3.2,5.8-6.5c0.5-3.2,3.2-10.2,3.2-10.2
						s-10.6-5.4-12.8-8.1c-2.1-2.7-6.4-5.9-6.9-8.6c-0.5-2.7-6.4-4.8-7.4-10.2c-1.1-5.4,2.7-7.5,2.7-7.5l1.1-8.1
						c0,0-4.8-1.6-8.5-1.6c-3.7,0-10.1,0.5-10.1,0.5s-4.8-7.5-6.4-10.8c-1.6-3.2-4.8-3.8-8.5-2.7c-3.7,1.1-11.2,0-11.2,0L330.8-4
						c0,0,0.5-3.8-2.1-8.1c-2.7-4.3-4.8-5.4-5.3-9.2C322.8-25,326-25,326-25l-5.9-12.4l-5.3,1.1c0,0-4.8,1.6-1.6-5.4
						c3.2-7,0-7,2.1-11.3c2.1-4.3,0-9.7,0-9.7l5.8-2.1l4.8-13.5l8.1-6.8c0,0,4.3-2.8,6.8-4.5c-0.4-0.9-1.6-3.3-1.6-3.3
						c-4.7,1.2-5,0.6-8.2,2.1v4.1c-0.6,1.5-14.9,11.8-16.3,12.4c-1.6,0.6-5.7-3.9-10.2-2.1c-2.5,1-1.3,4.9-2,8.3c0,0-2.1-0.4-2-2.1
						c0-0.5-5.8,0.1-8.2,0c-0.9,5.4-1.1,9.3-2,16.5h-4.1c-0.8,2.1,1.2,6.3,0,8.3c-0.2,0.3-5.7,0-6.1,0c-1.5,2.8-5.6,8.8-6.1,10.3
						c-0.8,2.3,0.9,6,0,8.3c-2.7-1.9-5-3.4-7.4-5.4l-1.2,5.4c0,0,3.2,1.8,3.2,5.6c0,3.8-3.2,6.9-3.2,6.9l-1.6,4.1
						c0.2,5.6-0.5,17.5,2,18.6c-2.9,10.3-3.9,22-8.2,35.1c2.6,0.9,6.2,2.6,8.2,4.1c-4.8,7.7-11.7,12.3-20.4,16.5c5.5,3-8,7.4,2,12.4
						c-1.5,0.8-6.6,0-8.2,0C239,77.2,240.4,80.7,241,82.6z"/>
					
						<path fill="#DFDFDF" stroke="#FFFFFF" stroke-width="3" stroke-linecap="round" stroke-linejoin="round" stroke-miterlimit="10" d="
						M355.4,400.6c-1.1,3.2-4.5,6.6-4.5,6.6c3.2,4.4,5.3,8.6,6.8,14.5c5.5,21.8,0,45.6,0,74.4h-4.1c-0.5,5.6,3.8,6.8,4.1,8.3
						c0.1,0.8-4.1,10-4.1,10.3c-1.5,9.4,2.3,18.2,2,24.8l-4.1,6.2c-1.9,10.7-1.5,47.5-10.2,53.7l4.1,12.4c0.1-1.2,2.4,1.7,2,4.1
						c-1,6.5-6.4,13.1-6.1,20.7c0.1,4.9,7.3,19.4,4.1,31c-0.7,2.4-7.3,3.6-8.2,6.2c-1.5,4.4,0,11.8,0,16.5c-0.7,0.3-4,1.7-4.1,2
						c-2.5,9.3-8.7,34.4-6.1,26.9c3.3,1.6,0,4.3,0,4.1c-2.1,7.1-7.2,34.3-14.3,33.1c-0.5-0.1,4,1.7,6.1,2.1c1,5.5,0.2,8.6,2,14.5
						c-0.5-2.8,3.1,20.1,2,26.9h-4.1c-4.1,20.2-11.2,37.7,10.2,33.1c-0.8,7.1-2,16.9-2,26.9l-4.1,2.1c-0.8,7.3,4.8,7.3,4.1,14.5
						l-2,2.1c-2.9,1-6.1,5.7-2,4.1v4.1c-1,0-4-2.8-4.1-2.1c-4.3,16.1,0,22.3-2,41.3c-3.1-1.8-4.3-4.4-8.2-4.1c5,2.4-4.1,4.1-4.1,4.1
						c-1-0.7,1.7-3.5,2-4.1c-2.7-1.4-5.8-2.2-8.2-4.1c-1.1,4.3-1.3,0-4.1,2.1v4.1c0-0.1-2.2,8.5-4.1,12.4l6.1-4.1
						c0.3,0.2,0,5.7,0,6.2c1.4,0,5-0.6,6.1,0c-1.5-0.7,6-7.7,8.2,0c1,3.6-2,8-2,8.3c0,0,9.4,7.9-2,6.2c1.1,15.1,1,18.5,0,33.1
						c0.2-0.5,2.9-4,4.1-4.1c3.7-0.5-4.1,8.3-4.1,8.3c-1.1,2-0.4,6.9-2,8.3c-3.6,2.8-1.2-1.7-2-2.1c1.8-13.6,1.1-25.2-2-37.2
						c-1.7,0.8-6.4,0-8.2,0c-1,2.1,3.8,3.2,2,4.1c-13.3,6.7-2.4,11.8-2,18.6c0.4,7.2-0.7,3.2-4.1,6.2c0.9,3.2,2.7,4.9,2,8.3
						c4.9,1.5,8,1.1,12.2,2.1c0,0.4-0.4,5.9,0,6.2c2.2,1.3,3.8-1.4,6.1,0c1.1,0.6-0.9,4.9,0,6.2c-1.5-1.2-4.1-3.8-6.1-4.1
						c2.6,0.6,0.9,13.1,0,6.2c-2.9-1-2.2-1.1-6.1-2.1c0,0.3-0.1,6.1,0,6.2h-2c0,3.9,0.5,8.5,0,12.4c0.5-0.5,5.4,0,6.1,0
						c0.2-0.6,2.5-7.3,4.1-8.3c0.6,1.9,2,4.1,2,4.1c1-9.2-3.8-6.8,2-10.3v-4.1c2.1,0.7,2.5,3.5,6.1,2.1c-8.7,7.2-5.2,12.7-4.1,10.3
						h2c0,0-1.1,9.8-2,6.2v4.1c-4.8,0.6-2.9-2.6-6.1-2.1v4.1c0,0-7.7-0.2-2-2.1c-3.1,1.1-6.4,0-10.2,0c5.2,11.1,4.2,22.6,16.3,26.8
						c0,0,9.6,1.6,6.1,0c-6.1-3-18.9-11-4.1-8.3c-0.9-3.9,1.3-8.6,0-12.4c-0.3-0.9-3.6-1.9-4.1-4.1c4.4,0.5,6.1-2.6,8.2-2.1
						c0.2,0,0.3,3.5,4.1,4.1c0.4-0.7,3.4-6.1,4.1-6.2c3.5-1,8.7,3.8,4.1,4.1c-2.7,6-1.1-2.5-4.1,0c-0.7,0.5,0,7.2,0,8.3
						c-1.2-0.3-3.9-3.7-4.1-4.1c0,0-8.9,5.3-4.1,4.1c0.6,5.5,1.4,11.1,2,14.5c4.8-1,9.3,2.1,0,2.1c-1.2,4.6,0.1,6.8-2,10.3
						c1.8,1,7.5,2.8,6.1,2h2v4.1c-6.4-1.7,6.1,4.1,6.1,4.1c3.4-0.5,2.9-5.8,0-6.2c0,0,1.5-4.6,2-6.2c-14.5-0.6,2.4-4.8-2-4.1
						c0.3-0.1,0.8-3.7,4.1-2.1c0.7,0.3,0.8,7.4,2,8.3c2.7,1.9,7.3,1.3,10.2,2c-0.3,0,0,5.9,0,6.2c-5.6-2.1-4.4-1.2-12.2-4.1
						c0.4,0.2,3.6,7.4,4.1,8.3c2.2-0.1,8.2-2.1,8.2-2.1c19.3-0.2-12.2,6.2-12.2,6.2v6.2c4.1-0.2,1.2-1.2,2-4.1
						c4.4,1.7,6.4,0.9,12.2,2.1v4.1c2.8,0.8,7.5-1.4,10.2,0c1.9,0.9-1.9,2.8,2,4.1l4.1-2.1c-0.4,0.1,3.2,4.1-6.1,4.1
						c0.5,0.4,4.1,6.2,4.1,6.2c2.6-0.1,6.1,2.1,6.1,2.1c8.5,1-1.4-4.1,4.1-6.2c2.9-1.1,14.7,2.9,8.2-2.1v-4.1
						c-4.2-0.8-4.2-0.4-6.1-2.1c2.1,1.1,5.9-1.1,8.2,0l6.1,10.3h4.1c1.7-1.4,0.8-4.3,4.1-4.1c0.8-2.5,0.3-5.4,2-6.2
						c8-3.8,17.2,0.3,22.4,0c-0.4-0.9-27-2.4-32.3-3.5c-5.3-1.1-10.9,0.2-10.9,0.2l-1.1-40.5c-2.6-0.7-7.2-2.7-10.7-3.8
						c1.5-0.9,3.2-6.6,4.1-8.2c0.1,0,7.3-0.5,4.1,2.1c3.6,0,2.4-0.1,6.1,0c-0.7-0.6-1-0.3-1.4-3.2c0,0-17.5-2.4-22.3-2.4
						c-4.8,0-17.6,1.2-17.6,1.2s-9.1-8.7-11.3-13.6c-2.1-4.8-4.3-7.6-1.6-10.2c2.7-2.7,2.6-5.7,0-9.4c-2.7-3.8-3.3,1.8-6.4,1.8
						c-3.2,0-3.1-4.2-3.1-9c0-4.9,1.6-5.9,3.2-10.2c1.6-4.3,0.5-6.5-1.6-12.4c-2.1-5.9,6.4-5.9,9.6-8.6c3.2-2.7,2.7-5.4,2.1-9.7
						c-0.5-4.3-2.1-6.5,0.5-9.7c2.7-3.2,4.3-5.4,4.3-5.4s1.1-2.2,0.5-5.4c-0.5-3.2,0.5-7,1.6-12.4c1.1-5.4,1.1-5.9-0.5-10.2
						c-1.6-4.3-3.2-7-1.1-8.1c2.1-1.1,1.1-5.4,4.3-5.9c3.2-0.5-0.5-3.2-1.1-5.4c-0.5-2.1,0.5-6.5,2.7-8.6c2.1-2.2-1.6-5.9-1.6-10.2
						c0-4.3-1.6-5.4-0.5-8.6c1.1-3.2-3.2-6.5-4.8-10.2c-1.6-3.8,4.2-9.2,4.8-14.5c0.5-5.4,0-7,0-11.8c0-4.9,0-2.7-3.7-4.9
						c-3.7-2.2-0.5-7.5-0.5-12.4c0-4.8-5.9-9.2-1.6-12.9c4.2-3.8,3.7-5.4,4.2-9.7c0.5-4.3,1.6-15.6,4.8-20.5
						c3.2-4.8,3.7,0.5,3.7-4.3c0-4.8-3.7-6.5-3.2-10.8c0.5-4.3,1.6-8.6,1.1-12.9c-0.5-4.3,5.3-9.7,5.3-9.7s4.3,1.1,5.8-2.7
						c1.6-3.8,0.5-4.8-0.5-9.2c-1.1-4.3-1.6-5.9,0.5-10.8c2.1-4.8,5.9-13.5,5.9-19.9c0-6.5,1.1-8.1-0.5-12.9
						c-1.6-4.8-1.1-6.5,1.6-10.8c2.7-4.3,1.1-5.9,0.5-12.4c-0.5-6.5,1.1-7,1.1-15.1c0-8.1,1.1-7.5,3.2-11.8c2.1-4.3,0-7,0-13.5
						c0-6.5,1.6-10.2,2.1-18.8c0.5-8.6,4.8-7,7.4-13.5c2.7-6.5,4.3-6.5,5.8-11.3c1.6-4.8,2.7-7,1.6-11.8c-1.1-4.9-2.7-7,1.1-9.2
						c3.7-2.2-1.1-5.9-1.6-10.8c-0.5-4.8-0.5-12.4,0-16.1c0.5-3.8,7.4-3.8,9-8.1c1.6-4.3,8-3.8,9-8.1c1.1-4.3,2.7-11.8-2.1-14
						c-4.8-2.2-3.2-11.3-3.2-11.3l-7.4-3.8l-1.6-11.9c0,0,1.1-10.8-1.1-13.5c-2.1-2.7-2.7-9.7-4.2-13.5c-1.6-3.8-2.7-12.4-2.7-12.4
						s-3.7-5.9-6.9-8.1c-3.2-2.2-6.5-14.6-6.5-14.6l-2.3-8.3C362.9,393.5,356.4,397.4,355.4,400.6z M378.1,1107.8
						c0.7,0.2,2,6.1,2,6.2C387.2,1117,384.6,1110.6,378.1,1107.8z M345.4,1097.5c-5.5,0.4,6.1,4.1,6.1,4.1
						S354.2,1096.6,345.4,1097.5z M288.3,1010.7l2,4.1C295.7,1015.9,290.6,1011.2,288.3,1010.7z M292.4,1000.3v8.3
						C300.2,1008.6,300.2,1000.3,292.4,1000.3z M341.4,1052c3.9-2.3,0.6,1.3,2,2.1c0.8-1.3-1.3,6.7-4.1,8.3
						C336.3,1063.9,339.4,1053.1,341.4,1052z M329.1,1052l2,6.2C323.1,1057.9,325.1,1052.3,329.1,1052z M353.6,1047.9
						c3.8,0.6,8.4,0,12.3,0l-2,4.1c-3.7,1.4-5.7-2-6.1-2.1c-0.6,1.8-4,1.2-6.1,2.1c0.8,8.2,1.3,8.3,2,14.5c3.3-1,4.9-3,8.2-2.1v4.1
						c-1.3,0.3-6.3,1.1-8.2,2.1c0.4,1.4,3.2,7.4,2,8.3c1.4-0.7,4.7,0,6.1,0c-22.1,12.3,17.8-2.5-6.1,8.3c-0.1,0-7.5-0.2-4.1-2.1
						c0,0.2,0.4-7.3,0-12.4c-1.5-0.6-4.8,0-6.1,0c0.7-5.7,1.7-16.7,4.1-22.7L353.6,1047.9z M310.7,897c-4.8,1.4-12.5,11-2,12.4
						c0,0-10.2,10.6-4.1,8.3c0.1-0.1,18.4-14.8,4.1-8.3c1.7-1-1.9-6.8,4.1-4.1c0.5-1.1,1.2-3.8,2-4.1
						C314.7,900.9,312,896.6,310.7,897z M306.7,882.5l2,4.1C307.9,883.8,310.6,882.5,306.7,882.5z M310.7,837.1
						c0,10.8-1,20.5-2,28.9c0.3-0.2,4.5,1.5,6.1,2.1c1.1-2.7,5.4-5.8,6.1-8.3c1.3-4.8-2.4-6.8-4.1-8.3c1.9-5.7,2-7.4,4.1-14.5
						C313.8,837.6,315.3,838.2,310.7,837.1z"/>
					
						<path fill="#DFDFDF" stroke="#FFFFFF" stroke-width="3" stroke-linecap="round" stroke-linejoin="round" stroke-miterlimit="10" d="
						M604,37.3l4.7,0c1.8,4.8,3.1,6,4.1,8.3c3.9,10,3,18.6,6.1,28.9c1.7,0,6.7-0.9,8.2,0c1.1,0.7-1.1,5.4,0,6.2
						c-3.3,1.6-7.6,4.3-10.2,6.2c14.5,7.6,13.3,0.6,6.1,16.5c2.7,0.3,2.9,3.8,4.1,4.1c5,1.2,4.1-2.7,10.2-2.1l-2,6.2
						c2.9,1,9.9-2,12.2,0c1.8,1.5-4.8,11,0,14.5h4.1l2-6.2c10.7-4.3,29.7,7.8,34.7,10.3v4.1c0.1,0.1,4.6-1.6,6.1-2.1l2,8.3h4.1
						c1.7,3.7-1.6,6.1-2,8.3c5.7,4.6,2.2,1,4.1,8.3c0.4-0.5,5.4,0,6.1,0c0.4-1.5,1.3-8.1,2-8.3c10.1-3.8,12.6,5,16.3,6.2
						c1.7,0.5,4-3,8.2-2.1l2,4.1c8.5,3.3,14.9-1.4,20.4,0c4,1,20.7,11.2,24.5,14.5c2.6,2.2,11.9,18.4,12.2,18.6
						c3.6,2.4,4.8-3.5,10.2-2.1c0.2,0.1,0,5.8,0,6.2c0.6,0.1,7.1-1.6,10.2-2.1c1.7,4.3,3.3,12,6.1,16.5c0.8,1.2,5.6,2.8,6.1,4.1
						c6.4,18.9-0.5,47.1-8.2,57.9c-4.8,6.7-15.5,9.9-20.4,16.5c-7.3,9.6-8.7,23.7-14.3,35.1c-3.7-2.6-6.1-4.4-10.2-6.2
						c-1,3.7,3.2,5,2,6.2c-9.1,8.7-4,8.7-6.1,16.5h-4.1c-0.4,5.4,1.1,2.4,4.1,4.2c-0.6,7.2,2.4,19.5,2,31h-2c-0.8,4.8,0,9.6,0,14.5
						l-4.1,2.1c-0.6,7.1,4.3,14.4,4.1,16.5c-0.3,1.7-7.6,4.3-8.2,6.2c-1.7,4.9,1.3,11.4,0,16.5c-1.8,6.7-20.5,23.6-22.5,33.1
						c-1.4,6.7,1.4,11.9,2,16.5l-8.2,4.1c-0.3,0.6,0.6,5.8,0,6.2c-8.7,4.5-12.9-2.3-14.3-2.1c-0.3,0,0,5.9,0,6.2
						c-8.6,1.2-12.6,0.8-20.4,2.1c-1.1,3.7-0.6,1.1-4.1,2.1l2,8.3c-3.7,2.7-16.2,1.5-20.4,4.1c-2.2,1.3-0.6,3.9-2,6.2
						c-3.7,6-18.3,10.9-24.5,14.5v4.1c-3.1,1.8-6.3-0.9-8.2,2.1c-1.7,2.5,4.6,2.8,2,4.1c-10.6,5.3,3.8,37.8,0,49.6
						c-2.3,6.9-13.1,12.5-16.3,18.6c-4.8,8.9-3.8,19.2-8.2,28.9c-1.4,3-6.6,5.7-8.2,8.3c3.2-6.6,5.4-12.3,8.2-20.7
						c-3.5-1-1.1,3.3-6.1,2.1c-0.8-0.2-3.3-3.4-6.1-4.1c-1.1,3.5,1,6.7,0,10.3c-0.4,1.2-18.2,22.2-18.4,22.7
						c-1.2,4.9,3.4,4.3,2,10.3c-0.5,2.2-3.1,7-6.6,12.5l-1.6,1.7l-2.5-5.2l5.9-9.5c0,0-1.7-2.4-5.4-4c-3.7-1.6-4.8-4.8-5.9-9.2
						c-1.1-4.3-4.2-3.2-9-5.9c-4.8-2.7-5.3-3.8-8-7c-2.7-3.2-7.4-1.6-9-5.4c-1.6-3.8-2.7-7-2.7-7l-11.7-7.5l-9.6,3.2
						c0,0,2.1-7.5,2.1-10.2c0-2.7,4.3-4.3,6.9-6.5c2.7-2.1,4.3-6.5,4.3-10.8c0-4.3,8-3.8,9-7c1.1-3.2,2.7-3.2,5.9-5.9
						c3.2-2.7,5.8-5.4,6.9-9.2c1.1-3.8,9.6-2.7,11.2-5.4c1.6-2.7,5.3-2.7,4.8-4.9c-0.5-2.1-0.5-9.1-1.1-14
						c-0.5-4.9-0.5-11.9-0.5-11.9s-5.8-2.7-4.8,0.5c1.1,3.2-6.9-1.6-6.9-1.6s-0.5-12.4,1.6-15.6c2.1-3.2,2.1-11.3,2.1-13.5
						c0-2.2-4.8,0-7.4,1.1c-2.7,1.1-3.2-3.2-3.7-7.6c-0.5-4.3,0.5-10.2,0.5-15.1c0-4.8-2.7-6.5-6.9-7c-4.2-0.5-3.7-4.8-3.7-4.8
						l-2.1-3.2l-3.7,2.2c0,0-15.4,0-14.9-3.8c0.5-3.8-3.2-5.9-2.1-11.3c1.1-5.4,1.6-9.7-0.5-12.9c-2.1-3.2-3.6-5.7-3.6-5.7l-1.2-3.6
						l3.5-1.8l-3.5-4.1c0,0,4.2-13.4,4.2-17.7c0-4.3,1.6-4.9,0-8.1c-1.6-3.2-2.7-5.4-6.4-8.1c-3.7-2.7-3.7-5.4-4.8-9.7
						c-1.1-4.3,1.1-8.6,1.1-8.6l-20.2,1.1c0,0,0.5-3.2-2.1-7.5c-2.7-4.3-4.3-7.5-2.7-10.8c1.6-3.2,4.8-7,4.8-7s-1.6-4.8-3.2-8.6
						c-1.6-3.8-2.1-9.2-4.3-11.8c-2.1-2.7-4.8,0-8.5,0c-3.7,0-5.8-2.7-10.6-2.7c-4.8,0-6.4-3.8-9.6-5.9c-3.2-2.2-2.7-3.8-6.9-5.9
						c-4.3-2.2-6.4-4.3-10.1-8.6c-3.7-4.3-5.8,1.1-9,0.5c-3.2-0.5-4.3-1.1-6.9-2.2c-2.7-1.1-4.3-4.3-5.9-8.1c-1.6-3.8,4.8-14,4.8-14
						l-2.7-3.8h-5.8c-3.7,0-10.6,3.2-15.9,4.3c-5.3,1.1-14.4,16.2-14.4,16.2L377,305c0,0-3.7,1.6-2.1,3.8c1.6,2.2-5.3,5.4-8,3.2
						c-2.7-2.1-6.4-1.1-6.4-1.1l-14.9-4.8l2.7-40.4c0,0,1.1-5.9-2.1-3.2c-3.2,2.7-10.1,6.5-10.1,6.5h-12.2c0,0-2.7-2.7-2.7-5.9
						c0-3.2-8-5.4-9-9.2c-1.1-3.8-8-6.5-8-6.5l2.1-6.5c0,0,0-6.5-2.1-7c-2.1-0.5-2.1-7-2.7-9.7c-0.5-2.7,5.8,0,5.8,0s-0.5-3.2,0-7
						c0.5-3.8,2.1-5.4,4.3-9.2c2.1-3.8,1.6-8.6,3.2-11.8c1.6-3.2,8-5.4,11.2-8.6c3.2-3.2,8.5-3.8,11.7-4.8c3.2-1.1,6.9-1.1,10.6-1.1
						c3.7,0,4.2-4.8,4.2-4.8s13.8-35,14.4-38.2c0.5-3.2,1.1-7-1.1-11.3c-0.8-1.6-7.4-3.8-7.4-3.8l-0.5-4.8l10.6-1.1l-0.5-4.8
						l-2.4-2.2h-4.8l-0.2-8.6c0,0,4-1.1,7.7-1.1c3.7,0,17.8-2.7,17.8-2.7v-5.9l4.3,3.2l4.8-1.6l1.6-6.5l4.8,0.5l1.1,6.5l4.3,1.1
						l6.9,4.8c0,0,4.8-4.3,8.5-4.3c3.7,0,4.3-6.5,7.4-6.5c3.2,0,4.2-3.2,6.9-3.2c2.7,0,4.3-8.6,7.4-8.6c3.2,0,4.8-2.1,4.8-2.1
						s-1.1-5.4-4.8-4.3c-3.7,1.1-7.4,3.2-9.6,1.6c-2.1-1.6-4.3-2.2-5.3-5.4c-1.1-3.2,2.1-9.2,1.6-11.3c-0.5-2.2-1.1-3.2-3.7-7
						c-2.7-3.8,0-6.5-2.7-7.5c-2.7-1.1-3.7-2.7,1.6-2.2c5.3,0.5,9.6,3.2,9.6,3.2s6.4,0,8.5,2.2c2.1,2.2,8.5,2.2,8.5,2.2
						s-3.2-1.1-1.6-3.8c1.6-2.7,4.2-2.2,4.2-2.2s3.7,1.1,7.4,1.1c3.7,0,2.7-3.2,5.9-3.8c3.2-0.5,3.2-5.9,5.8-5.9
						c2.7,0,6.4-1.1,6.4-1.1l1.6-4.3l-0.5-4.3c0,0,7.4,3.2,10.1,2.2c2.7-1.1,3.2,3.8,3.2,3.8l-4.3,4.3c0,0,4.8,2.7,6.9,3.2
						c2.1,0.5-2.1,3.2,0,5.9c2.1,2.7,2.7,3.2,0,5.9c-2.7,2.7-7.5,5.4-7.5,5.4s1.1,16.7-0.5,21c-1.6,4.3,2.1,6.5,3.7,8.6
						c1.6,2.1,6.4,2.7,6.4,5.4c0,2.7,3.2,4.3,5.3,4.3c2.1,0,3.2-5.9,5.8-4.9c2.7,1.1,1.1-4.8,4.3-4.3c3.2,0.5,10.1-4.8,13.8-2.7
						c3.7,2.2,10.2,0.5,10.2,0.5l6.6-1v3.2l3.7-5.9l-4.8-3.2L547,67l4.9,3.2l3.7-2.7l2.1,3.2h6.4c0,0,1.1,5.4,4.3,7.5
						c3.2,2.2,7.4-2.7,7.4-2.7l7.3-0.8l4.9,3.5c0,0,8-8.6,8.5-11.3c0.5-2.7,2.1-15.1,2.1-15.1l2.6-8.6L604,37.3z M647.5,126.1v4.1
						c0,0-2.4,1.6-4.1,2.1C644.7,129.7,643.2,125.5,647.5,126.1z M643.4,132.3v4.1c-2.5,0.2-3.4,4-4.1,4.1
						C630.1,141.9,641.9,133.4,643.4,132.3z M614.8,103.4c1.2-0.2,1.5,4.5,2,6.2c4.3-0.2,5.2-0.9,10.2-2.1c-11,16.3-15.6,18,0,33.1
						c-0.6-0.5-5.5,0-6.1,0c-2.6-4.8-5.6-9.7-8.2-14.5c-0.4,0.1-7-0.4-4.1,2.1c-5.8,0.1-3.1-0.1-2,10.3c-1.5-3.2-2.4-5.2-4.1-10.3
						h-4.1c-4.2,0.8-6.5,2.8-6.5,2.9c0,0,1.4-1.1,4.4-4.9c1.3-1.7,5-2.3,6.1-4.1C606.8,115.1,605.3,104.5,614.8,103.4z M621,93.1
						c2.6,0.5,2.7,3.6-2,4.1C619.5,94.9,617.3,92.3,621,93.1z"/>
					
						<path fill="#DFDFDF" stroke="#FFFFFF" stroke-width="3" stroke-linecap="round" stroke-linejoin="round" stroke-miterlimit="10" d="
						M376.6,1051.7l1.1,40.5c0,0,5.6-1.3,10.9-0.2c5.3,1.1,32.3,3.5,32.3,3.5c-0.9-0.4-0.8-5.5-2-6.2c-4.8-2.9-10.5,0.4-16.3-2.1
						l-20.4-18.6c-2-4.1,1-13.6,0-14.5C380.7,1052.7,376.6,1051.7,376.6,1051.7z M460.5,474.1l-19.7,0.2c0,0-2.3-4.7-5.3,2.4
						c-3.9,9.5-3.2,8.7-4.7,5.9c-1-1.9-4.4-7.9-4.4-7.9h-9c-4.8,0-11.7-3.2-11.7-3.2l-10.1,8.1c0,0-1.6,9.1,3.2,11.3
						c4.8,2.2,3.2,9.7,2.1,14c-1.1,4.3-7.4,3.8-9,8.1c-1.6,4.3-8.5,4.3-9,8.1c-0.5,3.8-0.5,11.3,0,16.1c0.5,4.9,5.3,8.6,1.6,10.8
						c-3.7,2.2-2.1,4.3-1.1,9.2c1.1,4.8,0,7-1.6,11.8c-1.6,4.8-3.2,4.8-5.8,11.3c-2.7,6.5-6.9,4.9-7.4,13.5
						c-0.5,8.6-2.1,12.4-2.1,18.8c0,6.5,2.1,9.2,0,13.5c-2.1,4.3-3.2,3.8-3.2,11.8c0,8.1-1.6,8.6-1.1,15.1c0.5,6.5,2.1,8.1-0.5,12.4
						c-2.7,4.3-3.2,5.9-1.6,10.8c1.6,4.9,0.5,6.5,0.5,12.9c0,6.5-3.7,15.1-5.9,19.9c-2.1,4.8-1.6,6.5-0.5,10.8
						c1.1,4.3,2.1,5.4,0.5,9.2c-1.6,3.8-5.8,2.7-5.8,2.7s-5.8,5.4-5.3,9.7c0.5,4.3-0.5,8.6-1.1,12.9c-0.5,4.3,3.2,5.9,3.2,10.8
						c0,4.8-0.5-0.5-3.7,4.3c-3.2,4.9-4.3,16.2-4.8,20.5c-0.5,4.3,0,5.9-4.2,9.7c-4.3,3.8,1.6,8.1,1.6,12.9c0,4.8-3.2,10.2,0.5,12.4
						c3.7,2.2,3.7,0,3.7,4.9c0,4.8,0.5,6.5,0,11.8c-0.5,5.4-6.4,10.8-4.8,14.5c1.6,3.8,5.9,7,4.8,10.2c-1.1,3.2,0.5,4.3,0.5,8.6
						c0,4.3,3.7,8.1,1.6,10.2c-2.1,2.2-3.2,6.5-2.7,8.6c0.5,2.2,4.3,4.9,1.1,5.4c-3.2,0.5-2.1,4.8-4.3,5.9c-2.1,1.1-0.5,3.8,1.1,8.1
						c1.6,4.3,1.6,4.8,0.5,10.2c-1.1,5.4-2.1,9.2-1.6,12.4c0.5,3.2-0.5,5.4-0.5,5.4s-1.6,2.2-4.3,5.4c-2.7,3.2-1.1,5.4-0.5,9.7
						c0.5,4.3,1.1,7-2.1,9.7c-3.2,2.7-11.7,2.7-9.6,8.6c2.1,5.9,3.2,8.1,1.6,12.4c-1.6,4.3-3.2,5.4-3.2,10.2c0,4.9-0.1,9,3.1,9
						c3.2,0,3.8-5.5,6.4-1.8c2.7,3.8,2.7,6.7,0,9.4c-2.7,2.7-0.5,5.4,1.6,10.2c2.1,4.8,11.3,13.6,11.3,13.6s12.8-1.2,17.6-1.2
						c4.8,0,22.3,2.4,22.3,2.4l-0.6-7.2h-8.2c8-2-0.6-14.5,4.1-20.7c1.5-2.1,7-2.5,8.2-4.1c-2.9-5.8-1.5-2.7-6.1-6.2
						c0.9-3.2,3.1-5.2,2-8.3c1.1,0.8,3.6,3.2,4.1,4.1v4.1c4.1-1,6.8-2.8,10.2-2.1c-2.8-22.7,9.8-28.1,26.5-41.3
						c-10.3-7.5,2.4-11.8-6.1-18.6c-1.7-1.3-6.3,0.7-8.2,0c-1-0.3-3.2-5.6-4.1-6.2c-13.1-10-8.6-13.2,0-22.7l10.2-12.4
						c4.5-1.4,7.4,4.1,10.2,2.1c0.4-0.3,0-5.8,0-6.2c-1.3,2.3-3.3-3.1-2-4.1c2-2,2.8-1,6.1-2.1c0.3-9.6-0.7-17.7,2-24.8l4.1-2.1
						c5.5-0.1,9.4-6.4-2-6.2c0.2-0.5,2.5-3.9,2-4.1c2.1,1.1,5.9-1,8.2,0c4.3,1.8,0.6,9,8.2,4.1c4-2.6-1-7,0-10.3
						c-5,2.1-7.4,2.3-8.2,2.1c-4.7-1.5-3.5-0.6-8.2-2.1c0,0,0.1-9.9,0-10.3c-0.6-1.8-3.9-1.3-6.1-2.1c1.3-4.8,3.1-10.2,4.1-14.5
						c3,2.1,5.1-0.1,8.2,2.1c2.2,1.5,1,3.1,2,6.2c11.8,0.4,10.9,1.8,18.4-4.1c0.9-0.8,5.7-3.2,6.1-4.1c0,0,1.5-22.9,2-26.9
						c-0.8-0.6-6-3.6-6.1-4.1c-1.3-4.5,2.6-6.2,2-8.3c1.8,0.6,4.2,5.9,6.1,6.2c1.5,0.1,5.6-4.1,6.1-4.1c18.4-4.8,29.1-1.7,42.9-10.3
						c12.6-8,14.1-20.3,18.4-37.2c-4.5-2-8.5-0.1-10.2-4.1c-2.5-5.7,3-8,2-12.4c-0.8-3.6-9.7-10-12.2-14.5c0,0-7-14.7-6.1-14.5
						c3.8,0.8,1.6-7.7,2-10.3c0,0,1.9-3.6,2-4.1c-2.6-1.4,2-6.2,2-6.2s2-5.2,0.4-8.4c-1.6-3.2,3.7-5.4,2.7-11.8
						c-1.1-6.4,4.8-4.8,3.2-10.8c-1.6-5.9,3.2-10.2,3.2-10.2s2.1-7.5,2.1-10.2c0-2.7,4.3-4.3,6.9-6.5c2.7-2.1,4.3-6.5,4.3-10.8
						c0-4.3,8-3.8,9-7c1.1-3.2,2.7-3.2,5.9-5.9c3.2-2.7,5.8-5.4,6.9-9.2c1.1-3.8,9.6-2.7,11.2-5.4c1.6-2.7,5.3-2.7,4.8-4.9
						c-0.5-2.1-0.5-9.1-1.1-14c-0.5-4.9-0.5-11.9-0.5-11.9s-5.8-2.7-4.8,0.5c1.1,3.2-6.9-1.6-6.9-1.6s-3.7,5.4-2.1,7.5
						c1.6,2.2,1.6,10.8-1.1,12.9c-2.7,2.1-5.7,4.9-6.7,8.1c-1.1,3.3-1.8,3-1.8,3s-3.7,1.8-7.5,0.7c-3.7-1.1-8-1.6-11.2-1.1
						c-3.2,0.5-5.8,1.1-9-1.1c-3.2-2.2-6.9-2.7-9.6-1.6c-2.7,1.1-4.8-0.5-4.8-0.5s2.7-7,5.3-10.2c2.7-3.2,5.9-8.6,5.9-12.9
						s3.7-7.5-0.5-10.2c-4.2-2.7-6.4-8.6-8.5-9.7c-2.1-1.1-2.7-2.1-5.3-4.8c-2.7-2.7-5.3,1.1-9-3.8c-3.7-4.8-3.7-6.5-8-6.5
						c-4.3,0-3.7-7-5.9-9.7c-2.1-2.7-2.1-5.4-5.3-5.9c-3.2-0.5-3.7-3.8-5.3-6.5l-3.7-6.5L460.5,474.1z M437.3,1087.1
						c1.3,0.4-4.1,4.1-4.1,4.1s7.1,2.1,4.1,2.1C447,1091.7,445.2,1088.8,437.3,1087.1z"/>
				</g>
			</g>
		</g>
		<text transform="matrix(1 0 0 1 31.1188 64.8018)" fill="#222222" font-family="'Helvetica-Bold'" font-size="44.2105">Colombia</text>
		<text transform="matrix(1 0 0 1 214.7218 583.4355)" fill="#222222" font-family="'Helvetica-Bold'" font-size="44.2105">Chile</text>
		<text transform="matrix(1 0 0 1 485.6432 710.1025)" fill="#222222" font-family="'Helvetica-Bold'" font-size="44.2105">Argentina</text>
		<g>
			<text transform="matrix(1 0 0 1 608.0856 300.2148)" fill="#222222" font-family="'Helvetica-Bold'" font-size="44.2105">Brazil</text>
		</g>
		<ellipse opacity="0.8" fill="#FF944C" cx="565.1" cy="283.6" rx="31.7" ry="30.9"/>
		<ellipse opacity="0.8" fill="#FF944C" cx="322.7" cy="52.4" rx="31.7" ry="30.9"/>
		<ellipse opacity="0.8" fill="#FF944C" cx="364.6" cy="571.5" rx="31.7" ry="30.9"/>
		<path opacity="0.8" fill="#FF944C" d="M479.9,690.4c0,17-14.2,30.9-31.7,30.9c-17.5,0-31.7-13.8-31.7-30.9
			c0-17,14.2-30.9,31.7-30.9C465.7,659.6,479.9,673.4,479.9,690.4z"/>
		<line fill="none" stroke="#222222" stroke-width="3.1569" x1="237.1" y1="52.4" x2="322.3" y2="52.4"/>
	</g>
</g>
</svg>
