<?xml version="1.0" encoding="utf-8"?>
<!-- Generator: Adobe Illustrator 18.0.0, SVG Export Plug-In . SVG Version: 6.00 Build 0)  -->
<!DOCTYPE svg PUBLIC "-//W3C//DTD SVG 1.1//EN" "http://www.w3.org/Graphics/SVG/1.1/DTD/svg11.dtd">
<svg version="1.1" id="Layer_1" xmlns="http://www.w3.org/2000/svg" xmlns:xlink="http://www.w3.org/1999/xlink" x="0px" y="0px"
	 viewBox="0 0 600 690" enable-background="new 0 0 600 690" xml:space="preserve">
<g>
	<g>
		<path fill="#33ADAD" d="M565,374.6c19.2,0,35-15.7,35-35v-252c0-19.2-15.7-35-35-35H35c-19.2,0-35,15.7-35,35v252
			c0,19.2,15.7,35,35,35H565z"/>
		<path fill="#009999" d="M563.2,208.4c-7.6,0-13.9,6.2-13.9,13.9c0,7.6,6.2,13.9,13.9,13.9c7.6,0,13.9-6.2,13.9-13.9
			C577.1,214.6,570.9,208.4,563.2,208.4 M563.2,200.4c12,0,21.8,9.7,21.8,21.8c0,12-9.7,21.8-21.8,21.8c-12,0-21.8-9.7-21.8-21.8
			C541.5,210.2,551.2,200.4,563.2,200.4L563.2,200.4z"/>
		<g>
			<path fill="#EDCAAB" d="M467.6,374.2c-13.3-8.8-30.4-14.7-47-14.7c-40.1,0-71.7,14.7-71.7,14.7h-7.1H74.1
				c-1.1,34.5-1.6,107,12,135.4c18.1,37.9,48.3,119.8,48.3,119.8l23,60.6h202.4l-32.4-90.8c-31.2-85.3-10.8-84,17.7-106.9
				c28.4-22.8,44.4-59.5,79.3-64.2c29.7-4,51.9,19.8,65.5-7.3C497.8,404.9,486.4,386.6,467.6,374.2z"/>
			<g>
				<polygon fill="#73C7C7" points="92.4,690 72.6,614.7 370,568.2 406.4,690 				"/>
			</g>
			<path fill="#EDCAAB" d="M214.5,36.2c0,12.8-13.5,23.3-30.2,23.3S154.2,49,154.2,36.2c0-12.9,13.5-23.3,30.2-23.3
				S214.5,23.3,214.5,36.2z"/>
			<ellipse fill="#EDCAAB" cx="247.4" cy="32.7" rx="33" ry="26.7"/>
			<path fill="#EDCAAB" d="M423,36.2c0,14.8-14.8,26.7-33,26.7c-18.2,0-33-12-33-26.7c0-14.8,14.8-26.7,33-26.7
				C408.3,9.5,423,21.4,423,36.2z"/>
			<path fill="#EDCAAB" d="M355.2,30.6c0,16.9-16.9,30.6-37.7,30.6c-20.8,0-37.7-13.7-37.7-30.6c0-16.9,16.9-30.6,37.7-30.6
				C338.3,0,355.2,13.7,355.2,30.6z"/>
			<path fill="#F1D7C0" d="M202.9,30.3c-4.4,4.1-11.1,6.7-18.6,6.7c-7.5,0-14.1-2.6-18.6-6.7c4.4-4.1,11.1-6.7,18.6-6.7
				C191.8,23.5,198.5,26.1,202.9,30.3z"/>
			<path fill="#F1D7C0" d="M247.4,17.3c9.1,0,17.2,3.8,21.9,9.5c-4.7,5.7-12.8,9.5-21.9,9.5c-9.1,0-17.2-3.8-21.9-9.5
				C230.3,21.1,238.3,17.3,247.4,17.3z"/>
			<path fill="#F1D7C0" d="M390.1,20.8c9.1,0,17.2,3.8,21.9,9.5c-4.7,5.7-12.8,9.5-21.9,9.5c-9.1,0-17.2-3.8-21.9-9.5
				C372.9,24.5,380.9,20.8,390.1,20.8z"/>
			<path fill="#F1D7C0" d="M317.5,12.1c11.4,0,21.2,5.1,26.4,12.6c-5.2,7.5-15,12.6-26.4,12.6c-11.4,0-21.2-5.1-26.4-12.6
				C296.2,17.1,306.1,12.1,317.5,12.1z"/>
			<path fill="#F1D7C0" d="M442.6,406.7c15.8,0,28.7,11.9,30.5,27.2c-12.8,1.1-29.1-8.4-48.8-5.8c-4.2,0.6-8.1,1.6-11.8,3
				C415.5,417.2,427.8,406.7,442.6,406.7z"/>
		</g>
	</g>
</g>
</svg>
