<?xml version="1.0" encoding="utf-8"?>
<!-- Generator: Adobe Illustrator 18.0.0, SVG Export Plug-In . SVG Version: 6.00 Build 0)  -->
<!DOCTYPE svg PUBLIC "-//W3C//DTD SVG 1.1//EN" "http://www.w3.org/Graphics/SVG/1.1/DTD/svg11.dtd">
<svg version="1.1" id="Layer_1" xmlns="http://www.w3.org/2000/svg" xmlns:xlink="http://www.w3.org/1999/xlink" x="0px" y="0px"
	 viewBox="0 0 960 1072" enable-background="new 0 0 960 1072" xml:space="preserve">
<g>
	<g>
		<g>
			<defs>
				<rect id="SVGID_1_" x="0" width="960" height="960"/>
			</defs>
			<clipPath id="SVGID_2_">
				<use xlink:href="#SVGID_1_"  overflow="visible"/>
			</clipPath>
			<g clip-path="url(#SVGID_2_)">
				
					<path fill="#EDEDED" stroke="#FFFFFF" stroke-width="1.5713" stroke-linecap="round" stroke-linejoin="round" stroke-miterlimit="10" d="
					M1035.9,1041.4c-9.3-2.6-16.6,0.6-25.7,1c0,0-5.4,2-6.4,2.2c1.8-0.6,1.3-4.2,2.1-6.5c5.1,0,9.9,0.9,15,0c1.1-5.6-0.3-8,2.1-13.1
					c6.9,0.9-2.1-4.4-2.1-4.4c-5.8-0.8-2.9,3.1-8.6,2.2v-4.4c-5.5-2-3.2,4.1-8.6,2.2v-4.3c-3.5,1.8-3.4-4.8-4.3-6.5
					c5.4-2.1,5.3-2.1,8.6-4.4c-7.5,0-16.3,0-23.6,0c0,0,5.4,4.4,4.3,4.4c-3.8-0.1-7.2-2.6-8.6-2.2c-0.4,0.1-4,6.5-4.3,6.5
					c-9.1,1.6-17.5-1.5-23.6-2.2v-4.3c-9.9-1.8-22.4,4.6-30.1,6.5c-1.5-8.4-3-17.3-15-19.6c-2.1-0.4-6.9,1.1-8.6,0
					c-0.4-0.3,0-6.1,0-6.5c-0.9-0.3-5.6-1.4-6.4-2.2c0.7,1.2,0,5.2,0,6.5c4.8-0.1,4,4.8,6.4,6.5c-8.9,2.3-13.2,1.8-21.5,4.4
					c0.9,4.1-1.3,9,0,13.1c0.2,0.6,16.7,17.7,4.3,19.6c-14.2,2.1-10.8-9.1-12.9-19.6c2.6-0.9,5.6,0,6.4-2.2c0.9-2.5-1.3-4.3,0-6.5
					h-4.3c-0.2-0.1,1.9-4,2.1-4.4c-1.7-0.6-4.4-1.2-6.4-2.2c0-0.7,0-1.4,0-2.2c4.5-3.7,8-4.9,12.9-8.7c-0.6-1.1-1.5-2.9-2.6-5.1
					c-2.7,1.8-7.2,4.6-7.2,4.6l-8.5,7.2l-5,14.2l-6.2,2.3c0,0,2.2,5.7,0,10.2c-2.2,4.5,1.1,4.5-2.2,11.9c-3.4,7.4,1.7,5.7,1.7,5.7
					l5.6-1.1l6.2,13c0,0-3.4,0-2.8,4c0.6,4,2.8,5.1,5.6,9.6c2.8,4.5,2.2,8.5,2.2,8.5l10.1,2.3c0,0,7.8,1.1,11.8,0
					c3.9-1.1,7.3-0.6,9,2.8c1.7,3.4,6.7,11.3,6.7,11.3s6.7-0.6,10.6-0.6c3.9,0,9,1.7,9,1.7l-1.1,8.5c0,0-3.9,2.3-2.8,7.9
					c1.1,5.7,7.3,7.9,7.8,10.8c0.6,2.8,5,6.2,7.3,9.1c2.2,2.8,13.4,8.5,13.4,8.5s-2.8,7.4-3.4,10.8c-0.6,3.4-6.2,6.8-6.2,6.8
					s-1.7,9.1,2.2,6.2c3.9-2.8,2.2,0.6,3.4,4c1.1,3.4,3.4,6.2,3.4,6.2l-1.1,8.5l7.3,5.1c0,0,5-4.5,9-4.5c3.9,0,4.5-6.8,7.8-6.8
					c3.4,0,4.5-3.4,7.3-3.4c2.8,0,4.5-9.1,7.8-9.1c3.4,0,5-2.3,5-2.3s-1.1-5.7-5-4.5c-3.9,1.1-7.8,3.4-10.1,1.7
					c-2.2-1.7-4.5-2.3-5.6-5.7c-1.1-3.4,2.2-9.6,1.7-11.9c-0.6-2.3-1.1-3.4-3.9-7.4c-2.8-4,0-6.8-2.8-7.9c-2.8-1.1-3.9-2.8,1.7-2.3
					c5.6,0.6,10.1,3.4,10.1,3.4s6.7,0,9,2.3c2.2,2.3,9,2.3,9,2.3s-3.4-1.1-1.7-4c1.7-2.8,4.5-2.3,4.5-2.3s3.9,1.1,7.8,1.1
					c3.9,0,2.8-3.4,6.2-4c3.4-0.6,3.4-6.2,6.2-6.2c2.8,0,6.7-1.1,6.7-1.1l1.7-4.5l-0.6-4.5l-12.3-19.3l5.6-2.8c0,0-2.8-6.2,0.6-6.2
					c3.4,0,12.3-1.1,12.3-4.5c0-3.4-5-4-5-4s-1.1-6.2-3.4-6.8c-2.2-0.6-3.4-5.7-0.6-5.7c2.8,0,7.3-1.1,10.6-3.4
					c3.4-2.3,2.7-3.8,2.7-3.8L1035.9,1041.4z"/>
				
					<path fill="#EDEDED" stroke="#FFFFFF" stroke-width="1.5713" stroke-linecap="round" stroke-linejoin="round" stroke-miterlimit="10" d="
					M941.4,866.1l2.2,8.7c4-0.8,8.8,0,12.9,0c0.1-0.3,2.2-4.3,2.2-4.3C966.8,869.3,945.9,866.5,941.4,866.1z"/>
				
					<path fill="#EDEDED" stroke="#FFFFFF" stroke-width="4.9382" stroke-linecap="round" stroke-linejoin="round" stroke-miterlimit="10" d="
					M723.4,1019.9l-3.2,1.4l-2.8-0.6c0,0,1,3.9-0.5,6.9c-2.1,4.5,3.3,6.7,2.7,9.5c-0.6,2.8-1.8,7.5-1.8,7.5c6.9,1,11.1-2.6,19.3,2.2
					c0.3,0.2,0,6.1,0,6.5c2.2,1.2,6.2-1.2,8.6,0v4.4c6.8,1,8.3,2.7,15,2.2c3.7-0.3-4.3-2.2-4.3-2.2c-0.6,2.7-4.6,0.3,2.1-2.2
					c-0.8-2.2-2.4-5.4-2.1-6.5h-4.3v-4.4c4-2.2,8-4.8,10.7-6.5c-5.1,2.4,2.2-4.4,2.2-4.4c1.1,0.9,3.3-1.7,4.3-2.2
					c3.3,4.9,5.2,9.7,8.6,15.2c2.3-0.6,8.5-2.3,8.6-2.2c-0.7,2.3-2.1,4-2.2,4.4c0,0-1.9,10.9-2.1,13.1c2.4,1.2,3.9,5.8,6.4,6.5
					c1.7,0.4,4.7-0.9,6.5,0l1.7-4.3c0,0,3.3-3.3,3.3-7.3c0-4-3.3-5.9-3.3-5.9l0.8-6.1c-7.8-6.3-14.3-13.2-19.7-22.2
					c-4.2,0.1-11.9-2.4-12.9-2.2c0,0-1.7,6.3-2.2,6.5c-10,4.2-14,2.5-23.6,6.5c-2.2-1.7-0.7-4.2-4.3-4.3c0,0-3.7,4.1-6.4,2.2
					C728,1031.1,725.5,1025.1,723.4,1019.9z M735,1057.7l2.1,4.4C741,1063.9,736.6,1058.4,735,1057.7z"/>
				
					<path fill="#EDEDED" stroke="#FFFFFF" stroke-width="4.9382" stroke-linecap="round" stroke-linejoin="round" stroke-miterlimit="10" d="
					M681,988.1c-2.9-5.1-6.5-12.7,0.3-10.9c5.5,1.4,8.7,9.8,11.7,15.5c2.8-1.1,5.9-0.4,5.9-0.4s1.1,3.4,4.5,3.4
					c3.4,0,3.3-0.2,3.3-0.2c-0.8-1.2-1.1-1.8-1.7-3l10.3-64.5l-10.7,1.6c0,0-5.6,4-5.6,6.2c0,2.3-6.2,2.8-9.5,4
					c-3.4,1.1-6.2,2.8-7.3,0.6c-1.1-2.3-3.9-2.8-7.8-1.7c-3.9,1.1-10.6,4.5-10.6,4.5s1.7,9.1,0,13c-1.1,2.6-3.4,2.8-4.8,2.6
					c0.6,2.8-2.5,2-1.2,5.4c0.6,1.8,7.5,5,8.6,6.5c2.8,4.2,1.7,8.6,4.3,13.1c1.2,2.1,4.8,2.5,6.2,3.9
					C677.9,987.4,679.4,987.3,681,988.1z M670.6,968.4c5.6,0.5,6,5.3,0,4.4C670.6,972.8,664.8,967.9,670.6,968.4z"/>
				
					<path fill="#EDEDED" stroke="#FFFFFF" stroke-width="1.5713" stroke-linecap="round" stroke-linejoin="round" stroke-miterlimit="10" d="
					M782.3,861.8c0.2,0.1-4.2,6.3-4.3,6.5c5.8,3.2,9.5,3.4,15,6.5c0,0.7,0,1.5,0,2.2c10.9,2.1,25.3-10,10.7-8.7V864
					C797.1,860.8,789.7,862.9,782.3,861.8z"/>
				
					<path fill="#EDEDED" stroke="#FFFFFF" stroke-width="1.5713" stroke-linecap="round" stroke-linejoin="round" stroke-miterlimit="10" d="
					M715.7,924.9c0,0-10.3-1.8-10.7-2.2c-1.9-1.7-3.5-8.5-4.3-10.9c-4.4-0.5-16-4.4-19.3-4.3c-5.9,0-13.9,6.1-17.2,6.5
					c-6.8,0.9-15.6,0.1-22.2-0.1l0,0.9c0,0-0.1,1.6-4.6,2.1c-4.5,0.6-5.6,1.7-5.6,5.7c0,4-3.4,9.1-3.4,9.1s10.1,2.3,13.4,4.5
					c3.4,2.3,2.8,3.4,7.8,4c5,0.6,6.2,2.8,6.2,2.8l-0.3,10l3.2-0.8v6.3c1.4,0.3,3.8,0.3,5-2.5c1.7-4,0-13,0-13s6.7-3.4,10.6-4.5
					c3.9-1.1,6.7-0.6,7.8,1.7c1.1,2.3,3.9,0.6,7.3-0.6c3.4-1.1,9.5-1.7,9.5-4c0-2.3,5.6-6.2,5.6-6.2l10.6-1.3L715.7,924.9z"/>
				
					<path fill="#EDEDED" stroke="#FFFFFF" stroke-width="1.5713" stroke-linecap="round" stroke-linejoin="round" stroke-miterlimit="10" d="
					M876,870.5c0,0-0.7-4.1-1.3-6.3c-0.6-2.3-3.1-4.5-3.1-4.5l0.8-2.3l1.1-4.5l-1-10.7c-5.1,0.5-11.4,0.9-17.2,0.1
					c2,1.7,2.1,1.4,6.4,2.2c-0.7,1.9-2.5,5.8-2.1,6.5c0.3,0.7,1.5,3.3,2.1,6.5c6.4-1.8,2.2,8.7,2.2,8.7c-3.2-0.6-15.5-2.2-15-2.2
					c-5-0.9-7-2.7-10.8-4.3c0,0-1.7,6.7-2.1,8.7c0,0,7.5,2.2,4.3,2.2C851.8,870.3,860.3,870.5,876,870.5z"/>
				
					<path fill="#EDEDED" stroke="#FFFFFF" stroke-width="1.5713" stroke-linecap="round" stroke-linejoin="round" stroke-miterlimit="10" d="
					M636.2,913.9h5.7c0,0,0.7,2.9-4.5,3c-4.5,0.6-5.6,1.7-5.6,5.7c0,4-3.4,9.1-3.4,9.1s-7.3,4-6.7,7.9c0.5,3.7-6.4,1.2-7,4
					c-3.2-0.8-4.1,1.7-6.4,0.9c-7.9-2.7-19.7-17.1-25.2-23.3c0,0,5.1-4.8,2.8-7c-2.2-2.3,8.4-13.6,8.4-13.6l16.8,0.6
					c0,0,0-6.2-3.4-8.5c-3.4-2.3-7.3-9.1-7.3-9.1l-0.6-5.1h5l1.7-7.4h24.1l0.1,38.1l7.6-0.1L636.2,913.9z"/>
				
					<path fill="#EDEDED" stroke="#FFFFFF" stroke-width="1.5713" stroke-linecap="round" stroke-linejoin="round" stroke-miterlimit="10" d="
					M616.8,944.5l6.4,8.7c5,1.7,11.9-1,17.2,0c2.2,0.4,6.7,5.1,10.7,4.4c1.5-0.3-0.1-2.2,4.1-3l0.5-11.5c0,0-1.1-2.3-6.2-2.8
					c-5-0.6-4.5-1.7-7.8-4c-3.4-2.3-13.4-4.5-13.4-4.5s-7.3,4-6.7,7.9c0.5,3.7-6.4,1.2-7,3.9C616.3,943.6,616.8,944.5,616.8,944.5z"
					/>
				
					<path fill="#EDEDED" stroke="#FFFFFF" stroke-width="1.5713" stroke-linecap="round" stroke-linejoin="round" stroke-miterlimit="10" d="
					M872.6,842l1,10.8l-1.1,4.5l-0.8,2.3c0,0,2.5,2.2,3.1,4.5c0.6,2.3,1.3,6.3,1.3,6.3l0.9,0c2.3,4.4-0.5,4.3,4.3,6.5
					c0.5-3.1,2.4-2.9,4.3-4.4c-1.1-3.5-3.1-5.2-2.2-8.7c3,1.5,5.4,3,8.6,4.4c0.9,0.3,2.8,2.2,6.4,2.2c0.8-0.1,4.3-6.5,4.3-6.5
					c0.3-0.1,11.4,0.1,12.9,0c-3.4,0.8,6.2,2.1,6.4,2.2c-3-5.4-1.5-10.2-6.4-13.1c-1.2-0.7-5.9,1.9-10.7,0
					c-4.6-1.8-10.1-9.9-15.1-10.9C883.3,840.9,878.6,841.4,872.6,842z"/>
				
					<path fill="#EDEDED" stroke="#FFFFFF" stroke-width="1.5713" stroke-linecap="round" stroke-linejoin="round" stroke-miterlimit="10" d="
					M717.8,798.7c-0.6,4.4,0.9,4.6,2.2,8.7c-2.7,0.9-7.2,5.1-2.2,2.2c7.9-4.7,3.6-6.5,6.4-8.7C720.5,799.5,720.6,800.3,717.8,798.7z
					 M717.8,779.1c-12.8,3.1-18.5,15.6-21.5,23.9c3.9-2,6.7,0,10.7-2.2v-4.4c6.6-3.9,7.9-6,12.9-10.9c5.1,1.8,8.1-0.5,12.9,2.2
					c1.1,0.6,3.2,6.1,4.3,6.5c2.4,0.8,6.2-1,8.6,0l2.1,4.4c2.3,0.9,4.3-1.4,6.4,0c1,0.6,5.8,10.1,8.6,10.9c4,1.1,11.6-2.1,15,0
					c0.9,0.5-0.5,5.4,0,6.5c2.6,7,12.2,10.1,19.3,13.1c-2.5,4.4-4.1,8.1-6.5,13.1c13.8-1.6,30.8-5,45.1-6.5l-2.2-8.7
					c-3.6,0-12,1.6-15,0l-2.1-10.9c-4.2-0.9-8.3,0-12.9,0c-1.1-3.2,0-4.9-2.1-6.5c-6.4-5-17.2-11-25.8-13.1c-1.7-0.4-4.9,0.9-6.4,0
					c-2.8-1.7-3.8-9.4-6.5-10.9C758.5,783,718.9,778.8,717.8,779.1z"/>
				
					<path fill="#EDEDED" stroke="#FFFFFF" stroke-width="1.5713" stroke-linecap="round" stroke-linejoin="round" stroke-miterlimit="10" d="
					M680.9,988.1c-2.4-1.4-3.8,0-3.8,0c6.2,9.5,2.4,17.1,0,26.1c4,1.8,5,5.6,6.5,6.5l6.4-2.2c0.8-4.9-1.5-4.1,2.1-6.5
					c5.9,7.6,8.7,9.8,17.2,15.2c-1,6.7-1.3,7.2,0,10.9v4.4c3.4,2.4,1.9-5.3,2.2-6.5h4.3l2.2,8.7c0,0,1.2-4.6,1.8-7.5
					c0.6-2.8-4.8-5-2.7-9.5c1.4-3,0.5-6.9,0.5-6.9l2.8,0.6l3.5-1c-1.5-3.8-3-7.4-3.6-8.4c-3.4-5-9.7-10.9-13.4-16.5
					c0,0,0.2,0.2-3.2,0.2c-3.4,0-4.5-3.4-4.5-3.4s-2.9-0.8-5.7,0.3c0.4,0.7,0.6,1.4,1,2c-3.3-0.6-5.2-2.4-10.7-2.2
					C683.3,992.1,682.1,990.2,680.9,988.1z"/>
				
					<path fill="#EDEDED" stroke="#FFFFFF" stroke-width="1.5713" stroke-linecap="round" stroke-linejoin="round" stroke-miterlimit="10" d="
					M771.2,1166.3c0,0,1,4.6,4.3,6.9c3.4,2.3,8.6,3.8,8.6,3.8s2.6,3.1,3.2,5.9c0.6,2.8,3.9,5.1,3.9,5.1l12.9,2.8
					c0,0,2.2-4.5,3.9-1.1c1.7,3.4,11.8,6.2,11.8,6.2h6.7c0,0,0,7.4,2.8,7.4c2.8,0,6.7,5.7,6.2,8c-0.6,2.3,6.7,6.2,6.7,6.2l7.8,0.6
					l0.6,5.1c0,0,1.7,5.1,4.5,5.1c2.8,0,7.8,2.3,7.8,2.3l1.1-4.5c0,0,8.4-0.6,10.1,1.7c1.7,2.3,6.7,3.4,10.6,3.4
					c3.9,0,6.7,4.5,6.7,4.5l-14,27.2h6.7l4.5,2.8c0,0,14.6-36.9,15.1-40.2c0.6-3.4,1.1-7.4-1.1-11.9c-0.8-1.7-7.8-4-7.8-4l-0.6-5.1
					l11.2-1.1l-0.6-5.1l-2.5-2.3h-5l-0.3-9.1c0,0,4.2-1.1,8.1-1.1c3.9,0,18.8-2.8,18.8-2.8v-6.2l4.5,3.4l5-1.7l1.7-6.8l5,0.6
					l1.1,6.8l4.5,1.1l1.1-8.5c0,0-2.2-2.8-3.4-6.2c-1.1-3.4,0.6-6.8-3.4-4c-3.9,2.8-2.2-6.2-2.2-6.2s5.6-3.4,6.2-6.8
					c0.6-3.4,3.4-10.8,3.4-10.8s-11.2-5.7-13.4-8.5c-2.2-2.8-6.7-6.2-7.3-9.1c-0.6-2.8-6.7-5.1-7.8-10.8c-1.1-5.7,2.8-7.9,2.8-7.9
					l1.1-8.5c0,0-5-1.7-9-1.7c-3.9,0-10.6,0.6-10.6,0.6s-5-7.9-6.7-11.3c-1.7-3.4-5-4-9-2.8c-3.9,1.1-11.8,0-11.8,0l-10.1-2.3
					c0,0,0.6-4-2.2-8.5c-2.8-4.5-5-5.7-5.6-9.6c-0.6-4,2.8-4,2.8-4l-6.2-13l-5.6,1.1c0,0-5,1.7-1.7-5.7c3.4-7.4,0-7.4,2.2-11.9
					c2.2-4.5,0-10.2,0-10.2l6.2-2.3l5-14.2l8.5-7.2c0,0,4.5-2.9,7.2-4.7c-0.5-1-1.7-3.5-1.7-3.5c-5,1.2-5.3,0.7-8.6,2.2v4.3
					c-0.6,1.6-15.7,12.4-17.2,13.1c-1.7,0.6-6-4.1-10.8-2.2c-2.7,1-1.3,5.1-2.1,8.7c0,0-2.3-0.5-2.2-2.2c0-0.5-6.1,0.1-8.6,0
					c-0.9,5.6-1.2,9.8-2.1,17.4h-4.3c-0.9,2.2,1.3,6.6,0,8.7c-0.3,0.3-6,0-6.4,0c-1.6,2.9-5.9,9.2-6.4,10.9c-0.9,2.4,0.9,6.3,0,8.7
					c-2.9-2-5.2-3.6-7.8-5.7l-1.2,5.7c0,0,3.3,1.9,3.3,5.9c0,4-3.3,7.3-3.3,7.3l-1.7,4.3c0.2,5.9-0.5,18.4,2.1,19.6
					c-3.1,10.8-4.1,23.1-8.6,37c2.7,1,6.5,2.7,8.6,4.4c-5.1,8.2-12.4,12.9-21.5,17.4c5.8,3.1-8.5,7.8,2.1,13.1c-1.5,0.9-6.9,0-8.6,0
					C769.1,1160.6,770.6,1164.4,771.2,1166.3z"/>
				
					<path fill="#EDEDED" stroke="#FFFFFF" stroke-width="1.5713" stroke-linecap="round" stroke-linejoin="round" stroke-miterlimit="10" d="
					M641.6,865.8c-3.4-2.3-6,1.9-6,1.9l-5,3.4l0.1,38.1l7.5-0.1c5-11.7,10.7-29.4,8.7-38.5c-0.2-0.8-2.2-2.2-3.5-4.4L641.6,865.8z"
					/>
				
					<path fill="#EDEDED" stroke="#FFFFFF" stroke-width="1.5713" stroke-linecap="round" stroke-linejoin="round" stroke-miterlimit="10" d="
					M782.3,746.4c0.3,0.1,0,8.7,0,8.7C797,752.6,788,751.1,782.3,746.4z"/>
				
					<path fill="#DFDFDF" stroke="#FFFFFF" stroke-width="1.5713" stroke-linecap="round" stroke-linejoin="round" stroke-miterlimit="10" d="
					M-99.5-220.8c-8.2-4.3-17.3-9.3-27.3-7.8c-0.1,0,0,6.2,0,6.5c-6-0.5-9.6,0.4-12.9,0l-2.2-4.3c-5.9,0-11.4,0.4-17.2,0v-4.4
					c-9.3-1.2-21.6,3-30.1,2.2l-2.1-4.4c-3.4-0.8-1.5,3-6.4,2.2c-1.5-0.3-8.8-6.3-10.8-6.5c-10.8-1.2-12.9,4.9-23.6,4.3
					c-4.2-0.3-18.1-4.3-23.6-6.5l-2.2-4.4c-6.6-1.4-18.7,2.8-21.5,2.2c-3.8-0.8-4-7.3-6.5-8.7c-4,2.4-8.8,6.1-12.9,8.7
					c-3.8-3.7,4-17.3-17.2-13.1c-2.9,0.5-10.1,9.7-12.9,10.9c-4,1.5-8.9-1.4-12.9,0c-1.3,0.4-1.1,5-4.3,4.4
					c-1.1-0.3,1.4-6.3-4.3-4.4v4.4c-1.6,0.6-5,0-6.4,0c-0.4,0.7-1.7,4.2-2.2,4.3c-4.8,1.4-10.3-1.4-15,0
					c-6.1,1.7-8.5,11.8-12.9,15.2c-2.1,1.6-5.2-0.2-6.4,2.2c-2.2,3.7-4.5,24.4-6.5,26.1c-4.8,3.8-20.4,1.6-23.6,2.2
					c-1.1,0.1-4.3,4.1-6.4,4.3c0,0-9.3-4.2-12.9-2.2c0,0,0.1,15,0,13.1c0.7,0.4-2,3.8-2.2,4.3c5.2,2.9,12,3.3,17.2,6.5
					c2.9,1.8,7.9,9.9,10.7,10.9c2,0.7,6.9-1.4,8.6,0c2.2,1.8-1.5,9.5,2.2,10.9c7.2,2.5,6.3-4.5,15-2.2c0,0,9.1,0.7,6.4,0
					c7.1-2,4.1,6.6,0,6.5c4.2,2,8.1,4.1,12.9,6.5c-3.8-1.5,6.5-2.2,6.5-2.2c0,0.3-0.3,6.4,0,6.5c-7.5-0.5-9.4-1.3-15-2.2
					c1.3,0.1-4.3,4.3-4.3,4.3c2.4,0,6.1,0.3,8.6,0l2.2,8.7l-2.2-4.4l-8.6,6.5c-10.2,0.5-21.1-4.8-27.9-6.5c4.9-1.5,0-14.4,0-15.2
					c-10.5,3.5-16.3,5-25.8,8.7c0,0.8,0.3,8.5,0,8.7c-5.3,2.5-7.1-3.1-12.9-2.2c-4.4,0.7-11.4,8.2-15.1,10.9l2.2,4.3
					c6.2,0.2,30,0.9,10.7,6.5c2.3,2,2.5,5.9,6.4,6.5c1,3.1-0.2,5,2.1,6.5c11.8,7.5,31.8,0.8,45.1-2.2c1.1,1.7,4.2,8.6,6.5,8.7
					c0.6,0,3.4-6.3,4.3-6.5c9.1-3.3,17.6,0.3,23.6,0c-2.2,9.9-4.3,11.6-2.1,26.1c-3,1.1-9.3,6.3-12.9,6.5c-4.1,0.3-0.7-3.7-4.3-2.2
					c-1.5,0.5-7.2,8.2-8.6,8.7c-3.8,1.1-7.1-1.2-10.7,0c-0.6-0.7-3.5-6.3-4.3-6.5c-2.5-1-4.2,1.2-6.4,0c-5.6,9.2-15.3,11.8,0,10.9
					c0,0.3-0.3,6.4,0,6.5c-0.4,0.1-4.8-1.6-6.5-2.2c-1,0.9-1.3,5.7-2.2,6.5c-3,2.6-9.3,2.5-10.7,6.5c-1,2.4,1.2,4.1,0,6.5
					c-0.9,1.7-5.6,2.6-6.4,4.3c13.6,11,12,12.7,32.2,13.1l-4.3,8.7c-2.1-0.9-4.2-6-6.4-6.5c-4.6-1.2-10,1.8-4.3,4.3v4.4
					c14.8,0.3,2.6,1,4.3,8.7c0.1,0.3,5.3,6.5,6.4,8.7c7.5-0.6,16.9,3.6,19.3-6.5c0.4-1.7-0.9-4.9,0-6.5c0.4,0.2,8.4,0.4,4.3,4.3
					c-1.5-3.8-2.1,9.1,6.4,17.4c0.8,0.8-2.8,3.4-2.1,6.5c-1.5-1.1-1.3,1,4.3,2.2c-0.2,1.8-2.1,10.9-2.1,10.9
					c10.5,0.5,12.2-12.6,21.5-13.1c3.6-0.3,2,5.8,4.3,6.5c5.4,1.7,3-4.2,8.6-2.2l6.4,10.9c3.4-1.8,1.3-2.2,2.1-6.5
					c11.5,3.6,14.5,4.1,27.9-4.4c-2.6,4.7-1.5,8.6-4.3,13.1c0,0-9.8,8.4-10.7,10.9c-1.5,3.9,1.1,9,0,13l-8.6,13.1
					c-5.4,6.1-18.5,11.7-25.8,15.2c0,1.8,0.8,7,0,8.7c-5.5-0.7-5.1,1.3-8.6,2.2c5.3-0.3-5.6-5.6-12.9-2.2
					c-2.3,1-10.7,17.4-10.7,17.4c-2.4,1.2-4-0.9-6.5,0l-2.1,2.2v4.3c12.4-4.2,13.6-2.2,21.5-19.6c1.1,0.7,5.2,0,6.4,0
					c0,0-4,6.1-2.2,6.5c10.3,2.4,18.7-10.5,25.8-10.9c3.5-0.3,0.9,3.8,4.3,2.2l2.1-6.5c3.8-1.4,1.3,5,4.3,2.2c0.7-0.7,0-7.6,0-8.7
					c0.3-0.1,7.8-1.5,8.6-2.2c-0.3-0.6-2.9-3.9-2.1-4.3c2-1.4,4.1,0.9,6.5,0c4-1.6,10.7-8.4,15-10.9l-2.2-6.5
					c1.9-2.5,7.9-2.3,10.7-4.3c4.4-3.3,8.4-11.9,12.9-15.2c2.8-2.2,8.1-0.1,10.8-2.2c0.9-0.8-0.5-5.2,0-6.5c1.4-3.9,8-4.1,10.7-6.5
					v-4.4c-2.6-1.2-7.9,0-10.7,0c4.7-16.3,5.6-17.1,19.3-23.9c-0.7-2-3.7-3.1-2.2-6.5c4.7,0,3.4,1.4,8.6,0c1.1-4.5-0.7-6.5,2.1-8.7
					c2-1.6,6.7-0.4,8.6-2.2c2.1-2.2,0.2-6.1,2.1-8.7l10.7-8.7c6.2-2.2,2.4,4.1,6.4,4.4l6.5-4.4c7.2-1.2,3.1,4.1,0,4.4v4.4
					c6.4-0.7,1.5,2.8,4.3,4.4c-6.3-0.5-9.6-3.5-15.1-2.2c-0.5,0.1-5.4,6.1-6.4,6.5h-4.3c-0.9,1.6-3.4,22.8-4.3,26.1
					c1.5-0.7,4.9,0,6.4,0v4.4c-2.6,1.2-6.4,2.6-8.6,4.4c0,0,5.5,3.6,4.3,4.3c9.3-3.3,7.9-3.3,17.2-6.5v-4.4c2.4-1.6,6.5-0.3,8.6-2.2
					c2.6-2.4,1.5-9.6,6.4-10.9c4.9-1.4,10.3,5.2,15,4.4c0.8-0.2,3.6-5.3,6.4-6.5c-1.1-0.9-2.8-15-2.2-8.7c-2.8-1-2.8-0.9-6.4-2.2
					c0-2.8,1.1-8.2,0-10.9c10.1,1.8,17.5,4.8,23.6,0c2.2-1.8-3.2-3.7,2.2-2.2c0.3,0.1,0,6.1,0,6.5c3.5,1.4,6.9,2.2,0,2.2
					c2.6,0.8,7,2.9,10.7,4.3c-2.4,1.2-1.5,7.8,0,8.7c4.8,2.7,6.6-3.5,10.8-2.2c0,0,1.7,6.3,2.1,6.5c4,2.4,6.9,0.2,10.7,2.2v2.2
					c11.2,1.9,14.6-3.6,25.8-2.2c9.9,1.2,29.2,17.1,40.8,13.1c0.9-0.3,2-3.9,4.3-4.4l-2.1,10.9c1.5,1.4,12.9,7.1,15,6.5
					c0.3-0.1,0-6.2,0-6.5c1.3,0,5.1,0.7,6.4,0c1.4,1-3.4,8.8-2.1,13.1h4.3l8.6,13.1c1.3-0.5,3.7-4.3,6.4-2.2c0.4,0.3,0,6,0,6.5
					c3.5,1.2,4.2,0.1,6.4,2.2c-0.6,1.1-3,2.9-2.1,4.3c0.4,0.7,3.7-1.9,4.3-2.2c1.3,2.1-1.1,6.4,0,8.7c0,0,10.5,6.1,10.7,6.5
					c1.3,2-0.9,4.2,0,6.5c1.4,3.7,7.8,10.8,10.7,15.2c3.2-0.6,3,4.2,4.3,4.3c4.1,0.4,1.6-3.7,2.1-6.5c2.3,2.2,3.5,2.2,6.5,4.4
					c-0.3,0.6-3.2,3.6-2.1,4.3c1.3,1,5.2,1,6.4,2.2c0,0-1.7-6.5-2.2-8.7c3.8-3,1.1,1.6,2.2,2.2h4.3c0.7-3.8,0.3-8.7,2.1-13.1h-4.3
					c3.5-2-6.3-2.2-6.4-2.2v8.7c0,0-8.2-1.8-8.6-2.2c-1.6-1.4-0.6-9.4-2.2-10.9c-0.4-0.4-6.4-2-6.4-2.2c0.7-0.4,6-4.3,6.4-4.4
					c-0.3-0.2-2.1-6.4-2.1-6.5h-4.3c-1.3-2.2,4.2-4.8-4.3-8.7c-4.4-2.1-19.3-0.9-10.7-2.2c5.2-0.8,8-2.4,12.9-4.4
					c0.7,2.7-2.1,4.7,2.1,4.4c-2.2-1.3-2.2-14.4,0-15.2c1.9,3.7,6.7,9.4,8.6,13.1c1.2,0,5.2-0.8,6.4,0v4.3c1.5,0.7,5.2-1.2,6.4,0
					c2.5,2.5-1.3,3.9-2.2,4.3c-0.8,0.3,2.2,4.4,2.2,4.4c6.4,5.7-0.3,5,4.3,15.2c0,0.1,6.1,0,6.4,0c0.6,5,0.5,5.9,2.1,8.7
					c-2.5,1.9-3.8,2-4.3,6.5c1.4-0.6,3,1.5,4.3,2.2c-0.1-0.1,0-6.3,0-6.5c3.2,1.9,4.5,4.6,8.6,4.4c-0.5,1-3,3-2.1,4.3
					c0.5,0.7,3.7-1.9,4.3-2.2c-0.3,4.5,0.5,9.9,0,17.4c4.7-1.3,2.1-2.4,4.3-6.5c1.1,4.1,3,9.4,4.3,15.2c4.1,0,2.2-3.5,6.5,0
					c0.5-4.8-0.3-6.5,2.1-8.7v2.2c0,8.5,1.7,5.1-4.3,10.9c2.2,2.1,2.2,6.5,2.2,6.5c2.1,1.8,5.4,1.2,8.6,2.2c-0.5-1.6,3-7,6.4-8.7
					c1.3-0.7,1.9-0.8,2.1-0.8c2.1-2.3,3.6-3.5,4-4.4c1.2-2.3,1.2-3.5,0-6.4c-1.2-2.9,4.8-6.4,1.8-7c-3-0.6-0.6-7-4.2-9.3
					c-3.6-2.3-3.2,3.6-5-1.6c-1.8-5.2-4.2-2.9-7.8-5.7c-4.5-3.4-4.1-2.8-10.1-5.7c-6-2.9-1.6-13.1-7.6-16.1c-6-2.9-6-9.9-9.5-15.1
					c-3.6-5.2-14.9-15.7-17.9-19.7c-3-4.1-7.2-11-13.1-11.6c-6-0.6-6-4.1-6-8.1c0-4.1-7.8-3.5-10.2-8.1c-2.4-4.6-8.9,0-13.1,0
					c-4.2,0,1.9,4,0.1,8.6c-1.8,4.6-7.8,3.5-13.2,7.1c-8.3,7.5-2.9,2.2-5.9-3.6c-3-5.8-14.4-9.8-17.4-15c-3-5.2-2.9-5.3-4.7-10
					c-1.8-4.6,3-15.7-7.2-5.1c-2.1,2.2-7.1-1.8-9.5-3.6C-83.8,5.1-94,10.4-94,10.4L-99.5-220.8z M4485.5,19.5
					c-0.5,0.5-2,6.1-2.1,6.5c-2.5-3.8-2.1,4.3-2.1,4.3c2.5,2.3,4.5,3.1,6.4,6.5c5.8-3.3,18.5-6.8,8.6-13.1
					C4494,22.4,4488.1,20.5,4485.5,19.5z M4502.7-52.3c0,0-1.9,10.7-2.2,13.1c18-5.6,17.3-8,30.1,4.4c-5.1,0.4,6.5,6.5,6.5,6.5
					c2.4-5,0.8-7.6,4.3-10.9c-4.1-2.2-7.3,0.2-10.8-2.2c-2.3-1.6-1.1-3.4-2.1-6.5c-2-0.3-5.9-4.3-6.5-4.3c-3.5-0.4-13.5,5-17.2,6.5
					C4504.2-49.5,4506.8-51.5,4502.7-52.3z M-475,180.6c-0.9,0.5-13,17.9-2.1,10.9v-4.4C-471.1,183.8-468.4,176.2-475,180.6z
					 M-457.8,174v4.4c0,0-23.6,18.1-2.2,8.7c3.2-1.5,12.2-9.1,8.6-10.9C-452.6,175.6-453.7,172.4-457.8,174z M-12.9,97.9l2.1,4.4
					C-11.6,99.2-9.1,97.9-12.9,97.9z M-6.5,89.2c3.8,0.3,2,2.6,4.3,4.3C-3.2,93.1-14.7,88.4-6.5,89.2z M-395.5,147.9
					c-3,0.7,2.2,4.4,2.2,4.4S-388.2,146.2-395.5,147.9z M-414.8,145.8c-7.3,0.8-20.3,16.9-10.8,15.2l2.1-4.3
					c3.4-1.4,24.4-3.2,15-8.7C-410.3,146.8-410.4,145.2-414.8,145.8z M-358.9,143.6c-3.1,0.6-2.7,3.7,2.1,4.4
					C-357.5,145.5-355.1,142.8-358.9,143.6z M-369.7,137.1l2.2,4.4C-362.6,142.4-366.7,137.7-369.7,137.1z M21.5,119.6
					c0.9,1.6-1.3,7.6,0,8.7c0.5,0.4,5.7,0,6.4,0c0,1.3-0.7,5.2,0,6.5c0.9-0.5,3.2-3.1,4.3-2.2c1.6,1.3-1.5,7.1,0,8.7
					c0.9,0.9,12.5,5.6,12.9,6.5c0.9,2.3-1.3,6.5,0,8.7c0.4,0,6.2-0.4,6.5,0c-2.8-6.5-2.8-6.3-4.3-13.1c3.6,2.3,1.8-3.3,2.2-4.3
					c-0.6-0.5-5.8,0-6.4,0c-0.4-2.8-4-3.1-4.3-4.4c-1.3-4.2,2-5.8,2.1-6.5V124c-2.8-1.4-6.2-2.2-8.6-4.4
					C46.9,131.6,29.5,123.5,21.5,119.6z M-262.2,76.1v4.3c-5.4-0.1-9.3-3.3-12.9-2.2c-1.9,0.5,2.1,6.5,2.1,6.5
					c-5.2,0.3-7.8,1.4-12.9,2.2c1.7,6.5,1.4,6.2,2.1,10.9c5,0.6,5.8-2.6,8.6-2.2c0.6,0.1,4.7,4.5,6.5,4.3c1.7-0.3,1.3-4.7,6.4-4.3
					c0,0-4.2,3.9,2.2,4.3c-0.7-1.9-0.7-6.5-2.2-6.5c1.8,0,6.9,0.8,8.6,0c0,0-5.3-3.7-4.3-4.3c1.3-1,6.9,0,8.6,0
					C-253.1,85.8-253.6,77.3-262.2,76.1z M2.1,73.9c2.7,9.4,3.6,15.4,6.4,26.1c0.7-1.9,5.8-1,6.5-2.2c2.9-6.1-1.9-20.1-4.3-21.8
					C8.6,74.6,3.7,75,2.1,73.9z M-257.9,60.9c-1.7,3.9-2.3,8.9-2.1,8.7c-1.5,0.5-6.9,8,0,4.4c6.2-3.4,3.2-3.9,10.8-6.5L-257.9,60.9z
					 M-21.5,54.4c5.5,1,11.5,7.5-2.1,8.7C-23.4,60.3-25.5,53.6-21.5,54.4z M-4.3,47.8c3.2,1.6-2.1,4.4-2.1,4.4
					C-6.1,50.7-8,45.9-4.3,47.8z M-178.4,19.5c-4.4,9.7-5.6,11.6,2.1,6.5C-176.3,25.9-176.9,15.9-178.4,19.5z M-444.9,17.3l-4.3,4.4
					c-4.3,0.7-3.7-1.2-6.4-2.2c1.1,0.8-4.3,4.4-4.3,4.4c2.8,1,9.5,6.3,12.9,6.5C-436,30.9-428.5,18.3-444.9,17.3z"/>
				
					<path fill="#DFDFDF" stroke="#FFFFFF" stroke-width="1.5713" stroke-linecap="round" stroke-linejoin="round" stroke-miterlimit="10" d="
					M821,504.9l2.2,4.4C822.3,506.2,824.8,504.9,821,504.9z M818.9,465.7c6.1-1.7,0,4.4,0,4.4C814.8,470.9,816.5,466.3,818.9,465.7z
					 M616.8,661.6l2.2,6.5C624.4,669.8,627.6,662.6,616.8,661.6z M601.8,650.7c3,1.5-2.2,4.3-2.2,4.3
					C600,653.5,597.8,648.6,601.8,650.7z M859.7,439.6l-4.3,4.4c-2.6,0.9-4-1-6.4,0c-8.8,3.3,21.5,4.4,21.5,4.4
					c1.8-0.6,1.3-4.2,2.1-6.5C876.5,441.9,865,438.3,859.7,439.6z M900.5,420c-0.1,0-4.6,6.7,0,4.3
					C900.5,424.3,905.1,417.6,900.5,420z M855.4,363.4c2.7,1.4-2.2,6.5-2.2,6.5C853.5,368.2,851.6,361.5,855.4,363.4z M670.6,341.6
					l2.2,4.4C671.9,343,674.7,341.6,670.6,341.6z M174.1,311.2c4.2-1.9,0.4,1.3,2.1,2.2c-1.1,0.3-14.6,7.2-6.4,0
					C171.3,311.8,171.8,312.1,174.1,311.2z M178.4,291.6c0.3-1.9-2,11.8-2.1,13.1C176.5,301.4,171.7,291.6,178.4,291.6z M940.3,359
					l0.4-2.5c0,0-0.8-2.3-3.6-2.3c-2.8,0-1.1-4.5-1.1-8.5c0-4-5.6-1.7-5.6-1.7s-0.8-12.2,0.3-20.1c1.1-7.9-3.9-9.6-9.5-11.3
					c-5.6-1.7-6.7,10.2-7.8,3.4c-1.1-6.8-5-2.3-5-2.3l-3.9,9.1c0,0-4.5,7.4-3.9,10.2c0.6,2.8-9.5,11.9-12.3,13
					c-2.8,1.1-4.5,5.1-4.5,5.1s-36.4,6.2-40.3,5.1c-3.9-1.1-3.4-2.8-15.1,4c-11.8,6.8-12.3,10.2-12.3,10.2l-2.5,3.9
					c0,0,4.2-4,5.4-4.4c-7.5,28.9-19.9,22.9-47.3,23.9c-0.7,3.7,1,5,2.1,8.7c-5.7,5.6-15.2,15.2-23.6,17.4c-3.2,0.8-7.9-1.6-10.7,0
					v4.3c-1.2,3.3-13.8,9.6-19.3,8.7l-2.2-4.3c5.5,1.8,0-4.4,0-4.4c-2.4-0.8-6.4,1-8.6,0c2.4-3.1,3.8-6.2,6.4-8.7
					c1.1-0.5,2.7-2.1,3.1-2.8c0.8-1.2,0.5-1.4,1.6-2.1c-0.7-1.8,1.6-7.2,3.8-8.2c-0.8,0.4-0.6,3.8-1.1,6.3c0.9-0.9,1.4-1.9,1.4-3.3
					c0-2.8,1.1-6.2,1.6-8.1c-1.5-5.9-4.8-12.6-6.3-18.8c-0.8,0-6.2,0.5-6.4,0c-2.8,2.1-0.1,3.1-6.5,6.5c6.8-17.2,6.1-20.5,0-37
					c-1.8,0-7.1,0.9-8.6,0c-1.6-1-1.3-4.9-4.3-6.5c-3,2.9-4.8,8.9-8.6,10.9h-2.1c-0.3,0.8,0.4,6.3,0,6.5c-1.1,0.6-8.1-0.9-8.6,0
					c-2.1,3.8,0.9,10.8,0,15.2h-4.3c0.9,11.7,4.4,21.4,2.2,32.6c-0.2,1-9.5,14.4-10.7,17.4c-1.5,0-5.4-1-6.4,0
					c-7.3-16.7-8.1-32.6-2.2-52.2h4.3c0.3-1.2,2.1-6.5,2.1-6.5v-8.7c-1.3,0.9-4.8,4.6-6.5,4.4c0,0.4,0.3,6.3,0,6.5
					c-1.4,0.7-5.7-1.2-6.4,0c3.9-5.1,11.1-23.4,15-26.1c0-0.1,11.5,0,17.2-2.2c0.1-0.1,2.1-4.3,2.1-4.3c5-1,3.5,3.1,8.6,2.2
					c-2.8,0.3,5.8,2,6.4,2.2v-4.3h2.2l2.1,4.3c0,0,8.3-0.8,4.3-2.2c-2.8-1-3-3.9-4.3-6.5c-3,0-8.1,1-10.7,0c0-1.1,0.5-10.7,0-10.9
					c-4.9-1.5-16.9,11.1-27.9,8.7c-5.4-1.2-8.6-10.9-8.6-10.9c-5.6-2.3-10.3,2.4-12.9,2.2c4.8-2.9-8.1-3.6,6.4-6.5
					c-1.7-0.3,4.3-4.3,4.3-4.3c-0.8-1.6-2.8-2.5-2.2-4.4c-10.7,6.7-18.3,11.9-30.1,17.4v2.2c-7.9,0.8-6.4-5.8-10.7-6.5
					c-1.5-0.3-10.4,1.9-15,2.2c1.3-1.2,8-10.5,8.6-10.9c8.1-6.1,18.1-6.7,25.8-13.1c-0.3-1.4-1.1-1.8-2-2.1
					c-1.7-0.6-3.9-0.6-6.2-3.4c-2.2-2.8-3.9,0-7.8-0.6c-3.9-0.6-5.2-1.4-8.2-0.9c-3.7,0.6-5.3-0.8-8.6-0.8c-3.4,0-7.8-4-10.1-5.7
					c-2.2-1.7-6.7,0-7.3,3.4c-0.6,3.4-5-2.3-9.5-2.3c-4.5,0-6.7-1.7-6.7-1.7S558,269,554.7,269c-3.4,0-3,6.7-3,6.7l-378-1.8
					c1.9,4.8-1.8,8.8-1.1,12.5l-0.6,3c0,0-1.9,3.8-2.1,4.4c-7.5-0.6-17-2.2-27.9-4.4c0.7,2.1,0.6,7.6,2.2,10.9
					c1.9,4.3,12,13.2,12.9,21.8c0.5,5.7-4.2,13.7-4.3,17.4c-0.3,5.8,3.1,18.8,2.2,28.3c-1.5,14.1-9.8,34.4-4.3,50.1
					c0.4,1.2,6,3.1,6.5,4.4c0,0-2.6,13.9,0,15.2c-0.4,2.1-6.5,19.6-6.5,19.6c0.1,1.5,5.9,5.4,6.5,6.5c4.8,10.5,0.3,12,4.3,21.8
					c0.9,2.4,8.5,12.5,10.7,17.4c5.3-2.4,2.2-6.5,2.2-6.5c4,0,4,3.2,6.4,2.2c-4,2.3,0.3,11.4-4.3,15.2l10.7,4.3
					c-1.8,4.3-5.6,7-4.3,13.1c1.1,5.2,16.1,15.4,17.2,17.4c0.5,1-4.3,4.4-4.3,4.4l4.3,2.2c3.2,5,1.2,9.7,2.1,17.4
					c4.9,1.2-0.8-2.5,4.3-2.2c2.1,0.1,12.7,5.3,17.2,6.5c0,0.3-0.1,6.5,0,6.5c4.1,2,4.3-3.8,6.5-2.2c2.6,2,3.9,8.7,6.5,10.9l6.4,2.2
					c1.3,2.5,1.4,5,1.4,7.7l35.8-3.4v5l37,20l45,2.4l0.6-9.1l27.4,0.6c0,0,2.8,1.7,5,4c2.2,2.3,1.7,2.3,3.4,5.1
					c1.7,2.8,2.2,5.1,6.2,6.2c3.9,1.1,4.5,3.4,9,7.9c4.5,4.5,2.8,4,2.8,8.5c0,4.5,3.4,7.7,6.8,10.6c3.4,2.8,9,4.2,13,2.5
					c3.9-1.7,3.9-6.5,6.2-9.4c2.2-2.8,2.6-1.4,7.1-0.3c4.5,1.1,6.2,0,9,1.7c2.8,1.7,2.8,2.8,5.6,6.8c2.8,4,4.5,4.5,7.3,7.9
					c2.8,3.4,1.1,4.5,1.7,7.9c0.6,3.4,3.9,6.8,7.8,10.8c3.9,4,1.1,4.5,4.5,9.6c3.4,5.1,5.6,14.2,5.6,14.2s1.1,5.2,3.9,6.9
					c2.8,1.7,9,5,13,5c3.9,0,6.8,5,6.8,5l3.1-0.7c-2.1-4.5-4.9-8.5-6.1-11.6c3.4-1.8,0.1-11.1,0-13.1h4.3c0.8-2.2-1.4-6.9,0-8.7
					c2.8-4,11.5-3.3,15-6.5c2.6-2.5-1.1-6.8,2.2-8.7c3.5-2.2,8.1,0.1,10.7-2.2c0.7-0.8,6.4-15.2,6.4-15.2c0.3-0.3,5.4,2.7,8.6,2.2
					c4.7-0.9,12-10.6,15-10.9c6.2-0.7,25.7,6.7,27.9,8.7c1.1,0.9,0.4,6,2.1,6.5c6.2,1.8,5.3-3.1,10.7-2.2c-0.7-2-2.5-5.7-2.1-6.5
					c0.4-1.3,6-3.1,6.4-4.3l6.4,8.7c2.3,0.9,6.3-1.2,8.6,0v4.4c2.6,0.7,7.4-2.8,4.3-4.4l-6.4-2.2c-1.1-4.1,1.8-3.2,2.1-4.4
					c-1-0.7,1.8-3.8,2.1-4.3c-5.1-2.5-6.7-2.8-10.7-4.4h-2.2l-2.1-4.3c2.6-0.6,5.2,3.6,10.7,2.2V642c9.5,1.2,7.3,0.1,17.2,2.2
					c-2.8-1.8,2.2-4.4,2.2-4.4c3.1,2.8,0.1,6.5,6.4,6.5l4.3-6.5c0,0,5.6,3.7,6.4,4.4c1.4-1.2,1.2-5.3,4.3-4.4c4,1.2,2.1,6.5,2.1,6.5
					c3,1.8,6.8,0.1,10.7,2.2c1.9,1,1.2,3.9,2.2,6.5c3.8-0.5,6.2,1,10.7,2.2c0.5-0.7,3.4-6.3,4.3-6.5c2.4-1,4.1,1.2,6.4,0
					c1.2,2.2,2.4,8.9,4.3,10.9l6.4,2.2c2.6,8.3,0,21.6,0,30.5c6-2,3-2.3,8.6-2.2c-1,4.4-6.5,7.7-4.3,15.2c0,0,8.2,3.7,8.6,4.4
					c2.4,3.9,0.1,6,2.2,10.9c0.5,1.2,6.1,5.8,6.5,6.5c0.5,1.5-1.1,5.1,0,6.5c1.8,2.2,8.3,2.4,10.7,4.4c1.8-12.6,5.9-22.9,4.3-37
					c-0.3-2.9-4.6-19.1-6.5-23.9l-4.3-2.2c-0.8-4.1,3.9-0.9,2.1-6.5c-0.6-1.8-6.1-7-6.4-8.7c-1.1-4.9,1.4-10.5,0-15.2
					c0,0-10.9-7.1-4.3-6.5c1.8,0.1,2.3,0.2,2.3,0.1c0-0.2-2.1-0.8-0.2-2.3c0,0,8.7-2.2,2.1-2.2c-5.2,0,6-17.9,6.4-19.6
					c0.5-2.1-1.3-7,0-8.7c0.6-0.9,5.2,0.4,6.4,0c2.1-0.8,0.7-5.6,2.2-6.5c3.2-2.3,13.2-3.7,15-6.5c2.1-3.3-0.9-6.5,2.1-8.7
					c4.6-3.5,10.4-0.9,15-4.4c3.6-2.8,3.1-9.9,6.5-13.1c0.6-0.7,6-1.6,6.4-2.2c-0.8-1.4-4.3-8.7-4.3-8.7c3.6-1.4,6.1-1.3,8.6-2.2
					l-2.2-4.4c-4-0.2,10.8-2.3,15-2.2c-1.7-0.9-3.6-6.3-4.3-6.5c-1.7-0.9-6.7,0-8.6,0v-4.3c2.5-0.8,7-0.7,8.6-2.2c0,0-0.5-7.6,0-8.7
					c-2.2-1.4-5.9-0.5-8.6-2.2c-2.9-1.8-1.1-4.6-4.3-6.5c0,0,8.2-8.6,6.5-8.7c-6.9-0.7-1.1-4.9-2.1-6.5c-1.8-2.9-5.4-2.6-8.6-4.3
					c0.9-3.9,0.7-1.2,4.3-2.2c0.6-3.1-3-5.7-2.1-6.5c5.8-5.8,3.9-9.7,6.5-19.6c3.6,0.6,5.1-1.2,8.6-2.2c-0.5,1.6,3.4,3.5,2.1,4.4
					c-8,4.8-6.4,23.7-8.6,23.9c0.2,0.5,2.6,4.1,2.1,4.4c2.2,0.5,4-3.4,8.6-2.2v4.3c1.2,0,5.2-0.3,6.4,0c2-7.8,2.4-11.8,4.3-21.8
					c-2.6-1-5.6,0-6.4-2.2c-0.5-1.3,0.6-5.4,0-6.5c22.3,1.3,15.5-1.8,25.8-17.4l-6.5-4.3c-1.8-6.1,4-2.4,2.1-6.5
					c3.4-2.8,8.9-9.8,12.9-10.9c2.4-0.7,6.2,0.9,8.6,0l2.1-4.3c6.5-1.2,5.2,2.9,10.8,2.2c0.4-4.2,0.6-6,2.1-10.9
					c4.7,1.6,2,2.2,4.3,6.5c0,0,7.9,0.3,4.3-2.2c3.2-1.2,2-1.6,6.5-2.2c-3.4-2.4-6.6-4.2-10.7-6.5c1.5-3.3,5.7-5,6.4-6.5
					c2.2-5.3-3-2.8-2.2-6.5l4.3-2.2c2.8-4.4,2.4-10.3,4.3-15.2c12.9,0.1,14.4,1.2,21.5-13.1v6.5l6.4-4.3c-1.9,0.7,4.3,4.3,4.3,4.3
					c3.1-2.2,7-6.1,10.7-8.7c-1.4-4.1-3.2-8.2-4.3-13.1C939,357.3,940.3,359,940.3,359z"/>
				
					<path fill="#DFDFDF" stroke="#FFFFFF" stroke-width="1.5713" stroke-linecap="round" stroke-linejoin="round" stroke-miterlimit="10" d="
					M244.3,601.8c-0.1,2.8-0.2,6.8,0.8,9.8c0.3,0.8,1.5,3.3,2.2,6.5h4.3c3.6,6.5,0.8,12,4.3,19.6c3,6.4,12,12.8,17.2,17.4
					c1.1,1,5,1,6.5,2.2c6.8,6,5.5,22.9,6.4,34.8c-6,1.6-8.9,2.7-12.9,4.3c5.9,4.2,10.7,7.1,17.2,10.9v4.4c4.4,2.9,9.1,1.2,12.9,4.4
					c1.2,1,3.4,8.2,4.3,8.7h4.3c3.7,7.8-1.4,17.1,2.2,26.1c0.5,1.5,7.3,3.1,8.6,4.4v4.3c1.1,3.3,18.1,18.6,21.5,26.1
					c1.1-5.9,0.1-2,4.3-4.3c-1.1-2.3,0.8-6.3,0-8.7c-0.8-2.2-7.4-4.6-8.6-6.5c-1.5-2.5-0.1-5-2.1-6.5c-1.9-1.4-5.4-0.2-6.4-2.2
					c-0.7-1.2,3.1-4.8,2.2-8.7h-4.3c-3.6-14.1-3.3-22.1-8.6-34.8c-0.2-0.4-6-1-6.4-2.2c-1.5-3.7,1.3-7.3,0-10.9h-4.3
					c-4.2-8.2-6.3-15.6-8.6-26.1c-0.3,0-6.4,0.1-6.4,0c-2.5-5.6,0.2-12.9-2.1-17.4c-0.3-0.5-5.7,0-6.4,0c-3.2-6.9-3.1-12.3-6.4-19.6
					c-0.7-1.4-5.7-5-6.5-6.5c2.4-2.1,1.2-7.1,2.2-10.9c3.9,1.9,8,5,10.7,6.5c0,0,6.3-3.8,4.3-4.3c0.5,0.4,5.8,0,6.4,0
					c0.5,1.8,0,4.8,0,6.5h4.3c1.3,4.9-2.7,9-2.1,10.9c0.5,1.8,7.8,6.8,8.6,8.7c2.2,4.9-0.5,8.3,2.2,13.1c0.9,1.6,10.1,7.7,10.7,8.7
					c1.3,2-0.9,6.4,0,8.7c0.7,0,1.5,0,2.1,0c4.9,2.4,8.1,10.3,10.8,15.2c0.5,0,6.1-0.5,6.4,0c1.3,1.8-0.9,6.5,0,8.7
					c1,2.4,4.6,0.5,6.5,2.2c1.1,1,0.9,7.6,2.1,8.7c0.3,0.3,9.5,3.5,10.7,4.4c-2.7,2.3-2.5,5.2-6.4,6.5c0,1.3,0.7,5.2,0,6.5
					c7.2,5.7,16.4,9.9,21.5,17.4c2.2,3.3,1.3,8.6,4.3,10.9c2,1.5,5.4-0.3,6.5,2.2c0.8,2.2-1.5,4.6,0,6.5h4.3
					c1.6,3.1,5.7,9.1,6.4,10.9c0.9,2.4-1.3,4.2,0,6.5c3.1,5.6,10.6,10.8,12.9,17.4c7.3,21.6-12.2,31,0,47.9c3.5,4.9,10.1,2.7,15,6.5
					c0.7,0.5,12.9,19.6,12.9,19.6c5.7,3.6,13.8,1.3,19.3,4.4c5.2,2.9,11.5,12.4,17.2,15.2c6.7,3.2,13.9,1.2,21.5,4.4
					c3,1.2,6.2,7.7,8.6,8.7c1.3,0.5,19.3,4.3,19.3,4.3c8.2,0.5,11.2-3.5,15-4.3c13.3-3.1,20.8-0.4,32.2,2.2c0.5-2.2-1.9-5.4,2.1-4.3
					c5.1,1.3,7.4,10.1,11.2,13.5c0,0,5.2-4.7,3-6.9c-2.2-2.3,8.4-13.6,8.4-13.6l16.8,0.6c0,0,0-6.2-3.4-8.5
					c-3.4-2.3-7.3-9.1-7.3-9.1l-0.6-5.1h5l1.7-7.4h24.1l5-3.4c0,0,2.7-4.1,6-1.9l1-1.8c1.1,0.8,4.3-4.3,4.3-4.3c0.4,0.2,0,6,0,6.5
					c0,0,10.5,3,6.4,0c0,0-0.9-7.9,0-13.1c0.7-4.3,11.2-42.6,6.5-45.7c-10.3-6.6-33.2,7.1-43,10.9c-1.2,8,0.6,14.4-2.2,21.8
					l-4.3,2.2c-0.9,3.2,1.5,8,0,10.9c-0.3,0.5-5.8,1.6-6.5,2.2c-0.5,0.5-2,6-2.1,6.5c-5-0.9-3.2,3-6.5,2.2v-4.3
					c-5.8,0.4-8.4-0.7-10.8,0c-0.7,0.1-3.4,6-4.3,6.5c-3.4,1.8-8.1-0.2-10.7,2.2c-1.2,1-0.2,6-2.1,6.5c0,0-7.3,2-2.1-2.2
					c-3.6-0.8-6.4,1.1-10.7,2.2c-0.5-1.8-1.3-8.3-2.2-8.7c-4.6-2.5-10.5,0.7-15-2.2c-1.7-1.1-3-8.8-4.3-10.9
					c-7.8-12.4-14.2-21-19.3-37c-0.5,0.2-4,2.7-4.3,2.2c2-0.9,2.2-14,0-15.2l4.3-4.4c1.9-7.3-4-15-4.3-19.6
					c-0.3-4.8,2.3-8.8,2.1-10.9c-0.2-1.9-4.8-13.2-4.3-15.2c0.7-3.5,12.1-9.1,12.9-13.1c0.7-4.1-0.6-8.4-2.5-12.3l-3.1,0.7
					c0,0-2.9-5-6.8-5c-3.9,0-10.2-3.3-13-5c-2.8-1.7-3.9-6.9-3.9-6.9s-2.2-9.1-5.6-14.2c-3.4-5.1-0.6-5.7-4.5-9.6
					c-3.9-4-7.3-7.4-7.8-10.8c-0.6-3.4,1.1-4.5-1.7-7.9c-2.8-3.4-4.5-4-7.3-7.9c-2.8-4-2.8-5.1-5.6-6.8c-2.8-1.7-4.5-0.6-9-1.7
					c-4.5-1.1-4.9-2.6-7.1,0.3c-2.2,2.8-2.3,7.7-6.2,9.4c-3.9,1.7-9.6,0.3-13-2.5c-3.4-2.8-6.8-6-6.8-10.6c0-4.5,1.7-4-2.8-8.5
					c-4.5-4.5-5-6.8-9-7.9c-3.9-1.1-4.5-3.4-6.2-6.2c-1.7-2.8-1.1-2.8-3.4-5.1c-2.2-2.3-5-4-5-4l-27.4-0.6l-0.6,9.1l-45-2.4l-37-20
					v-5L244.3,601.8z"/>
				
					<path fill="#DFDFDF" stroke="#FFFFFF" stroke-width="1.5713" stroke-linecap="round" stroke-linejoin="round" stroke-miterlimit="10" d="
					M1094,215.4c-7.4,2.7-8.1,12.7-8.6,13.1c-0.9,0.5-6.2-0.6-6.4,0c-1.4,2.9,0.6,7.6,0,10.9c-2.1,10.3-8.3,21.4-10.7,28.3
					c1.3,0,5.1-0.2,6.4,0c-0.3,1,1.1,6.7-2.1,4.4v4.4c-4.3,0.5-2.8-6.4-8.6-4.4v2.2l-1,5.4c-0.7-1.3-3.3-1-3.3-1s2.2,2.2-2.1,2.2
					l4.3,4.4c-3.6,4.4-17,17.8-6.5,19.6c1.5,0.2,6-4.3,6.5-4.4c7.6-2,19.5,2.3,23.6,2.2c6-0.3,4-3.9,8.6-4.3
					c0.7,2.7-1.9,4.6,2.1,4.3l12.9-4.3c10.3,0.6,2.4,0.2,4.3,6.5c0.5,1.8,8.5,1.7,2.1,6.5c-2,1.5-0.5,1-4.3,2.2
					c3.5,0.8,0.7,6.3,6.4,2.2c3.6-2.7,9.2-13.9,12.9-17.4c0.9,0.6,4.8,4.7,6.4,4.3c-0.1,0.1-0.5,10.1-2.1,6.5
					c-2.8,0.4,2.1,8.7,2.1,8.7c1.8-0.3,1.4-4.4,2.2-6.5h4.3c0,0.6-0.5,6.1,0,6.5l6.5,2.2c1-3.1,0.7-4.4,2.1-8.7c4.6-14,1.4-13,0-8.7
					v4.4c-7.5-0.1-2.6-6.8,0-8.7c9.3-6.9-3.7-7.3-6.4,0c-0.9,2.4,1.3,4.2,0,6.5c-10.6-1.5-8.6-2.8-2.2-6.5c0.3-0.3-4.1-6.2-4.3-6.5
					c2.3-3.3,4.4-4.5,6.5-8.7c-3.4,0.7-3.8,0.9-8.6,2.2c-2.6,1.2-6.4,2.2-6.4,2.2l2.1-6.5c-1.4-0.9-3.2,1.6-4.3,2.2
					c3.2-1-4.3-6.5-4.3-6.5h4.3c-0.8-6.5,4.2-10.5-2.1-13.1c-4-1.6-1.7,2.5-2.1,4.4c-6.6-0.7-5.1-4-8.6-4.4c-9.8-1,1.4,6.3-6.4,6.5
					c-3.8,0.1-9.9-3.1-15-4.4c6.2-5.4,12.6-8.2,0-10.9v-4.3c-2,3.5-6.7,7.7-8.6,10.9c0.4-5.9-1.6-11.4,2.1-17.4
					c0.6-1.1,6.1-3.3,6.5-4.4c0.8-2.9-2.2-8.7-2.2-8.7c2.7-1.8,6.4-0.7,8.6-2.2l-4.3-6.5h4.3c0.4-0.2,1.7-3.7,2.1-4.3
					c7.3,0.2-4.3,0-4.3,0C1094,217.8,1097.7,214,1094,215.4z M25.8,171.9c1.3,13.1,1.4,11.5,4.3,21.8c4.3-2,4-3.3,10.7-4.3
					c-4.4,8.2-8.9,5.8-2.1,15.2c2.3,3.3,4.7,5,8.6,6.5l2.2,2.2c-1.9-7.5-1.2-16.9-4.3-21.8l-4.3-2.2c-1.4-7.4,1.8-12.4,2.2-17.4
					c-2.6,0.3-10.8,4.9-12.9,4.4C29.1,176,30.6,172.4,25.8,171.9z M679.2-102.4c-0.8,12.3-2,17.4,0,34.8c-3.8,1.4-8.4,1.8-12.9,4.4
					c0,1.4,0.9,10,0,10.9c3,0.2,6.4-2.2,6.5-2.2c0.1,0.3,6,0,6.4,0c0,1.1-0.8,10.4,0,10.9c2.8,1.6,7.9-1.7,10.7,0
					c1.2-2.8,6-8.8,6.4-10.9c1.5-7.1-5.4-20.8,10.7-19.6c1.8,0.1,1.4,4.4,2.1,6.5c3-0.2-0.7,5.5-2.1,8.7c9.7,2.9,16.3,3.9,25.8,6.5
					c0.8-2.5,2.2-7.4,4.3-8.7l-4.3-6.5c-2-0.4-8.7,3.5-10.7,4.4v-4.4c-4.2-7.3-19.9-29.3-32.2-26.1c-1.2,0.3-1.5,4-4.3,4.4
					c0,0-2.5-7.3,2.2-10.9C684.4-101.1,683.9-101.2,679.2-102.4z M628.4,294.8c1.4-2.7,1.7-8.3,3.5-9.8c3.2-2.8,9.2-0.1,10.7-4.4
					v-4.4c0,0,2.7,6.8,4.3,6.5c0.5-3.9-1.9-8,2.1-8.7c5.4-1.1,10.3,1.8,19.3,2.2c2.4,6.3,4.6,17.4,10.7,19.6c3,1.1,7.7-1.2,10.7,0
					c0,2-0.8,6.7,0,8.7c0.3,0.8,6.4,2.2,6.4,2.2c2.1,6.2-4.4,13.1,2.2,19.6c1.1,1.1,4.8-0.8,6.4,0v4.4c14.5,2,26.2,4.5,38.7,8.7
					c-3.6-1.6,6.3-2.2,6.5-2.2c1.1,1.6,2.6,5.1,4.3,6.5l6.4,2.2c1.3,2.9-1.2,7.8,0,10.9c0,0,4.9,3.5,6.4,6.5h-6.4
					c-0.7,0.4,0,7.7,0,8.7c-0.3-0.2-9.5-3.5-6.4-4.3c-5-2.4-6.7-2-10.8-4.4c-8.1,10.4-8.6,11.1-8.6,30.5c-3.2,1.8-6.9,1.4-8.6,4.4
					c-0.6,0.6-1.8,4.4-1.8,7.3c0,2.5-2.5,4.4-4.5,5.7c3.2,1.8-3,8.6,6.3,6.5c0,0,6.2-4.4,4.3-4.4c1.9-1.6,14.2-10.7,15-10.9
					c2.3-0.7,6.2,0.9,8.6,0l2.2-4.3c4.1-1.1,8.7,1,12.9,0v-4.4c-14-1.4-6.2-1.9-2.2-4.4c1.6-1,4.2-6,6.4-6.5
					c9.3-2.2,19.3,1.4,25.8,2.2c-1.3-0.5,4.3-4.4,4.3-4.4c-3.8-1.9-7.1-1.3-10.7-2.2c0.4-0.1-2-4-2.2-4.3c7.2,1,12.7,3.5,19.3,2.2
					c0.6-0.1,1.5-0.8,2.5-1.6l3.2-4.5c0,0,0.6-3.4,12.3-10.2c11.8-6.8,11.2-5.1,15.1-4c3.9,1.1,40.3-5.1,40.3-5.1s1.7-4,4.5-5.1
					c2.8-1.1,12.9-10.2,12.3-13c-0.6-2.8,3.9-10.2,3.9-10.2l3.9-9.1c0,0,3.9-4.5,5,2.3c1.1,6.8,2.2-5.1,7.8-3.4
					c5.6,1.7,10.6,3.4,9.5,11.3c-1.1,7.9-0.3,20.1-0.3,20.1s5.6-2.3,5.6,1.7c0,4-1.7,8.5,1.1,8.5c2.8,0,0,2.7,0,2.7
					c1.4,0.3,6,4.2,6.4,4.4c5.5,1.4,10.1-2.3,12.9-2.2c-0.1-0.3-4.2-5.6-2.1-6.5c2.5-1.3,3.2,3.5,4.3,4.4c6.2-5.3,11-9.7,15.1-17.4
					v2.2c1.1-2.9,4.3,2.2,4.3,2.2h-4.3c-1.5,5.9,0.1,5.8-2.2,10.9c3-0.4,14.5-4,17.2-4.4c0,0,5.2,3.7,2.1,4.4
					c-4.7,0.9-2.3,2.7-4.3,6.5c-14.2-3.3-9-3.1-21.5,2.2v4.4c-0.6,0.4-5.7,0-6.5,0c-4.8,9.7-14.3,13.1,2.2,19.6l2.1,4.4
					c5.2,1.3,2.9-3.5,6.5-2.2c0.9,0.3-0.7,3.3,2.1,4.4l8.6-6.5c2.4-4.1-0.7-8,2.1-10.9c7-7.1,2.4,2,8.6,0c0,0,1.3-6.2,2.2-6.5
					c3.1-1.4,7.3,0.8,10.7,0v-2.2c4-2,11.5-4.8,12.9-8.7v-4.3h4.3c-2.6-5.2-1.7-6.4-4.3-13.1c-5.8,4.9-10.9,10.8-19.3,6.5l-4.3-4.4
					c-5-0.9-3.1,2.9-6.4,2.2c0.9-0.7-1.9-3.7-2.1-4.4h4.3c-1-0.5,1.9-3.9,2.1-4.3c-6.9-2.4-9.5-2.2-15-4.4c0.2-1.7,2.4-10.9,0-10.9
					c4.1,0.4,1.4-1.7,2.1-4.4c0,0-7.7,1.4-4.3,2.2h-2.2c1.5-3.7,3.8-9.7,2.2-8.7l2.1-4.3c0,0,2.5-5.8,0-6.5
					c-0.9-0.3-26.2,4.3-17.2,2.2c-1.8-3.2-3.4-5.9-4.3-8.7c5.4,2.3,2.5-3.7,6.4-2.2l4.3,6.5c2.1-1.8,2.1-1.4,6.4-2.2
					c0.5-1.9,0.9-8.2,2.2-8.7c0.7-0.4,6.2,0.5,6.4,0c1.6-3.6-1.7-7.3,0-10.9c1.5,3,4.3-2.2,4.3-2.2c-1.9-1.6-6.4-3.3-6.4-6.5v-2.2
					c-11-4.6-19.9-0.2-27.9,2.2c-0.9,0.2-7.6,3.9-8.6,4.4c-19.9,9.3-34.8,26.7-47.3,43.5c1.6-3.2,5.7-9.1,6.4-10.9
					c1.8-4.8,2.6-6.9,4.3-10.9c-1.6-0.5-6.1,1.6-4.3-2.2c0.9-2,4.6-0.9,6.5-2.2c3.6-2.9,5-9.9,8.6-13.1c1.3-1.2,4.7,1,6.4,0
					c1.1-0.8-1.2-5.8,0-6.5c2.3-1.4,4,1.2,6.4,0l10.7-13.1c2.4-2.7,1.3-2,4.3-4.4c1.4-1.2,4.4-6.1,6.4-6.5c17.3-4.8,37.5,2.4,47.3,0
					c2.6-0.7,1.8-5.9,8.6-4.4c2.2,0.5,0.6,5.8,6.4,4.4c1.3-0.3,1-5,4.3-4.4c0.7,0.1,3.7,5.7,4.3,6.5c1.2-0.3,5.2,0,6.4,0v-4.3
					c5.5-1.2,4.4,4.4,10.7,2.2v-4.4c2.2-1.2,6.2,1,8.6,0c2.2-1,0.7-5.2,2.1-6.5c2.6-2.3,8.9-1.5,10.7-4.3c0.7-1.2-2.1-9.8,2.2-13.1
					c3-2.4,15.3-4.7,19.3-6.5c-3.8,1.8,4,2.2,4.3,2.2c1.4-0.5,16.6-13.5,17.2-15.2l-2.1-21.8c-1.3-1.2-2.9,3.1-6.5,2.2
					c-7.5-1.9-6.2-13.5-23.6-10.9c-0.7,0.1,1.9,4,2.2,4.3c-5.4,0.5-8.1,0.8-10.7,2.2c-6.5,3.2-11.4,5.6-19.3,8.7v4.3
					c-8.5,1.4-3.3-5.6-6.5-8.7c4.1-1,8.8,1.1,12.9,0c3.2-1,9.6-9.5,12.9-10.9c4.6-2,8.5,0.1,12.9-2.2c2.1-1.2,4.4-7.3,6.4-8.7
					c-0.8-0.3-4.6,1.5-6.4,2.2l-2.1-4.3c4.9-1.7-0.5-3.2-2.2-4.4c0,0,1,5.7-4.3,4.4c-8-2.2-3-5-6.4-10.9c-11.7,3.6-8.1,2.9-23.6,0
					c-1-3.2,2.9-5.6,0-10.9h-2.2c-1.6-0.8-4.4-6.1-6.4-6.5c-1-0.3-5.7,0.6-6.4,0l-4.3-10.9c-0.8,0.3-3.5,2.9-4.3,2.2
					c0.5-1.7,2.1-8.7,2.1-8.7c-3.7,1.4-3.8-2-4.3-2.2c7.4-0.5,12,0.3,15,0c0-0.4-0.4-6.5,0-6.5c-3.1-1.7-7.5-3.2-10.7-4.3
					c0-0.3,1.1-8.6,0-10.9h-2.1c-3.8,0-6.4-6.7-8.6-8.7c0.7-2.1,2.4-5.6,2.1-6.5c-4.6,0-10.5,0.6-15,0c3-1.9,6.6-4.3,10.8-6.5
					c-2-3.8-4.4-8.7-6.4-13.1c-2,0-6.9,0.8-8.6,0c-2.3-1.2,1.6-2.6-2.1-4.4v-6.5c-0.8-3.2-0.9-4.5,0-10.9l-4.3-2.2
					c-1.1-4.8,2.6-6.4,2.1-8.7c-0.3,0.4-6,0-6.4,0c-5.7,12.4-8.5,16.5-10.7,28.3c-3.9,0.2-1.7-3.7-2.2-6.5c-0.8,1.4-5.9,2.9-6.5,4.4
					c-0.5,1.4,0.9,5.6,0,6.5c-0.7-0.3-3.6-3.2-4.3-2.2c-2.2,2.8-0.1,5.2-2.2,8.7c-1.1,1.6-9.3,5.4-10.8,6.5
					c-3.5-2.8-5.6-5.9-8.6-8.7c-1.2,0.8-3,6.5-6.4,4.4c-0.6-0.4-1.9-9.9-2.2-10.9c-6.2-0.4-8.2-0.3-10.2-0.7
					c-1.9-0.4-3.7-1.3-9.1-3.7c0.7-11.6,1.3-13.3-2.2-23.9c2.2-0.8,6-0.3,6.5-2.2c0.9-4.1-2.2-1.6-4.3-2.2c3.4-5.7,5.2-9.6,8.6-15.2
					c-4.3,0.7-5,4.1-6.4,4.4c-1.8,0.3-6.3-2.6-10.7-2.2c0.5-2-1.7-5.7,2.1-4.4c0.2-0.5,2.6-4.2,2.1-4.4c-6-1.9-15.8,2.4-21.5,0
					c-0.5-0.2,0.3-5.8,0-6.5h-4.3v-4.3c-1.9-5.6-16.3-14.4-21.5-17.4c-2.2,1.4-6.4,0.7-8.6,2.2c-1.3,0.8-3,6-4.3,6.5
					c-3.7,1.3-7.1-1.4-10.7,0v4.3c-6.9,1.6-16.7-3.6-23.7-4.3c-7.3-0.8-9.8,2-15,2.2l-2.1,6.5c3.2,1.5,3.8,0.9,8.6,2.2v4.4h-4.3
					c-1.5,3.3,3.4,1.2,2.2,6.5c-0.3,0.9-5.2,6.2-6.4,8.7c-4.2-2.7-0.1,4.3,0,4.3c1.2,0.5,5.2-0.5,6.4,0c0.5,9.5-5.8,10.1,4.3,17.4
					c1.4,0.9-1.1,6.7-2.1,4.3c-0.1,0-2,3.8-2.2,4.4c-2.4-0.8-5.2-2.4-6.4-2.2l2.1,4.4c3.6-2.2,1.9,5,2.1,6.5
					c-5.4,1.2-8.1-0.2-12.9,2.2c0.8,0.6,0,13.1,0,13.1c3.9,2.1,9.5,1.4,12.9,4.4c5.8,4.9,4.4,17.1,8.6,23.9c1.3,2.2,7.9,4.2,8.6,6.5
					c0.7,2.5-2.2,13.2-4.3,21.8c0-0.1,3-4.9,4.3-4.4c1.4,0.5,1.7,8.5,2.1,8.7c-1.4,1.1-4.8-0.9-6.5,0c0,0-6.1,12.6-6.4,13.1
					c-6.9,8.7-17.4,14.6-27.9,19.6c4,26.8,12,43.5,4.3,67.5c-1.1,0-5.4-0.8-6.4,0c-6.2,4.5-1.8,10.1-15,4.3
					c-1.7-0.8-14.2-13.4-15-15.2c-0.9-2.1,2.8-5.8,0-10.9c-0.6-1.1-8.5-4-8.6-4.3c-1.6-3.6,1.5-7.3,0-10.9c-6,0-0.1-7.2,0-6.5
					c-2.3-1.6-3.6-5.6,0-6.5c0.3-2.5,2.2-13.1,2.2-13.1c-0.3-0.1-5.1-5.1-2.2-6.5c3.6,2.4,0.9-5.9,0-6.5c-9.9-7.1-24.6-0.5-34.4-2.2
					c-3.8-0.7-11.4-9.3-15-10.9c-3.7-1.7-22.3-5.3-23.6-6.5c-3.6-3.3-0.7-11.9-4.3-15.2c-3.2-2.9-5.8-0.4-10.7-2.2
					c-2.4-0.9-8.5-7.8-10.7-8.7c-2.3-0.9-6.3,0.4-8.6,0c-2.8-0.5-6.9-5.8-8.6-6.5c-8.7-3.4-15.4,1.5-23.6,4.4
					c-2.3-11.8-8.9-27.8-15-41.4c-16.5-0.1-15,8.3-21.5-8.7l-4.3-4.3c-0.3-2,0.8-13.7,2.2-17.4c0.3-0.9,6-3.5,6.4-4.4
					c1.6-4.1-5.4-6-2.1-8.7c1-0.9,5,0,6.5,0c1.1-3.1-1.2-7.8,0-10.9c1.1-3.1,8.6-4.2,8.6-8.7v-2.2c1.4-0.7,7.7,1.2,8.6,0
					c1.1-1.6,0-8.9,0-10.9c4.5-2.6,2.4,1.3,4.3-4.3c2.1,0.5,4.7,4.2,8.6,2.2c1.3-0.7-4.3-4.4-4.3-4.4c4.9-2,5.8-3,8.6-4.4
					c0,0-8-1.1-4.3-2.2c6.6-2,6,3.5,12.9,2.2c2.2-0.5,6.2-5.4,8.6-6.5c-1.6-3.4,1.5-4.6,2.1-6.5c-4-1.9-4.1-3.1-6.4-4.3v-4.4
					c3.4,1,5,3,8.6,2.2c0.9-8.3,1.2-8.4,2.2-17.4c2.3-0.5,6.2,0,8.6,0c0.8-3.1-2.1-4.3,2.2-4.3c15.2-0.3,0.4,10.6,21.5,0
					c2.4-1.2,5-0.1,6.4-2.2c1.4-2.3-1.4-6.2-2.2-8.7c4-1.4,1-0.4,2.2-4.3c6,3.1,2.1-4.4,2.1-4.4c-13.6-1.2-25.5-2.2-45.1-2.2
					c15.6-4.9,8.5-1.8,12.9-13c4.2,0.5,1.2,0.9,2.2,4.3c20.3-0.8,22.5,0.8,36.5,10.9c1.2-2.4-1-4.1,0-6.5c0.3-0.8,5.6-3.8,6.5-4.4
					c-2-6.5-3.4-10.9-4.3-15.2c3.8,0,12.2-2.4,12.9-2.2c6,1.4,4.4,10.6,15,10.9c11.5,0.2,9.9-5,0-8.7v-4.4c5.4,2.2,2.6-3.2,6.4-2.2
					v4.4c3.6,2,5.6,2.1,8.6,4.4c2.6-2.6,5.5-9,8.6-10.9c2.1-1.4,4,0.9,6.4,0l2.1-4.3c12.3-4.8,13.1-3.3,23.6-8.7
					c0-2.9-1.1-8.4,0-10.9c-8.6-3.8-22.9-6.9-19.3-21.8c0,0,4.8-2.6,2.2-4.3c6.4,2.9,5.4-4,6.5-4.4c-13.6,3.7,1.9-12.1,2.1-13.1
					c0.8-5-3.1-3.3-2.1-6.5c-2.8,0.2-4.8,3.5-6.5,4.4c-1.3-2.3-4.6-0.5-6.4-2.2c-0.1-0.1-3.2-12.1-4.3-15.2
					c-15.4,1.1-18.9-0.8-36.5-2.2c2.2,8.9,7.1,20.1,10.7,28.3c-3.4,2.1-1-0.1-2.2,4.3c-1.4,0-7.6-0.9-8.6,0
					c-0.8,0.7-2.2,17.4-2.2,17.4h-4.3c-5.4,10.5-7,18.2-15,26.1c6.2,1.5-5.7,1.9-8.6,0c-3-2-2.1-7.9-4.3-10.9
					c-1.7-2.2-4.5-1.3-6.4-4.3c-0.4-0.5-7.5-10.2-6.4-10.9c5.9-4.4,8.2-14.4,10.7-21.8c0,0,5.6-1.4,2.1-2.2c-4.3-1.1-4.6-9-6.4-13.1
					c-5,2-7.8,3.2-12.9,4.4c-1,7.3-1.2,12.8-2.1,21.8c-2.6,0.9-5.6-0.1-6.4,2.2c-0.9,2.4,1.3,4.2,0,6.5c-0.7,0-6-0.5-6.4,0
					c-0.7-3.1,3-5.7,2.2-6.5c-5.5-5.4-5-20.6-8.6-23.9c-4.4-4.1-11.2-1.3-17.2-4.4l-6.4-8.7c-4,2.9,8.2-9.2,10.8-10.9
					c4.8-3.3-4.3-4.4-4.3-4.4c-0.6,1.1-1.3,3.9-2.2,4.4H591c2-1.8,1.3-7.4,2.1-10.9c3.4,0.5,9.5,3.4,12.9,4.4
					c0.7-2.2,0.3-6.3,2.2-6.5c-3.2-2-5.2,0.7-6.4,0v-4.3c-1.7-1-6.3-0.9-8.6-2.2c-2-1.2-4.5-7.6-6.4-8.7c-4.9-2.8-10.6-1.6-15.1-4.4
					v-4.4c-4.8-2.7-6-2-10.7-4.4v-4.4c-1.2,0.5-3,3-4.3,2.2c2.6-5.2,1.7-6.4,4.3-13.1h4.3c2.2-8.6-1.6-4.1-4.3-10.9l4.3-4.4
					c9.3-2.6,18.6-2.5,25.8-4.3c5.4-1.5,8.8,0.3,12.9-2.2c4.7-2.9,10-20,12.9-26.1c-4.2-0.4-9.7-2-10.7-2.2
					c-5.4-1.1-13.1,2.5-15,2.2v-4.4c-8.4-2.5-15.2-5.9-25.8-4.4c0,0-1.9,3.8-2.1,4.4c-2.8-0.2-9.7,0.4-17.2,0
					c-2.2,8,1.1,4.4-4.3,8.7c1.5,6.5,1.5,17.6,2.1,19.6c0.6,2.1,5.6,6.5,6.4,8.7c-0.3,0.1-4.6,2.9-4.3,4.4c0,0.1,6.5,4.4,6.5,4.4
					v13.1c-0.9,3.5-7.7,3.9-8.6,6.5c-0.9,2.3,1.3,4.4,0,6.5h4.3v4.4c-5.4,0-5-2.3-8.6-4.4c-2.5,8.6-10.3,18.4-2.1,26.1
					c-1.5,0.6-5,0-6.4,0c0.8,1.4-1.6,3.2-2.1,4.4c4.5,3.2,8.3,7.5,12.9,10.9c-4.8,0.5-9.5,7.7,2.1,6.5c-3,2.7,2.1,2.2,2.1,2.2
					c-2.2-1.2-1.8-8,0-8.7c2.2-0.9,4.4,1.4,6.5,0c11.8,16.9,11.3,12,30.1,4.4v4.4c-4,0.7-4.7,1.2-6.5,2.2h-2.1
					c-1.2,1.8,0,8.6,0,10.9c-2.2-0.3-6.6-2.2-6.5-2.2c-1.1,0.7-5.4,0-6.4,0c-0.5,6.2-1.7,8.9-2.2,17.4c4.4-1.1,6.9-2.9,10.7-2.2
					c-2,1,2,6.3,2.1,6.5c-3.6,0.8-7.1,0.2-10.7,2.2v2.2c-10.3,6.9-33.9,23.3-15.1,34.8c1.4,0.9-2.8,2.5-2.1,4.4
					c-3-2.1-7.7-4.3-10.7-6.5c-9.9-7.3-7.6-16-8.6-30.5c-2.6-0.4-2.3,1.2-4.3,2.2c3.7,2.9-2.2,2.2-2.2,2.2c-4.7-3.9-8-9.3-12.9-13.1
					c-0.5,3.5-8.9,13.4-2.2,19.6c-8.9,2.6-14.8,6.5-25.8,2.2l-2.2-4.3c-8.9-0.3-11.3,8.4-19.3,8.7l-2.1-4.3c-5.6-1.8-7.2,2.2-15-2.2
					c-2.4-1.4-5.5-8.2-8.6-8.7c-2.9-0.6-3.9,3.5-6.4,4.4v-2.2l-2.2,2.2c-9.1,3.2,0.3-4.7-2.1-6.5c-1.3-1-5.3-1-6.4-2.2
					c-3.2,1.6-0.7,3.4-6.5,4.3c-1.5-6-5-14-6.4-19.6c-15.5,0-24.5,0.5-38.7,2.2c-3.4,8.2-3,12.1-6.4,19.6c3-1.1,4.3-2.1,6.4-2.2
					c-4,2.1,4.3,2.2,4.3,2.2l-2.2-6.5c5-1.4,3.6,3.5,8.6,2.2c0.4-0.1,3.8-6,4.3-6.5c3.1,0.5,5.2,2.6,10.8,2.2
					c-8.9,6-18.9,13.3-27.9,19.6c0.8,3.5,4,7,4.3,8.7c0.8,5-2.9,3.1-2.1,6.5c0.1,0.5,3.8,2.4,4.3,4.4c6.4-1.4-0.9,4.9-2.2,2.2
					c-0.2,0.4-1.7,6-2.1,6.5c-0.9-1.8-5.6-2.6-6.4-4.3c-2.2-4-1.4-25.8-4.3-15.2c-1.1,3.7-1.4,3.6-2.2,6.5
					c-0.6-3.6-3.6-12.9-4.3-17.4c-1.6,0-7.3,0.9-8.6,0c-3-2.1-2.4-5.4-4.3-8.7c-2.8,1.9-8.2,7.7-10.7,8.7c-5.7,2.2,0.5-1.6-2.1-2.2
					c-8.7-1.9-28.7,11.1-43,6.5c-4.6-1.5-6.5-14.6,0-13c-1-2-2.8-1.8-2.2-4.4c4,0,9,0.8,12.9,0c-2.7-3.8-13.3-16.7-17.2-17.4
					c-15.5-2.9-3.4,8.4-19.3,6.5c-2.4-0.3-9.9-6.3-10.8-6.5c-5.3-1.8-10.9,0.6-15-2.2c-1.4-1-0.1-5.6-2.1-6.5c-5-2.2-3,2.6-6.4,2.2
					l-4.3-4.4c-10.5-4.2-29.6-17.8-45.1-13.1v4.4c-4.8,2.7-8.4,3.7-12.9,6.5c-2.6-8.8-4-16.8-4.3-21.8c-1,3.1-2.2,2.6-4.3,4.3
					c3.8,0-1.1,15-2.2,19.6h-4.3c-3.9-2.7-22.6-18.6-23.6-21.8v-4.3h-4.3v-2.2c-8.8-4.5-15.7-13.3-23.6-19.6c0,0-1.7,8-2.2,10.9
					c3.8,0,3,4.7,0,4.3c-1.2,2.2-5.4,14.6-6.4,15.2c-0.4,0.2-5.4-2.8-8.6-2.2c-10.1,1.8-9.4,9.9-12.9,19.6h-2.1
					c2.8-0.2-2.2-4.4-2.2-4.4c-1.6,0.7-4.1,3.7-6.5,4.4v-4.4c-2.8,1.7-11.5,4.6-12.9,6.5l-4.3,13.1c-2.6,2.1-6.2,0.1-8.6,2.2
					c-2.4-1.2,3-4.4-2.2-2.2c1-2.2,14.3-25.8,15-26.1c7.1-3.8,15.7-1.6,23.6-6.5c18.9-11.9,10.9-11.1-6.4-13.1
					c-2.5,4.9-2.3,7.9-4.3,13.1c-1.9-0.3-5.8-4.3-6.4-4.4c-1.6-0.2-19.1,6.1-19.3,6.5c-2,2.9,0.6,6.7-2.2,8.7c-2.1,1.4-7,1-8.6,2.2
					c-0.6-0.5,0-5.6,0-6.5c-5.6-2.8-4.8-0.9-8.6-4.4c-2.2,5.9,0.6,8.2-2.2,13.1c-1.9,3.1-2.1-2.2-2.1-2.2c-8-2.8-1.8,5.4-4.3,6.5
					c-2,0.7-9.3-1.5-12.9-2.2c0.7,2.8-1.9,4.5,2.2,4.4v2.2c3.9,1,2.2,0.7,4.3,2.2c4.2,3,0.9,6.3-4.3,4.4c0,0-1.9-6.3-2.2-6.5
					c-3.8-2.9-5.8-0.2-10.7-2.2l-2.1-4.4c-8.7-3.4-24.1-7.7-30.1-13.1c-0.4-0.4-1.8-4.3-2.1-4.4c-8.9-2-10.9,3.1-19.3,2.2
					c-4.2-0.5-8.4-2.7-13.2-5.1L-94,10.4c0,0,10.2-5.3,12.6-3.6c2.4,1.7,7.4,5.7,9.5,3.6c10.2-10.5,5.4,0.5,7.2,5.1
					c1.8,4.6,1.7,4.7,4.7,10c3,5.2,14.4,9.2,17.4,15c3,5.8-2.4,11,5.9,3.6c5.4-3.6,11.4-2.4,13.2-7.1c1.8-4.7-4.2-8.6-0.1-8.6
					c4.2,0,10.7-4.6,13.1,0C-8,33-0.3,32.5-0.3,36.5c0,4.1,0,7.5,6,8.1c6,0.6,10.1,7.6,13.1,11.6c3,4.1,14.3,14.5,17.9,19.7
					c3.6,5.2,3.6,12.2,9.5,15.1c6,2.9,1.6,13.1,7.6,16.1c6,2.9,5.6,2.3,10.1,5.7c3.7,2.8,6.1,0.4,7.8,5.7c1.8,5.2,1.4-0.7,5,1.6
					c3.6,2.3,1.2,8.7,4.2,9.3c3,0.6-3,4.1-1.8,7c1.2,2.9,1.2,4.1,0,6.4c-0.4,0.8-1.6,2.5-3.7,4.8c-0.2,0.7-1.3,1.9-0.2,2.5
					c-1.9,1.2-4.8,5.6-6.4,6.5c-1.6,0.8-2.4,0.8-2.7,0.3c0.3,1.4,2.1,6.3-1.6,4.1c-0.9,2.5-0.3,5.6-2.1,6.5l6.4,2.2
					c0,0-0.3,15.8,0,17.4c2,0.7,4.9,3.2,6.4,4.4c-8.4,4.2,2.1,2.2,2.1,2.2s5-6.9,0-4.3v-2.2c3.7-1.2,5.6,0.1,8.6-2.2
					c-1.5,3.5-1.2,5.3-2.2,10.9h-4.3c-1.7,5.8,3.2,2.4,2.2,6.5c4,0.5,1.5,2.9,2.1,6.5c4,1,1.6-2.2,2.2-4.4c1.9,1.2,14.5,7.8,15,8.7
					c0.8,1.4,0.3,19,0,26.1c-1.4,0-7.6-0.9-8.6,0c3.7,10.1,1.3,6.6,4.3,17.4c6.9,0.1,12.6-3.8,21.5,0c0.1,0,0,6.2,0,6.5l-2.1,2.2
					c5,0.6,5.8-2.6,8.6-2.2c2.6,0.3,10.1,8.6,12.9,10.9c0,0-0.4-5.7,2.2-2.2c3.4,4.8-1.1,10.1,4.3,13.1c8.8,4.8,18,1.6,24.1,2.5h2.2
					c-1.7-2.9-11.5-18.7-13.4-19.9c-5.7-3.6-12.4-2.4-17.2-6.5l-6.4-8.7c0.3-0.6,3.1-3.7,2.1-4.4l-15-2.2c-0.1-0.1,17.3-2.9,15-2.2
					c-5.9,1.8,4.1-4.3,4.3-4.4c6.6,14.6-1.5,6.6,15,13.1l2.1,4.4c0,0-5.4,2.7-2.1,4.4c3.4,1.7,6.8-3.4,8.6-4.4
					c2.1,1.8-2,5.8-2.2,6.5c4.8,3.9,10.3,4.7,12.9,10.9l377.6,1.5c0,0-0.4-6.7,3-6.7c3.4,0,6.5,12.9,6.5,12.9s2.2,1.7,6.7,1.7
					c4.5,0,9,5.7,9.5,2.3c0.6-3.4,5-5.1,7.3-3.4c2.2,1.7,6.7,5.7,10.1,5.7c3.4,0,4.9,1.4,8.6,0.8c3-0.5,4.2,0.3,8.2,0.9
					c3.9,0.6,5.6-2.3,7.8,0.6c2.2,2.8,4.5,2.8,6.2,3.4L628.4,294.8z"/>
				<text transform="matrix(1 0 0 1 259.7069 796.9922)" fill="#222222" font-family="'Helvetica-Bold'" font-size="44.2105">Mexico</text>
				<g>
					<text transform="matrix(1 0 0 1 497.205 488.126)" fill="#222222" font-family="'Helvetica-Bold'" font-size="44.2105">US</text>
				</g>
				<g>
					<text transform="matrix(1 0 0 1 270.119 166.8423)" fill="#222222" font-family="'Helvetica-Bold'" font-size="44.2105">Canada</text>
				</g>
				<ellipse opacity="0.8" fill="#FF944C" cx="460.4" cy="787.1" rx="31.7" ry="30.9"/>
				<ellipse opacity="0.8" fill="#D63333" cx="479.2" cy="157.5" rx="31.7" ry="30.9"/>
				<ellipse opacity="0.8" fill="#D63333" cx="453.7" cy="469.2" rx="31.7" ry="30.9"/>
			</g>
		</g>
	</g>
	<text transform="matrix(1 0 0 1 74.4051 1030.6172)"><tspan x="0" y="0" fill="#222222" font-family="'Helvetica'" font-size="50.5263">Tinder </tspan><tspan x="157.3" y="0" fill="#222222" font-family="'Helvetica-Bold'" font-size="56.8421">2</tspan></text>
	<text transform="matrix(1 0 0 1 374.3202 1030.6172)"><tspan x="0" y="0" fill="#222222" font-family="'Helvetica'" font-size="50.5263">Badoo </tspan><tspan x="160.1" y="0" fill="#222222" font-family="'Helvetica-Bold'" font-size="56.8421">1</tspan></text>
	<g>
		<path fill="#D63333" d="M60.3,1010.5c0,16.5-13.5,30-30,30s-30-13.5-30-30c0-16.5,13.5-30,30-30S60.3,994,60.3,1010.5z"/>
		
			<path fill="none" stroke="#FFFFFF" stroke-width="0.7857" stroke-linecap="round" stroke-linejoin="round" stroke-miterlimit="10" d="
			M60.3,1010.5c0,16.5-13.5,30-30,30s-30-13.5-30-30c0-16.5,13.5-30,30-30S60.3,994,60.3,1010.5z"/>
	</g>
	<g>
		<path fill="#FF944C" d="M358.9,1010.5c0,16.5-13.5,30-30,30s-30-13.5-30-30c0-16.5,13.5-30,30-30S358.9,994,358.9,1010.5z"/>
		
			<path fill="none" stroke="#FFFFFF" stroke-width="0.7857" stroke-linecap="round" stroke-linejoin="round" stroke-miterlimit="10" d="
			M358.9,1010.5c0,16.5-13.5,30-30,30s-30-13.5-30-30c0-16.5,13.5-30,30-30S358.9,994,358.9,1010.5z"/>
	</g>
</g>
</svg>
