<?xml version="1.0" encoding="utf-8"?>
<!-- Generator: Adobe Illustrator 18.0.0, SVG Export Plug-In . SVG Version: 6.00 Build 0)  -->
<!DOCTYPE svg PUBLIC "-//W3C//DTD SVG 1.1//EN" "http://www.w3.org/Graphics/SVG/1.1/DTD/svg11.dtd">
<svg version="1.1" id="Layer_1" xmlns="http://www.w3.org/2000/svg" xmlns:xlink="http://www.w3.org/1999/xlink" x="0px" y="0px"
	 viewBox="0 0 1248 785" enable-background="new 0 0 1248 785" xml:space="preserve">
<g>
	<text transform="matrix(1 0 0 1 57.2844 757.577)"><tspan x="0" y="0" fill="#222222" font-family="'Helvetica'" font-size="36">Tinder </tspan><tspan x="112" y="0" fill="#222222" font-family="'Helvetica-Bold'" font-size="40">2</tspan></text>
	<text transform="matrix(1 0 0 1 291.1945 757.577)"><tspan x="0" y="0" fill="#222222" font-family="'Helvetica'" font-size="36">Badoo </tspan><tspan x="114.1" y="0" fill="#222222" font-family="'Helvetica-Bold'" font-size="40">1</tspan></text>
	<g>
		<path fill="#D63333" d="M38,742.9c0,10.5-8.5,19-19,19s-19-8.5-19-19s8.5-19,19-19S38,732.4,38,742.9z"/>
		
			<path fill="none" stroke="#FFFFFF" stroke-width="0.4997" stroke-linecap="round" stroke-linejoin="round" stroke-miterlimit="10" d="
			M38,742.9c0,10.5-8.5,19-19,19s-19-8.5-19-19s8.5-19,19-19S38,732.4,38,742.9z"/>
	</g>
	<g>
		<path fill="#FF944C" d="M278.3,742.9c0,10.5-8.5,19-19,19c-10.4,0-19-8.5-19-19s8.6-19,19-19C269.7,723.9,278.3,732.4,278.3,742.9
			z"/>
		
			<path fill="none" stroke="#FFFFFF" stroke-width="0.4997" stroke-linecap="round" stroke-linejoin="round" stroke-miterlimit="10" d="
			M278.3,742.9c0,10.5-8.5,19-19,19c-10.4,0-19-8.5-19-19s8.6-19,19-19C269.7,723.9,278.3,732.4,278.3,742.9z"/>
	</g>
	<g>
		<g>
			<defs>
				<rect id="SVGID_1_" x="0" y="0" width="1248" height="702"/>
			</defs>
			<clipPath id="SVGID_2_">
				<use xlink:href="#SVGID_1_"  overflow="visible"/>
			</clipPath>
			<g clip-path="url(#SVGID_2_)">
				
					<path fill="#EDEDED" stroke="#FFFFFF" stroke-width="0.9993" stroke-linecap="round" stroke-linejoin="round" stroke-miterlimit="10" d="
					M958.6,672.9c-5.7-1.6-10.2,0.4-15.9,0.6c0,0-3.3,1.2-4,1.3c1.1-0.4,0.8-2.6,1.3-4c3.1,0,6.1,0.6,9.3,0c0.7-3.5-0.2-4.9,1.3-8
					c4.2,0.5-1.3-2.7-1.3-2.7c-3.6-0.5-1.8,1.9-5.3,1.3v-2.7c-3.4-1.3-1.9,2.6-5.3,1.3v-2.7c-2.2,1.1-2.1-3-2.7-4
					c3.3-1.3,3.3-1.3,5.3-2.7c-4.6,0-10,0-14.6,0c0,0,3.4,2.7,2.7,2.7c-2.4-0.1-4.4-1.6-5.3-1.3c-0.2,0-2.5,4-2.7,4
					c-5.6,1-10.8-0.9-14.6-1.3v-2.7c-6.1-1.1-13.8,2.8-18.6,4c-1-5.2-1.8-10.7-9.3-12.1c-1.3-0.3-4.3,0.7-5.3,0c-0.2-0.2,0-3.7,0-4
					c-0.5-0.2-3.4-0.9-4-1.3c0.4,0.8,0,3.2,0,4c3-0.1,2.5,3,4,4c-5.5,1.4-8.2,1.1-13.2,2.7c0.5,2.5-0.8,5.5,0,8.1
					c0.1,0.4,10.3,10.9,2.6,12.1c-8.8,1.3-6.7-5.6-7.9-12.1c1.6-0.6,3.4,0,4-1.3c0.5-1.6-0.8-2.6,0-4h-2.7c-0.1,0,1.2-2.4,1.3-2.7
					c-1.1-0.4-2.7-0.7-4-1.3c0-0.5,0-0.9,0-1.3c2.8-2.3,4.9-3,7.9-5.4c-0.4-0.7-0.9-1.8-1.6-3.2c-1.7,1.1-4.5,2.8-4.5,2.8l-5.3,4.4
					l-3.1,8.7l-3.8,1.4c0,0,1.4,3.5,0,6.3c-1.4,2.8,0.7,2.8-1.4,7.3c-2.1,4.5,1,3.5,1,3.5l3.5-0.7l3.8,8c0,0-2.1,0-1.7,2.5
					c0.3,2.4,1.7,3.1,3.5,5.9c1.7,2.8,1.4,5.2,1.4,5.2l6.2,1.4c0,0,4.8,0.7,7.3,0c2.4-0.7,4.5-0.3,5.5,1.8c1,2.1,4.1,7,4.1,7
					s4.1-0.3,6.6-0.3c2.4,0,5.5,1,5.5,1l-0.7,5.2c0,0-2.4,1.4-1.7,4.9c0.7,3.5,4.5,4.9,4.8,6.6c0.3,1.7,3.1,3.8,4.5,5.6
					c1.4,1.8,8.3,5.2,8.3,5.2s-1.7,4.5-2.1,6.6c-0.3,2.1-3.8,4.2-3.8,4.2s-1,5.6,1.4,3.8c2.4-1.8,1.4,0.4,2.1,2.4
					c0.7,2.1,2.1,3.8,2.1,3.8l-0.7,5.2l4.5,3.1c0,0,3.1-2.8,5.5-2.8c2.4,0,2.8-4.2,4.8-4.2c2.1,0,2.8-2.1,4.5-2.1
					c1.7,0,2.8-5.6,4.8-5.6c2.1,0,3.1-1.4,3.1-1.4s-0.7-3.5-3.1-2.8c-2.4,0.7-4.8,2.1-6.2,1.1c-1.4-1.1-2.8-1.4-3.4-3.5
					c-0.7-2.1,1.4-5.9,1-7.3c-0.3-1.4-0.7-2.1-2.4-4.5c-1.7-2.4,0-4.2-1.7-4.9c-1.7-0.7-2.4-1.8,1-1.4c3.5,0.3,6.2,2.1,6.2,2.1
					s4.1,0,5.5,1.4c1.4,1.4,5.5,1.4,5.5,1.4s-2.1-0.7-1-2.4c1-1.8,2.8-1.4,2.8-1.4s2.4,0.7,4.8,0.7c2.4,0,1.7-2.1,3.8-2.4
					c2.1-0.4,2.1-3.8,3.8-3.8s4.1-0.7,4.1-0.7l1-2.8l-0.3-2.8l-7.6-11.9l3.5-1.7c0,0-1.7-3.8,0.3-3.8c2.1,0,7.6-0.7,7.6-2.8
					s-3.1-2.4-3.1-2.4s-0.7-3.9-2.1-4.2c-1.4-0.3-2.1-3.5-0.3-3.5c1.7,0,4.5-0.7,6.6-2.1c2.1-1.4,1.7-2.3,1.7-2.3L958.6,672.9z"/>
				
					<path fill="#EDEDED" stroke="#FFFFFF" stroke-width="0.9993" stroke-linecap="round" stroke-linejoin="round" stroke-miterlimit="10" d="
					M948.1,648.1c1.4,1-1.1,6,1.3,6.7c4.4,1.3,2.1-4.1,2.6-6.7C951,648.1,948.8,648.4,948.1,648.1z"/>
				
					<path fill="#EDEDED" stroke="#FFFFFF" stroke-width="0.9993" stroke-linecap="round" stroke-linejoin="round" stroke-miterlimit="10" d="
					M985,701c-1.4,1.8-3.6,4.7-3.9,5.7c-0.3,1.4,0,3.1-0.3,5.2c-0.3,2.1-2.8,2.8-4.5,4.2c-1.7,1.4,1.4,4.2,1,6.3
					c-0.3,2.1,1.1,5.5,1.1,5.5s1,1.1,2.4,2.1c1.4,1,0,5.6,0,5.6l4.8,8.8l3.5,4.8l4.3-0.7v2.1l2.4-3.8l-3.1-2.1l1.4-4.9l3.2,2.1
					l2.4-1.7l1.4,2.1h4.1c0,0,2.1-3.1,3.5-6.3c1.4-3.1,1.7-7.3,1.7-7.3s-4.8-4.2-4.8-7.3c0-3.1-0.3-11.2-0.3-11.2l3.7-7.1
					c-0.1,0,0-3.9,0-4c-9.3-1.3-11.3-0.2-22.5-1.3c-0.5,2.5,1,3.1-1.3,4L985,701z"/>
				
					<path fill="#EDEDED" stroke="#FFFFFF" stroke-width="0.9993" stroke-linecap="round" stroke-linejoin="round" stroke-miterlimit="10" d="
					M900.4,564.9l1.3,5.4c2.4-0.5,5.4,0,7.9,0c0.1-0.2,1.3-2.7,1.3-2.7C916,566.8,903.2,565.1,900.4,564.9z"/>
				
					<path fill="#EDEDED" stroke="#FFFFFF" stroke-width="0.9993" stroke-linecap="round" stroke-linejoin="round" stroke-miterlimit="10" d="
					M824.1,768.2l-3.1,2.5l2.8,1.7c0,0,0.3,2.4,1,5.6c0.7,3.1,0.3,6.3,0.3,6.3h-1.7c0,0,0.7,6.6-6.2,10.8c-6.9,4.2-9.7,5.6-11,7.3
					c-1.4,1.8-1.7,2.7-3.4,4.9c-2.1,2.8-3.8,4.2-5.6,9.8c-0.9,3-4.8,4.6-4.8,4.6s-1.7,1-2.4-1.7c-0.7-2.8-2.4-5.2-2.4-5.2
					s-1.7,2.4-3.5,2.4c-1.7,0-3.8-2.8-3.8-2.8l3.8-2.8l-1-1.8l-0.8-2.3l-0.9,0.7c-2.6,2.4-5.2,5.2-5.5,7.6c-0.4,2.3,2.6,6.7,2.6,6.7
					c-0.5,0.2-3.1,1.1-1.3,2.7c0.2,0.3,2.6,1.3,2.7,1.3c0.4,3.3-2.4,4.3-1.3,6.7c0.8,1.8,7.9,5.1,9.3,6.7c1.5,1.8,1.1,4.8,2.7,6.7
					c1,1.2,4.1,1.5,5.3,2.7c1.5,1.5,1.3,4.9,2.6,6.7c1.1,1.6,4.2,2.4,5.3,4c4.5,6.7,4.3,13.6,6.6,22.8c1.8,7.5,14.8,28.2,13.2,34.9
					l-1.3,2.7c0.8,1.4,4.6,4,5.3,5.4c1.7,3.4,0.5,5.5,2.7,8.1c1.2,1.5,7.4,3.9,9.3,5.4c1,0.7,1.6,3.4,2.6,4
					c8.6,5.4,18.4,9.3,24.5,17.2l0.3,0.3c0,0,2.2-2.2,2.9-4.3c0.7-2.1,4.9-4.6,4.9-4.6s3.7-5.7,5.1-7.8c1-1.5,0.5-3.2,0.1-4
					c-1.1-0.3-5.5-1.9-5.9-2.1c0.1-0.3,1.6-2.6,1.3-2.7c-1.7-0.5-2.1-3.5,0-2.7c1.4,0.6,2.2,1.3,3,2.1c-0.1-0.8-0.4-1.8-0.9-2.5
					c-1-1.4,0.7-3.5,0.7-3.5s-1.4-2.8-2.4-5.2c-1-2.4,0.7-7.3,0.7-7.3l2.4-6.6l-5.5-11.2l-9.7-3.1l1.7-26.2c0,0,0.7-3.8-1.4-2.1
					c-2.1,1.8-6.6,4.2-6.6,4.2h-7.9c0,0-1.7-1.8-1.7-3.8c0-2.1-5.2-3.5-5.9-5.9c-0.7-2.4-5.2-4.2-5.2-4.2l1.4-4.2c0,0,0-4.2-1.4-4.5
					c-1.4-0.4-1.4-4.6-1.7-6.3c-0.3-1.7,3.8,0,3.8,0s-0.3-2.1,0-4.5c0.3-2.4,1.4-3.5,2.8-5.9c1.4-2.4,1-5.6,2.1-7.7
					c1-2.1,5.2-3.5,7.3-5.6c2.1-2.1,5.5-2.4,7.6-3.1c2.1-0.7,4.5-0.7,6.9-0.7c2.4,0,2.8-3.1,2.8-3.1l-2.8-1.7H861l8.6-16.8
					c0,0-1.7-2.8-4.1-2.8c-2.4,0-5.5-0.7-6.6-2.1c-1-1.4-6.2-1.1-6.2-1.1l-0.7,2.8c0,0-3.1-1.4-4.8-1.4c-1.7,0-2.8-3.1-2.8-3.1
					l-0.3-3.1l-4.8-0.3c0,0-4.5-2.4-4.1-3.8c0.3-1.4-2.1-4.9-3.8-4.9c-1.7,0-1.7-4.5-1.7-4.5H824.1z"/>
				
					<path fill="#EDEDED" stroke="#FFFFFF" stroke-width="1.9973" stroke-linecap="round" stroke-linejoin="round" stroke-miterlimit="10" d="
					M766,659.7l-2,0.8l-1.7-0.4c0,0,0.6,2.4-0.3,4.3c-1.3,2.8,2,4.1,1.7,5.9c-0.3,1.7-1.1,4.6-1.1,4.6c4.3,0.6,6.9-1.6,11.9,1.3
					c0.2,0.1,0,3.7,0,4c1.4,0.7,3.8-0.7,5.3,0v2.7c4.2,0.6,5.1,1.7,9.3,1.3c2.3-0.2-2.6-1.3-2.6-1.3c-0.4,1.7-2.9,0.2,1.3-1.3
					c-0.5-1.4-1.5-3.4-1.3-4h-2.7v-2.7c2.4-1.3,4.9-2.9,6.6-4c-3.1,1.5,1.3-2.7,1.3-2.7c0.7,0.5,2-1,2.7-1.3c2,3,3.2,6,5.3,9.4
					c1.4-0.4,5.2-1.4,5.3-1.3c-0.5,1.4-1.3,2.5-1.3,2.7c0,0-1.2,6.7-1.3,8.1c1.4,0.8,2.4,3.6,4,4c1,0.2,2.9-0.5,4,0l1-2.6
					c0,0,2.1-2,2.1-4.5c0-2.4-2.1-3.6-2.1-3.6l0.5-3.8c-4.8-3.9-8.8-8.1-12.2-13.7c-2.6,0.1-7.4-1.5-8-1.3c0,0-1,3.9-1.3,4
					c-6.2,2.6-8.6,1.5-14.6,4c-1.3-1-0.4-2.6-2.7-2.7c0,0-2.3,2.5-4,1.3C768.8,666.6,767.3,662.9,766,659.7z M773.1,683l1.3,2.7
					C776.8,686.8,774.1,683.4,773.1,683z"/>
				
					<path fill="#EDEDED" stroke="#FFFFFF" stroke-width="1.9973" stroke-linecap="round" stroke-linejoin="round" stroke-miterlimit="10" d="
					M739.8,640.1c-1.8-3.1-4-7.8,0.2-6.7c3.4,0.9,5.4,6.1,7.2,9.5c1.7-0.7,3.6-0.3,3.6-0.3s0.7,2.1,2.8,2.1c2.1,0,2-0.1,2-0.1
					c-0.5-0.7-0.7-1.1-1-1.9l6.3-39.8l-6.6,1c0,0-3.5,2.4-3.5,3.8c0,1.4-3.8,1.7-5.9,2.4c-2.1,0.7-3.8,1.8-4.5,0.4
					c-0.7-1.4-2.4-1.8-4.8-1.1c-2.4,0.7-6.6,2.8-6.6,2.8s1,5.6,0,8c-0.7,1.6-2.1,1.7-2.9,1.6c0.3,1.7-1.5,1.2-0.8,3.3
					c0.4,1.1,4.6,3.1,5.3,4c1.7,2.6,1,5.3,2.7,8.1c0.7,1.3,3,1.5,3.8,2.4C737.9,639.6,738.8,639.6,739.8,640.1z M733.4,627.9
					c3.4,0.3,3.7,3.3,0,2.7C733.4,630.6,729.9,627.6,733.4,627.9z"/>
				
					<path fill="#EDEDED" stroke="#FFFFFF" stroke-width="0.9993" stroke-linecap="round" stroke-linejoin="round" stroke-miterlimit="10" d="
					M802.3,562.2c0.1,0-2.6,3.9-2.7,4c3.6,2,5.8,2.1,9.3,4c0,0.5,0,0.9,0,1.3c6.8,1.3,15.6-6.2,6.6-5.4v-2.7
					C811.4,561.6,806.8,562.9,802.3,562.2z"/>
				
					<path fill="#EDEDED" stroke="#FFFFFF" stroke-width="0.9993" stroke-linecap="round" stroke-linejoin="round" stroke-miterlimit="10" d="
					M761.2,601.1c0,0-6.3-1.1-6.6-1.3c-1.2-1.1-2.2-5.2-2.7-6.7c-2.7-0.3-9.9-2.7-11.9-2.7c-3.6,0-8.6,3.7-10.6,4
					c-4.2,0.5-9.6,0.1-13.7,0l0,0.5c0,0,0,1-2.8,1.3c-2.8,0.3-3.4,1-3.4,3.5c0,2.4-2.1,5.6-2.1,5.6s6.2,1.4,8.3,2.8
					c2.1,1.4,1.7,2.1,4.8,2.5c3.1,0.3,3.8,1.7,3.8,1.7l-0.2,6.2l2-0.5v3.9c0.8,0.2,2.3,0.2,3.1-1.5c1-2.4,0-8,0-8s4.1-2.1,6.6-2.8
					c2.4-0.7,4.1-0.3,4.8,1.1c0.7,1.4,2.4,0.3,4.5-0.4c2.1-0.7,5.9-1,5.9-2.4c0-1.4,3.5-3.8,3.5-3.8l6.5-0.8L761.2,601.1z"/>
				
					<path fill="#EDEDED" stroke="#FFFFFF" stroke-width="1.9973" stroke-linecap="round" stroke-linejoin="round" stroke-miterlimit="10" d="
					M135.7,548.8c-0.3,1.9-1.5,1.8-2.6,2.7c0.7,1.4-0.5,3.9,0,5.4c0.2,0.6,2.2,1.3,2.6,2.7c0.5-0.3,2.3,0.8,1.3-1.3
					c1.9-1.2,3.8-3.1,5.3-4c-1.9-1.8-1.5-2.6-2.6-5.4C139.4,548.8,135.9,549,135.7,548.8z M129.1,536.7c0,0,1,3.9,1.3,4
					C133.4,541.4,133.5,537.2,129.1,536.7z M115.9,527.3c0,0-6.1,1.9,1.3,4v1.3C119.5,533.7,116.5,527.9,115.9,527.3z M100,523.3
					c0.2,0-1.2,2.4-1.3,2.7c1,0.3,2.8,0.6,4,1.3C100.4,525.5,104.9,523.1,100,523.3z"/>
				
					<path fill="#EDEDED" stroke="#FFFFFF" stroke-width="0.9993" stroke-linecap="round" stroke-linejoin="round" stroke-miterlimit="10" d="
					M860,567.6c0,0-0.4-2.5-0.8-3.9c-0.3-1.4-1.9-2.8-1.9-2.8l0.5-1.4l0.7-2.8l-0.6-6.6c-3.1,0.3-7,0.6-10.6,0
					c1.2,1.1,1.3,0.8,4,1.3c-0.4,1.2-1.5,3.6-1.3,4c0.2,0.4,1,2.1,1.3,4c4-1.1,1.3,5.4,1.3,5.4c-1.9-0.4-9.5-1.4-9.3-1.3
					c-3.1-0.5-4.3-1.7-6.6-2.7c0,0-1,4.1-1.3,5.4c0,0,4.6,1.3,2.6,1.3C845.2,567.4,850.3,567.6,860,567.6z"/>
				
					<path fill="#EDEDED" stroke="#FFFFFF" stroke-width="0.9993" stroke-linecap="round" stroke-linejoin="round" stroke-miterlimit="10" d="
					M984.9,701c-0.8-2.7,0.8-5.5-1-7.3c-0.7-0.7-3.1,0.3-4,0c-0.5-0.2-2.4-3.6-2.7-4c-2.9,0.5-2.5,1.6-5.3,1.3c0,0.7,0.4,5,0,5.4
					c-0.6,0.5-0.4-3.3-2.2-1.7c2.8-5.8,0.4-5.9,2.2-13.1c-1.4-0.9-2.5,0.7-4,0v-2.7c-0.7-0.3-3.1-0.7-4-1.3c-0.9-0.7-1.7-3.6-2.7-4
					c-1.7-0.7-1.4-0.4-2.8-0.6l-0.3,3.4c0,0,0.4,0.9-1.7,2.3c-2.1,1.4-4.8,2.1-6.6,2.1c-1.7,0-1,3.2,0.3,3.5
					c1.4,0.3,2.1,4.2,2.1,4.2s3.1,0.3,3.1,2.4s-5.5,2.8-7.6,2.8c-2.1,0-0.3,3.8-0.3,3.8l-3.5,1.7l7.6,11.9c0,0,4.8,2.1,6.6,1.4
					c1.7-0.7,2.1,2.4,2.1,2.4l-2.8,2.8c0,0,3.1,1.7,4.5,2.1c1.4,0.3-1.4,2.1,0,3.8c1.4,1.8,1.7,2.1,0,3.8c-1.7,1.7-4.8,3.5-4.8,3.5
					s0.7,10.8-0.3,13.6c-1,2.8,1.4,4.2,2.4,5.6c1,1.4,4.1,1.8,4.1,3.5c0,1.8,2.1,2.8,3.4,2.8c1.4,0,2.1-3.9,3.8-3.1
					c1.7,0.7,0.7-3.1,2.8-2.8c2.1,0.4,6.6-3.1,9-1.7c2.4,1.4,6.6,0.3,6.6,0.3l-3.5-4.8l-4.8-8.8c0,0,1.4-4.5,0-5.6
					c-1.4-1.1-2.4-2.1-2.4-2.1s-1.4-3.4-1.1-5.5c0.3-2.1-2.8-4.9-1-6.3c1.7-1.4,4.1-2.1,4.5-4.2c0.3-2.1,0-3.8,0.3-5.2
					C981.3,705.8,983.5,702.8,984.9,701z"/>
				
					<path fill="#EDEDED" stroke="#FFFFFF" stroke-width="0.9993" stroke-linecap="round" stroke-linejoin="round" stroke-miterlimit="10" d="
					M712.2,594.4h3.5c0,0,0.4,1.8-2.8,1.9c-2.8,0.4-3.4,1-3.4,3.5c0,2.4-2.1,5.6-2.1,5.6s-4.5,2.4-4.1,4.9c0.3,2.3-4,0.7-4.3,2.5
					c-2-0.5-2.5,1-4,0.6c-4.8-1.7-12.1-10.6-15.6-14.4c0,0,3.1-3,1.7-4.3c-1.4-1.4,5.2-8.4,5.2-8.4l10.4,0.4c0,0,0-3.8-2.1-5.2
					c-2.1-1.4-4.5-5.6-4.5-5.6l-0.3-3.1h3.1l1-4.5h14.8l0,23.5l4.7,0L712.2,594.4z"/>
				
					<path fill="#EDEDED" stroke="#FFFFFF" stroke-width="1.9973" stroke-linecap="round" stroke-linejoin="round" stroke-miterlimit="10" d="
					M1097.8,48.3c0,0,1,3.9,1.3,4C1102.2,53,1102.1,48.8,1097.8,48.3z M1156.1-45.7c7.4-2.4,0.6,3.9,0,4
					C1153.7-41.4,1154.5-45.2,1156.1-45.7z M1100.5-302c1.4,0.4,2.4,3.2,0,2.7C1100.5-299.3,1096.6-303,1100.5-302z M1191.9-310
					c5.2-1.3,0.6,3.9,0,4C1188.7-305.2,1189.2-309.4,1191.9-310z M1050.1-53.7l-1.3,4c-1.9,0.1-8.3,2-4-1.3
					C1046.3-52.3,1048.5-52.6,1050.1-53.7z M1039.5-67.1c6.3-2.9,0.3,7.1,0,8.1c-8-1.5-10.6-1.2-18.6-2.7c1.5-0.3,7.1-3.2,9.3-2.7
					c0.7,0.2,0.9,2.5,2.7,2.7c-2.3,1.3,5.1,1.3,5.3,1.3c0-0.8-0.5-6.5,0-6.7H1039.5z M1247.5-110.1c4.4-0.3,1.3,2.7,1.3,2.7
					C1248.5-107.7,1243.7-109.9,1247.5-110.1z M1238.3-120.8c0.2,0,0,4.9,0,5.4c4.1-0.5,10.9-0.2,14.6,0c-6.9,0.5-10,0.4-15.9,1.3
					C1237.9-114.6,1233.1-121.8,1238.3-120.8z M1015.6-130.2c0,0,1.2,4,1.3,4C1021.6-124.8,1018.7-129.5,1015.6-130.2z M1286-147.7
					c2.7,0.5,5.9,3.8,1.3,2.7C1287.3-145,1281.7-148.5,1286-147.7z M1268.8-154.4c1.7-0.2,1.9,2.4,2.6,2.7c2.4,0.8,5.4-0.6,8,0
					c-1.1,0.8-0.5,3-2.7,2.7c0.5,0.3,4.5,2,1.3,2.7c0,0.2-0.1,4,0,4c-2-0.4-16.2-3.7-6.6-2.7c-0.1-0.2-2.6-3.4-1.3-4
					c-2.9,0.5-3.9-1.6-5.3-1.3c0,0-9.2,5.6-2.7,1.3C1263.4-149.9,1267.2-154.2,1268.8-154.4z M1272.7-167.8c1.7-0.6,1.8,1,0,1.3
					c-1.9,0.3,1.3,2.7,1.3,2.7c-2.8,1.4-6.2,3.9-9.3,5.4c0.1,0.2,1.7,2.6,1.3,2.7c-2.8,0.7-6.3-2.9-10.6-1.3
					c-0.6,0.2-1.2,2.3-2.6,2.7c0.2,0.1,0,3.7,0,4c0.7,0,3.3-0.5,4,0c1.3,0.9,1.3,3.1,2.7,4c-1.5-0.8-2.5,0.7-4,0v-2.7
					c-1.5-0.8-2.5,0.7-4,0c-0.5-0.3-2.1-5-2.7-5.4c2.1-0.8,2.3-1.1,4-1.3c-0.4-0.8-1.8-1.7-1.3-2.7c2.6,0,6.8,0.9,9.3,0v-1.3
					c2-1.2,2.9-0.6,5.3-1.3v-2.7c1.4-0.6,3.9,0.7,5.3,0C1273.1-164.7,1269.8-166.8,1272.7-167.8z M986.5-182.5
					c-1.9,0.4-6.6,4.3,0,2.7C987.2-180,991.6-183.8,986.5-182.5z M1307.2-189.3c0,0,0,3.8,0,4c0.3-0.1,3.6,0.9,5.3,1.3
					c-0.3-0.2,0-3.7,0-4C1310.6-188.7,1310.4-187,1307.2-189.3z M1290-194.6c6.3,0-1.3,5.4-1.3,5.4
					C1288.8-191.3,1287.5-194.6,1290-194.6z M1320.4-201.3c-1.3,3-1.2,1.1-4,2.7c0.8,0.7,0,6.8,0,8.1c1.7-0.2,8.6-1.2,8-1.3
					c5.3-2.6,7.1-3.2,0-2.7C1323.4-196.8,1321.7-199.4,1320.4-201.3z M1313.8-216.1c0.7,1.8,3.4,11,4,8.1v-2.7
					C1317.4-212,1314.2-215,1313.8-216.1z M855.3-233.5l2.6,2.7C857.9-230.9,860.2-233.5,855.3-233.5z M1309.8-283.2v2.7
					C1314.2-279.4,1311.7-282.8,1309.8-283.2z M1308.5-316.7l1.3,5.4C1309.6-313.4,1310.9-316.7,1308.5-316.7z M1017-320.8
					c7.5,9.4,9,8.6,22.5,12.1c-0.1-0.1-2.8-4-2.6-4C1029.5-315.6,1024.3-317.9,1017-320.8z M1111.1-330.2c1.3,1.9,3.4,2.7,5.3,4
					c-1.3,0.6,0.4,7.9-1.3,1.3c-1.5-0.3-2.1-2.5-2.7-2.7C1107.7-329.1,1098.4-326.8,1111.1-330.2z M1172-334.2
					c2.6-0.5,7.2,1.8,4,1.3c0.6,0.1-2.2-0.1-4,0v2.7C1169.7-330.1,1170.1-333.8,1172-334.2z M1217.1-338.2c8.9-1,21.2,1,27.8,1.3
					c-13.9,0.5-26.3,1.1-39.8,2.7C1207.6-334.7,1213.8-337.8,1217.1-338.2z M1187.9-340.9c1.3,0,2.3,4.4,2.6,5.4
					c3.1-0.2,6.1-1.8,10.6-1.3c9.2,0.9-10.6,4.2-11.9,4C1184.1-333.5,1186.2-341,1187.9-340.9z"/>
				
					<path fill="#EDEDED" stroke="#FFFFFF" stroke-width="0.9993" stroke-linecap="round" stroke-linejoin="round" stroke-miterlimit="10" d="
					M1009,703.1l-3.7,7.1c0,0,0.3,8,0.3,11.2c0,3.1,4.8,7.3,4.8,7.3s-0.3,4.2-1.7,7.3c-1.4,3.2-3.5,6.3-3.5,6.3s0.7,3.5,2.8,4.9
					c2.1,1.4,4.8-1.7,4.8-1.7l4.7-0.5l3.2,2.3c0,0,5.2-5.6,5.5-7.3c0.3-1.8,1.4-9.8,1.4-9.8l1.7-5.6c0,0,0.8-2.2,2-4.9
					c0.1-1.1,0.6-2.5,0.1-3.1c-1.1-1.3-4.3-1.4-5.3-2.7c-1.7-2.1-2.1-6.5-4-8.1c-0.8-0.7-4.7-2.5-5.3-2.7
					C1013.2,701.8,1011.9,704.2,1009,703.1z"/>
				
					<path fill="#EDEDED" stroke="#FFFFFF" stroke-width="0.9993" stroke-linecap="round" stroke-linejoin="round" stroke-miterlimit="10" d="
					M700.3,613.2l4,5.4c3.1,1,7.3-0.6,10.6,0c1.4,0.3,4.1,3.1,6.6,2.7c0.9-0.2-0.1-1.4,2.5-1.9l0.3-7.1c0,0-0.7-1.4-3.8-1.7
					c-3.1-0.4-2.8-1.1-4.8-2.5c-2.1-1.4-8.3-2.8-8.3-2.8s-4.5,2.4-4.1,4.9c0.3,2.3-3.9,0.8-4.3,2.4
					C699.9,612.7,700.3,613.2,700.3,613.2z"/>
				
					<path fill="#EDEDED" stroke="#FFFFFF" stroke-width="1.9973" stroke-linecap="round" stroke-linejoin="round" stroke-miterlimit="10" d="
					M782.1,807.5l0.9,2.3l1,1.8l-3.8,2.8c0,0,2.1,2.8,3.8,2.8c1.7,0,3.5-2.4,3.5-2.4s1.7,2.4,2.4,5.2c0.7,2.8,2.4,1.7,2.4,1.7
					s3.9-1.6,4.8-4.6c1.8-5.5,3.4-7,5.6-9.8c1.7-2.2,2-3.2,3.4-4.9c1.4-1.8,4.1-3.2,11-7.3c6.9-4.2,6.2-10.8,6.2-10.8h1.7
					c0,0,0.3-3.1-0.3-6.3c-0.7-3.1-1-5.6-1-5.6l-2.8-1.7l3.4-2.7c0,0-5.1-1.5-6.1-3.6c-1-2.1-2.4,0.7-2.4,0.7l-7.9-1.8
					c0,0-2.1-1.4-2.4-3.1c-0.3-1.7-2-3.6-2-3.6s-3.3-0.9-5.3-2.3c-2.1-1.4-2.6-4-2.6-4c-3.2,2.2-5.9,4.3-9.1,6.6
					c5.5,5.1-2.4,11-2.7,12.1c-1,4.1,2.2,5,1.3,8c-0.4,1.1-4.3,3.1-5.3,4c0,0,1,2.9,2.7,1.3l-1.3,4c-0.3-1-1.9,6.4,1.3,5.4
					c-0.6,1-2,5-2.7,5.4c1.4,0.9,5.9,1.4,6.6,2.7c0.7,1.1-1.4,1.7,0,4C785.2,804.8,784.1,805.7,782.1,807.5z M789,797v2.7
					C784.6,800.8,787.1,797.4,789,797z M679.1,764.8c0.6,2.6,1.3,9.4,1.3,9.4c-0.7,0.3,1,3.1-1.3,1.3c-2,1,1.3,2.7,1.3,2.7
					C686.8,771.9,682.4,771.6,679.1,764.8z"/>
				
					<path fill="#EDEDED" stroke="#FFFFFF" stroke-width="0.9993" stroke-linecap="round" stroke-linejoin="round" stroke-miterlimit="10" d="
					M858,550l0.6,6.6l-0.7,2.8l-0.5,1.4c0,0,1.6,1.4,1.9,2.8c0.3,1.4,0.8,3.9,0.8,3.9l0.6,0c1.4,2.7-0.3,2.7,2.6,4
					c0.3-1.9,1.5-1.8,2.7-2.7c-0.7-2.1-1.9-3.2-1.3-5.4c1.9,0.9,3.3,1.8,5.3,2.7c0.5,0.2,1.7,1.3,4,1.3c0.5,0,2.7-4,2.7-4
					c0.2-0.1,7,0.1,7.9,0c-2.1,0.5,3.9,1.3,4,1.3c-1.9-3.3-0.9-6.3-4-8c-0.7-0.4-3.6,1.2-6.6,0c-2.8-1.1-6.2-6.1-9.3-6.7
					C864.5,549.3,861.7,549.7,858,550z"/>
				
					<path fill="#EDEDED" stroke="#FFFFFF" stroke-width="1.9973" stroke-linecap="round" stroke-linejoin="round" stroke-miterlimit="10" d="
					M762.5,523.3c-0.4,2.7,0.5,2.8,1.3,5.4c-1.7,0.5-4.4,3.1-1.3,1.3c4.8-2.9,2.2-4,4-5.4C764.2,523.8,764.2,524.3,762.5,523.3z
					 M762.5,511.2c-7.9,1.9-11.4,9.6-13.3,14.8c2.4-1.2,4.1,0,6.6-1.3v-2.7c4.1-2.4,4.8-3.7,8-6.7c3.1,1.1,5-0.3,7.9,1.3
					c0.7,0.4,1.9,3.8,2.7,4c1.5,0.5,3.8-0.6,5.3,0l1.3,2.7c1.4,0.5,2.7-0.9,4,0c0.6,0.4,3.6,6.2,5.3,6.7c2.4,0.7,7.2-1.3,9.3,0
					c0.5,0.3-0.3,3.3,0,4c1.6,4.3,7.5,6.2,11.9,8.1c-1.5,2.7-2.5,5-4,8c8.5-1,19-3.1,27.8-4l-1.3-5.4c-2.2,0-7.4,1-9.3,0l-1.3-6.7
					c-2.6-0.5-5.1,0-8,0c-0.7-2,0-3-1.3-4c-4-3.1-10.6-6.8-15.9-8.1c-1-0.2-3,0.5-4,0c-1.7-1-2.4-5.8-4-6.7
					C787.6,513.6,763.2,511,762.5,511.2z"/>
				
					<path fill="#EDEDED" stroke="#FFFFFF" stroke-width="0.9993" stroke-linecap="round" stroke-linejoin="round" stroke-miterlimit="10" d="
					M739.7,640.1c-1.5-0.8-2.4,0-2.4,0c3.8,5.8,1.5,10.5,0,16.1c2.5,1.1,3.1,3.4,4,4l4-1.3c0.5-3-0.9-2.6,1.3-4
					c3.6,4.7,5.3,6,10.6,9.4c-0.6,4.1-0.8,4.4,0,6.7v2.7c2.1,1.5,1.2-3.3,1.3-4h2.7l1.3,5.4c0,0,0.8-2.9,1.1-4.6
					c0.3-1.7-3-3.1-1.7-5.9c0.9-1.8,0.3-4.3,0.3-4.3l1.7,0.4l2.1-0.6c-1-2.3-1.8-4.5-2.3-5.1c-2.1-3.1-6-6.8-8.3-10.2
					c0,0,0.1,0.1-2,0.1c-2.1,0-2.8-2.1-2.8-2.1s-1.8-0.5-3.5,0.2c0.2,0.5,0.4,0.9,0.6,1.3c-2-0.4-3.2-1.5-6.6-1.3
					C741.3,642.6,740.5,641.4,739.7,640.1z"/>
				
					<path fill="#EDEDED" stroke="#FFFFFF" stroke-width="0.9993" stroke-linecap="round" stroke-linejoin="round" stroke-miterlimit="10" d="
					M795.4,750c0,0,0.6,2.8,2.7,4.2c2.1,1.4,5.3,2.3,5.3,2.3s1.6,1.9,2,3.6c0.3,1.8,2.4,3.1,2.4,3.1l7.9,1.8c0,0,1.4-2.8,2.4-0.7
					c1,2.1,7.2,3.8,7.2,3.8h4.1c0,0,0,4.5,1.7,4.5c1.7,0,4.1,3.5,3.8,4.9c-0.3,1.4,4.1,3.8,4.1,3.8l4.8,0.3l0.3,3.1
					c0,0,1,3.1,2.8,3.1c1.7,0,4.8,1.4,4.8,1.4l0.7-2.8c0,0,5.2-0.3,6.2,1.1c1,1.4,4.1,2.1,6.6,2.1c2.4,0,4.1,2.8,4.1,2.8l-8.6,16.8
					h4.1l2.8,1.7c0,0,9-22.7,9.3-24.8c0.3-2.1,0.7-4.6-0.7-7.3c-0.5-1-4.8-2.4-4.8-2.4l-0.3-3.1l6.9-0.7l-0.3-3.1l-1.6-1.4h-3.1
					l-0.2-5.6c0,0,2.6-0.7,5-0.7c2.4,0,11.6-1.8,11.6-1.8v-3.8l2.8,2.1l3.1-1l1-4.2l3.1,0.4l0.7,4.2l2.8,0.7l0.7-5.2
					c0,0-1.4-1.8-2.1-3.8c-0.7-2.1,0.3-4.2-2.1-2.4c-2.4,1.8-1.4-3.8-1.4-3.8s3.5-2.1,3.8-4.2c0.3-2.1,2.1-6.6,2.1-6.6
					s-6.9-3.5-8.3-5.2c-1.4-1.7-4.1-3.8-4.5-5.6c-0.3-1.8-4.1-3.1-4.8-6.6c-0.7-3.5,1.7-4.9,1.7-4.9l0.7-5.2c0,0-3.1-1-5.5-1
					c-2.4,0-6.6,0.3-6.6,0.3s-3.1-4.9-4.1-7c-1-2.1-3.1-2.5-5.5-1.8c-2.4,0.7-7.3,0-7.3,0l-6.2-1.4c0,0,0.3-2.4-1.4-5.2
					c-1.7-2.8-3.1-3.5-3.5-5.9c-0.3-2.5,1.7-2.5,1.7-2.5l-3.8-8l-3.5,0.7c0,0-3.1,1-1-3.5c2.1-4.5,0-4.5,1.4-7.3
					c1.4-2.8,0-6.3,0-6.3l3.8-1.4l3.1-8.7l5.3-4.4c0,0,2.8-1.8,4.4-2.9c-0.3-0.6-1.1-2.1-1.1-2.1c-3.1,0.8-3.3,0.4-5.3,1.3v2.7
					c-0.4,1-9.7,7.7-10.6,8.1c-1,0.4-3.7-2.5-6.6-1.3c-1.7,0.6-0.8,3.1-1.3,5.4c0,0-1.4-0.3-1.3-1.3c0-0.3-3.8,0-5.3,0
					c-0.6,3.5-0.7,6-1.3,10.7h-2.7c-0.5,1.4,0.8,4.1,0,5.4c-0.2,0.2-3.7,0-4,0c-1,1.8-3.6,5.7-4,6.7c-0.5,1.5,0.6,3.9,0,5.4
					c-1.8-1.2-3.2-2.2-4.8-3.5l-0.8,3.5c0,0,2.1,1.2,2.1,3.6c0,2.4-2.1,4.5-2.1,4.5l-1,2.6c0.1,3.6-0.3,11.4,1.3,12.1
					c-1.9,6.7-2.5,14.3-5.3,22.8c1.7,0.6,4,1.7,5.3,2.7c-3.1,5-7.6,8-13.3,10.7c3.6,1.9-5.2,4.8,1.3,8.1c-1,0.5-4.3,0-5.3,0
					C794.1,746.5,795,748.8,795.4,750z"/>
				
					<path fill="#EDEDED" stroke="#FFFFFF" stroke-width="1.9973" stroke-linecap="round" stroke-linejoin="round" stroke-miterlimit="10" d="
					M834.1-267.1c0.2,0.1,0,5.4,0,5.4c3.6,0.1,3.6,0.6,6.6,1.3h2.7c0.5-2.6-0.7-3,1.3-4v-1.3C840.3-266.5,837.9-266.4,834.1-267.1z
					 M920.2-308.7c1.2-0.4,1.6-0.5,1.6-0.4c0,0.1-1.9,1-0.3,1.8c-0.9,0.4-3.9,3.6-5.3,4c-2.9,0.7-7.2-1.3-8-1.3
					c4.3-0.8,6.3-0.5,10.6-1.3C919.5-308.3,917.8-308,920.2-308.7z M888.4-326.1c5.2-1,0.7,2.5,0,2.7
					C880.8-321.9,884.5-325.5,888.4-326.1z M852.6-130.2l1.3,2.7C853.5-129.4,855-130.2,852.6-130.2z M797-139.6
					c0,0,2.9,5.9-1.3,5.4C795.8-135.3,794.5-140.9,797-139.6z M865.9,16.1l1.3,2.7C871.7,20.2,868.5,16.8,865.9,16.1z M928.2,4
					c0,0-4.5,1-5.3,1.3c-4.4,1.4,3,4.5,4,5.4C926.9,10.6,932.4,3.6,928.2,4z M863.2-26.9c11.6-0.2,11.6,15.5,8,13.4
					c0,0-7.2-1.4-9.3-1.3C868-20,859-26.8,863.2-26.9z M868.5-59.1c0.2,0.1,4,5.4,4,5.4c1.7,0.9,4.6-0.6,6.6,0
					c2.1,0.5,5.8,4,7.9,5.4c-0.2,0.1,0,3.8,0,4c-2.9,0.5-3.9-1.6-5.3-1.3l-1.3,2.7c-1.5,0.5-3.9-0.5-5.3,0c-0.8,0.3-2.7,3.4-4,4
					c-0.8-3.3-5.7-9.9-5.3-14.8L868.5-59.1z M838.1-72.5v4C844.9-69.8,844.9-71.3,838.1-72.5z M826.1-76.5c-1.1,1.1-4.1,3.3-5.3,4
					c0.2,2.3,1.3,9.4,1.3,9.4c2.2-0.3,7.4-1.4,8-1.3c0.7-3.3,0.2-5,1.3-8C830-73.7,827-75.2,826.1-76.5z M842-80.6l-1.3,4h1.3
					c-3.7,1.2,1.3,1.3,1.3,1.3C843.1-77.2,844.4-80.7,842-80.6z M799.6-94l1.3,2.7C803.3-90.1,800.6-93.5,799.6-94z M822.2-95.3
					c-3.2,0.4,2.6,2.7,2.6,2.7S827.5-96.1,822.2-95.3z M608.8-96.7c0.8,0.4,0.5,2.3,1.3,2.7C612.5-92.8,609.8-96.2,608.8-96.7z
					 M803.6-98v2.7h2.7C804.4-96.4,807.7-98,803.6-98z M797-102l-2.6,2.7c-2.1,0.5-4.5,0-6.6,0c0.1,0.2,1.4,2.6,1.3,2.7
					c1.3,0.4,4,0,7.9,1.3C797.9-97.5,805-102.7,797-102z M880.5-103.4c3.3,0.6,8,4.2,1.3,2.7C881.8-100.7,876-104.3,880.5-103.4z
					 M877.8-108.7v2.7C873.4-105,875.9-108.3,877.8-108.7z M770.5-114.1c2.2,0.5,3.9,4.1,0,2.7C770.5-111.4,766.7-115,770.5-114.1z
					 M871.2-119.5c0,0,1.1,5.5,1.3,8.1h-2.6C870-114.3,868.7-118.8,871.2-119.5z M778.4-165.1c-0.5,3.6,1.8,1.8,1.3,5.4
					c-0.2,0.8-2.2,3.3-2.7,5.4c5.1,2.3,12.8,6,21.2,4c0.5-0.2,0.2-2.2,2.6-1.3c0.2,0,0,3.8,0,4c3.8,1.8,7.4,3.7,10.6,5.4
					c-5.7-1.7-7.1-1.1-11.9-2.7c-0.5,1.7,0.1,5.3-1.3,5.4c-2.4,0.1-1.1-3.5-1.3-5.4c-2.7,0.8-2.6,0.5-5.3,1.3
					c2.6,1.3-2.7,1.3-2.7,1.3c1.2,0,1.4-3.5,0-4c-1.4-0.6-2.7,0.8-4,0c-1.7,1.3-5.2,8.1,0,6.7c-0.2,0.4-1.9,2.2-1.3,2.7
					c-2.3,0.3-6.1,0.3-5.3,0h-2.6c0.8-2.4,0.2-0.7,2.6-1.3c0-0.7-0.5-5,0-5.4c1.7,1.7,1.1-1.3,1.3-1.3h-2.7c-0.4-1.5,2-2.5,1.3-5.4
					c-0.6-2.7-4-1.6-4-5.4v-2.7C776.2-158.5,777.8-163.3,778.4-165.1z M789-189.3l1.3,2.7C793.1-185.7,795.7-188.4,789-189.3z
					 M794.3-210.7c-6.3,1.3-4.1,4.2,0,6.7C794.8-205.9,799.6-211.8,794.3-210.7z M775.8-234.9c4,0.5,11.8,3.9,4,2.7
					C779.8-232.2,771.2-235.6,775.8-234.9z M797-318.1c4.6-0.9,1.2,2.6,1.3,2.7C797.3-315.8,792.8-317.3,797-318.1z M822.2-323.4
					c2.2,0.5,1.7,3.4-1.3,4C821.1-321,819.8-324,822.2-323.4z M573-83.2c-5.8,0.5,5.3,2.7,5.3,2.7S577.9-83.7,573-83.2z M600.9-87.3
					c-1.9,0.5-0.9,4.6,1.3,4C604-83.7,606.7-88.8,600.9-87.3z M614.1-91.3c1.2,0.2-4,2.7-4,2.7c3-0.9,3.7,1.8,5.3,1.3
					C615.4-87.3,618.9-93.1,614.1-91.3z M634-103.4v1.3c-1.9,0.9-4.7,2.6-5.3,5.4c-0.1,0.5,0.3,3.7,0,4c-0.8,0.7-4.9,0.5-5.3,1.3
					c-0.5,0.9,0.7,3.4,0,4c3.6-0.5,3.8,2.2,6.6,1.3c0.4-0.1,0-2.3,2.7-2.7c0.7,1.4-0.7,3.9,0,5.4c0.7,1.5,8,4,8,4
					c1.9-0.2,1.3-4,1.3-4c2.2-0.8,4,1.3,4,1.3l10.6-2.7c-0.9-2.4-1.5-0.9-4-1.3c-0.5-3.1,1-6.5,0-9.4
					C651.8-97.4,638-104.1,634-103.4z M729.4-107.4c0.7,1.5,0.4,3.2,1.3,5.4c1.8,4.2,3.2,0.3,6.6,2.7v-1.3
					C734-103,731.6-104.4,729.4-107.4z M611.5-118.1c-1.8,0.5-3.6,6.7,0,5.4C611.8-112.9,614.7-119.1,611.5-118.1z M643.3-163.8v2.7
					h2.6C644-162.2,647.4-163.8,643.3-163.8z M492.2-166.4c-2.5,2-6.3,8.3-9.3,9.4c-2.9,1-6.3-0.7-9.3,0c-1.4,0.3-4.6,3.7-5.3,4
					c-1,0.4-3.2-0.7-4,0c-3.9,3.1-0.1,6.9-1.3,9.4h-1.3c-4.1,2-6.7,6-9.3,9.4c-2.4-1-1,1.6-1.3,2.7c1.7,0,5.7,2.6,9.3,1.3
					c0.5-0.2,1.2-2.4,2.6-2.7c-2.2,0.5,2.7,4,2.7,4c-6.8,0-4.7,2.5-5.3,2.7c2.4-0.9,5.5,0.8,7.9,0c0,0,0-3.9,0-4
					c7.4,0,11.9-0.3,21.2-1.3l1.3,2.7c-7.5,0.8-11.2,0.3-17.2,2.7l-1.3,2.7c-3.7,1.3-5.8,0.7-9.3,1.3c0,0,0,3.8,0,4
					c2.6,0.7,1.5-1.1,2.7,1.3c7.5-0.1,18.1,0.6,26.5,0c0.5,0,5.8-2.9,6.6-2.7c1.1,0.2,0.8,3,4,2.7l4-4c2.1,0,2.9,3.7,4,4
					c3.2,0.8,5.5-1.1,9.3-1.3c-2.3,1.9-4.7,7.5-6.6,8.1c-8.3,2.2-13.3-2.6-21.2-1.3c-1.2,0.2-5.7,3.8-6.6,4c-5.7,1.2-6.8-0.3-13.3,0
					c0.5,0.4,0,9.1,0,9.4c2.4,0.7,3.2,0.2,5.3,1.3v2.7c4.9,2.7,15.4,1.1,19.9,4c0.6,0.4,0,7,0,8.1c3.1,0.7,2.2-2.1,5.3-1.3v2.7
					c10.7-0.9,25.2-1.3,33.1-4l1.3-2.7c3.3-1.3,8.5-3.5,10.6-4c1.5-0.4,3.9,0.6,5.3,0c3-1.4,10-10.2,11.9-10.7c1.1-0.3,2.9,0,4,0
					c-0.9,4.3-1.4,3.8-2.7,6.7c3,1,5.5,1.5,9.3,2.7c0,0.2-0.2,3.9,0,4c1.4,0.5,3.8-2.8,5.3-2.7l1.3,2.7c2,0,4.6-0.5,6.6,0v1.3
					c3.7,0.3,3.4-2.6,4-2.7c2.5-0.5,5.4,2.1,9.3,0c1-0.6,1.6-3.5,2.7-4c-1.9-1.3-4.3-3.6-6.6-4c0,0-1.2,2.4-1.3,2.7
					c-4.1-0.3-2.1-0.7-5.3,0c-0.6-1.6-0.2-3.4-1.3-4c-7.4-3.8,8.7-0.4,11.9,0c3.2,0.3,0.5-0.1-2.6-1.3v-2.7c3.1,0.7,2.2-2.1,5.3-1.3
					v2.7c0.7,0,3.2-0.2,4,0c0,0.2-0.1,4,0,4c5.8,2.3,5.7-5.3,2.7-4c1.5-1.1,1.9-7.3,0-8.1c-7.4-3.1-15.4,2.9-18.6-5.4
					c-0.6-1.5,0.8-2.7,0-4h-2.7l1.3,4v1.3c-1.1,0.5-2.4-0.8-1.3-1.3c-2.1-0.9-5.5-1.1-6.6-1.3v-2.7c-5-4.8-2.2-4.8-5.3-10.7
					c-0.6-1.2-3-0.5-4-1.3c-3.1-2.8,0.2-8.6-4-10.7v-1.3c-1.2,0-4.3,0.5-5.3,0c0.3-1.9,1.5-1.8,2.7-2.7c-0.7-1.4,0.5-3.9,0-5.4
					c-0.4-1-10.4-12-11.9-13.4l-4,2.7c1.5,14.3-0.2,13.5,13.3,16.1c-0.2,0.3-1.6,2.6-1.3,2.7c-3.1,0.5-1.9-1.8-4-1.3
					c-1.4,0.3-0.5,3.7-4,2.7c-0.9-0.3,0.7-2.6-2.7-2.7c-0.1,0.3-1,3.7-1.3,4c-1.2,1-2.2,3.9-2.6,5.4c-0.8-0.1-3.4,0.8-5.3,1.3v-2.7
					c-0.3,0.7,0.8-3.4,1.3-5.4c0.3-1.5,3.3-4.2,2.6-6.7l-4-1.3c-1.5-1.5-1.1-5.5-2.7-6.7c-1.7-1.3-0.5,1.8-2.6,1.3
					c0,0-2.7-2.1-4-2.7c-2.1,3.8-1.8,5.3-4,9.4c-0.3,0-3.8-0.3-4,0c-2.5-3.6-5.1-9.3-9.3-10.7c-1.5-0.5-3.9,0.6-5.3,0
					c-0.2,6,0.5,11.1,1.3,16.1l-4,1.3c-3.4-2-7.1-4.6-10.6-6.7c0.2-1.4,1.1-15.2,0-16.1C496.8-166.8,494.6-165,492.2-166.4z
					 M628.7-171.8c5.1-1.3,0.7,2.5,0,2.7C624.4-168.1,626.6-171.3,628.7-171.8z M631.3-178.5v2.7c-3.9,1.5-7.6,2.6-11.9,4
					c0,0,3.4,2.6,2.6,2.7c-2.7,0.3-12.5-1.9-10.6-1.3c-1.6,1.3-3.6,1.7-5.3,2.7v2.7c-2.8-1.4-0.3,3.9,0,4c2.9,1.4,6.2,0.5,9.3,1.3
					c0,0.6-0.4,5.1,0,5.4c-1.5,0.7,0.4,3.5-2.7,4c-2.7,0.4-10.8-1.9-13.2-2.7l-1.3-4c-1.6,1.5-2.5,0.6-5.3,1.3
					c0,0.8,0.7,8.4,1.3,6.7c1.5,1.3,2.2,2.7,4,4c7.4,5.5,3.9,2.7,10.6,0c0.6,0.6,3.7,6.5,4,6.7c1.6,1,5.2,0,6.6,1.3
					c2.5,2.3,1.4,8.5,4,10.7c1.2,1,3.1-0.1,4,1.3c3.9-3.2,5.1-4.6,10.6-6.7l1.3-2.7c3.2-1.2,5.6,0.3,7.9-1.3c1.7-1.3,0.8-2.7,2.7-4
					c-0.6-4.4-1.1-7.6-1.3-10.7c5.2-0.7-1.8-2.4-2.7-2.7c-1.7,1.4-1.8,3-4,4c-4-9.7,1.2-5.9-8-8c0.5-0.2-1.1-4.6-1.3-5.4
					c13.3-3,9.4-0.4,4-9.4C623.9-169.6,644.6-182.3,631.3-178.5z M433.9-183.9c-1.2,0-5.8,3.7-6.6,4c-8.2,2.4-12.1,2.7-18.6,5.4
					c0.8,6.4-0.5,15.7,2.6,18.8c-1.7,0.6-1.3,1.8-4,1.3c0.1,1,1.4,5.1,2.7,5.4c0,0-3.5,8.1-5.3,12.1c2.5,1.8,6.1,2.9,7.9,5.4
					c1.6,2.1,1.4,7.1,4,8.1c2.2,0.8,4.3-0.8,6.6,0c2.4-3.4,4.2-6.3,6.6-9.4c0,0,3.6-0.5,1.3,1.3c0,0,4.7,0,1.3,1.3
					c1.8-0.2,8.4-1.3,8-1.3c0.7,0,3.2,0.4,4,0c3.8-2.2,1.7-7.8,4-12.1c3.1-6,23.4-19.9,31.8-20.1c2.4-0.1,0.7,2.1,4,1.3
					c0.3-0.1,1.4-2.4,2.6-2.7v-2.7c-1.6-0.9-3.8-0.4-5.3-1.3c-1.3-0.8-2.7-4.8-4-5.4c-10.1-4.3-18.5,0.8-23.9,0l-2.7-2.7
					c-6.5-1.8-9-1.8-14.6-4c-0.5-0.2-1-2.6-1.3-2.7H433.9z M638-185.2c-1.9,0.4-1.7,2.3,1.3,2.7C638.9-184,640.3-185.7,638-185.2z
					 M582.3-197.3c0,0,0,6.7,0,6.7C585.1-188.1,584.6-196.2,582.3-197.3z M656.5-202.7c-1.3,0.6-1.9,5.5-2.6,6.7h-2.7
					c-1.2,3.1-1.1,5.1-2.6,8.1c1.4,0.6,3.8-0.6,5.3,0l1.3,2.7c4.2,2.7,5.7,0.4,9.3,1.3c0.3,0,1.4,2.3,2.7,2.7c0.6-1.6,3.7-4.6,4-6.7
					c0.9-6.7-3.1-10.6-5.3-14.8c-0.9,0-8.2,0.9-6.6,1.3C658.4-201.8,657.5-203.2,656.5-202.7z M651.2-204c-0.5,0.2-1,2.5-1.3,2.7
					c-2.6,1-7.1,0.2-4,2.7c0.6,0.5-0.9,2.3,1.3,1.3C647.9-197.6,656.6-206.4,651.2-204z M463-210.7c-1.8,0.7-0.3,3.8-1.3,5.4
					c-0.9,1.3-5.8,2.3-6.6,4c-1.7,3.1,0.7,3.7,0,5.4c1.9,0,4.8-0.6,6.6,0C461.7-196,469.7-213.3,463-210.7z M480.3-217.4v4h2.7
					C480.7-215.3,485.4-217.4,480.3-217.4z M761.2-222.8c2.3,1.3,4.8,7.3,1.3,5.4C761.9-217.8,758.9-224.1,761.2-222.8z
					 M697.6-224.1c2.2,1.8-2.7,1.3-2.7,1.3c0.7,0.8,3.1,5.2,4,5.4c4.4,0.6,2-3.6,2.7-6.7C700.6-224.1,698.3-223.8,697.6-224.1z
					 M582.3-224.1c-3.9,2.5-0.8,10.9,0,6.7c-1.1,3.7,0.1,1-2.6,2.7l1.3,4c1.2-0.1,7.7-1.1,6.6-1.3c0,0,6.2,0.7,4,1.3
					c-2.9,0.8-4.6,1.5-6.6,2.7c-9,5.2,10.1-1.1,2.7,2.7v2.7c-2.1,0.4-6.3,4.2-1.3,4c6-0.2,8.6-3.4,13.3-6.7c-2.5-1.7-0.5-2.9,0-4
					l-1.3-4c-3.9,0.6-1.6,0-3.6,0.3c-0.5-0.7-0.4-5.7-0.4-5.7c-1.2,0-4.3,0.5-5.3,0h-1.3c1.1-0.5,0,0,0,0s1-3.2,1.3-4
					C585.5-223.6,585-222.7,582.3-224.1z M618.1-225.5c-5.7,1.4-6.3,3.9,1.3,5.4v2.7c-2.1,0.6-4.5,0-6.6,0c1.6,1.4,1.8,4.2,4,5.4
					h1.3c1,2-5.4,1.9,1.3,5.4c2.1,1-3.3,0.8-1.3,2.7c-0.5-0.4-3.4,0.1-4,0c0,0,1-3.1,1.3-4c-3.1-2.5-4.4-3.4-5.4-4.6
					c-1-1.2-1.8-2.6-3.9-6.1c-0.8,0.4-3.2,0-4,0l-1.3,4h2.6c0.5,2.1-0.7,3.2-1.3,5.4c0.2,0.2,3.9,2.5,4,2.7c-0.2,0,0,5,0,5.4
					c-0.3,0-9-0.4-9-0.4c-0.7,3.6,0.9,1.6-1.6,3c0.7,2.3,1.7,2.9,1.3,5.4c5.9-2.8,12.1-5.5,19.9-6.7c0.8-0.2,4.2,0.8,2.6,1.3
					c-1.6,0.5-5.2,2.8-6.6,4l1.3,6.7c2.4,0,5.6-0.6,8,0c-0.7,0,8-1.3,8-1.3c6.8,0.9,6.6-0.2,10.6,0c0.5-3-0.5-2.5,1.3-4
					c0,0-2.2-5.9-2.7-2.7c0.7-2.8,1.7-4.3,1.3-6.7c-0.2,0-3.9,0.2-4,0c-1.5-5.6,0.9-9.9-1.3-14.8l-5.3-1.3c-0.3-0.2,1.7-2.5-1.3-4
					v-1.3c-3.2,1.5-1.3-0.7-2.7,2.7c0,0-1,4.9,0,2.7c0,0,3.9-0.1,1.3,1.3c-4,2.2-7.8-1.3-5.3-1.3
					C620.9-220.8,618.6-223.9,618.1-225.5z M488.2-225.5c-1.1,0.2-0.9,2.7-1.3,4c0.9,0,3-0.4,4,0C489.2-223,492.9-226.3,488.2-225.5
					z M652.5-226.8c-1,2.2-2.4,2.6-4,4c1.9,1.8,5.6,8.6,7.9,9.4c2.5,0.8,5.4-0.7,8,0l2.7,2.7c5.4,0.5,4.1-2.6,7.9-2.7l1.3,2.7
					c-0.7-0.3,10.7,2.6,11.9,9.4c0.5,3.3-2.6,8.6-2.7,10.7c-0.2,3.3,2.1,9.1,2.7,12.1c1.9-0.9,1.5-0.5,4-1.3v-2.7
					c4.1-0.9,2.8,3.7,4,4c1.4,0.3,3.4-2.6,4-2.7c9.5-2.5,5.4-0.2,10.6-6.7c0.7,2,2,5.5,2.7,8c4.4-0.5,10.3,0.8,13.2,0
					c0,0,2.3-4.1,2.7-4c3,0.1,1.5,1.9,2.7,4c4.4-1.1,5-1.7,7.9-2.7c0.4,1.6-1.2,2.9,1.3,2.7c1.2-0.1,7.9-2.7,9.3-2.7
					c0.3,0,4.1,2,6.6,1.3l2.7-2.7c-3.3-1.8-0.5-2,1.3-2.7c1.5,3.1,0.1,3.6,2.7,5.4c0.7-0.6,2.9-2.8,4-2.7v1.3
					c6.3,0.1,10.3,0.6,18.6,0c0.3-2.9-0.6-6.2,1.3-8.1c1-1.1,4.8-1.5,5.3-2.7c0.3-0.9-0.7-3.4,0-4c-0.7-0.3-9.3-5.4-9.3-5.4
					c-4.2-0.6-3.8,2.3-7.9,1.3c-0.8-0.2-2.7-4-2.7-4c-2.9-1.1-7.1-1-9.3-1.3l-1.3,2.7c-3.1,0.6-2.2-2-5.3-1.3c1.4-0.3-3.1-1.5-4-1.3
					L748-204c-11,2.2-14.4,3.9-23.8,1.3v4c-1.2-0.3-2.4-2.6-2.7-2.7c-3.2-0.8-1.7,1.6-4,1.3c-1.6-0.2-6.6-3-9.3-4
					c1.6,1.5-1.3,2.7-1.3,2.7c-0.4-0.3,0-4.9,0-5.4c-1,0-6.5,1.7-8,1.3v-2.7c-2-0.4-3.5-1.2-4-1.3c2.9-0.1,5.3,1.5,6.6,1.3
					c0.8-0.1,2.4-2.5,4-2.7v-2.7c-0.9,0-3.2,0.4-4,0c-1.7-0.8-5.9-1.4-8-2.7c-1.1-0.7-1.5-5.1-2.6-5.4c-4.8-1.1-7.8,4.4-14.6,2.7
					c-1.2-0.3-2.3-4.8-4-5.4C666.3-226.1,657.8-225.4,652.5-226.8z M533.3-226.8c-0.5,2.4-0.5,0.8-2.7,1.3c0.4,6.1,0.7,7,0,13.4
					c0.9,0.4,5,1.8,5.3,2.7c0.7,1.8-6.3,7,1.3,5.4l1.3,4c-5.1-0.7-13.7,0.3-19.9-1.3c-2.2-0.6-5.5-5.8-7.9-6.7c-2-0.8-4.6,0.5-6.6,0
					c-1-0.3-5.3-3.7-6.6-4c-4.9-1.3-7.7-0.8-11.9-1.3l-1.3,2.7c-1.3,0.2-3.7-1.6-6.6-1.3c0.6,0.5,0,5.8,0,6.7
					c12.8-2.1-1.1,1.9-4,2.7v4c14.7-1.5,5.3,0.2-1.3,2.7v4c3.4-0.4,8.1-2.2,10.6-1.3c1.1,0.4-1,3.1,2.7,2.7v-4c0,0,5.3,0,2.6,1.3
					h-1.3l1.3,4c0,0,2.9-1.5,1.3-2.7h2.7c1.7-1-2.9-8.7,0-10.7c5.8-4.2,3.4,8.8,2.7,9.4c6.2-0.3,6.5-0.8,13.3-1.3v-2.7
					c2.8-0.6,8,4.2,13.3,2.7c0.5-0.2,2.4-3.3,4-4c-0.7,1.5-1.5,4.3-2.7,5.4c-6.3,5.5-7.9,1.3-17.2,4c0,0-7.8,4.7-9.3,5.4
					c0.9,0.8,0.9,3.9,1.3,5.4c3.7-0.2,7.7,1.8,13.2,0c4.8-1.6,6.8-9.2,10.6-10.7c0,0,4.6,1.5,6.6,1.3c1.5-0.1,8.7-4,9.3-4
					c4.5-0.2,5.8,5,11.9,2.7c0,0,0-3.9,0-4c0,0,5.2,0,2.6,1.3c11.9-1,18.7-1.3,14.6-14.8c-2.4-7.9-4.1-3.6-7.9-6.7
					c1.2,0,0,9.4,0,9.4v1.3c-5.5,1.3-0.5-3.6-2.7-5.4c-1.6-1.3-3.2,1-4,1.3c-0.6-1.8,0-4.8,0-6.7c-7.9,1.3-8.6-1.7-15.9-6.7
					c0.5-1.5,2.2-1.5,1.3-4C537.1-224.6,533.4-226.5,533.3-226.8z M668.5-238.9c-2.1,0.3-6.9,3.2-9.3,4c2.5-0.1-2.7,0-2.7,0
					c-2.2-0.2-0.9-1.1-4-1.3l-1.3,4c3.2,0.1,2.1-1.5,5.3-1.3c2.3,0.1,9.1,4,11.9,4C683.3-229.4,683.4-241.4,668.5-238.9z
					 M698.9-241.6c-1,2.2-3,3.7-4,5.4c1.2,0.6,0.8,2.3,1.3,4c2,0.3,6.3,0.6,5.3,0c0.2-0.9,2.2-5.5,2.7-6.7
					C702.5-239.8,700.4-240.3,698.9-241.6z M603.5-241.6c0,0-2.4,3.8-2.6,4h1.3c1,0.5,2.1,1.7,4,2.7v-1.3c3.1,2.3,2.1-2.4,2.6-2.7
					C607-239.9,605.1-240.4,603.5-241.6z M573-241.6c1.3,4.6,1.6,7.2,2.6,10.7h2.7c0-0.4,0-5.4,0-5.4c-1.2-1.9-1.6-2.7-2.7-5.4H573z
					 M471-242.9c-0.3,0.4-4.9,5.6-2.7,4c-2.5,0.7-1.6,4.2-6.6,4l-4-2.7c-3.5-0.5-11.6,1.3-14.6,2.7c-1.9,0.9-7.9,8.7-10.6,9.4
					c-2.8,0.7-2.5-2.3-4-1.3c0,0-2.6,4.7-4,5.4h-1.3c-0.2,0.4,0.4,3.7,0,4c-1.7,1-4.8-0.6-6.6,0c-0.6,0.2-5.3,3.4-6.6,4
					c4.3,3,6.5,6.1,9.3,10.7c2.4-1.1,5.2-2.5,8-4c-0.9,0.1,0.2,3,2.6,2.7c0,0,4.1-2.6,2.7-2.7c0.6-0.6,2.1,1,2.7,1.3
					c-0.2-0.1,0-4.9,0-5.4c0.1,0.3,2.1,4.8,2.7,5.4c0.4,0.4,3.7,1,4,1.3c0.4-1,3.6-2.9,4-4c1.5-4.2,0.9-5.4,0.6-5.3
					c-0.2,0.1-0.1,1.6,3.3,2.7v-2.7h2.7c1.2-1.2-0.7-6.4,0-8.1c0.6-1.5,3.4,1.5,4,1.3c0.4-0.2,1-4.4,1.3-5.4c0.4,0,3.7,0.3,4,0
					c-1.5,3.2-2.4,5.9-4,9.4c2.3,0.7,3.4-0.1,5.3,1.3c4-2.2,13.3-10.7,8-13.4c3.1,0.6,3.9,1.3,8,1.3c0.9-2.5-2.4-0.5-1.3-4h2.6
					c-1.5-1.5,1.3-4,1.3-4C482.1-241.6,475.3-240.9,471-242.9z M766.5-244.3c1.8,0.9-1.3,2.7-1.3,2.7
					C765.4-242.5,764.1-245.5,766.5-244.3z M525.3-245.6l-1.3,2.7c-1.4,0.3-2.4-1.9-5.3-1.3c-3.1,0.5-8.2,6.4-11.9,6.7
					c-1.8,0.1-3.5-1.8-4-1.3c0,0-0.5,11.6,0,12.1l6.6,2.7c2.1,0.4,14.6-2,15.9-2.7c1.9-1,2.4-5.3,4-6.7c-1.6-1.5-3.1-1.8-4-4
					c1.3-0.8,3.8,0.5,5.3,0C537.4-240,531.4-245.4,525.3-245.6z M489.6-248.3c-1.2,1-3.8,2.1-5.3,2.7c0,0.6,0.4,4.9,0,5.4
					c1.1,0.9,2.3,0.8,2.6,2.7c1.1,0,4.3-0.5,5.3,0c0.3-0.5,2.4-5.2,2.7-5.4C493.5-244.7,490.5-246.7,489.6-248.3z M501.5-253.7
					c0,0-2.4,4.9-2.7,5.4c3.3-0.3,9.2-1.5,10.6-1.3c0.4,0,2.8,2.5,4,2.7v1.3l5.3-4c-1.4-0.5-0.8-2.4-1.3-4
					C514.3-253.9,507.8-253.4,501.5-253.7z M530.6-257.7c-1.9,0-5.5,3.3-6.6,4c-0.7,0.4-3.2,0-4,0c3.6,2-3.9,3.2,6.6,5.4
					c0.7,0.1,3.8,2,6.6,1.3C541-248.8,539.6-258,530.6-257.7z M738.7-259c2,1-1.3,2.7-1.3,2.7C737.6-257.3,736.5-260.1,738.7-259z
					 M632.7-259v10.7c3.1,0.7,7.9,1.6,9.3,2.7c2.1,1.6-2.6,1.3-2.7,1.3c6.2,8,2.8,10.4,14.6,6.7c1.4-0.5,4.6-1.1,7.9-1.3l-2.6-9.4
					c-2.2-2-4.9-0.1-8-1.3c-0.5-0.2-3.2-3.7-4-4C641.5-256.2,637.8-256.3,632.7-259z M567.7-265.7c-2.8,0.6-1.6,4.9-2.7,8.1
					c1-0.4,3.7-1.5,4-1.3c0,0.2-0.1,4,0,4c2.4,1,0.5-2.6,4-1.3c-0.3,0.9-1.3,4-1.3,4c2.3,1.4,4.1-1.1,5.3-1.3
					c-1,0.2,1.5,2.7-1.3,2.7c-0.7,0,2.7,2.7,2.7,2.7c-8.7,1.9-2.7,2.2-4,2.7c11.9-4,20.9-6.9,31.8,0c1.3,0.8,1.3,3.1,2.6,4
					c1.3,0.8,4,0.4,5.3,1.3c1.1,0.8,2.6,4.9,4,5.4c1.4,0.5,3.9-0.7,5.3,0c0.4-2.9,3.6-2.9,2.7-8.1l-2.7-1.3
					c-8.6-13.5-2.1-1.8-13.3-6.7c0,0-4.3-6.2-5.3-6.7c-2.6-1.4,0.2,2-2.7,1.3c-1.7-0.4-2.9-4.8-6.6-4c-1.4,0.3-0.5,3.5-4,2.7v-2.7
					c-3.1-1.3-5-1.1-7.9-2.7c-0.3,0.3,0,3.6,0,4c-0.3,0.1-3.6,1-4,1.3c-0.7-0.5-0.7-4.9-1.3-5.4
					C577.1-263.9,567.7-265.8,567.7-265.7z M748-272.5c3.5,8,3.2,6,9.3,8c-0.1,0,1.2,2.4,1.3,2.7c-18.8,2.4,3.6,2.7,10.6,2.7
					c0,0.2-0.2,3.9,0,4c-8.2-0.9-20.9-1.6-29.2-2.7v-2.7c3.5-1.3,6.7-1.9,9.3-2.7c0-0.3-0.3-3.9,0-4c-0.2-0.4-1.9-2.4-2.6-2.7
					C746.6-269.8,746.8-275,748-272.5z M790.4-288.6c-4.1,0.6-13.4,3.6-18.6,4c0.9,2.9,1.8-0.4,2.7,1.3c2.9,6-2.7,8.1,6.6,9.4
					c0.9,0.1,5.3-1.1,4-1.3c6.7-2.8,1.2,3.9,0,4c-15.1,1.4-11.4-11.3-18.6-14.8c-5-2.4-20.9-1.5-25.2-1.3c-0.3,1.2-2.6,2.3-2.7,2.7
					c-0.7,2.6,0.7,2.3,1.3,4c-2.7,2-5.1,4.6-7.9,6.7c-1.9-1.5,1.7-5,1.3-6.7c-0.2-1.1-3.8-2.3-4-2.7c-0.4-0.7,0.6-3.7,0-4
					c-2.4-1.3-1.1,1.8-1.3,2.7c-4.1-1-4.6-1.3-8-2.7v2.7c-3.8-0.3-16.6,0.5-19.9,0l-2.6-2.7c-1-0.4-3.1,0-4,0
					c-1.1-3.9-2.3-11.4-5.3-13.4c-4.6-3-26.4-5.4-34.5-5.4v2.7c5.6,0.2,10.6,0.9,14.6,1.3l-1.3,6.7c-3.2-0.8-9.4-3.4-13.3-4
					c0,0.4,0.2,5.3,0,5.4c3.8,0.1,7.6-0.5,10.6,0l2.7,2.7c3.5,0.5,1.7-1.9,5.3-1.3c-1.2-2.5,3.4,3.3,4,4c-5.8,0.8-8.6,0.5-14.6,1.3
					c0.2,0.9,2.1,4.8,1.3,5.4c-0.8,0.5-4.3,0-5.3,0c2.9,0.6,6.5,1.9,11.9,2.7v-2.7c2.3,0.6,0.9,1.6,1.3,4c3.4,0.2,4.6-1,6.6-1.3
					c0.5,1.7,1,1.4,1.3,2.7h-9.3c-2,0.2-5.1-0.8-7.9-1.3c2.5,7.3,0.3,9.5,7.9,12.1c3.3,1.1,14.6-0.7,5.3,1.3
					c-0.6,0.1-5.3,1.3-5.3,1.3c-5.5-1.8,5.5,4,6.6,4c3.7-0.1,4.8-3.6,6.6-4c2.6-0.7,6.6,0,9.3,0v2.7c-6,1.2-8.4,1.2-13.2,2.7
					c1.5,3.2,2.3,5.9,4,9.4h2.7c0,0-2.3,3.9-2.7,2.7c0.1,0.2,1.6,2.6,1.3,2.7c6.7,0.3,6.3-0.1,11.9,0l1.3-4c3-0.4,3.6,2.8,5.3,4
					c1.2-1,4-0.3,5.3-1.3c1.4-1.2,0.5-4.2,2.6-5.4c2.5-1.3,5.6,0.3,8-1.3c1-0.8-2.6-5.7,0-6.7c2.4-1,1.1,2.8,1.3,4h2.6
					c6.5-4.1,3.3-4.3,11.9-5.4c-3.9,1.8,4,2.9-1.3,5.4c-1.9,0.9-7.3-0.1-9.3,1.3c-0.3,0.2,0,3.7,0,4c-2.3-1.2-1.2,4.2-1.3,5.4
					c14.2-3.7,17.8,1.9,27.8-8c-4.7,17.7,2.5,12.2,13.3,13.4c-1.2,1.8-0.7,3-1.3,5.4c-3,0.5-1.8,2.3-2.6,2.7
					c-2.2,0.8-9.7-1-13.3-1.3c-0.4-1.2-0.6-5-1.3-5.4c-1.5-0.7-3.9,0.6-5.3,0c-0.5-0.2-2.2-3.9-2.7-4c-6.3-1.4-11.3,0.5-17.2,1.3
					l1.3,5.4c1,0.2,5.7,1.4,4,0l1.3,4c2.9-0.5-10.2,3.4-11.9,4c-11.1,3.8-8.2,4.6-6.6,13.4c3.5-0.3,1.4-2.3,2.6-2.7
					c4.2-1.5,5.5,4.7,11.9,2.7c0.2-0.1-1.2-2.4-1.3-2.7c0.9-0.3,2.9-0.6,4-1.3c2.2,1.9,0.8,2.5,4,4c0.3-1.6-1.1-4.5,1.3-4v2.7
					c4.9,0.8,10.8,3,14.6,4c1.8-3.8,0.9-1.8,4-4c-0.5-0.8-2.6-5.4-2.6-5.4c1.2-0.9,3.9,0.9,5.3,1.3c1.2-1.9,2.2-4.1,4-5.4v8.1
					c5.2-0.8,9.3-1.1,15.9-1.3c0.7-1.9,0.4-5.1,2.7-5.4l1.3,5.4c4.1-0.4,0.7-1.6,2.6-2.7c0.3,0.7,4.1,1,5.3,1.3c0,2.8-0.5,6.6,0,9.4
					c4.1-3,8.2-6.5,11.9-9.4c1.4,0.8,2.8,3.6,5.3,2.7c1.4-0.5,5.1-5.5,6.6-6.7c3.6,1.4,0-2.7,0-2.7c-1.5-0.5-3.8,0.5-5.3,0
					c-1.7-0.6-2.4-4.6-4-5.4c-1.9-1-8.4-2.5-9.3-2.7c7.6,0,13.9-0.5,19.9-1.3c-0.3-2.8-1.1-3.9-1.3-8.1c5.5,0.6,12.5,2.4,18.6,0
					l1.3-2.7c-4.2,0.6-1-1.7-2.7-2.7c5.2,0.1,3.4,0.6,8,0c-2.3-1.2-1.3-1.3-1.3-1.3c0.8-0.1-2.7-2.7-2.7-2.7c3-0.5,6.4,1,9.3,0
					c0.5-0.2,1.2-2.4,2.7-2.7c-1.2-0.2-0.9-2.7-1.3-4c-3.6-0.6-2.5,2.1-6.6,1.3v-2.7c-1.4-0.2-5.3-1.3-5.3-1.3
					c-5.3-0.5-13,3.9-17.2,5.4v-2.7c6.5,0.9,1.4-4.1-1.3-5.4c1.4,0.4,27.2,3.4,17.2-1.3c-2.2-1.1-2.8-0.9-5.3-1.3
					c-3.4-0.6,8.5-0.5,11.9,0l-1.3-2.7c-4.7-1.8-8.9-0.7-14.6-1.3v-2.7c3.1-0.4,3,2.4,6.6,1.3c0.9-0.3,0.5-3.1,2.6-2.7
					c1,0.2,4.5,4.9,6.6,5.4c2.4,0.4,0.9-1.2,1.3-2.7c5.3,0,9.8,0.4,13.3,0c0,0,7,1.7,10.6,0c1.2-0.6-1.3-3.9-1.3-4
					c4.6-1.6,19.3-3.1,6.6-6.7c0,0,4,0.1,1.3-1.3c9.4,2.1,7,1.9,14.6-2.7c-2.2,1.4-0.8-3.8,0-4c0,0,3.8,3.8,4,4
					c2.9-1.6,12.2-10,14.6-10.7c8.8-2.8,19-0.1,26.5-4c3.9-2.1,4.8-6.9,0-8.1c4.7-2.6,9.4-3.2,14.6-5.4c0.4-0.2,2-1,4-1.3v-2.7
					c3-1.3,5.3-0.3,7.9-1.3c-1.3-0.4,2.7-2.7,2.7-2.7c-0.5-1-1.7-1.5-1.3-2.7c-3.9-0.5-6.8,0.3-7.9,0c-0.7-0.2-2.6-2.7-4-2.7
					c0,0-1.9,2.2-4,1.3c0,0-1.2-3.9-1.3-4c-5.1-3.9-13.3-3.1-21.2-4c0,0-2.8-0.2-4,0c2.1-1.5-2.5-1.4-2.6-1.3c-0.1,0-1,3.7-1.3,4
					c-0.4,0.3-11.9,6.7-11.9,6.7c-2.5,0.2-0.2-2.2-2.7-1.3c2.7-1.4,6.1-3.9,9.3-5.4c0,0,1.2-4.2-1.3-5.4c-4.1-2-9.7,1.6-14.6,1.3
					c-5.8-0.3-11.6-5.7-17.2-4c-1.5,0.4-3.7,3-5.3,4c0.1,0.3,1.7,2.5,1.3,2.7h-2.6c1.6-0.4-3.4-1.5-4-1.3c-1.9,0.2-7.2,5.3-8,5.4
					c-4.1,0.2-3.2-3.4-5.3-4h-22.5c-0.5,0.1-0.2,2.2-2.7,1.3c-2-0.7,2.5-2.6-1.3-1.3c-5,1.5-4.9,5.2-2.7,4v2.7c1.3,0,4.1-0.5,5.3,0
					c0.3,0.1,0.9,2.5,1.3,2.7c-2.9-1.3-5.1,0-8-1.3v-2.7c-3.6,0.8-5.4-0.2-11.9,1.3c-0.4-1.3,1.1-3.4-1.3-2.7l-2.7,6.7
					c-1.3-0.4-3.9,0-5.3,0c3.4-0.7-4-2.7-4-2.7c0,0.2,0,4,0,4c-5.4-1.8-8.9-2.1-14.6-4c0.2,2.6,1,5.2,1.3,9.4
					c-1.9-0.7-1.2-1.3-4-1.3c0,0.5,0.3,3.9,0,4c-1.2-1.6-5-7.2-6.6-8.1c-3.3-1.8-6.5-0.2-10.6-1.3c-2.9-0.8-6.4-4.8-7.9-5.4
					c-1.1-0.4-4.1,0.5-6.6,0v2.7c2.5-0.8,1.8,2.5,2.7,4h-14.6c0.8,0.5,1,4.1,1.3,5.4c3,0.6,1.9-1.6,4-1.3l2.7,2.7
					c3.8,0.8,10.4-1.1,15.9-1.3c-0.8,2-3.2,5.8-4,8l-1.3-5.4c-3.1,0.7-5,2.7-6.6,2.7c-1,0-6-4.3-8-4c-2.4,0.3,0.9,3.9-1.3,5.4
					c-4.3-4.1-5.9-10.4-14.6-6.7c-2.1,0.9-4.5,7.6-6.6,8c-0.4,0-8.5-3.7-14.6-2.7c0,0-2.6,1.1-4,1.3v2.7c2.6-0.2,7.4-1,11.9-1.3
					c-20.4,6.3,3.9,2.7,11.9,2.7c-4.8,1-11.2,3.2-17.2,4l-1.3,4c7.6-2.5,15-4.2,23.9-5.4l-2.7,2.7c-4.5,1.2-8.3-0.1-11.9,1.3
					c-1.7,0.6-5.3,5.4-5.3,5.4c2.6-0.2,23.2-1.9,26.5-1.3c1.4,0.2,1.2,3.4,5.3,2.7c1.1-0.2,3-4.4,5.3-4c0.1,0,0,4.9,0,5.4
					c2.6,0.1,11.9,1.3,11.9,1.3h1.3l1.3-4h2.6c0.7-1.5-1-2.7,0-4c2.8,1.3,2.7,4,2.7,4c4.8,2.3,12.8-2.3,15.9-2.7
					c9.2-1.3,15.8-0.1,25.2-1.3c6.5-0.9,13-3.7,21.2-5.4c0,0-3.1,2.3-4.9,2.2l-0.4,1.8c3.2,0,6.1-0.6,9.3,0
					c-6.8,0.6-13.3,2.5-21.2,4c0.4,0-1.2,2.5-1.3,2.7c3,0,6.3-0.4,9.3,0c-1,0,4.3-1.3,5.3-1.3c-1,0.3-3.7,3.6-5.3,4
					C801.7-287,794.7-289.2,790.4-288.6z M941.4-44.3c0.5,0,3.6,0.3,4,0c0,0-2.5-3.9-1.3-4c2.5-0.3,2.5,1.7,6.6,2.7
					c1.5-4.3,1.1-5.6,2.7-9.4c-1.5-1.4-3.7-2.6-5.3-4c5.6-0.6-1.3-1.3-1.3-1.3c0.9-4.5-3.4,2.1-1.3,2.7c-3.3,1-4.3-1.3-6.6,0
					c0,0,1,2-2.7,4c0.2-0.1,2.5-6.3,2.7-6.7c-0.9,0.4-3.1,0-4,0c0,0.2,0.2,4,0,4c-2,0.4-1.9-2.5-2.6-2.7c-3.2-0.8-3.7,0.4-7.9,0
					c3.8-3.6,0.7-3.9,1.3-8.1c-2,1-2.9-1-4-1.3c0,0.2,0.2,3.9,0,4h-2.7c0,0,1-4.9,1.3-6.7c-0.7,0.4-3.3,0-4,0c0,0.2,0,4,0,4
					c-1.1,0.5-2.4-1-1.3-1.3c-2.9,1.5,0.4-2.4-2.7-1.3v2.7c-3.3,1.6-4.1,0.9-6.6,2.7c-0.3-0.3,1-5.4,1.3-6.7c-0.9-0.8-3,0.5-4,0
					c-0.6-0.3-0.7-4.9-1.3-5.4c-2.7-2.4-6.3-0.5-11.9-2.7c0,0-2.2-3.9-2.7-4c3.4-0.7,4.4-0.7,6.6-1.3c-1-2.2,0.9-2.8,1.3-4
					c-9-6.7-1.5-4.6,6.6-4c-2.3-1.2-5.1-5.2-7.9-5.4c-2.5-0.2-2.5,1.9-4,1.3c0,0-2.2-3.9-2.7-4c3.1-0.4,3.6,0,5.3-1.3
					c1.6-1.3,1.7-0.5,4-1.3c0,0,1.3-7.8-1.3-5.4v-2.7c-1.8,1-3-1-4-1.3c-0.5,0.7-0.6,4.6-1.3,5.4c-1,1-3.1,0-4,1.3c-0.1,0,0-3.9,0-4
					c-4.7,2.4-0.7-3.9,0-4c3.3-0.8-0.3,2.9,2.6,1.3v-2.7c-1.4-0.8-2.5,0.5-4,0c-2.6-1,0.2-5.2-5.3-4c-1.5,0.3-0.4,3.4-4,2.7
					c-0.3-0.1,1.2-2.5,1.3-2.7l-4-1.3l-1.3-1.3c-4.2,0.1-0.4-0.9-4-2.7c0,0.2,0,4,0,4c-1.4,0.8-3.9-0.8-5.3,0
					c0.3-0.2,1.1-2.2,1.3-2.7c3.5,1.7,1.7-2.2,2.7-2.7c-2.9-0.8-3.5-0.5-5.3-1.3c2.6-0.1-2.7-2.7-2.7-2.7h-2.6
					c-0.4,2.9-0.5,3.9-1.3,5.4c-2.5-1.6-1.2-0.4-4,0c-1.1-4.3,0.7-8.2-2.7-5.4c-1,0.8-3.4,4.4-4,5.4c-0.9-3.4-3.9-7.5,1.3-8.1
					c0.7-2.3-0.1-3.5,1.3-5.4c-2.4-1.3-3.3-1.3-6.6-2.7c2.3-0.4,4.1-4.9,0-5.4v-2.7c-5.8-2.5-8.4,3.2-13.3,2.7l-2.6-2.7
					c-7.2-2.8-11.8-3.3-21.2-4l1.3-2.7c10.8-4.2,16.9-0.5,6.6-13.4c-1.5-1.8-2.3-3.9-5.3-4c-0.9,0-6.6,4-6.6,4
					c-3.3,0.2-3.5-2.3-5.3-2.7c-6.7-1.6-9.6,2.1-13.3,4v2.7c-2.3-1.5-0.8-1-1.3-4c-14.2-4.2-17.2,2.1-29.2,6.7
					c1.1,0.3,2.9,2.7,0,2.7c0.1,0.2,1.5,2.7,1.3,2.7c-0.1,0-4.8,0.1-2.7-1.3c0,0-5,2.5-5.3,2.7c0,1.1,0.5,4.3,0,5.4
					c2.3,0.5,0.7,0.5,1.3,2.7c2.3,0,5.8-0.7,7.9,0c0,0,0,5,0,5.4c-2.1-0.4-1.3-1.6-2.7-2.7c-1.6,0.7-4.9,0-6.6,0
					c1.6,1.3-1.3,2.7-1.3,2.7c0.3,0.1,0.9,2.4,1.3,2.7c2.2,1.4,4.1,0.1,6.6,1.3v2.7c-6,1.4,0.7,8.5-1.3,9.4c-1.2,0.5-3.6-2.6-4-2.7
					c-3.8-0.7-4.2,1.2-8,1.3c1.8-1.3,4.3-2.7,6.6-4c-0.6-0.6-0.8-3.6-1.3-4c-1.3-1.1-4.7-1.2-5.3-2.7c-2.2-5.2,0.3-22.9,4-25.5
					c4.7-3.4,10.6-2.7,17.2-4v-2.7c-1.1-0.2-4-1.3-4-1.3c-2.7-0.3-18.6,1.3-18.6,1.3c-7.6,1.1-13,2.3-18.6,4c0,1.1,0.5,4.4,0,5.4
					c-0.5,0.8-3.7,0.8-4,1.3c-0.7,1.4,0.5,3.9,0,5.4c-0.3,0.8-3.4,2.7-4,4c-2.4,5.1-2.2,8.3-5.3,14.8c1.2,0.6,4.6,1.6,5.3,2.7
					c0.5,0.8-1,2-1.3,2.7c6.6,3.1,8.2,3.8,17.2,4v2.7c-3.5,0.2-3.9-0.7-6.6-1.3c4.1,6,1.9,5.9,9.3,9.4c-5.3-0.2-1,3.3,1.3,2.7
					c1-0.3,0.8-2.6,1.3-4h2.7c3.8,3.1,4.8,5.4,7.9,9.4c1.4-0.4,3.9,0,5.3,0v-2.7c3.3-0.4,2.5,2.2,4,2.7c6.6,1.9,11.9-0.8,17.2,0
					c0,0,1.2,2.6,1.3,2.7c3.1,1.2,6.7,0.8,9.3,1.3c-0.9-1.2-3.7-4.8-4-5.4c-2.2-5,3.4-0.4,4,0c3.6,2.2,7.2,5.3,10.6,8
					c-0.7-1.5,0.6-2.5,0-4c-0.2-0.5-3.7-3.3-4-4c0.8-0.3-2.7-2.7-2.7-2.7c12-0.4,7.9-1.2,15.9,5.4c2.7-1.2,4.4-0.7,8-1.3
					c-1.2-3.1-0.7-3.9-1.3-6.7c0,0-3.6-0.5-1.3,1.3c-3.6,2.8-1.6-1.3-2.7-1.3c1.5-0.8,4-1.6,5.3-2.7l1.3,2.7l1.3,4
					c2.6,0.4,0.9-1.2,1.3-2.7h2.7c0.9,3.6,1.7,7.1,2.6,10.7c2.2-1.4,0.8-1.1,1.3-4c3,0.8,3.7-1.8,5.3-1.3c0.9,0.3,1.9,3.1,4,4
					c-0.5,1.4-2.3,1.6-1.3,4c7.6-4.1,8.3-8.7,5.3,4c1.4,0.5,4.2,1.7,5.3,2.7l-4,1.3c0,0.4,0.2,3.7,0,4c-2.5-1-1,1.6-1.3,2.7
					c0.4,0,3.6-0.3,4,0c0.5,0.4-2,2.3,0,4c2.3-1.7,4.5-2.7,6.6-4c1.9-1.3,2-1.4,5.3-2.7V-90c2.3-0.8,0.3,2.3,2.7,1.3
					c-0.4,1.6-2.3,11-1.3,8.1v2.7c0.8,0.4,2-1,2.7-1.3l1.3,4c0.5,0.3,3.8-0.3,4,0c0,0.1-1.7,4.4-1.3,6.7c0,0,3.1,5.5,4,8.1
					c-0.7,0.5-4.5,0-5.3,0c1.8,1.6-1.3,6.2-1.3,6.7c2.7,1.1,3.4,1.3,5.3,2.7c-1.4,0.7-3.9-0.5-5.3,0c-1.3,0.4-7.6,11.7-9.3,13.4
					c3.4,4.3,7.2,8.6,10.6,13.4c-16.9,2.5-24.9,5.6-41.1,5.4c-0.7,7.5-1.7,7.8-2.7,13.4c-2.4-1.8-0.7,1-1.3,1.3
					c5.1,2.4,8.8,6.9,15.9,4c1.8-0.8,1.4-2.9,2.6-4c4.2-3.9,5.3-1.2,10.6,0c-0.6-0.5,1.1-2.3,1.3-2.7c-1.6-0.9-3.8-1.4-5.3-2.7
					c0,0,0.8-2.8,2.7-1.3c0.4-1.5-1.1-3.1,1.3-2.7c0.1,0,1.1,4.6,1.3,5.4c3.2-0.2,4.3-2.9,5.3-2.7l2.7,5.4l5.3-1.3
					c1.4,2.4,0,4.5,1.3,6.7h2.7c0.5,1,0.5,3.9,1.3,5.4c0.2,0.3,2.3-1.2,2.6-1.3c0.4,2.4,0.7,2.9,1.3,4c0,0,2.4-3.9,1.3-4
					c0.9,0.3,1.7,1.4,4,1.3c-0.2,0.1,0,3.7,0,4c-1.4,0.3-3.9,0-5.3,0V12c2.4,0.5,4.1,2.5,5.3,2.7c2.2,0.4,9.4-1.5,11.9-1.3V12
					c2.9-0.2,6.6,1.3,11.9,2.7c0.5-1.8-1.1-2.7,1.3-2.7l2.7,2.7c4.1,0.9,3.1-1.9,6.6-1.3l1.3,2.7c3.7,1.4,7.2,0.7,10.6,1.3
					c-0.7-1.5,0-5,0-6.7c-3.8-0.8-3.9,0.1-6.6,0c-0.5-1-1.9-5-2.7-5.4c-1.9-0.9-4.6,0.5-6.6,0c-0.6-0.2-9.9-6.1-10.6-6.7
					c-1.3-1.3,0-4.1-1.3-5.4c2.5,0.7,7.5,2.6,7.9,2.7h2.7c-1.8,1.7,1.3,1.3,1.3,1.3c2-1.8-2.4-4.4,2.7-4c0,0,2.5,4,2.6,4
					c2.5,0.5,11.8-1,13.3,0c1.2,0.9,1.3,4.8,2.7,5.4c1,0.4,3.1-0.7,4,0c-2.7-2.7-5-4.2-8-6.7c0,0,8-3.8,4-2.7c0-0.2-0.1-4,0-4
					c1.6-0.8,1.3,1.3,4,0v-2.7c-2.8-2.3-1.2-1.6-2.7-5.4c-3.2-0.2-2.4,1.5-4,2.7l-13.3-10.7c-1.1-1.8,0-5.1-1.3-6.7
					c-0.5-0.6-3.1,0.3-4,0c-1.4-0.6-5.1-8.1,0-6.7c0.5,0.1-0.3,2.5,2.7,2.7c-0.3-1-5.3-13.1-1.3-10.7c0.6,0.3,1.7,4.6,2.6,5.4
					c0.8-1.5-0.6-2.5,0-4c0.3-0.9,3.4-1.8,4-2.7c2.2,5.7,2.7,12.7,10.6,12.1c0,0,1.8-2.2,4-1.3l-2.6,4c2.2,1.2,4.5,0.8,6.6,1.3
					c-0.9,0-0.4,5.8,0,4c0,0,3.5-1.3,5.3-1.3c-8.9,4.9,2.3,5.3,7.9,8.1c-0.5-4.7,0.6-7.4-1.3-13.4c2.4,0.7,0.7,0.3,1.3,2.7
					c1.9,0,4.8-0.4,6.6,0C938.2-35.7,940.8-41.5,941.4-44.3z M620.7-281.8c1.2,3-0.3,5.7,1.3,8.1c0.5,0.8,9,4.2,5.3,1.3
					c-0.1-0.1-2.1-7-2.6-8.1C624.1-281.6,621.2-281.1,620.7-281.8z"/>
				
					<path fill="#EDEDED" stroke="#FFFFFF" stroke-width="1.9973" stroke-linecap="round" stroke-linejoin="round" stroke-miterlimit="10" d="
					M1031.2,720.6l3,0c1.2,3.1,2,3.9,2.7,5.4c2.6,6.5,1.9,12.1,4,18.8c1.1,0,4.3-0.6,5.3,0c0.7,0.4-0.7,3.5,0,4
					c-2.2,1-4.9,2.8-6.6,4c9.4,4.9,8.6,0.4,4,10.7c1.7,0.2,1.9,2.5,2.7,2.7c3.2,0.8,2.7-1.8,6.6-1.3l-1.3,4c1.9,0.7,6.4-1.3,8,0
					c1.2,1-3.1,7.2,0,9.4h2.6l1.3-4c7-2.8,19.3,5.1,22.5,6.7v2.7c0.1,0,3-1,4-1.3l1.3,5.4h2.7c1.1,2.4-1,4-1.3,5.4
					c3.7,3,1.4,0.7,2.7,5.4c0.3-0.3,3.5,0,4,0c0.2-1,0.9-5.2,1.3-5.4c6.6-2.5,8.2,3.2,10.6,4c1.1,0.3,2.6-2,5.3-1.3l1.3,2.7
					c5.5,2.1,9.7-0.9,13.3,0c2.6,0.6,13.5,7.3,15.9,9.4c1.7,1.4,7.7,11.9,7.9,12.1c2.3,1.6,3.1-2.3,6.6-1.3c0.2,0,0,3.8,0,4
					c0.4,0.1,4.6-1,6.6-1.3c1.1,2.8,2.2,7.8,4,10.7c0.5,0.8,3.7,1.8,4,2.7c4.2,12.2-0.3,30.6-5.3,37.6c-3.1,4.3-10.1,6.4-13.3,10.7
					c-4.8,6.2-5.7,15.4-9.3,22.8c-2.4-1.7-4-2.8-6.6-4c-0.7,2.4,2.1,3.2,1.3,4c-5.9,5.7-2.6,5.6-4,10.7h-2.7
					c-0.3,3.5,0.7,1.6,2.7,2.7c-0.4,4.7,1.5,12.7,1.3,20.1h-1.3c-0.5,3.1,0,6.3,0,9.4l-2.7,1.4c-0.4,4.6,2.8,9.3,2.7,10.7
					c-0.2,1.1-4.9,2.8-5.3,4c-1.1,3.2,0.9,7.4,0,10.7c-1.2,4.4-13.3,15.3-14.6,21.5c-0.9,4.4,0.9,7.8,1.3,10.7l-5.3,2.7
					c-0.2,0.4,0.4,3.8,0,4c-5.6,2.9-8.4-1.5-9.3-1.3c-0.2,0,0,3.8,0,4c-5.6,0.8-8.2,0.5-13.2,1.3c-0.7,2.4-0.4,0.7-2.7,1.3l1.3,5.4
					c-2.4,1.8-10.5,1-13.3,2.7c-1.5,0.8-0.4,2.5-1.3,4c-2.4,3.9-11.9,7.1-15.9,9.4v2.7c-2,1.2-4.1-0.6-5.3,1.3
					c-1.1,1.6,3,1.8,1.3,2.7c-6.9,3.4,2.5,24.5,0,32.2c-1.5,4.5-8.5,8.1-10.6,12.1c-3.1,5.8-2.4,12.5-5.3,18.8
					c-0.9,1.9-4.3,3.7-5.3,5.4c2.1-4.3,3.5-8,5.3-13.4c-2.3-0.7-0.7,2.1-4,1.3c-0.5-0.1-2.2-2.2-4-2.7c-0.7,2.3,0.7,4.4,0,6.7
					c-0.2,0.8-11.8,14.4-11.9,14.8c-0.8,3.2,2.2,2.8,1.3,6.7c-0.3,1.4-2,4.5-4.3,8.1l-1,1.1l-1.6-3.4l3.8-6.2c0,0-1.1-1.6-3.5-2.6
					c-2.4-1-3.1-3.1-3.8-5.9c-0.7-2.8-2.8-2.1-5.9-3.8c-3.1-1.8-3.5-2.4-5.2-4.5c-1.7-2.1-4.8-1-5.9-3.5c-1-2.5-1.7-4.6-1.7-4.6
					l-7.6-4.9l-6.2,2.1c0,0,1.4-4.9,1.4-6.6c0-1.7,2.8-2.8,4.5-4.2c1.7-1.4,2.8-4.2,2.8-7c0-2.8,5.2-2.4,5.9-4.5
					c0.7-2.1,1.7-2.1,3.8-3.8c2.1-1.7,3.8-3.5,4.5-5.9c0.7-2.4,6.2-1.7,7.2-3.5c1-1.8,3.5-1.8,3.1-3.1c-0.3-1.4-0.3-5.9-0.7-9.1
					c-0.3-3.2-0.3-7.7-0.3-7.7s-3.8-1.8-3.1,0.3c0.7,2.1-4.5-1.1-4.5-1.1s-0.3-8,1-10.1c1.4-2.1,1.4-7.3,1.4-8.7
					c0-1.4-3.1,0-4.8,0.7c-1.7,0.7-2.1-2.1-2.4-4.9c-0.3-2.8,0.3-6.6,0.3-9.8c0-3.1-1.7-4.2-4.5-4.5c-2.8-0.3-2.4-3.1-2.4-3.1
					l-1.4-2.1l-2.4,1.4c0,0-10,0-9.7-2.4c0.3-2.4-2.1-3.8-1.4-7.3c0.7-3.5,1-6.3-0.3-8.4c-1.4-2.1-2.3-3.7-2.3-3.7l-0.8-2.3l2.3-1.2
					l-2.3-2.7c0,0,2.7-8.7,2.7-11.5c0-2.8,1-3.2,0-5.2c-1-2.1-1.7-3.5-4.1-5.2c-2.4-1.7-2.4-3.5-3.1-6.3c-0.7-2.8,0.7-5.6,0.7-5.6
					l-13.1,0.7c0,0,0.3-2.1-1.4-4.9c-1.7-2.8-2.8-4.9-1.7-7c1-2.1,3.1-4.6,3.1-4.6s-1-3.1-2.1-5.6c-1-2.4-1.4-6-2.8-7.7
					c-1.4-1.7-3.1,0-5.5,0c-2.4,0-3.8-1.7-6.9-1.7c-3.1,0-4.1-2.4-6.2-3.9c-2.1-1.4-1.7-2.5-4.5-3.8c-2.8-1.4-4.1-2.8-6.6-5.6
					c-2.4-2.8-3.8,0.7-5.9,0.4c-2.1-0.4-2.8-0.7-4.5-1.4c-1.7-0.7-2.8-2.8-3.8-5.2c-1-2.4,3.1-9.1,3.1-9.1l-1.7-2.4h-3.8
					c-2.4,0-6.9,2.1-10.4,2.8c-3.5,0.7-9.3,10.5-9.3,10.5l-2.8,0.7c0,0-2.4,1-1.4,2.4c1,1.4-3.5,3.5-5.2,2.1
					c-1.7-1.4-4.1-0.7-4.1-0.7l-9.7-3.1l1.7-26.2c0,0,0.7-3.8-1.4-2.1c-2.1,1.8-6.6,4.2-6.6,4.2h-7.9c0,0-1.7-1.8-1.7-3.8
					c0-2.1-5.2-3.5-5.9-5.9c-0.7-2.4-5.2-4.2-5.2-4.2l1.4-4.2c0,0,0-4.2-1.4-4.5c-1.4-0.4-1.4-4.6-1.7-6.3c-0.3-1.7,3.8,0,3.8,0
					s-0.3-2.1,0-4.5c0.3-2.4,1.4-3.5,2.8-5.9c1.4-2.4,1-5.6,2.1-7.7c1-2.1,5.2-3.5,7.3-5.6c2.1-2.1,5.5-2.4,7.6-3.1
					c2.1-0.7,4.5-0.7,6.9-0.7c2.4,0,2.8-3.1,2.8-3.1s9-22.7,9.3-24.8c0.3-2.1,0.7-4.6-0.7-7.3c-0.5-1-4.8-2.4-4.8-2.4l-0.3-3.1
					l6.9-0.7l-0.3-3.1l-1.6-1.4h-3.1l-0.2-5.6c0,0,2.6-0.7,5-0.7c2.4,0,11.6-1.8,11.6-1.8v-3.8l2.8,2.1l3.1-1l1-4.2l3.1,0.4l0.7,4.2
					l2.8,0.7l4.5,3.1c0,0,3.1-2.8,5.5-2.8c2.4,0,2.8-4.2,4.8-4.2c2.1,0,2.8-2.1,4.5-2.1c1.7,0,2.8-5.6,4.8-5.6
					c2.1,0,3.1-1.4,3.1-1.4s-0.7-3.5-3.1-2.8c-2.4,0.7-4.8,2.1-6.2,1.1c-1.4-1.1-2.8-1.4-3.4-3.5c-0.7-2.1,1.4-5.9,1-7.3
					c-0.3-1.4-0.7-2.1-2.4-4.5c-1.7-2.4,0-4.2-1.7-4.9c-1.7-0.7-2.4-1.8,1-1.4c3.5,0.3,6.2,2.1,6.2,2.1s4.1,0,5.5,1.4
					c1.4,1.4,5.5,1.4,5.5,1.4s-2.1-0.7-1-2.4c1-1.8,2.8-1.4,2.8-1.4s2.4,0.7,4.8,0.7c2.4,0,1.7-2.1,3.8-2.4c2.1-0.4,2.1-3.8,3.8-3.8
					s4.1-0.7,4.1-0.7l1-2.8l-0.3-2.8c0,0,4.8,2.1,6.6,1.4c1.7-0.7,2.1,2.4,2.1,2.4l-2.8,2.8c0,0,3.1,1.7,4.5,2.1
					c1.4,0.3-1.4,2.1,0,3.8c1.4,1.8,1.7,2.1,0,3.8c-1.7,1.7-4.8,3.5-4.8,3.5s0.7,10.8-0.3,13.6c-1,2.8,1.4,4.2,2.4,5.6
					c1,1.4,4.1,1.8,4.1,3.5c0,1.8,2.1,2.8,3.4,2.8c1.4,0,2.1-3.9,3.8-3.1c1.7,0.7,0.7-3.1,2.8-2.8c2.1,0.4,6.6-3.1,9-1.7
					c2.4,1.4,6.6,0.3,6.6,0.3l4.3-0.7v2.1l2.4-3.8l-3.1-2.1l1.4-4.9l3.2,2.1l2.4-1.7l1.4,2.1h4.1c0,0,0.7,3.5,2.8,4.9
					c2.1,1.4,4.8-1.7,4.8-1.7l4.7-0.5l3.2,2.3c0,0,5.2-5.6,5.5-7.3c0.3-1.8,1.4-9.8,1.4-9.8l1.7-5.6L1031.2,720.6z M1059.4,778.2
					v2.7c0,0-1.6,1-2.7,1.3C1057.6,780.6,1056.6,777.8,1059.4,778.2z M1056.7,782.3v2.7c-1.6,0.2-2.2,2.6-2.6,2.7
					C1048.1,788.5,1055.7,783,1056.7,782.3z M1038.2,763.5c0.7-0.1,1,2.9,1.3,4c2.8-0.1,3.4-0.6,6.6-1.3c-7.2,10.6-10.1,11.7,0,21.5
					c-0.4-0.3-3.6,0-4,0c-1.7-3.1-3.6-6.3-5.3-9.4c-0.2,0-4.5-0.2-2.7,1.3c-3.8,0-2,0-1.3,6.7c-1-2.1-1.6-3.4-2.7-6.7h-2.6
					c-2.7,0.6-4.2,1.8-4.2,1.9c0,0,0.9-0.7,2.9-3.2c0.8-1.1,3.2-1.5,4-2.7C1033,771.1,1032,764.2,1038.2,763.5z M1042.1,756.8
					c1.7,0.3,1.7,2.3-1.3,2.7C1041.2,758,1039.7,756.3,1042.1,756.8z"/>
				
					<path fill="#EDEDED" stroke="#FFFFFF" stroke-width="0.9993" stroke-linecap="round" stroke-linejoin="round" stroke-miterlimit="10" d="
					M715.6,564.7c-2.1-1.4-3.7,1.1-3.7,1.1l-3.1,2.1l0,23.5l4.6-0.1c3.1-7.2,6.6-18.1,5.4-23.7c-0.1-0.5-1.4-1.3-2.1-2.7
					L715.6,564.7z"/>
				
					<path fill="#EDEDED" stroke="#FFFFFF" stroke-width="0.9993" stroke-linecap="round" stroke-linejoin="round" stroke-miterlimit="10" d="
					M802.3,491.1c0.2,0.1,0,5.4,0,5.4C811.4,494.9,805.8,493.9,802.3,491.1z"/>
				
					<path fill="#DFDFDF" stroke="#FFFFFF" stroke-width="1.9973" stroke-linecap="round" stroke-linejoin="round" stroke-miterlimit="10" d="
					M258.6-105.3c-5.1-2.6-10.7-5.7-16.8-4.8c0,0,0,3.8,0,4c-3.7-0.3-5.9,0.3-7.9,0l-1.3-2.7c-3.6,0-7,0.2-10.6,0v-2.7
					c-5.7-0.8-13.3,1.8-18.6,1.3l-1.3-2.7c-2.1-0.5-1,1.8-4,1.3c-1-0.2-5.4-3.9-6.6-4c-6.7-0.7-8,3-14.6,2.7
					c-2.6-0.2-11.1-2.7-14.6-4l-1.3-2.7c-4.1-0.8-11.5,1.7-13.2,1.3c-2.3-0.5-2.4-4.5-4-5.4c-2.4,1.5-5.4,3.8-8,5.4
					c-2.4-2.3,2.5-10.7-10.6-8.1c-1.8,0.3-6.2,6-8,6.7c-2.4,0.9-5.5-0.9-7.9,0c-0.8,0.3-0.7,3.1-2.7,2.7c-0.7-0.2,0.9-3.9-2.7-2.7
					v2.7c-1,0.4-3.1,0-4,0c-0.2,0.4-1.1,2.6-1.3,2.7c-2.9,0.9-6.3-0.9-9.3,0c-3.8,1.1-5.3,7.3-8,9.4c-1.3,1-3.2-0.1-4,1.3
					c-1.3,2.3-2.8,15-4,16.1c-2.9,2.4-12.5,1-14.6,1.3c-0.7,0.1-2.6,2.6-4,2.7c0,0-5.8-2.6-7.9-1.3c0,0,0.1,9.2,0,8.1
					c0.4,0.2-1.2,2.3-1.3,2.7c3.2,1.8,7.4,2,10.6,4c1.8,1.1,4.9,6.1,6.6,6.7c1.2,0.4,4.2-0.8,5.3,0c1.4,1.1-1,5.9,1.3,6.7
					c4.4,1.5,3.9-2.8,9.3-1.3c0,0,5.6,0.4,4,0c4.4-1.3,2.5,4.1,0,4c2.6,1.2,5,2.5,8,4c-2.3-0.9,4-1.3,4-1.3c0,0.2-0.2,4,0,4
					c-4.6-0.3-5.8-0.8-9.3-1.3c0.8,0.1-2.7,2.7-2.7,2.7c1.5,0,3.8,0.2,5.3,0l1.3,5.4L88-43l-5.3,4c-6.3,0.3-13-2.9-17.2-4
					c3-0.9,0-8.9,0-9.4C59-50.2,55.4-49.3,49.6-47c0,0.5,0.2,5.2,0,5.4c-3.3,1.6-4.4-1.9-7.9-1.3c-2.7,0.4-7,5.1-9.3,6.7l1.3,2.7
					c3.8,0.1,18.5,0.5,6.6,4c1.4,1.3,1.5,3.7,4,4c0.6,1.9-0.1,3.1,1.3,4c7.2,4.6,19.6,0.5,27.8-1.3c0.7,1,2.6,5.3,4,5.4
					c0.4,0,2.1-3.9,2.7-4c5.6-2.1,10.8,0.2,14.6,0c-1.4,6.1-2.7,7.2-1.3,16.1c-1.9,0.7-5.8,3.9-8,4c-2.5,0.2-0.4-2.3-2.7-1.3
					c-0.9,0.3-4.4,5.1-5.3,5.4c-2.3,0.7-4.4-0.7-6.6,0c-0.3-0.5-2.2-3.9-2.7-4c-1.5-0.6-2.6,0.8-4,0c-3.5,5.7-9.4,7.3,0,6.7
					c0,0.2-0.2,3.9,0,4c-0.2,0.1-2.9-1-4-1.3c-0.6,0.5-0.8,3.5-1.3,4c-1.9,1.6-5.7,1.6-6.6,4c-0.6,1.5,0.7,2.6,0,4
					c-0.6,1-3.4,1.6-4,2.7c8.4,6.8,7.4,7.8,19.9,8.1l-2.6,5.4c-1.3-0.5-2.6-3.7-4-4c-2.8-0.7-6.2,1.1-2.7,2.7v2.7
					c9.1,0.2,1.6,0.6,2.7,5.4c0,0.2,3.3,4,4,5.4c4.6-0.4,10.4,2.2,11.9-4c0.2-1.1-0.6-3,0-4c0.2,0.1,5.2,0.3,2.7,2.7
					c-0.9-2.3-1.3,5.6,4,10.7c0.5,0.5-1.7,2.1-1.3,4c-0.9-0.7-0.8,0.6,2.7,1.3c-0.1,1.1-1.3,6.7-1.3,6.7c6.5,0.3,7.5-7.8,13.2-8
					c2.2-0.2,1.2,3.6,2.7,4c3.4,1.1,1.9-2.6,5.3-1.3l4,6.7c2.1-1.1,0.8-1.3,1.3-4c7.1,2.2,8.9,2.6,17.2-2.7c-1.6,2.9-0.9,5.3-2.7,8
					c0,0-6,5.2-6.6,6.7c-1,2.4,0.7,5.5,0,8l-5.3,8.1c-3.3,3.7-11.4,7.2-15.9,9.4c0,1.1,0.5,4.3,0,5.4c-3.4-0.5-3.1,0.8-5.3,1.3
					c3.3-0.2-3.5-3.4-8-1.3c-1.4,0.6-6.6,10.7-6.6,10.7c-1.5,0.7-2.4-0.5-4,0l-1.3,1.3v2.7c7.7-2.6,8.4-1.3,13.3-12.1
					c0.7,0.4,3.2,0,4,0c0,0-2.4,3.7-1.3,4c6.3,1.5,11.5-6.5,15.9-6.7c2.2-0.2,0.6,2.4,2.7,1.3l1.3-4c2.3-0.8,0.8,3.1,2.7,1.3
					c0.4-0.5,0-4.7,0-5.4c0.2-0.1,4.8-0.9,5.3-1.3c-0.2-0.4-1.8-2.4-1.3-2.7c1.2-0.9,2.5,0.5,4,0c2.5-1,6.6-5.2,9.3-6.7l-1.3-4
					c1.2-1.6,4.9-1.4,6.6-2.7c2.7-2.1,5.2-7.3,8-9.4c1.7-1.3,5,0,6.6-1.3c0.6-0.5-0.3-3.2,0-4c0.9-2.4,4.9-2.5,6.6-4v-2.7
					c-1.6-0.7-4.8,0-6.6,0c2.9-10,3.4-10.6,11.9-14.8c-0.5-1.3-2.3-1.9-1.3-4c2.9,0,2.1,0.8,5.3,0c0.7-2.8-0.5-4,1.3-5.4
					c1.2-1,4.1-0.2,5.3-1.3c1.3-1.3,0.1-3.8,1.3-5.4l6.6-5.4c3.8-1.3,1.5,2.5,4,2.7l4-2.7c4.4-0.7,1.9,2.5,0,2.7v2.7
					c4-0.4,0.9,1.7,2.7,2.7c-3.9-0.3-5.9-2.1-9.3-1.3c-0.3,0-3.4,3.8-4,4h-2.6c-0.5,1-2.1,14.1-2.6,16.1c1-0.4,3,0,4,0v2.7
					c-1.6,0.8-4,1.6-5.3,2.7c0,0,3.4,2.2,2.7,2.7c5.7-2.1,4.8-2,10.6-4v-2.7c1.5-1,4-0.2,5.3-1.3c1.6-1.5,1-5.9,4-6.7
					c3-0.9,6.4,3.2,9.3,2.7c0.5-0.1,2.2-3.3,4-4c-0.7-0.5-1.7-9.3-1.3-5.4c-1.7-0.6-1.7-0.6-4-1.3c0-1.8,0.7-5.1,0-6.7
					c6.2,1.1,10.8,3,14.6,0c1.3-1.1-1.9-2.3,1.3-1.3c0.2,0,0,3.8,0,4c2.2,0.8,4.3,1.3,0,1.3c1.6,0.5,4.3,1.8,6.6,2.7
					c-1.5,0.7-1,4.8,0,5.4c2.9,1.7,4.1-2.1,6.6-1.3c0,0,1.1,3.9,1.3,4c2.4,1.5,4.2,0.1,6.6,1.3v1.3c6.9,1.2,9-2.2,15.9-1.3
					c6.1,0.8,18,10.5,25.2,8.1c0.5-0.2,1.2-2.4,2.7-2.7l-1.3,6.7c0.9,0.8,8,4.4,9.3,4c0.2-0.1,0-3.8,0-4c0.8,0,3.1,0.4,4,0
					c0.9,0.6-2.1,5.4-1.3,8h2.7l5.3,8.1c0.8-0.3,2.3-2.6,4-1.3c0.2,0.2,0,3.7,0,4c2.2,0.8,2.6,0,4,1.3c-0.4,0.7-1.9,1.8-1.3,2.7
					c0.3,0.4,2.3-1.2,2.7-1.3c0.8,1.3-0.7,3.9,0,5.4c0,0,6.5,3.8,6.6,4c0.8,1.3-0.6,2.6,0,4c0.9,2.3,4.8,6.7,6.6,9.4
					c2-0.4,1.9,2.6,2.7,2.7c2.5,0.3,1-2.3,1.3-4c1.4,1.4,2.2,1.4,4,2.7c-0.2,0.4-1.9,2.2-1.3,2.7c0.8,0.6,3.2,0.6,4,1.3
					c0,0-1-4-1.3-5.4c2.3-1.8,0.7,1,1.3,1.3h2.6c0.4-2.3,0.2-5.4,1.3-8.1h-2.7c2.2-1.3-3.9-1.3-4-1.3v5.4c0,0-5.1-1.1-5.3-1.3
					c-1-0.8-0.4-5.8-1.3-6.7c-0.2-0.2-3.9-1.3-4-1.3c0.4-0.2,3.7-2.6,4-2.7c-0.2-0.1-1.3-3.9-1.3-4h-2.7c-0.8-1.4,2.6-2.9-2.7-5.4
					c-2.7-1.3-11.9-0.6-6.6-1.3c3.2-0.5,4.9-1.5,7.9-2.7c0.4,1.7-1.3,2.9,1.3,2.7c-1.4-0.8-1.4-8.9,0-9.4c1.2,2.3,4.1,5.8,5.3,8.1
					c0.7,0,3.2-0.5,4,0v2.7c1,0.5,3.2-0.7,4,0c1.6,1.5-0.8,2.4-1.3,2.7c-0.5,0.2,1.3,2.7,1.3,2.7c3.9,3.5-0.2,3.1,2.6,9.4
					c0,0,3.8,0,4,0c0.4,3.1,0.3,3.6,1.3,5.4c-1.6,1.2-2.4,1.2-2.6,4c0.9-0.4,1.9,0.9,2.6,1.3c0,0,0-3.9,0-4c1.9,1.2,2.8,2.9,5.3,2.7
					c-0.3,0.6-1.9,1.8-1.3,2.7c0.3,0.4,2.3-1.2,2.6-1.3c-0.2,2.8,0.3,6.1,0,10.7c2.9-0.8,1.3-1.5,2.6-4c0.7,2.5,1.8,5.8,2.7,9.4
					c2.5,0,1.4-2.1,4,0c0.3-2.9-0.2-4,1.3-5.4v1.3c0,5.2,1,3.1-2.7,6.7c1.3,1.3,1.3,4,1.3,4c1.3,1.1,3.4,0.8,5.3,1.3
					c-0.3-1,1.8-4.3,4-5.4c0.8-0.4,1.1-0.5,1.3-0.5c1.3-1.4,2.2-2.2,2.5-2.7c0.7-1.4,0.7-2.2,0-3.9c-0.7-1.8,2.9-3.9,1.1-4.3
					c-1.8-0.4-0.4-4.3-2.6-5.7c-2.2-1.4-2,2.2-3.1-1c-1.1-3.2-2.6-1.8-4.8-3.5c-2.8-2.1-2.5-1.7-6.2-3.5c-3.7-1.8-1-8.1-4.7-9.9
					c-3.7-1.8-3.7-6.1-5.9-9.3c-2.2-3.2-9.2-9.7-11-12.2c-1.8-2.5-4.4-6.8-8.1-7.2c-3.7-0.4-3.7-2.5-3.7-5c0-2.5-4.8-2.2-6.3-5
					c-1.5-2.9-5.5,0-8.1,0c-2.6,0,1.2,2.5,0,5.3c-1.1,2.9-4.8,2.1-8.1,4.3c-5.1,4.6-1.8,1.4-3.6-2.2c-1.8-3.6-8.9-6-10.7-9.3
					c-1.8-3.2-1.8-3.3-2.9-6.1c-1.1-2.9,1.8-9.7-4.5-3.2c-1.3,1.3-4.4-1.1-5.9-2.2c-1.5-1.1-7.8,2.2-7.8,2.2L258.6-105.3z
					 M3085.5,42.9c-0.3,0.3-1.2,3.7-1.3,4c-1.5-2.3-1.3,2.7-1.3,2.7c1.5,1.4,2.8,1.9,4,4c3.6-2.1,11.4-4.2,5.3-8.1
					C3090.8,44.6,3087.2,43.5,3085.5,42.9z M3096.2-1.4c0,0-1.2,6.6-1.3,8.1c11.1-3.4,10.7-4.9,18.6,2.7c-3.1,0.2,4,4,4,4
					c1.4-3.1,0.5-4.7,2.7-6.7c-2.5-1.4-4.5,0.1-6.6-1.3c-1.4-1-0.7-2.1-1.3-4c-1.2-0.2-3.6-2.6-4-2.7c-2.2-0.2-8.3,3.1-10.6,4
					C3097.1,0.3,3098.7-0.9,3096.2-1.4z M27.1,142.2c-0.5,0.3-8,11.1-1.3,6.7v-2.7C29.5,144.2,31.2,139.5,27.1,142.2z M37.7,138.2
					v2.7c0,0-14.5,11.2-1.3,5.4c2-0.9,7.5-5.6,5.3-6.7C40.9,139.1,40.2,137.1,37.7,138.2z M312,91.2l1.3,2.7
					C312.8,92,314.3,91.2,312,91.2z M316,85.8c2.3,0.2,1.2,1.6,2.7,2.7C317.9,88.3,310.9,85.4,316,85.8z M76.1,122.1
					c-1.9,0.4,1.3,2.7,1.3,2.7S80.6,121,76.1,122.1z M64.2,120.7c-4.5,0.5-12.5,10.4-6.6,9.4l1.3-2.7c2.1-0.8,15-2,9.3-5.4
					C67,121.3,66.9,120.4,64.2,120.7z M98.6,119.4c-1.9,0.4-1.7,2.3,1.3,2.7C99.5,120.6,101,118.9,98.6,119.4z M92,115.4l1.3,2.7
					C96.4,118.7,93.9,115.8,92,115.4z M333.2,104.6c0.5,1-0.8,4.7,0,5.4c0.3,0.3,3.5,0,4,0c0,0.8-0.5,3.2,0,4
					c0.5-0.3,1.9-1.9,2.6-1.3c1,0.8-1,4.4,0,5.4c0.6,0.6,7.7,3.4,8,4c0.5,1.4-0.8,4,0,5.4c0.3,0,3.8-0.2,4,0c-1.7-4-1.7-3.9-2.7-8.1
					c2.2,1.4,1.1-2,1.3-2.7c-0.4-0.3-3.6,0-4,0c-0.2-1.7-2.4-1.9-2.6-2.7c-0.8-2.6,1.2-3.6,1.3-4v-2.7c-1.7-0.9-3.8-1.4-5.3-2.7
					C348.9,112,338.1,107,333.2,104.6z M158.3,77.8v2.7c-3.4,0-5.7-2-8-1.3c-1.2,0.3,1.3,4,1.3,4c-3.2,0.2-4.8,0.9-7.9,1.3
					c1,4,0.9,3.8,1.3,6.7c3.1,0.4,3.6-1.6,5.3-1.3c0.4,0,2.9,2.8,4,2.7c1-0.2,0.8-2.9,4-2.7c0,0-2.6,2.4,1.3,2.7
					c-0.4-1.2-0.4-4-1.3-4c1.1,0,4.3,0.5,5.3,0c0,0-3.3-2.3-2.7-2.7c0.8-0.6,4.3,0,5.3,0C163.9,83.7,163.6,78.5,158.3,77.8z
					 M321.3,76.4c1.7,5.8,2.2,9.5,4,16.1c0.5-1.2,3.6-0.6,4-1.3c1.8-3.7-1.2-12.4-2.7-13.4C325.2,76.9,322.3,77.1,321.3,76.4z
					 M160.9,68.4c-1.1,2.4-1.4,5.5-1.3,5.4c-1,0.3-4.3,4.9,0,2.7c3.8-2.1,2-2.4,6.6-4L160.9,68.4z M306.7,64.4
					c3.4,0.6,7.1,4.6-1.3,5.4C305.5,68.1,304.2,63.9,306.7,64.4z M317.3,60.3c2,1-1.3,2.7-1.3,2.7C316.2,62.1,315,59.2,317.3,60.3z
					 M209.9,42.9c-2.7,6-3.4,7.1,1.3,4C211.2,46.8,210.9,40.7,209.9,42.9z M45.6,41.5L43,44.2c-2.6,0.4-2.3-0.8-4-1.3
					c0.7,0.5-2.7,2.7-2.7,2.7c1.7,0.6,5.8,3.9,8,4C51.1,49.9,55.7,42.1,45.6,41.5z"/>
				
					<path fill="#DFDFDF" stroke="#FFFFFF" stroke-width="1.9973" stroke-linecap="round" stroke-linejoin="round" stroke-miterlimit="10" d="
					M826.1,342.1l1.3,2.7C827,343,828.5,342.1,826.1,342.1z M824.8,318c3.8-1,0,2.7,0,2.7C822.3,321.2,823.4,318.4,824.8,318z
					 M700.3,438.7l1.3,4C704.9,443.8,706.9,439.4,700.3,438.7z M691,432c1.8,0.9-1.3,2.7-1.3,2.7C689.9,433.8,688.5,430.8,691,432z
					 M850,301.9l-2.7,2.7c-1.6,0.6-2.4-0.6-4,0c-5.4,2.1,13.2,2.7,13.2,2.7c1.1-0.4,0.8-2.6,1.3-4
					C860.4,303.3,853.3,301.1,850,301.9z M512.1,291.1v4c3.6,0.6,4.2-0.3,4.3-0.3c0.1,0-0.2,0.9,1,4.3c0.2,0.5,0.1,1.9,0,1.3
					c-0.2,0.3-1.4,2.6-1.3,2.7C515.8,302.9,503.6,291.1,512.1,291.1z M875.2,289.8c0,0-2.9,4.1,0,2.7
					C875.2,292.4,878,288.3,875.2,289.8z M847.3,254.9c1.7,0.8-1.3,4-1.3,4C846.2,257.9,845,253.7,847.3,254.9z M733.4,241.5
					l1.3,2.7C734.2,242.3,735.9,241.5,733.4,241.5z M427.3,222.7c2.6-1.2,0.2,0.8,1.3,1.3c-0.7,0.2-9,4.4-4,0
					C425.6,223.1,425.9,223.3,427.3,222.7z M429.9,210.6c0.2-1.2-1.2,7.3-1.3,8.1C428.8,216.7,425.8,210.6,429.9,210.6z
					 M899.7,252.2l0.2-1.5c0,0-0.5-1.4-2.2-1.4c-1.7,0-0.7-2.8-0.7-5.2c0-2.5-3.5-1-3.5-1s-0.5-7.5,0.2-12.4c0.7-4.9-2.4-5.9-5.9-7
					c-3.4-1-4.1,6.3-4.8,2.1c-0.7-4.2-3.1-1.4-3.1-1.4l-2.4,5.6c0,0-2.8,4.5-2.4,6.3c0.3,1.7-5.9,7.3-7.6,8
					c-1.7,0.7-2.8,3.1-2.8,3.1s-22.4,3.8-24.9,3.1c-2.4-0.7-2.1-1.8-9.3,2.4c-7.3,4.2-7.6,6.3-7.6,6.3l-1.5,2.4c0,0,2.6-2.5,3.3-2.7
					c-4.6,17.8-12.3,14.1-29.2,14.8c-0.5,2.3,0.6,3.1,1.3,5.4c-3.5,3.5-9.4,9.4-14.6,10.7c-2,0.5-4.9-1-6.6,0v2.7
					c-0.7,2.1-8.5,5.9-11.9,5.4l-1.3-2.7c3.4,1.1,0-2.7,0-2.7c-1.5-0.5-3.9,0.6-5.3,0c1.4-1.9,2.4-3.8,4-5.4
					c0.7-0.3,1.7-1.3,1.9-1.7c0.5-0.7,0.3-0.8,1-1.3c-0.5-1.1,1-4.4,2.4-5c-0.5,0.2-0.4,2.4-0.7,3.9c0.6-0.5,0.9-1.1,0.9-2
					c0-1.7,0.7-3.8,1-5c-1-3.6-2.9-7.8-3.9-11.6c-0.5,0-3.8,0.3-4,0c-1.7,1.3-0.1,1.9-4,4c4.2-10.6,3.8-12.7,0-22.8
					c-1.1,0-4.4,0.5-5.3,0c-1-0.6-0.8-3-2.7-4c-1.9,1.8-3,5.5-5.3,6.7h-1.3c-0.2,0.5,0.2,3.9,0,4c-0.7,0.3-5-0.6-5.3,0
					c-1.3,2.3,0.6,6.7,0,9.4h-2.7c0.5,7.2,2.7,13.2,1.3,20.1c-0.1,0.6-5.8,8.8-6.6,10.7c-0.9,0-3.3-0.6-4,0
					c-4.5-10.3-5-20.1-1.3-32.2h2.7c0.2-0.8,1.3-4,1.3-4v-5.4c-0.8,0.5-3,2.8-4,2.7c0,0.2,0.2,3.9,0,4c-0.9,0.5-3.5-0.8-4,0
					c2.4-3.1,6.9-14.4,9.3-16.1c0,0,7.1,0,10.6-1.3c0.1,0,1.3-2.7,1.3-2.7c3.1-0.6,2.2,1.9,5.3,1.3c-1.7,0.2,3.6,1.3,4,1.3v-2.7h1.3
					l1.3,2.7c0,0,5.1-0.5,2.7-1.3c-1.7-0.6-1.9-2.4-2.7-4c-1.9,0-5,0.6-6.6,0c0-0.7,0.3-6.6,0-6.7c-3-0.9-10.4,6.8-17.2,5.4
					c-3.4-0.8-5.3-6.7-5.3-6.7c-3.4-1.4-6.4,1.5-7.9,1.3c2.9-1.8-5-2.2,4-4c-1.1-0.2,2.6-2.7,2.6-2.7c-0.5-1-1.7-1.5-1.3-2.7
					c-6.6,4.2-11.3,7.3-18.6,10.7v1.3c-4.8,0.5-4-3.6-6.6-4c-0.9-0.2-6.4,1.2-9.3,1.3c0.8-0.7,4.9-6.5,5.3-6.7
					c5-3.8,11.2-4.2,15.9-8.1c-0.2-0.9-0.7-1.1-1.2-1.3c-1-0.3-2.4-0.3-3.8-2.1c-1.4-1.8-2.4,0-4.8-0.4c-2.4-0.4-3.2-0.8-5-0.5
					c-2.3,0.4-3.2-0.5-5.3-0.5c-2.1,0-4.8-2.4-6.2-3.5c-1.4-1-4.1,0-4.5,2.1c-0.3,2.1-3.1-1.4-5.9-1.4c-2.8,0-4.1-1-4.1-1s-2-8-4-8
					c-2.1,0-1.8,4.1-1.8,4.1L427,199.8c1.2,2.9-1.1,5.4-0.7,7.7l-0.4,1.8c0,0-1.2,2.4-1.3,2.7c-4.6-0.4-10.5-1.4-17.2-2.7
					c0.5,1.3,0.4,4.7,1.3,6.7c1.2,2.6,7.4,8.1,7.9,13.4c0.3,3.5-2.6,8.4-2.7,10.7c-0.2,3.6,1.9,11.6,1.3,17.4
					c-0.9,8.7-6,21.2-2.7,30.9c0.2,0.8,3.7,1.9,4,2.7c0,0-1.6,8.5,0,9.4c-0.3,1.3-4,12.1-4,12.1c0.1,0.9,3.6,3.3,4,4
					c3,6.5,0.2,7.4,2.7,13.4c0.6,1.5,5.2,7.7,6.6,10.7c3.3-1.5,1.3-4,1.3-4c2.5,0,2.5,2,4,1.3c-2.5,1.4,0.2,7-2.6,9.4l6.6,2.7
					c-1.1,2.6-3.4,4.3-2.7,8.1c0.7,3.2,9.9,9.5,10.6,10.7c0.3,0.6-2.7,2.7-2.7,2.7l2.7,1.3c1.9,3.1,0.7,6,1.3,10.7
					c3,0.8-0.5-1.6,2.7-1.3c1.3,0.1,7.8,3.3,10.6,4c0,0.2-0.1,4,0,4c2.5,1.2,2.7-2.3,4-1.3c1.6,1.3,2.4,5.4,4,6.7l4,1.3
					c0.8,1.5,0.9,3.1,0.9,4.7l22.1-2.1v3.1l22.8,12.3l27.8,1.5l0.3-5.6l16.9,0.4c0,0,1.7,1.1,3.1,2.4c1.4,1.4,1,1.4,2.1,3.1
					c1,1.8,1.4,3.1,3.8,3.8c2.4,0.7,2.8,2.1,5.5,4.9c2.8,2.8,1.7,2.4,1.7,5.2c0,2.8,2.1,4.8,4.2,6.5c2.1,1.8,5.6,2.6,8,1.5
					c2.4-1.1,2.4-4,3.8-5.8c1.4-1.8,1.6-0.9,4.4-0.2c2.8,0.7,3.8,0,5.5,1c1.7,1,1.7,1.7,3.5,4.2c1.7,2.4,2.8,2.8,4.5,4.9
					c1.7,2.1,0.7,2.8,1,4.9c0.3,2.1,2.4,4.2,4.8,6.6c2.4,2.4,0.7,2.8,2.8,5.9c2.1,3.1,3.4,8.7,3.4,8.7s0.7,3.2,2.4,4.3
					c1.7,1.1,5.6,3.1,8,3.1c2.4,0,4.2,3.1,4.2,3.1l1.9-0.4c-1.3-2.7-3-5.3-3.8-7.2c2.1-1.1,0.1-6.8,0-8.1h2.7c0.5-1.3-0.9-4.2,0-5.4
					c1.7-2.4,7.1-2,9.3-4c1.6-1.5-0.7-4.2,1.3-5.4c2.2-1.4,5,0,6.6-1.3c0.5-0.5,4-9.4,4-9.4c0.2-0.2,3.3,1.7,5.3,1.3
					c2.9-0.6,7.4-6.5,9.3-6.7c3.8-0.4,15.9,4.2,17.2,5.4c0.7,0.6,0.2,3.7,1.3,4c3.8,1.1,3.3-1.9,6.6-1.3c-0.5-1.3-1.5-3.5-1.3-4
					c0.2-0.8,3.7-1.9,4-2.7l4,5.4c1.4,0.5,3.9-0.7,5.3,0v2.7c1.6,0.4,4.6-1.7,2.7-2.7l-4-1.3c-0.7-2.5,1.1-2,1.3-2.7
					c-0.6-0.4,1.1-2.3,1.3-2.7c-3.1-1.6-4.1-1.7-6.6-2.7h-1.3l-1.3-2.7c1.6-0.3,3.2,2.2,6.6,1.3v-2.7c5.9,0.7,4.5,0.1,10.6,1.3
					c-1.7-1.1,1.3-2.7,1.3-2.7c1.9,1.7,0.1,4,4,4l2.7-4c0,0,3.5,2.3,4,2.7c0.9-0.7,0.7-3.3,2.7-2.7c2.4,0.7,1.3,4,1.3,4
					c1.8,1.1,4.2,0.1,6.6,1.3c1.2,0.6,0.7,2.4,1.3,4c2.3-0.3,3.8,0.6,6.6,1.3c0.3-0.5,2.1-3.9,2.6-4c1.5-0.6,2.5,0.8,4,0
					c0.7,1.3,1.4,5.5,2.7,6.7l4,1.3c1.6,5.1,0,13.3,0,18.8c3.7-1.3,1.8-1.4,5.3-1.3c-0.6,2.7-4,4.7-2.6,9.4c0,0,5.1,2.3,5.3,2.7
					c1.5,2.4,0,3.7,1.3,6.7c0.3,0.8,3.8,3.6,4,4c0.3,0.9-0.7,3.1,0,4c1.1,1.4,5.1,1.5,6.6,2.7c1.1-7.8,3.6-14.1,2.7-22.8
					c-0.2-1.8-2.9-11.8-4-14.8l-2.7-1.3c-0.5-2.5,2.4-0.5,1.3-4c-0.4-1.1-3.8-4.3-4-5.4c-0.7-3,0.9-6.5,0-9.4c0,0-6.7-4.4-2.7-4
					c1.1,0.1,1.4,0.1,1.4,0.1c0-0.1-1.3-0.5-0.1-1.4c0,0,5.3-1.3,1.3-1.3c-3.2,0,3.7-11,4-12.1c0.3-1.3-0.8-4.3,0-5.4
					c0.4-0.6,3.2,0.3,4,0c1.3-0.5,0.5-3.4,1.3-4c2-1.4,8.1-2.3,9.3-4c1.3-2.1-0.5-4,1.3-5.4c2.9-2.1,6.4-0.5,9.3-2.7
					c2.2-1.7,1.9-6.1,4-8c0.4-0.4,3.7-1,4-1.3c-0.5-0.9-2.6-5.4-2.6-5.4c2.2-0.9,3.8-0.8,5.3-1.3l-1.3-2.7c-2.4-0.1,6.7-1.4,9.3-1.3
					c-1-0.5-2.2-3.9-2.6-4c-1.1-0.5-4.1,0-5.3,0v-2.7c1.5-0.5,4.3-0.4,5.3-1.3c0,0-0.3-4.7,0-5.4c-1.4-0.9-3.6-0.3-5.3-1.3
					c-1.8-1.1-0.7-2.8-2.7-4c0,0,5.1-5.3,4-5.4c-4.3-0.4-0.7-3-1.3-4c-1.1-1.8-3.4-1.6-5.3-2.7c0.6-2.4,0.4-0.8,2.6-1.3
					c0.4-1.9-1.9-3.5-1.3-4c3.6-3.6,2.4-6,4-12.1c2.2,0.4,3.1-0.7,5.3-1.3c-0.3,1,2.1,2.2,1.3,2.7c-4.9,3-3.9,14.6-5.3,14.8
					c0.1,0.3,1.6,2.5,1.3,2.7c1.4,0.3,2.4-2.1,5.3-1.3v2.7c0.7,0,3.2-0.2,4,0c1.2-4.8,1.4-7.3,2.7-13.4c-1.6-0.6-3.5,0-4-1.3
					c-0.3-0.8,0.4-3.3,0-4c13.7,0.8,9.6-1.1,15.9-10.7l-4-2.7c-1.1-3.7,2.4-1.5,1.3-4c2.1-1.7,5.5-6,8-6.7c1.5-0.4,3.8,0.6,5.3,0
					l1.3-2.7c4-0.8,3.2,1.8,6.6,1.3c0.2-2.6,0.4-3.7,1.3-6.7c2.9,1,1.2,1.3,2.7,4c0,0,4.8,0.2,2.6-1.3c1.9-0.7,1.2-1,4-1.3
					c-2.1-1.5-4.1-2.6-6.6-4c0.9-2,3.5-3.1,4-4c1.4-3.3-1.8-1.7-1.3-4l2.7-1.3c1.7-2.7,1.5-6.3,2.6-9.4c8,0,8.9,0.8,13.3-8.1v4
					l4-2.7c-1.2,0.4,2.7,2.7,2.7,2.7c1.9-1.4,4.3-3.7,6.6-5.4c-0.9-2.6-2-5-2.6-8.1C898.9,251.1,899.7,252.2,899.7,252.2z"/>
				
					<path fill="#DFDFDF" stroke="#FFFFFF" stroke-width="0.9993" stroke-linecap="round" stroke-linejoin="round" stroke-miterlimit="10" d="
					M470.5,401.9c0,1.7-0.1,4.2,0.5,6c0.2,0.5,1,2,1.3,4h2.6c2.2,4,0.5,7.4,2.7,12.1c1.8,3.9,7.4,7.9,10.6,10.7
					c0.7,0.6,3.1,0.6,4,1.3c4.2,3.7,3.4,14.1,4,21.5c-3.7,1-5.5,1.7-8,2.7c3.6,2.6,6.6,4.4,10.6,6.7v2.7c2.7,1.8,5.6,0.8,8,2.7
					c0.7,0.6,2.1,5.1,2.7,5.4h2.6c2.3,4.8-0.9,10.5,1.3,16.1c0.3,0.9,4.5,1.9,5.3,2.7v2.7c0.7,2,11.2,11.4,13.3,16.1
					c0.7-3.6,0.1-1.3,2.6-2.7c-0.7-1.4,0.5-3.9,0-5.4c-0.5-1.4-4.6-2.9-5.3-4c-1-1.6,0-3.1-1.3-4c-1.2-0.9-3.4-0.1-4-1.3
					c-0.4-0.8,1.9-3,1.3-5.4h-2.7c-2.2-8.7-2-13.6-5.3-21.5c-0.1-0.3-3.7-0.6-4-1.3c-1-2.3,0.8-4.5,0-6.7h-2.7
					c-2.6-5-3.9-9.6-5.3-16.1c-0.2,0-4,0-4,0c-1.5-3.5,0.1-8-1.3-10.7c-0.2-0.3-3.5,0-4,0c-1.9-4.2-1.9-7.6-4-12.1
					c-0.4-0.8-3.5-3.1-4-4c1.5-1.3,0.7-4.4,1.3-6.7c2.4,1.2,4.9,3.1,6.6,4c0,0,3.9-2.3,2.7-2.7c0.3,0.2,3.6,0,4,0c0.3,1.1,0,2.9,0,4
					h2.6c0.8,3-1.7,5.6-1.3,6.7c0.3,1.1,4.8,4.2,5.3,5.4c1.3,3-0.3,5.1,1.3,8.1c0.5,1,6.2,4.7,6.6,5.4c0.8,1.2-0.6,3.9,0,5.4
					c0.5,0,0.9,0,1.3,0c3,1.5,5,6.4,6.6,9.4c0.3,0,3.8-0.3,4,0c0.8,1.1-0.6,4,0,5.4c0.6,1.5,2.8,0.3,4,1.3c0.7,0.6,0.5,4.7,1.3,5.4
					c0.2,0.2,5.8,2.1,6.6,2.7c-1.7,1.4-1.6,3.2-4,4c0,0.8,0.4,3.2,0,4c4.4,3.5,10.1,6.1,13.3,10.7c1.4,2.1,0.8,5.3,2.6,6.7
					c1.2,0.9,3.4-0.2,4,1.3c0.5,1.4-0.9,2.8,0,4h2.6c1,1.9,3.5,5.6,4,6.7c0.5,1.5-0.8,2.6,0,4c1.9,3.4,6.5,6.7,8,10.7
					c4.5,13.3-7.5,19.1,0,29.5c2.2,3,6.2,1.7,9.3,4c0.4,0.3,8,12.1,8,12.1c3.5,2.2,8.5,0.8,11.9,2.7c3.2,1.8,7.1,7.7,10.6,9.4
					c4.1,2,8.6,0.8,13.3,2.7c1.9,0.8,3.8,4.7,5.3,5.4c0.8,0.3,11.9,2.7,11.9,2.7c5.1,0.3,6.9-2.2,9.3-2.7c8.2-1.9,12.8-0.3,19.9,1.3
					c0.3-1.3-1.2-3.4,1.3-2.7c3.2,0.8,4.6,6.3,6.9,8.4c0,0,3.2-2.9,1.8-4.3c-1.4-1.4,5.2-8.4,5.2-8.4l10.4,0.4c0,0,0-3.8-2.1-5.2
					c-2.1-1.4-4.5-5.6-4.5-5.6l-0.3-3.1h3.1l1-4.5h14.8l3.1-2.1c0,0,1.6-2.5,3.7-1.1l0.6-1.1c0.7,0.5,2.7-2.7,2.7-2.7
					c0.2,0.1,0,3.7,0,4c0,0,6.5,1.8,4,0c0,0-0.6-4.9,0-8c0.5-2.7,6.9-26.3,4-28.2c-6.4-4.1-20.5,4.4-26.5,6.7
					c-0.7,4.9,0.4,8.9-1.3,13.4l-2.6,1.3c-0.6,2,1,4.9,0,6.7c-0.2,0.3-3.6,1-4,1.3c-0.3,0.3-1.2,3.7-1.3,4c-3.1-0.5-1.9,1.8-4,1.3
					v-2.7c-3.6,0.3-5.2-0.4-6.6,0c-0.5,0.1-2.1,3.7-2.7,4c-2.1,1.1-5-0.1-6.6,1.3c-0.7,0.6-0.1,3.7-1.3,4c0,0-4.5,1.2-1.3-1.3
					c-2.2-0.5-4,0.7-6.6,1.3c-0.3-1.1-0.8-5.1-1.3-5.4c-2.9-1.5-6.5,0.4-9.3-1.3c-1.1-0.7-1.9-5.4-2.6-6.7
					c-4.8-7.7-8.7-13-11.9-22.8c-0.3,0.1-2.5,1.6-2.7,1.3c1.2-0.6,1.4-8.6,0-9.4l2.7-2.7c1.2-4.5-2.5-9.2-2.7-12.1
					c-0.2-3,1.4-5.4,1.3-6.7c-0.1-1.2-2.9-8.1-2.6-9.4c0.5-2.2,7.5-5.6,8-8.1c0.5-2.6-0.4-5.2-1.5-7.6l-1.9,0.4c0,0-1.8-3.1-4.2-3.1
					c-2.4,0-6.3-2-8-3.1c-1.7-1.1-2.4-4.3-2.4-4.3s-1.4-5.6-3.4-8.7c-2.1-3.1-0.3-3.5-2.8-5.9c-2.4-2.4-4.5-4.5-4.8-6.6
					c-0.3-2.1,0.7-2.8-1-4.9c-1.7-2.1-2.8-2.4-4.5-4.9c-1.7-2.4-1.7-3.1-3.5-4.2c-1.7-1-2.8-0.3-5.5-1c-2.8-0.7-3-1.6-4.4,0.2
					c-1.4,1.7-1.4,4.7-3.8,5.8c-2.4,1.1-5.9,0.2-8-1.5c-2.1-1.7-4.2-3.7-4.2-6.5c0-2.8,1-2.4-1.7-5.2c-2.8-2.8-3.1-4.2-5.5-4.9
					c-2.4-0.7-2.8-2.1-3.8-3.8c-1-1.7-0.7-1.7-2.1-3.1c-1.4-1.4-3.1-2.4-3.1-2.4l-16.9-0.4l-0.3,5.6l-27.8-1.5l-22.8-12.3v-3.1
					L470.5,401.9z"/>
				
					<path fill="#DFDFDF" stroke="#FFFFFF" stroke-width="1.9973" stroke-linecap="round" stroke-linejoin="round" stroke-miterlimit="10" d="
					M559.8-83.2c1.3,0.5,6.6,6.7,0,4C559.6-79.3,556.6-84.4,559.8-83.2z M661.8-151.7c4.3-0.9,1.3,2.7,1.3,2.7
					C662.1-149.4,657.6-150.9,661.8-151.7z M1013,214.7c-0.4,0.2-0.7,3.7-1.3,4C1008.8,220.1,1012.2,215,1013,214.7z M795.7,257.6
					c-0.2,0,0,3.8,0,4C791.2,262.9,793.3,258.1,795.7,257.6z M775.8,249.5l1.3,2.7C776.6,250.4,778.4,249.5,775.8,249.5z M911,245.5
					c1.8,0.9-1.3,2.7-1.3,2.7C909.8,247.3,908.5,244.3,911,245.5z M839.4,245.5c2.9,0.3,5.7,5.2,0,4
					C839,249.5,836.3,245.1,839.4,245.5z M762.5,241.5c1.3,0.5,5,3.7,6.6,4c8.5,1.7,2.8-3.3,0-4
					C766.8,240.9,764.9,242.1,762.5,241.5z M964,236.1c2.5,1.1,3.1,3.6,0,4c1.7-1.6,2.7,1.3,2.7,1.3H964l-1.3,4
					c0,0-16.7,4.1-5.3-1.3c2.2-1.1,1-2.6,1.3-5.4C960.6,238.1,962.5,237.4,964,236.1z M789,232.1c4,0,1.2,3.9,1.3,4
					c-2.5-0.7-9.1-0.9-4-2.7C788.5,232.6,786.6,232.1,789,232.1z M926.9,226.7v2.7c-2.4-1.8-0.7,1-1.3,1.3c-3.1-2.7,1,4.7,2.6,5.4
					c3.8,1.6,7.6-1,10.6,0c0,0,0,3.6,0,4c0.9,0,3.2-0.4,4,0c-0.2-0.8-1.7-5.3-1.3-5.4C930,234.1,928.3,235.4,926.9,226.7z
					 M964,225.4l-2.7,2.7c-3.1,0.7-3.4-0.9-5.3-1.3c-3.4,6.5-4.8,9.5-6.6,18.8l5.3,1.3c0.2-1.5-2.3-3.5-1.3-6.7
					c0.2-0.7,3.6-1.9,4-2.7c0.4-0.9-1.9-4.1,0-6.7C957.3,230.8,968.8,224.5,964,225.4z M999.7,224c0.3,0.1,1,5.2,1.3,5.4
					C1003,230.2,1003.8,225.5,999.7,224z M948.1,216c-0.4,0.2-3.6,5.5-1.3,4C947.1,219.8,950.3,214.4,948.1,216z M922.9,187.8v2.7
					c6.2,3.5,10.5,7.8,18.6,9.4c0.3,0,7.4,2.5,2.7-1.3C936,192,935.2,191,922.9,187.8z M410,187.8c0.3,0.2,0.9,3.6,1.3,4
					C417.3,197.2,411.4,189.1,410,187.8z M716.2,181.1c1.7,2.1,12.7,10.7,4,10.7c-5.8,0-4-2.7-4-2.7c-1.9-0.7-1.3,1-4,0
					c0.7-2.1,0.2-3.8,1.3-6.7L716.2,181.1z M387.5,177.1h5.3l-1.3,4c0.6,0-5.1,0.3-8,0c0.4-0.2-1.2-2.4-1.3-2.7
					C384.4,177.9,386.4,177,387.5,177.1z M854,169c3.5-1.3-0.5,0.4,1.3,1.3c-2.3,2.1-4.3,8-8,9.4C838.3,183.2,851.7,169.8,854,169z
					 M994.4,163.7c-4.6,1.7-5,7.8-5.3,8.1c-0.5,0.3-3.8-0.4-4,0c-0.9,1.8,0.4,4.7,0,6.7c-1.3,6.3-5.1,13.2-6.6,17.4
					c0.8,0,3.1-0.1,4,0c-0.2,0.6,0.7,4.1-1.3,2.7v2.7c-2.7,0.3-1.7-3.9-5.3-2.7v1.3l-0.6,3.3c-0.4-0.8-2-0.6-2-0.6s1.3,1.3-1.3,1.3
					l2.7,2.7c-2.2,2.7-10.5,11-4,12.1c1,0.1,3.7-2.6,4-2.7c4.7-1.3,12,1.4,14.6,1.3c3.7-0.2,2.5-2.4,5.3-2.7
					c0.4,1.7-1.2,2.9,1.3,2.7l7.9-2.7c6.4,0.4,1.5,0.1,2.7,4c0.3,1.1,5.2,1,1.3,4c-1.2,0.9-0.3,0.6-2.6,1.3c2.2,0.5,0.5,3.9,4,1.3
					c2.2-1.6,5.7-8.6,8-10.7c0.5,0.4,3,2.9,4,2.7c0,0-0.3,6.2-1.3,4c-1.7,0.3,1.3,5.4,1.3,5.4c1.1-0.2,0.9-2.7,1.3-4h2.6
					c0,0.3-0.3,3.8,0,4l4,1.3c0.6-1.9,0.4-2.7,1.3-5.4c2.9-8.6,0.9-8,0-5.4v2.7c-4.6,0-1.6-4.2,0-5.4c5.7-4.3-2.3-4.5-4,0
					c-0.6,1.5,0.8,2.6,0,4c-6.5-0.9-5.3-1.7-1.3-4c0.2-0.2-2.5-3.8-2.6-4c1.4-2.1,2.7-2.8,4-5.4c-2.1,0.5-2.4,0.6-5.3,1.3
					c-1.6,0.7-4,1.3-4,1.3l1.3-4c-0.9-0.5-2,1-2.7,1.3c1.9-0.6-2.6-4-2.6-4h2.6c-0.5-4,2.6-6.5-1.3-8.1c-2.4-1-1,1.6-1.3,2.7
					c-4.1-0.4-3.1-2.5-5.3-2.7c-6-0.6,0.9,3.9-4,4c-2.3,0-6.1-1.9-9.3-2.7c3.8-3.3,7.7-5,0-6.7v-2.7c-1.2,2.2-4.1,4.7-5.3,6.7
					c0.2-3.6-1-7.1,1.3-10.7c0.4-0.7,3.8-2.1,4-2.7c0.5-1.8-1.3-5.4-1.3-5.4c1.7-1.1,3.9-0.5,5.3-1.3l-2.7-4h2.7
					c0.2-0.1,1.1-2.3,1.3-2.7c4.5,0.1-2.6,0-2.6,0C994.5,165.2,996.8,162.8,994.4,163.7z M881.8,142.2c2.7-1.2,2.3,5.7-2.6,8
					c-2.9,1.4-0.1-0.7-1.3-1.3C877.8,148.9,877.8,143.9,881.8,142.2z M925.5,138.2c2.7,1.2,5.3,7.7,2.6,5.4
					c-1.3,0.6,1.6,2.7-1.3,1.3C926,144.4,923.1,137.1,925.5,138.2z M889.8,127.4c2.8-0.7,0.2,4.1,0,5.4
					C883.1,134.4,886.3,128.2,889.8,127.4z M888.4,37.5l1.3,2.7C893.2,40.9,889.9,37.9,888.4,37.5z M914.9,26.8v2.7
					C920.1,29.5,920.1,26.8,914.9,26.8z M794.3-84.6v4C801-81.8,799.9-81.3,794.3-84.6z M374.3,162.3c-2,0.5,1.3,2.7,1.3,2.7
					S378.9,161.2,374.3,162.3z M620.7,159.6c3.6,1.5,10.1,15.8,11.9,20.1c-1.3,1-2.4,1.9-4,2.7c-0.7-2.6-1.1-7.5-2.7-10.7
					c-0.2-0.5-5.3-4-5.3-4c-1.3-1.9-1.7-7.3-1.3-6.7C621,160.2,617.5,158.3,620.7,159.6z M774.5,146.2v4c2.5-0.1,4.6,0.7,8,1.3
					c-1.7-1,1.3-3.1-2.7-2.7c-0.3-0.6-0.8-2.5-1.3-2.7C776.9,145.6,775.8,147,774.5,146.2z M614.1,139.5c2.5,6.3-1.6,1.4,4,6.7
					c0.7,0.7-0.5,5.7-1.3,4c-0.3,3.6,0,7,0,10.7c-1.4-1.3-1.8-0.6-4-1.3c1-0.7,0.9-10.7,0-12.1l-5.3-4c1.3-0.8,3.8,0.4,5.3,0
					C612.8,143.5,612.8,140.2,614.1,139.5z M358.4,138.2c-1.7,0.3-1.8,2.3,1.3,2.7C359.3,139.4,360.9,137.6,358.4,138.2z
					 M335.8,136.8c0.8,8.1,0.9,7.1,2.7,13.4c2.7-1.2,2.5-2.1,6.6-2.7c-2.7,5-5.5,3.6-1.3,9.4c1.4,2,2.9,3.1,5.3,4l1.3,1.3
					c-1.2-4.6-0.7-10.4-2.7-13.4l-2.6-1.3c-0.9-4.6,1.1-7.6,1.3-10.7c-1.6,0.2-6.6,3-8,2.7C337.9,139.3,338.8,137.2,335.8,136.8z
					 M630,126.1c0.5,4.3,0.5,0.7,2.7,2.7c0,0-1.6,6.2-1.3,8.1c0.5,3.7,7,10.6,7.9,13.4c0.5,1.5-0.6,3.9,0,5.4c1,2.3,4.3,8.5,6.6,9.4
					c1.4,0.5,2.7-0.9,4,0c-0.3,1.4-2.5,2.1-2.7,2.7c-1.3,3.9,0.9,6.6,1.3,9.4c-0.8-0.4-1.7-1.8-2.7-1.3c-0.8,0.4-0.2,4.7-4,2.7
					c-0.9-0.5-0.4-13.3,0-13.4c-2.4-1.5-2.7-4-2.7-4c-1.4-0.8-4,0.8-5.3,0c0.3-1.5,1.8-6.2,1.3-6.7c-3-3-1.6,0.5-4,1.3v-2.7
					c-0.8-2.3-6-4-8-5.4c0.3-1.3,1.3-5.4,1.3-5.4c0-0.1-3.8,0-4,0c0.6-2.3-2.2-0.7-1.3-4c0.1-0.7,4.5-6.6,5.3-8.1
					c0.8,0.2,2.4,2.5,4,1.3C629.9,130.5,628.3,127.3,630,126.1z M847.3,104.6c-0.4,0.2-0.7,3.7-1.3,4
					C843.5,109.9,846.2,105.2,847.3,104.6z M790.4,99.2c0,0-2.9,4.1,0,2.7C790.4,101.9,793.2,97.8,790.4,99.2z M835.4,97.9
					c4,0.7,5.4,4.5-1.3,4C834.3,100.3,833,97.5,835.4,97.9z M586.3,97.9c4.4,0-0.6,2.3-1.3,2.7C585.4,98.7,583.9,97.9,586.3,97.9z
					 M794.3,96.6c-0.1,0.6,0,8.1,0,8.1c-3.5-0.3-0.1,1,1.3,1.3c0.5-2.9-0.9-2.7,1.3-4C797,101.9,795,92.8,794.3,96.6z M791.7,93.9
					c-1,0.4-5.2,5.7,0,4C792,96.3,793.6,93,791.7,93.9z M596.9,75.1c1.4,0.3,1.9,0.6,4,1.3c-2,7.6-2.2,11.1-5.3,18.8
					c-0.2,0-4-0.1-4,0c-0.7-3.2,0-5.1-1.3-8.1c-0.2,0.4,0.3-3.2,1.3-5.4C592.6,79.6,595.9,76.9,596.9,75.1z M590.3,67
					c-0.3,1,2.6,5.1,0,6.7h-4c0-0.3,0.3-3.9,0-4C586.7,69.4,590.1,67.4,590.3,67z M534.6,50.9c1.7,0.2,1.9,2.4,2.7,2.7
					c4,1.4,5.7-2.6,6.6-2.7c1.4-0.2,7.1,1.1,10.6,1.3c-13.3,2.9-20,9.4-29.2,16.1c-1.3,0.9-0.7,2.1-1.3,4c-1.2,0-4.3-0.5-5.3,0
					c0.2-0.1-2.4-3.7-2.7-4h2.7C518.7,68.4,534.3,51.5,534.6,50.9z M790.4,16.1c-0.2,1.6-2.5,3.2-2.7,4
					C785.6,33.4,798.8,13.3,790.4,16.1z M806.3,8l1.3,2.7C811.1,11.4,807.8,8.3,806.3,8z M814.2,6.7c0,0,1,3.9,1.3,4
					C818.3,11.3,816.7,7.2,814.2,6.7z M763.9,4c-0.9,0.4-1.9,3.5-2.7,4c-3.5,2.6-6.5,1.7-10.6,4c-1.1,0.5-1.6,3.4-2.7,4h2.7
					c1,0.4-0.3,1.9,2.6,1.3c0,0,1-3.9,1.3-4c1.8-0.8,4.8,0.9,6.6,0c0.6-0.3,0.7-4.9,1.3-5.4c1.1-1,3.1-0.2,4-1.3
					c-0.3-0.5-2-2-1.3-2.7H763.9z M481.6-1.4c7.4,1.1,9.8,7,11.9,13.4c4.4,0,11.6,1.3,15.9,0c3.9-1.3,7.9-10.4,11.9-12.1
					c4-1.8,7.2-0.7,11.9-1.3c0,0-3.3,2.6-2.7,2.7L532,4c-6,2.2-3.2-0.1-6.6,2.7c-0.9,0.7-0.6,3.4-1.3,4c-2.6,2.3-6.5,1.8-9.3,4v2.7
					c-4.4,2.5-5.9,4.7-9.3,8.1c-2.2-1-4.9-2.4-6.6-2.7c-0.6,0.9-1.9,6.1-2.7,6.7c-2.5,1.8-16.6,4.9-19.9,4c-1.2-0.4-1.6-4.7-2.7-5.4
					c-2.5-1.7-4.9,0.1-7.9-1.3c-1.1-0.5-1.6-3.6-2.7-4c5.1,0.5,8.4,2,13.3,0c2.1-0.9,5.9-7.6,8-8.1c1.4-0.3,2.4,2,5.3,1.3
					C487.4,13.2,478.1-1.9,481.6-1.4z M445.8-6.8c1.1,0,5.8,3.8,6.6,4c1.4,0.3,12.5,1.7,7.9,1.3v1.3l-1.3-1.3
					c-6.9,1.9-11.8,2.4-21.2,1.3v-2.7c2.2-0.7,3.5-0.2,5.3-1.3C444.2-4.7,443.8-6.7,445.8-6.8z M606.2-16.2h1.3c2,0,2.7,3,4,4
					c-2,1.9-3.5,4.6-5.3,6.7c-0.3-0.4-3.6-1-4-1.3c-1-1-0.3-4.4-1.3-5.4C602.3-13.3,605.2-14.6,606.2-16.2z M456.4-26.9
					c1.4,0.4,2.4,3.2,0,2.7C456.4-24.2,452.6-27.9,456.4-26.9z M738.7-32.3c-0.5,7.6-1.2,10.7,0,21.5c-2.4,0.8-5.2,1.1-8,2.7
					c0,0.9,0.5,6.2,0,6.7c1.8,0.1,3.9-1.3,4-1.3c0,0.2,3.7,0,4,0c0,0.7-0.5,6.4,0,6.7c1.7,1,4.9-1.1,6.6,0c0.7-1.7,3.7-5.4,4-6.7
					c0.9-4.4-3.3-12.8,6.6-12.1c1.1,0.1,0.9,2.7,1.3,4c1.9-0.1-0.5,3.4-1.3,5.4c6,1.8,10.1,2.4,15.9,4c0.5-1.5,1.3-4.5,2.7-5.4
					l-2.7-4c-1.2-0.3-5.4,2.2-6.6,2.7v-2.7c-2.6-4.5-12.3-18.1-19.9-16.1c-0.7,0.2-0.9,2.5-2.7,2.7c0,0-1.5-4.5,1.3-6.7
					C741.9-31.5,741.6-31.5,738.7-32.3z M741.3-36.3l2.7,4c2.6,0.7,1.1-2.6,1.3-4C744.4-36.3,742.3-35.9,741.3-36.3z M748-51
					c2.7,0.2,5.3,5.7,0,5.4v-2.7c-0.8,0.1-6.2,2.7-2.6,0C746.4-49.2,745.9-51.3,748-51z M443.2-56.4c3-0.2,7.7,1,13.3,2.7l-2.6,2.7
					c-3.2,0.5-1.7-1.4-4-1.3c-0.3,0-4.4,2.5-5.3,2.7c0,0,4.8,2.6,4,2.7c4.1,1.1,10.4,4.1,14.6,2.7c0.7-0.3,0.9-2.4,2.7-2.7
					c-0.3,1.2,1.8,2.6,1.3,5.4c-0.2,1.1-3.8,3.3-4,4c-0.3,0.9,2.3,3.5,2.7,4c-5.8,0.4-9.4,1-15.9,0c0.2,0.2,0,3.7,0,4
					c1.5,0.5,4.1,1.8,5.3,2.7c-6.1,1.1-10.1,0-14.6,2.7c-1.5,0.8-2.5,4.7-4,5.4c-2.1,1-2.4-1.3-2.7-1.3c1.8-1.6,6.1-7.4,8-8.1
					c1.5-0.5,3.9,0.6,5.3,0c0,0-3.5-2.4-2.7-2.7c-2.3,0.8-4.4-0.8-6.6,0l-1.3,2.7c-8.3,7.4-1.5,8.2-14.6,5.4c0,0-2.2-3.6-2.7-4h2.7
					c1.3-3.4-1.8-1.6-1.3-4l5.3-6.7c-2.3-0.7-1.1-1.5-2.6-2.7c-3.5-2.6,4.4-0.1,6.6,0c-0.5,0.1,1.9,0.4,4,0
					c-1.1-1.3-3.9-6.2-5.3-6.7c-2.7-1-10.8-1.2-11.9-1.3c-2.7-0.4-2.8,0.6-5.3,1.3c0.2-0.1,0-3.9,0-4c3.9-0.9,8.8,0.8,14.6,0
					C431.3-51.8,437.7-56,443.2-56.4z M730.7-65.8l1.3,2.7C731.6-65,733.3-65.8,730.7-65.8z M707.4,212.6c0.8-1.7,1-5.1,2.2-6
					c2-1.7,5.7,0,6.6-2.7v-2.7c0,0,1.7,4.2,2.7,4c0.3-2.4-1.2-4.9,1.3-5.4c3.4-0.7,6.4,1.1,11.9,1.3c1.4,3.9,2.9,10.7,6.6,12.1
					c1.9,0.7,4.7-0.7,6.6,0c0,1.3-0.5,4.2,0,5.4c0.2,0.5,4,1.3,4,1.3c1.3,3.8-2.7,8.1,1.3,12.1c0.7,0.7,3-0.5,4,0v2.7
					c8.9,1.2,16.2,2.8,23.8,5.4c-2.2-1,3.9-1.3,4-1.3c0.7,1,1.6,3.1,2.6,4l4,1.3c0.8,1.8-0.7,4.8,0,6.7c0,0,3,2.2,4,4h-4
					c-0.4,0.3,0,4.7,0,5.4c-0.2-0.1-5.8-2.1-4-2.7c-3.1-1.5-4.1-1.2-6.6-2.7c-5,6.4-5.3,6.8-5.3,18.8c-2,1.1-4.2,0.9-5.3,2.7
					c-0.4,0.3-1.1,2.7-1.1,4.5c0,1.5-1.5,2.7-2.8,3.5c1.9,1.1-1.9,5.3,3.9,4c0,0,3.8-2.7,2.6-2.7c1.2-1,8.8-6.6,9.3-6.7
					c1.4-0.4,3.9,0.5,5.3,0l1.3-2.7c2.5-0.7,5.4,0.6,7.9,0v-2.7c-8.7-0.8-3.8-1.2-1.3-2.7c1-0.6,2.6-3.7,4-4
					c5.7-1.4,11.9,0.9,15.9,1.3c-0.8-0.3,2.6-2.7,2.6-2.7c-2.4-1.2-4.4-0.8-6.6-1.3c0.2,0-1.2-2.5-1.3-2.7c4.4,0.6,7.8,2.2,11.9,1.3
					c0.4-0.1,0.9-0.5,1.5-1l2-2.8c0,0,0.3-2.1,7.6-6.3c7.2-4.2,6.9-3.1,9.3-2.4c2.4,0.7,24.9-3.1,24.9-3.1s1-2.5,2.8-3.1
					c1.7-0.7,7.9-6.3,7.6-8c-0.3-1.7,2.4-6.3,2.4-6.3l2.4-5.6c0,0,2.4-2.8,3.1,1.4c0.7,4.2,1.4-3.1,4.8-2.1c3.5,1.1,6.6,2.1,5.9,7
					c-0.7,4.9-0.2,12.4-0.2,12.4s3.5-1.4,3.5,1c0,2.4-1,5.2,0.7,5.2c1.7,0,0,1.6,0,1.6c0.9,0.2,3.7,2.6,4,2.7
					c3.4,0.8,6.3-1.4,7.9-1.3c-0.1-0.2-2.6-3.4-1.3-4c1.5-0.8,2,2.1,2.7,2.7c3.9-3.3,6.8-6,9.3-10.7v1.3c0.7-1.8,2.6,1.3,2.6,1.3
					h-2.6c-0.9,3.7,0,3.6-1.3,6.7c1.8-0.3,8.9-2.5,10.6-2.7c0,0,3.2,2.3,1.3,2.7c-2.9,0.5-1.4,1.6-2.6,4c-8.7-2.1-5.6-1.9-13.2,1.3
					v2.7c-0.4,0.3-3.5,0-4,0c-2.9,6-8.8,8.1,1.3,12.1l1.3,2.7c3.2,0.8,1.8-2.1,4-1.3c0.6,0.2-0.5,2.1,1.3,2.7l5.3-4
					c1.5-2.5-0.5-4.9,1.3-6.7c4.3-4.4,1.5,1.3,5.3,0c0,0,0.8-3.8,1.3-4c1.9-0.8,4.5,0.5,6.6,0v-1.3c2.4-1.3,7.1-2.9,8-5.4v-2.7h2.6
					c-1.6-3.2-1.1-3.9-2.6-8.1c-3.6,3-6.8,6.6-11.9,4l-2.6-2.7c-3.1-0.5-1.9,1.8-4,1.3c0.6-0.5-1.2-2.3-1.3-2.7h2.7
					c-0.6-0.3,1.2-2.4,1.3-2.7c-4.3-1.5-5.8-1.4-9.3-2.7c0.1-1,1.5-6.7,0-6.7c2.5,0.3,0.9-1,1.3-2.7c0,0-4.7,0.8-2.6,1.3h-1.3
					c1-2.3,2.4-6,1.3-5.4l1.3-2.7c0,0,1.5-3.6,0-4c-0.5-0.2-16.2,2.6-10.6,1.3c-1.1-2-2.1-3.7-2.7-5.4c3.4,1.4,1.5-2.3,4-1.3l2.7,4
					c1.3-1.1,1.3-0.9,4-1.3c0.3-1.2,0.6-5,1.3-5.4c0.5-0.2,3.8,0.3,4,0c1-2.2-1-4.5,0-6.7c0.9,1.8,2.6-1.3,2.6-1.3c-1.2-1-4-2-4-4
					v-1.3c-6.8-2.8-12.3-0.1-17.2,1.3c-0.6,0.1-4.7,2.4-5.3,2.7c-12.3,5.7-21.4,16.5-29.1,26.8c1-2,3.5-5.6,4-6.7
					c1.1-3,1.6-4.2,2.7-6.7c-1-0.3-3.8,1-2.7-1.3c0.5-1.2,2.9-0.5,4-1.3c2.2-1.8,3.1-6.1,5.3-8c0.8-0.8,2.9,0.6,4,0
					c0.7-0.5-0.7-3.6,0-4c1.4-0.9,2.4,0.7,4,0l6.6-8.1c1.5-1.7,0.8-1.3,2.7-2.7c0.9-0.7,2.7-3.7,4-4c10.7-2.9,23.1,1.5,29.2,0
					c1.6-0.4,1.1-3.6,5.3-2.7c1.4,0.3,0.4,3.6,4,2.7c0.8-0.2,0.6-3.1,2.7-2.7c0.4,0,2.3,3.5,2.6,4c0.8-0.2,3.2,0,4,0v-2.7
					c3.4-0.8,2.7,2.7,6.6,1.3v-2.7c1.4-0.8,3.8,0.6,5.3,0c1.4-0.6,0.4-3.2,1.3-4c1.6-1.4,5.5-0.9,6.6-2.7c0.5-0.8-1.3-6,1.3-8.1
					c1.9-1.5,9.4-2.9,11.9-4c-2.4,1.1,2.5,1.4,2.7,1.3c0.9-0.3,10.2-8.3,10.6-9.4l-1.3-13.4c-0.8-0.8-1.8,1.9-4,1.3
					c-4.6-1.2-3.9-8.3-14.6-6.7c-0.5,0,1.2,2.5,1.3,2.7c-3.3,0.3-5,0.5-6.6,1.3c-4,2-7,3.5-11.9,5.4v2.7c-5.2,0.9-2-3.4-4-5.4
					c2.5-0.6,5.4,0.7,8,0c2-0.6,5.9-5.8,8-6.7c2.8-1.3,5.3,0,7.9-1.3c1.3-0.7,2.7-4.5,4-5.4c-0.5-0.2-2.8,0.9-4,1.3l-1.3-2.7
					c3-1.1-0.3-2-1.3-2.7c0,0,0.6,3.5-2.7,2.7c-4.9-1.3-1.8-3.1-4-6.7c-7.2,2.2-5,1.8-14.6,0c-0.6-2,1.8-3.4,0-6.7h-1.3
					c-1-0.5-2.7-3.7-4-4c-0.6-0.2-3.5,0.4-4,0l-2.6-6.7c-0.5,0.2-2.2,1.8-2.7,1.3c0.3-1,1.3-5.4,1.3-5.4c-2.3,0.9-2.3-1.3-2.6-1.3
					c4.6-0.3,7.4,0.2,9.3,0c0-0.2-0.2-4,0-4c-1.9-1.1-4.6-2-6.6-2.7c0-0.2,0.7-5.3,0-6.7h-1.3c-2.3,0-3.9-4.1-5.3-5.4
					c0.4-1.3,1.5-3.5,1.3-4c-2.9,0-6.5,0.4-9.3,0c1.8-1.2,4.1-2.7,6.6-4c-1.2-2.3-2.7-5.4-4-8.1c-1.2,0-4.3,0.5-5.3,0
					c-1.4-0.7,1-1.6-1.3-2.7v-4c-0.5-2-0.6-2.8,0-6.7l-2.6-1.3c-0.7-2.9,1.6-3.9,1.3-5.4c-0.2,0.3-3.7,0-4,0
					c-3.5,7.6-5.3,10.2-6.6,17.4c-2.4,0.1-1-2.3-1.3-4c-0.5,0.9-3.6,1.8-4,2.7c-0.3,0.8,0.6,3.4,0,4c-0.4-0.2-2.2-2-2.6-1.3
					c-1.4,1.7,0,3.2-1.3,5.4c-0.7,1-5.7,3.4-6.6,4c-2.2-1.7-3.4-3.6-5.3-5.4c-0.7,0.5-1.8,4-4,2.7c-0.4-0.3-1.2-6.1-1.3-6.7
					c-3.8-0.3-5.1-0.2-6.3-0.4c-1.2-0.2-2.3-0.8-5.6-2.3c0.4-7.2,0.8-8.2-1.3-14.8c1.4-0.5,3.7-0.2,4-1.3c0.6-2.5-1.3-1-2.7-1.3
					c2.1-3.5,3.2-5.9,5.3-9.4c-2.6,0.4-3.1,2.5-4,2.7c-1.1,0.2-3.9-1.6-6.6-1.3c0.3-1.2-1-3.5,1.3-2.7c0.1-0.3,1.6-2.6,1.3-2.7
					c-3.7-1.2-9.7,1.5-13.2,0c-0.3-0.1,0.2-3.6,0-4h-2.7v-2.7c-1.2-3.5-10-8.8-13.2-10.7c-1.4,0.8-4,0.5-5.3,1.3
					c-0.8,0.5-1.8,3.7-2.7,4c-2.3,0.8-4.4-0.8-6.6,0v2.7c-4.3,1-10.3-2.2-14.6-2.7c-4.5-0.5-6,1.2-9.3,1.3l-1.3,4
					c1.9,0.9,2.3,0.6,5.3,1.3v2.7h-2.7c-0.9,2.1,2.1,0.8,1.3,4c-0.2,0.6-3.2,3.8-4,5.4c-2.6-1.7-0.1,2.6,0,2.7c0.7,0.3,3.2-0.3,4,0
					c0.3,5.8-3.6,6.2,2.7,10.7c0.9,0.6-0.7,4.2-1.3,2.7c0,0-1.2,2.3-1.3,2.7c-1.4-0.5-3.2-1.5-4-1.3l1.3,2.7c2.2-1.4,1.2,3.1,1.3,4
					c-3.4,0.7-5-0.1-8,1.3c0.5,0.4,0,8.1,0,8.1c2.4,1.3,5.8,0.9,8,2.7c3.6,3,2.7,10.6,5.3,14.8c0.8,1.3,4.8,2.6,5.3,4
					c0.5,1.6-1.4,8.1-2.7,13.4c0-0.1,1.8-3,2.7-2.7c0.9,0.3,1.1,5.2,1.3,5.4c-0.9,0.7-2.9-0.5-4,0c0,0-3.8,7.8-4,8.1
					c-4.3,5.4-10.7,9-17.2,12.1c2.5,16.5,7.4,26.8,2.6,41.6c-0.7,0-3.4-0.5-4,0c-3.9,2.8-1.1,6.2-9.3,2.7c-1.1-0.5-8.8-8.3-9.3-9.4
					c-0.6-1.3,1.7-3.6,0-6.7c-0.4-0.7-5.2-2.5-5.3-2.7c-1-2.2,1-4.5,0-6.7c-3.7,0,0-4.4,0-4c-1.4-1-2.2-3.5,0-4
					c0.2-1.6,1.3-8.1,1.3-8.1c-0.2-0.1-3.1-3.1-1.3-4c2.2,1.5,0.5-3.6,0-4C763,115,754,119.1,748,118c-2.4-0.4-7-5.7-9.3-6.7
					c-2.3-1.1-13.8-3.3-14.6-4c-2.2-2.1-0.4-7.3-2.7-9.4c-1.9-1.8-3.6-0.2-6.6-1.3c-1.5-0.5-5.3-4.8-6.6-5.4c-1.4-0.6-3.9,0.3-5.3,0
					c-1.7-0.3-4.2-3.6-5.3-4c-5.4-2.1-9.5,0.9-14.6,2.7c-1.4-7.3-5.5-17.2-9.3-25.5c-10.1-0.1-9.2,5.1-13.3-5.4l-2.7-2.7
					c-0.2-1.3,0.5-8.4,1.3-10.7c0.2-0.5,3.7-2.1,4-2.7c1-2.6-3.3-3.7-1.3-5.4c0.6-0.6,3.1,0,4,0c0.7-1.9-0.7-4.8,0-6.7
					c0.7-1.9,5.3-2.6,5.3-5.4v-1.3c0.9-0.5,4.7,0.7,5.3,0c0.7-1,0-5.5,0-6.7c2.8-1.6,1.5,0.8,2.7-2.7c1.3,0.3,2.9,2.6,5.3,1.3
					c0.8-0.5-2.6-2.7-2.6-2.7c3-1.2,3.6-1.8,5.3-2.7c0,0-4.9-0.7-2.7-1.3c4.1-1.2,3.7,2.1,8,1.3c1.4-0.3,3.8-3.4,5.3-4
					c-1-2.1,0.9-2.9,1.3-4c-2.5-1.2-2.5-1.9-4-2.7v-2.7c2.1,0.6,3.1,1.8,5.3,1.3c0.6-5.1,0.7-5.2,1.3-10.7c1.4-0.3,3.9,0,5.3,0
					c0.5-1.9-1.3-2.6,1.3-2.7c9.4-0.2,0.2,6.5,13.2,0c1.5-0.8,3.1,0,4-1.3c0.9-1.4-0.9-3.8-1.3-5.4c2.5-0.9,0.6-0.2,1.3-2.7
					c3.7,1.9,1.3-2.7,1.3-2.7c-8.4-0.8-15.7-1.3-27.8-1.3c9.6-3,5.3-1.1,8-8c2.6,0.3,0.7,0.6,1.3,2.7c12.5-0.5,13.9,0.5,22.5,6.7
					c0.7-1.5-0.6-2.5,0-4c0.2-0.5,3.5-2.3,4-2.7c-1.2-4-2.1-6.7-2.7-9.4c2.4,0,7.5-1.5,7.9-1.3c3.7,0.9,2.7,6.5,9.3,6.7
					c7.1,0.1,6.1-3.1,0-5.4v-2.7c3.3,1.3,1.6-2,4-1.3v2.7c2.2,1.3,3.5,1.3,5.3,2.7c1.6-1.6,3.4-5.5,5.3-6.7c1.3-0.8,2.5,0.6,4,0
					l1.3-2.7c7.6-3,8.1-2.1,14.6-5.4c0-1.8-0.7-5.2,0-6.7c-5.3-2.3-14.1-4.3-11.9-13.4c0,0,3-1.6,1.3-2.7c3.9,1.8,3.3-2.5,4-2.7
					c-8.4,2.3,1.2-7.5,1.3-8.1c0.5-3.1-1.9-2.1-1.3-4c-1.7,0.1-2.9,2.1-4,2.7c-0.8-1.4-2.9-0.3-4-1.3c-0.1-0.1-2-7.5-2.6-9.4
					c-9.5,0.7-11.6-0.5-22.5-1.3c1.4,5.5,4.3,12.4,6.6,17.4c-2.1,1.3-0.6,0-1.3,2.7c-0.9,0-4.7-0.6-5.3,0
					c-0.5,0.4-1.3,10.7-1.3,10.7H740c-3.4,6.5-4.3,11.2-9.3,16.1c3.8,0.9-3.5,1.2-5.3,0c-1.9-1.2-1.3-4.9-2.7-6.7
					c-1-1.4-2.8-0.8-4-2.7c-0.2-0.3-4.6-6.3-4-6.7c3.6-2.7,5.1-8.9,6.6-13.4c0,0,3.4-0.8,1.3-1.3c-2.6-0.7-2.9-5.6-4-8.1
					c-3.1,1.2-4.8,2-8,2.7c-0.6,4.5-0.7,7.9-1.3,13.4c-1.6,0.5-3.5,0-4,1.3c-0.6,1.5,0.8,2.6,0,4c-0.5,0-3.7-0.3-4,0
					c-0.4-1.9,1.8-3.5,1.3-4c-3.4-3.3-3.1-12.7-5.3-14.8c-2.7-2.5-6.9-0.8-10.6-2.7l-4-5.4c-2.5,1.8,5.1-5.7,6.6-6.7
					c2.9-2.1-2.7-2.7-2.7-2.7c-0.4,0.7-0.8,2.4-1.3,2.7h-1.3c1.2-1.1,0.8-4.6,1.3-6.7c2.1,0.3,5.9,2.1,8,2.7c0.4-1.3,0.2-3.9,1.3-4
					c-1.9-1.2-3.2,0.5-4,0v-2.7c-1-0.6-3.9-0.5-5.3-1.3c-1.2-0.7-2.8-4.7-4-5.4c-3-1.7-6.5-1-9.3-2.7v-2.7c-2.9-1.7-3.7-1.2-6.6-2.7
					v-2.7c-0.7,0.3-1.8,1.8-2.7,1.3c1.6-3.2,1-3.9,2.7-8.1h2.6c1.4-5.3-1-2.5-2.6-6.7l2.6-2.7c5.7-1.6,11.5-1.5,15.9-2.7
					c3.4-0.9,5.4,0.2,8-1.3c2.9-1.8,6.2-12.3,7.9-16.1c-2.6-0.3-6-1.2-6.6-1.3c-3.3-0.7-8.1,1.5-9.3,1.3v-2.7
					c-5.2-1.6-9.4-3.6-15.9-2.7c0,0-1.2,2.4-1.3,2.7c-1.7-0.1-6,0.3-10.6,0c-1.4,4.9,0.7,2.7-2.6,5.4c1,4,1,10.9,1.3,12.1
					c0.4,1.3,3.5,4,4,5.4c-0.2,0-2.9,1.8-2.7,2.7c0,0.1,4,2.7,4,2.7v8.1c-0.6,2.1-4.7,2.4-5.3,4c-0.6,1.4,0.8,2.7,0,4h2.6v2.7
					c-3.3,0-3.1-1.4-5.3-2.7c-1.5,5.3-6.4,11.4-1.3,16.1c-0.9,0.4-3.1,0-4,0c0.5,0.9-1,2-1.3,2.7c2.8,2,5.1,4.7,8,6.7
					c-2.9,0.3-5.9,4.7,1.3,4c-1.8,1.7,1.3,1.3,1.3,1.3c-1.4-0.7-1.1-5,0-5.4c1.4-0.5,2.7,0.8,4,0c7.2,10.4,7,7.4,18.6,2.7v2.7
					c-2.4,0.4-2.9,0.8-4,1.3h-1.3c-0.7,1.1,0,5.3,0,6.7c-1.3-0.2-4.1-1.3-4-1.3c-0.7,0.4-3.3,0-4,0c-0.3,3.8-1,5.5-1.3,10.7
					c2.7-0.7,4.3-1.8,6.6-1.3c-1.2,0.6,1.2,3.9,1.3,4c-2.2,0.5-4.4,0.1-6.6,1.3v1.3c-6.3,4.3-20.9,14.4-9.3,21.5
					c0.9,0.5-1.7,1.6-1.3,2.7c-1.9-1.3-4.7-2.6-6.6-4c-6.1-4.5-4.7-9.9-5.3-18.8c-1.6-0.2-1.4,0.7-2.7,1.3c2.3,1.8-1.3,1.3-1.3,1.3
					c-2.9-2.4-4.9-5.8-7.9-8.1c-0.3,2.1-5.5,8.3-1.3,12.1c-5.5,1.6-9.1,4-15.9,1.3l-1.3-2.7c-5.5-0.2-7,5.2-11.9,5.4l-1.3-2.7
					c-3.5-1.1-4.4,1.3-9.3-1.3c-1.5-0.8-3.4-5-5.3-5.4c-1.8-0.4-2.4,2.1-4,2.7v-1.3l-1.3,1.3c-5.6,2,0.2-2.9-1.3-4
					c-0.8-0.6-3.3-0.6-4-1.3c-1.9,1-0.5,2.1-4,2.7c-0.9-3.7-3.1-8.6-4-12.1c-9.5,0-15.1,0.3-23.9,1.3c-2.1,5-1.8,7.5-4,12.1
					c1.8-0.7,2.6-1.3,4-1.3c-2.4,1.3,2.7,1.3,2.7,1.3l-1.3-4c3.1-0.8,2.2,2.1,5.3,1.3c0.2-0.1,2.4-3.7,2.6-4
					c1.9,0.3,3.2,1.6,6.6,1.3c-5.5,3.7-11.7,8.2-17.2,12.1c0.5,2.2,2.4,4.3,2.7,5.4c0.5,3.1-1.8,1.9-1.3,4c0,0.3,2.3,1.5,2.7,2.7
					c4-0.9-0.5,3-1.3,1.3c-0.1,0.2-1,3.7-1.3,4c-0.6-1.1-3.4-1.6-4-2.7c-1.4-2.5-0.8-15.9-2.7-9.4c-0.7,2.3-0.9,2.2-1.3,4
					c-0.4-2.2-2.2-7.9-2.6-10.7c-1,0-4.5,0.5-5.3,0c-1.8-1.3-1.5-3.3-2.7-5.4c-1.7,1.2-5.1,4.7-6.6,5.4c-3.5,1.3,0.3-1-1.3-1.3
					c-5.4-1.2-17.7,6.8-26.5,4c-2.8-0.9-4-9,0-8c-0.6-1.2-1.7-1.1-1.3-2.7c2.4,0,5.6,0.5,8,0c-1.7-2.3-8.2-10.3-10.6-10.7
					c-9.5-1.8-2.1,5.2-11.9,4c-1.5-0.2-6.1-3.9-6.6-4c-3.3-1.1-6.7,0.4-9.3-1.3c-0.9-0.6,0-3.5-1.3-4c-3.1-1.3-1.8,1.6-4,1.3
					l-2.7-2.7c-6.5-2.6-18.3-10.9-27.8-8v2.7c-3,1.7-5.2,2.3-8,4c-1.6-5.4-2.5-10.4-2.7-13.4c-0.6,1.9-1.4,1.6-2.6,2.7
					c2.3,0-0.7,9.2-1.3,12.1h-2.6c-2.4-1.6-13.9-11.4-14.6-13.4v-2.7h-2.6v-1.3c-5.4-2.8-9.6-8.2-14.6-12.1c0,0-1,4.9-1.3,6.7
					c2.4,0,1.8,2.9,0,2.7c-0.7,1.3-3.4,9-4,9.4c-0.2,0.1-3.3-1.7-5.3-1.3c-6.3,1.1-5.8,6.1-8,12.1h-1.3c1.7-0.1-1.3-2.7-1.3-2.7
					c-1,0.5-2.5,2.3-4,2.7v-2.7c-1.7,1.1-7.1,2.9-8,4l-2.6,8c-1.6,1.3-3.8,0-5.3,1.3c-1.5-0.8,1.8-2.7-1.3-1.3
					c0.6-1.4,8.8-15.9,9.3-16.1c4.4-2.4,9.7-1,14.6-4c11.7-7.3,6.8-6.8-4-8.1c-1.5,3-1.4,4.9-2.7,8.1c-1.2-0.2-3.6-2.6-4-2.7
					c-1-0.1-11.8,3.8-11.9,4c-1.2,1.8,0.4,4.1-1.3,5.4c-1.3,0.9-4.3,0.6-5.3,1.3c-0.4-0.3,0-3.5,0-4c-3.5-1.7-2.9-0.5-5.3-2.7
					c-1.3,3.6,0.4,5.1-1.3,8.1c-1.2,1.9-1.3-1.3-1.3-1.3c-4.9-1.7-1.1,3.4-2.6,4c-1.2,0.5-5.7-0.9-8-1.3c0.5,1.7-1.2,2.8,1.3,2.7
					v1.3c2.4,0.6,1.4,0.4,2.6,1.3c2.6,1.8,0.6,3.9-2.6,2.7c0,0-1.2-3.9-1.3-4c-2.4-1.8-3.6-0.1-6.6-1.3l-1.3-2.7
					c-5.3-2.1-14.9-4.7-18.6-8c-0.2-0.3-1.1-2.6-1.3-2.7c-5.5-1.2-6.7,1.9-11.9,1.3c-2.6-0.3-5.2-1.6-8.1-3.2L262,37.3
					c0,0,6.3-3.3,7.8-2.2c1.5,1.1,4.6,3.5,5.9,2.2c6.3-6.5,3.3,0.3,4.5,3.2c1.1,2.9,1.1,2.9,2.9,6.1c1.8,3.2,8.9,5.7,10.7,9.3
					c1.8,3.6-1.5,6.8,3.6,2.2c3.4-2.2,7-1.5,8.1-4.3c1.1-2.9-2.6-5.3,0-5.3c2.6,0,6.6-2.9,8.1,0c1.5,2.9,6.3,2.5,6.3,5
					c0,2.5,0,4.7,3.7,5c3.7,0.4,6.2,4.7,8.1,7.2c1.8,2.5,8.8,9,11,12.2c2.2,3.2,2.2,7.5,5.9,9.3c3.7,1.8,1,8.1,4.7,9.9
					c3.7,1.8,3.5,1.4,6.2,3.5c2.3,1.7,3.7,0.3,4.8,3.5c1.1,3.2,0.9-0.5,3.1,1c2.2,1.4,0.7,5.4,2.6,5.7c1.8,0.4-1.8,2.5-1.1,4.3
					c0.7,1.8,0.7,2.5,0,3.9c-0.3,0.5-1,1.6-2.3,3c-0.1,0.4-0.8,1.2-0.2,1.5c-1.2,0.8-3,3.5-4,4c-1,0.5-1.5,0.5-1.6,0.2
					c0.2,0.9,1.3,3.9-1,2.5c-0.5,1.6-0.2,3.5-1.3,4l4,1.3c0,0-0.2,9.8,0,10.7c1.2,0.5,3,2,4,2.7c-5.2,2.6,1.3,1.3,1.3,1.3
					s3.1-4.3,0-2.7v-1.3c2.3-0.7,3.4,0,5.3-1.3c-1,2.2-0.7,3.3-1.3,6.7H369c-1.1,3.6,1.9,1.5,1.3,4c2.4,0.3,0.9,1.8,1.3,4
					c2.4,0.6,1-1.3,1.3-2.7c1.2,0.8,8.9,4.8,9.3,5.4c0.5,0.9,0.2,11.7,0,16.1c-0.9,0-4.7-0.6-5.3,0c2.3,6.2,0.8,4.1,2.6,10.7
					c4.3,0,7.8-2.3,13.2,0c0,0,0,3.8,0,4l-1.3,1.3c3.1,0.4,3.6-1.6,5.3-1.3c1.6,0.2,6.3,5.3,8,6.7c0,0-0.2-3.5,1.3-1.3
					c2.1,2.9-0.7,6.2,2.6,8.1c5.4,3,11.1,1,14.9,1.5h1.4c-1.1-1.8-7.1-11.5-8.3-12.3c-3.5-2.2-7.7-1.5-10.6-4l-4-5.4
					c0.2-0.4,1.9-2.3,1.3-2.7l-9.3-1.3c0,0,10.6-1.8,9.3-1.3c-3.6,1.1,2.5-2.6,2.7-2.7c4.1,9-0.9,4.1,9.3,8l1.3,2.7
					c0,0-3.4,1.6-1.3,2.7c2.1,1,4.2-2.1,5.3-2.7c1.3,1.1-1.2,3.6-1.3,4c2.9,2.4,6.4,2.9,8,6.7l232.8,1c0,0-0.2-4.1,1.8-4.1
					c2.1,0,4,8,4,8s1.4,1,4.1,1c2.8,0,5.5,3.5,5.9,1.4c0.3-2.1,3.1-3.2,4.5-2.1c1.4,1.1,4.1,3.5,6.2,3.5c2.1,0,3,0.9,5.3,0.5
					c1.8-0.3,2.6,0.2,5,0.5c2.4,0.4,3.5-1.4,4.8,0.4c1.4,1.7,2.8,1.7,3.8,2.1L707.4,212.6z"/>
			</g>
		</g>
	</g>
	<text transform="matrix(1 0 0 1 659.0812 555.824)" fill="#222222" font-family="'Helvetica-Bold'" font-size="32">Mexico</text>
	<g>
		<text transform="matrix(1 0 0 1 600.4504 329.8231)" fill="#222222" font-family="'Helvetica-Bold'" font-size="32">US</text>
	</g>
	<g>
		<text transform="matrix(1 0 0 1 474.1193 141.1551)" fill="#222222" font-family="'Helvetica-Bold'" font-size="32">Canada</text>
	</g>
	<circle opacity="0.8" fill="#FF944C" cx="612.1" cy="540.9" r="37.5"/>
	<circle opacity="0.8" fill="#D63333" cx="638" cy="130.8" r="37.5"/>
	<circle opacity="0.8" fill="#D63333" cx="555.6" cy="314.3" r="37.5"/>
</g>
</svg>
