<?xml version="1.0" encoding="utf-8"?>
<!-- Generator: Adobe Illustrator 18.0.0, SVG Export Plug-In . SVG Version: 6.00 Build 0)  -->
<!DOCTYPE svg PUBLIC "-//W3C//DTD SVG 1.1//EN" "http://www.w3.org/Graphics/SVG/1.1/DTD/svg11.dtd">
<svg version="1.1" id="Layer_1" xmlns="http://www.w3.org/2000/svg" xmlns:xlink="http://www.w3.org/1999/xlink" x="0px" y="0px"
	 viewBox="62 517 500 500" enable-background="new 62 517 500 500" xml:space="preserve">
<g>
	<g>
		<path fill="#D9F0E0" d="M312,533c62.5,0,121.3,24.3,165.5,68.5c44.2,44.2,68.5,103,68.5,165.5c0,62.5-24.3,121.3-68.5,165.5
			c-44.2,44.2-103,68.5-165.5,68.5c-62.5,0-121.3-24.3-165.5-68.5C102.3,888.3,78,829.5,78,767c0-62.5,24.3-121.3,68.5-165.5
			C190.7,557.3,249.5,533,312,533"/>
		<g>
			<path fill="#825330" d="M403.4,891.3c17.7-34.2,21.9-69.9,21.9-69.9c8.3,11.3,18,8.3,31.6-37.6c13.5-45.9-9.8-39.8-9.8-39.8
				c11-174.4-134.3-175.4-134.3-175.4s-145.3,1-134.3,175.4c0,0-23.3-6-9.8,39.8c13.5,45.9,23.3,48.9,31.6,37.6
				c0,0,4.2,35.7,21.9,69.9c1.2,20.1,4.1,43.1,1.9,45.3c-2.4,2.4-43.3,25.9-43.3,26l136.1,16.9L439,967c0.7-9.6,0.6-7.4,1.3-16.9
				c-20.7-5.5-35.4-11.9-36.8-13.4C401.2,934.4,402.3,911.4,403.4,891.3z"/>
		</g>
		<g>
			<defs>
				<circle id="SVGID_1_" cx="312" cy="767" r="248.9"/>
			</defs>
			<clipPath id="SVGID_2_">
				<use xlink:href="#SVGID_1_"  overflow="visible"/>
			</clipPath>
		</g>
		<path fill="#19A347" d="M312,533c62.5,0,121.3,24.3,165.5,68.5c44.2,44.2,68.5,103,68.5,165.5c0,62.5-24.3,121.3-68.5,165.5
			c-44.2,44.2-103,68.5-165.5,68.5c-62.5,0-121.3-24.3-165.5-68.5C102.3,888.3,78,829.5,78,767c0-62.5,24.3-121.3,68.5-165.5
			C190.7,557.3,249.5,533,312,533 M312,517C173.9,517,62,628.9,62,767c0,138.1,111.9,250,250,250c138.1,0,250-111.9,250-250
			C562,628.9,450.1,517,312,517L312,517z"/>
		<g>
			<path fill="#66C285" d="M313.8,970.7c-48.9,0-88.6-15.2-89.7-34c-16.8,3.5-37.1,7.9-58.2,13.2C207.3,983,258.2,1001,312,1001
				c54.1,0,105.4-18.3,146.9-51.9c-20.1-5-39.4-9.2-55.4-12.5C402.4,955.5,362.7,970.7,313.8,970.7z"/>
		</g>
	</g>
	<path fill="#724320" d="M223.9,895c0,0,1.8,2.7,5.6,7c3.8,4.3,9.5,10.1,17.2,16.1c7.7,6,17.5,12,28.9,16.3c5.7,2.2,11.8,3.9,18,5.1
		c6.3,1.2,12.8,1.8,19.3,1.8c6.5,0,13-0.6,19.3-1.8c6.3-1.2,12.3-2.9,18-5.1c11.4-4.3,21.2-10.4,28.9-16.3
		c7.7-6,13.5-11.8,17.2-16.1c3.8-4.3,5.6-7,5.6-7l0.5,0.4c0,0-0.4,0.7-1.2,2.1c-0.8,1.3-1.9,3.3-3.6,5.7c-1.7,2.4-3.8,5.2-6.5,8.3
		c-2.7,3.1-5.8,6.4-9.6,9.8c-3.8,3.4-8.1,6.8-13,10c-4.9,3.2-10.3,6.2-16.3,8.7c-3,1.2-6,2.4-9.2,3.4c-1.6,0.5-3.2,1-4.8,1.4
		c-1.6,0.4-3.3,0.8-4.9,1.1c-3.3,0.7-6.7,1.2-10.2,1.5c-1.7,0.1-3.6,0.3-5.2,0.4l-5,0.2c-6.9-0.1-13.8-0.8-20.4-2.1
		c-1.7-0.3-3.3-0.7-4.9-1.1c-1.6-0.4-3.2-0.9-4.8-1.4c-3.2-1-6.2-2.2-9.2-3.4c-5.9-2.4-11.4-5.5-16.3-8.7c-1.2-0.8-2.4-1.6-3.6-2.4
		c-1.1-0.8-2.3-1.6-3.4-2.5c-1.1-0.9-2.1-1.7-3.1-2.5c-1-0.9-2-1.7-2.9-2.5c-3.8-3.3-7-6.7-9.6-9.8c-2.7-3-4.8-5.9-6.5-8.3
		c-1.7-2.4-2.8-4.4-3.6-5.7c-0.8-1.3-1.2-2.1-1.2-2.1L223.9,895z"/>
</g>
</svg>
