<?xml version="1.0" encoding="utf-8"?>
<!-- Generator: Adobe Illustrator 18.0.0, SVG Export Plug-In . SVG Version: 6.00 Build 0)  -->
<!DOCTYPE svg PUBLIC "-//W3C//DTD SVG 1.1//EN" "http://www.w3.org/Graphics/SVG/1.1/DTD/svg11.dtd">
<svg version="1.1" id="Layer_1" xmlns="http://www.w3.org/2000/svg" xmlns:xlink="http://www.w3.org/1999/xlink" x="0px" y="0px"
	 viewBox="0 0 960 1072" enable-background="new 0 0 960 1072" xml:space="preserve">
<g>
	<text transform="matrix(1 0 0 1 81.7288 1031.3989)"><tspan x="0" y="0" fill="#222222" font-family="'Helvetica'" font-size="50.5263">Badoo </tspan><tspan x="160.1" y="0" fill="#222222" font-family="'Helvetica-Bold'" font-size="56.8421">3</tspan></text>
	<g>
		<path fill="#FF944C" d="M60,1011.3c0,16.5-13.5,30-30,30s-30-13.5-30-30c0-16.5,13.5-30,30-30S60,994.8,60,1011.3z"/>
		
			<path fill="none" stroke="#FFFFFF" stroke-width="0.7853" stroke-linecap="round" stroke-linejoin="round" stroke-miterlimit="10" d="
			M60,1011.3c0,16.5-13.5,30-30,30s-30-13.5-30-30c0-16.5,13.5-30,30-30S60,994.8,60,1011.3z"/>
	</g>
	<g>
		<g>
			<defs>
				<rect id="SVGID_1_" x="0" y="0" width="960" height="960"/>
			</defs>
			<clipPath id="SVGID_2_">
				<use xlink:href="#SVGID_1_"  overflow="visible"/>
			</clipPath>
			<g clip-path="url(#SVGID_2_)">
				
					<path fill="#EDEDED" stroke="#FFFFFF" stroke-width="2" stroke-linecap="round" stroke-linejoin="round" stroke-miterlimit="10" d="
					M591.7,539.5l-1.6,9.6c0,0,4,0.2,6.1,0.7c2.1,0.5,4.7,1.6,6.8,3.2c2.1,1.6,4.7,3.7,7.9,4.8c3.1,1.1,5.8,2.1,7.8,4.2
					c2.1,2.1,1.8,6.7,1.8,6.7s-3.1,2.7-2.6,6.4c0.5,3.7-1.1,7.4,0.5,10.6c1.6,3.2,4.7,6.9,4.7,6.9s-1.8,2.8-3.4,5
					c-1.6,2.1-4.5,3.5-2.4,6.2c2.1,2.6,3.7,3.2,2.1,5.3c-3.1,4.2,0,3.7-1.6,8.5c-1.6,4.8,2,7.1,1.4,10.2c-1.6,7.4-2.4,2-1.9,5.1
					c0.5,3.2,5.8-0.5,3.7,2.7c-2.1,3.2-6.5,9.7-6.5,9.7l-9.4,12.2c0,0-3.1-2.1-7.3-2.1c-4.2,0-5.2-2.1-5.2-2.1s-5.8-0.5-7.9,1.1
					c-2.1,1.6-6.3-1.6-6.3-1.6s-3.7-0.5-5.8-3.7c-2.1-3.2-2.6,1.6-5.8-1.6c-3.1-3.2-4.7,0-4.7-4.2c0-4.2-1.6-6.9,0.5-9.6
					c2.1-2.7-4.7-1.6-4.7-4.2c0-2.7-2.6-2.1-3.7-4.8c-1-2.7-1-6.9-1-6.9s-6.8-2.6-7.9-5.8c-1-3.2-0.5,1.6-4.7,0.5
					c-4.2-1.1-0.5-3.7-3.7-4.8c-3.1-1.1-7.9-10.1-7.9-10.1s0-6.9-3.1-6.9c-3.1,0-4.2-9-4.2-9s4.7,1.6,6.8,0.5
					c2.1-1.1,5.2,1.6,6.8-0.5c1.6-2.1,6.3,0,8.4,0c2.1,0,5.8-1.6,8.4-3.2c2.6-1.6,7.3-0.5,8.9-2.6c1.6-2.1,0.7-12.4,2.8-12.9
					c2.1-0.5,1-3.2,3.7-4.2c2.6-1.1,3.7-2.1,3.7-4.8c0-2.6,1-4.2,3.7-4.8c2.6-0.5,5.8-4.2,5.8-4.2L591.7,539.5z"/>
				
					<path fill="#EDEDED" stroke="#FFFFFF" stroke-width="2" stroke-linecap="round" stroke-linejoin="round" stroke-miterlimit="10" d="
					M499.3,578.4l13.6-1.6c0,0,3.7-1.1,5.2,1.6c1.6,2.7,3.7,3.2,3.7,3.2s4.7,1.6,6.8,0.5c2.1-1.1,5.2,1.6,6.8-0.5
					c1.6-2.1,6.3,0,8.4,0c2.1,0,5.8-1.6,8.4-3.2c2.6-1.6,7.3-0.5,8.9-2.6c1.6-2.1,0.7-12.4,2.8-12.9c2.1-0.5,1-3.2,3.7-4.2
					c2.6-1.1,3.7-2.1,3.7-4.8c0-2.6,1-4.2,3.7-4.8c2.6-0.5,5.8-4.2,5.8-4.2l10.5-4.8V539c1.6-2.6-3.7-7.4-3.7-7.4l30.2-9.9
					c0,0-1.6-5.8-2.1-8.5c-0.5-2.7,3.1-5.3,2.1-8.5c-1-3.2-1-9,1.6-11.1c2.6-2.1,9.1-3.9,8.1-8.2c-1.1-4.2-4.7,0-4.2-3.7
					c0.5-3.7,0.3-6.7-0.7-9.8c-1-3.2,3.7-3.2,4.7-5.8c1.1-2.6,5.5-5.5,2.8-7.6c-2.6-2.1,0-8.5-2.1-10.1c-1.7-1.3-3-4.8-3.4-6
					c-1.8-0.3-6.3-1.4-7.6-3c-1.6-2.1-3.3-4-5.4-4c-2.1,0-0.8-7.1-0.8-7.1s-3.6-0.8-6.2-1.8c1.8,3.1,1.1,4.8-3.7,5
					c-6.5,0.3-7.4-2.3-9-7.5l-20.4,5.8c0,0-5.3,4.2-8.5,6.8c-0.2,2.1-0.5,4.3-2.4,5.1l-1.3,0c-0.3,2.2,0.3,4.4,0.6,5.7
					c0.5,2.1,1.4,1.3,1.4,5c0,3.7,3.7,6.4,2.6,9c-1,2.7-1.4,4.6-1.4,6.7c0,2.1,2.4,4.5,5.6,7.1c3.1,2.6,5.8,1.1,8.9,5.8
					c3.1,4.8,1.6,2.7,4.2,2.7c2.6,0,7.3-1.6,7.3-1.6v15.9l-5.8-1.6c0,0-2.1,0.5-4.2,2.1c-2.1,1.6-7.3,2.1-7.3-1
					c0-3.2,1.6-5.3-0.5-8.5c-2.1-3.2-7.9-1.1-9.4-4.8c-1.6-3.7-5.2-3.7-5.2-6.4c0-2.6,0.2-4.5-2.4-4.5c-2.6,0-3.7-2.1-5.2,1
					c-1.6,3.2-1.8,3.4-6,3.4c-4.2,0-7.3,0-10,0c-2.6,0-4.2-2.6-4.2-2.6s0.7-1.3,0.7-4.5c0-3.2-2.1-4.8-4.2-2.1c-2.1,2.6-6,3.4-6,0.2
					c0-3.2-1.6-8-1.6-8l-7.3,1.6c0,0,2.6,6.9,2.6,10.1c0,3.2-3.1,5.3-2.6,8c0.5,2.6,0.5,3.7,0.5,6.4c0,2.6-0.5,4.8-0.5,4.8h-28.3
					l-0.5,59.9c0,0,1.6,0.5,3.1,6.9c1.6,6.4,1,4.2,6.8,9.5C496.7,573.1,492.5,578.8,499.3,578.4z"/>
				
					<path fill="#EDEDED" stroke="#FFFFFF" stroke-width="2" stroke-linecap="round" stroke-linejoin="round" stroke-miterlimit="10" d="
					M435.9,221.5l1.1-13.3c0,0,6.8-2.7,6.8-6.9c0-4.2,2.6-7.4,5.2-7.4c2.6,0,5.8-1.6,9.9,0.5c4.2,2.1,5.8,5.8,8.4,7.4
					c2.6,1.6,8.4,1.6,11.5,1.6c3.1,0,4.2,0.5,8.4,1.6c4.2,1.1,7.9,1.6,7.9,1.6s-1-8,2.6-8c3.7,0,3.7,4.8,8.4,3.2
					c4.7-1.6,7.3-1.6,7.3-1.6s-1-4.2,2.6-4.8c3.7-0.5,1,5.3,5.2,1.1c4.2-4.2,2.6-4.8,6.3-4.8h10.5c4.2,0,2,2.1,4.2,2.1
					c2.1,0,7.3-0.5,7.3-0.5l4.2,6.4c0,0,1.1,4.8,3.1,6.4c2.1,1.6,4.7,0.5,5.2-3.2c0.5-3.7,4.7,1.6,7.9,3.2c3.1,1.6,3.1,0.5,5.2-2.1
					c2.1-2.6,5.2-1.1,6.8,2.1c1.6,3.2,3.1,6.4,5.2,8.5c2.1,2.1,6.3,2.6,8.4,4.8c2.1,2.1,4.7,0,4.7,0l7,3.4c0,0,1.6,3.7,0.5,6.9
					c-1.1,3.2-7.9,8.5-4.7,8.5c3.1,0-0.5,3.7-1.6,5.8c-1.1,2.1-2.3,8.8-0.2,8.8c2.1,0,2.8,3.4,0.7,6.1l-4.1,4.9c0,0,1.1-3.4,2.5-5.4
					c-2,1.8-9.2,5.7-10.1,8.1c-0.7,1.8,0.8,3.8,0.5,5.4l-5.9,3.2c0,0-3.7,4.8-3.7,7.4c0,2.5-1.7,9.8-3.6,13.4
					c0.1-1.5-0.8-2.1-3.5-0.9c-4,1.8-9.3,11.6,0,10.2c0.1-0.5,1-2.2,1.8-3.9c-0.2,1.5-0.4,2.8-1.3,3.8c-5.2,5.8,0.5,9,0.5,9
					s-0.8,4.1-1.3,7c-1.7-1.4-5.4-4.5-5.7-5.7c-0.3,1.8-9,15.5,0.1,14.1c-0.4,0.8-0.8,1.8-0.6,2.9c0.5,2.6,6.5,4,6.5,4l1.6,5.8
					l-0.2,2.1c-1.3,0-2.4,0.4-3.3-0.4c-0.6,3.5-8,15.8,0,16.3c-0.7,2.6-3,3.5-2,8.1l4,4.1c0.2,4.7-1.1,8.7-4,10.2c0,0,5,16.6,6,18.3
					l12.1,8.2c1.1,2.3-1.1,3.7,0,6.1c1.6,3.4,2.4,6.3,3.1,8.8l-20.4,5.8l-8.5,6.8c0.2-2.1,0.4-4.1,1.6-5.1
					c-3.1,2.4-6.9,4.1-10.1,6.1c0.3,0.7,3.1,3.1,2,4.1h3.2c-0.3,2.1-0.1,4.4,0.2,5.7c0.5,2.1,1.4,1.3,1.4,5c0,3.7,3.7,6.4,2.6,9
					c-1,2.7-1.4,4.6-1.4,6.7c0,2.1,2.4,4.5,5.6,7.1c3.1,2.6,5.8,1.1,8.9,5.8c3.1,4.8,1.6,2.7,4.2,2.7c2.6,0,7.3-1.6,7.3-1.6v15.9
					l-5.8-1.6c0,0-2.1,0.5-4.2,2.1c-2.1,1.6-7.3,2.1-7.3-1c0-3.2,1.6-5.3-0.5-8.5c-2.1-3.2-7.9-1.1-9.4-4.8
					c-1.6-3.7-5.2-3.7-5.2-6.4c0-2.6,0.2-4.5-2.4-4.5c-2.6,0-3.7-2.1-5.2,1c-1.6,3.2-1.8,3.4-6,3.4h-10c-2.6,0-4.2-2.6-4.2-2.6
					s0.7-1.3,0.7-4.5c0-3.2-2.1-4.8-4.2-2.1c-2.1,2.6-6,3.4-6,0.2c0-3.2-1.6-8-1.6-8l-7.3,1.6c0,0-6.8,0.5-8.9,0
					c-2.1-0.5-4.2-1.6-5.8,1.1c-1.6,2.6-3.7,2.1-6.3-0.5c-2.6-2.7-1-4.8-2.1-9c-1-4.3-0.5-4.8,0.5-7.4c1-2.6,1.6-5.8-1.6-8
					c-3.1-2.1,0-4.2-2.1-8c-2.1-3.7-2.1-4.2-2.6-8.5c-0.5-4.2,2.1-7.4-1.1-8.5c-3.1-1.1-0.1-5.6-1-9c-1.6-5.8-12-3.2-12-3.2v-3.7
					c0-3.7-2.6-0.5-7.9-1.1c-5.2-0.5-6.3-2.1-8.4,0.5c-2.1,2.7-0.5,8,0.5,10.1c1,2.1-2.6,4.3-4.7,2.1c-2.1-2.1-3.7,3.2-7.3,3.2
					c-3.7,0-5.8,1.1-8.4-2.1c-2.6-3.2-3.1-1.6-4.2-6.9c-1-5.3,0-6.9-1.6-10.6c-1.6-3.7,0.5-5.3-0.5-7.9c-1-2.7-3.1-9-3.1-9
					l-25.7,0.5c0,0-11,0-17.3-1.1c-6.3-1.1-11,1.6-13.6,4.2c-2.6,2.7-10,6.1-10,6.1l-1.7,0.7c-1.1-5.4-2.1-10.4-5.8-14
					c-1.1-0.8,1.5-2.7,1.5-2.7l10.4-5.8c0,0-1.6,0,0.5-4.2c1.4-2.7,4.1-6.6,4.1-6.6s2.1,1.6,3.7-0.5c1.6-2.1,5.2,0,8.4,0
					c3.1,0,1-6.4,1-6.4s1.6,0.5,4.7,1.1c3.1,0.5,6.3-1.6,6.3-1.6l-0.5,9c0,0,5.2-0.5,8.4-0.5c3.1,0,4.2,0,6.8-2.1
					c2.6-2.1,4.7,0,5.8-2.1c1.1-2.1,2.1-5.3,1.6-10.1c-0.5-4.8,2.1-0.5,3.7-5.9c1.6-5.3,1.1-1.6,1.6-6.9c0.5-5.3-2.6-6.4-3.1-11.1
					c-0.5-4.8,2.1-6.4,4.2-10.1c2.1-3.7,5.2-2.7,5.2-8c0-5.3,0.5-9,4.2-13.8c3.7-4.8,3.1-8.5,3.1-14.9c0-6.4-1-5.8-1-10.1
					c0-4.2,1.6-6.9,1.6-13.3c0-6.4,2.1-6.9,4.2-9C435.4,234.7,435.9,221.5,435.9,221.5z M574.4,321c-0.2,1-0.5,1.9-0.5,2.5
					c0,0.9-0.5,1.7-1.1,2.3C573,323.9,572.7,322,574.4,321z"/>
				
					<path fill="#EDEDED" stroke="#FFFFFF" stroke-width="2" stroke-linecap="round" stroke-linejoin="round" stroke-miterlimit="10" d="
					M753,7.9c0,0,3.1-1.6,3.1-4.2c0-2.6,2.6-0.5,2.6-3.7c0-3.2,0-2.1,1.6-3.7c1.6-1.6,0.6-2.5,3.2-3.2c5.8-1.6,1.6,2.6,4.7,4.2
					c3.1,1.6,3.9,0.4,8.1-0.2c4.2-0.5,22.8,6,22.8,6l2.6,17c-0.7,0,7.1-8.7,7.1-8.7l17-22.1l46-16.6l-0.4,4.4l13.4,24.4l7.7,7.4
					l-1.3,0.3c-6,1.1-11,0.6-15.2,4.8c-3.6,3.6,0.8,8.3,0,10.2h-4l-2,6.1h-2v2c-10.1,7.4-23.4,7.5-34.2,14.2c-1.9,1.2-4,7.3-6,8.2
					c-9.1,3.4-10.6,0.3-14.1-2c-1.4,0.3-5.6,3.9-6,4.1c-3.8,1-8.4-1.3-12.1,0c-7.5,2.5-10.9,11.4-20.1,12.2
					c-18.9,1.5-12.7-5.4-16.1-18.3c-0.6-2-5.1-4.6-6-6.1c0,0,0.4-5.4,2-2c-1.8-6.7-3.1-24.9-4-24.4V14c0-0.4,0.6-1.9,1.1-3.8
					L753,7.9z M898.1,73c-5.4,0.4,6,4.1,6,4.1S907.1,72.2,898.1,73z"/>
				
					<path fill="#EDEDED" stroke="#FFFFFF" stroke-width="2" stroke-linecap="round" stroke-linejoin="round" stroke-miterlimit="10" d="
					M590.5,272.6c-0.1-0.9-5.3,2.5-5.3,2.5s-3.7,4.8-3.7,7.4c0,2.5-1.7,10-3.7,13.5c0,1.5-0.7,3.5-1.7,5.5c-0.2,1.4-0.5,2.6-1.3,3.6
					c-5.2,5.8,0.5,9,0.5,9l0.5,1.1c0,0,3.5,1.9,6.1,4c2.6,2.1,5.2,2.7,7.3,0.5c2.1-2.1,6.8-3.7,6.8-3.7l11.9-0.4l0.5-2.2
					c-5.8,4.1-2.2-10.7,0-12.2c-0.8-3.4-2.7-3-2-8.1c2.1-0.9,4.9-5.7,6-6.1c2.6-1.1,9.6,1.6,14.1,2c0.8-3.3-1.7-3.4,2-4.1
					c0.7,1.2,5.6,1.1,6,2c0.8,1.6,0,6.3,0,8.1c3.5,0.6,3.7,3.9,4,4.1l1.1-6.8c0,0-1.6-3.2,0-4.8c1.6-1.6-3.9-9.8-1.3-12.5
					c2.6-2.6,1.6-4.8,2.1-10.6c0.5-5.8,3.7-3.2,4.7-5.3c1-2.1,1.3-4.5,1.8-7.7c0.5-3.2,0-5.8-3.1-8.5c-3.1-2.6-2.6-4.2-1.6-9.6
					c1-5.3,3.1-5.8,0.5-8.5c-2.6-2.6,2.1,0.4-3.1-3.2c-1.6-1.1-2.6-3.2-2.6-3.2l-0.5-4l-5.2,4c0,0-5.8-4.8-9.4-2.7
					c-3.1,1.8-1,2.1-5.2,1.6c-4-0.5-9.7,5.9-9.7,5.9c0.5,1.2,1.6,3.9,0.8,6.3c-1.1,3.2-7.9,8.5-4.7,8.5c3.1,0-0.5,3.7-1.6,5.8
					c-1.1,2.1-2.3,8.8-0.2,8.8c2.1,0,2.8,3.4,0.7,6.1l-4.1,4.9c-1,2.7-2,5.5-3.5,6.8C593.8,271.2,591.7,271.9,590.5,272.6z
					 M614.6,262.4c3.6,0.6,7,7.1,0,6.1C611.3,268,609.3,261.4,614.6,262.4z"/>
				
					<path fill="#EDEDED" stroke="#FFFFFF" stroke-width="2" stroke-linecap="round" stroke-linejoin="round" stroke-miterlimit="10" d="
					M217.4,182.9c0,0,0.6-0.7-1.5-3.9c-2.1-3.2-1.6-3.2-1.6-3.2s0.5-5.3-0.5-9c-1-3.7-1-4.2,0.5-9c1.6-4.8,0.5-5.3,0.5-10.6
					c0-5.3-2.1-5.8,0-12.2c2.1-6.4,0-9.5,0-9.5s-2.1-4.2-1.1-7.4c1.1-3.2-0.5-9-0.5-9l-10-2.7l1.1-13.8c0,0-3.7,0-6.3-0.5
					c-2.6-0.5-5.8-1.1-5.8-1.1s-2.6,11.7-0.5,12.2c2.1,0.5,4.7,3.2,4.7,8c0,4.8,1.6,9.6-0.5,12.7c-2.1,3.2,3.1,3.7,2.1,6.4
					c-1.1,2.7-4.7,6.4-1.6,11.1c3.2,4.8,4.2,4.8,4.2,9c0,4.2-1.6,11.1-1.6,13.2c0,2.1-1.6,4.8,0.5,6.4c2.1,1.6-2.1,1.6,0,3.7
					c2.1,2.1,7.9,13.7,7.9,13.7c2.7,1.8-4.1,8.8,2.9,5.8c3-1.4,5.1-8.5,8-10.2L217.4,182.9z"/>
				
					<path fill="#EDEDED" stroke="#FFFFFF" stroke-width="2" stroke-linecap="round" stroke-linejoin="round" stroke-miterlimit="10" d="
					M707.4,360.4l-14.3-9c0,0-0.5-2.1-3.7-2.7c-3.1-0.5-3.1-3.2-2.6-6.9c0.5-3.7-2.1-6.9-2.1-6.9L641.8,315l-1,6.4
					c-3-1.9-6.1,2-6.1,2c1.6,2.5,5.7,4,8.1,6.1c-1.7,0.8,1.1,7.8-2,2c-3.3,1.2-3.5,1.5-6.1,2.1c0,2.8,1,7.6,0,10.2
					c-2.5-2.3-1.4-3.6-2-8.1c-6.2-1.5-7.5-2.4-12.1-4.1v4.1c-1.5,0.5-4.6,0-6,0l2,6.1c-1.5,0.3-4.6-0.9-6,0
					c-4.9-10.7-5-14.9-2.6-26.3l-11.9,0.4l3.7,7.4c0,0-1,4.2-0.5,8c0.5,3.7-0.5,4.2-0.5,4.2s-3.1,6.9,1,9c4.2,2.1,4.2,1.1,4.2,1.1
					s-0.9,4-2.4,6.1c-1.6,2.1-5.8,4.3-5.8,4.3l-1.6,7.9c0,0-4.2,1.6-6.3,2.1c-2.1,0.5-8.9-0.6-8.9-0.6c0.1,8.1,0,16.3-0.6,25.2
					c5.1,3.4,11.6,2.6,14.1,8.1c1.8,4.1-1.3,9.8,0,14.3c0.9,3.2,9.5,9.5,12,13.8c2.6,0.9,6,1.2,6,1.2s-1.3,7.1,0.8,7.1
					c2.1,0,3.9,1.9,5.4,4c1.6,2.1,6.8,3,10.2,3.4l8.5,3.5l1.4,0.7l2.8,1.4c2.5,0.2,1.3,6.3,2.5,7.1c1.3,5.7,0.8,12.8,0,19.8
					c-0.1,1.9-0.6,4.1-0.8,6.6l-0.3,2.6c0,0,7.2-0.5,10.9-2.6c3.7-2.1,2.1-2.6,5.2-1.6c3.1,1.1,2.1,6.9,6.3,5.8
					c4.2-1.1,6.3-2.1,9.4-2.1c3.2,0,6.2-0.8,9.4-2.1c2.6-1,3.1-4.8,5.8-3.2c2.6,1.6,1.6,0.5,4.7,0c3.1-0.5,3.1-3.7,6.8-4.2
					c3.7-0.5,7.3-0.5,10-2.7c2.6-2.1,7.9-2.2,7.9-2.2c1.8-3.9,2.4-6.8,1.7-9.5c-1.4-5.3-12.2-9.1-14.1-16.3c0,0-0.8-24.9,0-28.5
					c0.1-0.8,4.3-6.5,4-8.1c-0.6-3.5-11.4-9.9-12.1-14.3c-1.9-12,8.2-22.6,10.1-30.5L707.4,360.4z M622.7,413c0.6,0.2,7.4,9.7,0,6.1
					C622.5,419,618.1,410.9,622.7,413z M703.1,388.6c1,0.5,0.3,7.3,2,8.1C708.5,398.4,705.8,389.8,703.1,388.6z M648.8,354
					c5.7-1.4,0,4.1,0,4.1C642.8,360.2,645.4,354.8,648.8,354z M626.7,323.5c0.6,0.1,4.6,3.3,6,4.1v-4.1
					C631.6,323,627.8,323.6,626.7,323.5z"/>
				
					<path fill="#EDEDED" stroke="#FFFFFF" stroke-width="2" stroke-linecap="round" stroke-linejoin="round" stroke-miterlimit="10" d="
					M610.6,727.3c0,0,1.4-5.7,1.4-8.9c0-3.2-5.8-6.4-5.8-6.4s-4.2,3.2-6.3,1.6c-2.1-1.6-4.2,1.1-4.2,6.4c0,5.3-1,4.3,1.1,8.5
					c2.1,4.2,1,2.1,4.7,4.2c3.7,2.1,9.4,3.2,9.4,3.2L610.6,727.3z"/>
				
					<path fill="#EDEDED" stroke="#FFFFFF" stroke-width="2" stroke-linecap="round" stroke-linejoin="round" stroke-miterlimit="10" d="
					M509,148.7l2.5-1.6c0,0,0.7-0.9,1.5-0.9c0.8,0,0.6-0.9,1-1.4c0.3-0.5,0.4-1,0-1.9c-0.4-1-0.4-1.5-0.1-2.6
					c0.2-1.1,0.1-1.3,0.7-2.2c0.6-0.9-0.1-1.3,0.1-1.8c0.3-0.5,0.6-1.1,1.4-2c0.8-0.9,0.2-1.1,0.1-2c0-0.9-0.1-2.9-0.1-2.9l1.5-1.7
					c0,0,0.9-0.4,1.3-1.5c0.4-1.1,0.9-1,0.9-2.1c0.1-1.1-0.3-0.8-0.1-1.6c0.2-0.7,0.5-1.1,0.8-2.1c0.3-1,0.3-0.9,1.1-0.9
					c0.7,0,0.4-0.5,1-0.3c0.5,0.2,0.5,0.8,1,0.3c0.5-0.5,1.2-0.4,1.2-0.4s0.7-0.4,1.4,0c0.6,0.4,0.8,0,1.3-0.9
					c0.5-0.9,0.7-0.1,1.5,0.2c0.7,0.4,0.6-0.5,1.3-0.8c0.6-0.3,1,0.8,1,0.8l0.1,3.7c0.9,0.2,1.7,1.1,2.1,2.4
					c0.5,1.3,1.7,2.4,1.7,2.4s0.4,2.1,0.8,3.2c0.4,1.1,0.9,2.7,1.5,3c0.6,0.3,4.3,1.4,4.3,1.4s1.3-0.8,2.1-1.3
					c0.8-0.5,2.7-1.2,2.7-1.2l10.2,0.1l1.7,4.6l9.3-0.1c0,0,0-0.4-0.2-1c-0.2-0.6,0.7-1.3,0.7-1.3l3.7-5l5.8-0.1l-0.1-5.9l5.5-3.9
					c0,0,9.8,8.4,10.2,8.8c0.4,0.4,0.7,1.3,1.1,1.2c0.5-0.1,0.9-0.6,0.9-0.6l5.3-0.5l6.5-11.2l1.7-4.6l2.1-1.8l4-5.2l-1.5-2.6
					l-0.2-8.9l-3.5-4.2l8.1-0.2c0,0,0.1-2.1-0.2-2.6c-0.4-0.5-0.1-1.2-0.1-1.2l0.1-1.3l7.3-0.2c0,0-0.2,0.6-0.5,1.3
					c-0.3,0.7-0.5,2-0.6,3.4c-0.1,1.5-0.5,3.9-0.5,3.9s-0.4,1-0.6,2.2c-0.2,1.2,0.4,2.4,0.8,3.6c0.4,1.2,0.5,2.8,0.5,4
					c0,1.2,0.5,4.4,0.5,4.4s0.5,0.8,0.1,1.5c-0.3,0.6-0.5,1.8-0.5,1.8s1.1,0.6,1.8,0.9c0.7,0.4,1.8-0.2,1.8-0.2s1.7,3.1,2.3,4.1
					c0.7,1,1.6,1.4,2,2.3c0.5,0.8,1.3,2.6,1.3,2.6l0.8-0.1l0.2,1.3c0,0-0.9,0.9-0.9,2.3c0,1.5-0.2,1.8-0.5,2.9
					c-0.2,1.1,0.3,1.9,0.3,2.8c0,1,0.5,2.3,0.5,2.3l0.6,0l0.4,0.1l-0.1-3.8c-0.5-3.2,6.1-11.3,6.1-16.1c0-4.8,0.5-9,0.5-9
					s3.1-2.7,5.8-3.7c2.6-1.1,4.2-2.1,5.2-4.8c1-2.7,2.1-5.3,3.7-8.5c1.6-3.2,4.2-6.9,4.2-12.2c0-5.3,5.2-8.5,6.8-12.2
					c1.6-3.7,6.8-10.6,6.8-10.6s0.5-13.3-0.5-15.4c-1-2.1,0-6.4,1-11.1c1-4.8,3.7-6.4,3.7-11.7c0-5.3-0.5-5.8,0.5-10.6
					c1-4.8-1-6.4,1.6-6.4c2.6,0,1.6-3.2,3.1-5.8c1.6-2.7,7.4-5.7,7.4-5.7l7.3,1.1l5.6-6.6l-0.9-1.6h-4C698.2-23,681.3-41.7,681-43
					c-3.5-14.5,3.6-22.8,0-36.6l-4-2c-1.3-3.4,1.3-6.8,0-10.2c-0.4-1-12.7-7.8-14.1-10.2l-1-1.5l-7.6,3l-4.7,0.5l-3.1,9l-4.7,1.1
					l-1.6,8.5l-4.7,1.1l-1.6-2.6h-12l-1-3.2l-3.7,2.7L523.7-84l0.2,31.3h-12.6v12.2v62.1c0,0-6.8,1.6-9.4,0
					c-2.6-1.6-4.7-2.7-6.3,1.1c-1.6,3.7-4.2,5.3-2.6,8.5c1.6,3.2,0,4.8-3.1,6.9c-3.1,2.1-2.1,2.7-2.1,5.8c0,3.2,0,7.4-3.1,10.1
					c-3.1,2.7-3.1,0.5-3.1,4.8c0,4.2-1,4.8-3.7,6.4c-2.6,1.6-1.6,2.7-1.6,5.3c0,2.7,3.7,0.5,6.3,0.5c2.6,0,3.7,1.1,5.2,3.7
					c1.6,2.6-3.1,4.8-2.6,8c0.5,3.2,0.5,3.2,0.5,3.2s1.6,2.1,0,5.8c-1.6,3.7-0.5,3.7,2.1,6.4c2.6,2.6,1,5.3,1,5.3l8.4,8
					c0,0,0.5,5.8-0.5,9c-1,3.2-2.6,3.2,1.6,6.4c4.2,3.2,4.7,3.7,3.1,8.5c-1.6,4.8,4.2,11.1,6.3,12.2L509,148.7z"/>
				
					<path fill="#EDEDED" stroke="#FFFFFF" stroke-width="2" stroke-linecap="round" stroke-linejoin="round" stroke-miterlimit="10" d="
					M658.2,203c1.1,0.1,2.2,0.1,3.1,0.1c3.7,0,3.1,7.4,3.1,7.4l0.5,4.2l-7.3-5.8l-5.8,0.5c0,0-2-0.2-5.2,0l-3.7,3.7l-6.8,1.6
					l-4.7,3.7c0,0-5.8-4.8-9.4-2.7c-3.1,1.8-1,2.1-5.2,1.6c-4-0.5-9,4.7-9,4.7l-0.4,0.6l-7-3.4c0,0-2.6,2.1-4.7,0
					c-2.1-2.1-6.3-2.6-8.4-4.8c-2.1-2.1-3.7-5.3-5.2-8.5c-1.6-3.2-4.7-4.8-6.8-2.1c-2.1,2.7-2.1,3.7-5.2,2.1
					c-3.1-1.6-7.3-6.9-7.9-3.2c-0.5,3.7-3.1,4.8-5.2,3.2c-2.1-1.6-3.1-6.4-3.1-6.4l-4.2-6.4c0,0-0.5-5.3-2.6-5.9
					c-2.1-0.5-0.5-4.8-2.1-9c-1.6-4.2-3.7-6.4-8.4-7.4c-4.7-1.1-4.2-6.4-5.8-9c-1.6-2.7-2.6-2.1-5.2-2.1c-2.6,0-4.7-2.7-6.3-4.8
					c-1.6-2.1-3.1-2.1-6.3-2.1c-2.2,0-2.8-2.3-3.7-4l-0.2-0.4l2.5-1.6c0,0,0.7-0.9,1.5-0.9c0.8,0,0.6-0.9,1-1.4c0.3-0.5,0.4-1,0-1.9
					c-0.4-1-0.4-1.5-0.1-2.6c0.2-1.1,0.1-1.3,0.7-2.2c0.6-0.9-0.1-1.3,0.1-1.8c0.3-0.5,0.6-1.1,1.4-2c0.8-0.9,0.2-1.1,0.1-2
					c0-0.9-0.1-2.9-0.1-2.9l1.5-1.7c0,0,0.9-0.4,1.3-1.5c0.4-1.1,0.9-1,0.9-2.1c0.1-1.1-0.3-0.8-0.1-1.6c0.2-0.7,0.5-1.1,0.8-2.1
					c0.3-1,0.3-0.9,1.1-0.9c0.7,0,0.4-0.5,1-0.3c0.5,0.2,0.5,0.8,1,0.3c0.5-0.5,1.2-0.4,1.2-0.4s0.7-0.4,1.4,0
					c0.6,0.4,0.8,0,1.3-0.9c0.5-0.9,0.7-0.1,1.5,0.2c0.7,0.4,0.6-0.5,1.3-0.8c0.6-0.3,1,0.8,1,0.8l0.1,3.7c0.9,0.2,1.7,1.1,2.1,2.4
					c0.5,1.3,1.7,2.4,1.7,2.4s0.4,2.1,0.8,3.2c0.4,1.1,0.9,2.7,1.5,3c0.6,0.3,4.3,1.4,4.3,1.4s1.3-0.8,2.1-1.3
					c0.8-0.5,2.7-1.2,2.7-1.2l10.2,0.1l1.7,4.6l9.3-0.1c0,0,0-0.4-0.2-1c-0.2-0.6,0.7-1.3,0.7-1.3l3.7-5l5.8-0.1l-0.1-5.9l5.5-3.9
					c0,0,9.8,8.4,10.2,8.8c0.4,0.4,0.7,1.3,1.1,1.2c0.5-0.1,0.9-0.6,0.9-0.6l5.3-0.5l6.5-11.2l1.7-4.6l2.1-1.8l4-5.2l-1.5-2.6
					l-0.2-8.9l-3.5-4.2l8.1-0.2c0,0,0.1-2.1-0.2-2.6c-0.4-0.5-0.1-1.2-0.1-1.2l0.1-1.3l7.3-0.2c0,0-0.2,0.6-0.5,1.3
					c-0.3,0.7-0.5,2-0.6,3.4c-0.1,1.5-0.5,3.9-0.5,3.9s-0.4,1-0.6,2.2c-0.2,1.2,0.4,2.4,0.8,3.6c0.4,1.2,0.5,2.8,0.5,4
					c0,1.2,0.5,4.4,0.5,4.4s0.5,0.8,0.1,1.5c-0.3,0.6-0.5,1.8-0.5,1.8s1.1,0.6,1.8,0.9c0.7,0.4,1.8-0.2,1.8-0.2s1.7,3.1,2.3,4.1
					c0.7,1,1.6,1.4,2,2.3c0.5,0.8,1.3,2.6,1.3,2.6l0.8-0.1l0.2,1.3c0,0-0.9,0.9-0.9,2.3c0,1.5-0.2,1.8-0.5,2.9
					c-0.2,1.1,0.3,1.9,0.3,2.8c0,1,0.5,2.3,0.5,2.3l0.6,0l0.4,0.1c-0.1,3.8-0.7,8.7-0.7,10.5c0,2.7-2.6,8.5-2.6,8.5s-1,1.6-5.2,2.1
					c-4.2,0.5-4.7,1.1-4.7,1.1s-1,4.2-2.1,7.4c-1,3.2,6.1,1.4,8.7,2.5c2.6,1.1,4.7,1.1,6.8,4.8c2.1,3.7,3.1,5.8,5.8,7.9
					c2.6,2.1,3.7,2.7,3.7,6.9c0,4.2,4.2,8.5,5.2,13.8C650.9,201.6,654.8,202.7,658.2,203"/>
				
					<path fill="#EDEDED" stroke="#FFFFFF" stroke-width="2" stroke-linecap="round" stroke-linejoin="round" stroke-miterlimit="10" d="
					M765.3,94.3l-11.2,12.8l-3.9,6.2c0,0,3.7,4.8,5.8,7.4c2.1,2.7,1.1,5.3,4.2,7.4c3.1,2.1,3.7,4.8,8.9,6.9
					c5.2,2.1,34.8,16.6,34.8,16.6l19.2-1.6L787.9,204l-16.2,0.5l-5.8,4.2l-12.6,0.5l-2.6,2.6l-7.8,17.5l-7.3,5.3l1,54.6l6.2,8.1
					c0-1.7,0.5-3.5,2.6-6.6h4c0.9-0.6,9.2-17.6,10.1-18.3c1.6-1.7,6.1-0.8,8.1-2c2.6-1.7,5.1-9.1,8-10.2c2.1-0.8,4.2,1.3,6,0
					c3.5-2.7,11.8-10.6,14.1-14.2c0.9-1.5,0.8-7.2,2-8.1c3.1-2.9,7.3-0.7,10.1-4.1c1.2-1.7-0.8-6.2,0-8.1c1.1-2.7,8.3-3.5,10-6.1
					c2.1-3.3,0.4-6.7,2-10.2c0.4-1,5.8-5.7,6-6.1c3.6-8.8,2.8-13.6,6-22.4h4c3.6-9,2.6-17.7,6-26.5c2.4-6.4,9.4-12.9,12.1-18.3
					c1-2.2-0.8-5.9,0-8.1l4-2c1.3-3.6-0.8-8.5,0-12.2l4-4.1c0,0,1.8-18.2,2-20.4l-2-6.1h-4c-2.5,1.1-9,7.4-12.1,8.2
					c-11.9,2.7-20.4-0.3-30.2,4.1c-2.9,1.3-5.6,7.4-10,8.1c-6.6,1.1-13.4-3.8-22.1-2c-0.4,0.1-6.8,4.3-8,4.1
					C772,105,768.4,99.5,765.3,94.3z"/>
				
					<path fill="#EDEDED" stroke="#FFFFFF" stroke-width="2" stroke-linecap="round" stroke-linejoin="round" stroke-miterlimit="10" d="
					M16.2,137.6c3.3,8.8,0,19.2,7.4,22.9c2.7,1.3-3.5,1.3-2,4.1c1.7,3,2-2,2-2c1.5,2.5,6.7,11.4,10,12.2c0.9,0.2,5.2-0.6,6,0
					l0.7,0.7c0,0,2.8-7.6,5.9-11.8c3.1-4.2,6.3-9,6.3-9s2.6-4.2,5.2-4.8c2.6-0.5,2.6-5.3,2.6-5.3l-5.8,1.1c0,0,3.1-5.3,2.1-8.5
					c-1-3.2-1-1.6-2.6-5.8c-1.6-4.2-4.7-2.1-4.7-6.4c0-4.2-1-7.4-3.7-7.4c-2.6,0-3.1,2.7-7.9,0c-4.7-2.7-7.9-2.7-9.4,1.6
					c-1.6,4.2-1,9-3.7,10.6c-2.6,1.6-1,4.4-4.2,5C17.5,135.2,16.2,137.6,16.2,137.6z"/>
				
					<path fill="#EDEDED" stroke="#FFFFFF" stroke-width="2" stroke-linecap="round" stroke-linejoin="round" stroke-miterlimit="10" d="
					M-23.6,81.5l8.7-2.7l6.8-4.8c0,0,16.8,0,20.4,1.1c3.7,1.1,5.8,2.6,8.9,1.1c3.1-1.6,5.2,0,7.9,1.6c2.6,1.6,12.6-1.6,12.6-1.6
					s-1.1-7.4-1.1-9.6c0-2.1-2.6-3.2-4.7-5.3c-2.1-2.1-1.6-5.3-1.6-5.3s3.7-11.1,1.6-11.7c-2.1-0.5-0.5-8-0.5-8s-2.6-2.6-3.1-4.8
					c-0.5-2.1-6.3,1.1-7.3-3.2c-1-4.2,0.5-7.4-2.1-8.5c-2.6-1.1-6.8,0.5-6.8-3.7c0-4.3-1-5.8-3.7-7.4C9.6,7.2,9.6,4,4.4,4.6
					c-5.2,0.5-4.7,1.1-8.9,0.5c-4.2-0.5-5.8-3.2-6.8,0c-1,3.2-8.1,4.9-8.1,4.9c-0.4,2-0.8,4-1.3,6.1h-4c-0.7,8.1,0.4,14.7-2,20.4
					c-0.7,1.4-7.9,6.7-8,8.1c-0.5,3.6,3.6,11,6.8,16.5c0,0,5.1-2.4,8.7-2.4c3.7,0,2.6,1.1,6.3-1.1c3.7-2.1,1.6-2.7,4.2-0.5
					c2.6,2.1,8.9,0,12,0c3.2,0,5.8,0,8.9,0c3.1,0,5.2-2.1,5.2,2.1c0,4.2-2.1,5.8-5.8,5.8c-3.7,0-16.2,0.5-20.4,0.5
					c-4.2,0-5.2,3.7-5.2,3.7l-12,0.8C-29,72.4-25.5,78.4-23.6,81.5z"/>
				
					<path fill="#EDEDED" stroke="#FFFFFF" stroke-width="2" stroke-linecap="round" stroke-linejoin="round" stroke-miterlimit="10" d="
					M753,7.9c0,0,3.1-1.6,3.1-4.2c0-2.6,2.6-0.5,2.6-3.7c0-3.2,0-2.1,1.6-3.7c1.6-1.6,0.6-2.5,3.2-3.2c5.8-1.6,1.6,2.6,4.7,4.2
					c3.1,1.6,3.9,0.4,8.1-0.2c4.2-0.5,22.8,6,22.8,6l2.6,17c-0.7,0,7.1-8.7,7.1-8.7l17-22.1l45.6-16.4c0,0,35.4-15.2,42.9-18.6
					c3.3-1.4,8.4-37.1,8.9-39.3l-8.9-11.1c0,0-0.8,1.4-4,0.9c-3.1-0.5-42.9-7.9-42.9-7.9l-1.1-13.8l-6.8-8l0.3-5.7l-5.1-4h-2.9
					c-0.4-1.5-4-11.3-4-12.2c-0.1-4.5,3.8-5.1,2-10.2c-1.1-3.1-8.2-5.4-10.1-8.1c-2.6-3.9-1.5-8.4-4-12.2c-1.6-2.3-6.8-3.8-8-6.1
					c-2.1-4.3-0.2-9.2-2-14.6l-12.4,1.8l-2.1-5.8l-18.1-3.3l-23.6-3.2l-10-5.3l-1.6-9h-9.4l-1.1-4.3l-36.1-21.2l-0.8,3.3l-25.9,6.8
					l8.1,13.4c0,0-6.3,3.2-6.8,6.4c-0.5,3.2-3.7,2.7-5.2,5.8c-1.6,3.2-4.7,5.3-4.7,5.3l-13.3,6.3l-13.5-3.6c-0.4,3.4-1,8.1-1.4,9.6
					c19.3,10.8,11.5,15.3,23.1,32c1.7,2.5,9,5.9,10,8.1c3.4,7.5,0.2,15.6,4,22.4c3.6,6.4,15.7,10.1,18.1,20.4
					c0.8,3.3-1.1,6.1-2,10.2c0,0,0.2,20.5,4,18.3c0.9,8.5-0.8,15.4,2,22.4c3.6,9.1,16.9,10.6,22.1,18.3c4.6,6.8,2.6,17.8,6,24.4
					c0,0.1,7.5,3.4,8,4.1l10,16.3C753.9,4.2,753.8,5.3,753,7.9z"/>
				
					<path fill="#EDEDED" stroke="#FFFFFF" stroke-width="2" stroke-linecap="round" stroke-linejoin="round" stroke-miterlimit="10" d="
					M572.8,325.9c0,0.5-0.1,1-0.3,1.7c-1.3-0.3-2.2-0.1-2.8,0.3c0,0-2.2,1.8-1.8,4.5c0.5,3.4,7,4,7,4s2.1-4.2,5.3-0.5
					c3.1,3.7,0.8,7.7,5,4.5c4.2-3.2,2.1-8.5,4.7-6.9c2.6,1.6,8.9,2.1,8.9,2.1s1-0.5,0.5-4.2c-0.5-3.7,0.5-8,0.5-8l-3.7-7.4
					c0,0-4.7,1.6-6.8,3.7c-2.1,2.1-4.7,1.6-7.3-0.5c-2.6-2.1-6.6-4.5-6.6-4.5s-0.9,3.6-1.3,6.5c-0.1,0.9-0.3,1.9-0.3,2.5
					C573.9,324.5,573.4,325.2,572.8,325.9z"/>
				
					<path fill="#EDEDED" stroke="#FFFFFF" stroke-width="2" stroke-linecap="round" stroke-linejoin="round" stroke-miterlimit="10" d="
					M929.5-134.5l-5.7-3l1.1-4.8l-3.1-0.5c1.6-2.3,2.1-3.2,4.5-6.1C926.7-143.4,927.6-139.3,929.5-134.5z M892.2,9
					c1.3-0.3,2.6-0.6,4-1.1c0.8-0.3,4.5-5.7,6-6.1c2.1-0.8,4.1,3,8.1,0c3.2-2.5,2.1-10.1,6-12.2c2.1-1.2,9.4,0,12.1,0
					c7.6-14.2,4.1-10.4,20.1-16.3c-3.6-2.4,0.8-18.6,2-22.4c0.4,0,5.8,0.3,6,0c3-5.4,1.3-10.7,4-16.3c2.9-6,14.1-13.9,12.1-24.4
					c-0.4-2-4.9-0.9-6-2c-1.8-1.8-3.6-14-6-16.3c-4.3-4.1-10.8-2.7-16.1-6.1c-5.9-3.8-10.8-10.3-14.1-18.1c0,0-3.7,2.1-4.4,4.2
					c-0.7,2.1-6.2-2.3-5.8,0.1c0.4,2.3,2.9,4.3,2.9,4.3s-0.9,1.1-3.7,3.1c-2.9,2-2.4,4.8,0.1,3.9c1.3-0.5,1.9,5.9-1.6,10.7
					c-2.9,4.1-3,10-3,10l8.5,11.1c-0.5,2.1-5.6,37.8-8.9,39.3c-7.6,3.3-42.4,18.4-42.4,18.4l-0.6,4.4l13.4,24.4L892.2,9z"/>
				
					<path fill="#EDEDED" stroke="#FFFFFF" stroke-width="2" stroke-linecap="round" stroke-linejoin="round" stroke-miterlimit="10" d="
					M374.1,49.6l-8.2,2.9c0,0-2.6,5.8-6.8,5.8c-4.2,0-9.6,1.4-15.3-0.7c-5.8-2.1-10.4-0.4-13.5-0.4c-3.1,0-8,2.5-8.5,4.6
					c-0.5,2.1-5.2,1.1-12.6,0.5c-7.3-0.5-4.7-1.1-6.8-3.7c-2.1-2.7-6.3-1.1-9.9,1.1c-3.7,2.1-8.4,1.1-8.4,1.1s-4.2-8-6.8-8
					c-2.6,0-2.6-3.2-6.3-3.2c-3.7,0-6.8,0-10.5,1.6c-3.7,1.6-13.1,6.4-13.1,6.4s-1,4.2-1,7.4c0,3.2-5.2,8-5.2,8l-4.7,10.6l-7.9-3.2
					c0,0,1.6-2.6-1.6-4.8c-3.1-2.1-5.8-1.1-5.8-1.1l-5.2,6.9l-3.7-12.7c0,0,2.1-3.2,1.6-5.8c-0.5-2.6-5.2-1.1-5.2-1.1l-5.8-12.2
					l1-4.8l-9.4-5.8l-4.7-6.4l2.1-4.8l2.6,0.5l1.6-2.6c0,0,6.3,0.5,8.4-1.6c2.1-2.1,9.4-2.1,13.6-2.7c4.2-0.5,16.8-6.4,16.8-6.4h7.9
					c0,0,1.1-0.5,1.6-3.7c0.5-3.2,0.5-6.9,0.5-6.9l4.2-2.6l-1.6-38.7l18.4-3.6l7.2-12.9l70.2-54.6l31.4,18.6l1.6-3.2l9.4-6.9L393-66
					c0,0,8.4,10.6,5.2,14.3c-3.1,3.7-3.1,8-4.2,13.3c-1,5.3,0,55.2,0,55.2l-19.8,17.1v12c0,0-0.8-0.8-0.9,0.7
					C373.1,48.3,374.1,49.6,374.1,49.6z"/>
				
					<path fill="#EDEDED" stroke="#FFFFFF" stroke-width="2" stroke-linecap="round" stroke-linejoin="round" stroke-miterlimit="10" d="
					M405.8,767.7c0,0,7.7-6.5,8.8-8.6c1.1-2.1,2.1-2.1,5.2-2.1c3.1,0-0.7,2.8,0.9,6c1.6,3.2,2.1,3.2,6.8,3.2c4.7,0,4.7,2.1,7.3,0
					c2.6-2.1,4.2-2.1,5.8-5.3c1.6-3.2,7.9-2.7,7.9-2.7l0.7-51.4l0.8-59.9h14.1l0.5-55.7h9.9l29.3-2.7c0,0,4.2,2.1,4.7-2.1
					c0.5-4.2,6.8,3.7,7.3-1.1c0.5-4.8,5.8-3.7,5.8-3.7s-2.1-0.5-3.7-3.2c-1.6-2.6-5.2-1.6-5.2-1.6l-17.1,1.9l-28.5,5
					c0,0-6.8-3.7-10-2.7c-3.1,1.1-1.1-2.1-5.2,0c-4.2,2.1-5.2-4.2-9.9-2.7c-4.7,1.6-3.1-2.6-6.3-2.6c-3.1,0-5.2-5.3-5.2-5.3
					l-58.1-1.6c0,0-4.1-3.9-7.2-3.9c-3.1,0-2.9,5.7-7.3,4.2c-4.7-1.6-14.9,1-14.9,1c0.6,9.4,1.3,18,2.1,19.9h4l12.1,14.3
					c3.1,7.9-0.6,15.1,2,22.4c1.6,4.5,8.9,8.2,10.1,12.2c1,3.4-1.4,6.8,0,10.2c0.9,2.2,7.4,5,8,8.1c1.6,7.3-2.8,17.9-2,24.4
					c0.3,3.1,5.8,14.8,6,16.3c2.5,20.4-2.5,26.9,4,46.8c0.4,1.5,6.5,11.6,8,12.2c1.2,0.4,5.3-1,6,0c2.5,3.1,0.3,6.6,2,10.2
					L405.8,767.7z M383.5,612.5c3,1.5-2,4.1-2,4.1C381.8,615.2,380.2,610.9,383.5,612.5z"/>
				
					<path fill="#EDEDED" stroke="#FFFFFF" stroke-width="2" stroke-linecap="round" stroke-linejoin="round" stroke-miterlimit="10" d="
					M646.8,518.9c0.5,1.4,0.1-0.1,0.6,1.7c1,4.2,5.4,4.8,8,5.8c2.6,1.1,5.2,5.3,3.6,10.6c-1.6,5.3,1,2.6,0.5,7.4
					c-0.5,4.8-5.2,4.2-7.9,3.2c-2.6-1.1-1,10.1,1.1,12.2c2.1,2.1-1.1,6.4-3.7,6.9c-2.6,0.5-2.1-5.8-2.1-5.8s-1,0-4.2-2.1
					c-3.2-2.1-5.8-5.3-7.9-7.4c-2.1-2.1-1-4.2,0.5-6.9c1.6-2.6,1-6.9,1-10.1c0-3.2-2.1-5.8-2.1-5.8s-6.3,2.1-8.9,3.2
					c-2.6,1.1-1.1-2.1-2.1-5.3c-1-3.2-5.8-4.8-5.8-4.8l-30.2,9.9c0,0,5.8,5.3,4.2,7.9l-1.6,9.6c0,0,4,0.2,6.1,0.7
					c2.1,0.5,4.7,1.6,6.8,3.2c2.1,1.6,4.7,3.7,7.9,4.8c3.1,1.1,5.8,2.1,7.8,4.2c2.1,2.1,1.8,6.7,1.8,6.7s-3.1,2.7-2.6,6.4
					c0.5,3.7-1.1,7.4,0.5,10.6c1.6,3.2,4.7,6.9,4.7,6.9s-1.8,2.8-3.4,5c-1.6,2.1-4.5,3.5-2.4,6.2c2.1,2.6,3.7,3.2,2.1,5.3
					c-3.1,4.2,0,3.7-1.6,8.5c-1.6,4.8,2,7.1,1.4,10.2c-1.6,7.4-2.4,2-1.9,5.1c0.5,3.2,5.8-0.5,3.7,2.7c-2.1,3.2-6.5,9.7-6.5,9.7
					l-9.4,12.2c0,0,1.6,10.1-0.5,13.8c-2.1,3.7-1,9,0.5,14.9c1.6,5.8,0.5,10.1-0.5,13.2c-1,3.2-2.6,5.3-0.5,8
					c2.1,2.7,2.1,4.8,2.1,4.8s5.8,3.2,5.8,6.4c0,3.2-1.6,9-1.6,9l8.3,0.3c0.1-2.8,0-3.1,0-3.3c-0.3-1.1-5.2-4-6-6.1
					c6.3-5,14.3-10.9,22.1-14.3c5.3-2.3,9.9-0.6,14.1-4.1c9.6-8.3-1.6-55.4-2-67.2h-4c-1.5-7.1-0.6-11,0-14.2v-4.1
					c1.4-1.4,4.5-0.7,6-2c1.5-1.4,2.3-9.2,4-10.2h4c0.5-1,4-16.3,4-16.3c3.1-2.6,10.5-0.6,14.1-2c3-1.3,5.5-6.8,8-8.1
					c3.8-2.1,7.6,0.1,12.1-2.1c5.3-2.7,23.3-25.1,24.1-32.6c0.4-4-2.3-8.3-2-14.3c0.3-8.4,4.1-18.1,4-22.4c-0.1-4.2-3.9-22.3-4-26.5
					c-0.1-3.2,0.5-6,1.1-8.7c-1.4-0.2-6.2,0-8.8,2.1c-2.6,2.1-6.3,2.1-10,2.7c-3.7,0.5-3.7,3.7-6.8,4.2c-3.1,0.5-2.1,1.6-4.7,0
					c-2.6-1.6-3.1,2.1-5.8,3.2c-3.3,1.3-6.3,2.1-9.4,2.1c-3.1,0-5.2,1.1-9.4,2.1c-4.2,1.1-3.1-4.8-6.3-5.8c-3.1-1.1-1.6-0.5-5.2,1.6
					c-2.7,1.6-8.1,2.3-10.7,2.6c-0.3,3.3-0.5,5.4-0.4,8.2l4,4.1C646.4,503.8,644.2,508.4,646.8,518.9z"/>
				
					<path fill="#EDEDED" stroke="#FFFFFF" stroke-width="2" stroke-linecap="round" stroke-linejoin="round" stroke-miterlimit="10" d="
					M938.3,620.7c-8.6,1.2-2.5,9.5,2,12.2C939.8,632.7,947.5,619.4,938.3,620.7z"/>
				
					<path fill="#EDEDED" stroke="#FFFFFF" stroke-width="2" stroke-linecap="round" stroke-linejoin="round" stroke-miterlimit="10" d="
					M-28.3-64.4c1.6,5.2,6.3,7,7.6,11.3c0.8,2.7-1.8,18.4-2,18.3c4.7,15,6.3,28.3,3.3,44.8c0,0,7-1.7,8.1-4.9c1.1-3.2,2.6-0.5,6.8,0
					c4.2,0.5,3.7,0,8.9-0.5C9.6,4,9.6,7.2,12.2,8.8c2.6,1.6,3.7,3.2,3.7,7.4c0,4.2,4.2,2.6,6.8,3.7c2.6,1.1,1,4.2,2.1,8.5
					c1,4.2,6.8,1.1,7.3,3.2c0.5,2.1,3.1,4.8,3.1,4.8s2.6,1.1,5.2-1.1c2.6-2.1,0-4.8,1.6-9c1.6-4.2,0-5.3,2.1-5.3
					c2.1,0,4.7,0.5,9.4,2.1c4.7,1.6,6.8,0,6.8,0s6.3,0.5,4.2-2.7c-2.1-3.2-1.6-5.8,1-6.4c2.6-0.5,4.7,3.2,4.7,3.2l48.2-0.5
					c0,0,1.1-2.1,3.1-8c2.1-5.8-4.2-4.8-4.2-4.8l-8.4-134.7l23.7-1.2L89-165.7l0.3,24.4L40-140.2l-1,35.7c0,0-15.7-1.6-15.7,9.5
					c0,9,1,26,1,26l-49.2,1.6C-24.9-67.4-24.6-70.3-28.3-64.4z"/>
				
					<path fill="#EDEDED" stroke="#FFFFFF" stroke-width="2" stroke-linecap="round" stroke-linejoin="round" stroke-miterlimit="10" d="
					M94.5,126.5c0,0,1-3.2,5.2-5.3c4.2-2.1,3.7,2.1,3.7,2.1l2.1-8l3.1-2.1c0,0,2.1,5.3,5.8,4.3c3.7-1.1,3.1-5.8,3.1-5.8l2.6-4.2
					c0,0-2.1-10.1,1.6-11.7c3.7-1.6,2.6-4.8,1.6-6.9c-1-2.1,0.5-5.8,0.5-5.8s2.1-4.8,4.7-5.8c2.6-1.1,3.7,1.1,3.7,1.1
					s1-7.4,2.6-10.6c1.6-3.2,2.1-5.8,5.2-7.4c3.1-1.6,7.9-3.7,10-3.2c2.1,0.5,5.8-3.7,5.8-6.4c0-2.7,0.5-4.8,4.2-8
					c3.7-3.2,6.8-2.1,6.8-4.8c0-2.7,1-9,5.2-9c4.2,0,6.8-1.1,6.8-4.2c0-3.2,3.1-5.3,4.7-2.7c1.6,2.7,3.1-1.6,5.2,0.5
					c2.1,2.1,3.1,5.3,3.1,5.3l2.6,0.5l1.6-2.6c0,0,6.3,0.5,8.4-1.6c2.1-2.1,9.4-2.1,13.6-2.7c4.2-0.5,16.8-6.4,16.8-6.4h7.9
					c0,0,1.1-0.5,1.6-3.7c0.5-3.2,0.5-6.9,0.5-6.9l4.2-2.6l-1.6-38.7c0,0-14,4.9-13.5,2.8c0.5-2.1,1.5-3.9-0.1-7.6
					c-1.6-3.7-1.6-1.6-0.5-7.4c1.1-5.8-1.6-5.3-4.2-7.4c-2.6-2.1-6.8-2.1-10-4.8c-3.1-2.7-3.7-6.9-3.7-6.9l-82.6-63.8l-23.7,1.2
					L117.5,4c0,0,6.3-1.1,4.2,4.8c-2.1,5.8-3.1,8-3.1,8l-48.2,0.5c0,0-2.1-3.7-4.7-3.2c-2.6,0.5-3.1,3.2-1,6.4
					c2.1,3.2-4.2,2.7-4.2,2.7s-2.1,1.6-6.8,0c-4.7-1.6-7.3-2.1-9.4-2.1c-2.1,0-0.5,1.1-2.1,5.3c-1.6,4.2,1,6.9-1.6,9
					c-2.6,2.1-5.2,1.1-5.2,1.1s-1.6,7.4,0.5,8c2.1,0.5-1.6,11.7-1.6,11.7s-0.5,3.2,1.6,5.3c2.1,2.1,4.7,3.2,4.7,5.3
					c0,2.1,1.1,9.6,1.1,9.6l0.5,5.8h3.1c0,0,1.6-2.6,4.7-2.1c3.1,0.5,3.1,3.7,5.2,3.2c2.1-0.5,3.7-4.8,3.7-4.8s2.1,3.7,6.8,2.1
					c4.7-1.6,5.2,1.1,5.2,1.1s1.6,3.7,2.1,7.4c0.5,3.7-4.2,7.4-2.1,8.5c2.1,1.1,4.2,4.8,3.7,6.9c-0.5,2.1,5.2,1.1,5.2,1.1l-9.9,5.8
					c0,0,0.5,2.7,3.1,2.7c2.6,0,2.6-3.2,4.7,0c2.1,3.2,5.2-0.5,6.8,3.2c1.6,3.7,3.1,7.4,5.8,7.4C92.9,124.4,94.5,126.5,94.5,126.5z"
					/>
				
					<path fill="#EDEDED" stroke="#FFFFFF" stroke-width="2" stroke-linecap="round" stroke-linejoin="round" stroke-miterlimit="10" d="
					M646.8,518.9c-3.1-0.8-3.1-2.9-8-2c-0.8-3.2,2.8-1.5,2-6.1l-4-4.1c3.6-1.9-2-16.3-2-16.3s1.3-5.7,2-2l-2-2l-2-6.1l4-6.1
					c2-10-0.8-18.3-2-26.5c-3.5,0-2.3-3.2,0-2l-10.6-4.3c0,0,1.6,5.3,3.7,6.9c2.1,1.6-0.5,8,2.1,10.1c2.6,2.1-1.8,5-2.8,7.6
					c-1,2.7-5.8,2.7-4.7,5.8c1,3.2,1.2,6.1,0.7,9.8c-0.5,3.7,3.1-0.5,4.2,3.7c1,4.2-5.5,6.1-8.1,8.2c-2.6,2.1-2.6,7.9-1.6,11.1
					c1,3.2-2.6,5.8-2.1,8.5c0.5,2.7,2.1,8.5,2.1,8.5s4.7,1.6,5.8,4.8c1,3.2-0.5,6.4,2.1,5.3c2.6-1.1,8.9-3.2,8.9-3.2
					s2.1,2.7,2.1,5.8c0,3.2,0.5,7.4-1,10.1c-1.6,2.7-2.6,4.8-0.5,6.9c2.1,2.1,4.7,5.3,7.9,7.4c3.1,2.1,4.2,2.1,4.2,2.1
					s-0.5,6.4,2.1,5.8c2.6-0.5,5.8-4.8,3.7-6.9c-2.1-2.1-3.7-13.3-1.1-12.2c2.6,1.1,7.3,1.6,7.9-3.2c0.5-4.8-2.1-2.1-0.5-7.4
					c1.6-5.3-1-9.6-3.6-10.6c-2.6-1.1-7-1.6-8-5.8C647,518.9,647.3,520.2,646.8,518.9z"/>
				
					<path fill="#EDEDED" stroke="#FFFFFF" stroke-width="2" stroke-linecap="round" stroke-linejoin="round" stroke-miterlimit="10" d="
					M829.8,494.5c-1.9,7.3-4.8,16.8-6,26.5c-3,0.7-8.9,0.2-10.1,2c0,0.7,0,1.4,0,2c0.5-2.1,3.5,4.6,2,6.1h-4c-0.6,1.8,0.2,5-2,10.2
					c-5.2-1.9-0.1-3.6-6-2c0,1.5,0.9,9.4,0,10.2c-1.3,1.1-2.6-2.9-6-2c-0.9,0.2-3.2,5.8-4,6.1c-5.2,1.7-7.7-2.7-10.1-2v4.1
					c-8.8,4.1-22.2,10.4-24.1,20.4c-3,14.9,11.7,29.9,8.1,44.8c-0.4,1.5-10.1,8.1-10.1,8.1c-1.4,2.5,0.9,7.4,0,10.2
					c-0.4,1.1-5.6,2.9-6,4.1c-8.5,19,1.6,29.5,6,42.8c5.2,15.7,6.8,21.4,20.1,28.5c0,0,7.4,1.8,4,0c6.9-2.7,16.3-4.4,20.1-10.2
					c4.7-7.4,3.2-17.1,6-26.5c3.9-13.4,14.2-31.7,16.1-46.8c0.5-4.7-2.4-10.6-2-12.2c0.2-1.1,9.5-14.9,10.1-16.3
					c1.3-3.5,3.8-10.5,4-12.2c0.3-2.7-2-8.1-2-8.1c0.4-0.4,4-4.1,4-4.1c1.2-5.2-1.7-8.5,4-10.2v-4.1c-0.6-3.3-4.8-11.8-6-16.3
					c1.2,0.6,4.7,0,6,0c-0.4,0.1,0,5.5,0,6.1h4c0.5-2.9-1.8-6.1,2-6.1c-1.3-11.6-1.6-33.8-6-42.8c-1.9-3.8-3.8,0-6,0
					C834.3,501.5,831.6,497.4,829.8,494.5z"/>
				
					<path fill="#EDEDED" stroke="#FFFFFF" stroke-width="2" stroke-linecap="round" stroke-linejoin="round" stroke-miterlimit="10" d="
					M40.4,175.5c1.7,2,1.5,5,3.3,7.5c3.8,5.2,11.1,5.9,16.1,10.2c8.4,7.1,16.8,26.9,35.5,24.5c0,0-1.8-3.9-1.8-6.6
					c0-2.6-3.2-4.5-0.1-6.6c3.1-2.1,2.1-4.2,3.1-7.4c1.1-3.2,2.1-4.2-0.5-4.2c-2.6,0-3.7-4.2-5.2-7.4c-1.6-3.2-2.6-7.4-4.7-8
					c-2.1-0.5-8.4-3.2-8.4-3.2s3.1-6.9,6.3-9.6c3.1-2.6-1-10.1-1-10.1s-1.6-4.8-4.7-0.5c-3.1,4.2-5.2,8-5.2,8l-3.1-3.2
					c0,0,4.2-5.8,2.6-10.1c-1.6-4.2-3.7-8.5-3.7-8.5s0,3.2-2.1,4.2c-2.1,1.1-6.3,0-6.3,0s0,4.8-2.6,5.3c-2.6,0.5-5.2,4.8-5.2,4.8
					s-3.1,4.8-6.3,9C43.1,167.9,40.4,175.5,40.4,175.5z"/>
				
					<path fill="#EDEDED" stroke="#FFFFFF" stroke-width="2" stroke-linecap="round" stroke-linejoin="round" stroke-miterlimit="10" d="
					M556.1,792c1.2-0.9,1.5-1.7,2.6-2.6c1.5-1.2,2.4-1.8,4.2-2.6c1.9-0.9,4,0.2,5.2-1.6c1.5-2,0-4.1-1-6.4c-1.1-2.2-2.6-2.9-4.2-4.8
					c-1-1.2-2.6-3.2-2.6-3.2s-5.8,3.2-8.4,5.8c-2.6,2.7-3.3,2.3-4.9,2.3c-1.6,0-4.2,5.3-2.6,5.3c1.6,0,1.2,1.5,2.8,4.6
					c1.6,3.2,0,5.3,4.2,5.3C555.5,794.1,554.4,793.2,556.1,792z"/>
				
					<path fill="#EDEDED" stroke="#FFFFFF" stroke-width="2" stroke-linecap="round" stroke-linejoin="round" stroke-miterlimit="10" d="
					M95.1,217.7c0.3,0,0.8-0.1,0.8-0.1c6-1,13.7-13,18.1-14.3c14-4.1,20.6,3.2,29.9,5.6l1.9,0.4c0,0,1.5-7.2,2.6-9.9
					c1-2.6-0.6-7.1-0.6-7.1l-1-10.1l2.6-9c0,0,3.1-5.8,4.2-10.1c1.1-4.2,2.6-6.4,3.7-10.6c1-4.2,3.7-7.4,3.7-7.4s1-6.4,1-11.1
					s-3.7-6.4-2.6-9c1-2.6-1.1-8.5-1.1-8.5s-6.8,1.1-9.4,0.5c-2.6-0.5-2.1-6.4-2.1-6.4l-5.2-0.5l-4.2,3.2l-5.2-0.5l-1.6-4.8
					l-10.5-0.5l-2.6,4.2c0,0,0.5,4.8-3.1,5.8c-3.7,1.1-5.8-4.3-5.8-4.3l-3.1,2.1l-2.1,8c0,0,0.5-4.2-3.7-2.1
					c-4.2,2.1-5.2,5.3-5.2,5.3s-5.8,3.7-3.7,6.9c2.1,3.2,5.2,4.3,3.1,8.5c-2.1,4.2-8.9,3.2-8.4,5.3c0.5,2.1,1.6,4.2,1.6,4.2
					l-4.2,3.2c0,0,4.2,7.4,1,10.1c-3.1,2.7-6.3,9.6-6.3,9.6s6.3,2.6,8.4,3.2c2.1,0.5,3.1,4.8,4.7,8c1.6,3.2,2.6,7.4,5.2,7.4
					c2.6,0,1.6,1.1,0.5,4.2c-1,3.2,0,5.3-3.1,7.4c-3.1,2.1,0.1,3.9,0.1,6.6C93.5,213.8,95.1,217.7,95.1,217.7z"/>
				
					<path fill="#EDEDED" stroke="#FFFFFF" stroke-width="2" stroke-linecap="round" stroke-linejoin="round" stroke-miterlimit="10" d="
					M-22.7,83.2v4.1c1.9,2.4,7.8,1.9,10.1,4.1c1.9,1.8,0.2,8,2,10.2h4c3.8,1.3,1.4-2.9,3,1.8c0,0,3.3-1.7,2.3-5.5c0,0,2.6,0,5.2,0
					c2.6,0,5.8-4.2,5.8-4.2s3.1-4.2,0.5-6.4c-2.6-2.1-1-4.2,1.6-4.2c2.6,0,0.5-7.9,0.5-7.9C8.6,74-8.2,74-8.2,74l-6.8,4.8l-8.6,2.5
					L-22.7,83.2z"/>
				
					<path fill="#EDEDED" stroke="#FFFFFF" stroke-width="2" stroke-linecap="round" stroke-linejoin="round" stroke-miterlimit="10" d="
					M16.3,137.3c0,0,1.2-2.1,4.4-2.6c3.1-0.5,1.5-3.4,4.2-5c2.6-1.6,2.1-6.4,3.7-10.6c1.6-4.2,4.7-4.2,9.4-1.6c4.7,2.7,5.2,0,7.9,0
					c2.6,0,3.7,3.2,3.7,7.4c0,4.2,3.1,2.1,4.7,6.4c1.6,4.2,1.6,2.7,2.6,5.8c1,3.2-2.1,8.5-2.1,8.5l5.8-1.1c0,0,4.2,1.1,6.3,0
					c2.1-1.1,2.1-4.2,2.1-4.2s2.1,4.2,3.7,8.5c1.6,4.2-2.6,10.1-2.6,10.1l3.1,3.2c0,0,2.1-3.7,5.2-8c3.1-4.2,4.7,0.5,4.7,0.5
					l4.2-3.2c0,0-1.1-2.1-1.6-4.2c-0.5-2.1,6.3-1.1,8.4-5.3c2.1-4.2-1-5.3-3.1-8.5c-2.1-3.2,3.7-6.9,3.7-6.9s-1.6-2.1-4.2-2.1
					c-2.6,0-4.2-3.7-5.8-7.4c-1.6-3.7-4.7,0-6.8-3.2c-2.1-3.2-2.1,0-4.7,0c-2.6,0-3.1-2.7-3.1-2.7l9.9-5.8c0,0-5.8,1.1-5.2-1.1
					c0.5-2.1-1.6-5.8-3.7-6.9c-2.1-1.1,2.6-4.8,2.1-8.5c-0.5-3.7-2.1-7.4-2.1-7.4s-0.5-2.7-5.2-1.1c-4.7,1.6-6.8-2.1-6.8-2.1
					s-1.6,4.2-3.7,4.8c-2.1,0.5-2.1-2.7-5.2-3.2c-3.1-0.5-4.7,2.1-4.7,2.1h-3.1l-0.5-5.8c0,0-10,3.2-12.6,1.6
					c-2.6-1.6-4.7-3.2-7.9-1.6c-3.1,1.6-5.2,0-8.9-1.1c0,0,2.1,7.9-0.5,7.9c-2.6,0-4.2,2.1-1.6,4.2c2.6,2.1-0.5,6.4-0.5,6.4
					s-3.1,4.2-5.8,4.2c-2.6,0-5.2,0-5.2,0c0.6,2.2-0.4,3.5-1.2,4.4c0.9,2.7,5,15.3,6,17.6c0.3,0,6-0.1,6,0c0.3,0.8-2.9,6.3-2,10.2
					c0.6,2.9,8,6.1,8,6.1L16.3,137.3z"/>
				
					<path fill="#EDEDED" stroke="#FFFFFF" stroke-width="2" stroke-linecap="round" stroke-linejoin="round" stroke-miterlimit="10" d="
					M145.9,209.3c1.9,0.3,4,0.4,6.3,0.1c1.3-0.2,8.1-5.8,10-6.1c2.1-0.4,6,0.8,8,0c0.8-0.4,4.5-5.7,6-6.1c9-2.4,16.5,1.4,24.1-2
					c0,0,2.3-8.6,6-8.1l1,0.3c0,0-5.7-11.5-7.8-13.6c-2.1-2.1,2.1-2.1,0-3.7c-2.1-1.6-0.5-4.2-0.5-6.4c0-2.1,1.6-9,1.6-13.2
					c0-4.2-1-4.2-4.2-9c-3.1-4.8,0.5-8.5,1.6-11.1c1-2.6-4.2-3.2-2.1-6.4c2.1-3.2,0.5-8,0.5-12.7c0-4.8-2.6-7.4-4.7-8
					c-2.1-0.5,0.5-12.2,0.5-12.2l-9.4-1.1l-1,3.2c0,0-17.3-2.7-19.4-1.6c-2.1,1.1-4.2,4.2-4.2,7.4c0,3.2,2.1,6.4,1.6,8.5
					c-0.5,2.1-1.6,9-1.6,9s2.1,5.8,1.1,8.5c-1.1,2.7,2.6,4.2,2.6,9s-1,11.1-1,11.1s-2.6,3.2-3.7,7.4c-1.1,4.2-2.6,6.4-3.7,10.6
					c-1,4.3-4.2,10.1-4.2,10.1l-2.6,9l1,10.1c0,0,1.6,4.5,0.6,7.1C147.4,202.1,145.9,209.3,145.9,209.3z"/>
				
					<path fill="#EDEDED" stroke="#FFFFFF" stroke-width="2" stroke-linecap="round" stroke-linejoin="round" stroke-miterlimit="10" d="
					M-24.4,69.8l10.5-0.5c0,0,1-3.7,5.2-3.7c4.2,0,16.8-0.5,20.4-0.5c3.7,0,5.8-1.6,5.8-5.8c0-4.2-2.1-2.1-5.2-2.1
					c-3.1,0-5.8,0-8.9,0c-3.1,0-9.4,2.1-12,0c-2.6-2.1-0.5-1.6-4.2,0.5c-3.7,2.1-2.6,1.1-6.3,1.1c-3.7,0-8.7,2.4-8.7,2.4
					C-26.4,63.6-24.9,68.6-24.4,69.8z"/>
				
					<path fill="#EDEDED" stroke="#FFFFFF" stroke-width="2" stroke-linecap="round" stroke-linejoin="round" stroke-miterlimit="10" d="
					M317,260.4c-0.8,1.5-3.9,5.3-3.9,6.1c-0.1,1.1,7.2,10.1,4,12.2c-4.2,2.8-6.8,19.9-10.1,28.5c2.3,1.4,13.7,8.3,4,12.2
					c4.5,4.3,19.5,14.4,22.1,18.3c0.1,0.1-1.5,4.6-2,6.1c1.6,1.5,4.2,3.1,6.6,4.9c0,0,1.3-10.6,4.4-10.6s3.1,1.1,7.9,2.6
					c4.7,1.6,3.1-1.1,2.6-5.8c-0.5-4.8-5.2-7.4-3.1-10.1c2.1-2.7,3.1,0.5,1-4.2c-2.1-4.8,4.7-1.6,7.8-2.7c3.1-1.1-2.6-6.4,1-5.3
					c3.7,1.1,4.2,4.3,4.2,4.3s5.8-2.6,8.9-2.1c3.1,0.5,3.7,5.3,6.3,7.4c2.6,2.1,2.1,0,3.7-6.3c1.6-6.4,0-6.4-2.6-8
					c-2.6-1.6,2.6-4.2,0.5-7.4c-2.1-3.2-2.9-2.3-1.6-6.9c1.1-3.7,0.5-5.3,0-7.4c-0.5-2.1-3.7-5.3-5.8-6.4c-2.1-1.1,2.1-1.1,2.1-1.1
					s-1-4.2-1-7.4c0-3.2,1.6-3.2,5.2-4.2c3.7-1.1,6.3,0,6.3,0l0.5-10.6c0,0-4.7-1.6-7.3-1.6c-2.6,0-4.2-0.5-7.3,0.5
					c-3.1,1.1-1-2.7-1.6-4.8c-0.5-2.1-0.5-10.1-0.5-10.1s-4.7-2.1-8.9,0c-4.2,2.1-5.8-1.1-7.9,0.5c-2.1,1.6-7.3,2.1-7.3,2.1l-1.6,18
					L317,260.4z"/>
				
					<path fill="#EDEDED" stroke="#FFFFFF" stroke-width="2" stroke-linecap="round" stroke-linejoin="round" stroke-miterlimit="10" d="
					M270.5-579.4c0,0-1.2,4.3,1.5,4.8c2.6,0.5,5.2,1.6,5.2,1.6s8.4-3.2,11,1.6c2.6,4.8,3.1,1.1,6.8,2.1c3.7,1.1,6.4,1,6.4,1
					s0.9,5.3-1.2,8.5c-2.1,3.2-2.1,4.3-1,7.4c1,3.2-1.8,8,1.3,12.8c0,0-1.4,3.3-4.3,1c-2.6-2.1-2.1,3.2-2.1,3.2s1.1,1.6-3.7,2.6
					c-4.7,1.1-7.3,6.4-9.4,10.1c-2.1,3.7-4.8,5.8-6.9,9c-2.1,3.2-4.7,10.1,1.1,5.8c5.8-4.2,5.8,0.5,5.8,0.5c0,3.2,6.3,1.8,7.4,4.8
					c1,2.6,4.1,1,4.1,1l-3.5,5.9c0,0-1,4.8-4.7,4.8c-3.7,0-3.1,7.4,0,7.4c3.1,0-1.6,9,0.5,11.1c2.1,2.1,8.4-1.6,6.3,1.6
					c-2.1,3.2-0.5,0.5-3.3,3.7c-0.4,0.5-0.7,1-0.8,1.4c-0.1,0.5,2.3,0.9,2.4,1.2l-1.9,1.1l-2.5-0.9l-3.7-1.3l-2.1,2.1l3.3,6.8
					c-1.2,2.1-2.5,3.9-3.6,4.2c-11.4,3-17.9-7.5-26.1-8.1c-5.8-0.5-5.1,2.2-10,2c-1.1,2.2-5.6,4.7-6,6.1c-0.8,2.4-0.7,5.1-0.3,8.1
					c-6.3,0-3.5,3.8-7.7,3.8c-4.2,0-7.4,2.6-9-0.6c-1.6-3.2-4.2,0-4.2,0s-4.7-1.1-9.4-3.2c-4.7-2.1-5.2,0.5-8.4,0.5
					c-3.1,0-1.2-3.7-5.3-3.7c-4.2,0-2.6-1.1-7.3-2.1c-4.7-1.1-4.2,0-4.2-3.2s-2.5-5.3-2.5-5.3c4.1-17.5,5.7-26,4.1-49.3
					c-5.8-2.7-15.5-4.7-18.1-10.2c-2.2-4.5,1.7-10.2,2-12.2c-0.6-0.5-5.3,0-6,0c-1.7-5.7,0.2-1.7-4-4.1l2-6.1l-8,4.1v-4.1
					c-10.5-5-6.4-3.2-18.1-4.1c1.9-1.7,0-8.2,0-8.2c2.3-1.3,4.6-0.9,6-2c-1.1-0.6-6-4.1-6-4.1h2c5.1-2.6,20.2-4.7,18.1-4.1
					c3.8-0.1,0.1,4.2,6,4.1l6-4.1c5.7-0.8,6.3,1.8,12.1,2v-4.1c-0.8-3.7-5.5-13.4-6-16.3c-2.5-0.7,4-6,8-4.1c0.1,0,0,5.8,0,6.1
					c4.1,0.5,12.8,3.8,20.1,0c0.4-0.2,1-7.4,2-8.1c3.9-3.1,8.8-2.2,14.1-4.1c-0.4-6.1-1.8-13-2-16.3c3.6-1.5,7.5-3,11-3.9l2.9,3.4
					c0,0,2.1-1.1,3.1,2.1c1,3.2,1.6,5.3,1.6,5.3s2.1,0,5.8,4.2c3.7,4.2,5.7,0.5,5.7,0.5s-0.5,2.7,2.6,5.8c3.1,3.2,4.2,2.1,6.8,3.7
					c2.6,1.6,5.8-4.2,5.8,0c0,4.2-0.5,5.3,2.6,5.3c3.1,0,3.7,0.5,3.7,0.5l5.5-1.1L270.5-579.4z M2363.8,639c0.1,0,0,5.8,0,6.1
					C2370.4,648.4,2365.5,639.8,2363.8,639z M2327.6,626.8c3.2,8.1,3.4,13.9,8,20.4c2.3,3.3,10.7,6.4,12.1,10.2v4.1
					c4.1,3.2,12.8,3.6,18.1,6.1c-0.4-0.4,0-5.5,0-6.1c-3.6-2-3.7-2-6-4.1c-5.7-5.1-13.7-8-18.1-14.3c-1.1-1.4-5.9-14.1-6-14.2
					C2333.8,627.1,2329.3,628.5,2327.6,626.8z M910.2,637l-2,8.1c3.1-0.7,4.7,1.5,8.1,2c0-0.3-0.3-6,0-6.1
					C915.5,640.5,910.5,637.7,910.2,637z M315.1-452.2c-1.2,0.9-0.8,5-2,6.1c-13,11.1-8.5,12-4,24.4c3.1,0.2,7.2-0.4,8,0
					c0-3.8-0.8-8.6,0-12.2C325.7-434.5,315.8-449.3,315.1-452.2z"/>
				
					<path fill="#EDEDED" stroke="#FFFFFF" stroke-width="2" stroke-linecap="round" stroke-linejoin="round" stroke-miterlimit="10" d="
					M746.2,78.5c0,0-7.9,10.6-6.8,14.3c1,3.7-3.9,8.3-2.9,11.5c1,3.2,4.7,3.7,7.9,3.7c3.1,0,4.7-1.1,4.7-1.1l5,0.2l-3.9,6.2l5.8,7.4
					c2.1,2.7,1.1,5.3,4.2,7.4c3.1,2.1,3.7,4.8,8.9,6.9c5.2,2.1,34.8,16.6,34.8,16.6l19.2-1.6L787.9,204l-16.2,0.5l-5.8,4.2
					l-12.6,0.5l-2.6,2.6c0,0-11.5,3.2-15.2,1.6c-3.7-1.6-3.7-5.3-3.7-5.3s-4.5,6.1-8.1,3.9c-3.7-2.1-5.2,4.8-5.2,4.8s-3.9,0.3-7,0.3
					c-3.1,0-5.5,0.8-7.6-1.4c-2.1-2.1-11-1.6-11-1.6s-6.3,3.2-8.9,0.5c-2.6-2.7-6.8,1.6-8.9,1.1c-2.1-0.5-9.4-1.1-9.4-1.1l-1-4.2
					c0,0,0.5-7.4-3.1-7.4c-0.9,0-2,0-3.1-0.1c-3.4-0.3-7.3-1.4-8.1-5.4c-1-5.3-5.2-9.5-5.2-13.8c0-4.2-1-4.8-3.7-6.9
					c-2.6-2.1-3.7-4.2-5.8-7.9c-2.1-3.7-4.2-3.7-6.8-4.8c-2.6-1.1-9.7,0.7-8.7-2.5c1.1-3.2,2.1-7.4,2.1-7.4s0.5-0.5,4.7-1.1
					c4.2-0.5,5.2-2.1,5.2-2.1s2.6-5.8,2.6-8.5c0-2.6,1-11.1,0.5-14.3c-0.5-3.2,6.1-11.3,6.1-16.1c0-4.8,0.5-9,0.5-9s3.1-2.7,5.8-3.7
					c2.6-1.1,4.2-2.1,5.2-4.8c1-2.7,2.1-5.3,3.7-8.5c1.6-3.2,4.2-6.9,4.2-12.2c0-5.3,5.2-8.5,6.8-12.2c1.6-3.7,6.8-10.6,6.8-10.6
					l7.3-2.7c0,0,5.2-2.1,6.3,0.5c1,2.7,2.1,4.2,2.1,4.2l2.6-12.7c0,0,2.1-2.1,5.2,0c3.1,2.1,5.2,7.4,7.9,7.4c2.6,0,4.7-2.1,6.3,1.1
					c1.6,3.2,10.5,3.2,14.1,4.8c3.7,1.6,4.7,5.3,8.9,9.5c4.2,4.2,4.2,8.5,5.8,10.6C742.3,76.2,746.2,78.5,746.2,78.5z M689,77.1
					c10.5,0.8,4,7.3,0,10.2C685.5,85.1,679.5,76.4,689,77.1z"/>
				
					<path fill="#EDEDED" stroke="#FFFFFF" stroke-width="2" stroke-linecap="round" stroke-linejoin="round" stroke-miterlimit="10" d="
					M703.9-21.1l-5.5,6.7l-7.3-1.1c0,0-5.8,3.1-7.4,5.7c-1.6,2.7-0.5,5.8-3.1,5.8c-2.6,0-0.5,1.6-1.6,6.4c-1,4.8-0.5,5.3-0.5,10.6
					c0,5.3-2.6,6.9-3.7,11.7c-1,4.8-2.1,9-1,11.1c1,2.1,0.5,15.4,0.5,15.4l7.3-2.7c0,0,5.2-2.1,6.3,0.5c1,2.7,2.1,4.2,2.1,4.2
					l2.6-12.7c0,0,2.1-2.1,5.2,0c3.1,2.1,5.2,7.4,7.9,7.4c2.6,0,4.7-2.1,6.3,1.1c1.6,3.2,10.5,3.2,14.1,4.8c3.7,1.6,4.7,5.3,8.9,9.5
					c4.2,4.2,4.2,8.5,5.8,10.6c1.6,2.1,5.9,4.7,5.9,4.7l2.2-1.9l3.7,2.6l9-4.4c-0.1-2.1-0.8-4.6-0.1-6.2
					c-4.1-3.3-11.9-5.5-14.1-10.2c-1.9-4,0.8-7.6-2-10.2c-2.6-2.4-8.1-1.3-10.1-4.1c-2.4-3.3-1.6-9.4-4-12.2c-0.8-1-4.8,0.4-6,0
					c-2.2-0.9-6.5-10.1-8-12.2c-1.2,0.6-2.6,2.7-4,2c0-0.7,0-1.4,0-2c-1-0.6-3.6-1.1-4-2C705,9.1,707.9-11.6,703.9-21.1z"/>
				
					<path fill="#EDEDED" stroke="#FFFFFF" stroke-width="2" stroke-linecap="round" stroke-linejoin="round" stroke-miterlimit="10" d="
					M320.1,243.4c-0.7,6.5-0.5,7.6-1,10.8c-0.3,1.6-0.5,3-2.1,6.2l26.8,0.9l1.6-18L320.1,243.4z M303,221.7c-2.9,0.8-7,7.2,2,6.1
					C304.7,225.6,307,220.5,303,221.7z"/>
				
					<path fill="#EDEDED" stroke="#FFFFFF" stroke-width="2" stroke-linecap="round" stroke-linejoin="round" stroke-miterlimit="10" d="
					M761.4,77.1c-0.6,2-4.7,5.4-6,8.1h4c1.2,0.4,3.3,4.4,5.8,8.7l-11.1,13.2l-5-0.2c0,0-1.6,1.1-4.7,1.1c-3.1,0-6.8-0.5-7.9-3.7
					c-1-3.2,3.9-7.8,2.9-11.5c-1-3.7,6.8-13.8,6.8-13.8l2.6-2.1l3.7,2.6l9-4.3C761.7,76.3,761.4,77.1,761.4,77.1z"/>
				
					<path fill="#EDEDED" stroke="#FFFFFF" stroke-width="2" stroke-linecap="round" stroke-linejoin="round" stroke-miterlimit="10" d="
					M344.9,359.1c0,0,3.7-4.3,9.5-4.3c5.8,0-0.1,0.8,3.5-2.9c3.7-3.7,5.8,1.1,5.8,1.1s2.1,1.6,3.7-0.5c1.6-2.1,5.2,0,8.4,0
					c3.1,0,1-6.4,1-6.4s1.6,0.5,4.7,1.1c3.1,0.5,6.3-1.6,6.3-1.6l-0.5,9c0,0,5.2-0.5,8.4-0.5c3.1,0,4.2,0,6.8-2.1
					c2.6-2.1,4.7,0,5.8-2.1c1.1-2.1,2.1-5.3,1.6-10.1c-0.5-4.8,2.1-0.5,3.7-5.9c1.6-5.3,1.1-1.6,1.6-6.9c0.5-5.3-2.6-6.4-3.1-11.1
					c-0.5-4.8,2.1-6.4,4.2-10.1c2.1-3.7,5.2-2.7,5.2-8c0-5.3,0.5-9,4.2-13.8c3.7-4.8,3.1-8.5,3.1-14.9c0-6.4-1-5.8-1-10.1
					c0-4.2,1.6-6.9,1.6-13.3c0-6.4,2.1-6.9,4.2-9c2.1-2.1,2.6-15.4,2.6-15.4s-5.8,1.6-8.9,2.7c-3.1,1.1-2.6-1.6-6.8-0.5
					c-4.2,1.1-2.6,1.1-4.2,5.3c-1.6,4.2-6.3,3.7-6.3,3.7s-3.7,4.2-3.2,6.9c0.5,2.6,2.6,6.4,2.6,6.4s-3.7-1-7.3-1.6
					c-3.7-0.5-5.2,0-7.9,0c-2.6,0-2.6,0-4.7-2.1c-2.1-2.1-5.8-3.2-9.4-1.6h-10.5c0,0,0,8,0.5,10.1c0.5,2.1-1.6,5.8,1.6,4.8
					c3.1-1.1,4.7-0.5,7.3-0.5c2.6,0,7.3,1.6,7.3,1.6l-0.5,10.6c0,0-2.6-1.1-6.3,0c-3.7,1.1-5.2,1.1-5.2,4.2c0,3.2,1,7.4,1,7.4
					s-4.2,0-2.1,1.1c2.1,1.1,5.2,4.3,5.8,6.4c0.5,2.1,1.1,3.7,0,7.4c-1.3,4.6-0.5,3.7,1.6,6.9c2.1,3.2-3.1,5.8-0.5,7.4
					c2.6,1.6,4.2,1.6,2.6,8c-1.6,6.3-1.1,8.5-3.7,6.3c-2.6-2.1-3.1-6.9-6.3-7.4c-3.1-0.5-8.9,2.1-8.9,2.1s-0.5-3.2-4.2-4.3
					c-3.7-1.1,2.1,4.3-1,5.3c-3.1,1.1-9.9-2.1-7.8,2.7c2.1,4.8,1,1.6-1,4.2c-2.1,2.6,2.6,5.3,3.1,10.1c0.5,4.8,2.1,7.4-2.6,5.8
					c-4.7-1.6-4.7-2.6-7.9-2.6s-4.4,10.6-4.4,10.6c2.4,1.7,4.6,3.5,5.5,5.3C345.3,357.9,343,356.3,344.9,359.1z"/>
				
					<path fill="#EDEDED" stroke="#FFFFFF" stroke-width="2" stroke-linecap="round" stroke-linejoin="round" stroke-miterlimit="10" d="
					M374.2,45.9c0.3,0.1,0.6,0.3,1.3,0.7c2.1,1.2,3.3,6.8,6,8.2c5.6,2.6,5.2,0.1,12.1,0c0,0,5.2,8.9-4,6.1c0.1,0-5.3,0.2-8.4,0.2
					c0,0,7.2,7.7,9.3,10.4c2.1,2.7-0.5,5.3,1.6,7.4c2.1,2.1,2.6,4.8,2.1,6.9c-0.5,2.1,0,4.8,0,4.8s-2.1,1.1-2.1,4.8
					c0,3.7,2.1,9,3.1,11.1c1.1,2.1-0.5,5.8,1.1,8.5c1.6,2.7,1.6,5.8,1.6,5.8s-13.6-1.6-16.2,0.5c-2.6,2.1-4.2,6.4-2.1,8
					c2.1,1.6,7.3,10.1,9.4,11.7c2.1,1.6,3.7,12.7,3.7,12.7l-3.7,8l5.2-0.5l6.3,0.5l3.7-6.4c0,0,3.1,3.2,6.3,3.2
					c3.1,0,12.1-2.7,15.7-3.2c3.7-0.5,6.8-2.1,10.5-6.9c3.7-4.8,5.8-3.7,9.4-5.8c3.7-2.1-6.3-4.2-3.1-8.5c3.1-4.2,11.5-2.7,15.2-5.8
					c3.7-3.2,4.2-3.2,7.9-3.7c3.7-0.5,2.6-4.8,4.7-6.4c2.1-1.6,5.2-3.2,7.9-4.2c2.6-1.1,2.1-1.1,3.7-5.3c1.6-4.2,6.8-5.3,6.8-5.3
					s1.6-2.7-1-5.3c-2.6-2.7-3.7-2.7-2.1-6.4c1.6-3.7,0-5.8,0-5.8s0,0-0.5-3.2c-0.5-3.2,4.2-5.3,2.6-8c-1.6-2.7-2.6-3.7-5.2-3.7
					c-2.6,0-6.3,2.1-6.3-0.5c0-2.6-1.1-3.7,1.6-5.3c2.6-1.6,3.7-2.1,3.7-6.4c0-4.2,0-2.1,3.1-4.8c3.1-2.7,3.1-6.9,3.1-10.1
					c0-3.2-1.1-3.7,2.1-5.8c3.1-2.1,4.7-3.7,3.1-6.9c-1.6-3.2,1-4.8,2.6-8.5c1.6-3.7,3.7-2.7,6.3-1.1c2.6,1.6,9.4,0,9.4,0v-62.1
					l-112.6-68.4l-13.1,9.6L393-66c0,0,8.4,10.6,5.2,14.3c-3.1,3.7-3.1,8-4.2,13.3c-1,5.3,0,55.2,0,55.2l-19.8,17.1L374.2,45.9z"/>
				
					<path fill="#EDEDED" stroke="#FFFFFF" stroke-width="2" stroke-linecap="round" stroke-linejoin="round" stroke-miterlimit="10" d="
					M435.9,221.5l1.1-13.3c0,0,6.8-2.7,6.8-6.9c0-4.2,2.6-7.4,5.2-7.4c2.6,0,5.8-1.6,9.9,0.5c4.2,2.1,5.8,5.8,8.4,7.4
					c2.6,1.6,8.4,1.6,11.5,1.6c3.1,0,4.2,0.5,8.4,1.6c4.2,1.1,7.9,1.6,7.9,1.6s-1-8,2.6-8c3.7,0,3.7,4.8,8.4,3.2
					c4.7-1.6,7.3-1.6,7.3-1.6s-1-4.2,2.6-4.8c3.7-0.5,1,5.3,5.2,1.1c4.2-4.2,2.6-4.8,6.3-4.8s6.3,0,10.5,0c4.2,0,2,2.1,4.2,2.1
					c2.1,0,7.3-0.5,7.3-0.5s-0.5-5.3-2.6-5.9c-2.1-0.5-0.5-4.8-2.1-9c-1.6-4.2-3.7-6.4-8.4-7.4c-4.7-1.1-4.2-6.4-5.8-9
					c-1.6-2.7-2.6-2.1-5.2-2.1c-2.6,0-4.7-2.7-6.3-4.8c-1.6-2.1-3.1-2.1-6.3-2.1c-3.2,0-3.2-4.8-5.2-5.8c-2.1-1.1-7.9-7.4-6.3-12.2
					c1.6-4.8,1-5.3-3.1-8.5c-4.2-3.2-2.6-3.2-1.6-6.4c1.1-3.2,0.5-9,0.5-9l-8.4-8c0,0-5.2,1.1-6.8,5.3c-1.6,4.2-1,4.2-3.7,5.3
					c-2.6,1.1-5.8,2.6-7.9,4.2c-2.1,1.6-1,5.8-4.7,6.4c-3.7,0.5-4.2,0.5-7.9,3.7c-3.7,3.2-12,1.6-15.2,5.8c-3.1,4.2,6.8,6.4,3.1,8.5
					c-3.7,2.1-5.8,1.1-9.4,5.8c-3.7,4.8-6.8,6.4-10.5,6.9c-3.7,0.5-12.6,3.2-15.7,3.2c-3.1,0-6.3-3.2-6.3-3.2l-3.7,6.4L394,161
					l-5.2,0.5c0,0-5.2,15.4-8.9,17.5c-3.7,2.1-5.8,4.3-3.1,5.8c2.6,1.6,4.2,1.6,5.2,5.8c1.1,4.2,3.1,8.5,5.8,13.3
					c2.6,4.8,1.6,5.8,5.8,10.1c4.2,4.2,5.2,3.2,7.9,8.5c2.6,5.3,8.4,10.1,8.4,10.1s4.7,0.5,6.3-3.7c1.6-4.2,0-4.2,4.2-5.3
					c4.2-1.1,3.7,1.6,6.8,0.5C430.2,223.1,435.9,221.5,435.9,221.5z"/>
				
					<path fill="#EDEDED" stroke="#FFFFFF" stroke-width="2" stroke-linecap="round" stroke-linejoin="round" stroke-miterlimit="10" d="
					M305,213.5c0.4-0.1-0.9-7,4-4.1c0,0-1.6,6.2-2,8.1c1.8,1.6,6.2,0.4,8,2c0,0.7,0,1.4,0,2c0,3.6,5.5,7.6,6,10.2
					c0.4,2.2-0.7,13.1-1,11.6l25.2-0.2c0,0,5.2-0.5,7.3-2.1c2.1-1.6,3.7,1.6,7.9-0.5c4.2-2.1,8.9,0,8.9,0h10.5
					c3.7-1.6,7.3-0.5,9.4,1.6c2.1,2.1,2.1,2.1,4.7,2.1c2.6,0,4.2-0.5,7.9,0c3.7,0.5,7.3,1.6,7.3,1.6s-2.1-3.7-2.6-6.4
					c-0.5-2.7,3.2-6.9,3.2-6.9s-5.8-4.8-8.4-10.1c-2.6-5.3-3.7-4.2-7.9-8.5c-4.2-4.2-3.1-5.3-5.8-10.1c-2.6-4.8-4.7-9-5.8-13.3
					c-1-4.2-2.6-4.2-5.2-5.8c-2.6-1.6-0.5-3.7,3.1-5.8c3.7-2.1,8.9-17.5,8.9-17.5l3.7-8c0,0-1.6-11.1-3.7-12.7
					c-2.1-1.6-7.3-10.1-9.4-11.7c-2.1-1.6-0.5-5.8,2.1-8c2.6-2.1,16.2-0.5,16.2-0.5s0-3.2-1.6-5.8c-1.6-2.6,0-6.4-1.1-8.5
					c-1-2.1-3.1-7.4-3.1-11.1c0-3.7,2.1-4.8,2.1-4.8s-0.5-2.6,0-4.8c0.5-2.1,0-4.8-2.1-6.9c-2.1-2.1,0.5-4.8-1.6-7.4
					c-2.1-2.6-8.2-8.3-8.2-8.3l-1.6,12.2c0,0,4.2,1.6,4.2,3.7c0,2.1-2.2,12-4.9,12c-2.6,0-4.2,0.5-4.2,3.2c0,2.7-3.1,5.3-5.2,7.4
					c-2.1,2.1,1,3.7-0.5,6.9c-1.6,3.2-1.6,5.8-3.7,6.4c-2.1,0.5-2.1,5.8-2.1,5.8s2.1,5.3,0,6.4c-2.1,1.1-6.3,3.7-9.4,4.8
					c-3.1,1.1-3.7,1.6-4.2,5.8c-0.5,4.2,0.5,5.8-2.1,8.5c-2.6,2.6-1.1,2.6-3.1,6.9c-2.1,4.2-4.2,2.6-5.8,6.4c-1.6,3.7-3.1,6.4-3.1,9
					c0,2.6,3.1,5.3,0,6.9c-3.1,1.6-3.5,9.2-9.4,8c0.1-3.5,2.1-7.4-1-9c-3.1-1.6-4.7-1.6-4.7-1.6s-2.1-1.1-4.7,1.6
					c-2.6,2.6-8.4,2.1-9.4,5.3c-1.1,3.2-1.1,8.5-3.1,9c-2.1,0.5-1.1,1.1-1.1,4.2c0,3.2,2.1,3.7,2.1,3.7l-2.1,5.8l0.5,10.3
					C303.4,212.7,303.7,213.7,305,213.5z"/>
				
					<path fill="#EDEDED" stroke="#FFFFFF" stroke-width="2" stroke-linecap="round" stroke-linejoin="round" stroke-miterlimit="10" d="
					M575.8,344.1c0.1-1.2,0.2-2,0.2-2l-1-5.8c0,0,2.1-4.2,5.3-0.5c3.1,3.7,0.8,7.7,5,4.5c4.2-3.2,2.1-8.5,4.7-6.9
					c2.6,1.6,8.9,2.1,8.9,2.1s-3.1,6.9,1,9c4.2,2.1,4.2,1.1,4.2,1.1s-0.9,4-2.4,6.1c-1.6,2.1-5.8,4.3-5.8,4.3l-1.6,7.9
					c0,0-4.2,1.6-6.3,2.1c-2.1,0.5-8.9-0.6-8.9-0.6c-0.1-7-0.3-14.1-0.6-21.6L575.8,344.1z"/>
				
					<path fill="#EDEDED" stroke="#FFFFFF" stroke-width="2" stroke-linecap="round" stroke-linejoin="round" stroke-miterlimit="10" d="
					M192.4,91l-9.4-1.1l-1,3.2c0,0-17.3-2.7-19.4-1.6c-2.1,1.1-4.2,4.2-4.2,7.4c0,3.2,2.1,6.4,1.6,8.5c-0.5,2.1-1.6,9-1.6,9
					s-6.8,1.1-9.4,0.5c-2.6-0.5-2.1-6.4-2.1-6.4l-5.2-0.5l-4.2,3.2l-5.2-0.5l-1.6-4.8l-10.5-0.5c0,0-2.1-10.1,1.6-11.7
					c3.7-1.6,2.6-4.8,1.6-6.9c-1-2.1,0.5-5.8,0.5-5.8s2.1-4.8,4.7-5.8c2.6-1.1,3.7,1.1,3.7,1.1s1-7.4,2.6-10.6
					c1.6-3.2,2.1-5.8,5.2-7.4c3.1-1.6,7.9-3.7,10-3.2c2.1,0.5,5.8-3.7,5.8-6.4c0-2.7,0.5-4.8,4.2-8c3.7-3.2,6.8-2.1,6.8-4.8
					c0-2.7,1-9,5.2-9c4.2,0,6.8-1.1,6.8-4.2c0-3.2,3.1-5.3,4.7-2.7c1.6,2.7,3.1-1.6,5.2,0.5c2.1,2.1,3.1,5.3,3.1,5.3l-2.1,4.8
					l4.7,6.4l9.4,5.8l-1,4.8l5.8,12.2c0,0,4.7-1.6,5.2,1.1c0.5,2.7-1.6,5.8-1.6,5.8l3.7,12.7c0,0,1.1,2.1-1.6,4.2
					c-2.6,2.1-4.7,2.7-4.7,2.7s0,4.2-2.1,4.2c-2.1,0-3.1,0-3.1,0s-3.7,0-6.3-0.5C195.5,91.5,192.4,91,192.4,91z"/>
				
					<path fill="#EDEDED" stroke="#FFFFFF" stroke-width="2" stroke-linecap="round" stroke-linejoin="round" stroke-miterlimit="10" d="
					M449.2,706.8c0,0,6.6,1.6,9.2,8.5c2.6,6.9,2.6,8,1,11.7c-1.6,3.7-0.5,8.5,3.1,8.5c3.7,0,2.1-3.2,6.3-3.2
					c4.2,0,12.1-5.3,12.1-5.3s13.6-6.9,13.6-10.1c0-3.2-2.1-4.8,4.7-8c1.9-0.9,2.6,1.6,5.2,3.2c2.6,1.6,3.7-2.7,7.3,0
					c3.7,2.7,7.9-0.5,10.5,1.1c2.6,1.6,6.3,3.2,6.3,0c0-3.2,1.1-19.1,1.1-19.1s3.7-3.2,6.8-3.2s1.6-11.7,5.8-13.3
					c4.2-1.6,6.3-9.5,10-9.5c3.7,0,8.9-5.8,12.6-5.8c3.7,0,0.5-4.2,5.8-3.2c5.2,1.1,7.9-6.4,7.9-6.4s-3.7-0.5-5.8-3.7
					c-2.1-3.2-2.6,1.6-5.8-1.6c-3.1-3.2-4.7,0-4.7-4.2c0-4.2-1.6-6.9,0.5-9.6c2.1-2.7-4.7-1.6-4.7-4.2c0-2.7-2.6-2.1-3.7-4.8
					c-1-2.7-1-6.9-1-6.9s-6.8-2.6-7.9-5.8c-1-3.2-0.5,1.6-4.7,0.5c-4.2-1.1-0.5-3.7-3.7-4.8c-3.1-1.1-7.9-10.1-7.9-10.1
					s0-6.9-3.1-6.9c-3.1,0-4.2-9-4.2-9s-5.2-1.1-5.8,3.7c-0.5,4.8-6.8-3.2-7.3,1.1c-0.5,4.2-4.7,2.1-4.7,2.1l-29.3,2.7h-9.9
					l-0.5,55.7h-14.1L449.2,706.8z"/>
				
					<path fill="#EDEDED" stroke="#FFFFFF" stroke-width="2" stroke-linecap="round" stroke-linejoin="round" stroke-miterlimit="10" d="
					M218.6,183c2.1-1.3,6.1-2.4,10.6-3c0,0,0.9-8.4,0.9-11.6c0-3.2,1-6.4-1.6-9.5c-2.6-3.2,2.6-14.9,1-18c-1.6-3.2-1.6-6.4,1-4.8
					c2.6,1.6,3.7-2.1,2.1-4.8c-1.6-2.6,0.5-2.6,2.1-5.8c1.6-3.2,1.1-4.2,1.1-8.5c0-4.2,0.5-4.8,3.1-4.8c2.6,0-1.6-3.2,0-8
					c1.6-4.8,1.6-6.4-1-8c-2.6-1.6-4.2-2.7-2.1-4.8c2.1-2.1,0.5-7.9,0.5-7.9l-7.9-3.2c0,0,1.6-2.6-1.6-4.8c-3.1-2.1-5.8-1.1-5.8-1.1
					l-5.2,6.9c0,0,1.1,2.1-1.6,4.2c-2.6,2.1-4.7,2.7-4.7,2.7s0,4.2-2.1,4.2c-2.1,0-3.1,0-3.1,0l-1.1,13.8l10,2.7c0,0,1.6,5.8,0.5,9
					c-1,3.2,1.1,7.4,1.1,7.4s2.1,3.2,0,9.5c-2.1,6.4,0,6.9,0,12.2c0,5.3,1,5.8-0.5,10.6c-1.6,4.8-1.6,5.3-0.5,9c1.1,3.7,0.5,9,0.5,9
					s-0.1,2,1.6,3.2c0.7,0.5,1.2,5,1.2,5L218.6,183z"/>
				
					<path fill="#EDEDED" stroke="#FFFFFF" stroke-width="2" stroke-linecap="round" stroke-linejoin="round" stroke-miterlimit="10" d="
					M348.5,369.8l10.5-5.9c0,0-1.6,0,0.5-4.2c1.4-2.7,4.1-6.6,4.1-6.6s-2.1-4.8-5.8-1.1c-2.3,2.3-0.8,2.9-0.9,3c0,0-0.5-0.1-2.7-0.1
					c-5.8,0-9.1,4.2-9.1,4.2l4,7.1C349.8,367.8,349.3,368.9,348.5,369.8z M353.1,386.8c0,0,9-4.6,11.6-7.3c2.6-2.7,7.3-5.3,13.6-4.2
					c6.3,1.1,17.3,1.1,17.3,1.1l25.7-0.5c0,0,2.1,6.4,3.1,9c1,2.6-1,4.2,0.5,7.9c1.6,3.7,0.5,5.3,1.6,10.6c1,5.3,1.6,3.7,4.2,6.9
					c2.6,3.2,4.7,2.1,8.4,2.1c3.7,0,5.2-5.3,7.3-3.2c2.1,2.1,5.8,0,4.7-2.1c-1-2.1-2.6-7.4-0.5-10.1c2.1-2.6,3.1-1.1,8.4-0.5
					c5.2,0.5,7.9-2.7,7.9,1.1v3.7c0,0,10.5-2.7,12,3.2c0.9,3.4-2.1,8,1,9c3.1,1.1,0.5,4.2,1.1,8.5c0.5,4.2,0.5,4.8,2.6,8.5
					c2.1,3.7-1,5.8,2.1,8c3.1,2.1,2.6,5.3,1.6,8c-1,2.6-1.6,3.2-0.5,7.4c1.1,4.2-0.5,6.4,2.1,9c2.6,2.7,4.7,3.2,6.3,0.5
					c1.6-2.7,3.7-1.6,5.8-1.1c2.1,0.5,8.9,0,8.9,0s2.6,6.9,2.6,10.1c0,3.2-3.1,5.3-2.6,8c0.5,2.6,0.5,3.7,0.5,6.4
					c0,2.6-0.5,4.8-0.5,4.8h-28.3l-0.5,59.9c0,0,1.6,0.5,3.1,6.9c1.6,6.4,1,4.2,6.8,9.5c5.8,5.3,1.6,11,8.4,10.6l-3.5,0.4l-28.5,5
					c0,0-6.8-3.7-10-2.7c-3.1,1.1-1.1-2.1-5.2,0c-4.2,2.1-5.2-4.2-9.9-2.7c-4.7,1.6-3.1-2.6-6.3-2.6c-3.1,0-5.2-5.3-5.2-5.3
					l-58.1-1.6c0,0-4.1-3.9-7.2-3.9c-3.1,0-2.9,5.7-7.3,4.2c-4.7-1.6-14.7,1-14.7,1c-0.5-11.2-0.7-23.5-0.1-26.9
					c0.5-3.1,9.3-13.7,10.1-16.3c2.9-10.4-3.1-12.2,2-22.4c0.4-0.9,5.3-0.8,6-2.1c1.2-2.1-0.9-3.9,0-6.1c0.9-2.7,6.8-6.3,8-10.2
					c3.2-10.6,1.6-23-2-32.6c-0.2-0.7-4-1.5-4-2c-1.6-7.4,4.3-18.8,4-28.5l-4-4.1c-1-6,1.5-9.8-2-18.3c-0.3-0.7-5.6-5-6-6.1
					C354.3,392.1,353.7,389.4,353.1,386.8z"/>
				
					<path fill="#DFDFDF" stroke="#FFFFFF" stroke-width="3" stroke-linecap="round" stroke-linejoin="round" stroke-miterlimit="10" d="
					M618.5,727.9c-0.1,9-1.4,26.1-1.9,27.1c-0.1,0.1-5.8,0-6,0c0,1.2,0.6,4.9,0,6.1l4,4.1c-2.4,1.7-14.9,8.7-16.1,10.2
					c-3.6,4.4-7.5,17-10,22.4h-2c-0.9,2.2,1.3,4.1,0,6.1c-1.9,2.9-7.8,5.3-10.1,8.1c-9,10.6-24.1,35-38.2,38.7
					c-3.5,0.9-6.6-1.2-10.1,0v4.1c-3.8,0.7-8.3,0-12.1,0c-0.3,0.4-2,4.1-2,4.1c-12.2,1-16.8-6-32.2-2c-1.3,0.3-5.5,5.9-6,6.1
					c-4.2,0.8-7.8-3.4-14.1-2c-3,0.6-10.4,10.2-20.1,8.1l-2-4.1c-1.4,0-4.6,0.6-6,0v-4.1l-6,4.1v-2c-4.8-2.5-3.7-22.1-4-22.4l-4-2
					c0.6-7.4,7.2-3.6,8.1-12.2c0.6-6.3-3.7-22.3-6-26.5c-0.6-0.9-5.3-2.3-6-4.1c-2.8-6.6-1.3-18.3-2-20.4c-0.8-2.2-6.6-5.9-7.6-7.8
					c0,0,7.5-6.3,8.6-8.5c1.1-2.1,2.1-2.1,5.2-2.1c3.1,0-0.7,2.8,0.9,6c1.6,3.2,2.1,3.2,6.8,3.2c4.7,0,4.7,2.1,7.3,0
					c2.6-2.1,4.2-2.1,5.8-5.3c1.6-3.2,7.9-2.7,7.9-2.7l0.7-51.4c0,0,6.6,1.6,9.2,8.5c2.6,6.9,2.6,8,1,11.7c-1.6,3.7-0.5,8.5,3.1,8.5
					c3.7,0,2.1-3.2,6.3-3.2c4.2,0,12.1-5.3,12.1-5.3s13.6-6.9,13.6-10.1c0-3.2-2.1-4.8,4.7-8c1.9-0.9,2.6,1.6,5.2,3.2
					c2.6,1.6,3.7-2.7,7.3,0c3.7,2.7,7.9-0.5,10.5,1.1c2.6,1.6,6.3,3.2,6.3,0c0-3.2,1.1-19.1,1.1-19.1s3.7-3.2,6.8-3.2
					s1.6-11.7,5.8-13.3c4.2-1.6,6.3-9.5,10-9.5c3.7,0,8.9-5.8,12.6-5.8c3.7,0,0.5-4.2,5.8-3.2c5.2,1.1,7.9-6.4,7.9-6.4
					s4.2,3.2,6.3,1.6c2.1-1.6,7.9-1.1,7.9-1.1s1.1,2.1,5.2,2.1c4.2,0,7.3,2.1,7.3,2.1s1.6,10.1-0.5,13.8c-2.1,3.7-1,9,0.5,14.9
					c1.6,5.8,0.5,10.1-0.5,13.2c-1,3.2-2.6,5.3-0.5,8c2.1,2.7,2.1,4.8,2.1,4.8s-4.2,3.2-6.3,1.6c-2.1-1.6-4.2,1.1-4.2,6.4
					c0,5.3-1,4.3,1.1,8.5c2.1,4.2,1,2.1,4.7,4.2c3.7,2.1,9.4,3.2,9.4,3.2l-0.5-8.5L618.5,727.9z M556.1,792c1.2-0.9,1.5-1.7,2.6-2.6
					c1.5-1.2,2.4-1.8,4.2-2.6c1.9-0.9,4,0.2,5.2-1.6c1.5-2,0-4.1-1-6.4c-1.1-2.2-2.6-2.9-4.2-4.8l-2.6-3.2c0,0-5.8,3.2-8.4,5.8
					c-2.6,2.7-3.3,2.3-4.9,2.3c-1.6,0-4.2,5.3-2.6,5.3c1.6,0,1.2,1.5,2.8,4.6c1.6,3.2,0,5.3,4.2,5.3
					C555.5,794.1,554.4,793.2,556.1,792z"/>
				
					<path fill="#DFDFDF" stroke="#FFFFFF" stroke-width="3" stroke-linecap="round" stroke-linejoin="round" stroke-miterlimit="10" d="
					M382.1,63.1l-1.6,12.2c0,0,4.2,1.6,4.2,3.7c0,2.1-2.2,12-4.9,12c-2.6,0-4.2,0.5-4.2,3.2c0,2.7-3.1,5.3-5.2,7.4
					c-2.1,2.1,1,3.7-0.5,6.9c-1.6,3.2-1.6,5.8-3.7,6.4c-2.1,0.5-2.1,5.8-2.1,5.8s2.1,5.3,0,6.4c-2.1,1.1-6.3,3.7-9.4,4.8
					c-3.1,1.1-3.7,1.6-4.2,5.8c-0.5,4.2,0.5,5.8-2.1,8.5c-2.6,2.6-1.1,2.6-3.1,6.9c-2.1,4.2-4.2,2.6-5.8,6.4c-1.6,3.7-3.1,6.4-3.1,9
					c0,2.6,3.1,5.3,0,6.9c-3.1,1.6-3.5,9.2-9.4,8c0.1-3.5,2.1-7.4-1-9c-3.1-1.6-4.7-1.6-4.7-1.6s-2.1-1.1-4.7,1.6
					c-2.6,2.6-8.4,2.1-9.4,5.3c-1.1,3.2-1.1,8.5-3.1,9c-2.1,0.5-1.1,1.1-1.1,4.2c0,3.2,2.1,3.7,2.1,3.7l-2.1,5.8l0.5,11
					c-1.3-0.7-1.2-3-2.4-3.9c-0.2,0.2-2.7,4.3-4,4.1c-1.1-0.2,0.1-5.5-6-4.1v4.1c-9.9,1.5-9.8,1.7-20.1,4.1c-2-2.7-7.3-7.2-8-10.2
					c-1.8-6.6,3.6-5.6,2-12.2c-0.6-2.5-13.8-13.5-16.1-14.2c-5.1-1.8-13-1.9-19.6-0.9c0,0,0.9-8.4,0.9-11.6c0-3.2,1-6.4-1.6-9.5
					c-2.6-3.2,2.6-14.9,1-18c-1.6-3.2-1.6-6.4,1-4.8c2.6,1.6,3.7-2.1,2.1-4.8c-1.6-2.6,0.5-2.6,2.1-5.8c1.6-3.2,1.1-4.2,1.1-8.5
					c0-4.2,0.5-4.8,3.1-4.8c2.6,0-1.6-3.2,0-8c1.6-4.8,1.6-6.4-1-8c-2.6-1.6-4.2-2.7-2.1-4.8c2.1-2.1,0.5-7.9,0.5-7.9l4.7-10.6
					c0,0,5.2-4.8,5.2-8c0-3.2,1-7.4,1-7.4s9.4-4.8,13.1-6.4c3.7-1.6,6.8-1.6,10.5-1.6c3.7,0,3.7,3.2,6.3,3.2c2.6,0,6.8,8,6.8,8
					s4.7,1.1,8.4-1.1c3.7-2.1,7.9-3.7,9.9-1.1c2.1,2.7-0.5,3.2,6.8,3.7c7.3,0.5,12.1,1.6,12.6-0.5c0.5-2.1,5.4-4.6,8.5-4.6
					c3.1,0,7.7-1.8,13.5,0.4c5.8,2.1,11.1,0.7,15.3,0.7c4.2,0,6.8-5.8,6.8-5.8l8.1-2.9l5.5,11.2l1.5-0.1L382.1,63.1z"/>
				
					<path fill="#DFDFDF" stroke="#FFFFFF" stroke-width="3" stroke-linecap="round" stroke-linejoin="round" stroke-miterlimit="10" d="
					M638.8,299c4.6,1.3,3.3-3.4,8-2c-3,6.5-4,10.8-5.1,18l43,20c0,0,2.6,3.2,2.1,6.9c-0.5,3.7-0.5,6.4,2.6,6.9
					c3.1,0.5,3.7,2.7,3.7,2.7l14.3,8.9c0.3-4.7-1.8-10.2-0.2-14.5h4v-2c0-3.7,4.5-7.5,6-10.2c0.6,0,5.5,0.4,6,0
					c1.8-1.5,2.1-8.9,4-10.2c2.6-1.8,6.2,0.6,8-2c1.1-1.7-0.6-6.2,0-8.1c0.3-1.5,5.6-5.3,6-6.1c2.3-5.2,1.4-7.2,1.4-9.7l-6.2-8.1
					l-1-54.6l7.3-5.3l7.8-17.5c0,0-11.5,3.2-15.2,1.6c-3.7-1.6-3.7-5.3-3.7-5.3s-4.5,6.1-8.1,3.9c-3.7-2.1-5.2,4.8-5.2,4.8
					s-3.9,0.3-7,0.3c-3.1,0-5.5,0.8-7.6-1.4c-2.1-2.1-11-1.6-11-1.6s-6.3,3.2-8.9,0.5c-2.6-2.7-6.8,1.6-8.9,1.1
					c-2.1-0.5-9.4-1.1-9.4-1.1l-7.9-5.8l-5.8,0.5c0,0-2-0.2-5.2,0l-3.7,3.7l-6.3,1.6l0.5,3.7c0,0,1.1,2.1,2.6,3.2
					c5.2,3.5,0.5,0.5,3.1,3.2c2.6,2.6,0.5,3.2-0.5,8.5c-1.1,5.3-1.6,6.9,1.6,9.6c3.1,2.7,3.7,5.3,3.1,8.5c-0.5,3.2-0.7,5.6-1.8,7.7
					c-1,2.1-4.2-0.5-4.7,5.3c-0.5,5.8,0.5,8-2.1,10.6c-2.6,2.6,2.8,10.9,1.3,12.5c-1.6,1.6,0,4.8,0,4.8l-1.2,5.9L638.8,299z
					 M664.9,217.6c0.4,4.3,0.4,12.3,2,18.3c0.2,1,5.9,5.7,6,6.1c4.4,17.5-11.6-6-12.1-8.1C658.9,224.9,664.6,219.2,664.9,217.6z"/>
				<text transform="matrix(1 0 0 1 111.4564 145.3711)" fill="#222222" font-family="'Helvetica-Bold'" font-size="44.2105">Nigeria</text>
				<text transform="matrix(1 0 0 1 738.303 295.6279)" fill="#222222" font-family="'Helvetica-Bold'" font-size="44.2105">Kenya</text>
				<text transform="matrix(1 0 0 1 551.9857 791.5503)" fill="#222222" font-family="'Helvetica-Bold'" font-size="44.2105">South Africa</text>
				<ellipse opacity="0.8" fill="#FF944C" cx="300.3" cy="124.5" rx="31.7" ry="30.9"/>
				<ellipse opacity="0.8" fill="#FF944C" cx="697.1" cy="279.7" rx="31.7" ry="30.9"/>
				<ellipse opacity="0.8" fill="#FF944C" cx="506.8" cy="776.8" rx="31.7" ry="30.9"/>
			</g>
		</g>
	</g>
</g>
</svg>
