<?xml version="1.0" encoding="utf-8"?>
<!-- Generator: Adobe Illustrator 18.0.0, SVG Export Plug-In . SVG Version: 6.00 Build 0)  -->
<!DOCTYPE svg PUBLIC "-//W3C//DTD SVG 1.1//EN" "http://www.w3.org/Graphics/SVG/1.1/DTD/svg11.dtd">
<svg version="1.1" id="Layer_1" xmlns="http://www.w3.org/2000/svg" xmlns:xlink="http://www.w3.org/1999/xlink" x="0px" y="0px"
	 viewBox="0 0 1248 787" enable-background="new 0 0 1248 787" xml:space="preserve">
<g>
	<text transform="matrix(1 0 0 1 55.0916 757.576)"><tspan x="0" y="0" fill="#222222" font-family="'Helvetica'" font-size="36">Badoo </tspan><tspan x="114.1" y="0" fill="#222222" font-family="'Helvetica-Bold'" font-size="40">3</tspan></text>
	<g>
		<path fill="#FF944C" d="M38,742.9c0,10.5-8.5,19-19,19s-19-8.5-19-19s8.5-19,19-19S38,732.4,38,742.9z"/>
		
			<path fill="none" stroke="#FFFFFF" stroke-width="0.4997" stroke-linecap="round" stroke-linejoin="round" stroke-miterlimit="10" d="
			M38,742.9c0,10.5-8.5,19-19,19s-19-8.5-19-19s8.5-19,19-19S38,732.4,38,742.9z"/>
	</g>
	<g>
		<g>
			<defs>
				<rect id="SVGID_1_" x="0" y="0" width="1248" height="702"/>
			</defs>
			<clipPath id="SVGID_2_">
				<use xlink:href="#SVGID_1_"  overflow="visible"/>
			</clipPath>
			<g clip-path="url(#SVGID_2_)">
				
					<path fill="#EDEDED" stroke="#FFFFFF" stroke-width="2" stroke-linecap="round" stroke-linejoin="round" stroke-miterlimit="10" d="
					M745.2,432.4l-1.1,6.9c0,0,2.9,0.1,4.4,0.5c1.5,0.4,3.4,1.1,4.9,2.3c1.5,1.1,3.4,2.7,5.7,3.4c2.3,0.8,4.1,1.5,5.6,3.1
					c1.5,1.5,1.3,4.8,1.3,4.8s-2.3,1.9-1.9,4.6c0.4,2.7-0.8,5.3,0.4,7.6c1.1,2.3,3.4,5,3.4,5s-1.3,2.1-2.4,3.6
					c-1.1,1.5-3.2,2.5-1.7,4.4c1.5,1.9,2.6,2.3,1.5,3.8c-2.3,3.1,0,2.7-1.1,6.1c-1.1,3.4,1.5,5.1,1,7.4c-1.1,5.3-1.7,1.4-1.4,3.7
					c0.4,2.3,4.1-0.4,2.6,1.9c-1.5,2.3-4.7,7-4.7,7l-6.8,8.8c0,0-2.3-1.5-5.3-1.5c-3,0-3.8-1.5-3.8-1.5s-4.1-0.4-5.7,0.8
					c-1.5,1.1-4.5-1.1-4.5-1.1s-2.6-0.4-4.1-2.7c-1.5-2.3-1.9,1.1-4.1-1.1c-2.3-2.3-3.4,0-3.4-3.1c0-3.1-1.1-5,0.4-6.9
					c1.5-1.9-3.4-1.1-3.4-3c0-1.9-1.9-1.5-2.6-3.4c-0.8-1.9-0.8-5-0.8-5s-4.9-1.9-5.7-4.2c-0.8-2.3-0.4,1.2-3.4,0.4
					c-3-0.8-0.4-2.7-2.6-3.4c-2.3-0.8-5.7-7.2-5.7-7.2s0-5-2.3-5c-2.3,0-3-6.5-3-6.5s3.4,1.1,4.9,0.4c1.5-0.8,3.8,1.1,4.9-0.4
					c1.1-1.5,4.5,0,6,0c1.5,0,4.2-1.1,6-2.3c1.9-1.1,5.3-0.4,6.4-1.9c1.1-1.5,0.5-8.9,2-9.3c1.5-0.4,0.8-2.3,2.6-3.1
					c1.9-0.8,2.6-1.5,2.6-3.4c0-1.9,0.8-3.1,2.6-3.4c1.9-0.4,4.1-3.1,4.1-3.1L745.2,432.4z"/>
				
					<path fill="#EDEDED" stroke="#FFFFFF" stroke-width="2" stroke-linecap="round" stroke-linejoin="round" stroke-miterlimit="10" d="
					M678.7,460.4l9.8-1.1c0,0,2.6-0.8,3.8,1.1c1.1,1.9,2.6,2.3,2.6,2.3s3.4,1.1,4.9,0.4c1.5-0.8,3.8,1.1,4.9-0.4c1.1-1.5,4.5,0,6,0
					c1.5,0,4.2-1.1,6-2.3c1.9-1.1,5.3-0.4,6.4-1.9c1.1-1.5,0.5-8.9,2-9.3c1.5-0.4,0.8-2.3,2.6-3.1c1.9-0.8,2.6-1.5,2.6-3.4
					c0-1.9,0.8-3.1,2.6-3.4c1.9-0.4,4.1-3.1,4.1-3.1l7.5-3.4v-0.8c1.1-1.9-2.6-5.3-2.6-5.3l21.7-7.1c0,0-1.1-4.2-1.5-6.1
					c-0.4-1.9,2.2-3.8,1.5-6.1c-0.8-2.3-0.8-6.5,1.1-8c1.9-1.5,6.6-2.8,5.8-5.9c-0.8-3.1-3.4,0-3-2.7c0.4-2.7,0.2-4.8-0.5-7.1
					c-0.8-2.3,2.6-2.3,3.4-4.2c0.8-1.9,3.9-4,2-5.5c-1.9-1.5,0-6.1-1.5-7.3c-1.2-0.9-2.1-3.5-2.4-4.3c-1.3-0.2-4.6-1-5.5-2.2
					c-1.1-1.5-2.4-2.9-3.9-2.9c-1.5,0-0.6-5.1-0.6-5.1s-2.6-0.6-4.5-1.3c1.3,2.3,0.8,3.4-2.7,3.6c-4.7,0.3-5.3-1.7-6.4-5.4
					l-14.7,4.2c0,0-3.8,3-6.1,4.9c-0.2,1.5-0.4,3.1-1.7,3.7l-0.9,0c-0.2,1.6,0.2,3.2,0.5,4.1c0.4,1.5,1,0.9,1,3.6
					c0,2.7,2.6,4.6,1.9,6.5c-0.8,1.9-1,3.3-1,4.8c0,1.5,1.7,3.2,4,5.1c2.3,1.9,4.1,0.8,6.4,4.2c2.3,3.4,1.1,1.9,3,1.9
					c1.9,0,5.3-1.1,5.3-1.1v11.4l-4.1-1.1c0,0-1.5,0.4-3,1.5c-1.5,1.2-5.3,1.5-5.3-0.8c0-2.3,1.1-3.8-0.4-6.1
					c-1.5-2.3-5.7-0.8-6.8-3.4c-1.1-2.7-3.8-2.7-3.8-4.6c0-1.9,0.1-3.2-1.7-3.2c-1.9,0-2.6-1.5-3.8,0.8c-1.1,2.3-1.3,2.4-4.3,2.4
					c-3,0-5.3,0-7.2,0c-1.9,0-3-1.9-3-1.9s0.5-0.9,0.5-3.2c0-2.3-1.5-3.4-3-1.5c-1.5,1.9-4.3,2.4-4.3,0.2c0-2.3-1.1-5.7-1.1-5.7
					l-5.3,1.2c0,0,1.9,5,1.9,7.3c0,2.3-2.3,3.8-1.9,5.7c0.4,1.9,0.4,2.7,0.4,4.6c0,1.9-0.4,3.4-0.4,3.4h-20.3l-0.4,43.1
					c0,0,1.1,0.4,2.3,5c1.1,4.6,0.8,3.1,4.9,6.9C676.8,456.6,673.8,460.7,678.7,460.4z"/>
				
					<path fill="#EDEDED" stroke="#FFFFFF" stroke-width="2" stroke-linecap="round" stroke-linejoin="round" stroke-miterlimit="10" d="
					M633.1,203.6l0.8-9.5c0,0,4.9-1.9,4.9-5c0-3.1,1.9-5.3,3.8-5.3c1.9,0,4.1-1.1,7.2,0.4c3,1.5,4.1,4.2,6,5.3
					c1.9,1.1,6,1.1,8.3,1.1c2.3,0,3,0.4,6,1.1c3,0.8,5.7,1.1,5.7,1.1s-0.7-5.7,1.9-5.7c2.6,0,2.6,3.4,6,2.3c3.4-1.1,5.3-1.1,5.3-1.1
					s-0.8-3.1,1.9-3.4c2.6-0.4,0.8,3.8,3.8,0.8c3-3.1,1.9-3.4,4.5-3.4h7.5c3,0,1.5,1.5,3,1.5c1.5,0,5.3-0.4,5.3-0.4l3,4.6
					c0,0,0.8,3.4,2.3,4.6c1.5,1.1,3.4,0.4,3.8-2.3c0.4-2.7,3.4,1.1,5.7,2.3c2.3,1.1,2.3,0.4,3.8-1.5c1.5-1.9,3.8-0.8,4.9,1.5
					c1.1,2.3,2.3,4.6,3.8,6.1c1.5,1.5,4.5,1.9,6,3.4c1.5,1.5,3.4,0,3.4,0l5,2.5c0,0,1.1,2.7,0.4,5c-0.8,2.3-5.7,6.1-3.4,6.1
					c2.3,0-0.4,2.7-1.1,4.2c-0.8,1.5-1.7,6.3-0.2,6.3c1.5,0,2,2.5,0.5,4.4l-3,3.5c0,0,0.8-2.4,1.8-3.9c-1.4,1.3-6.6,4.1-7.2,5.9
					c-0.5,1.3,0.5,2.7,0.4,3.9l-4.2,2.3c0,0-2.6,3.4-2.6,5.3c0,1.8-1.2,7.1-2.6,9.6c0.1-1.1-0.6-1.5-2.5-0.6c-2.9,1.3-6.7,8.4,0,7.3
					c0.1-0.3,0.7-1.6,1.3-2.8c-0.1,1.1-0.3,2-1,2.7c-3.8,4.2,0.4,6.5,0.4,6.5s-0.6,2.9-0.9,5.1c-1.2-1-3.9-3.2-4.1-4.1
					c-0.2,1.3-6.5,11.2,0.1,10.1c-0.3,0.6-0.6,1.3-0.4,2.1c0.4,1.9,4.7,2.9,4.7,2.9l1.1,4.2l-0.1,1.5c-0.9,0-1.7,0.3-2.4-0.3
					c-0.4,2.5-5.7,11.4,0,11.7c-0.5,1.9-2.2,2.5-1.4,5.9l2.9,2.9c0.1,3.4-0.8,6.2-2.9,7.3c0,0,3.6,12,4.3,13.2l8.7,5.9
					c0.8,1.6-0.8,2.7,0,4.4c1.1,2.5,1.7,4.6,2.2,6.3l-14.7,4.2l-6.1,4.9c0.2-1.5,0.3-3,1.2-3.7c-2.3,1.7-5,2.9-7.2,4.4
					c0.2,0.5,2.2,2.2,1.5,2.9h2.3c-0.2,1.5-0.1,3.2,0.1,4.1c0.4,1.5,1,0.9,1,3.6c0,2.7,2.6,4.6,1.9,6.5c-0.8,1.9-1,3.3-1,4.8
					c0,1.5,1.7,3.2,4,5.1c2.3,1.9,4.1,0.8,6.4,4.2c2.3,3.4,1.1,1.9,3,1.9c1.9,0,5.3-1.1,5.3-1.1v11.4l-4.1-1.1c0,0-1.5,0.4-3,1.5
					c-1.5,1.2-5.3,1.5-5.3-0.8c0-2.3,1.1-3.8-0.4-6.1c-1.5-2.3-5.7-0.8-6.8-3.4c-1.1-2.7-3.8-2.7-3.8-4.6c0-1.9,0.1-3.2-1.7-3.2
					c-1.9,0-2.6-1.5-3.8,0.8c-1.1,2.3-1.3,2.4-4.3,2.4h-7.2c-1.9,0-3-1.9-3-1.9s0.5-0.9,0.5-3.2c0-2.3-1.5-3.4-3-1.5
					c-1.5,1.9-4.3,2.4-4.3,0.2c0-2.3-1.1-5.7-1.1-5.7l-5.3,1.2c0,0-4.9,0.4-6.4,0c-1.5-0.4-3-1.2-4.2,0.8c-1.1,1.9-2.6,1.5-4.5-0.4
					c-1.9-1.9-0.8-3.4-1.5-6.5c-0.7-3.1-0.4-3.4,0.4-5.4c0.8-1.9,1.1-4.2-1.1-5.7c-2.3-1.5,0-3.1-1.5-5.7c-1.5-2.7-1.5-3.1-1.9-6.1
					c-0.4-3.1,1.5-5.3-0.8-6.1c-2.3-0.8-0.1-4-0.8-6.5c-1.1-4.2-8.7-2.3-8.7-2.3v-2.7c0-2.7-1.9-0.4-5.6-0.8c-3.8-0.4-4.5-1.5-6,0.4
					c-1.5,1.9-0.4,5.7,0.4,7.3c0.7,1.5-1.9,3.1-3.4,1.5c-1.5-1.5-2.6,2.3-5.3,2.3c-2.7,0-4.2,0.8-6-1.5c-1.9-2.3-2.3-1.1-3-5
					c-0.8-3.8,0-5-1.1-7.6c-1.1-2.7,0.4-3.8-0.4-5.7c-0.8-1.9-2.3-6.5-2.3-6.5l-18.5,0.4c0,0-7.9,0-12.4-0.8
					c-4.5-0.8-7.9,1.1-9.8,3.1c-1.9,1.9-7.2,4.4-7.2,4.4l-1.2,0.5c-0.8-3.9-1.5-7.5-4.1-10c-0.8-0.6,1-1.9,1-1.9l7.5-4.1
					c0,0-1.2,0,0.4-3.1c1-1.9,2.9-4.8,2.9-4.8s1.5,1.1,2.6-0.4c1.1-1.5,3.8,0,6,0c2.3,0,0.8-4.6,0.8-4.6s1.1,0.4,3.4,0.8
					c2.3,0.4,4.5-1.1,4.5-1.1l-0.4,6.5c0,0,3.8-0.4,6-0.4c2.3,0,3,0,4.9-1.5c1.9-1.5,3.4,0,4.1-1.5c0.8-1.5,1.5-3.8,1.1-7.2
					c-0.4-3.4,1.5-0.4,2.6-4.2c1.1-3.8,0.8-1.1,1.1-5c0.4-3.8-1.9-4.6-2.3-8c-0.4-3.4,1.5-4.6,3-7.2c1.5-2.7,3.8-1.9,3.8-5.7
					c0-3.8,0.4-6.5,3-9.9c2.6-3.4,2.3-6.1,2.3-10.7c0-4.6-0.8-4.2-0.8-7.2c0-3.1,1.1-5,1.1-9.5c0-4.6,1.5-5,3-6.5
					C632.7,213.1,633.1,203.6,633.1,203.6z M732.8,275.2c-0.1,0.7-0.4,1.3-0.4,1.8c0,0.6-0.3,1.2-0.8,1.7
					C731.8,277.3,731.6,276,732.8,275.2z"/>
				
					<path fill="#EDEDED" stroke="#FFFFFF" stroke-width="2" stroke-linecap="round" stroke-linejoin="round" stroke-miterlimit="10" d="
					M861.3,49.9c0,0,2.3-1.1,2.3-3.1c0-1.9,1.9-0.4,1.9-2.7c0-2.3,0-1.5,1.1-2.7c1.1-1.1,0.4-1.8,2.3-2.3c4.1-1.1,1.1,1.9,3.4,3.1
					c2.3,1.1,2.8,0.3,5.8-0.1c3-0.4,16.4,4.3,16.4,4.3l1.9,12.2c-0.5,0,5.1-6.2,5.1-6.2l12.3-15.9l33.1-11.9l-0.3,3.2l9.7,17.5
					l5.5,5.3l-1,0.2c-4.3,0.8-7.9,0.4-10.9,3.5c-2.6,2.6,0.6,6,0,7.3h-2.9l-1.5,4.4H944v1.5c-7.2,5.4-16.8,5.4-24.6,10.3
					c-1.4,0.8-2.9,5.3-4.3,5.9c-6.6,2.5-7.6,0.2-10.1-1.5c-1,0.2-4.1,2.8-4.3,2.9c-2.8,0.7-6-1-8.7,0c-5.4,1.8-7.9,8.2-14.5,8.8
					c-13.6,1.1-9.1-3.9-11.6-13.2c-0.4-1.5-3.7-3.3-4.3-4.4c0,0,0.3-3.9,1.4-1.5c-1.3-4.9-2.2-17.9-2.9-17.6v-2.9
					c0-0.3,0.4-1.4,0.8-2.8L861.3,49.9z M965.7,96.8c-3.9,0.3,4.3,2.9,4.3,2.9S972.2,96.1,965.7,96.8z"/>
				
					<path fill="#EDEDED" stroke="#FFFFFF" stroke-width="2" stroke-linecap="round" stroke-linejoin="round" stroke-miterlimit="10" d="
					M744.4,240.4c-0.1-0.6-3.8,1.8-3.8,1.8s-2.6,3.4-2.6,5.3c0,1.8-1.2,7.2-2.6,9.7c0,1.1-0.5,2.5-1.2,3.9c-0.1,1-0.3,1.9-0.9,2.6
					c-3.8,4.2,0.4,6.5,0.4,6.5l0.4,0.8c0,0,2.5,1.3,4.4,2.9c1.9,1.5,3.8,1.9,5.3,0.4c1.5-1.5,4.9-2.7,4.9-2.7l8.6-0.3l0.4-1.6
					c-4.2,3-1.6-7.7,0-8.8c-0.6-2.4-1.9-2.1-1.4-5.9c1.5-0.6,3.5-4.1,4.3-4.4c1.9-0.8,6.9,1.2,10.1,1.5c0.6-2.4-1.2-2.4,1.4-2.9
					c0.5,0.9,4,0.8,4.3,1.5c0.6,1.1,0,4.5,0,5.9c2.6,0.5,2.7,2.8,2.9,2.9l0.8-4.9c0,0-1.1-2.3,0-3.4c1.1-1.1-2.8-7.1-0.9-9
					c1.9-1.9,1.1-3.4,1.5-7.6c0.4-4.2,2.6-2.3,3.4-3.8c0.8-1.5,0.9-3.3,1.3-5.6c0.4-2.3,0-4.2-2.3-6.1c-2.3-1.9-1.9-3.1-1.1-6.9
					c0.7-3.8,2.3-4.2,0.4-6.1c-1.9-1.9,1.5,0.3-2.3-2.3c-1.1-0.8-1.9-2.3-1.9-2.3l-0.4-2.9l-3.8,2.9c0,0-4.1-3.4-6.8-1.9
					c-2.2,1.3-0.8,1.5-3.8,1.1c-2.9-0.4-7,4.2-7,4.2c0.4,0.8,1.1,2.8,0.6,4.5c-0.8,2.3-5.7,6.1-3.4,6.1c2.3,0-0.4,2.7-1.1,4.2
					c-0.8,1.5-1.7,6.3-0.2,6.3c1.5,0,2,2.5,0.5,4.4l-3,3.5c-0.7,1.9-1.5,3.9-2.5,4.9C746.7,239.3,745.2,239.9,744.4,240.4z
					 M761.7,233c2.6,0.4,5,5.1,0,4.4C759.3,237.1,757.8,232.3,761.7,233z"/>
				
					<path fill="#EDEDED" stroke="#FFFFFF" stroke-width="2" stroke-linecap="round" stroke-linejoin="round" stroke-miterlimit="10" d="
					M475.9,175.9c0,0,0.4-0.5-1.1-2.8c-1.5-2.3-1.1-2.3-1.1-2.3s0.4-3.8-0.4-6.5c-0.8-2.7-0.8-3,0.4-6.5c1.1-3.4,0.4-3.8,0.4-7.6
					c0-3.8-1.5-4.2,0-8.8c1.5-4.6,0-6.9,0-6.9s-1.5-3.1-0.8-5.3c0.8-2.3-0.4-6.5-0.4-6.5l-7.2-1.9l0.8-9.9c0,0-2.6,0-4.5-0.4
					c-1.9-0.4-4.1-0.8-4.1-0.8s-1.9,8.4-0.4,8.8c1.5,0.4,3.4,2.3,3.4,5.7c0,3.4,1.1,6.9-0.4,9.2c-1.5,2.3,2.3,2.7,1.5,4.6
					c-0.8,1.9-3.4,4.6-1.1,8c2.3,3.4,3,3.4,3,6.5c0,3-1.1,8-1.1,9.5c0,1.5-1.1,3.4,0.4,4.6c1.5,1.1-1.5,1.1,0,2.7
					c1.5,1.5,5.7,9.8,5.7,9.8c2,1.3-3,6.4,2.1,4.1c2.2-1,3.7-6.1,5.8-7.3L475.9,175.9z"/>
				
					<path fill="#EDEDED" stroke="#FFFFFF" stroke-width="2" stroke-linecap="round" stroke-linejoin="round" stroke-miterlimit="10" d="
					M828.5,303.6l-10.3-6.5c0,0-0.4-1.5-2.6-1.9c-2.3-0.4-2.3-2.3-1.9-5c0.4-2.7-1.5-5-1.5-5l-30.9-14.4l-0.7,4.6
					c-2.2-1.4-4.4,1.5-4.4,1.5c1.2,1.8,4.1,2.9,5.8,4.4c-1.2,0.6,0.8,5.6-1.5,1.5c-2.4,0.8-2.5,1.1-4.4,1.5c0,2,0.7,5.4,0,7.3
					c-1.8-1.7-1-2.6-1.4-5.9c-4.4-1.1-5.4-1.8-8.7-2.9v2.9c-1.1,0.4-3.3,0-4.3,0l1.4,4.4c-1.1,0.2-3.3-0.6-4.3,0
					c-3.6-7.7-3.6-10.8-1.8-18.9l-8.5,0.3l2.6,5.3c0,0-0.8,3.1-0.4,5.7c0.4,2.7-0.4,3.1-0.4,3.1s-2.3,5,0.8,6.5c3,1.5,3,0.8,3,0.8
					s-0.6,2.9-1.7,4.4c-1.1,1.5-4.2,3.1-4.2,3.1l-1.1,5.7c0,0-3,1.1-4.5,1.5c-1.5,0.4-6.4-0.4-6.4-0.4c0.1,5.8,0,11.7-0.4,18.1
					c3.7,2.4,8.4,1.9,10.1,5.9c1.3,3-0.9,7,0,10.3c0.6,2.3,6.8,6.9,8.6,10c1.9,0.6,4.3,0.9,4.3,0.9s-0.9,5.1,0.6,5.1
					c1.5,0,2.8,1.4,3.9,2.9c1.1,1.5,4.9,2.2,7.3,2.4l6.1,2.5l1,0.5l2,1c1.8,0.1,0.9,4.5,1.8,5.1c1,4.1,0.5,9.2,0,14.2
					c0,1.4-0.4,2.9-0.6,4.7l-0.2,1.9c0,0,5.2-0.4,7.8-1.9c2.6-1.5,1.5-1.9,3.8-1.1c2.3,0.8,1.5,5,4.5,4.2c3-0.8,4.5-1.5,6.8-1.5
					c2.3,0,4.4-0.6,6.8-1.5c1.9-0.8,2.3-3.4,4.1-2.3c1.9,1.1,1.1,0.4,3.4,0c2.3-0.4,2.3-2.7,4.9-3.1c2.6-0.4,5.3-0.4,7.2-1.9
					c1.9-1.5,5.7-1.6,5.7-1.6c1.3-2.8,1.7-4.9,1.2-6.9c-1-3.8-8.8-6.6-10.1-11.7c0,0-0.5-17.9,0-20.5c0.1-0.6,3.1-4.7,2.9-5.9
					c-0.5-2.5-8.2-7.1-8.7-10.3c-1.4-8.6,5.9-16.3,7.2-22L828.5,303.6z M767.5,341.4c0.4,0.2,5.3,7,0,4.4
					C767.4,345.7,764.2,339.9,767.5,341.4z M825.4,323.9c0.7,0.4,0.2,5.2,1.5,5.9C829.2,330.9,827.3,324.7,825.4,323.9z
					 M786.3,298.9c4.1-1,0,2.9,0,2.9C782,303.4,783.9,299.5,786.3,298.9z M770.4,277c0.4,0.1,3.3,2.4,4.3,2.9V277
					C773.9,276.7,771.2,277.1,770.4,277z"/>
				
					<path fill="#EDEDED" stroke="#FFFFFF" stroke-width="2" stroke-linecap="round" stroke-linejoin="round" stroke-miterlimit="10" d="
					M758.8,567.6c0,0,1-4.1,1-6.4c0-2.3-4.1-4.6-4.1-4.6s-3,2.3-4.5,1.2c-1.5-1.2-3,0.8-3,4.6c0,3.8-0.8,3.1,0.8,6.1
					c1.5,3.1,0.8,1.5,3.4,3.1c2.6,1.5,6.8,2.3,6.8,2.3L758.8,567.6z"/>
				
					<path fill="#EDEDED" stroke="#FFFFFF" stroke-width="2" stroke-linecap="round" stroke-linejoin="round" stroke-miterlimit="10" d="
					M685.7,151.2l1.8-1.1c0,0,0.5-0.6,1.1-0.6c0.6,0,0.4-0.6,0.7-1c0.3-0.4,0.3-0.7,0-1.4c-0.3-0.7-0.3-1.1-0.1-1.8
					c0.2-0.8,0-1,0.5-1.6c0.4-0.6-0.1-1,0.1-1.3c0.2-0.4,0.4-0.8,1-1.4c0.6-0.6,0.1-0.8,0.1-1.4c0-0.6,0-2.1,0-2.1l1.1-1.2
					c0,0,0.6-0.3,1-1.1c0.3-0.8,0.6-0.7,0.7-1.5c0-0.8-0.2-0.6-0.1-1.1c0.1-0.5,0.4-0.8,0.6-1.5c0.2-0.7,0.2-0.6,0.8-0.6
					c0.5,0,0.3-0.4,0.7-0.2c0.4,0.2,0.3,0.6,0.7,0.2c0.4-0.4,0.8-0.3,0.8-0.3s0.5-0.3,1,0c0.5,0.3,0.6,0,1-0.6
					c0.4-0.6,0.5-0.1,1,0.1c0.5,0.3,0.5-0.4,0.9-0.6c0.4-0.2,0.7,0.6,0.7,0.6l0.1,2.6c0.7,0.2,1.2,0.8,1.5,1.7
					c0.3,1,1.2,1.7,1.2,1.7s0.3,1.5,0.6,2.3c0.3,0.8,0.6,1.9,1.1,2.2c0.5,0.2,3.1,1,3.1,1s0.9-0.6,1.5-0.9c0.6-0.4,1.9-0.8,1.9-0.8
					l7.4,0.1l1.2,3.3l6.7-0.1c0,0,0-0.3-0.1-0.7c-0.1-0.4,0.5-1,0.5-1l2.7-3.6l4.2-0.1l-0.1-4.2l4-2.8c0,0,7.1,6.1,7.3,6.3
					c0.3,0.3,0.5,1,0.8,0.9c0.3-0.1,0.6-0.5,0.6-0.5l3.8-0.4l4.7-8.1l1.2-3.3l1.5-1.3l2.8-3.8l-1.1-1.9l-0.1-6.4l-2.5-3l5.9-0.1
					c0,0,0.1-1.5-0.2-1.8c-0.3-0.3-0.1-0.9-0.1-0.9l0-1l5.3-0.1c0,0-0.1,0.4-0.4,1c-0.2,0.5-0.4,1.4-0.4,2.5c0,1.1-0.3,2.8-0.3,2.8
					s-0.3,0.7-0.4,1.6c-0.1,0.9,0.3,1.8,0.6,2.6c0.3,0.9,0.4,2,0.4,2.9c0,0.9,0.4,3.2,0.4,3.2s0.3,0.6,0.1,1
					c-0.2,0.4-0.4,1.3-0.4,1.3s0.8,0.4,1.3,0.7c0.5,0.2,1.3-0.1,1.3-0.1s1.2,2.3,1.7,2.9c0.5,0.7,1.1,1,1.5,1.6c0.3,0.6,1,1.9,1,1.9
					l0.6-0.1l0.2,1c0,0-0.7,0.6-0.7,1.7c0,1.1-0.2,1.3-0.3,2.1c-0.2,0.8,0.2,1.3,0.2,2c0,0.7,0.4,1.7,0.4,1.7l0.4,0l0.3,0.1
					l-0.1-2.7c-0.4-2.3,4.4-8.2,4.4-11.6c0-3.4,0.4-6.5,0.4-6.5s2.3-1.9,4.2-2.7c1.9-0.8,3-1.5,3.8-3.4c0.7-1.9,1.5-3.8,2.6-6.1
					c1.1-2.3,3-5,3-8.8c0-3.8,3.8-6.1,4.9-8.8c1.1-2.7,4.9-7.6,4.9-7.6s0.4-9.5-0.4-11.1c-0.8-1.5,0-4.6,0.8-8
					c0.8-3.4,2.6-4.6,2.6-8.4s-0.4-4.2,0.4-7.6c0.7-3.4-0.8-4.6,1.1-4.6s1.1-2.3,2.3-4.2c1.1-1.9,5.3-4.1,5.3-4.1l5.3,0.8l4-4.8
					l-0.6-1.1h-2.9c-0.6-0.2-12.8-13.7-13-14.6c-2.5-10.4,2.6-16.4,0-26.4l-2.9-1.5c-0.9-2.5,0.9-4.9,0-7.3
					c-0.3-0.7-9.1-5.6-10.1-7.3l-0.7-1.1l-5.4,2.2l-3.4,0.4l-2.3,6.5l-3.4,0.8l-1.1,6.1l-3.4,0.8l-1.1-1.9h-8.7l-0.8-2.3l-2.6,1.9
					l-67.2-0.4l0.1,22.5h-9V15v44.7c0,0-4.9,1.1-6.8,0c-1.9-1.1-3.4-1.9-4.5,0.8c-1.1,2.7-3,3.8-1.9,6.1c1.1,2.3,0,3.4-2.3,5
					c-2.3,1.5-1.5,1.9-1.5,4.2c0,2.3,0,5.3-2.3,7.2c-2.3,1.9-2.3,0.4-2.3,3.4c0,3.1-0.8,3.4-2.6,4.6c-1.9,1.1-1.1,1.9-1.1,3.8
					c0,1.9,2.6,0.4,4.5,0.4c1.9,0,2.6,0.8,3.8,2.7c1.1,1.9-2.3,3.4-1.9,5.7c0.4,2.3,0.4,2.3,0.4,2.3s1.1,1.5,0,4.2
					c-1.1,2.7-0.4,2.7,1.5,4.6c1.9,1.9,0.8,3.8,0.8,3.8l6,5.7c0,0,0.4,4.2-0.4,6.5c-0.8,2.3-1.9,2.3,1.1,4.6c3,2.3,3.4,2.7,2.3,6.1
					c-1.1,3.4,3,8,4.5,8.8L685.7,151.2z"/>
				
					<path fill="#EDEDED" stroke="#FFFFFF" stroke-width="2" stroke-linecap="round" stroke-linejoin="round" stroke-miterlimit="10" d="
					M793.1,190.3c0.8,0.1,1.6,0.1,2.3,0.1c2.6,0,2.3,5.3,2.3,5.3l0.4,3.1l-5.3-4.2l-4.1,0.4c0,0-1.4-0.1-3.8,0l-2.6,2.7l-4.9,1.1
					l-3.4,2.7c0,0-4.1-3.4-6.8-1.9c-2.2,1.3-0.8,1.5-3.8,1.1c-2.9-0.4-6.5,3.4-6.5,3.4l-0.3,0.4l-5-2.5c0,0-1.9,1.5-3.4,0
					c-1.5-1.5-4.5-1.9-6-3.4c-1.5-1.5-2.6-3.8-3.8-6.1c-1.1-2.3-3.4-3.4-4.9-1.5c-1.5,1.9-1.5,2.7-3.8,1.5c-2.3-1.1-5.3-5-5.7-2.3
					c-0.4,2.7-2.3,3.4-3.8,2.3c-1.5-1.1-2.3-4.6-2.3-4.6l-3-4.6c0,0-0.4-3.8-1.9-4.2c-1.5-0.4-0.4-3.4-1.5-6.5
					c-1.1-3.1-2.6-4.6-6-5.3c-3.4-0.8-3-4.6-4.2-6.5c-1.1-1.9-1.9-1.5-3.8-1.5s-3.4-1.9-4.5-3.4c-1.1-1.5-2.3-1.5-4.5-1.5
					c-1.6,0-2-1.6-2.7-2.9l-0.1-0.3l1.8-1.1c0,0,0.5-0.6,1.1-0.6c0.6,0,0.4-0.6,0.7-1c0.3-0.4,0.3-0.7,0-1.4
					c-0.3-0.7-0.3-1.1-0.1-1.8c0.2-0.8,0-1,0.5-1.6c0.4-0.6-0.1-1,0.1-1.3c0.2-0.4,0.4-0.8,1-1.4c0.6-0.6,0.1-0.8,0.1-1.4
					c0-0.6,0-2.1,0-2.1l1.1-1.2c0,0,0.6-0.3,1-1.1c0.3-0.8,0.6-0.7,0.7-1.5c0-0.8-0.2-0.6-0.1-1.1c0.1-0.5,0.4-0.8,0.6-1.5
					c0.2-0.7,0.2-0.6,0.8-0.6c0.5,0,0.3-0.4,0.7-0.2c0.4,0.2,0.3,0.6,0.7,0.2c0.4-0.4,0.8-0.3,0.8-0.3s0.5-0.3,1,0
					c0.5,0.3,0.6,0,1-0.6c0.4-0.6,0.5-0.1,1,0.1c0.5,0.3,0.5-0.4,0.9-0.6c0.4-0.2,0.7,0.6,0.7,0.6l0.1,2.6c0.7,0.2,1.2,0.8,1.5,1.7
					c0.3,1,1.2,1.7,1.2,1.7s0.3,1.5,0.6,2.3c0.3,0.8,0.6,1.9,1.1,2.2c0.5,0.2,3.1,1,3.1,1s0.9-0.6,1.5-0.9c0.6-0.4,1.9-0.8,1.9-0.8
					l7.4,0.1l1.2,3.3l6.7-0.1c0,0,0-0.3-0.1-0.7c-0.1-0.4,0.5-1,0.5-1l2.7-3.6l4.2-0.1l-0.1-4.2l4-2.8c0,0,7.1,6.1,7.3,6.3
					c0.3,0.3,0.5,1,0.8,0.9c0.3-0.1,0.6-0.5,0.6-0.5l3.8-0.4l4.7-8.1l1.2-3.3l1.5-1.3l2.8-3.8l-1.1-1.9l-0.1-6.4l-2.5-3l5.9-0.1
					c0,0,0.1-1.5-0.2-1.8c-0.3-0.3-0.1-0.9-0.1-0.9l0-1l5.3-0.1c0,0-0.1,0.4-0.4,1c-0.2,0.5-0.4,1.4-0.4,2.5c0,1.1-0.3,2.8-0.3,2.8
					s-0.3,0.7-0.4,1.6c-0.1,0.9,0.3,1.8,0.6,2.6c0.3,0.9,0.4,2,0.4,2.9c0,0.9,0.4,3.2,0.4,3.2s0.3,0.6,0.1,1
					c-0.2,0.4-0.4,1.3-0.4,1.3s0.8,0.4,1.3,0.7c0.5,0.2,1.3-0.1,1.3-0.1s1.2,2.3,1.7,2.9c0.5,0.7,1.1,1,1.5,1.6c0.3,0.6,1,1.9,1,1.9
					l0.6-0.1l0.2,1c0,0-0.7,0.6-0.7,1.7c0,1.1-0.2,1.3-0.3,2.1c-0.2,0.8,0.2,1.3,0.2,2c0,0.7,0.4,1.7,0.4,1.7l0.4,0l0.3,0.1
					c-0.1,2.7-0.5,6.2-0.5,7.6c0,1.9-1.9,6.1-1.9,6.1s-0.8,1.1-3.8,1.5c-3,0.4-3.4,0.8-3.4,0.8s-0.8,3.1-1.5,5.3
					c-0.8,2.3,4.4,1,6.3,1.8c1.9,0.8,3.4,0.8,4.9,3.4c1.5,2.7,2.3,4.2,4.1,5.7c1.9,1.5,2.6,1.9,2.6,5c0,3.1,3,6.1,3.8,9.9
					C787.8,189.3,790.6,190.1,793.1,190.3"/>
				
					<path fill="#EDEDED" stroke="#FFFFFF" stroke-width="2" stroke-linecap="round" stroke-linejoin="round" stroke-miterlimit="10" d="
					M1207.4,137.8c0,0.5-1.1,1.8-1.1,2.2c-2.6,1.1,0.2,0.7-0.3,3.6c0-0.9,1.7,1.2,1.4,2.9c-0.4,2.1-4.3,10.7-4.3,11.7
					c-0.4,2.7,2.1,7.8,2.9,11.7c2.3,11,0.7,16.1,11.6,10.3c2.1-1.2,4.7-1,5.8-2.9c2.3-4.6,2.2-11.6,0-16.1
					C1219.1,152.5,1207.4,137.8,1207.4,137.8z"/>
				
					<path fill="#EDEDED" stroke="#FFFFFF" stroke-width="2" stroke-linecap="round" stroke-linejoin="round" stroke-miterlimit="10" d="
					M870.1,112.1l-8.1,9.2l-2.8,4.4c0,0,2.6,3.4,4.1,5.3c1.5,1.9,0.8,3.8,3,5.3c2.3,1.5,2.6,3.4,6.4,5c3.8,1.5,25.1,12,25.1,12
					l13.8-1.2L886.4,191l-11.7,0.4l-4.1,3.1l-9,0.4l-1.9,1.9l-5.6,12.6l-5.3,3.8l0.8,39.3l4.4,5.9c0-1.2,0.3-2.5,1.9-4.8h2.9
					c0.7-0.4,6.6-12.6,7.2-13.2c1.1-1.2,4.4-0.6,5.8-1.5c1.9-1.2,3.7-6.6,5.8-7.3c1.5-0.6,3,1,4.3,0c2.5-1.9,8.5-7.6,10.1-10.3
					c0.6-1.1,0.6-5.2,1.5-5.9c2.3-2.1,5.3-0.5,7.2-2.9c0.9-1.2-0.6-4.4,0-5.9c0.8-1.9,6-2.5,7.2-4.4c1.5-2.4,0.3-4.9,1.4-7.3
					c0.3-0.7,4.2-4.1,4.3-4.4c2.6-6.3,2-9.8,4.3-16.1h2.9c2.6-6.5,1.9-12.7,4.3-19c1.7-4.6,6.8-9.2,8.7-13.2c0.7-1.6-0.6-4.3,0-5.9
					l2.9-1.5c0.9-2.6-0.5-6.1,0-8.8l2.9-2.9c0,0,1.3-13.1,1.4-14.6l-1.4-4.4h-2.9c-1.8,0.8-6.5,5.3-8.7,5.9
					c-8.5,2-14.7-0.2-21.7,2.9c-2.1,0.9-4,5.3-7.2,5.9c-4.7,0.8-9.6-2.8-15.9-1.5c-0.3,0-4.9,3.1-5.8,2.9
					C874.9,119.8,872.3,115.8,870.1,112.1z"/>
				
					<path fill="#EDEDED" stroke="#FFFFFF" stroke-width="2" stroke-linecap="round" stroke-linejoin="round" stroke-miterlimit="10" d="
					M331,143.3c2.4,6.3,0,13.8,5.3,16.5c1.9,1-2.5,1-1.4,2.9c1.2,2.2,1.4-1.5,1.4-1.5c1.1,1.8,4.8,8.2,7.2,8.8
					c0.6,0.1,3.8-0.5,4.3,0l0.5,0.5c0,0,2-5.5,4.2-8.5c2.3-3.1,4.5-6.5,4.5-6.5s1.9-3,3.8-3.4c1.9-0.4,1.9-3.8,1.9-3.8l-4.1,0.8
					c0,0,2.3-3.8,1.5-6.1c-0.8-2.3-0.8-1.1-1.9-4.2c-1.1-3.1-3.4-1.5-3.4-4.6c0-3-0.8-5.3-2.6-5.3c-1.9,0-2.3,1.9-5.7,0
					c-3.4-1.9-5.7-1.9-6.8,1.1c-1.1,3.1-0.8,6.5-2.6,7.6c-1.9,1.1-0.7,3.2-3,3.6C332,141.5,331,143.3,331,143.3z"/>
				
					<path fill="#EDEDED" stroke="#FFFFFF" stroke-width="2" stroke-linecap="round" stroke-linejoin="round" stroke-miterlimit="10" d="
					M302.4,102.9l6.2-1.9l4.9-3.4c0,0,12.1,0,14.7,0.8c2.6,0.8,4.1,1.9,6.4,0.8c2.3-1.1,3.8,0,5.7,1.1c1.9,1.1,9-1.1,9-1.1
					s-0.8-5.3-0.8-6.9c0-1.5-1.9-2.3-3.4-3.8c-1.5-1.5-1.1-3.8-1.1-3.8s2.6-8,1.1-8.4c-1.5-0.4-0.4-5.7-0.4-5.7s-1.9-1.9-2.3-3.4
					c-0.4-1.5-4.5,0.8-5.3-2.3c-0.8-3.1,0.4-5.3-1.5-6.1c-1.9-0.8-4.9,0.4-4.9-2.7c0-3.1-0.8-4.2-2.6-5.3c-1.9-1.1-1.9-3.4-5.7-3.1
					c-3.8,0.4-3.4,0.8-6.4,0.4c-3-0.4-4.1-2.3-4.9,0c-0.8,2.3-5.8,3.5-5.8,3.5c-0.3,1.4-0.6,2.9-0.9,4.4h-2.9
					c-0.5,5.8,0.3,10.6-1.4,14.7c-0.5,1-5.7,4.8-5.8,5.9c-0.4,2.6,2.6,7.9,4.9,11.9c0,0,3.7-1.7,6.3-1.7c2.6,0,1.9,0.8,4.5-0.8
					c2.6-1.5,1.1-1.9,3-0.4c1.9,1.5,6.4,0,8.7,0c2.3,0,4.1,0,6.4,0s3.8-1.5,3.8,1.5c0,3.1-1.5,4.2-4.1,4.2c-2.6,0-11.7,0.4-14.7,0.4
					c-3,0-3.8,2.7-3.8,2.7l-8.6,0.6C298.5,96.3,301,100.6,302.4,102.9z"/>
				
					<path fill="#EDEDED" stroke="#FFFFFF" stroke-width="2" stroke-linecap="round" stroke-linejoin="round" stroke-miterlimit="10" d="
					M861.3,49.9c0,0,2.3-1.1,2.3-3.1c0-1.9,1.9-0.4,1.9-2.7c0-2.3,0-1.5,1.1-2.7c1.1-1.1,0.4-1.8,2.3-2.3c4.1-1.1,1.1,1.9,3.4,3.1
					c2.3,1.1,2.8,0.3,5.8-0.1c3-0.4,16.4,4.3,16.4,4.3l1.9,12.2c-0.5,0,5.1-6.2,5.1-6.2l12.3-15.9l32.8-11.8c0,0,25.5-11,30.9-13.4
					c2.4-1,6-26.7,6.4-28.3l-6.4-8c0,0-0.6,1-2.9,0.7c-2.3-0.4-30.9-5.7-30.9-5.7l-0.8-9.9l-4.9-5.7l0.2-4.1l-3.7-2.9l-2.1,0
					c-0.3-1.1-2.9-8.1-2.9-8.8c-0.1-3.2,2.8-3.7,1.4-7.3c-0.8-2.2-5.9-3.9-7.2-5.9c-1.9-2.8-1.1-6-2.9-8.8c-1.1-1.6-4.9-2.7-5.8-4.4
					c-1.5-3.1-0.2-6.6-1.5-10.5l-8.9,1.3l-1.5-4.2l-13-2.4l-17-2.3l-7.2-3.8l-1.1-6.5h-6.8l-0.8-3.1l-26-15.3l-0.6,2.4l-18.6,4.9
					l5.8,9.6c0,0-4.5,2.3-4.9,4.6c-0.4,2.3-2.6,1.9-3.8,4.2c-1.1,2.3-3.4,3.8-3.4,3.8l-9.6,4.6l-9.7-2.6c-0.3,2.4-0.7,5.8-1,6.9
					c13.9,7.8,8.3,11,16.6,23c1.3,1.8,6.5,4.2,7.2,5.9c2.5,5.4,0.1,11.3,2.9,16.1c2.6,4.6,11.3,7.2,13,14.6c0.5,2.4-0.8,4.4-1.4,7.3
					c0,0,0.1,14.8,2.9,13.2c0.6,6.1-0.6,11.1,1.4,16.1c2.6,6.5,12.2,7.6,15.9,13.2c3.3,4.9,1.9,12.8,4.3,17.6c0,0,5.4,2.4,5.8,2.9
					l7.2,11.7C862,47.2,861.9,48,861.3,49.9z"/>
				
					<path fill="#EDEDED" stroke="#FFFFFF" stroke-width="2" stroke-linecap="round" stroke-linejoin="round" stroke-miterlimit="10" d="
					M731.6,278.7c0,0.4-0.1,0.7-0.2,1.2c-0.9-0.2-1.6-0.1-2,0.2c0,0-1.6,1.3-1.3,3.2c0.4,2.4,5,2.9,5,2.9s1.5-3.1,3.8-0.4
					c2.3,2.7,0.6,5.5,3.6,3.2c3-2.3,1.5-6.1,3.4-5c1.9,1.1,6.4,1.5,6.4,1.5s0.8-0.4,0.4-3.1c-0.4-2.7,0.4-5.7,0.4-5.7l-2.6-5.3
					c0,0-3.4,1.1-4.9,2.7c-1.5,1.5-3.4,1.1-5.3-0.4c-1.9-1.5-4.8-3.3-4.8-3.3s-0.6,2.6-0.9,4.7c-0.1,0.6-0.2,1.4-0.2,1.8
					C732.4,277.7,732.1,278.3,731.6,278.7z"/>
				
					<path fill="#EDEDED" stroke="#FFFFFF" stroke-width="2" stroke-linecap="round" stroke-linejoin="round" stroke-miterlimit="10" d="
					M988.3-52.6l-4.1-2.2l0.8-3.4l-2.2-0.3c1.1-1.7,1.5-2.3,3.2-4.4C986.3-59,986.9-56,988.3-52.6z M961.4,50.7
					c0.9-0.2,1.9-0.4,2.8-0.8c0.6-0.2,3.3-4.1,4.3-4.4c1.5-0.5,2.9,2.2,5.8,0c2.3-1.8,1.5-7.3,4.3-8.8c1.5-0.9,6.8,0,8.7,0
					c5.5-10.3,2.9-7.5,14.5-11.7c-2.6-1.7,0.5-13.4,1.5-16.1c0.3,0,4.2,0.2,4.3,0c2.2-3.9,0.9-7.7,2.9-11.7
					c2.1-4.4,10.2-10,8.7-17.6c-0.3-1.4-3.5-0.6-4.3-1.5c-1.3-1.3-2.6-10.1-4.3-11.7c-3.1-2.9-7.7-2-11.6-4.4
					c-4.2-2.7-7.8-7.4-10.1-13c0,0-2.7,1.5-3.2,3c-0.5,1.5-4.5-1.6-4.2,0.1c0.3,1.7,2.1,3.1,2.1,3.1s-0.6,0.8-2.7,2.2
					c-2.1,1.4-1.7,3.4,0.1,2.8c0.9-0.4,1.3,4.2-1.1,7.7c-2.1,2.9-2.1,7.2-2.1,7.2l6.1,8c-0.4,1.5-4.1,27.2-6.4,28.3
					c-5.4,2.4-30.5,13.3-30.5,13.3l-0.4,3.2l9.7,17.5L961.4,50.7z"/>
				
					<path fill="#EDEDED" stroke="#FFFFFF" stroke-width="2" stroke-linecap="round" stroke-linejoin="round" stroke-miterlimit="10" d="
					M588.6,79.9l-5.9,2.1c0,0-1.9,4.2-4.9,4.2c-3,0-6.9,1-11-0.5c-4.1-1.5-7.5-0.2-9.7-0.2c-2.3,0-5.7,1.8-6.1,3.3
					c-0.4,1.5-3.8,0.8-9,0.4c-5.3-0.4-3.4-0.8-4.9-2.7c-1.5-1.9-4.5-0.8-7.2,0.8c-2.6,1.5-6,0.8-6,0.8s-3-5.7-4.9-5.7
					c-1.9,0-1.9-2.3-4.5-2.3c-2.6,0-4.9,0-7.5,1.1c-2.6,1.1-9.4,4.6-9.4,4.6s-0.8,3.1-0.8,5.3c0,2.3-3.8,5.7-3.8,5.7l-3.4,7.6
					l-5.7-2.3c0,0,1.1-1.9-1.1-3.4c-2.3-1.5-4.1-0.8-4.1-0.8l-3.8,5l-2.6-9.2c0,0,1.5-2.3,1.1-4.2c-0.4-1.9-3.8-0.8-3.8-0.8
					l-4.1-8.8l0.8-3.4l-6.8-4.2l-3.4-4.6l1.5-3.4l1.9,0.4l1.1-1.9c0,0,4.5,0.4,6-1.1c1.5-1.5,6.8-1.5,9.8-1.9
					c3-0.4,12.1-4.6,12.1-4.6h5.7c0,0,0.8-0.4,1.1-2.7c0.4-2.3,0.4-5,0.4-5l3-1.9l-1.1-27.9l13.3-2.6l5.2-9.3l50.5-39.3L589-20.1
					l1.1-2.3l6.8-5l5.3,24c0,0,6,7.6,3.8,10.3c-2.3,2.7-2.3,5.7-3,9.5s0,39.7,0,39.7l-14.2,12.3v8.6c0,0-0.6-0.6-0.7,0.5
					C587.9,79,588.6,79.9,588.6,79.9z"/>
				
					<path fill="#EDEDED" stroke="#FFFFFF" stroke-width="2" stroke-linecap="round" stroke-linejoin="round" stroke-miterlimit="10" d="
					M611.5,596.7c0,0,5.6-4.7,6.3-6.2c0.8-1.5,1.5-1.5,3.8-1.5c2.3,0-0.5,2,0.6,4.3c1.1,2.3,1.5,2.3,4.9,2.3c3.4,0,3.4,1.5,5.3,0
					c1.9-1.5,3-1.5,4.2-3.8c1.1-2.3,5.7-1.9,5.7-1.9l0.5-37l0.6-43.1h10.2l0.4-40.1h7.2l21.1-1.9c0,0,3,1.5,3.4-1.5
					c0.4-3.1,4.9,2.7,5.3-0.8c0.4-3.4,4.1-2.7,4.1-2.7s-1.5-0.4-2.6-2.3c-1.1-1.9-3.8-1.1-3.8-1.1l-12.3,1.4l-20.5,3.6
					c0,0-4.9-2.7-7.2-1.9c-2.3,0.8-0.8-1.5-3.8,0c-3,1.5-3.8-3.1-7.2-1.9c-3.4,1.1-2.3-1.9-4.5-1.9c-2.3,0-3.8-3.8-3.8-3.8
					l-41.8-1.1c0,0-2.9-2.8-5.2-2.8c-2.3,0-2.1,4.1-5.3,3c-3.4-1.1-10.7,0.7-10.7,0.7c0.4,6.8,0.9,13,1.5,14.3h2.9l8.7,10.3
					c2.2,5.7-0.5,10.9,1.4,16.1c1.1,3.2,6.4,5.9,7.2,8.8c0.7,2.5-1,4.9,0,7.3c0.6,1.6,5.3,3.6,5.8,5.9c1.1,5.3-2,12.9-1.4,17.6
					c0.2,2.2,4.2,10.6,4.3,11.7c1.8,14.7-1.8,19.4,2.9,33.7c0.3,1.1,4.7,8.3,5.8,8.8c0.9,0.3,3.8-0.7,4.3,0c1.8,2.2,0.2,4.8,1.4,7.3
					L611.5,596.7z M595.3,485c2.2,1.1-1.4,2.9-1.4,2.9C594.2,486.9,593,483.8,595.3,485z"/>
				
					<path fill="#EDEDED" stroke="#FFFFFF" stroke-width="2" stroke-linecap="round" stroke-linejoin="round" stroke-miterlimit="10" d="
					M784.9,417.6c0.3,1,0.1-0.1,0.4,1.2c0.7,3.1,3.9,3.4,5.8,4.2c1.9,0.8,3.7,3.8,2.6,7.6c-1.1,3.8,0.8,1.9,0.4,5.3
					c-0.4,3.4-3.8,3.1-5.7,2.3c-1.9-0.8-0.7,7.3,0.8,8.8c1.5,1.5-0.8,4.6-2.6,5c-1.9,0.4-1.5-4.2-1.5-4.2s-0.7,0-3-1.5
					c-2.3-1.5-4.1-3.8-5.7-5.3c-1.5-1.5-0.8-3.1,0.4-5c1.1-1.9,0.8-5,0.8-7.2c0-2.3-1.5-4.2-1.5-4.2s-4.5,1.5-6.4,2.3
					c-1.9,0.8-0.8-1.5-1.5-3.8c-0.8-2.3-4.1-3.4-4.1-3.4l-21.7,7.1c0,0,4.1,3.8,3,5.7l-1.1,6.9c0,0,2.9,0.1,4.4,0.5
					c1.5,0.4,3.4,1.1,4.9,2.3c1.5,1.1,3.4,2.7,5.7,3.4c2.3,0.8,4.1,1.5,5.6,3.1c1.5,1.5,1.3,4.8,1.3,4.8s-2.3,1.9-1.9,4.6
					c0.4,2.7-0.8,5.3,0.4,7.6c1.1,2.3,3.4,5,3.4,5s-1.3,2.1-2.4,3.6c-1.1,1.5-3.2,2.5-1.7,4.4c1.5,1.9,2.6,2.3,1.5,3.8
					c-2.3,3.1,0,2.7-1.1,6.1c-1.1,3.4,1.5,5.1,1,7.4c-1.1,5.3-1.7,1.4-1.4,3.7c0.4,2.3,4.1-0.4,2.6,1.9c-1.5,2.3-4.7,7-4.7,7
					l-6.8,8.8c0,0,1.1,7.2-0.4,9.9c-1.5,2.7-0.8,6.5,0.4,10.7c1.1,4.2,0.4,7.3-0.4,9.5c-0.8,2.3-1.9,3.8-0.4,5.7
					c1.5,1.9,1.5,3.4,1.5,3.4s4.1,2.3,4.1,4.6c0,2.3-1.1,6.5-1.1,6.5l6,0.2c0.1-2,0-2.2,0-2.4c-0.2-0.8-3.7-2.9-4.3-4.4
					c4.5-3.6,10.3-7.9,15.9-10.3c3.9-1.6,7.2-0.4,10.1-2.9c6.9-5.9-1.1-39.9-1.4-48.4H782c-1.1-5.1-0.5-7.9,0-10.2v-2.9
					c1-1,3.2-0.5,4.3-1.5c1.1-1,1.7-6.6,2.9-7.3h2.9c0.4-0.7,2.9-11.7,2.9-11.7c2.3-1.9,7.6-0.4,10.1-1.5c2.2-1,3.9-4.9,5.8-5.9
					c2.8-1.5,5.5,0.1,8.7-1.5c3.8-1.9,16.8-18,17.4-23.4c0.3-2.9-1.6-6-1.4-10.3c0.2-6.1,2.9-13,2.9-16.1c-0.1-3-2.8-16.1-2.9-19
					c-0.1-2.3,0.4-4.3,0.8-6.3c-1-0.1-4.4,0-6.3,1.5c-1.9,1.5-4.5,1.5-7.2,1.9c-2.6,0.4-2.6,2.7-4.9,3.1c-2.3,0.4-1.5,1.1-3.4,0
					c-1.9-1.1-2.3,1.5-4.1,2.3c-2.3,1-4.5,1.5-6.8,1.5c-2.3,0-3.8,0.8-6.8,1.5c-3,0.8-2.3-3.4-4.5-4.2c-2.2-0.8-1.1-0.4-3.8,1.1
					c-2,1.2-5.8,1.7-7.7,1.8c-0.2,2.4-0.4,3.9-0.3,5.9l2.9,2.9C784.6,406.8,783,410,784.9,417.6z"/>
				
					<path fill="#EDEDED" stroke="#FFFFFF" stroke-width="2" stroke-linecap="round" stroke-linejoin="round" stroke-miterlimit="10" d="
					M994.7,490.9c-6.2,0.9-1.8,6.9,1.5,8.8C995.7,499.5,1001.3,489.9,994.7,490.9z"/>
				
					<path fill="#EDEDED" stroke="#FFFFFF" stroke-width="2" stroke-linecap="round" stroke-linejoin="round" stroke-miterlimit="10" d="
					M299-2.2c1.1,3.7,4.5,5.1,5.5,8.1c0.6,1.9-1.3,13.3-1.4,13.2c3.4,10.8,4.5,20.4,2.4,32.3c0,0,5-1.2,5.8-3.5
					c0.8-2.3,1.9-0.4,4.9,0c3,0.4,2.6,0,6.4-0.4c3.8-0.4,3.8,1.9,5.7,3.1c1.9,1.1,2.6,2.3,2.6,5.3c0,3.1,3,1.9,4.9,2.7
					c1.9,0.8,0.8,3.1,1.5,6.1c0.8,3.1,4.9,0.8,5.3,2.3c0.4,1.5,2.3,3.4,2.3,3.4s1.9,0.8,3.8-0.8c1.9-1.5,0-3.4,1.1-6.5
					c1.1-3.1,0-3.8,1.5-3.8c1.5,0,3.4,0.4,6.8,1.5c3.4,1.1,4.9,0,4.9,0s4.5,0.4,3-1.9c-1.5-2.3-1.1-4.2,0.8-4.6
					c1.9-0.4,3.4,2.3,3.4,2.3l34.7-0.4c0,0,0.8-1.5,2.3-5.7c1.5-4.2-3-3.4-3-3.4l-6-96.9l17-0.9L383.4-75l0.2,17.6l-35.4,0.8
					L347.5-31c0,0-11.3-1.1-11.3,6.9c0,6.5,0.8,18.7,0.8,18.7l-35.4,1.2C301.5-4.3,301.7-6.4,299-2.2z"/>
				
					<path fill="#EDEDED" stroke="#FFFFFF" stroke-width="2" stroke-linecap="round" stroke-linejoin="round" stroke-miterlimit="10" d="
					M387.4,135.3c0,0,0.8-2.3,3.8-3.8c3-1.5,2.6,1.5,2.6,1.5l1.5-5.7l2.3-1.5c0,0,1.5,3.8,4.2,3.1c2.6-0.8,2.3-4.2,2.3-4.2l1.9-3.1
					c0,0-1.5-7.3,1.1-8.4c2.6-1.1,1.9-3.4,1.1-5c-0.8-1.5,0.4-4.2,0.4-4.2s1.5-3.4,3.4-4.2c1.9-0.8,2.6,0.8,2.6,0.8s0.8-5.3,1.9-7.6
					c1.1-2.3,1.5-4.2,3.8-5.3c2.3-1.1,5.7-2.7,7.2-2.3c1.5,0.4,4.1-2.7,4.1-4.6c0-1.9,0.4-3.4,3-5.7c2.6-2.3,4.9-1.5,4.9-3.4
					c0-1.9,0.8-6.5,3.8-6.5c3,0,4.9-0.8,4.9-3.1c0-2.3,2.3-3.8,3.4-1.9c1.1,1.9,2.3-1.1,3.8,0.4c1.5,1.5,2.3,3.8,2.3,3.8l1.9,0.4
					l1.1-1.9c0,0,4.5,0.4,6-1.1c1.5-1.5,6.8-1.5,9.8-1.9c3-0.4,12.1-4.6,12.1-4.6h5.7c0,0,0.8-0.4,1.1-2.7c0.4-2.3,0.4-5,0.4-5
					l3-1.9l-1.1-27.9c0,0-10.1,3.5-9.7,2c0.4-1.5,1.1-2.8-0.1-5.5c-1.1-2.7-1.1-1.1-0.4-5.3c0.8-4.2-1.1-3.8-3-5.3
					c-1.9-1.5-4.9-1.5-7.2-3.4c-2.3-1.9-2.6-5-2.6-5L415-50.7l-17,0.9l6,96.9c0,0,4.5-0.8,3,3.4c-1.5,4.2-2.3,5.7-2.3,5.7l-34.7,0.4
					c0,0-1.5-2.7-3.4-2.3c-1.9,0.4-2.3,2.3-0.8,4.6c1.5,2.3-3,1.9-3,1.9s-1.5,1.1-4.9,0c-3.4-1.1-5.3-1.5-6.8-1.5
					c-1.5,0-0.4,0.8-1.5,3.8c-1.1,3.1,0.8,5-1.1,6.5c-1.9,1.5-3.8,0.8-3.8,0.8s-1.1,5.3,0.4,5.7c1.5,0.4-1.1,8.4-1.1,8.4
					s-0.4,2.3,1.1,3.8c1.5,1.5,3.4,2.3,3.4,3.8c0,1.5,0.8,6.9,0.8,6.9l0.4,4.2h2.3c0,0,1.1-1.9,3.4-1.5c2.3,0.4,2.3,2.7,3.8,2.3
					c1.5-0.4,2.6-3.4,2.6-3.4s1.5,2.7,4.9,1.5c3.4-1.1,3.8,0.8,3.8,0.8s1.1,2.7,1.5,5.3c0.4,2.7-3,5.3-1.5,6.1c1.5,0.8,3,3.4,2.6,5
					c-0.4,1.5,3.8,0.8,3.8,0.8l-7.2,4.2c0,0,0.4,1.9,2.3,1.9c1.9,0,1.9-2.3,3.4,0c1.5,2.3,3.8-0.4,4.9,2.3c1.1,2.7,2.3,5.3,4.1,5.3
					C386.3,133.7,387.4,135.3,387.4,135.3z"/>
				
					<path fill="#EDEDED" stroke="#FFFFFF" stroke-width="2" stroke-linecap="round" stroke-linejoin="round" stroke-miterlimit="10" d="
					M784.9,417.6c-2.2-0.6-2.3-2.1-5.8-1.5c-0.5-2.3,2-1.1,1.5-4.4l-2.9-2.9c2.6-1.4-1.5-11.7-1.5-11.7s1-4.1,1.5-1.5l-1.5-1.5
					l-1.4-4.4l2.9-4.4c1.4-7.2-0.6-13.1-1.5-19c-2.5,0-1.7-2.3,0-1.5l-7.6-3.1c0,0,1.1,3.8,2.6,5c1.5,1.1-0.4,5.7,1.5,7.3
					c1.9,1.5-1.3,3.6-2,5.5c-0.8,1.9-4.1,1.9-3.4,4.2c0.8,2.3,0.9,4.4,0.5,7.1c-0.4,2.7,2.3-0.4,3,2.7c0.7,3.1-3.9,4.4-5.8,5.9
					c-1.9,1.5-1.9,5.7-1.1,8c0.7,2.3-1.9,4.2-1.5,6.1c0.4,1.9,1.5,6.1,1.5,6.1s3.4,1.1,4.1,3.4c0.7,2.3-0.4,4.6,1.5,3.8
					c1.9-0.8,6.4-2.3,6.4-2.3s1.5,1.9,1.5,4.2c0,2.3,0.4,5.3-0.8,7.2c-1.1,1.9-1.9,3.4-0.4,5c1.5,1.5,3.4,3.8,5.7,5.3
					c2.3,1.5,3,1.5,3,1.5s-0.4,4.6,1.5,4.2c1.9-0.4,4.1-3.4,2.6-5c-1.5-1.5-2.6-9.5-0.8-8.8c1.9,0.8,5.3,1.1,5.7-2.3
					c0.4-3.4-1.5-1.5-0.4-5.3c1.1-3.8-0.7-6.9-2.6-7.6c-1.9-0.8-5-1.1-5.8-4.2C785,417.6,785.2,418.5,784.9,417.6z"/>
				
					<path fill="#EDEDED" stroke="#FFFFFF" stroke-width="2" stroke-linecap="round" stroke-linejoin="round" stroke-miterlimit="10" d="
					M916.5,400c-1.3,5.3-3.4,12.1-4.3,19c-2.1,0.5-6.4,0.1-7.2,1.5c0,0.5,0,1,0,1.5c0.4-1.5,2.5,3.3,1.4,4.4h-2.9
					c-0.5,1.3,0.1,3.6-1.5,7.3c-3.8-1.3,0-2.6-4.3-1.5c0,1.1,0.6,6.7,0,7.3c-0.9,0.8-1.9-2.1-4.3-1.5c-0.6,0.1-2.3,4.2-2.9,4.4
					c-3.7,1.2-5.5-1.9-7.2-1.5v2.9c-6.3,2.9-16,7.5-17.4,14.7c-2.2,10.7,8.4,21.5,5.8,32.2c-0.3,1.1-7.2,5.9-7.2,5.9
					c-1,1.8,0.7,5.3,0,7.3c-0.3,0.8-4,2.1-4.3,2.9c-6.1,13.6,1.1,21.2,4.3,30.8c3.8,11.3,4.9,15.4,14.5,20.5c0,0,5.3,1.3,2.9,0
					c5-2,11.8-3.2,14.5-7.3c3.4-5.3,2.3-12.3,4.3-19.1c2.8-9.6,10.2-22.8,11.6-33.7c0.4-3.4-1.7-7.6-1.4-8.8
					c0.1-0.8,6.8-10.8,7.2-11.7c0.9-2.5,2.7-7.6,2.9-8.8c0.2-2-1.4-5.9-1.4-5.9c0.3-0.3,2.9-2.9,2.9-2.9c0.9-3.7-1.2-6.1,2.9-7.3
					v-2.9c-0.5-2.4-3.5-8.5-4.3-11.7c0.9,0.5,3.4,0,4.3,0c-0.3,0,0,3.9,0,4.4h2.9c0.4-2.1-1.3-4.4,1.5-4.4c-1-8.4-1.1-24.3-4.3-30.8
					c-1.4-2.8-2.7,0-4.3,0C919.8,405.1,917.9,402.1,916.5,400z"/>
				
					<path fill="#EDEDED" stroke="#FFFFFF" stroke-width="2" stroke-linecap="round" stroke-linejoin="round" stroke-miterlimit="10" d="
					M565.4-154.4l-2.4,5.3c0,0,1.5,4.2-1.5,5.7c-3,1.5-4.1,4.6-6.4,4.6c-2.3,0-4.1,1.9-4.1,1.9s-0.4,5.3,0.4,8.4
					c0.7,3.1-1.5,2.7-1.9,5c-0.4,2.3-4.1,3.8-4.1,3.8s-1.9,0-3,1.5c-1.1,1.5,1.5,4.2,1.5,4.2l-1.1,19.5l3.4,4.2c0,0-4.5,2.7-3,3.1
					c1.5,0.4,0.8,3.8,0.8,3.8s0.4,8-0.4,12.2c-0.8,4.2-6,5.3-6,5.3s1.5,1.9,3,3.8c1.5,1.9,1.9,5.3,3.8,7.3c1.9,1.9,2.3,3.1,2.3,5.7
					c0,2.7,2.3,6.5,4.1,6.5c1.9,0,4.1,0.4,6.4,1.1c2.3,0.8,2.3,3.8,4.5,3.8c2.3,0,4.9,4.2,4.9,4.2L589-20.1l1.1-2.3l6.8-5l9.4-6.9
					l81,49.2V6.3h9l-0.1-22.5l-0.6-85.9c0,0-0.4-1.5-1.9-3.1c-1.5-1.5-1.1-2.3-1.5-6.1c-0.4-3.8,0-5,1.9-7.3
					c1.9-2.3-0.8-6.5-1.9-8.8c-1.1-2.3-0.8-6.1-0.8-6.1c-2.9-1.9-6.2-4.2-6.5-4.2c-3-0.8-7.4,1.2-10.1,0l-1.4-5.9
					c-3.4-0.9-13.8-4.4-14.5-4.4c-5.7,0.2-13.1,9.3-15.9,13.2c0.6,1.4,4,3.5,4.3,4.4c0.5,1.6-0.7,4.3,0,5.9
					c-3.2,3.2-6.7,5.8-10.1,8.8c-0.9-0.4-3.9-4.2-4.3-4.4c-8.4-3.6-17.6-2.7-24.6-7.3c-5-3.3-7.6-11.8-13-14.6
					c-6.6-3.4-11.3,0.3-21.7-2.9v-2.9c-2.4-1.4-4.9,0.2-7.2-1.5C565.5-150,565.8-152.9,565.4-154.4z"/>
				
					<path fill="#EDEDED" stroke="#FFFFFF" stroke-width="2" stroke-linecap="round" stroke-linejoin="round" stroke-miterlimit="10" d="
					M348.5,170.5c1.2,1.4,1.1,3.6,2.4,5.4c2.8,3.8,8,4.3,11.6,7.3c6,5.1,12.1,19.4,25.5,17.7c0,0-1.3-2.8-1.3-4.7s-2.3-3.2,0-4.7
					c2.3-1.5,1.5-3.1,2.3-5.3c0.8-2.3,1.5-3.1-0.4-3.1c-1.9,0-2.6-3.1-3.8-5.3c-1.1-2.3-1.9-5.3-3.4-5.7c-1.5-0.4-6-2.3-6-2.3
					s2.3-5,4.5-6.9c2.3-1.9-0.8-7.3-0.8-7.3s-1.1-3.4-3.4-0.4c-2.3,3.1-3.8,5.7-3.8,5.7l-2.3-2.3c0,0,3-4.2,1.9-7.3
					c-1.1-3.1-2.6-6.1-2.6-6.1s0,2.3-1.5,3.1c-1.5,0.8-4.5,0-4.5,0s0,3.4-1.9,3.8c-1.9,0.4-3.8,3.4-3.8,3.4s-2.3,3.4-4.5,6.5
					C350.4,165,348.5,170.5,348.5,170.5z"/>
				
					<path fill="#EDEDED" stroke="#FFFFFF" stroke-width="2" stroke-linecap="round" stroke-linejoin="round" stroke-miterlimit="10" d="
					M719.6,614.2c0.8-0.6,1.1-1.2,1.9-1.9c1.1-0.9,1.8-1.3,3-1.9c1.4-0.7,2.9,0.1,3.8-1.1c1-1.5,0-2.9-0.8-4.6
					c-0.8-1.6-1.9-2.1-3-3.4c-0.7-0.9-1.9-2.3-1.9-2.3s-4.2,2.3-6,4.2c-1.9,1.9-2.4,1.6-3.5,1.6c-1.1,0-3,3.8-1.9,3.8
					c1.1,0,0.9,1.1,2,3.3c1.1,2.3,0,3.8,3,3.8C719.2,615.7,718.4,615,719.6,614.2z"/>
				
					<path fill="#EDEDED" stroke="#FFFFFF" stroke-width="2" stroke-linecap="round" stroke-linejoin="round" stroke-miterlimit="10" d="
					M387.9,200.9c0.2,0,0.6-0.1,0.6-0.1c4.3-0.7,9.9-9.4,13-10.3c10.1-2.9,14.8,2.3,21.5,4l1.4,0.3c0,0,1.1-5.2,1.8-7.1
					c0.8-1.9-0.4-5.1-0.4-5.1l-0.8-7.2l1.9-6.5c0,0,2.3-4.2,3-7.3c0.8-3,1.9-4.6,2.6-7.6c0.7-3.1,2.6-5.3,2.6-5.3s0.8-4.6,0.8-8
					c0-3.4-2.6-4.6-1.9-6.5c0.7-1.9-0.8-6.1-0.8-6.1s-4.9,0.8-6.8,0.4c-1.9-0.4-1.5-4.6-1.5-4.6l-3.8-0.4l-3,2.3l-3.8-0.4l-1.1-3.4
					l-7.5-0.4l-1.9,3.1c0,0,0.4,3.4-2.3,4.2c-2.6,0.8-4.2-3.1-4.2-3.1l-2.3,1.5l-1.5,5.7c0,0,0.4-3.1-2.6-1.5
					c-3,1.5-3.8,3.8-3.8,3.8s-4.1,2.7-2.6,5c1.5,2.3,3.8,3.1,2.3,6.1c-1.5,3.1-6.4,2.3-6,3.8c0.4,1.5,1.1,3.1,1.1,3.1l-3,2.3
					c0,0,3,5.3,0.8,7.3c-2.3,1.9-4.5,6.9-4.5,6.9s4.5,1.9,6,2.3c1.5,0.4,2.3,3.4,3.4,5.7c1.1,2.3,1.9,5.3,3.8,5.3
					c1.9,0,1.1,0.8,0.4,3.1c-0.8,2.3,0,3.8-2.3,5.3c-2.3,1.5,0,2.8,0,4.7S387.9,200.9,387.9,200.9z"/>
				
					<path fill="#EDEDED" stroke="#FFFFFF" stroke-width="2" stroke-linecap="round" stroke-linejoin="round" stroke-miterlimit="10" d="
					M1158.1-134.6l4.8-3.8l-0.7-3.1l7.6-4.5l4.1,1.4l4.1,3.5l4.8-1.7l3.4,5.2l3.4-1.7l-0.3,2.8l4.5-1.7l3.1,3.1l2.4-1.4l2.1-0.3h0.4
					v1.6l-1.5,5l0.8,2.7l-1.9,2.3l1.5,4.2l4.5,1.9l3.8,2.7l4.9,0.8l3.8,3.1l2.9,3.1l-5.4,3.9l-3.6,6.4l1.1,5.3l5.5,2.2l1.2,3.8
					l5,2.2l5,2.2l6.4,3.2l5.6,0.3l4,3l3.1,3.5l4.2,0.2l4,4.5l7.5-0.1l8.2,4.2l5.1,0.3l4.6,1.2l4.2-0.7l2-2.3l0.2-2.8l-2.7-3l1.9-2.7
					l0.1-6l3.2-1.6l3.4,0.4l3,5l0.8,2.3l3.4,3.8l3.6-0.9l4.7-0.9l5.6,1.9l8.4-0.5l2.8-1.4v-4.2l-1.4-7.2l4.6-0.9l5.4-2.6l3.4-2.5
					l4.6-0.4l3.3,0.9l3.4-3.1l3.7,0.6l5.3,1.7l-0.4,5.3l2.3,2.3l3.4-0.8l2.2,0.7l3.6,1.6l2.9,0.9l1.8,3.3l0.8,3.3l-0.1,6l-3.2,5.8
					l-3.5-0.9l-5.7,0.8l-2.8,6.4v2.9l-4,3.7l-2.8,4l-4,1.7l-1.6,1.7l2.4,2v2.6l-3.6,4.9l-1.7,6.6l-5.7-3.8v9.5l1.5,3.8l0.4,4.6
					l-0.4,3.1l-1.4,2.1l-2.4,2.3l-2.4-2.2l-2.8,1.5l-0.8-4.9v-5.4l-4.2-7.2l-1.1,5h-4.5l-0.8-3.4l1.5-7.3l2.6-4.6c0,0,0.3-3.6,2.3-5
					l-1.5-4.2l5.3-3.8h-6.8l-5.3,1.5l-5.3,0.4h-6.4h-3l-0.8-7.6l1.1-6.5l-3.4-1.5l-4.9,1.1l-4.9-4.6l-3,3.8l4.2,5.3l-1.5,4.2
					l-4.5,1.9l-3.8,2.3l1.2,7.2l1,2.7l5.8,2.7l1.9,3.6l-1.4,7.2l2.9,3.6v6.7l-1.9,3.6l1.5,7.8l-0.6,0.2c0,0-5.4-5.5-8.7-4.4v2.9
					c-4.6,2.6-5.4,1.8-7.2,7.3c0,0-3.7,0.3-1.4,1.5c1.1,0.6,2.5,2,1.4,4.4c-1.2,2.7-10.1,9.4-13,10.3c-1.5,0.4-4.5-0.8-5.8,0
					c-0.5,0.3,1.2,2.5,1.4,2.9c-1,1-3.2,0.5-4.3,1.5c-2.9,2.5-4.6,10.1-7.2,13.2c-1.5,1.7-6.5,2-7.2,4.4V47
					c-2.9,1.7-6.3-0.5-8.7,1.5c-2.6,2.1-0.9,5.8-2.9,8.8c-1.8,2.5-4.6,1-7.2,2.9c-1.7,1.1-2,5.2-4.3,5.9c-1.6,0.4-4.4-0.8-5.8,0
					c-1.6,0.8-1,3.4-2.9,4.4c0.2,1.3,2.9,7.3,2.9,7.3c-3.8,1.9-3.2,18.6-2.9,20.5c0,0.2,2.9,6.7,2.9,7.3c-0.3,2.1-5.1,8.2-5.8,10.3
					c0,0,0,4.2,0,4.4c0,0,0.8,10.2,1.4,14.7c-1.4,0.9-2.8-0.6-4.3,0c-4.6,1.7-3.3,7.7-5.8,11.7c-1,1.6-2.8,0.3-4.3,1.5
					c-1.1,0.8-3.7,7.6-4.3,8.8c-0.5,0-4-0.3-4.3,0c-0.8-1.4-0.5-2.8-1.5-4.4c-0.8-1.3-1.7-2.3-2.9-4.4c-0.8-1.5-5.6-6.3-5.8-7.3
					c-0.8-3.8,2.8-3,1.4-7.3l-2.9-1.5c-2.3-3.5-1.2-6.1-2.9-10.3c-1.8-4.4-7-9.3-8.7-13.2c-3.3-7.7-2-16.3-4.3-24.9
					c-1.6-6-7.5-13-8.7-19.1c-0.6-2.8,0.5-6,0-8.8c-0.8-4-4.7-20.6-4.3-19c-0.3-3.5-2.7-7.1,0-8.8c-0.4-1.3-4.3-8.2-4.3-8.8
					c-0.5-5.3,4.1-9.8,4.3-13.2c0.3-4.6-2.5-4.1-2.9-5.9c-0.5-1.9,1.5-5.9,1.5-5.9c-0.2-0.1-2.9-1.5-2.9-1.5c-0.1-1.7,1.7-4,1.4-7.3
					l-4.3,2.9c-1,3.2,0.9,7,0,10.2c-1.5,5.4-9.6,6.3-14.5,8.8c-2.1-2.1-5.3-5.1-7.2-7.3c-2.4-2.8-3.6-5.6-5.8-8.8
					c-3,1.5-0.3-4.3,0-4.4c3.4-1.7,5.8,0.3,8.7-1.5c3.3-2.2,4.9-8.3,7.2-11.7c-9.3,7.4-9.8,6-21.7,2.9c-0.6-2.7,0-6.8-1.5-8.8
					c0,0-1.1-0.3-1.8-0.6l3.3-3.7l1.9-5.3l5.7-1.5l5.7-2.7l-1.1-5.7l-4.5-4.6l-0.8-3.1l3.4-4.2l-5.6-6.5l3.4-3.4l3.8-3.1l1.1-3.4
					l3.8,2.7l3.8-4.6l4-3.9l3-4.2l2.3-5l6-3.1l3-3.4l1.5-4.2l4.5-3.4l0.8-5l0.8-6.1l3.8-4.2l2.3-4.2v-5l-2.9-2.9L1158.1-134.6z"/>
				
					<path fill="#EDEDED" stroke="#FFFFFF" stroke-width="2" stroke-linecap="round" stroke-linejoin="round" stroke-miterlimit="10" d="
					M303.1,104.1v2.9c1.4,1.7,5.6,1.3,7.2,2.9c1.4,1.3,0.2,5.8,1.4,7.3h2.9c2.7,1,1-2.1,2.1,1.3c0,0,2.4-1.3,1.6-3.9
					c0,0,1.9,0,3.8,0c1.9,0,4.1-3.1,4.1-3.1s2.3-3.1,0.4-4.6c-1.9-1.5-0.8-3.1,1.1-3.1c1.9,0,0.4-5.7,0.4-5.7
					c-2.6-0.8-14.7-0.8-14.7-0.8l-4.9,3.4l-6.2,1.8L303.1,104.1z"/>
				
					<path fill="#EDEDED" stroke="#FFFFFF" stroke-width="2" stroke-linecap="round" stroke-linejoin="round" stroke-miterlimit="10" d="
					M331.1,143c0,0,0.9-1.5,3.2-1.9c2.3-0.4,1.1-2.4,3-3.6c1.9-1.1,1.5-4.6,2.6-7.6c1.1-3.1,3.4-3.1,6.8-1.1c3.4,1.9,3.8,0,5.7,0
					c1.9,0,2.6,2.3,2.6,5.3c0,3.1,2.3,1.5,3.4,4.6c1.1,3.1,1.1,1.9,1.9,4.2c0.8,2.3-1.5,6.1-1.5,6.1l4.1-0.8c0,0,3,0.8,4.5,0
					c1.5-0.8,1.5-3.1,1.5-3.1s1.5,3.1,2.6,6.1c1.1,3.1-1.9,7.3-1.9,7.3l2.3,2.3c0,0,1.5-2.7,3.8-5.7c2.3-3.1,3.4,0.4,3.4,0.4l3-2.3
					c0,0-0.8-1.5-1.1-3.1c-0.4-1.5,4.5-0.8,6-3.8c1.5-3.1-0.8-3.8-2.3-6.1c-1.5-2.3,2.6-5,2.6-5s-1.1-1.5-3-1.5
					c-1.9,0-3-2.7-4.1-5.3c-1.1-2.7-3.4,0-4.9-2.3c-1.5-2.3-1.5,0-3.4,0c-1.9,0-2.3-1.9-2.3-1.9l7.2-4.2c0,0-4.1,0.8-3.8-0.8
					c0.4-1.5-1.1-4.2-2.6-5c-1.5-0.8,1.9-3.4,1.5-6.1c-0.4-2.7-1.5-5.3-1.5-5.3s-0.4-1.9-3.8-0.8c-3.4,1.1-4.9-1.5-4.9-1.5
					s-1.1,3-2.6,3.4c-1.5,0.4-1.5-1.9-3.8-2.3c-2.3-0.4-3.4,1.5-3.4,1.5h-2.3l-0.4-4.2c0,0-7.2,2.3-9,1.1c-1.9-1.1-3.4-2.3-5.7-1.1
					c-2.3,1.1-3.8,0-6.4-0.8c0,0,1.5,5.7-0.4,5.7c-1.9,0-3,1.5-1.1,3.1c1.9,1.5-0.4,4.6-0.4,4.6s-2.3,3.1-4.1,3.1
					c-1.9,0-3.8,0-3.8,0c0.4,1.6-0.3,2.5-0.9,3.2c0.7,1.9,3.6,11,4.4,12.6c0.2,0,4.3-0.1,4.3,0c0.2,0.5-2.1,4.5-1.4,7.3
					c0.5,2.1,5.8,4.4,5.8,4.4L331.1,143z"/>
				
					<path fill="#EDEDED" stroke="#FFFFFF" stroke-width="2" stroke-linecap="round" stroke-linejoin="round" stroke-miterlimit="10" d="
					M424.4,194.8c1.4,0.2,2.9,0.3,4.6,0.1c0.9-0.1,5.8-4.2,7.2-4.4c1.5-0.3,4.3,0.6,5.8,0c0.6-0.3,3.3-4.1,4.3-4.4
					c6.5-1.7,11.8,1,17.4-1.5c0,0,1.6-6.2,4.3-5.9l0.7,0.2c0,0-4.1-8.2-5.6-9.8c-1.5-1.5,1.5-1.5,0-2.7c-1.5-1.1-0.4-3.1-0.4-4.6
					c0-1.5,1.1-6.5,1.1-9.5c0-3.1-0.8-3.1-3-6.5c-2.3-3.4,0.4-6.1,1.1-8c0.8-1.9-3-2.3-1.5-4.6c1.5-2.3,0.4-5.7,0.4-9.2
					c0-3.4-1.9-5.3-3.4-5.7c-1.5-0.4,0.4-8.8,0.4-8.8l-6.8-0.8l-0.8,2.3c0,0-12.4-1.9-13.9-1.1c-1.5,0.8-3,3.1-3,5.3
					c0,2.3,1.5,4.6,1.1,6.1c-0.4,1.5-1.1,6.5-1.1,6.5s1.5,4.2,0.8,6.1c-0.8,1.9,1.9,3.1,1.9,6.5c0,3.4-0.8,8-0.8,8s-1.9,2.3-2.6,5.3
					c-0.8,3.1-1.9,4.6-2.6,7.6c-0.8,3.1-3,7.3-3,7.3l-1.9,6.5l0.8,7.2c0,0,1.2,3.2,0.4,5.1C425.5,189.6,424.4,194.8,424.4,194.8z"/>
				
					<path fill="#EDEDED" stroke="#FFFFFF" stroke-width="2" stroke-linecap="round" stroke-linejoin="round" stroke-miterlimit="10" d="
					M301.8,94.4l7.6-0.4c0,0,0.8-2.7,3.8-2.7c3,0,12.1-0.4,14.7-0.4c2.6,0,4.1-1.1,4.1-4.2c0-3.1-1.5-1.5-3.8-1.5s-4.1,0-6.4,0
					c-2.3,0-6.8,1.5-8.7,0c-1.9-1.5-0.4-1.1-3,0.4c-2.6,1.5-1.9,0.8-4.5,0.8c-2.6,0-6.3,1.7-6.3,1.7C300.4,90,301.5,93.6,301.8,94.4
					z"/>
				
					<path fill="#EDEDED" stroke="#FFFFFF" stroke-width="2" stroke-linecap="round" stroke-linejoin="round" stroke-miterlimit="10" d="
					M547.5,231.6c-0.6,1.1-2.8,3.8-2.8,4.4c-0.1,0.8,5.2,7.2,2.9,8.8c-3,2-4.9,14.3-7.2,20.5c1.6,1,9.9,6,2.9,8.8
					c3.2,3.1,14,10.3,15.9,13.2c0,0.1-1.1,3.3-1.4,4.4c1.1,1.1,3,2.3,4.7,3.5c0,0,0.9-7.6,3.2-7.6c2.3,0,2.3,0.8,5.7,1.9
					c3.4,1.1,2.3-0.8,1.9-4.2c-0.4-3.4-3.8-5.3-2.3-7.2c1.5-1.9,2.3,0.4,0.8-3.1c-1.5-3.4,3.4-1.1,5.6-1.9c2.3-0.8-1.9-4.6,0.8-3.8
					c2.6,0.8,3,3.1,3,3.1s4.1-1.9,6.4-1.5c2.3,0.4,2.6,3.8,4.5,5.3c1.9,1.5,1.5,0,2.6-4.6c1.1-4.6,0-4.6-1.9-5.7
					c-1.9-1.2,1.9-3.1,0.4-5.4c-1.5-2.3-2.1-1.7-1.1-5c0.8-2.7,0.4-3.8,0-5.3c-0.4-1.5-2.6-3.8-4.1-4.6c-1.5-0.8,1.5-0.8,1.5-0.8
					s-0.8-3-0.8-5.3c0-2.3,1.1-2.3,3.8-3.1c2.6-0.8,4.5,0,4.5,0l0.4-7.6c0,0-3.4-1.1-5.3-1.1c-1.9,0-3-0.4-5.3,0.4
					c-2.3,0.8-0.7-1.9-1.1-3.4c-0.4-1.5-0.4-7.2-0.4-7.2s-3.4-1.5-6.4,0c-3,1.5-4.1-0.8-5.7,0.4c-1.5,1.1-5.3,1.5-5.3,1.5l-1.1,13
					L547.5,231.6z"/>
				
					<path fill="#EDEDED" stroke="#FFFFFF" stroke-width="2" stroke-linecap="round" stroke-linejoin="round" stroke-miterlimit="10" d="
					M514.1-372.7c0,0-0.8,3.1,1.1,3.4c1.9,0.4,3.8,1.1,3.8,1.1s6-2.3,7.9,1.1c1.9,3.4,2.3,0.8,4.9,1.5c2.6,0.8,4.6,0.8,4.6,0.8
					s0.7,3.8-0.8,6.1c-1.5,2.3-1.5,3.1-0.8,5.3c0.8,2.3-1.3,5.8,0.9,9.2c0,0-1,2.4-3.1,0.7c-1.9-1.5-1.5,2.3-1.5,2.3
					s0.8,1.1-2.6,1.9c-3.4,0.8-5.3,4.6-6.8,7.3c-1.5,2.7-3.5,4.2-5,6.5c-1.5,2.3-3.4,7.3,0.8,4.2c4.1-3.1,4.1,0.4,4.1,0.4
					c0,2.3,4.5,1.3,5.4,3.4c0.8,1.9,2.9,0.8,2.9,0.8l-2.5,4.2c0,0-0.8,3.4-3.4,3.4c-2.6,0-2.3,5.3,0,5.3c2.3,0-1.1,6.5,0.4,8
					c1.5,1.5,6-1.1,4.5,1.1c-1.5,2.3-0.4,0.4-2.3,2.7c-0.3,0.4-0.5,0.7-0.5,1c-0.1,0.4,1.6,0.6,1.8,0.9l-1.3,0.8l-1.8-0.6l-2.7-1
					l-1.5,1.5l2.3,4.9c-0.9,1.5-1.8,2.8-2.6,3c-8.2,2.2-12.9-5.4-18.8-5.9c-4.2-0.4-3.7,1.6-7.2,1.5c-0.8,1.6-4,3.4-4.3,4.4
					c-0.6,1.7-0.5,3.7-0.2,5.8c-4.5,0-2.5,2.7-5.5,2.7c-3,0-5.3,1.9-6.5-0.4c-1.1-2.3-3,0-3,0s-3.4-0.8-6.8-2.3
					c-3.4-1.5-3.8,0.4-6,0.4c-2.3,0-0.8-2.7-3.8-2.7c-3,0-1.9-0.8-5.3-1.5c-3.4-0.8-3,0-3-2.3c0-2.3-1.8-3.8-1.8-3.8
					c2.9-12.6,4.1-18.7,3-35.4c-4.2-2-11.2-3.4-13-7.3c-1.6-3.3,1.2-7.3,1.5-8.8c-0.5-0.3-3.8,0-4.3,0c-1.2-4.1,0.1-1.2-2.9-2.9
					l1.4-4.4l-5.8,2.9v-2.9c-7.5-3.6-4.6-2.3-13-2.9c1.4-1.2,0-5.9,0-5.9c1.7-0.9,3.3-0.6,4.3-1.5c-0.8-0.5-4.3-2.9-4.3-2.9h1.4
					c3.7-1.9,14.5-3.4,13-2.9c2.8-0.1,0.1,3,4.3,2.9l4.3-2.9c4.1-0.6,4.6,1.3,8.7,1.5v-2.9c-0.5-2.7-3.9-9.6-4.3-11.7
					c-1.8-0.5,2.9-4.3,5.8-2.9c0,0,0,4.2,0,4.4c2.9,0.3,9.2,2.7,14.5,0c0.3-0.2,0.7-5.3,1.4-5.9c2.8-2.2,6.3-1.6,10.1-2.9
					c-0.3-4.4-1.3-9.4-1.4-11.7c2.6-1.1,5.4-2.1,7.9-2.8l2.1,2.4c0,0,1.5-0.8,2.3,1.5c0.8,2.3,1.1,3.8,1.1,3.8s1.5,0,4.2,3.1
					c2.6,3.1,4.1,0.4,4.1,0.4s-0.4,1.9,1.9,4.2c2.3,2.3,3,1.5,4.9,2.7c1.9,1.1,4.1-3.1,4.1,0c0,3.1-0.4,3.8,1.9,3.8
					c2.3,0,2.6,0.4,2.6,0.4l3.9-0.8L514.1-372.7z M2020.5,504.1c0.1,0,0,4.2,0,4.4C2025.2,510.8,2021.7,504.6,2020.5,504.1z
					 M1994.4,495.3c2.3,5.8,2.4,10,5.8,14.7c1.7,2.4,7.7,4.6,8.7,7.3v2.9c3,2.3,9.2,2.6,13,4.4c-0.3-0.3,0-4,0-4.4
					c-2.6-1.4-2.7-1.4-4.3-2.9c-4.1-3.7-9.9-5.8-13-10.3c-0.8-1-4.2-10.2-4.3-10.2C1998.9,495.5,1995.7,496.5,1994.4,495.3z
					 M974.4,502.6l-1.5,5.9c2.2-0.5,3.4,1.1,5.8,1.5c0-0.2-0.2-4.3,0-4.4C978.3,505.2,974.6,503.1,974.4,502.6z M546.2-281.2
					c-0.9,0.6-0.5,3.6-1.5,4.4c-9.4,8-6.1,8.7-2.9,17.6c2.3,0.1,5.2-0.3,5.8,0c0-2.7-0.6-6.2,0-8.8
					C553.8-268.4,546.7-279.1,546.2-281.2z"/>
				
					<path fill="#EDEDED" stroke="#FFFFFF" stroke-width="2" stroke-linecap="round" stroke-linejoin="round" stroke-miterlimit="10" d="
					M856.4,100.7c0,0-5.7,7.6-4.9,10.3c0.8,2.7-2.8,6-2.1,8.3c0.8,2.3,3.4,2.7,5.7,2.7c2.3,0,3.4-0.8,3.4-0.8l3.6,0.1l-2.8,4.4
					l4.1,5.3c1.5,1.9,0.8,3.8,3,5.3c2.3,1.5,2.6,3.4,6.4,5c3.8,1.5,25.1,12,25.1,12l13.8-1.2L886.4,191l-11.7,0.4l-4.1,3.1l-9,0.4
					l-1.9,1.9c0,0-8.3,2.3-10.9,1.1c-2.6-1.1-2.6-3.8-2.6-3.8s-3.2,4.4-5.9,2.8c-2.6-1.5-3.8,3.4-3.8,3.4s-2.8,0.2-5.1,0.2
					c-2.3,0-4,0.5-5.5-1c-1.5-1.5-7.9-1.1-7.9-1.1s-4.5,2.3-6.4,0.4c-1.9-1.9-4.9,1.1-6.4,0.8c-1.5-0.4-6.8-0.8-6.8-0.8l-0.8-3.1
					c0,0,0.4-5.3-2.3-5.3c-0.7,0-1.4,0-2.3-0.1c-2.5-0.2-5.3-1-5.8-3.9c-0.8-3.8-3.8-6.9-3.8-9.9c0-3.1-0.8-3.4-2.6-5
					c-1.9-1.5-2.6-3-4.1-5.7c-1.5-2.7-3-2.7-4.9-3.4c-1.9-0.8-7,0.5-6.3-1.8c0.8-2.3,1.5-5.3,1.5-5.3s0.4-0.4,3.4-0.8
					c3-0.4,3.8-1.5,3.8-1.5s1.9-4.2,1.9-6.1c0-1.9,0.8-8,0.4-10.3c-0.4-2.3,4.4-8.2,4.4-11.6c0-3.4,0.4-6.5,0.4-6.5s2.3-1.9,4.2-2.7
					c1.9-0.8,3-1.5,3.8-3.4c0.7-1.9,1.5-3.8,2.6-6.1c1.1-2.3,3-5,3-8.8c0-3.8,3.8-6.1,4.9-8.8c1.1-2.7,4.9-7.6,4.9-7.6l5.3-1.9
					c0,0,3.8-1.5,4.5,0.4c0.7,1.9,1.5,3.1,1.5,3.1l1.9-9.2c0,0,1.5-1.5,3.8,0c2.3,1.5,3.8,5.3,5.7,5.3c1.9,0,3.4-1.5,4.5,0.8
					s7.5,2.3,10.2,3.4c2.6,1.1,3.4,3.8,6.4,6.9c3,3.1,3,6.1,4.2,7.6C853.6,99,856.4,100.7,856.4,100.7z M815.3,99.7
					c7.6,0.6,2.8,5.2,0,7.3C812.7,105.4,808.4,99.2,815.3,99.7z"/>
				
					<path fill="#EDEDED" stroke="#FFFFFF" stroke-width="2" stroke-linecap="round" stroke-linejoin="round" stroke-miterlimit="10" d="
					M825.9,29l-4,4.8l-5.3-0.8c0,0-4.2,2.2-5.3,4.1c-1.1,1.9-0.4,4.2-2.3,4.2s-0.4,1.1-1.1,4.6c-0.8,3.4-0.4,3.8-0.4,7.6
					s-1.9,5-2.6,8.4c-0.8,3.4-1.5,6.5-0.8,8c0.8,1.5,0.4,11.1,0.4,11.1l5.3-1.9c0,0,3.8-1.5,4.5,0.4c0.7,1.9,1.5,3.1,1.5,3.1
					l1.9-9.2c0,0,1.5-1.5,3.8,0c2.3,1.5,3.8,5.3,5.7,5.3c1.9,0,3.4-1.5,4.5,0.8s7.5,2.3,10.2,3.4c2.6,1.1,3.4,3.8,6.4,6.9
					c3,3.1,3,6.1,4.2,7.6c1.1,1.5,4.2,3.4,4.2,3.4l1.6-1.4l2.6,1.9l6.5-3.2c-0.1-1.5-0.6-3.3-0.1-4.4c-3-2.4-8.6-3.9-10.1-7.3
					c-1.4-2.9,0.5-5.5-1.4-7.3c-1.9-1.7-5.8-1-7.2-2.9c-1.7-2.3-1.2-6.7-2.9-8.8c-0.6-0.7-3.4,0.3-4.3,0c-1.6-0.6-4.7-7.3-5.8-8.8
					c-0.9,0.4-1.9,2-2.9,1.5c0-0.5,0-1,0-1.5c-0.7-0.4-2.6-0.8-2.9-1.5C826.7,50.7,828.8,35.8,825.9,29z"/>
				
					<path fill="#EDEDED" stroke="#FFFFFF" stroke-width="2" stroke-linecap="round" stroke-linejoin="round" stroke-miterlimit="10" d="
					M549.8,219.4c-0.5,4.7-0.3,5.5-0.7,7.8c-0.2,1.1-0.3,2.2-1.5,4.4l19.3,0.6l1.1-13L549.8,219.4z M537.5,203.7
					c-2.1,0.6-5.1,5.2,1.5,4.4C538.7,206.6,540.3,202.9,537.5,203.7z"/>
				
					<path fill="#EDEDED" stroke="#FFFFFF" stroke-width="2" stroke-linecap="round" stroke-linejoin="round" stroke-miterlimit="10" d="
					M867.3,99.7c-0.4,1.4-3.3,3.9-4.3,5.9h2.9c0.9,0.3,2.4,3.1,4.2,6.3l-8,9.5l-3.6-0.1c0,0-1.1,0.8-3.4,0.8c-2.3,0-4.9-0.4-5.7-2.7
					c-0.8-2.3,2.8-5.6,2.1-8.3c-0.8-2.7,4.9-9.9,4.9-9.9l1.9-1.5l2.6,1.9l6.5-3.1C867.6,99.1,867.3,99.7,867.3,99.7z"/>
				
					<path fill="#EDEDED" stroke="#FFFFFF" stroke-width="2" stroke-linecap="round" stroke-linejoin="round" stroke-miterlimit="10" d="
					M567.6,302.7c0,0,2.7-3.1,6.8-3.1c4.1,0-0.1,0.6,2.5-2.1c2.6-2.7,4.1,0.8,4.1,0.8s1.5,1.1,2.6-0.4c1.1-1.5,3.8,0,6,0
					c2.3,0,0.8-4.6,0.8-4.6s1.1,0.4,3.4,0.8c2.3,0.4,4.5-1.1,4.5-1.1l-0.4,6.5c0,0,3.8-0.4,6-0.4c2.3,0,3,0,4.9-1.5
					c1.9-1.5,3.4,0,4.1-1.5c0.8-1.5,1.5-3.8,1.1-7.2c-0.4-3.4,1.5-0.4,2.6-4.2c1.1-3.8,0.8-1.1,1.1-5c0.4-3.8-1.9-4.6-2.3-8
					c-0.4-3.4,1.5-4.6,3-7.2c1.5-2.7,3.8-1.9,3.8-5.7c0-3.8,0.4-6.5,3-9.9c2.6-3.4,2.3-6.1,2.3-10.7c0-4.6-0.8-4.2-0.8-7.2
					c0-3.1,1.1-5,1.1-9.5c0-4.6,1.5-5,3-6.5c1.5-1.5,1.9-11.1,1.9-11.1s-4.1,1.1-6.4,1.9c-2.3,0.8-1.9-1.1-4.9-0.4
					c-3,0.8-1.9,0.8-3,3.8c-1.1,3.1-4.5,2.7-4.5,2.7s-2.6,3.1-2.3,5c0.4,1.9,1.9,4.6,1.9,4.6s-2.6-0.8-5.3-1.1c-2.6-0.4-3.8,0-5.7,0
					c-1.9,0-1.9,0-3.4-1.5c-1.5-1.5-4.1-2.3-6.8-1.1h-7.5c0,0,0,5.7,0.4,7.2c0.4,1.5-1.1,4.2,1.1,3.4c2.3-0.8,3.4-0.4,5.3-0.4
					c1.9,0,5.3,1.1,5.3,1.1l-0.4,7.6c0,0-1.9-0.8-4.5,0c-2.6,0.8-3.8,0.8-3.8,3.1c0,2.3,0.8,5.3,0.8,5.3s-3,0-1.5,0.8
					c1.5,0.8,3.8,3.1,4.1,4.6c0.4,1.5,0.8,2.7,0,5.3c-0.9,3.3-0.4,2.7,1.1,5c1.5,2.3-2.3,4.2-0.4,5.4c1.9,1.1,3,1.1,1.9,5.7
					c-1.1,4.6-0.8,6.1-2.6,4.6c-1.9-1.5-2.3-5-4.5-5.3c-2.3-0.4-6.4,1.5-6.4,1.5s-0.4-2.3-3-3.1c-2.6-0.8,1.5,3.1-0.8,3.8
					c-2.3,0.8-7.2-1.5-5.6,1.9c1.5,3.4,0.8,1.1-0.8,3.1c-1.5,1.9,1.9,3.8,2.3,7.2c0.4,3.4,1.5,5.3-1.9,4.2c-3.4-1.1-3.4-1.9-5.7-1.9
					c-2.3,0-3.2,7.6-3.2,7.6c1.7,1.2,3.3,2.5,3.9,3.8C567.9,301.7,566.2,300.6,567.6,302.7z"/>
				
					<path fill="#EDEDED" stroke="#FFFFFF" stroke-width="2" stroke-linecap="round" stroke-linejoin="round" stroke-miterlimit="10" d="
					M1700.1-310.3l2.4,1.7l2.2-3.1l4.1-2.7l1.1-3.4l3-1.5l3.8-3.8l2.3-5l1.1-6.9l-0.4-3.4l2.7-2.7l0.7-5l-2.3-2.3l0.1-3.8l2.3-5.7
					l-5.3,1.9l-1.9,3.1l-3.8,1.2h-3.4l-3.8,2.3l-3,3.4l-3.8,1.9l-2.6,1.1l-4.5-2.7l-4.2-2.3l-2.3-3.8l1.1-4.2l-1.8-3.8l-4.1-4.2
					l-1.9-5l-1.5-4.2l-3-2.7l-5.3-1.9l-3.8-0.8h-4.1l-3.1-2.7l-3-6.1l-4.1-6.9l-1.5-6.1v-3.8l-3.4-5.3l-2.6-3.4l-4.9-3.8l-6.8-1.1
					l-3.4-3.4l-3.4-3.8l-4.1-2.7l-5.7-0.8l-3,1.2l-4.9,1.9h-5.3l-3.8,3.1l-4.1,3.4l-3.4,3.8l-1.5,1.9l-0.8,2.7l3-0.4l0.8,4.9
					l-0.8,4.6l-2.3,2.3l1.1,5l-3.4,5l-2.6,4.6c0,0-7.9,4.9-4.1,6.5c0.4,2.3-6.8,4.2-6.8,4.2l-6,5.3l-4.2-2.7l-5.7-3.8l-4.9,1.9
					l-4.1,11.1c0,0,0.4,2.7,1.5,4.2c0.4,3.4-2.6,7.6-2.6,7.6l-0.8,4.6l7.5,2.7l6.4-1.1l5.3-5l3,0.4l2.3,3.1l4.1,4.2l6.8,2.3l3.8,3.8
					l-1.5,4.2c0,0-5.7-1.1-8.3,0.8c-3,0-6.4,5.3-6.4,5.3l-6-1.1l-7.2,5l-3-2.3l-3,0.8l-1.9,4.6l-3,3.1l-12.4,3.4l-1.9,6.5l-7.5,4.2
					l-5.6-1.9l-4.5-5.3l-4.5-0.4l-3.8,2.3l-2.3,5.3l-0.4,5l1.1,6.1l1.9,4.6l-3,5l-4.2,2.3l-7.9,1.9l-9,2.7l-8.7-0.8l-5.3,1.5
					l-3.4,0.8l-4.9,5.3l-6.4,2.3h-6.8l-6.4,2.7h-9.4l-4.9-3.8l-4.9-5l-2.3-1.1l-14.7-0.8l-7.9-0.8l-7.9-1.1l-7.2,1.1l-5.7-1.1
					l-5.3-3.1l-4.5-5.3l-5.6-3.8l-3.4-3.1l-1.9-5.3l-4.1-4.2l-5.3-1.9l-3-2.3l-4.9-3.4l-6.4-0.4l-5.3-1.9l-1.1-4.2l1.1-5.7l1.5-4.2
					l-3.4-5.3l-4.9-2.3l-0.4-3.4l-5.7-6.5l-5.7-3.4l-5.7,1.1l-4.9-1.1l-3.4-3.1l-0.4-3.4l-1.9-7.6l1.1-8.8l-4.1,3.1l-13.9,2.3
					l-4.1,3.8l-3,4.2l-5.7,2.3l-1.1,3.1l-1.1,4.6l-7.5,3.4h-5.7l-3.8,2.7l-3,5.3l-3.8,3.4l-1.9,7.3l1.1,6.1l3.4,3.1l-2.3,3.4h-9
					l-7.5,3.4l-7.5,1.5l-1.9,2.3l1.5,3.4l4.5,4.6l2.3,4.2l-3.9,8.4l-0.4,7.6c-2.9,1.5-4.5,1.9-7.2,3.8c-1.9,1.4-2.5,3-4.5,4.2
					c-1.8,1.1-3.5,0.4-4.9,1.9c-1.2,1.3-1.4,3-1.5,4.2c-0.4,3-11.9,0.3-15.5,5.7c-1.8,2.8,0.1,6-2.3,8.4c-2.3,2.3-5,1.1-7.9,2.3
					c-1.8,0.8-2.6,2.6-4.5,2.3c-2.3-0.3-1.5-4.1-3.8-4.6c-2.3-0.4-3.4,1.5-5.3,3.1c-1.7,1.4-2,2.9-3.8,4.2c-1.1,0.8-1.9,0.8-3,1.5
					c-1.3,0.9-1.8,1.6-3,2.7l0.9,5.7l-0.4,3.1l2.6,2.7l6.4-2.7l1.5,1.5l-0.8,2.7l-1.1,4.6l2.3,5l0.4,5l2.3,1.9l0.4,3.1l-3.4,1.1v3.8
					l6.4-0.4l10.8,6.9l2.3,3.1l3.8,3.8l4.2-3.4l2.3-1.9l3.9,0l4.1,1.1l4.5,0.4l1.9,4.2l2.6,3.1l1.5,4.2l-2.3,2.7l-0.8,3l-2,3.1
					l-2.6,2.7l-1.8,4.1l-2.3,2.3l-1.9,3.8l4.1,3.1l1.9,3.4l-0.4,6.5l3.4,1.5l2.3,0.4v3.4l-1.5,5l0.8,2.7l-1.9,2.3l1.5,4.2l4.5,1.9
					l3.8,2.7l4.9,0.8l3.8,3.1l2.9,3.1l2.6-0.4l3.7,0.3l5.1,0.3l3.2,0.6l4.3,6.8l4.2,0.2l5.2-1.1l3.1,2.5l0.2,4.3l5,2.6l4,4.5
					l2.1,3.4l4.7,0.2l4.5,3.1l7.9,0.4l6.8,1l3.7-1.7l3.4,0.4l3,5l4.3-7.3l2.8-1.9l5.1-0.5l5.1,1.9h4.2l5.1,0.9l5.7-1.1l5.4-2.6
					l3.4-2.5l4.6-0.4l3.3,0.9l3.4-3.1l3.7,0.6l5.3,1.7l-0.4,5.3l2.3,2.3l3.4-0.8l2.2,0.7l3.6,1.6l2.9,0.9l1.8,3.3l0.8,3.3l2.8-1h3.1
					l1.4,4.1l1.7,3.2l-1.4,5.4l1.4,3.2l-0.3,3.5l-1,6.3l-2.4,4.8l-3.5,4.4v2.9l2.1,2.9v3.5l0.3,1.9l1.7-0.6l1.7-1.9l3.8-1.6l3.1,0.3
					l2.1,2.5l-1,3.2l1.4,4.1h3.1l0.7,1.9l-3.1,5.4v2.2l3.8,1l2.8,0.6l1.3,5.2l1.1,4.2l6.8,1.9l2.3,0.4l4.2-2.3l1.1-5.7l-3.4-9.6
					l1.1-3.4l4.9-1.1l5.3,4.6l4.2-1.5l4.9,3.4l3.4-3.1l6.4-0.4l2.6-2.3l4.2,1.1l4.9,4.2l2.6,0.8l0.4,2.7l-2.3,3.8l4.9,5.8l3.8-2h5.7
					l4.1,1.8c4.2-1.8,9-2.6,15.2-2.4c-2.1,9.2-1.6,9.5,2.9,17.6c1.1-0.4,2.2-2.6,4.3-1.5c-0.3-0.3,0-4,0-4.4
					c-1.5,1.1-2.4-2.6-2.9-2.9c3.2-2.2,5.1-2.2,8.7-4.4c1.1-0.7,1.7-3.8,2.9-4.4c4.7-2.5,10.2-0.3,15.9-2.9c2.5-1.2,4.2-6.5,5.8-8.8
					l4.3,4.4c0.7,0.1,4.6-2.9,4.3-2.9c2-0.3,5.6-1.5,5.8-1.5c1.7-0.3,4.1,0.4,5.8,0l2.9-1.5c0.7-0.6,0-6.4,0-7.3
					c4.8-2.6,9.6-5.1,14.5-7.3c0-0.6-0.5-5.6,0-5.9c3-2,7.4,0.5,10.1-1.5l-1.4-4.4c0.1-0.1,6-2.5,1.4-1.5v-2.9c1.2,0,4.7,0.6,5.8,0
					c-0.5-4.5,0.4-9.1,0-10.3c-0.3-0.8-3.3-1-2.9-2.9h1.5c0.8-1.5,0.2-5.5,1.4-7.3c0.4-0.6,3.5,0.3,4.3,0c1-0.4,2.9-5.2,4.3-5.9h1.4
					c0.9-1.3-0.5-4.4,0-5.9c0.4-1.3,3.2-3.7,4.3-5.9c2.9,0,1.2,1.9,4.3,0c-0.4-2.4-1.8-6.5-1.5-5.9c0.5-0.4,0-5.2,0-5.9
					c0.2,0,4.3,0,4.3,0c3.2-7.7-1.3-5-1.4-5.1c0-0.1,0.9-0.8,4.2-3.7c-0.4-0.2-3.4-4.2-4.3-4.4c-1.6-0.4-6.9,1.2-5.8,1.5
					c-1.6,1-2.4-2.5-2.9-2.9c10.5-6.5,13.9-8.1,2.9-17.6h2.9c0-0.2-0.2-4.4,0-4.4c-2.5-3.3-8.9-8-10.1-11.7c-0.5-1.6,0.7-4.4,0-5.9
					c-0.7-1.3-3.1-0.6-4.3-1.5c-2.3-1.7,3.7-1.6,1.4-2.9c-3.7-2.3-7.9-9.9-5.8-17.6c0.9-3.4,5.5-3.6,7.2-5.9
					c0.6-0.8-1.1-2.3-1.4-2.9c3.7-3.6,8.5-9.4,13-11.7c2.1-1.1,9.9-1.8,11.6-2.9c1.4-1,0.2-6.4,1.5-7.3c-4.1,0.1-8.1,0.6-13,0
					c-0.8-0.1-4.2-4.3-10.1-2.9c-2.2,0.5-5.5,6.6-7.2,7.3c-3.5,1.3-4.1,0.7-7.2,1.5c-3.3-8.2-8.2-14.1-11.6-22
					c2.4-1,0.9-3.6,2.9-4.4c3.1-1.3,7.1,1.3,10.1,0c1.1-0.5,1.9-6.4,2.9-7.3c2.5-2.4,7.5-2.1,10.1-4.4c2.4-2.2,6.8-11.6,8.7-14.7
					c16.2,4.3,10.7,3.5,5.8,14.7c-0.4,0.9-8.2,15.8,0,8.8c-0.4,0.3-4.7,8.8-1.4,7.3c5-2.4,13.8-17.7,23.1-16.1
					c1,0.1,2.2,3.8,6.7,2.3l3.4-7.6l3.8-3.4l3.8-6.5l3-4.2l5.7-4.9l-0.4-5.7l3.8-1.5l2.6,3.8l3.8,1.1l5.3,1.2v-3.8l-0.4-3.1l3.4-2.7
					l4.5,0.4l2.3-1.9l-0.4-2.3l4.5-1.9l0.7-6.9l6,8.8l1.9-3.1l-0.7-3.8l2.6-1.9l0.4-4.2l-0.8-7.2l1.5-4.6l0-4.2l3-1.9l2.5-1.9
					c0,0-3.3-4.4-0.3-2.9C1699-312.1,1699.6-311.3,1700.1-310.3z M1527.1-20.4c2,1-1.4,2.9-1.4,2.9
					C1525.9-18.5,1524.4-21.8,1527.1-20.4z M1495.3,14.7c-3.5,0.2-14.2,7.9-17.4,10.3c2.5,6.9,2.1,15,13,13.2
					c7.1-1.2,8.2-10.1,10.1-17.6C1504.3,22.6,1507.4,13.8,1495.3,14.7z M1511.2-98.1c1.8,1.4,6,1.6,7.2,1.5v1.5h-1.4v2.9
					c-1.4-0.9-4.3,0.6-5.8,0C1510.2-92.7,1508.7-99.5,1511.2-98.1z M1553.1-102.5c5.7-0.4,2.9,2.9,2.9,2.9
					C1555.4-99.9,1548.4-102.2,1553.1-102.5z M1587.9-128.8c2.3,0.5,4.9,5.9-1.5,5.9C1586.4-123,1583.3-129.9,1587.9-128.8z
					 M1592.2-134.7c0,0,3.9,4.1,0,4.4C1586.1-129.9,1588.5-134.6,1592.2-134.7z M1401.2-202.1c0.5,0.2,5.3,7,0,4.4
					C1401.1-197.8,1397.9-203.6,1401.2-202.1z"/>
				
					<path fill="#EDEDED" stroke="#FFFFFF" stroke-width="2" stroke-linecap="round" stroke-linejoin="round" stroke-miterlimit="10" d="
					M588.7,77.2c0.2,0.1,0.4,0.2,0.9,0.5c1.5,0.9,2.4,4.9,4.3,5.9c4,1.9,3.7,0.1,8.7,0c0,0,3.8,6.4-2.9,4.4c0,0-3.8,0.1-6.1,0.1
					c0,0,5.2,5.6,6.7,7.5c1.5,1.9-0.4,3.8,1.1,5.3c1.5,1.5,1.9,3.4,1.5,5c-0.4,1.5,0,3.4,0,3.4s-1.5,0.8-1.5,3.4
					c0,2.7,1.5,6.5,2.3,8c0.8,1.5-0.4,4.2,0.8,6.1c1.1,1.9,1.1,4.2,1.1,4.2s-9.8-1.1-11.7,0.4c-1.9,1.5-3,4.6-1.5,5.7
					c1.5,1.1,5.3,7.3,6.8,8.4c1.5,1.1,2.6,9.2,2.6,9.2l-2.6,5.7l3.8-0.4l4.5,0.4l2.6-4.6c0,0,2.3,2.3,4.5,2.3
					c2.3,0,8.7-1.9,11.3-2.3c2.6-0.4,4.9-1.5,7.5-5c2.6-3.4,4.2-2.7,6.8-4.2c2.6-1.5-4.5-3.1-2.3-6.1c2.3-3.1,8.3-1.9,10.9-4.2
					c2.6-2.3,3-2.3,5.7-2.7c2.6-0.4,1.9-3.4,3.4-4.6c1.5-1.2,3.8-2.3,5.7-3.1c1.9-0.8,1.5-0.8,2.6-3.8c1.1-3.1,4.9-3.8,4.9-3.8
					s1.1-1.9-0.8-3.8c-1.9-1.9-2.6-1.9-1.5-4.6c1.1-2.7,0-4.2,0-4.2s0,0-0.4-2.3c-0.4-2.3,3-3.8,1.9-5.7c-1.1-1.9-1.9-2.7-3.8-2.7
					c-1.9,0-4.5,1.5-4.5-0.4c0-1.9-0.8-2.7,1.1-3.8c1.9-1.1,2.6-1.5,2.6-4.6c0-3.1,0-1.5,2.3-3.4c2.3-1.9,2.3-5,2.3-7.2
					c0-2.3-0.8-2.7,1.5-4.2c2.3-1.5,3.4-2.7,2.3-5c-1.1-2.3,0.8-3.4,1.9-6.1c1.1-2.7,2.6-1.9,4.5-0.8c1.9,1.1,6.8,0,6.8,0V15
					l-81-49.2l-9.4,6.9l5.3,24c0,0,6,7.6,3.8,10.3c-2.3,2.7-2.3,5.7-3,9.5s0,39.7,0,39.7l-14.2,12.3L588.7,77.2z"/>
				
					<path fill="#EDEDED" stroke="#FFFFFF" stroke-width="2" stroke-linecap="round" stroke-linejoin="round" stroke-miterlimit="10" d="
					M633.1,203.6l0.8-9.5c0,0,4.9-1.9,4.9-5c0-3.1,1.9-5.3,3.8-5.3c1.9,0,4.1-1.1,7.2,0.4c3,1.5,4.1,4.2,6,5.3
					c1.9,1.1,6,1.1,8.3,1.1c2.3,0,3,0.4,6,1.1c3,0.8,5.7,1.1,5.7,1.1s-0.7-5.7,1.9-5.7c2.6,0,2.6,3.4,6,2.3c3.4-1.1,5.3-1.1,5.3-1.1
					s-0.8-3.1,1.9-3.4c2.6-0.4,0.8,3.8,3.8,0.8c3-3.1,1.9-3.4,4.5-3.4c2.6,0,4.5,0,7.5,0c3,0,1.5,1.5,3,1.5c1.5,0,5.3-0.4,5.3-0.4
					s-0.4-3.8-1.9-4.2c-1.5-0.4-0.4-3.4-1.5-6.5c-1.1-3.1-2.6-4.6-6-5.3c-3.4-0.8-3-4.6-4.2-6.5c-1.1-1.9-1.9-1.5-3.8-1.5
					s-3.4-1.9-4.5-3.4c-1.1-1.5-2.3-1.5-4.5-1.5c-2.3,0-2.3-3.4-3.8-4.2c-1.5-0.8-5.6-5.3-4.5-8.8c1.1-3.4,0.8-3.8-2.3-6.1
					c-3-2.3-1.9-2.3-1.1-4.6c0.8-2.3,0.4-6.5,0.4-6.5l-6-5.7c0,0-3.8,0.8-4.9,3.8c-1.1,3.1-0.8,3.1-2.6,3.8
					c-1.9,0.8-4.1,1.9-5.7,3.1c-1.5,1.1-0.8,4.2-3.4,4.6c-2.6,0.4-3,0.4-5.7,2.7c-2.6,2.3-8.7,1.1-10.9,4.2
					c-2.3,3.1,4.9,4.6,2.3,6.1c-2.6,1.5-4.2,0.8-6.8,4.2c-2.6,3.4-4.9,4.6-7.5,5c-2.6,0.4-9.1,2.3-11.3,2.3c-2.3,0-4.5-2.3-4.5-2.3
					l-2.6,4.6l-4.5-0.4l-3.8,0.4c0,0-3.8,11.1-6.4,12.6c-2.6,1.5-4.1,3.1-2.3,4.2c1.9,1.1,3,1.1,3.8,4.2c0.8,3.1,2.3,6.1,4.1,9.5
					c1.9,3.4,1.1,4.2,4.1,7.3c3,3,3.8,2.3,5.7,6.1c1.9,3.8,6,7.3,6,7.3s3.4,0.4,4.5-2.7c1.1-3.1,0-3.1,3-3.8c3-0.8,2.6,1.1,4.9,0.4
					C629,204.7,633.1,203.6,633.1,203.6z"/>
				
					<path fill="#EDEDED" stroke="#FFFFFF" stroke-width="2" stroke-linecap="round" stroke-linejoin="round" stroke-miterlimit="10" d="
					M538.9,197.9c0.3,0-0.6-5,2.9-2.9c0,0-1.1,4.5-1.5,5.9c1.3,1.1,4.4,0.3,5.8,1.5c0,0.5,0,1,0,1.5c0,2.6,3.9,5.5,4.3,7.3
					c0.3,1.6-0.5,9.4-0.7,8.3l18.1-0.1c0,0,3.8-0.4,5.3-1.5c1.5-1.1,2.6,1.1,5.7-0.4c3-1.5,6.4,0,6.4,0h7.5c2.6-1.1,5.3-0.4,6.8,1.1
					c1.5,1.5,1.5,1.5,3.4,1.5c1.9,0,3-0.4,5.7,0c2.6,0.4,5.3,1.1,5.3,1.1s-1.5-2.7-1.9-4.6c-0.4-1.9,2.3-5,2.3-5s-4.1-3.4-6-7.3
					c-1.9-3.8-2.6-3.1-5.7-6.1c-3-3.1-2.3-3.8-4.1-7.3c-1.9-3.4-3.4-6.5-4.1-9.5c-0.8-3.1-1.9-3.1-3.8-4.2c-1.9-1.1-0.4-2.7,2.3-4.2
					c2.6-1.5,6.4-12.6,6.4-12.6l2.6-5.7c0,0-1.1-8-2.6-9.2c-1.5-1.1-5.3-7.2-6.8-8.4c-1.5-1.1-0.4-4.2,1.5-5.7
					c1.9-1.5,11.7-0.4,11.7-0.4s0-2.3-1.1-4.2c-1.1-1.9,0-4.6-0.8-6.1c-0.8-1.5-2.3-5.3-2.3-8c0-2.7,1.5-3.4,1.5-3.4s-0.4-1.9,0-3.4
					c0.4-1.5,0-3.4-1.5-5c-1.5-1.5,0.4-3.4-1.1-5.3c-1.5-1.9-5.9-6-5.9-6l-1.1,8.8c0,0,3,1.1,3,2.7c0,1.5-1.6,8.6-3.5,8.6
					c-1.9,0-3,0.4-3,2.3c0,1.9-2.3,3.8-3.8,5.3c-1.5,1.5,0.7,2.7-0.4,5c-1.1,2.3-1.1,4.2-2.6,4.6c-1.5,0.4-1.5,4.2-1.5,4.2
					s1.5,3.8,0,4.6c-1.5,0.8-4.5,2.7-6.8,3.4c-2.3,0.8-2.6,1.1-3,4.2c-0.4,3.1,0.4,4.2-1.5,6.1c-1.9,1.9-0.8,1.9-2.3,5
					c-1.5,3.1-3,1.9-4.1,4.6c-1.1,2.7-2.3,4.6-2.3,6.5c0,1.9,2.3,3.8,0,5c-2.3,1.1-2.5,6.6-6.8,5.7c0.1-2.5,1.5-5.3-0.8-6.5
					c-2.3-1.1-3.4-1.1-3.4-1.1s-1.5-0.8-3.4,1.1c-1.9,1.9-6,1.5-6.8,3.8c-0.8,2.3-0.8,6.1-2.3,6.5c-1.5,0.4-0.8,0.8-0.8,3.1
					c0,2.3,1.5,2.7,1.5,2.7l-1.5,4.2l0.3,7.4C537.7,197.2,537.9,198,538.9,197.9z"/>
				
					<path fill="#EDEDED" stroke="#FFFFFF" stroke-width="2" stroke-linecap="round" stroke-linejoin="round" stroke-miterlimit="10" d="
					M733.8,291.8c0.1-0.8,0.1-1.4,0.1-1.4l-0.8-4.2c0,0,1.5-3.1,3.8-0.4c2.3,2.7,0.6,5.5,3.6,3.2c3-2.3,1.5-6.1,3.4-5
					c1.9,1.1,6.4,1.5,6.4,1.5s-2.3,5,0.8,6.5c3,1.5,3,0.8,3,0.8s-0.6,2.9-1.7,4.4c-1.1,1.5-4.2,3.1-4.2,3.1l-1.1,5.7
					c0,0-3,1.1-4.5,1.5c-1.5,0.4-6.4-0.4-6.4-0.4c-0.1-5.1-0.2-10.1-0.4-15.6L733.8,291.8z"/>
				
					<path fill="#EDEDED" stroke="#FFFFFF" stroke-width="2" stroke-linecap="round" stroke-linejoin="round" stroke-miterlimit="10" d="
					M457.9,109.7l-6.8-0.8l-0.8,2.3c0,0-12.4-1.9-13.9-1.1c-1.5,0.8-3,3.1-3,5.3c0,2.3,1.5,4.6,1.1,6.1c-0.4,1.5-1.1,6.5-1.1,6.5
					s-4.9,0.8-6.8,0.4c-1.9-0.4-1.5-4.6-1.5-4.6l-3.8-0.4l-3,2.3l-3.8-0.4l-1.1-3.4l-7.5-0.4c0,0-1.5-7.3,1.1-8.4
					c2.6-1.1,1.9-3.4,1.1-5c-0.8-1.5,0.4-4.2,0.4-4.2s1.5-3.4,3.4-4.2c1.9-0.8,2.6,0.8,2.6,0.8s0.8-5.3,1.9-7.6
					c1.1-2.3,1.5-4.2,3.8-5.3c2.3-1.1,5.7-2.7,7.2-2.3c1.5,0.4,4.1-2.7,4.1-4.6c0-1.9,0.4-3.4,3-5.7c2.6-2.3,4.9-1.5,4.9-3.4
					c0-1.9,0.8-6.5,3.8-6.5c3,0,4.9-0.8,4.9-3.1c0-2.3,2.3-3.8,3.4-1.9c1.1,1.9,2.3-1.1,3.8,0.4c1.5,1.5,2.3,3.8,2.3,3.8l-1.5,3.4
					l3.4,4.6l6.8,4.2l-0.8,3.4l4.1,8.8c0,0,3.4-1.1,3.8,0.8c0.4,1.9-1.1,4.2-1.1,4.2l2.6,9.2c0,0,0.8,1.5-1.1,3.1
					c-1.9,1.5-3.4,1.9-3.4,1.9s0,3.1-1.5,3.1c-1.5,0-2.3,0-2.3,0s-2.6,0-4.5-0.4C460.1,110.1,457.9,109.7,457.9,109.7z"/>
				
					<path fill="#EDEDED" stroke="#FFFFFF" stroke-width="2" stroke-linecap="round" stroke-linejoin="round" stroke-miterlimit="10" d="
					M-27.2,200.8l3.3,0c1.3,3.4,2.2,4.3,2.9,5.9c2.8,7.1,2.1,13.2,4.3,20.5c1.2,0,4.7-0.6,5.8,0c0.8,0.5-0.8,3.9,0,4.4
					c-2.4,1.1-5.4,3.1-7.2,4.4c10.3,5.4,9.4,0.5,4.3,11.7c1.9,0.2,2.1,2.7,2.9,2.9c3.5,0.9,2.9-1.9,7.2-1.5l-1.4,4.4
					c2,0.7,7-1.4,8.7,0c1.3,1-3.4,7.8,0,10.2h2.9l1.4-4.4c7.6-3,21,5.5,24.6,7.3v2.9c0.1,0,3.3-1.1,4.3-1.5l1.4,5.9h2.9
					c1.2,2.7-1.1,4.3-1.4,5.9c4.1,3.3,1.6,0.7,2.9,5.9c0.3-0.3,3.8,0,4.3,0c0.3-1.1,1-5.7,1.4-5.9c7.2-2.7,8.9,3.5,11.6,4.4
					c1.2,0.4,2.8-2.2,5.8-1.5l1.4,2.9c6.1,2.3,10.6-1,14.5,0c2.8,0.7,14.7,8,17.4,10.3c1.9,1.5,8.5,13,8.7,13.2
					c2.5,1.7,3.4-2.5,7.2-1.5c0.2,0,0,4.1,0,4.4c0.4,0.1,5.1-1.1,7.2-1.5c1.2,3.1,2.3,8.5,4.3,11.7c0.5,0.9,4,2,4.3,2.9
					c4.6,13.4-0.4,33.4-5.8,41c-3.4,4.7-11,7-14.5,11.7c-5.2,6.8-6.2,16.8-10.1,24.9c-2.6-1.8-4.3-3.1-7.2-4.4
					c-0.7,2.6,2.3,3.5,1.4,4.4c-6.4,6.2-2.8,6.1-4.3,11.7h-2.9c-0.3,3.9,0.8,1.7,2.9,2.9c-0.4,5.1,1.7,13.8,1.4,22h-1.4
					c-0.5,3.4,0,6.8,0,10.3l-2.9,1.5c-0.4,5,3.1,10.2,2.9,11.7c-0.2,1.2-5.4,3.1-5.8,4.4c-1.2,3.5,0.9,8.1,0,11.7
					c-1.3,4.8-14.6,16.7-15.9,23.4c-1,4.8,1,8.5,1.4,11.7l-5.8,2.9c-0.2,0.5,0.4,4.1,0,4.4c-6.2,3.2-9.1-1.6-10.1-1.5
					c-0.2,0,0,4.2,0,4.4c-6.1,0.8-9,0.6-14.5,1.5c-0.8,2.6-0.5,0.8-2.9,1.5l1.4,5.9c-2.6,1.9-11.5,1.1-14.5,2.9
					c-1.6,0.9-0.5,2.8-1.4,4.4c-2.6,4.2-13,7.7-17.4,10.3v2.9c-2.2,1.3-4.5-0.6-5.8,1.5c-1.2,1.8,3.3,2,1.4,2.9
					c-7.5,3.8,2.7,26.8,0,35.2c-1.6,4.9-9.3,8.8-11.6,13.2c-3.4,6.3-2.7,13.6-5.8,20.5c-1,2.1-4.7,4.1-5.8,5.9
					c2.3-4.7,3.8-8.7,5.8-14.6c-2.5-0.7-0.8,2.3-4.3,1.5c-0.5-0.1-2.4-2.4-4.3-2.9c-0.8,2.5,0.7,4.8,0,7.3
					c-0.3,0.8-12.9,15.7-13,16.1c-0.9,3.5,2.4,3.1,1.4,7.3c-0.4,1.5-2.2,4.9-4.7,8.8l-1.1,1.2l-1.8-3.7l4.2-6.7c0,0-1.2-1.7-3.8-2.9
					c-2.6-1.1-3.4-3.4-4.2-6.5c-0.7-3-3-2.3-6.4-4.2c-3.4-1.9-3.8-2.7-5.7-5c-1.9-2.3-5.3-1.1-6.4-3.8c-1.1-2.7-1.9-5-1.9-5
					l-8.3-5.3l-6.8,2.3c0,0,1.5-5.3,1.5-7.3c0-1.9,3-3.1,4.9-4.6c1.9-1.5,3-4.6,3-7.6c0-3.1,5.7-2.7,6.4-5c0.8-2.3,1.9-2.3,4.2-4.2
					c2.3-1.9,4.1-3.8,4.9-6.5c0.8-2.7,6.8-1.9,7.9-3.8c1.1-1.9,3.8-1.9,3.4-3.4c-0.4-1.5-0.4-6.5-0.8-9.9c-0.4-3.4-0.4-8.4-0.4-8.4
					s-4.1-1.9-3.4,0.4c0.8,2.3-4.9-1.1-4.9-1.1s-0.4-8.8,1.1-11.1c1.5-2.3,1.5-8,1.5-9.5c0-1.5-3.4,0-5.3,0.8
					c-1.9,0.8-2.3-2.3-2.6-5.4c-0.4-3.1,0.4-7.3,0.4-10.7c0-3.4-1.9-4.6-4.9-5c-3-0.4-2.6-3.4-2.6-3.4l-1.5-2.3l-2.6,1.5
					c0,0-10.9,0-10.6-2.7c0.4-2.7-2.3-4.2-1.5-8c0.8-3.8,1.1-6.9-0.4-9.2c-1.5-2.3-2.5-4-2.5-4l-0.8-2.5l2.5-1.3l-2.5-2.9
					c0,0,3-9.5,3-12.5c0-3.1,1.1-3.4,0-5.7c-1.1-2.3-1.9-3.8-4.5-5.7c-2.6-1.9-2.6-3.8-3.4-6.9c-0.8-3.1,0.8-6.1,0.8-6.1l-14.3,0.8
					c0,0,0.4-2.3-1.5-5.3c-1.9-3.1-3-5.3-1.9-7.6c1.1-2.3,3.4-5,3.4-5s-1.1-3.4-2.3-6.1c-1.1-2.7-1.5-6.5-3-8.4c-1.5-1.9-3.4,0-6,0
					c-2.6,0-4.1-1.9-7.5-1.9c-3.4,0-4.5-2.7-6.8-4.2c-2.3-1.5-1.9-2.7-4.9-4.2c-3-1.5-4.5-3.1-7.2-6.1c-2.6-3.1-4.1,0.8-6.4,0.4
					c-2.3-0.4-3-0.8-4.9-1.5c-1.9-0.8-3-3.1-4.1-5.7c-1.1-2.7,3.4-9.9,3.4-9.9l-1.9-2.7h-4.1c-2.6,0-7.5,2.3-11.3,3.1
					c-3.8,0.8-10.2,11.5-10.2,11.5l-3,0.8c0,0-2.6,1.1-1.5,2.7c1.1,1.5-3.8,3.8-5.7,2.3c-1.9-1.5-4.5-0.8-4.5-0.8l-10.6-3.4
					l1.9-28.6c0,0,0.8-4.2-1.5-2.3c-2.3,1.9-7.2,4.6-7.2,4.6h-8.7c0,0-1.9-1.9-1.9-4.2c0-2.3-5.7-3.8-6.4-6.5
					c-0.8-2.7-5.7-4.6-5.7-4.6l1.5-4.6c0,0,0-4.6-1.5-5c-1.5-0.4-1.5-5-1.9-6.9c-0.4-1.9,4.1,0,4.1,0s-0.4-2.3,0-5
					c0.4-2.7,1.5-3.8,3-6.5c1.5-2.7,1.1-6.1,2.3-8.4c1.1-2.3,5.7-3.8,7.9-6.1c2.3-2.3,6-2.7,8.3-3.4c2.3-0.8,4.9-0.8,7.5-0.8
					c2.6,0,3-3.4,3-3.4s9.8-24.8,10.2-27.1c0.4-2.3,0.8-5-0.8-8c-0.6-1.1-5.3-2.7-5.3-2.7l-0.4-3.4l7.5-0.8l-0.4-3.4l-1.7-1.5h-3.4
					l-0.2-6.1c0,0,2.8-0.8,5.4-0.8c2.6,0,12.6-1.9,12.6-1.9v-4.2l3,2.3l3.4-1.1l1.1-4.6l3.4,0.4l0.8,4.6l3,0.8l4.9,3.4
					c0,0,3.4-3.1,6-3.1c2.6,0,3-4.6,5.3-4.6c2.3,0,3-2.3,4.9-2.3c1.9,0,3-6.1,5.3-6.1c2.3,0,3.4-1.5,3.4-1.5s-0.8-3.8-3.4-3.1
					c-2.6,0.8-5.3,2.3-6.8,1.1c-1.5-1.1-3-1.5-3.8-3.8s1.5-6.5,1.1-8c-0.4-1.5-0.8-2.3-2.6-5c-1.9-2.7,0-4.6-1.9-5.3
					c-1.9-0.8-2.6-1.9,1.1-1.5c3.8,0.4,6.8,2.3,6.8,2.3s4.5,0,6,1.5c1.5,1.5,6,1.5,6,1.5s-2.3-0.8-1.1-2.7c1.1-1.9,3-1.5,3-1.5
					s2.6,0.8,5.3,0.8c2.6,0,1.9-2.3,4.1-2.7c2.3-0.4,2.3-4.2,4.1-4.2c1.9,0,4.5-0.8,4.5-0.8l1.1-3.1l-0.4-3.1c0,0,5.3,2.3,7.2,1.5
					c1.9-0.8,2.3,2.7,2.3,2.7l-3,3.1c0,0,3.4,1.9,4.9,2.3c1.5,0.4-1.5,2.3,0,4.2c1.5,1.9,1.9,2.3,0,4.2c-1.9,1.9-5.3,3.8-5.3,3.8
					s0.8,11.8-0.4,14.9c-1.1,3.1,1.5,4.6,2.6,6.1c1.1,1.5,4.5,1.9,4.5,3.8c0,1.9,2.3,3.1,3.8,3.1c1.5,0,2.3-4.2,4.1-3.4
					c1.9,0.8,0.8-3.4,3-3.1c2.3,0.4,7.2-3.4,9.8-1.9c2.6,1.5,7.2,0.3,7.2,0.3l4.7-0.7v2.3l2.6-4.2l-3.4-2.3l1.5-5.3l3.5,2.3l2.6-1.9
					l1.5,2.3h4.5c0,0,0.8,3.8,3,5.3c2.3,1.5,5.3-1.9,5.3-1.9l5.2-0.6l3.5,2.5c0,0,5.7-6.1,6-8c0.4-1.9,1.5-10.7,1.5-10.7l1.8-6.1
					L-27.2,200.8z M3.6,263.8v2.9c0,0-1.7,1.1-2.9,1.5C1.7,266.3,0.5,263.3,3.6,263.8z M0.7,268.2v2.9c-1.8,0.2-2.4,2.8-2.9,2.9
					C-8.7,275-0.4,269,0.7,268.2z M-19.6,247.7c0.8-0.1,1,3.2,1.4,4.4c3.1-0.1,3.7-0.6,7.2-1.5c-7.8,11.5-11,12.7,0,23.4
					c-0.4-0.3-3.9,0-4.3,0c-1.9-3.4-4-6.9-5.8-10.3c-0.3,0-4.9-0.3-2.9,1.5c-4.1,0.1-2.2,0-1.4,7.3c-1.1-2.2-1.7-3.7-2.9-7.3h-2.9
					c-3,0.6-4.6,2-4.6,2c0,0,1-0.8,3.1-3.5c0.9-1.2,3.5-1.6,4.3-2.9C-25.2,256-26.3,248.5-19.6,247.7z M-15.2,240.4
					c1.8,0.4,1.9,2.5-1.4,2.9C-16.2,241.7-17.8,239.8-15.2,240.4z"/>
				
					<path fill="#EDEDED" stroke="#FFFFFF" stroke-width="2" stroke-linecap="round" stroke-linejoin="round" stroke-miterlimit="10" d="
					M642.7,552.8c0,0,4.8,1.1,6.6,6.1c1.9,5,1.9,5.7,0.8,8.4c-1.1,2.7-0.4,6.1,2.3,6.1c2.6,0,1.5-2.3,4.5-2.3c3,0,8.7-3.8,8.7-3.8
					s9.8-5,9.8-7.3c0-2.3-1.5-3.4,3.4-5.7c1.4-0.6,1.9,1.1,3.8,2.3c1.9,1.2,2.6-1.9,5.3,0c2.6,1.9,5.7-0.4,7.5,0.8
					c1.9,1.2,4.5,2.3,4.5,0s0.8-13.7,0.8-13.7s2.6-2.3,4.9-2.3c2.3,0,1.1-8.4,4.1-9.6c3-1.1,4.5-6.9,7.2-6.9c2.6,0,6.4-4.2,9-4.2
					c2.6,0,0.4-3.1,4.2-2.3c3.8,0.8,5.7-4.6,5.7-4.6s-2.6-0.4-4.1-2.7c-1.5-2.3-1.9,1.1-4.1-1.1c-2.3-2.3-3.4,0-3.4-3.1
					c0-3.1-1.1-5,0.4-6.9c1.5-1.9-3.4-1.1-3.4-3c0-1.9-1.9-1.5-2.6-3.4c-0.8-1.9-0.8-5-0.8-5s-4.9-1.9-5.7-4.2
					c-0.8-2.3-0.4,1.2-3.4,0.4c-3-0.8-0.4-2.7-2.6-3.4c-2.3-0.8-5.7-7.2-5.7-7.2s0-5-2.3-5c-2.3,0-3-6.5-3-6.5s-3.8-0.8-4.1,2.7
					c-0.4,3.4-4.9-2.3-5.3,0.8c-0.4,3.1-3.4,1.5-3.4,1.5l-21.1,1.9h-7.2l-0.4,40.1h-10.2L642.7,552.8z"/>
				
					<path fill="#EDEDED" stroke="#FFFFFF" stroke-width="2" stroke-linecap="round" stroke-linejoin="round" stroke-miterlimit="10" d="
					M476.7,175.9c1.5-0.9,4.4-1.7,7.6-2.1c0,0,0.7-6,0.7-8.3c0-2.3,0.8-4.6-1.1-6.9c-1.9-2.3,1.9-10.7,0.8-13
					c-1.1-2.3-1.1-4.6,0.8-3.4c1.9,1.1,2.6-1.5,1.5-3.4c-1.1-1.9,0.4-1.9,1.5-4.2c1.1-2.3,0.8-3.1,0.8-6.1c0-3.1,0.4-3.4,2.3-3.4
					c1.9,0-1.1-2.3,0-5.7c1.1-3.4,1.1-4.6-0.8-5.7c-1.9-1.1-3-1.9-1.5-3.4c1.5-1.5,0.4-5.7,0.4-5.7l-5.7-2.3c0,0,1.1-1.9-1.1-3.4
					c-2.3-1.5-4.1-0.8-4.1-0.8l-3.8,5c0,0,0.8,1.5-1.1,3.1c-1.9,1.5-3.4,1.9-3.4,1.9s0,3.1-1.5,3.1c-1.5,0-2.3,0-2.3,0l-0.8,9.9
					l7.2,1.9c0,0,1.1,4.2,0.4,6.5c-0.8,2.3,0.8,5.3,0.8,5.3s1.5,2.3,0,6.9c-1.5,4.6,0,5,0,8.8c0,3.8,0.8,4.2-0.4,7.6
					c-1.1,3.4-1.1,3.8-0.4,6.5c0.8,2.7,0.4,6.5,0.4,6.5s-0.1,1.5,1.1,2.3c0.5,0.4,0.9,3.6,0.9,3.6L476.7,175.9z"/>
				
					<path fill="#EDEDED" stroke="#FFFFFF" stroke-width="2" stroke-linecap="round" stroke-linejoin="round" stroke-miterlimit="10" d="
					M570.2,310.3l7.6-4.2c0,0-1.2,0,0.4-3.1c1-1.9,2.9-4.8,2.9-4.8s-1.5-3.4-4.1-0.8c-1.7,1.7-0.6,2.1-0.6,2.1c0,0-0.4,0-1.9,0
					c-4.2,0-6.5,3-6.5,3l2.9,5.1C571.2,308.9,570.7,309.7,570.2,310.3z M573.5,322.5c0,0,6.5-3.3,8.3-5.2c1.9-1.9,5.3-3.8,9.8-3.1
					c4.5,0.8,12.4,0.8,12.4,0.8l18.5-0.4c0,0,1.5,4.6,2.3,6.5c0.8,1.9-0.8,3.1,0.4,5.7c1.1,2.7,0.4,3.8,1.1,7.6c0.8,3.8,1.1,2.7,3,5
					c1.9,2.3,3.4,1.5,6,1.5c2.6,0,3.8-3.8,5.3-2.3c1.5,1.5,4.1,0,3.4-1.5c-0.8-1.5-1.9-5.3-0.4-7.3c1.5-1.9,2.3-0.8,6-0.4
					c3.8,0.4,5.6-1.9,5.6,0.8v2.7c0,0,7.5-1.9,8.7,2.3c0.7,2.5-1.5,5.7,0.8,6.5c2.3,0.8,0.4,3.1,0.8,6.1c0.4,3.1,0.4,3.4,1.9,6.1
					c1.5,2.7-0.8,4.2,1.5,5.7c2.3,1.5,1.9,3.8,1.1,5.7c-0.8,1.9-1.1,2.3-0.4,5.4c0.8,3-0.4,4.6,1.5,6.5c1.9,1.9,3.4,2.3,4.5,0.4
					c1.1-1.9,2.6-1.1,4.2-0.8c1.5,0.4,6.4,0,6.4,0s1.9,5,1.9,7.3c0,2.3-2.3,3.8-1.9,5.7c0.4,1.9,0.4,2.7,0.4,4.6
					c0,1.9-0.4,3.4-0.4,3.4h-20.3l-0.4,43.1c0,0,1.1,0.4,2.3,5c1.1,4.6,0.8,3.1,4.9,6.9c4.1,3.8,1.1,7.9,6,7.6l-2.5,0.3l-20.5,3.6
					c0,0-4.9-2.7-7.2-1.9c-2.3,0.8-0.8-1.5-3.8,0c-3,1.5-3.8-3.1-7.2-1.9c-3.4,1.1-2.3-1.9-4.5-1.9c-2.3,0-3.8-3.8-3.8-3.8
					l-41.8-1.1c0,0-2.9-2.8-5.2-2.8c-2.3,0-2.1,4.1-5.3,3c-3.4-1.1-10.6,0.7-10.6,0.7c-0.4-8-0.5-16.9,0-19.3
					c0.4-2.2,6.7-9.9,7.2-11.7c2.1-7.5-2.2-8.8,1.4-16.1c0.3-0.6,3.8-0.6,4.3-1.5c0.9-1.5-0.6-2.8,0-4.4c0.7-1.9,4.9-4.5,5.8-7.3
					c2.3-7.6,1.2-16.5-1.4-23.4c-0.2-0.5-2.8-1.1-2.9-1.5c-1.2-5.3,3.1-13.5,2.9-20.5l-2.9-2.9c-0.7-4.4,1.1-7-1.4-13.2
					c-0.2-0.5-4-3.6-4.3-4.4C574.4,326.3,573.9,324.4,573.5,322.5z"/>
				
					<path fill="#EDEDED" stroke="#FFFFFF" stroke-width="2" stroke-linecap="round" stroke-linejoin="round" stroke-miterlimit="10" d="
					M383.4-82.3l0.1,7.2L415-50.7l59.5,45.9c0,0,0.4,3,2.6,5c2.3,1.9,5.3,1.9,7.2,3.4c1.9,1.5,3.8,1.1,3,5.3
					c-0.8,4.2-0.8,2.7,0.4,5.3c1.1,2.7,0.4,3.9,0.1,5.5c-0.4,1.5,9.7-2,9.7-2l13.3-2.6l5.2-9.3l50.5-39.3c0,0-2.6-4.2-4.9-4.2
					c-2.3,0-2.3-3.1-4.5-3.8c-2.3-0.8-4.5-1.1-6.4-1.1c-1.9,0-4.1-3.8-4.1-6.5c0-2.7-0.4-3.8-2.3-5.7c-1.9-1.9-2.3-5.3-3.8-7.3
					c-1.5-1.9-3-3.8-3-3.8s5.3-1.1,6-5.3c0.8-4.2,0.4-12.2,0.4-12.2s0.8-3.4-0.8-3.8c-1.5-0.4,3-3.1,3-3.1l-3.4-4.2l1.1-19.5
					c0,0-2.6-2.7-1.5-4.2c0.4-0.6,1-0.9,1.5-1.2l-3.4-21.7l-5.3-1.5c0,0-1.1-6.1-2.3-8.4c-1.1-2.3-3.8-1.5-3.8-1.5
					s-1.9-7.6-1.9-10.7c0-3.1,1.1-2.3,3.4-2.7c2.3-0.4,4.5-3.8,4.5-6.1c0-2.3,3-1.5,2.6-5c-0.4-3.4-2.3-6.9-2.3-9.5
					c0-2.7,0.8-4.6-1.1-5.7c-1.9-1.1-0.9-8.6-0.9-8.6c-1.7-0.7-2.8-1.1-4.6-1.3c-0.7,1.3-1.8,5.2-2.9,5.9c-2.3-1.8-2.8-3.2-4.3-5.9
					c-7.9,2.4-10.7,1.2-18.8,1.5c-3.2,0.1-12.3,4.2-14.5,4.4c-2.5,0.1-8.3-2.5-13-1.5c-2.3,0.5-5.6,5.3-7.2,5.9
					c-1.6,0.5-4.2-0.7-5.8,0c-0.8,0.3-2.1,4-2.9,4.4c-3.8,1.5-6.7-0.3-10.1,1.5c-3.6,1.7-5,8.2-10.1,8.8c0,0,2.6,2.9,2.2,5.6
					c-0.4,2.7-1.5,4.6-1.5,8c0,3.4,3,2.7,3,5.7c0,3.1-0.4,3.8,1.5,6.5c1.9,2.7,3.8,4.2,2.3,6.1c-1.5,1.9-6.8,2.7-7.2,5.7
					c-0.4,3.1-4.9,2.3-4.9,5.7c0,3.4,1.1,3.1-1.9,5.7c-3,2.7-5.7,2.7-5.7,2.7s-4.1,8.4-7.5,10.7c-3.4,2.3-3.4,3.1-6.4,3.8
					c-3,0.8-3-1.1-5.7,2.3c-2.6,3.4-6.4,3.4-9.8,4.2c-3.4,0.8-5.7,1.9-7.5,3.4c-1.9,1.5-2.6,3.8-4.5,5.3c-1.9,1.5-2.3,3.1-2.3,3.1
					L383.4-82.3z"/>
				
					<path fill="#DFDFDF" stroke="#FFFFFF" stroke-width="3" stroke-linecap="round" stroke-linejoin="round" stroke-miterlimit="10" d="
					M764.5,568.1c-0.1,6.5-1,18.8-1.3,19.5c-0.1,0.1-4.2,0-4.3,0c0,0.9,0.5,3.5,0,4.4l2.9,2.9c-1.7,1.2-10.8,6.2-11.6,7.3
					c-2.6,3.2-5.4,12.3-7.2,16.1h-1.5c-0.6,1.6,0.9,3,0,4.4c-1.4,2.1-5.6,3.8-7.2,5.9c-6.5,7.6-17.4,25.2-27.5,27.8
					c-2.5,0.6-4.8-0.8-7.2,0v2.9c-2.7,0.5-6,0-8.7,0c-0.2,0.3-1.4,2.9-1.4,2.9c-8.8,0.7-12.1-4.3-23.1-1.5c-1,0.2-3.9,4.3-4.3,4.4
					c-3,0.6-5.7-2.5-10.1-1.5c-2.2,0.4-7.5,7.3-14.5,5.9l-1.4-2.9c-1,0-3.3,0.4-4.3,0v-2.9l-4.3,2.9v-1.5
					c-3.5-1.8-2.7-15.9-2.9-16.1l-2.9-1.5c0.4-5.3,5.2-2.6,5.8-8.8c0.4-4.5-2.6-16.1-4.3-19c-0.4-0.6-3.8-1.6-4.3-2.9
					c-2-4.8-0.9-13.1-1.4-14.7c-0.6-1.6-4.8-4.3-5.4-5.6c0,0,5.4-4.6,6.2-6.1c0.8-1.5,1.5-1.5,3.8-1.5c2.3,0-0.5,2,0.6,4.3
					c1.1,2.3,1.5,2.3,4.9,2.3c3.4,0,3.4,1.5,5.3,0c1.9-1.5,3-1.5,4.2-3.8c1.1-2.3,5.7-1.9,5.7-1.9l0.5-37c0,0,4.8,1.1,6.6,6.1
					c1.9,5,1.9,5.7,0.8,8.4c-1.1,2.7-0.4,6.1,2.3,6.1c2.6,0,1.5-2.3,4.5-2.3c3,0,8.7-3.8,8.7-3.8s9.8-5,9.8-7.3
					c0-2.3-1.5-3.4,3.4-5.7c1.4-0.6,1.9,1.1,3.8,2.3c1.9,1.2,2.6-1.9,5.3,0c2.6,1.9,5.7-0.4,7.5,0.8c1.9,1.2,4.5,2.3,4.5,0
					s0.8-13.7,0.8-13.7s2.6-2.3,4.9-2.3c2.3,0,1.1-8.4,4.1-9.6c3-1.1,4.5-6.9,7.2-6.9c2.6,0,6.4-4.2,9-4.2c2.6,0,0.4-3.1,4.2-2.3
					c3.8,0.8,5.7-4.6,5.7-4.6s3,2.3,4.5,1.1c1.5-1.1,5.7-0.8,5.7-0.8s0.8,1.5,3.8,1.5c3,0,5.3,1.5,5.3,1.5s1.1,7.2-0.4,9.9
					c-1.5,2.7-0.8,6.5,0.4,10.7c1.1,4.2,0.4,7.3-0.4,9.5c-0.8,2.3-1.9,3.8-0.4,5.7c1.5,1.9,1.5,3.4,1.5,3.4s-3,2.3-4.5,1.2
					c-1.5-1.2-3,0.8-3,4.6c0,3.8-0.8,3.1,0.8,6.1c1.5,3.1,0.8,1.5,3.4,3.1c2.6,1.5,6.8,2.3,6.8,2.3l-0.4-6.1L764.5,568.1z
					 M719.6,614.2c0.8-0.6,1.1-1.2,1.9-1.9c1.1-0.9,1.8-1.3,3-1.9c1.4-0.7,2.9,0.1,3.8-1.1c1-1.5,0-2.9-0.8-4.6
					c-0.8-1.6-1.9-2.1-3-3.4l-1.9-2.3c0,0-4.2,2.3-6,4.2c-1.9,1.9-2.4,1.6-3.5,1.6c-1.1,0-3,3.8-1.9,3.8c1.1,0,0.9,1.1,2,3.3
					c1.1,2.3,0,3.8,3,3.8C719.2,615.7,718.4,615,719.6,614.2z"/>
				
					<path fill="#DFDFDF" stroke="#FFFFFF" stroke-width="3" stroke-linecap="round" stroke-linejoin="round" stroke-miterlimit="10" d="
					M594.4,89.6l-1.1,8.8c0,0,3,1.1,3,2.7c0,1.5-1.6,8.6-3.5,8.6c-1.9,0-3,0.4-3,2.3c0,1.9-2.3,3.8-3.8,5.3c-1.5,1.5,0.7,2.7-0.4,5
					c-1.1,2.3-1.1,4.2-2.6,4.6c-1.5,0.4-1.5,4.2-1.5,4.2s1.5,3.8,0,4.6c-1.5,0.8-4.5,2.7-6.8,3.4c-2.3,0.8-2.6,1.1-3,4.2
					c-0.4,3.1,0.4,4.2-1.5,6.1c-1.9,1.9-0.8,1.9-2.3,5c-1.5,3.1-3,1.9-4.1,4.6c-1.1,2.7-2.3,4.6-2.3,6.5c0,1.9,2.3,3.8,0,5
					c-2.3,1.1-2.5,6.6-6.8,5.7c0.1-2.5,1.5-5.3-0.8-6.5c-2.3-1.1-3.4-1.1-3.4-1.1s-1.5-0.8-3.4,1.1c-1.9,1.9-6,1.5-6.8,3.8
					c-0.8,2.3-0.8,6.1-2.3,6.5c-1.5,0.4-0.8,0.8-0.8,3.1c0,2.3,1.5,2.7,1.5,2.7l-1.5,4.2l0.3,7.9c-1-0.5-0.8-2.1-1.7-2.8
					c-0.1,0.2-1.9,3.1-2.9,2.9c-0.8-0.1,0.1-3.9-4.3-2.9v2.9c-7.1,1.1-7,1.2-14.5,2.9c-1.4-2-5.2-5.2-5.8-7.3
					c-1.3-4.8,2.6-4,1.4-8.8c-0.5-1.8-9.9-9.7-11.6-10.3c-3.7-1.3-9.3-1.3-14.1-0.7c0,0,0.7-6,0.7-8.3c0-2.3,0.8-4.6-1.1-6.9
					c-1.9-2.3,1.9-10.7,0.8-13c-1.1-2.3-1.1-4.6,0.8-3.4c1.9,1.1,2.6-1.5,1.5-3.4c-1.1-1.9,0.4-1.9,1.5-4.2c1.1-2.3,0.8-3.1,0.8-6.1
					c0-3.1,0.4-3.4,2.3-3.4c1.9,0-1.1-2.3,0-5.7c1.1-3.4,1.1-4.6-0.8-5.7c-1.9-1.1-3-1.9-1.5-3.4c1.5-1.5,0.4-5.7,0.4-5.7l3.4-7.6
					c0,0,3.8-3.4,3.8-5.7c0-2.3,0.8-5.3,0.8-5.3s6.8-3.4,9.4-4.6c2.6-1.1,4.9-1.1,7.5-1.1c2.6,0,2.6,2.3,4.5,2.3
					c1.9,0,4.9,5.7,4.9,5.7s3.4,0.8,6-0.8c2.6-1.5,5.7-2.7,7.2-0.8c1.5,1.9-0.4,2.3,4.9,2.7c5.3,0.4,8.7,1.1,9-0.4
					c0.4-1.5,3.9-3.3,6.1-3.3c2.3,0,5.6-1.3,9.7,0.2c4.1,1.5,8,0.5,11,0.5c3,0,4.9-4.2,4.9-4.2l5.8-2.1l3.9,8.1l1.1-0.1L594.4,89.6z
					"/>
				
					<path fill="#DFDFDF" stroke="#FFFFFF" stroke-width="3" stroke-linecap="round" stroke-linejoin="round" stroke-miterlimit="10" d="
					M779.1,259.4c3.3,1,2.4-2.5,5.8-1.5c-2.2,4.7-2.9,7.8-3.7,13l30.9,14.4c0,0,1.9,2.3,1.5,5c-0.4,2.7-0.4,4.6,1.9,5
					c2.3,0.4,2.6,1.9,2.6,1.9l10.3,6.4c0.2-3.4-1.3-7.4-0.2-10.4h2.9v-1.5c0-2.7,3.3-5.4,4.3-7.3c0.4,0,3.9,0.3,4.3,0
					c1.3-1.1,1.5-6.4,2.9-7.3c1.9-1.3,4.5,0.4,5.8-1.5c0.8-1.2-0.4-4.4,0-5.9c0.2-1.1,4-3.8,4.3-4.4c1.6-3.7,1-5.2,1-7l-4.4-5.9
					l-0.8-39.3l5.3-3.8l5.6-12.6c0,0-8.3,2.3-10.9,1.1c-2.6-1.1-2.6-3.8-2.6-3.8s-3.2,4.4-5.9,2.8c-2.6-1.5-3.8,3.4-3.8,3.4
					s-2.8,0.2-5.1,0.2c-2.3,0-4,0.5-5.5-1c-1.5-1.5-7.9-1.1-7.9-1.1s-4.5,2.3-6.4,0.4c-1.9-1.9-4.9,1.1-6.4,0.8
					c-1.5-0.4-6.8-0.8-6.8-0.8l-5.7-4.2l-4.1,0.4c0,0-1.4-0.1-3.8,0l-2.6,2.7l-4.5,1.1l0.4,2.7c0,0,0.8,1.5,1.9,2.3
					c3.8,2.5,0.4,0.4,2.3,2.3c1.9,1.9,0.4,2.3-0.4,6.1c-0.8,3.8-1.1,5,1.1,6.9c2.3,1.9,2.6,3.8,2.3,6.1c-0.4,2.3-0.5,4-1.3,5.6
					c-0.8,1.5-3-0.4-3.4,3.8c-0.4,4.2,0.4,5.7-1.5,7.6c-1.9,1.9,2,7.8,0.9,9c-1.1,1.1,0,3.4,0,3.4l-0.8,4.2L779.1,259.4z
					 M797.9,200.8c0.3,3.1,0.3,8.8,1.5,13.2c0.2,0.7,4.2,4.1,4.3,4.4c3.2,12.6-8.4-4.3-8.7-5.9C793.6,206.1,797.7,202,797.9,200.8z"
					/>
			</g>
			<g clip-path="url(#SVGID_2_)">
				<text transform="matrix(1 0 0 1 378.3826 149.1546)" fill="#222222" font-family="'Helvetica-Bold'" font-size="32">Nigeria</text>
			</g>
			<g clip-path="url(#SVGID_2_)">
				<text transform="matrix(1 0 0 1 866.8211 267.824)" fill="#222222" font-family="'Helvetica-Bold'" font-size="32">Kenya</text>
			</g>
			<g clip-path="url(#SVGID_2_)">
				<text transform="matrix(1 0 0 1 742.201 618.492)" fill="#222222" font-family="'Helvetica-Bold'" font-size="32">South Africa</text>
			</g>
			<circle opacity="0.8" clip-path="url(#SVGID_2_)" fill="#FF944C" cx="537.5" cy="138.5" r="37.5"/>
			<circle opacity="0.8" clip-path="url(#SVGID_2_)" fill="#FF944C" cx="820.5" cy="254.1" r="37.5"/>
			<circle opacity="0.8" clip-path="url(#SVGID_2_)" fill="#FF944C" cx="687.5" cy="601.2" r="37.5"/>
		</g>
	</g>
</g>
</svg>
