<?xml version="1.0" encoding="utf-8"?>
<!-- Generator: Adobe Illustrator 18.0.0, SVG Export Plug-In . SVG Version: 6.00 Build 0)  -->
<!DOCTYPE svg PUBLIC "-//W3C//DTD SVG 1.1//EN" "http://www.w3.org/Graphics/SVG/1.1/DTD/svg11.dtd">
<svg version="1.1" id="Layer_1" xmlns="http://www.w3.org/2000/svg" xmlns:xlink="http://www.w3.org/1999/xlink" x="0px" y="0px"
	 viewBox="0 818.4 624 717.6" enable-background="new 0 818.4 624 717.6" xml:space="preserve">
<g>
	<g>
		<g>
			<path fill="#BD2C14" d="M36.4,1207.6c-20,0-36.4-16.4-36.4-36.4v-262c0-20,16.4-36.4,36.4-36.4h551.3c20,0,36.4,16.4,36.4,36.4
				v262c0,20-16.4,36.4-36.4,36.4H36.4z"/>
			<g>
				<path fill="#19A347" d="M36.4,1207.6c-20,0-36.4-16.4-36.4-36.4v-262c0-20,16.4-36.4,36.4-36.4h551.3c20,0,36.4,16.4,36.4,36.4
					v262c0,20-16.4,36.4-36.4,36.4H36.4z"/>
			</g>
			<path fill="#007326" d="M36.1,1025.8c-7.9,0-14.4,6.5-14.4,14.4s6.5,14.4,14.4,14.4s14.4-6.5,14.4-14.4S44,1025.8,36.1,1025.8
				 M36.1,1017.6c12.5,0,22.6,10.1,22.6,22.6s-10.1,22.6-22.6,22.6s-22.6-10.1-22.6-22.6C13.5,1027.7,23.6,1017.6,36.1,1017.6
				L36.1,1017.6z"/>
			<g>
				<path fill="#724320" d="M137.6,1207.5c13.8-9.2,31.6-15.3,48.9-15.3c41.7,0,74.6,15.3,74.6,15.3h7.4H547
					c1.1,35.9,1.6,111.3-12.5,140.8c-18.8,39.4-50.2,124.6-50.2,124.6l-24,63.1H249.9l33.7-94.4c32.5-88.7,11.2-87.4-18.4-111.1
					c-29.6-23.7-46.2-61.8-82.5-66.8c-30.9-4.2-54,20.6-68.1-7.6C106.3,1239.5,118.1,1220.5,137.6,1207.5z"/>
				<path fill="#724320" d="M400.9,856c0,13.4,14,24.2,31.4,24.2c17.3,0,31.4-10.8,31.4-24.2c0-13.4-14-24.2-31.4-24.2
					C415,831.8,400.9,842.7,400.9,856z"/>
				<ellipse fill="#724320" cx="366.7" cy="852.5" rx="34.3" ry="27.8"/>
				<path fill="#724320" d="M184,856c0,15.3,15.3,27.8,34.3,27.8s34.3-12.4,34.3-27.8c0-15.3-15.3-27.8-34.3-27.8S184,840.7,184,856
					z"/>
				<ellipse fill="#724320" cx="293.8" cy="850.2" rx="39.3" ry="31.8"/>
				<path fill="#8E694D" d="M413,849.9c4.6,4.3,11.5,7,19.3,7s14.7-2.7,19.3-7c-4.6-4.3-11.5-7-19.3-7S417.6,845.6,413,849.9z"/>
				<path fill="#8E694D" d="M366.7,836.4c-9.5,0-17.9,3.9-22.8,9.9c4.9,6,13.3,9.9,22.8,9.9s17.9-3.9,22.8-9.9
					C384.5,840.3,376.2,836.4,366.7,836.4z"/>
				<path fill="#8E694D" d="M218.3,840c-9.5,0-17.9,3.9-22.8,9.9c4.9,6,13.3,9.9,22.8,9.9s17.9-3.9,22.8-9.9
					C236.2,843.9,227.8,840,218.3,840z"/>
				<path fill="#8E694D" d="M293.8,830.9c-11.8,0-22.1,5.3-27.5,13.1c5.4,7.8,15.6,13.1,27.5,13.1s22.1-5.3,27.5-13.1
					C315.9,836.2,305.6,830.9,293.8,830.9z"/>
				<path fill="#8E694D" d="M163.7,1241.4c-16.4,0-29.9,12.4-31.7,28.3c13.3,1.1,30.3-8.8,50.7-6c4.3,0.6,8.4,1.7,12.2,3.1
					C191.9,1252.3,179.1,1241.4,163.7,1241.4z"/>
			</g>
			<g>
				<g>
					<g>
						<g>
							<rect x="77.8" y="896.1" fill="#D9F0E0" width="510.6" height="287.2"/>
						</g>
						<rect x="77.8" y="1111.5" fill="#A6DBB8" width="510.6" height="71.8"/>
						<rect x="77.8" y="1075.8" fill="#BFE5CC" width="510.6" height="35.7"/>
					</g>
					<rect x="529" y="973.7" fill="#BFE5CC" width="38.4" height="119.9"/>
					<rect x="470.1" y="998.1" fill="#BFE5CC" width="38.4" height="95.5"/>
					<rect x="93.4" y="998.1" fill="#BFE5CC" width="38.4" height="95.5"/>
					<rect x="411.3" y="927.4" fill="#BFE5CC" width="38.4" height="164.7"/>
					<rect x="352.4" y="959.5" fill="#BFE5CC" width="38.4" height="132.6"/>
					<rect x="371.6" y="998.1" fill="#BFE5CC" width="59" height="11.7"/>
					<rect x="371.6" y="1038.2" fill="#BFE5CC" width="59" height="11.7"/>
				</g>
				<g>
					<g>
						<g>
							<path fill="#825330" d="M185.9,1122.7c-11-21.2-13.6-43.4-13.6-43.4c-5.1,7-11.2,5.1-19.6-23.3c-8.4-28.5,6.1-24.7,6.1-24.7
								c-6.8-108.5,83.4-109.1,83.4-109.1s90.3,0.6,83.4,108.9c0,0,14.5-3.7,6.1,24.7c-8.4,28.5-14.5,30.3-19.6,23.3
								c0,0-2.6,22.2-13.6,43.4c-0.7,12.5-1.3,28.5,0.1,29.9c1.5,1.5,24.6,6.6,50.5,14.3c0,0.1,0,0,0,0.1l-109.3,10.5l-102-10.5
								c-0.1-0.5,0-0.3-0.1-0.8c25-7.4,46.8-12.2,48.2-13.6C187.3,1151.1,186.7,1135.2,185.9,1122.7z"/>
						</g>
						<path fill="#66C285" d="M297.3,1150.8c30.2,6.2,78.7,17.4,103.3,32.4h-318c24.6-15.1,73.1-26.2,103.3-32.4
							c0.7,11.7,25.4,21.1,55.7,21.1S296.6,1162.5,297.3,1150.8z"/>
					</g>
				</g>
			</g>
		</g>
		<g>
			<polygon fill="#66C285" points="516.5,1536 537.1,1457.3 227.9,1408.9 190,1536 			"/>
		</g>
	</g>
	<path fill="#724320" d="M187,1125.1c0,0,1.1,1.7,3.5,4.3c2.3,2.6,5.9,6.3,10.7,10c4.8,3.7,10.9,7.5,18,10.2
		c3.5,1.4,7.3,2.4,11.2,3.2c3.9,0.7,7.9,1.1,12,1.1s8.1-0.4,12-1.1c3.9-0.7,7.7-1.8,11.2-3.2c7.1-2.7,13.2-6.5,18-10.2
		c4.8-3.7,8.4-7.3,10.7-10c2.3-2.7,3.5-4.3,3.5-4.3l0.3,0.2c0,0-0.2,0.5-0.7,1.3s-1.2,2.1-2.3,3.5c-1,1.5-2.4,3.2-4,5.1
		c-1.7,1.9-3.6,4-6,6.1c-2.3,2.1-5,4.2-8.1,6.2c-3,2-6.4,3.9-10.1,5.4c-1.8,0.8-3.8,1.5-5.7,2.1c-1,0.3-2,0.6-3,0.9
		c-1,0.2-2,0.5-3.1,0.7c-2.1,0.4-4.2,0.7-6.3,1c-1.1,0.1-2.2,0.2-3.3,0.3l-3.1,0.1c-4.3,0-8.6-0.5-12.7-1.3c-1-0.2-2.1-0.5-3.1-0.7
		c-1-0.2-2-0.6-3-0.9c-2-0.6-3.9-1.3-5.7-2.1c-3.7-1.5-7.1-3.4-10.1-5.4c-0.8-0.5-1.5-1-2.2-1.5s-1.4-1-2.1-1.5
		c-0.7-0.5-1.3-1.1-1.9-1.6c-0.6-0.5-1.2-1.1-1.8-1.6c-2.4-2.1-4.3-4.2-6-6.1c-1.7-1.9-3-3.7-4-5.1c-1.1-1.5-1.8-2.7-2.3-3.5
		c-0.5-0.8-0.7-1.3-0.7-1.3L187,1125.1z"/>
</g>
</svg>
