<?xml version="1.0" encoding="utf-8"?>
<!-- Generator: Adobe Illustrator 18.0.0, SVG Export Plug-In . SVG Version: 6.00 Build 0)  -->
<!DOCTYPE svg PUBLIC "-//W3C//DTD SVG 1.1//EN" "http://www.w3.org/Graphics/SVG/1.1/DTD/svg11.dtd">
<svg version="1.1" id="Layer_1" xmlns="http://www.w3.org/2000/svg" xmlns:xlink="http://www.w3.org/1999/xlink" x="0px" y="0px"
	 viewBox="0 0 600 690" enable-background="new 0 0 600 690" xml:space="preserve">
<g>
	<g>
		<path fill="#BD2C14" d="M35,374.2c-19.2,0-35-15.7-35-35v-252c0-19.2,15.7-35,35-35H565c19.2,0,35,15.7,35,35v252
			c0,19.2-15.7,35-35,35H35z"/>
		<g>
			<path fill="#19A347" d="M35,374.2c-19.2,0-35-15.7-35-35v-252c0-19.2,15.7-35,35-35H565c19.2,0,35,15.7,35,35v252
				c0,19.2-15.7,35-35,35H35z"/>
		</g>
		<path fill="#007326" d="M34.7,199.4c-7.6,0-13.9,6.2-13.9,13.9c0,7.6,6.2,13.9,13.9,13.9c7.6,0,13.9-6.2,13.9-13.9
			C48.6,205.6,42.4,199.4,34.7,199.4 M34.7,191.5c12,0,21.8,9.7,21.8,21.8c0,12-9.7,21.8-21.8,21.8c-12,0-21.8-9.8-21.8-21.8
			C12.9,201.3,22.7,191.5,34.7,191.5L34.7,191.5z"/>
		<g>
			<path fill="#724320" d="M132.4,374.2c13.3-8.8,30.4-14.7,47-14.7c40.1,0,71.7,14.7,71.7,14.7h7.1h267.7
				c1.1,34.5,1.6,107-12,135.4c-18.1,37.9-48.3,119.8-48.3,119.8l-23,60.6H240.2l32.4-90.8c31.2-85.3,10.8-84-17.7-106.9
				c-28.4-22.8-44.4-59.5-79.3-64.2c-29.7-4-51.9,19.8-65.5-7.3C102.2,404.9,113.6,386.6,132.4,374.2z"/>
			<path fill="#724320" d="M385.5,36.2c0,12.8,13.5,23.3,30.2,23.3c16.7,0,30.2-10.4,30.2-23.3c0-12.9-13.5-23.3-30.2-23.3
				C399,12.9,385.5,23.3,385.5,36.2z"/>
			<ellipse fill="#724320" cx="352.6" cy="32.7" rx="33" ry="26.7"/>
			<path fill="#724320" d="M177,36.2c0,14.8,14.8,26.7,33,26.7s33-12,33-26.7c0-14.8-14.8-26.7-33-26.7S177,21.4,177,36.2z"/>
			<ellipse fill="#724320" cx="282.5" cy="30.6" rx="37.7" ry="30.6"/>
			<path fill="#8E694D" d="M397.1,30.3c4.4,4.1,11.1,6.7,18.6,6.7c7.5,0,14.1-2.6,18.6-6.7c-4.4-4.1-11.1-6.7-18.6-6.7
				C408.2,23.5,401.5,26.1,397.1,30.3z"/>
			<path fill="#8E694D" d="M352.6,17.3c-9.1,0-17.2,3.8-21.9,9.5c4.7,5.7,12.8,9.5,21.9,9.5c9.1,0,17.2-3.8,21.9-9.5
				C369.7,21.1,361.7,17.3,352.6,17.3z"/>
			<path fill="#8E694D" d="M209.9,20.8c-9.1,0-17.2,3.8-21.9,9.5c4.7,5.7,12.8,9.5,21.9,9.5c9.1,0,17.2-3.8,21.9-9.5
				C227.1,24.5,219.1,20.8,209.9,20.8z"/>
			<path fill="#8E694D" d="M282.5,12.1c-11.4,0-21.2,5.1-26.4,12.6c5.2,7.5,15,12.6,26.4,12.6c11.4,0,21.2-5.1,26.4-12.6
				C303.8,17.1,293.9,12.1,282.5,12.1z"/>
			<path fill="#8E694D" d="M157.4,406.7c-15.8,0-28.7,11.9-30.5,27.2c12.8,1.1,29.1-8.4,48.8-5.8c4.2,0.6,8.1,1.6,11.8,3
				C184.5,417.2,172.2,406.7,157.4,406.7z"/>
		</g>
		<g>
			<g>
				<g>
					<g>
						<rect x="74.8" y="74.7" fill="#D9F0E0" width="491" height="276.2"/>
					</g>
					<rect x="74.8" y="281.8" fill="#A6DBB8" width="491" height="69"/>
					<rect x="74.8" y="247.5" fill="#BFE5CC" width="491" height="34.3"/>
				</g>
				<rect x="508.6" y="149.3" fill="#BFE5CC" width="37" height="115.3"/>
				<rect x="452" y="172.8" fill="#BFE5CC" width="37" height="91.9"/>
				<rect x="89.8" y="172.8" fill="#BFE5CC" width="37" height="91.9"/>
				<rect x="395.4" y="104.8" fill="#BFE5CC" width="37" height="158.4"/>
				<rect x="338.8" y="135.6" fill="#BFE5CC" width="37" height="127.5"/>
				<rect x="357.3" y="172.8" fill="#BFE5CC" width="56.8" height="11.2"/>
				<rect x="357.3" y="211.3" fill="#BFE5CC" width="56.8" height="11.2"/>
			</g>
			<g>
				<g>
					<g>
						<path fill="#825330" d="M178.8,292.6c-10.6-20.4-13.1-41.8-13.1-41.8c-4.9,6.7-10.8,4.9-18.9-22.4
							c-8.1-27.4,5.8-23.8,5.8-23.8c-6.6-104.2,80.2-104.8,80.2-104.8s86.8,0.6,80.2,104.8c0,0,13.9-3.6,5.8,23.8
							c-8.1,27.4-13.9,29.2-18.9,22.4c0,0-2.5,21.3-13.1,41.8c-0.7,12-1.3,27.4,0.1,28.7c1.4,1.4,23.7,6.3,48.6,13.8
							c0,0.1,0,0,0,0.1l-105.1,10.1l-98-10.1c-0.1-0.4,0-0.3-0.1-0.8c24-7.1,45-11.7,46.4-13.1C180.1,319.9,179.5,304.6,178.8,292.6
							z"/>
					</g>
					<path fill="#66C285" d="M285.9,319.7c29,6,75.7,16.7,99.3,31.2H79.4c23.6-14.5,70.3-25.2,99.3-31.2
						c0.7,11.3,24.4,20.3,53.6,20.3S285.2,330.9,285.9,319.7z"/>
				</g>
			</g>
		</g>
	</g>
	<g>
		<polygon fill="#66C285" points="496.6,689.6 516.4,614.3 219.1,567.8 182.7,689.6 		"/>
	</g>
</g>
</svg>
